<svg xmlns="http://www.w3.org/2000/svg" width="800" height="600" fill="none" viewBox="0 0 800 600">
    <path d="M139.1 318.997C139.1 364.344 187.021 397.233 208.162 433.842C230.119 471.676 235.29 529.35 273.097 551.196C309.703 572.382 361.8 548.675 407.13 548.675C452.459 548.675 504.556 572.382 541.139 551.196C578.897 529.35 584.116 471.616 606.001 433.842C627.178 397.209 675.1 364.344 675.1 318.997C675.1 273.649 627.106 240.772 606.001 204.151C584.164 166.389 578.897 108.655 541.139 86.785C504.508 65.6116 452.351 89.3657 407.082 89.3657C361.812 89.3657 309.655 65.6116 273.157 86.785C235.398 108.655 230.179 166.389 208.294 204.151C187.129 240.772 139.232 273.661 139.232 318.997" fill="black" opacity="0.07"/>
    <path d="M202.563 536.843C202.563 539.699 283.425 542.011 383.178 542.011C482.931 542.011 563.781 539.744 563.781 536.843C563.781 533.941 482.92 531.731 383.178 531.731C283.436 531.731 202.563 533.998 202.563 536.843Z" fill="#1D2535" opacity="0.5"/>
    <path d="M255.069 305.161H239.77C238.511 300.816 236.678 296.657 234.318 292.797L244.756 282.348C245.002 282.105 245.196 281.815 245.329 281.496C245.462 281.177 245.531 280.835 245.531 280.489C245.531 280.144 245.462 279.802 245.329 279.483C245.196 279.164 245.002 278.874 244.756 278.631L230.318 264.181C230.074 263.935 229.783 263.74 229.463 263.607C229.143 263.474 228.8 263.406 228.454 263.406C228.107 263.406 227.764 263.474 227.444 263.607C227.124 263.74 226.834 263.935 226.589 264.181L215.778 275.015C211.825 272.81 207.588 271.155 203.187 270.097V255.364C203.187 254.664 202.908 253.992 202.413 253.497C201.918 253.002 201.246 252.723 200.546 252.723H180.147C179.446 252.723 178.775 253.002 178.279 253.497C177.784 253.992 177.506 254.664 177.506 255.364V270.652C173.159 271.909 169.001 273.742 165.142 276.103L154.693 265.666C154.448 265.42 154.158 265.225 153.838 265.092C153.518 264.959 153.175 264.89 152.828 264.89C152.482 264.89 152.139 264.959 151.819 265.092C151.499 265.225 151.208 265.42 150.964 265.666L136.446 280.093C135.952 280.59 135.675 281.262 135.675 281.963C135.675 282.663 135.952 283.336 136.446 283.833L147.281 294.667C145.079 298.614 143.425 302.842 142.362 307.235H127.629C127.283 307.237 126.939 307.307 126.62 307.441C126.3 307.575 126.01 307.77 125.765 308.017C125.521 308.263 125.328 308.555 125.197 308.876C125.065 309.197 124.999 309.54 125 309.887V330.287C124.999 330.633 125.065 330.977 125.197 331.298C125.328 331.619 125.521 331.911 125.765 332.157C126.01 332.403 126.3 332.599 126.62 332.733C126.939 332.867 127.283 332.937 127.629 332.939H142.94C144.187 337.287 146.017 341.446 148.38 345.303L137.942 355.741C137.697 355.985 137.502 356.276 137.369 356.595C137.236 356.915 137.167 357.258 137.167 357.605C137.167 357.951 137.236 358.295 137.369 358.615C137.502 358.934 137.697 359.225 137.942 359.469L152.381 373.908C152.878 374.402 153.55 374.679 154.251 374.679C154.951 374.679 155.624 374.402 156.121 373.908L166.944 363.085C170.888 365.302 175.117 366.972 179.512 368.048V382.781C179.512 383.128 179.58 383.47 179.713 383.79C179.846 384.11 180.041 384.4 180.286 384.645C180.531 384.889 180.823 385.082 181.143 385.214C181.463 385.345 181.806 385.412 182.153 385.411H202.552C203.25 385.411 203.92 385.134 204.415 384.641C204.91 384.148 205.19 383.48 205.193 382.781V367.482C209.536 366.228 213.691 364.394 217.546 362.031L227.995 372.468C228.239 372.714 228.529 372.909 228.849 373.042C229.169 373.175 229.512 373.243 229.859 373.243C230.205 373.243 230.549 373.175 230.868 373.042C231.188 372.909 231.479 372.714 231.723 372.468L246.173 358.03C246.667 357.533 246.944 356.861 246.944 356.16C246.944 355.459 246.667 354.787 246.173 354.29L235.327 343.467C237.533 339.518 239.188 335.285 240.246 330.887H254.979C255.326 330.887 255.671 330.819 255.992 330.685C256.313 330.552 256.605 330.356 256.85 330.11C257.095 329.864 257.289 329.571 257.421 329.249C257.554 328.928 257.621 328.583 257.619 328.235V307.836C257.629 307.145 257.367 306.478 256.89 305.978C256.413 305.478 255.76 305.185 255.069 305.161ZM191.355 353.893C184.465 353.891 177.73 351.846 172.002 348.016C166.274 344.186 161.811 338.744 159.176 332.377C156.541 326.01 155.854 319.005 157.2 312.248C158.547 305.491 161.867 299.284 166.74 294.414C171.614 289.543 177.823 286.227 184.581 284.885C191.339 283.543 198.344 284.235 204.709 286.874C211.074 289.513 216.513 293.98 220.339 299.71C224.165 305.441 226.206 312.177 226.204 319.067C226.189 328.302 222.512 337.154 215.978 343.68C209.445 350.207 200.59 353.876 191.355 353.882V353.893Z" fill="#066FD1"/>
    <path d="M624.288 213.058H619.234C618.345 209.517 616.87 206.15 614.87 203.096L618.27 199.696C618.559 199.405 618.721 199.012 618.721 198.603C618.721 198.193 618.559 197.8 618.27 197.509L609.816 189.055C609.673 188.909 609.503 188.793 609.315 188.714C609.128 188.635 608.926 188.595 608.722 188.595C608.518 188.595 608.317 188.635 608.129 188.714C607.941 188.793 607.771 188.909 607.629 189.055L604.07 192.613C600.916 190.726 597.469 189.382 593.87 188.635V183.875C593.867 183.465 593.703 183.071 593.412 182.781C593.122 182.49 592.728 182.326 592.318 182.323H580.395C579.983 182.323 579.589 182.486 579.297 182.778C579.006 183.069 578.843 183.464 578.843 183.875V188.987C575.3 189.874 571.932 191.353 568.881 193.361L565.481 189.961C565.339 189.816 565.168 189.7 564.981 189.621C564.793 189.542 564.591 189.501 564.387 189.501C564.184 189.501 563.982 189.542 563.794 189.621C563.606 189.7 563.436 189.816 563.294 189.961L554.839 198.416C554.694 198.557 554.578 198.726 554.5 198.913C554.421 199.1 554.38 199.301 554.38 199.504C554.38 199.706 554.421 199.907 554.5 200.094C554.578 200.281 554.694 200.45 554.839 200.592L558.409 204.173C556.51 207.321 555.16 210.771 554.42 214.373H549.66C549.457 214.371 549.255 214.41 549.067 214.487C548.878 214.563 548.707 214.677 548.563 214.82C548.419 214.963 548.304 215.134 548.226 215.321C548.148 215.509 548.107 215.711 548.107 215.914V227.859C548.107 228.063 548.148 228.265 548.226 228.453C548.304 228.641 548.418 228.813 548.562 228.957C548.706 229.101 548.877 229.215 549.066 229.293C549.254 229.371 549.456 229.412 549.66 229.412H554.703C555.584 232.962 557.06 236.338 559.066 239.396L555.667 242.796C555.521 242.938 555.405 243.108 555.326 243.296C555.247 243.484 555.207 243.686 555.207 243.889C555.207 244.093 555.247 244.295 555.326 244.483C555.405 244.671 555.521 244.841 555.667 244.983L564.11 253.426C564.4 253.715 564.794 253.877 565.203 253.877C565.613 253.877 566.006 253.715 566.297 253.426L569.878 249.856C573.03 251.751 576.478 253.103 580.078 253.857V258.605C580.076 258.807 580.115 259.007 580.191 259.194C580.267 259.381 580.38 259.551 580.522 259.695C580.664 259.838 580.833 259.952 581.02 260.029C581.206 260.107 581.406 260.147 581.608 260.147H593.564C593.768 260.148 593.969 260.109 594.158 260.033C594.346 259.956 594.517 259.843 594.661 259.699C594.806 259.556 594.92 259.386 594.998 259.198C595.077 259.01 595.117 258.809 595.117 258.605V253.562C598.667 252.675 602.042 251.196 605.101 249.188L608.501 252.588C608.79 252.875 609.181 253.037 609.589 253.037C609.997 253.037 610.388 252.875 610.677 252.588L619.132 244.133C619.42 243.842 619.582 243.449 619.582 243.04C619.582 242.63 619.42 242.237 619.132 241.946L615.562 238.376C617.45 235.247 618.795 231.822 619.54 228.244H624.311C624.514 228.244 624.715 228.204 624.903 228.126C625.091 228.048 625.261 227.933 625.405 227.789C625.548 227.644 625.661 227.473 625.738 227.285C625.815 227.097 625.854 226.895 625.852 226.692V214.611C625.852 214.406 625.812 214.203 625.733 214.014C625.654 213.825 625.539 213.653 625.393 213.509C625.248 213.364 625.075 213.25 624.886 213.173C624.696 213.096 624.493 213.056 624.288 213.058ZM586.991 237.809C583.704 237.812 580.49 236.839 577.756 235.014C575.022 233.189 572.891 230.595 571.632 227.558C570.374 224.522 570.043 221.18 570.684 217.957C571.325 214.733 572.908 211.771 575.232 209.447C577.556 207.123 580.517 205.54 583.741 204.9C586.965 204.259 590.307 204.589 593.343 205.848C596.379 207.107 598.974 209.238 600.799 211.972C602.623 214.706 603.596 217.919 603.594 221.206C603.588 225.608 601.837 229.827 598.724 232.94C595.612 236.052 591.393 237.803 586.991 237.809Z" fill="#066FD1"/>
    <path d="M588.986 343.762L585.802 344.691C584.611 342.62 583.078 340.766 581.269 339.206L582.765 336.463C582.895 336.227 582.926 335.949 582.851 335.69C582.777 335.431 582.603 335.212 582.368 335.081L575.477 331.307C575.241 331.177 574.963 331.146 574.704 331.22C574.445 331.294 574.226 331.468 574.095 331.703L572.508 334.605C570.184 333.996 567.775 333.778 565.38 333.959L564.507 330.967C564.472 330.839 564.411 330.719 564.329 330.614C564.248 330.509 564.146 330.421 564.03 330.356C563.914 330.291 563.786 330.249 563.654 330.233C563.522 330.217 563.388 330.228 563.26 330.264L555.713 332.463C555.454 332.541 555.237 332.719 555.107 332.956C554.978 333.193 554.947 333.472 555.021 333.732L555.951 336.894C553.881 338.114 552.027 339.669 550.465 341.495L547.723 339.988C547.487 339.858 547.209 339.827 546.95 339.901C546.691 339.975 546.472 340.149 546.34 340.384L542.566 347.275C542.502 347.391 542.462 347.519 542.447 347.65C542.432 347.782 542.443 347.915 542.48 348.043C542.517 348.17 542.579 348.289 542.662 348.393C542.744 348.496 542.847 348.582 542.963 348.646L545.876 350.244C545.253 352.562 545.031 354.969 545.218 357.361L542.215 358.245C542.088 358.283 541.969 358.345 541.866 358.429C541.762 358.513 541.677 358.616 541.614 358.733C541.55 358.85 541.511 358.978 541.497 359.11C541.484 359.243 541.497 359.376 541.535 359.503L543.734 367.04C543.807 367.297 543.98 367.514 544.214 367.643C544.448 367.773 544.723 367.805 544.98 367.731L548.154 366.802C549.37 368.874 550.926 370.728 552.755 372.287L551.236 375.041C551.17 375.157 551.129 375.284 551.113 375.416C551.098 375.548 551.109 375.682 551.145 375.81C551.182 375.938 551.245 376.057 551.328 376.16C551.412 376.264 551.515 376.349 551.633 376.412L558.512 380.197C558.75 380.324 559.028 380.351 559.286 380.275C559.545 380.199 559.763 380.025 559.895 379.789L561.436 376.888C563.757 377.49 566.161 377.709 568.553 377.534L569.426 380.526C569.463 380.655 569.526 380.775 569.61 380.88C569.695 380.984 569.799 381.071 569.917 381.135C570.035 381.2 570.164 381.24 570.298 381.254C570.431 381.268 570.566 381.256 570.695 381.217L578.22 379.019C578.349 378.982 578.468 378.921 578.573 378.838C578.677 378.754 578.764 378.651 578.829 378.534C578.893 378.417 578.933 378.289 578.948 378.156C578.962 378.023 578.949 377.889 578.911 377.761L577.993 374.588C580.061 373.391 581.914 371.859 583.479 370.054L586.221 371.562C586.457 371.692 586.735 371.723 586.994 371.649C587.253 371.574 587.473 371.4 587.604 371.165L591.378 364.275C591.443 364.158 591.484 364.03 591.499 363.897C591.514 363.765 591.502 363.631 591.464 363.503C591.425 363.375 591.362 363.256 591.277 363.153C591.193 363.05 591.088 362.965 590.97 362.903L588.102 361.249C588.716 358.926 588.935 356.516 588.748 354.12L591.752 353.247C592.007 353.169 592.222 352.993 592.349 352.758C592.476 352.522 592.506 352.246 592.432 351.989L590.233 344.453C590.198 344.325 590.137 344.205 590.055 344.101C589.973 343.997 589.871 343.91 589.755 343.845C589.639 343.781 589.511 343.74 589.379 343.726C589.247 343.712 589.114 343.724 588.986 343.762ZM570.026 366.212C567.957 366.819 565.754 366.797 563.696 366.151C561.639 365.505 559.819 364.264 558.467 362.583C557.115 360.903 556.292 358.859 556.102 356.711C555.912 354.563 556.363 352.407 557.398 350.515C558.434 348.623 560.007 347.081 561.919 346.084C563.831 345.086 565.996 344.678 568.14 344.911C570.284 345.144 572.311 346.008 573.964 347.393C575.617 348.778 576.822 350.622 577.427 352.692C578.234 355.466 577.908 358.448 576.521 360.982C575.134 363.517 572.798 365.397 570.026 366.212Z" fill="#A7AAB3"/>
    <path d="M369.748 377.398C369.044 377.395 368.369 377.113 367.872 376.614C367.375 376.115 367.096 375.439 367.096 374.735V291.347C367.093 288.769 366.068 286.297 364.245 284.474C362.422 282.651 359.95 281.626 357.372 281.623H306.057C302.07 281.617 298.248 280.03 295.429 277.211C292.61 274.392 291.024 270.571 291.018 266.584V207.652C291.018 207.302 291.086 206.956 291.22 206.633C291.354 206.31 291.55 206.016 291.798 205.769C292.045 205.522 292.339 205.325 292.662 205.192C292.985 205.058 293.331 204.989 293.681 204.989C294.031 204.989 294.377 205.058 294.7 205.192C295.023 205.325 295.317 205.522 295.564 205.769C295.811 206.016 296.008 206.31 296.141 206.633C296.275 206.956 296.344 207.302 296.344 207.652V266.584C296.344 269.161 297.367 271.632 299.188 273.456C301.009 275.279 303.48 276.305 306.057 276.308H357.372C361.36 276.311 365.184 277.896 368.003 280.716C370.823 283.535 372.408 287.359 372.411 291.347V374.735C372.411 375.085 372.343 375.431 372.209 375.754C372.075 376.077 371.879 376.371 371.631 376.618C371.384 376.866 371.09 377.062 370.767 377.196C370.444 377.329 370.098 377.398 369.748 377.398Z" fill="#A7AAB3"/>
    <path d="M406.955 357.667C406.853 363.243 406.739 369 406.615 374.825C406.588 375.966 406.117 377.051 405.302 377.849C404.487 378.647 403.392 379.095 402.251 379.098H402.161C401.59 379.088 401.026 378.965 400.503 378.736C399.979 378.508 399.506 378.178 399.11 377.767C398.715 377.355 398.404 376.869 398.196 376.337C397.988 375.805 397.887 375.238 397.899 374.667C398.183 361.316 398.398 348.521 398.545 336.69C398.806 314.024 398.806 294.871 398.545 282.416C398.398 276.387 398.194 271.91 397.933 269.337C397.673 266.765 397.049 263.433 394.67 261.053C393.643 260.019 392.421 259.198 391.075 258.64C389.728 258.082 388.285 257.796 386.827 257.8H338.718C333.467 257.797 328.432 255.711 324.718 251.999C321.004 248.287 318.914 243.253 318.908 238.002V208.808C318.908 207.654 319.367 206.547 320.183 205.73C320.999 204.914 322.106 204.456 323.26 204.456C324.414 204.456 325.521 204.914 326.337 205.73C327.153 206.547 327.612 207.654 327.612 208.808V238.002C327.618 240.941 328.789 243.759 330.869 245.836C332.949 247.914 335.767 249.082 338.707 249.085H386.793C389.395 249.079 391.973 249.589 394.378 250.585C396.782 251.581 398.965 253.043 400.801 254.888C405.674 259.75 406.354 266.289 406.581 268.487C406.83 270.969 407.034 275.061 407.181 280.489C407.612 296.491 407.533 324.382 406.955 357.667Z" fill="#066FD1"/>
    <path d="M506.538 374.735H307.915C304.14 374.741 300.521 376.244 297.852 378.915C295.184 381.585 293.684 385.205 293.681 388.98V502.583C293.69 506.355 295.192 509.971 297.86 512.638C300.527 515.306 304.143 516.808 307.915 516.817H380.503V521.656C380.342 523.012 379.877 524.314 379.143 525.464C378.531 526.374 377.731 527.142 376.796 527.715C375.861 528.288 374.814 528.653 373.726 528.785H346.187C345.911 528.786 345.639 528.842 345.385 528.949C345.131 529.055 344.901 529.211 344.707 529.407C344.514 529.603 344.361 529.835 344.257 530.09C344.153 530.345 344.1 530.617 344.101 530.893V533.329C344.1 533.605 344.153 533.878 344.257 534.133C344.361 534.388 344.514 534.62 344.707 534.815C344.901 535.011 345.131 535.167 345.385 535.273C345.639 535.38 345.911 535.436 346.187 535.437H468.311C468.87 535.437 469.407 535.215 469.802 534.82C470.197 534.425 470.419 533.888 470.419 533.329V530.893C470.419 530.334 470.197 529.798 469.802 529.402C469.407 529.007 468.87 528.785 468.311 528.785H440.738C438.268 528.399 434.698 526.904 433.938 521.622V516.783H506.47C510.243 516.777 513.86 515.276 516.528 512.607C519.196 509.939 520.698 506.322 520.704 502.549V388.607C520.601 384.909 519.067 381.396 516.424 378.808C513.781 376.22 510.237 374.76 506.538 374.735ZM515.366 502.549C515.363 504.888 514.432 507.131 512.776 508.784C511.121 510.437 508.877 511.366 506.538 511.366H307.926C305.59 511.354 303.354 510.422 301.701 508.771C300.048 507.12 299.113 504.885 299.098 502.549V388.935C299.104 386.597 300.036 384.356 301.691 382.703C303.346 381.051 305.588 380.121 307.926 380.118H506.538C508.875 380.124 511.116 381.055 512.77 382.706C514.424 384.358 515.357 386.598 515.366 388.935V502.549Z" fill="#454C5E"/>
    <path d="M515.366 388.935V502.549C515.36 504.887 514.427 507.126 512.772 508.777C511.117 510.428 508.875 511.355 506.538 511.355H307.926C305.589 511.352 303.349 510.424 301.695 508.774C300.04 507.124 299.107 504.886 299.098 502.549V388.935C299.11 386.598 300.044 384.359 301.697 382.706C303.35 381.053 305.588 380.119 307.926 380.107H506.538C507.743 380.107 508.936 380.358 510.04 380.844C511.62 381.525 512.967 382.654 513.914 384.092C514.86 385.53 515.365 387.214 515.366 388.935Z" fill="#232B41"/>
    <path d="M251.375 151.78H209.443C206.936 151.777 204.532 150.781 202.758 149.009C200.985 147.238 199.985 144.835 199.979 142.328V130.508C199.979 129.802 200.26 129.124 200.76 128.625C201.259 128.125 201.936 127.845 202.643 127.845C203.349 127.845 204.026 128.125 204.526 128.625C205.025 129.124 205.306 129.802 205.306 130.508V142.328C205.309 143.425 205.746 144.475 206.521 145.25C207.296 146.025 208.346 146.462 209.443 146.465H251.375C251.738 146.441 252.103 146.492 252.446 146.615C252.789 146.738 253.103 146.93 253.369 147.179C253.635 147.428 253.847 147.729 253.992 148.063C254.137 148.398 254.212 148.758 254.212 149.122C254.212 149.487 254.137 149.847 253.992 150.182C253.847 150.516 253.635 150.817 253.369 151.066C253.103 151.315 252.789 151.507 252.446 151.63C252.103 151.753 251.738 151.804 251.375 151.78Z" fill="#A7AAB3"/>
    <path d="M270.924 50.8708H224.844C223.915 48.8864 222.337 47.2781 220.37 46.3114C218.404 45.3447 216.167 45.0773 214.028 45.5533C211.889 46.0294 209.976 47.2204 208.605 48.9299C207.234 50.6393 206.487 52.7651 206.487 54.9563C206.487 57.1476 207.234 59.2733 208.605 60.9828C209.976 62.6923 211.889 63.8833 214.028 64.3593C216.167 64.8354 218.404 64.568 220.37 63.6013C222.337 62.6345 223.915 61.0263 224.844 59.0419H270.947C272.359 59.0449 273.712 59.607 274.71 60.6053C275.708 61.6036 276.271 62.9567 276.274 64.3684V80.7333C276.244 81.288 276.328 81.8427 276.52 82.3638C276.713 82.8849 277.009 83.3615 277.391 83.7644C277.773 84.1673 278.234 84.4882 278.744 84.7075C279.254 84.9267 279.804 85.0398 280.359 85.0398C280.914 85.0398 281.464 84.9267 281.974 84.7075C282.485 84.4882 282.945 84.1673 283.327 83.7644C283.709 83.3615 284.006 82.8849 284.198 82.3638C284.39 81.8427 284.474 81.288 284.445 80.7333V64.3231C284.427 60.7491 282.994 57.3276 280.461 54.8067C277.927 52.2858 274.498 50.8707 270.924 50.8708ZM216.106 59.2686C215.274 59.2731 214.458 59.0371 213.757 58.5888C213.056 58.1405 212.499 57.4991 212.154 56.7418C211.809 55.9845 211.69 55.1436 211.811 54.3203C211.933 53.4969 212.29 52.7262 212.839 52.1009C213.388 51.4757 214.106 51.0225 214.907 50.7959C215.708 50.5694 216.557 50.5791 217.353 50.8239C218.148 51.0687 218.856 51.5382 219.391 52.1758C219.926 52.8135 220.265 53.5921 220.368 54.418C220.292 54.7729 220.292 55.1398 220.368 55.4947C220.238 56.5344 219.734 57.4913 218.949 58.186C218.165 58.8807 217.154 59.2656 216.106 59.2686Z" fill="#066FD1"/>
    <path d="M471.904 343.977C470.907 346.742 469.207 348.895 465.433 352.103C460.487 356.475 454.874 360.029 448.807 362.631C445.6 363.98 442.551 364.898 438.721 366.167C435.321 367.3 432.476 368.048 430.448 368.581C417.846 356.018 407.278 341.569 399.123 325.753C423.534 353.066 472.788 338.22 472.788 338.22C472.855 340.177 472.555 342.13 471.904 343.977Z" fill="black" opacity="0.1"/>
    <path d="M418.82 493.301H426.878C429.475 493.301 431.581 491.195 431.581 488.598V410.853C431.581 408.256 429.475 406.15 426.878 406.15H418.82C416.223 406.15 414.117 408.256 414.117 410.853V488.598C414.117 491.195 416.223 493.301 418.82 493.301Z" fill="#066FD1"/>
    <path d="M458.135 493.301H477.82C480.48 493.301 482.637 491.145 482.637 488.484V443.696C482.637 441.036 480.48 438.88 477.82 438.88H458.135C455.475 438.88 453.318 441.036 453.318 443.696V488.484C453.318 491.145 455.475 493.301 458.135 493.301Z" fill="#DADBE0"/>
    <path d="M463.971 19.8522C463.974 18.0607 463.476 16.304 462.535 14.7795C461.595 13.2549 460.247 12.023 458.644 11.2222C457.042 10.4213 455.248 10.0832 453.464 10.2458C451.679 10.4085 449.976 11.0655 448.545 12.1429C447.113 13.2204 446.011 14.6756 445.361 16.3452C444.711 18.0147 444.54 19.8324 444.866 21.5939C445.193 23.3555 446.004 24.9912 447.208 26.3171C448.413 27.6431 449.964 28.6068 451.686 29.1V52.1854C451.686 52.9188 451.395 53.6221 450.876 54.1407C450.358 54.6593 449.654 54.9507 448.921 54.9507H421.722C419.576 54.9507 417.517 55.8032 416 57.3207C414.482 58.8382 413.63 60.8964 413.63 63.0424V74.7381C413.63 75.4445 413.911 76.1219 414.41 76.6213C414.909 77.1208 415.587 77.4014 416.293 77.4014C416.999 77.4014 417.677 77.1208 418.176 76.6213C418.676 76.1219 418.956 75.4445 418.956 74.7381V63.0424C418.956 62.309 419.248 61.6057 419.766 61.0871C420.285 60.5685 420.988 60.2772 421.722 60.2772H448.921C451.065 60.2742 453.12 59.4203 454.635 57.9031C456.15 56.386 457.001 54.3295 457.001 52.1854V29.1C459.009 28.5225 460.774 27.3083 462.031 25.6403C463.288 23.9723 463.969 21.9409 463.971 19.8522ZM454.338 24.1588C453.484 24.1588 452.648 23.9053 451.938 23.4303C451.228 22.9553 450.674 22.2803 450.348 21.4907C450.021 20.701 449.937 19.8322 450.104 18.9944C450.272 18.1565 450.684 17.3871 451.289 16.7837C451.894 16.1803 452.664 15.7699 453.503 15.6046C454.341 15.4393 455.21 15.5264 455.998 15.855C456.787 16.1835 457.461 16.7387 457.934 17.4503C458.407 18.1618 458.658 18.9978 458.656 19.8522C458.656 20.4187 458.544 20.9797 458.327 21.5029C458.11 22.0261 457.792 22.5014 457.391 22.9014C456.99 23.3015 456.514 23.6185 455.99 23.8342C455.466 24.05 454.905 24.1603 454.338 24.1588Z" fill="#A7AAB3"/>
    <path d="M445.023 127.629V171.091C445.023 171.443 445.023 171.794 445.023 172.134C444.784 174.881 443.641 177.471 441.772 179.499C439.904 181.527 437.416 182.879 434.698 183.342V197.475C434.7 199.183 434.248 200.861 433.387 202.336C432.527 203.812 431.29 205.032 429.802 205.872V214.78C429.796 216.482 429.117 218.111 427.913 219.313C426.709 220.515 425.078 221.192 423.376 221.195H408.054C406.355 221.189 404.727 220.511 403.525 219.309C402.323 218.108 401.646 216.48 401.64 214.78V207.119H383.688C382.419 207.121 381.162 206.872 379.99 206.387C378.817 205.903 377.751 205.192 376.853 204.295C375.955 203.398 375.243 202.333 374.757 201.161C374.271 199.989 374.021 198.732 374.021 197.463V190.663H288.525C286.928 190.665 285.347 190.352 283.872 189.742C282.397 189.132 281.056 188.237 279.927 187.109C278.797 185.981 277.901 184.641 277.29 183.166C276.679 181.692 276.364 180.111 276.364 178.514V176.089C274.199 176.04 272.082 175.436 270.217 174.334C268.352 173.233 266.801 171.672 265.711 169.799C264.93 168.473 264.403 167.013 264.159 165.493C264.054 164.825 264.001 164.151 264 163.476V118.177C264.017 114.862 265.331 111.684 267.661 109.325C269.991 106.966 273.151 105.612 276.466 105.552C276.466 105.178 276.557 104.804 276.625 104.419C277.178 101.662 278.669 99.1819 280.845 97.4007C283.021 95.6196 285.747 94.6475 288.559 94.65H306.692V89.3801C306.692 86.8182 307.708 84.3611 309.519 82.5485C311.329 80.7359 313.785 79.7161 316.347 79.7131H334.129V78.0698C334.135 75.9004 334.998 73.8215 336.531 72.2865C338.064 70.7515 340.142 69.8849 342.311 69.876H369.329C371.499 69.882 373.579 70.7475 375.112 72.2832C376.646 73.8188 377.509 75.8995 377.512 78.0698V79.7131H400.008C402.147 79.7154 404.224 80.4279 405.914 81.7385C407.604 83.0492 408.811 84.884 409.346 86.9549H418.345C420.409 86.9552 422.398 87.7373 423.909 89.1439C425.421 90.5504 426.344 92.4772 426.493 94.5367C426.504 94.7367 426.504 94.9373 426.493 95.1373V104.85C428.76 105.208 430.825 106.364 432.317 108.109C433.809 109.854 434.629 112.074 434.63 114.369V115.321C437.538 115.812 440.178 117.318 442.081 119.571C443.984 121.825 445.026 124.68 445.023 127.629Z" fill="#066FD1"/>
    <path d="M299.12 113.055V115.424C299.12 115.724 299.24 116.012 299.452 116.225C299.665 116.438 299.953 116.557 300.254 116.557C300.554 116.557 300.842 116.438 301.055 116.225C301.268 116.012 301.387 115.724 301.387 115.424V113.055C301.384 110.778 300.478 108.594 298.868 106.984C297.257 105.374 295.074 104.468 292.797 104.465H276.59C276.522 104.839 276.466 105.213 276.432 105.598C274.717 105.632 273.027 106.018 271.468 106.731H292.774C294.453 106.731 296.064 107.397 297.254 108.582C298.443 109.767 299.114 111.376 299.12 113.055Z" fill="white"/>
    <path d="M403.487 129.805C401.804 129.805 400.19 129.137 398.999 127.946C397.809 126.756 397.141 125.142 397.141 123.459V121.102C397.141 120.801 397.021 120.513 396.809 120.3C396.596 120.088 396.308 119.968 396.007 119.968C395.707 119.968 395.419 120.088 395.206 120.3C394.993 120.513 394.874 120.801 394.874 121.102V123.459C394.877 125.736 395.783 127.92 397.393 129.53C399.004 131.14 401.187 132.046 403.464 132.049H445V129.783L403.487 129.805Z" fill="white"/>
    <path d="M393.865 177.449V177.971C392.065 178.49 390.513 179.641 389.494 181.214C388.475 182.786 388.059 184.673 388.321 186.528C388.583 188.383 389.506 190.082 390.92 191.31C392.335 192.539 394.145 193.215 396.019 193.215C397.892 193.215 399.703 192.539 401.117 191.31C402.532 190.082 403.455 188.383 403.717 186.528C403.979 184.673 403.562 182.786 402.543 181.214C401.524 179.641 399.972 178.49 398.172 177.971V177.449C398.172 176.04 398.732 174.688 399.729 173.691C400.725 172.694 402.077 172.134 403.487 172.134H444.977C444.977 171.794 444.977 171.443 444.977 171.092V167.828H403.487C400.936 167.831 398.491 168.845 396.687 170.649C394.883 172.453 393.868 174.898 393.865 177.449ZM399.532 185.383C399.534 186.069 399.333 186.74 398.953 187.312C398.573 187.884 398.032 188.33 397.399 188.595C396.765 188.859 396.068 188.929 395.394 188.796C394.721 188.664 394.102 188.335 393.616 187.85C393.13 187.365 392.798 186.748 392.664 186.075C392.529 185.402 392.597 184.704 392.859 184.069C393.121 183.435 393.566 182.893 394.136 182.511C394.707 182.13 395.378 181.926 396.064 181.926C396.982 181.938 397.857 182.313 398.499 182.97C399.14 183.626 399.496 184.51 399.487 185.428L399.532 185.383Z" fill="white"/>
    <path d="M379.62 138.951C379.421 136.546 378.327 134.303 376.553 132.666C374.78 131.029 372.457 130.117 370.043 130.111H264V134.418H370.043C371.316 134.418 372.547 134.876 373.51 135.708C374.474 136.541 375.105 137.692 375.29 138.951C373.495 139.472 371.948 140.624 370.934 142.194C369.92 143.765 369.506 145.649 369.769 147.5C370.033 149.35 370.955 151.044 372.367 152.269C373.779 153.495 375.586 154.169 377.455 154.169C379.325 154.169 381.131 153.495 382.543 152.269C383.955 151.044 384.878 149.35 385.141 147.5C385.404 145.649 384.991 143.765 383.976 142.194C382.962 140.624 381.415 139.472 379.62 138.951ZM377.5 149.887C376.814 149.887 376.143 149.684 375.573 149.302C375.002 148.921 374.558 148.378 374.295 147.744C374.033 147.11 373.965 146.412 374.1 145.739C374.235 145.066 374.566 144.448 375.052 143.963C375.538 143.479 376.157 143.149 376.831 143.017C377.504 142.884 378.202 142.955 378.835 143.219C379.469 143.483 380.01 143.929 380.389 144.501C380.769 145.073 380.971 145.745 380.968 146.431C380.965 147.349 380.599 148.228 379.949 148.876C379.299 149.524 378.418 149.887 377.5 149.887Z" fill="white"/>
    <path d="M341.393 144.278C339.523 144.279 337.717 144.955 336.305 146.181C334.894 147.407 333.973 149.102 333.711 150.953C333.449 152.805 333.864 154.688 334.88 156.258C335.896 157.828 337.444 158.978 339.24 159.498V160.144C339.24 161.554 338.68 162.905 337.683 163.902C336.686 164.899 335.334 165.459 333.924 165.459H264.158C264.403 166.979 264.929 168.439 265.711 169.766H333.924C336.475 169.763 338.921 168.748 340.725 166.944C342.528 165.14 343.543 162.695 343.546 160.144V159.521C345.342 159.001 346.89 157.85 347.906 156.281C348.922 154.711 349.337 152.827 349.075 150.976C348.813 149.125 347.892 147.43 346.48 146.204C345.069 144.977 343.263 144.301 341.393 144.3V144.278ZM341.393 155.509C340.706 155.509 340.036 155.305 339.465 154.923C338.894 154.542 338.45 154 338.188 153.365C337.926 152.731 337.858 152.033 337.992 151.36C338.127 150.687 338.459 150.069 338.945 149.585C339.431 149.1 340.05 148.771 340.723 148.638C341.397 148.506 342.094 148.576 342.728 148.84C343.361 149.104 343.902 149.551 344.282 150.122C344.662 150.694 344.863 151.366 344.861 152.052C344.858 152.97 344.491 153.849 343.841 154.497C343.191 155.145 342.311 155.509 341.393 155.509Z" fill="white"/>
    <path d="M334.117 115.616C335.983 115.606 337.782 114.924 339.187 113.697C340.592 112.469 341.509 110.778 341.77 108.93C342.031 107.083 341.62 105.203 340.61 103.635C339.6 102.066 338.06 100.912 336.27 100.385V99.8748C336.27 98.4641 336.83 97.1109 337.826 96.1124C338.823 95.1138 340.175 94.5512 341.586 94.5482H426.481C426.371 92.9877 425.812 91.4924 424.872 90.2417H341.574C339.021 90.2447 336.574 91.2609 334.77 93.0672C332.966 94.8734 331.953 97.3219 331.953 99.8748V100.385C330.147 100.897 328.588 102.046 327.564 103.618C326.541 105.191 326.121 107.082 326.384 108.94C326.647 110.798 327.574 112.498 328.993 113.726C330.413 114.953 332.229 115.625 334.106 115.616H334.117ZM334.117 104.385C334.803 104.385 335.474 104.589 336.044 104.97C336.614 105.351 337.059 105.892 337.321 106.526C337.584 107.16 337.652 107.857 337.518 108.53C337.385 109.202 337.054 109.82 336.569 110.305C336.084 110.79 335.466 111.121 334.794 111.255C334.121 111.388 333.424 111.32 332.79 111.057C332.156 110.795 331.615 110.35 331.234 109.78C330.853 109.21 330.649 108.539 330.649 107.853C330.648 107.397 330.736 106.946 330.91 106.524C331.084 106.103 331.339 105.72 331.662 105.398C331.984 105.075 332.367 104.82 332.788 104.646C333.21 104.473 333.661 104.384 334.117 104.385Z" fill="white"/>
    <path d="M492.531 192.42L505.292 177.279V172.757H483.442V178.435H495.885L483.158 193.587V198.109H505.836V192.42H492.531Z" fill="#A7AAB3"/>
    <path d="M467.62 225.864L477.23 214.463V211.052H460.786V215.336H470.147L460.56 226.737V230.148H477.638V225.864H467.62Z" fill="#066FD1"/>
    <path d="M442.937 248.371L449.329 240.79V238.523H438.392V241.368H444.614L438.245 248.949V251.216H449.601V248.371H442.937Z" fill="#A7AAB3"/>
    <path d="M333.471 374.735L330.559 380.118H317.333C318.229 378.211 319.327 376.407 320.608 374.735H333.471Z" fill="black" opacity="0.3"/>
    <path d="M448.66 380.118L442.733 374.735H415.783C417.793 376.781 420.033 378.587 422.458 380.118H448.66Z" fill="black" opacity="0.3"/>
    <path d="M462.589 380.118L468.505 374.735H495.455C493.443 376.784 491.199 378.59 488.768 380.118H462.589Z" fill="black" opacity="0.3"/>
    <path d="M406.955 357.667C404.473 351.672 401.492 344.306 398.546 336.678C398.807 314.012 398.807 294.86 398.546 282.405C401.399 281.594 404.293 280.935 407.216 280.433C407.612 296.492 407.533 324.382 406.955 357.667Z" fill="black" opacity="0.1"/>
    <path d="M464.187 343.898L566.309 328.496C567.193 331.08 568.088 333.664 568.972 336.237L491.839 365.612C491.839 365.612 432.364 363.13 433.939 362.371C435.514 361.611 464.187 343.898 464.187 343.898Z" fill="#066FD1"/>
    <path d="M464.187 343.898L566.309 328.496C567.193 331.08 568.088 333.664 568.972 336.237L491.839 365.612C491.839 365.612 432.364 363.13 433.939 362.371C435.514 361.611 464.187 343.898 464.187 343.898Z" fill="black" opacity="0.25"/>
    <path d="M448.649 285.669C448.101 286.927 447.433 288.13 446.655 289.261C444.365 292.426 441.22 294.871 437.588 296.31L430.233 283.742C431.121 282.988 432.048 282.28 433.01 281.623C434.211 280.795 434.506 280.705 434.902 280.387C435.882 279.481 436.552 278.291 436.819 276.983C437.085 275.676 436.934 274.317 436.387 273.1C434.778 270.38 430.108 270.38 426.255 270.505H425.065C418.32 270.965 411.623 271.97 405.04 273.508C403.438 268.975 401.829 264.442 400.212 259.909L399.464 257.767H399.691C405.514 256.894 411.408 256.59 417.291 256.86C419.399 256.951 421.348 257.121 423.139 257.325C424.691 257.506 426.108 257.721 427.4 257.937C437.248 259.591 442.835 260.634 446.666 265.62C450.712 270.868 451.505 278.982 448.649 285.669Z" fill="#FFCB9D"/>
    <path d="M394.182 324.065C388.948 324.206 383.722 323.56 378.679 322.15C364.818 318.228 355.514 308.822 354.596 299.359C353.633 289.556 361.781 280.455 366.824 275.82C368.013 274.714 369.257 273.67 370.553 272.692C371.938 271.659 373.387 270.717 374.893 269.87C376.894 268.733 378.987 267.767 381.149 266.98L388.98 276.659C386.553 277.709 384.252 279.033 382.124 280.603C381.088 281.372 380.104 282.209 379.177 283.107C377.019 285.185 375.253 287.634 373.964 290.338C373.325 291.68 372.816 293.08 372.445 294.52C372.763 296.163 373.839 298.01 376.457 299.824C379.393 301.852 384.311 303.869 392.324 305.569C392.958 311.712 393.578 317.877 394.182 324.065Z" fill="#FFCB9D"/>
    <path d="M563.702 306.261L566.49 324.824C566.49 324.824 561.956 326.717 559.588 324.303C557.219 321.889 560.12 310.375 563.702 306.261Z" fill="#454C5E"/>
    <path d="M577.902 318.398L579.409 335.772C579.409 335.772 575.137 337.268 573.04 334.888C570.944 332.508 574.321 322.002 577.902 318.398Z" fill="#454C5E"/>
    <path d="M388.981 276.659C386.553 277.709 384.253 279.033 382.124 280.603C378.639 277.883 376.11 274.124 374.905 269.87C376.903 268.736 378.992 267.769 381.15 266.98L388.981 276.659Z" fill="black" opacity="0.1"/>
    <path d="M426.289 270.505H425.099C418.329 270.83 411.608 271.837 405.04 273.508C403.43 268.975 401.832 264.442 400.212 259.909L399.69 257.733C402.809 257.269 405.948 256.963 409.097 256.815C412.197 256.676 415.303 256.699 418.401 256.883C417.783 257.657 417.324 258.547 417.053 259.501C416.666 261.202 416.788 262.979 417.404 264.612C418.639 267.728 422.039 269.995 426.289 270.505Z" fill="black" opacity="0.15"/>
    <path d="M379.324 266.323C379.88 268.363 380.707 271.412 381.908 274.947C382.18 275.741 382.407 276.432 382.486 276.67C383.907 280.588 385.856 284.294 388.277 287.686C388.765 288.343 389.263 288.978 389.773 289.567C391.723 291.777 402.557 292.14 411.147 288.853C419.738 285.566 421.041 276.625 416.44 274.177C414.795 273.139 413.364 271.797 412.224 270.222C410.646 268.195 409.225 266.051 407.974 263.807L406.841 261.688L398.624 257.88L382.067 262.334C382.86 264.918 382.543 266.958 381.693 267.354C380.843 267.751 379.585 266.572 379.324 266.323Z" fill="#FFCB9D"/>
    <path d="M379.324 266.323C379.88 268.363 380.707 271.412 381.908 274.948C382.18 275.741 382.407 276.432 382.486 276.67C383.907 280.588 385.856 284.294 388.277 287.686C390.373 286.412 391.902 284.385 392.55 282.019C392.866 280.765 392.981 279.468 392.89 278.178C392.879 277.339 392.811 276.502 392.686 275.673C396.124 275.838 399.567 275.456 402.886 274.54C406.195 273.598 409.344 272.161 412.224 270.278C410.65 268.249 409.229 266.105 407.974 263.864L406.841 261.745L398.613 257.937L382.055 262.391C382.849 264.975 382.543 267.015 381.693 267.411C380.843 267.808 379.585 266.573 379.324 266.323Z" fill="black" opacity="0.1"/>
    <path d="M416.372 257.279C416.121 258.51 415.741 259.71 415.239 260.861C414.573 262.34 413.712 263.724 412.678 264.974C408.02 270.732 399.316 273.316 390.624 271.457C389.155 271.13 387.715 270.687 386.317 270.131C386.468 271.001 386.688 271.857 386.974 272.692C387.084 272.929 387.171 273.176 387.235 273.429C387.326 273.667 387.348 273.644 387.36 273.667C388.213 275.348 388.907 277.104 389.434 278.914C389.618 280.146 389.391 281.405 388.788 282.495C388.024 280.899 386.851 279.534 385.388 278.54C384.819 278.195 384.224 277.895 383.608 277.645C382.08 276.75 380.744 275.562 379.677 274.149C378.609 272.735 377.832 271.125 377.39 269.41C376.947 267.695 376.848 265.91 377.099 264.157C377.349 262.403 377.944 260.717 378.849 259.195C382.328 254.48 393.049 253.528 398.511 253.834C399.822 254.018 401.158 253.842 402.376 253.324C402.612 253.193 402.824 253.02 402.999 252.814C404.133 251.511 403.747 249.312 402.999 248.02C401.617 245.55 398.058 244.416 393.933 245.04C402.24 240.744 411.306 242.648 415.001 248.168C415.84 249.512 416.395 251.014 416.631 252.581C416.867 254.149 416.779 255.747 416.372 257.279Z" fill="#454C5E"/>
    <path d="M416.372 257.279C416.121 258.51 415.741 259.71 415.239 260.861C414.573 262.34 413.711 263.724 412.677 264.974C408.02 270.732 399.316 273.316 390.623 271.457L386.317 270.131L383.2 268.624C387.939 269.457 392.786 269.457 397.525 268.624C401.752 267.864 407.623 266.822 412.575 262.209C414.069 260.755 415.347 259.095 416.372 257.279Z" fill="black" opacity="0.5"/>
    <path d="M431.32 366.303C435.38 372.787 441.438 377.775 448.581 380.515C457.109 383.188 466.271 383.049 474.715 380.118L557.661 328.655C556.607 326.739 555.564 324.824 554.51 322.92L455.301 345.382L454.032 347.173L431.32 366.303Z" fill="#066FD1"/>
    <path d="M394.182 324.065C388.948 324.205 383.722 323.56 378.679 322.15C379.812 315.066 377.659 304.685 376.412 299.823C379.347 301.852 384.266 303.869 392.278 305.569C392.943 311.712 393.578 317.877 394.182 324.065Z" fill="black" opacity="0.1"/>
    <path d="M448.649 285.668C448.1 286.927 447.432 288.13 446.654 289.261C444.364 292.426 441.219 294.871 437.588 296.31L430.232 283.742C431.12 282.987 432.047 282.28 433.009 281.622C434.21 280.795 434.505 280.704 434.902 280.387C435.762 279.631 436.381 278.637 436.681 277.531C440.273 278.755 445.623 281.248 448.649 285.668Z" fill="black" opacity="0.1"/>
    <path d="M471.904 343.977C470.907 346.754 469.207 348.896 465.433 352.103C460.492 356.481 454.878 360.036 448.807 362.631C445.6 363.991 442.551 364.898 438.732 366.178C435.332 367.255 432.488 368.048 430.448 368.592C417.865 356.038 407.309 341.605 399.157 325.81V325.753C397.787 326.432 396.336 326.935 394.839 327.249C392.231 327.768 389.541 327.698 386.963 327.045C383.805 317.48 380.639 307.919 377.466 298.362C391.145 299.767 396.947 300.379 397.548 300.447H397.718C398.314 300.501 398.913 300.501 399.509 300.447C400.2 300.392 400.881 300.252 401.537 300.028C401.719 299.971 401.9 299.914 402.092 299.835C407.711 297.457 412.852 294.082 417.267 289.873C417.551 289.556 417.993 289.102 418.559 288.558C419.817 287.433 421.154 286.399 422.56 285.465C425.665 283.198 425.405 283.413 425.665 283.198C428.322 281.421 431.124 279.871 434.04 278.563C437.581 279.951 440.66 282.307 442.925 285.363C444.811 287.93 446.058 290.91 446.563 294.055L438.086 298.917C440.96 306.565 445.014 313.715 450.099 320.11C454.251 325.62 459.328 330.367 465.104 334.14C467.575 335.715 470.162 337.098 472.845 338.277C472.893 340.219 472.574 342.153 471.904 343.977Z" fill="#DADBE0"/>
    <path d="M410.796 299.869C404.337 302.838 398.33 303.654 397.469 301.694C397.31 301.293 397.31 300.847 397.469 300.447C398.122 300.492 398.777 300.492 399.429 300.447C403.827 300.209 411.499 294.259 417.188 289.862C419.115 289.737 420.441 290.066 420.849 290.916C421.756 292.911 417.256 296.911 410.796 299.869Z" fill="#FFCB9D"/>
    <path d="M410.796 299.869C404.337 302.838 398.33 303.654 397.469 301.694C397.31 301.293 397.31 300.847 397.469 300.447C398.122 300.492 398.777 300.492 399.429 300.447C403.827 300.209 411.499 294.259 417.188 289.862C419.115 289.737 420.441 290.066 420.849 290.916C421.756 292.911 417.256 296.911 410.796 299.869Z" fill="black" opacity="0.1"/>
    <path d="M471.904 343.977C470.907 346.754 469.207 348.895 465.433 352.103C460.492 356.481 454.878 360.036 448.807 362.631C445.6 363.991 442.551 364.898 438.732 366.178C435.332 367.255 432.488 368.048 430.448 368.592C417.865 356.038 407.309 341.605 399.157 325.81C400.291 327.476 423.852 362.722 472.822 338.276C472.877 340.217 472.566 342.151 471.904 343.977Z" fill="black" opacity="0.1"/>
    <path d="M392.415 511.366C391.145 515.763 387.746 523.39 379.144 525.464C379.878 524.314 380.343 523.012 380.504 521.656V516.817H307.916C305.72 516.814 303.556 516.302 301.592 515.321L303.858 510.369C305.107 511.022 306.495 511.364 307.904 511.366H392.415Z" fill="black" opacity="0.3"/>
    <path d="M382.872 509.417H367.13L365.736 499.625L370.553 497.608C375.086 495.08 377.103 496.055 377.681 496.406C378.996 497.188 379.234 498.582 381.081 504.271C381.852 506.515 382.475 508.317 382.872 509.417Z" fill="#FFCB9D"/>
    <path d="M382.872 509.417H367.13L365.736 499.625L370.553 497.608C375.086 495.08 377.103 496.055 377.681 496.406C378.996 497.188 379.234 498.582 381.081 504.271C381.852 506.515 382.475 508.317 382.872 509.417Z" fill="black" opacity="0.1"/>
    <path d="M376.287 513.395C382.083 513.395 386.782 511.817 386.782 509.87C386.782 507.923 382.083 506.345 376.287 506.345C370.491 506.345 365.793 507.923 365.793 509.87C365.793 511.817 370.491 513.395 376.287 513.395Z" fill="#FFCB9D"/>
    <path d="M325.288 496.361L278.245 504.113L276.772 504.351C270.403 521.297 264.048 538.244 257.71 555.191L249.72 553.967C251.329 534.542 252.935 515.121 254.536 495.704L290.077 480.517L305.036 473.627L324.688 495.658C324.869 495.896 325.073 496.112 325.288 496.361Z" fill="#066FD1"/>
    <path d="M324.654 495.658L278.574 503.251C278.46 503.535 278.358 503.829 278.245 504.113L276.772 504.351C270.403 521.297 264.048 538.244 257.71 555.191L249.72 553.967C251.329 534.542 252.935 515.121 254.536 495.704L290.077 480.517L305.036 473.627L324.654 495.658Z" fill="black" opacity="0.25"/>
    <path d="M262.243 505.393L302.362 486.377L306.895 481.401C306.623 478.817 306.34 476.222 306.068 473.627L337.801 495.103C336.452 499.818 333.143 508.374 325.006 513.576C317.684 518.268 309.468 518.268 300.311 518.324C296.102 518.355 291.898 518.036 287.742 517.372L286.417 567.612H278.993C273.395 546.872 267.811 526.133 262.243 505.393Z" fill="#066FD1"/>
    <path d="M278.483 589.042L289.93 577.279C289.93 577.279 287.663 573.324 284.728 573.664C281.792 574.004 278.007 584.045 278.483 589.042Z" fill="#454C5E"/>
    <path d="M239.033 565.731L255.443 565.243C255.443 565.243 256.577 560.823 254.242 559.033C251.908 557.242 242.195 561.843 239.033 565.731Z" fill="#454C5E"/>
    <path d="M311.134 420.101H311.213C311.538 419.979 311.871 419.88 312.21 419.806C311.836 419.836 311.471 419.936 311.134 420.101Z" fill="#DADBE0"/>
    <path d="M362.676 449.963C362.507 450.221 362.287 450.441 362.03 450.61C361.773 450.78 361.484 450.895 361.18 450.949C358.721 451.097 356.579 444.558 356.035 442.778C353.694 453.208 350.665 463.472 346.969 473.502C344.056 481.435 340.928 488.609 337.789 495.114L329.403 491.046C323.011 487.933 316.672 484.805 310.386 481.662C318.398 480.143 319.158 477.831 319.271 477.129C319.781 473.933 312.868 470.329 308.051 468.153C305.909 467.212 304.175 466.555 303.722 466.385C303.79 465.818 303.858 465.252 303.915 464.685C307.951 457.059 310.574 448.766 311.655 440.206C306.102 452.222 296.664 462.019 284.864 468.017C284.15 468.38 283.481 468.708 282.858 468.992L281.022 466.646C279.356 464.447 277.679 462.226 276.013 460.004L278.279 457.194C291.743 440.432 301.047 428.737 303.405 425.325C304.464 423.741 305.791 422.353 307.326 421.223C308.931 420.076 310.721 419.214 312.618 418.673C316.046 417.769 319.64 417.696 323.101 418.458C333.97 420.373 340.781 420.395 347.853 421.767C355.911 423.342 359.968 424.158 361.18 425.371C361.677 425.886 362.097 426.47 362.427 427.105C366.439 433.938 365.929 446.303 362.676 449.963Z" fill="#DADBE0"/>
    <path d="M312.21 419.784C312.505 419.784 312.867 419.704 313.275 419.682C312.917 419.659 312.557 419.694 312.21 419.784Z" fill="#DADBE0"/>
    <path d="M327.351 379.665C327.068 381.863 326.762 385.093 326.399 389.173C326.331 390.012 326.274 390.85 326.286 391.134C326.125 395.553 326.506 399.976 327.419 404.303L328.099 406.785C329.017 409.72 338.729 414.718 347.818 415.182C356.908 415.647 361.418 407.487 358.188 403.169C357.097 401.433 356.329 399.513 355.922 397.503C355.254 394.868 354.788 392.185 354.528 389.479C354.335 387.904 354.244 386.918 354.244 386.918L348.215 379.778L331.374 377.115C331.08 379.982 330.048 381.852 329.108 381.852C328.167 381.852 327.464 380.027 327.396 379.585" fill="#FFCB9D"/>
    <path d="M327.351 379.665C327.068 381.863 326.762 385.093 326.399 389.173C326.331 390.012 326.274 390.85 326.286 391.134C326.125 395.553 326.506 399.976 327.419 404.303C328.545 404.14 329.628 403.755 330.604 403.169C331.715 402.528 332.665 401.64 333.38 400.574C334.158 399.491 334.748 398.284 335.125 397.004C335.459 396.188 335.713 395.342 335.885 394.477C341.965 397.632 348.914 398.699 355.661 397.514C354.999 394.874 354.533 392.188 354.267 389.479C354.074 387.904 353.995 386.929 353.995 386.929L347.954 379.789L331.17 377.115C330.876 379.971 329.833 381.841 328.904 381.841C327.974 381.841 327.442 380.073 327.374 379.676" fill="black" opacity="0.1"/>
    <path d="M324.654 382.94C324.162 386.446 325.034 390.008 327.09 392.89C327.498 393.4 327.918 393.91 328.314 394.5C329.241 396.111 329.74 397.933 329.765 399.792C330.704 398.963 331.368 397.868 331.669 396.653C331.88 394.715 331.956 392.765 331.895 390.816C331.914 390.723 331.914 390.627 331.895 390.533C331.888 390.252 331.907 389.972 331.952 389.694C332.043 388.776 332.224 387.87 332.371 387.065V386.974C336.247 390.227 347.354 398.511 356.511 393.661C357.925 392.886 359.235 391.934 360.409 390.828C360.531 390.76 360.63 390.657 360.693 390.533C360.973 390.254 361.224 389.946 361.441 389.615H361.554C362.162 388.785 362.658 387.878 363.027 386.918L363.129 386.566C363.398 385.497 363.415 384.379 363.179 383.302C362.943 382.224 362.46 381.216 361.769 380.356C359.826 378.051 357.47 376.129 354.822 374.689C348.136 370.689 337.369 368.218 330.218 373.669C328.387 375.089 326.945 376.949 326.025 379.075C325.306 380.289 324.836 381.634 324.642 383.031" fill="#454C5E"/>
    <path d="M332.383 386.975C336.259 390.227 347.365 398.512 356.522 393.661C357.937 392.886 359.247 391.934 360.421 390.828C360.542 390.76 360.641 390.657 360.704 390.533C360.985 390.254 361.236 389.947 361.452 389.615H361.566C362.174 388.785 362.669 387.878 363.039 386.918C360.838 388.491 358.391 389.686 355.797 390.454C343.002 394.115 331.612 385.184 329.867 383.654L329.72 383.507C330.504 384.739 331.395 385.899 332.383 386.975Z" fill="black" opacity="0.5"/>
    <path d="M342.708 420.634C339.529 422.887 335.735 424.109 331.839 424.136H331.397L326.49 418.412L342.708 420.634Z" fill="#FFCB9D"/>
    <path d="M333.381 423.274L325.334 414.604L322.728 416.486L327.215 427.377L333.381 423.274Z" fill="#066FD1"/>
    <path d="M333.913 423.297L350.017 417.29L352.658 420.94L340.339 431.638L333.913 423.297Z" fill="#066FD1"/>
    <path d="M333.381 423.274L325.334 414.604L322.728 416.486L327.215 427.377L333.381 423.274Z" fill="black" opacity="0.11"/>
    <path d="M308.04 468.131C307.779 464.153 318.783 461.444 329.776 456.288C340.207 451.336 349.774 444.739 358.109 436.75C355.168 449.511 351.355 462.056 346.697 474.296C343.852 481.753 340.86 488.689 337.812 495.103L329.425 491.046C323.033 487.918 316.694 484.79 310.408 481.662C318.421 480.144 319.18 477.832 319.293 477.129C319.781 473.763 308.3 472.188 308.04 468.131Z" fill="black" opacity="0.1"/>
    <path d="M362.677 449.964C362.29 450.445 361.763 450.793 361.169 450.961C360.331 451.165 358.903 451.029 356.421 448.479C356.421 448.513 359.163 448.966 362.677 449.964Z" fill="black" opacity="0.1"/>
    <path d="M360.217 424.714C360.534 424.895 361.01 425.178 361.565 425.552C374.451 434.12 374.882 451.834 378.304 468.493C380.899 480.981 385.121 493.075 390.861 504.464H364.852L350.776 430.799L352.318 429.825C354.977 428.11 357.61 426.406 360.217 424.714Z" fill="#DADBE0"/>
    <path d="M311.621 440.194C306.068 452.211 296.63 462.007 284.83 468.006C283.549 467.552 282.269 467.076 281.022 466.589C279.356 464.39 277.679 462.169 276.013 459.948L278.279 457.137C295.596 453.873 311.088 440.659 311.621 440.194Z" fill="black" opacity="0.1"/>
    <path d="M329.89 492.564C329.907 492.711 329.907 492.86 329.89 493.006C329.784 493.526 329.476 493.982 329.034 494.275C328.593 494.568 328.053 494.674 327.533 494.57L275.752 484.609C275.306 484.524 274.901 484.288 274.607 483.942C274.312 483.596 274.144 483.159 274.132 482.705L273.826 468.618L273.531 454.735C273.514 454.584 273.514 454.432 273.531 454.281C273.635 453.769 273.935 453.318 274.367 453.024C274.799 452.73 275.328 452.616 275.843 452.706L327.624 462.668C328.073 462.756 328.479 462.995 328.774 463.345C329.069 463.696 329.235 464.137 329.244 464.595L329.89 492.564Z" fill="#454C5E"/>
    <path d="M284.184 472.607C281.907 476.91 278.389 480.428 274.086 482.705L273.78 468.618L284.184 472.607Z" fill="black" opacity="0.1"/>
    <path d="M283.901 473.967C282.824 476.528 279.062 477.446 275.129 476.234C274.697 476.108 274.274 475.956 273.86 475.78C269.508 473.967 266.924 470.193 268.114 467.36C269.009 465.218 271.786 464.22 274.971 464.651C276.061 464.799 277.128 465.088 278.144 465.512C282.507 467.36 285.08 471.179 283.901 473.967Z" fill="#FFCB9D"/>
    <path d="M276.002 470.68C276.016 472.574 275.721 474.457 275.129 476.256C274.697 476.13 274.274 475.979 273.86 475.803C269.508 473.99 266.924 470.216 268.114 467.382C269.009 465.24 271.786 464.243 274.971 464.674C275.668 466.599 276.017 468.633 276.002 470.68Z" fill="black" opacity="0.1"/>
</svg>
