<svg xmlns="http://www.w3.org/2000/svg" width="800" height="600" fill="none" viewBox="0 0 800 600">
    <path d="M133.091 300.004C133.091 347.034 182.83 381.151 204.76 419.13C227.554 458.331 232.915 518.205 272.151 540.861C310.13 562.848 364.204 538.255 411.234 538.255C458.264 538.255 512.338 562.848 550.317 540.861C589.518 518.205 594.914 458.319 617.616 419.13C639.604 381.151 689.297 347.034 689.297 300.004C689.297 252.975 639.569 218.847 617.616 180.868C594.961 141.666 589.495 81.7925 550.317 59.1135C512.269 37.207 458.218 61.7884 411.188 61.7884C364.158 61.7884 310.084 37.1494 272.151 59.1135C232.95 81.7925 227.554 141.678 204.84 180.868C182.876 218.847 133.172 252.963 133.172 300.004" fill="black" opacity="0.07"/>
    <path d="M432.334 282.214L388.521 315.5L408.963 368.756L415.223 364.34V328.667L453.883 316.561C455.935 312.272 457.976 307.487 459.867 302.253C462.488 294.948 464.554 287.455 466.046 279.839L432.334 282.214Z" fill="#066FD1"/>
    <path d="M432.334 282.214L388.521 315.5L408.963 368.756L415.223 364.34V328.667L453.883 316.561C455.935 312.272 457.976 307.487 459.867 302.253C462.488 294.948 464.554 287.455 466.046 279.839L432.334 282.214Z" fill="black" opacity="0.1"/>
    <path d="M619.738 91.3507H501.87C500.514 91.3507 499.414 92.4502 499.414 93.8065V93.818C499.414 95.1744 500.514 96.2739 501.87 96.2739H619.738C621.095 96.2739 622.194 95.1744 622.194 93.818V93.8065C622.194 92.4502 621.095 91.3507 619.738 91.3507Z" fill="#066FD1"/>
    <path d="M678.124 111.516H560.256C558.899 111.516 557.8 112.616 557.8 113.972V113.984C557.8 115.34 558.899 116.439 560.256 116.439H678.124C679.48 116.439 680.58 115.34 680.58 113.984V113.972C680.58 112.616 679.48 111.516 678.124 111.516Z" fill="#066FD1"/>
    <path d="M304.596 201.195H186.727C185.371 201.195 184.271 202.294 184.271 203.65V203.662C184.271 205.018 185.371 206.118 186.727 206.118H304.596C305.952 206.118 307.052 205.018 307.052 203.662V203.65C307.052 202.294 305.952 201.195 304.596 201.195Z" fill="#066FD1"/>
    <path d="M231.324 221.348H113.456C112.1 221.348 111 222.448 111 223.804V223.816C111 225.172 112.1 226.272 113.456 226.272H231.324C232.681 226.272 233.78 225.172 233.78 223.816V223.804C233.78 222.448 232.681 221.348 231.324 221.348Z" fill="#066FD1"/>
    <path d="M578.081 300.004L558.377 283.39L575.948 262.487L595.653 279.101L578.081 300.004ZM563.277 283.009L577.701 295.104L590.902 279.516L576.479 267.41L563.277 283.009Z" fill="#DADBE0"/>
    <path d="M578.081 300.004L558.377 283.39L575.948 262.487L595.653 279.101L578.081 300.004ZM563.277 283.009L577.701 295.104L590.902 279.516L576.479 267.41L563.277 283.009Z" fill="black" opacity="0.1"/>
    <path d="M578.081 300.004L558.377 283.39L575.948 262.487L595.653 279.101L578.081 300.004ZM563.277 283.009L577.701 295.104L590.902 279.516L576.479 267.41L563.277 283.009Z" fill="black" opacity="0.35"/>
    <path d="M637.414 283.125L609.385 259.512L604.888 255.73L597.371 264.585L601.867 268.367L614.435 278.951C615.003 279.437 615.361 280.124 615.432 280.869C615.503 281.613 615.282 282.356 614.815 282.94L611.794 286.515C611.309 287.083 610.621 287.44 609.877 287.511C609.132 287.582 608.39 287.361 607.805 286.895L595.238 276.311L590.741 272.529L587.916 275.838L572.455 294.067L569.838 297.099L574.334 300.881L586.89 311.453C587.461 311.937 587.821 312.625 587.892 313.371C587.963 314.116 587.74 314.859 587.271 315.443L584.285 318.902C583.797 319.471 583.107 319.829 582.361 319.9C581.615 319.971 580.87 319.749 580.284 319.282L567.901 308.582L563.404 304.801L554.342 315.512L586.844 343.045L591.018 338.018L637.414 283.125Z" fill="#DADBE0"/>
    <path d="M637.414 283.125L609.385 259.512L604.888 255.73L597.371 264.585L601.867 268.367L614.435 278.951C615.003 279.437 615.361 280.124 615.432 280.869C615.503 281.613 615.282 282.356 614.815 282.94L611.794 286.515C611.309 287.083 610.621 287.44 609.877 287.511C609.132 287.582 608.39 287.361 607.805 286.895L595.238 276.311L590.741 272.529L587.916 275.838L572.455 294.067L569.838 297.099L574.334 300.881L586.89 311.453C587.461 311.937 587.821 312.625 587.892 313.371C587.963 314.116 587.74 314.859 587.271 315.443L584.285 318.902C583.797 319.471 583.107 319.829 582.361 319.9C581.615 319.971 580.87 319.749 580.284 319.282L567.901 308.582L563.404 304.801L554.342 315.512L586.844 343.045L591.018 338.018L637.414 283.125Z" fill="black" opacity="0.1"/>
    <path d="M637.413 283.125L609.384 259.512L601.844 268.355L614.411 278.94C614.98 279.425 615.337 280.113 615.408 280.857C615.479 281.602 615.258 282.344 614.792 282.929L611.771 286.503C611.285 287.072 610.598 287.429 609.853 287.5C609.109 287.571 608.366 287.35 607.782 286.884L595.214 276.299L592.563 279.481L577.251 297.733L574.599 300.915L587.167 311.488C587.736 311.976 588.094 312.665 588.165 313.412C588.236 314.158 588.014 314.903 587.547 315.489L584.526 319.052C584.042 319.623 583.354 319.982 582.609 320.053C581.864 320.124 581.12 319.901 580.537 319.432L567.854 308.536L563.139 314.082C569.198 320.962 577.436 325.554 586.475 327.088C591.253 327.742 596.111 327.488 600.795 326.338L637.413 283.125Z" fill="#DADBE0"/>
    <path d="M586.993 311.476L574.426 300.904L569.929 297.122C569.653 296.892 569.333 296.72 568.988 296.616C568.644 296.512 568.282 296.478 567.925 296.515C567.567 296.553 567.22 296.661 566.905 296.835C566.59 297.008 566.313 297.243 566.09 297.525L563.219 301.123C562.767 301.671 562.542 302.372 562.589 303.081C562.636 303.79 562.952 304.455 563.473 304.939L567.969 308.721L580.537 319.305C581.122 319.773 581.866 319.994 582.611 319.921C583.356 319.847 584.044 319.486 584.526 318.913L587.57 315.408C587.991 314.802 588.166 314.059 588.059 313.328C587.952 312.598 587.571 311.936 586.993 311.476Z" fill="#066FD1"/>
    <path d="M614.55 278.974L601.982 268.39L597.486 264.62C597.208 264.39 596.887 264.217 596.542 264.113C596.196 264.009 595.834 263.974 595.475 264.012C595.117 264.05 594.769 264.158 594.453 264.332C594.137 264.506 593.859 264.741 593.635 265.023L590.614 268.597C590.168 269.176 589.946 269.897 589.991 270.626C590.035 271.355 590.343 272.044 590.856 272.564L595.353 276.334L607.92 286.918C608.503 287.387 609.247 287.61 609.992 287.539C610.737 287.468 611.425 287.109 611.909 286.538L614.93 282.963C615.329 282.354 615.509 281.627 615.44 280.902C615.371 280.177 615.057 279.497 614.55 278.974Z" fill="#066FD1"/>
    <path d="M140.689 498.731C140.689 500.945 248.331 502.743 381.131 502.743C513.93 502.743 621.583 500.945 621.583 498.731C621.583 496.517 513.942 494.776 381.154 494.776C248.366 494.776 140.689 496.563 140.689 498.731Z" fill="#1D2535" opacity="0.5"/>
    <path d="M446.861 419.914C446.855 414.133 444.556 408.591 440.468 404.504C436.381 400.416 430.839 398.117 425.058 398.111C424.172 398.116 423.286 398.173 422.406 398.284L417.795 380.62C417.687 380.207 417.499 379.819 417.242 379.478C416.984 379.137 416.662 378.851 416.294 378.634C415.926 378.418 415.518 378.276 415.095 378.218C414.672 378.159 414.242 378.184 413.828 378.291C413.415 378.399 413.027 378.587 412.686 378.844C412.345 379.102 412.059 379.424 411.842 379.792C411.626 380.16 411.485 380.568 411.426 380.991C411.367 381.414 411.392 381.844 411.499 382.258L416.111 400.036C411.557 402.075 407.841 405.615 405.583 410.064C403.326 414.513 402.663 419.603 403.706 424.482C404.75 429.361 407.436 433.734 411.316 436.871C415.196 440.008 420.034 441.718 425.024 441.716C425.681 441.716 426.327 441.716 426.972 441.624L432.161 461.478C432.34 462.174 432.745 462.791 433.313 463.231C433.88 463.672 434.578 463.911 435.297 463.911C435.577 463.91 435.855 463.875 436.127 463.807C436.958 463.585 437.666 463.044 438.099 462.3C438.531 461.557 438.651 460.673 438.433 459.841L433.279 440.079C437.288 438.444 440.719 435.654 443.138 432.063C445.556 428.472 446.852 424.243 446.861 419.914ZM425.058 435.617C421.55 435.623 418.14 434.454 415.375 432.295C412.609 430.136 410.647 427.112 409.801 423.707C408.955 420.302 409.275 416.712 410.71 413.51C412.144 410.308 414.61 407.679 417.714 406.043L425.427 435.594L425.058 435.617ZM431.757 434.095L423.963 404.268C424.332 404.268 424.689 404.21 425.058 404.21C428.625 404.209 432.085 405.422 434.87 407.651C437.654 409.879 439.596 412.99 440.376 416.47C441.156 419.95 440.728 423.592 439.161 426.796C437.594 430 434.983 432.574 431.757 434.095Z" fill="#A7AAB3"/>
    <path d="M522.358 446.363C532.127 446.363 540.045 438.444 540.045 428.676C540.045 418.908 532.127 410.99 522.358 410.99C512.59 410.99 504.672 418.908 504.672 428.676C504.672 438.444 512.59 446.363 522.358 446.363Z" fill="#066FD1"/>
    <path d="M269.096 368.768C280.822 368.765 292.285 372.241 302.036 378.754C311.787 385.267 319.388 394.525 323.877 405.358C328.366 416.191 329.542 428.112 327.255 439.613C324.969 451.114 319.323 461.679 311.033 469.971C302.742 478.263 292.178 483.911 280.677 486.2C269.177 488.488 257.256 487.315 246.422 482.828C235.588 478.341 226.328 470.742 219.813 460.992C213.299 451.243 209.821 439.78 209.821 428.054C209.839 412.338 216.09 397.27 227.202 386.156C238.314 375.042 253.38 368.789 269.096 368.768ZM269.096 357.572C255.156 357.572 241.529 361.706 229.938 369.451C218.348 377.195 209.314 388.203 203.979 401.082C198.645 413.96 197.249 428.132 199.969 441.804C202.688 455.476 209.401 468.034 219.258 477.891C229.115 487.748 241.673 494.461 255.345 497.181C269.017 499.9 283.189 498.504 296.068 493.17C308.946 487.835 319.954 478.801 327.699 467.211C335.443 455.62 339.577 441.993 339.577 428.054C339.577 409.361 332.151 391.434 318.933 378.216C305.716 364.998 287.788 357.572 269.096 357.572Z" fill="#066FD1"/>
    <path d="M458.818 360.501C456.804 365.32 454.779 370.14 452.742 374.959L464.779 356.8L458.818 360.501ZM458.818 360.501C456.804 365.32 454.779 370.14 452.742 374.959L464.779 356.8L458.818 360.501ZM526.901 358.679L525.61 358.598H524.814C524.434 358.598 524.053 358.598 523.661 358.598H521.678C513.83 358.601 506.037 359.91 498.619 362.472L487.815 337.649L490.663 333.348L488.484 333.233L493.788 313.725C493.919 313.244 493.965 312.745 493.926 312.249C493.848 311.379 493.506 310.553 492.946 309.883C492.385 309.214 491.633 308.731 490.79 308.502C489.897 308.257 488.949 308.314 488.092 308.663L487.688 308.848L487.354 309.044C487.268 309.094 487.187 309.151 487.112 309.217C487.015 309.273 486.925 309.343 486.847 309.424C486.727 309.527 486.615 309.639 486.512 309.758C486.291 309.999 486.101 310.266 485.947 310.554C485.863 310.702 485.79 310.856 485.728 311.015C485.666 311.174 485.612 311.335 485.567 311.499L479.768 332.703L385.973 327.883L333.836 325.208L358.936 284.278L324.946 259.143C324.036 258.47 322.897 258.186 321.778 258.354C320.659 258.522 319.652 259.127 318.98 260.036C318.307 260.946 318.023 262.086 318.191 263.205C318.358 264.324 318.963 265.33 319.873 266.003L347.544 286.491L260.818 427.662C260.525 428.138 260.329 428.668 260.241 429.221C260.153 429.773 260.175 430.338 260.306 430.882C260.437 431.426 260.673 431.939 261.003 432.391C261.332 432.844 261.747 433.227 262.224 433.519C262.886 433.938 263.655 434.158 264.438 434.153C265.169 434.156 265.887 433.971 266.526 433.615C267.164 433.26 267.7 432.746 268.082 432.124L330.792 330.074L368.344 367.776L421.888 421.482L425.497 425.113L429.556 425.333L450.874 426.486C450.874 427.419 450.805 428.353 450.805 429.299C450.805 429.979 450.805 430.659 450.805 431.328C450.805 431.997 450.805 432.596 450.886 433.23C450.966 433.865 450.886 434.383 450.989 434.925C450.989 435.294 451.047 435.652 451.093 436.009C451.139 436.367 451.162 436.747 451.208 437.162C451.217 437.317 451.236 437.471 451.266 437.623C451.324 438.2 451.381 438.776 451.474 439.364C451.566 439.952 451.67 440.621 451.762 441.255C451.759 441.286 451.759 441.317 451.762 441.347C451.866 441.958 451.969 442.569 452.096 443.181C452.096 443.181 452.096 443.238 452.096 443.273L452.511 445.164C452.65 445.798 452.811 446.432 452.972 447.066C453.134 447.7 453.307 448.311 453.491 448.934C453.968 450.594 454.498 452.22 455.082 453.811C455.221 454.203 455.371 454.595 455.52 454.964C456.155 456.578 456.846 458.169 457.584 459.726C462.929 470.979 471.146 480.624 481.407 487.689C491.668 494.754 503.61 498.99 516.029 499.968C528.449 500.946 540.907 498.633 552.147 493.261C563.388 487.89 573.013 479.65 580.054 469.372C587.094 459.094 591.301 447.142 592.25 434.72C593.198 422.299 590.855 409.846 585.457 398.619C580.058 387.391 571.796 377.785 561.501 370.769C551.207 363.753 539.244 359.575 526.82 358.656L526.901 358.679ZM515.014 421.482L460.305 418.507C462.021 408.875 465.974 399.78 471.845 391.954C477.717 384.129 485.343 377.79 494.111 373.449L515.014 421.482ZM451.704 418.023L435.032 417.112C440.935 403.069 446.835 389.018 452.73 374.959L449.79 379.456L426.731 414.276L370.454 357.78L347.176 334.397L380.012 336.081L475.294 340.981L464.779 356.8L482.177 345.996L490.709 365.597C480.492 370.584 471.619 377.946 464.832 387.067C458.046 396.189 453.544 406.804 451.704 418.023ZM521.678 491.675C510.299 491.666 499.139 488.546 489.405 482.652C479.671 476.759 471.733 468.317 466.451 458.238C466.162 457.697 465.897 457.155 465.632 456.601C465.171 455.679 464.744 454.733 464.341 453.788C464.305 453.717 464.274 453.644 464.248 453.569C464.087 453.211 463.937 452.854 463.799 452.485C463.66 452.116 463.476 451.678 463.326 451.263C463.176 450.848 462.946 450.294 462.796 449.81C462.646 449.326 462.392 448.657 462.208 448.046C462.023 447.435 461.839 446.893 461.677 446.271C461.516 445.648 461.355 445.118 461.216 444.53C461.078 443.942 460.859 443.065 460.709 442.327C460.594 441.82 460.49 441.301 460.398 440.794C460.271 440.171 460.155 439.549 460.063 438.926C459.971 438.303 459.89 437.681 459.81 437.047C459.729 436.413 459.694 436.032 459.648 435.525C459.602 435.018 459.567 434.695 459.533 434.268C459.533 434.187 459.533 434.107 459.533 434.026C459.533 433.622 459.475 433.219 459.452 432.815C459.429 432.412 459.452 431.916 459.452 431.455C459.452 430.751 459.452 430.048 459.452 429.345C459.452 428.642 459.452 427.777 459.51 427.039L511.889 429.898L528.458 430.798L521.54 414.771L502.17 370.255C508.514 368.129 515.16 367.046 521.851 367.05C522.923 367.05 523.984 367.05 525.056 367.13C525.587 367.13 526.117 367.188 526.624 367.234L527.777 367.326L528.861 367.442C544.69 369.225 559.236 377.001 569.513 389.172C579.79 401.343 585.018 416.986 584.124 432.89C583.23 448.794 576.282 463.753 564.705 474.695C553.129 485.638 537.804 491.734 521.874 491.732L521.678 491.675ZM452.742 374.959L464.779 356.8L458.829 360.501C456.808 365.32 454.779 370.14 452.742 374.959Z" fill="#454C5E"/>
    <path d="M505.559 309.009H473.691C469.469 309.009 466.047 312.431 466.047 316.653V316.976C466.047 321.198 469.469 324.62 473.691 324.62H505.559C509.781 324.62 513.203 321.198 513.203 316.976V316.653C513.203 312.431 509.781 309.009 505.559 309.009Z" fill="#A7AAB3"/>
    <path d="M526.9 358.679L525.609 358.598H524.813C524.433 358.598 524.052 358.598 523.66 358.598H521.677C513.829 358.601 506.036 359.91 498.618 362.473L487.814 337.649L490.662 333.348L488.483 333.233L493.787 313.725C493.918 313.245 493.965 312.745 493.925 312.249C492.046 310.981 490.086 309.782 488.091 308.663L487.688 308.848L487.353 309.044C487.267 309.094 487.186 309.152 487.111 309.217C487.014 309.274 486.925 309.343 486.846 309.424C486.726 309.527 486.614 309.639 486.512 309.759C486.29 309.999 486.1 310.266 485.947 310.554C485.862 310.702 485.789 310.856 485.728 311.015C485.665 311.174 485.611 311.335 485.566 311.5L479.767 332.703L385.972 327.883C383.821 330.505 381.83 333.254 380.011 336.116L475.293 341.016L464.778 356.8L482.176 345.997L490.708 365.597C480.491 370.584 471.618 377.946 464.831 387.067C458.045 396.189 453.543 406.804 451.703 418.023L435.031 417.112C440.935 403.069 446.834 389.018 452.729 374.959L449.789 379.456L426.73 414.276L370.453 357.78C369.547 361.068 368.854 364.411 368.378 367.788L421.887 421.482L425.496 425.114L429.555 425.333L450.873 426.486C450.873 427.419 450.804 428.353 450.804 429.299C450.804 429.979 450.804 430.659 450.804 431.328C450.804 431.997 450.804 432.596 450.885 433.23C450.965 433.865 450.885 434.383 450.988 434.925C450.988 435.294 451.046 435.652 451.092 436.009C451.138 436.367 451.161 436.747 451.208 437.162C451.216 437.317 451.235 437.471 451.265 437.623C451.323 438.2 451.38 438.776 451.473 439.364C451.565 439.952 451.669 440.621 451.761 441.255C451.758 441.286 451.758 441.317 451.761 441.347C451.865 441.959 451.969 442.57 452.095 443.181C452.095 443.181 452.095 443.238 452.095 443.273L452.51 445.164C452.649 445.798 452.81 446.432 452.972 447.066C453.133 447.7 453.306 448.311 453.49 448.934C453.967 450.594 454.497 452.22 455.082 453.811C455.22 454.203 455.37 454.595 455.52 454.964C456.154 456.578 456.846 458.169 457.583 459.726C460.538 459.395 463.471 458.898 466.369 458.238C466.081 457.697 465.816 457.155 465.551 456.601C465.089 455.679 464.663 454.745 464.259 453.788C464.224 453.717 464.193 453.644 464.167 453.569C464.006 453.212 463.856 452.854 463.717 452.485C463.579 452.116 463.394 451.678 463.245 451.263C463.095 450.848 462.864 450.295 462.714 449.81C462.564 449.326 462.311 448.657 462.126 448.046C461.942 447.435 461.757 446.893 461.596 446.271C461.434 445.648 461.273 445.118 461.135 444.53C460.996 443.942 460.777 443.065 460.627 442.327C460.512 441.82 460.408 441.313 460.316 440.794C460.201 440.183 460.074 439.56 459.982 438.926C459.889 438.292 459.809 437.681 459.728 437.047C459.647 436.413 459.613 436.032 459.567 435.525C459.52 435.018 459.486 434.683 459.451 434.268C459.451 434.187 459.451 434.107 459.451 434.026C459.451 433.623 459.394 433.219 459.371 432.815C459.348 432.412 459.371 431.905 459.371 431.455C459.371 430.752 459.371 430.048 459.371 429.345C459.371 428.642 459.371 427.777 459.428 427.039L511.808 429.898C515.558 425.229 518.776 420.155 521.401 414.771L502.031 370.255C508.374 368.129 515.021 367.046 521.712 367.05C522.784 367.05 523.845 367.05 524.917 367.13C525.447 367.13 525.978 367.188 526.485 367.234L527.638 367.327L528.722 367.442C528.289 364.487 527.68 361.561 526.9 358.679ZM515.013 421.482L460.304 418.507C462.02 408.875 465.973 399.78 471.844 391.955C477.716 384.129 485.342 377.79 494.11 373.449L515.013 421.482Z" fill="black" opacity="0.3"/>
    <path d="M459.97 276.461C450.332 300.588 440.697 324.716 431.065 348.844C432.38 381.635 433.687 414.425 434.986 447.216L447.668 445.475C452.857 418.219 458.041 390.955 463.222 363.683C471.293 357.826 493.407 340.012 500.117 309.493C501.972 300.939 502.482 292.147 501.627 283.436L459.97 276.461Z" fill="#066FD1"/>
    <path d="M486.789 208.066C486.014 209.913 485.348 211.803 484.794 213.727C485.427 213.08 485.894 212.289 486.154 211.421C486.42 210.315 486.593 209.208 486.789 208.066Z" fill="black" opacity="0.1"/>
    <path d="M337.26 275.285C336.087 275.782 334.855 276.123 333.593 276.299C329.097 276.933 325.108 275.146 323.862 271.595C322.306 267.041 325.707 261.357 331.518 258.912C332.162 258.636 332.825 258.405 333.501 258.221C338.62 256.826 343.509 258.578 344.904 262.59C346.472 267.052 343.048 272.748 337.26 275.285Z" fill="#FFCB9D"/>
    <path d="M337.259 275.285C336.087 275.782 334.854 276.123 333.593 276.299C333.454 275.803 333.374 275.365 333.27 274.904C332.117 268.816 333.881 265.807 333.558 259.051C333.556 258.758 333.537 258.465 333.501 258.174C338.62 256.779 343.508 258.532 344.904 262.544C346.472 267.052 343.047 272.748 337.259 275.285Z" fill="black" opacity="0.1"/>
    <path d="M501.673 283.459C494.317 283.897 486.569 284.186 478.464 284.243C474.717 284.243 470.854 284.243 466.934 284.243C462.161 284.151 457.411 284.013 452.706 283.736C445.627 283.39 438.871 282.871 432.379 282.26C431.469 277.96 430.362 273.498 429.082 268.909C425.875 257.335 421.742 246.038 416.722 235.127C401.58 254.097 386.468 273.325 371.387 292.81C365.761 300.066 360.161 307.318 354.588 314.566C352.428 307.649 350.261 300.762 348.086 293.905L345.238 285.731C343.624 281.119 342.002 276.484 340.372 271.826L334.423 254.762C339.971 254.799 345.513 254.414 351.003 253.609C355.133 253.031 359.22 252.175 363.236 251.049C373.117 248.132 379.827 242.978 393.282 232.682C393.282 232.682 404.12 224.369 408.87 218.754C409.572 217.814 410.368 216.949 411.245 216.172C411.707 215.78 412.145 215.307 412.641 214.823C413.863 213.67 415.177 212.574 416.434 211.548C421.529 207.519 426.956 203.928 432.656 200.814C437.052 198.407 441.578 196.247 446.215 194.346C447.772 193.712 449.42 193.043 451.092 192.455C453.817 191.321 456.623 190.392 459.486 189.676C462.307 189.303 465.167 189.358 467.972 189.838H468.145C469.298 190.034 479.997 198.324 480.401 198.543C480.977 198.969 482.003 202.14 483.318 207.017C485.359 214.604 488.091 226.318 490.858 238.32C493.164 248.374 495.47 258.636 497.488 266.81C498.583 271.422 499.54 275.411 500.324 278.34C500.751 280.046 501.189 281.753 501.673 283.459Z" fill="#DADBE0"/>
    <path d="M501.593 283.448L478.441 284.162L452.603 283.713C462.975 271.91 468.281 256.497 467.372 240.811C465.562 214.292 446.054 199.615 443.264 197.678L445.892 194.427C447.46 193.792 449.098 193.135 450.793 192.536C453.504 191.386 456.303 190.457 459.163 189.757C461.985 189.401 464.843 189.456 467.649 189.918L467.822 189.976C470.139 190.399 472.393 191.112 474.532 192.098L474.452 192.328L473.472 194.081L471.304 197.724L480.113 198.6C482.315 200.238 491.354 242.655 497.2 266.868C497.944 270.758 498.89 274.606 500.036 278.398C500.613 280.519 501.166 282.191 501.593 283.448Z" fill="black" opacity="0.1"/>
    <path d="M453.894 194.899C457.146 201.817 451.589 211.283 441.465 216.033C431.342 220.784 420.55 218.985 417.253 212.067C417.072 211.699 416.933 211.313 416.838 210.914C421.932 206.841 427.376 203.226 433.106 200.111C439.043 196.887 445.209 194.105 451.554 191.786C452.542 192.65 453.339 193.71 453.894 194.899Z" fill="#FFCB9D"/>
    <path d="M450.55 221.003C449.881 220.784 449.674 219.919 449.397 218.201C449.316 217.552 449.178 216.911 448.982 216.287C448.222 214.963 447.252 213.772 446.111 212.759C450.158 213.693 455.277 214.511 457.641 213.393C457.944 213.261 458.216 213.064 458.437 212.818C458.657 212.571 458.823 212.279 458.921 211.963C459.497 209.761 457.03 207.225 455.127 205.495C451.161 201.736 447.887 200.457 445.454 201.471C443.021 202.486 441.845 206.51 441.626 208.77C439.32 207.178 434.443 204.377 430.754 206.256C427.813 207.824 426.453 212.182 426.799 219.285C426.96 222.559 427.479 227.056 429.912 228.232C430.285 228.422 430.698 228.521 431.117 228.521C431.536 228.521 431.948 228.422 432.322 228.232C435.561 226.698 439.239 220.161 441.545 215.457C441.613 217.005 441.25 218.542 440.496 219.896C440.144 220.259 439.89 220.705 439.757 221.193C439.624 221.681 439.616 222.194 439.735 222.686C440.686 225.024 442.44 226.945 444.681 228.105L445.362 226.133C442.283 224.058 441.764 222.974 441.764 222.674C441.739 222.526 441.751 222.373 441.8 222.23C441.848 222.087 441.931 221.959 442.041 221.856C443.701 220.034 443.736 215.618 443.586 213.036C444.968 214.225 446.224 215.554 447.333 217.002C447.432 217.409 447.509 217.82 447.564 218.235C447.794 219.85 448.21 222.559 450.423 223.424C451.692 223.862 453.778 226.791 456.096 231.137L457.687 230.215C454.816 224.784 452.556 221.798 450.55 221.003ZM446.33 203.708C448.117 202.959 450.711 204.158 454.044 207.167C456.995 209.888 456.926 210.799 456.949 210.81C456.499 212.09 450.308 211.594 443.436 209.761C443.724 207.985 444.301 204.63 446.33 203.696V203.708ZM430.304 225.937C430.177 225.937 429.082 225.176 428.793 219.527C428.505 213.381 429.508 209.634 431.849 208.401L432.022 208.308C434.916 206.902 439.309 209.542 441.153 210.856C437.395 219.066 432.264 226.871 430.304 225.937Z" fill="#066FD1"/>
    <path d="M562.781 279.424C563.763 280.232 564.864 280.886 566.044 281.361C570.195 283.194 574.495 282.514 576.663 279.435C579.441 275.423 577.62 269.059 572.581 265.185C572.048 264.75 571.477 264.364 570.875 264.032C566.263 261.287 561.109 261.726 558.711 265.185C556.036 269.047 557.812 275.481 562.781 279.424Z" fill="#FFCB9D"/>
    <path d="M562.781 279.424C563.764 280.232 564.864 280.886 566.044 281.361L566.713 280.116C569.491 274.547 568.546 271.191 570.645 264.769C570.76 264.504 570.829 264.239 570.967 263.951C566.355 261.218 561.213 261.645 558.815 265.104C556.036 269.047 557.812 275.481 562.781 279.424Z" fill="black" opacity="0.1"/>
    <path d="M587.305 234.907C586.973 241.57 584.553 247.96 580.387 253.171C576.433 258.128 572.904 259.466 567.958 263.951L566.932 264.896C561.558 270.155 557.355 276.488 554.595 283.482C544.622 276.207 533.945 268.978 522.519 261.922L520.594 260.769C517.443 258.855 514.314 256.995 511.209 255.188C494.374 243.407 479.835 228.649 468.307 211.64C471.166 208.151 474.064 204.665 477 201.183C479.041 203.247 481.151 205.218 483.318 207.121C491.121 213.979 499.755 219.828 509.018 224.531C516.549 228.443 524.507 231.468 532.735 233.547C542.124 235.533 551.677 236.645 561.271 236.868C566.716 236.985 572.164 236.785 577.586 236.268C581.471 235.853 584.849 235.323 587.305 234.907Z" fill="#DADBE0"/>
    <path d="M425.059 383.318L422.314 376.931C422.314 376.931 420.631 370.416 416.388 370.071C412.145 369.725 403.071 383.445 401.884 391.032L414.566 382.361L418.025 387.042L425.059 383.318Z" fill="#454C5E"/>
    <path d="M449.409 469.249L448.671 460.821C448.671 460.821 449.213 452.67 444.451 450.663C439.689 448.657 423.974 461.04 419.72 469.33L437.648 464.142L439.862 470.863L449.409 469.249Z" fill="#454C5E"/>
    <path d="M423.917 188.062C434.293 188.996 445.685 185.848 450.354 182.562C451.168 182.077 451.843 181.39 452.314 180.568C452.833 179.53 453.248 178.458 453.686 177.328C454.286 175.757 454.806 174.156 455.243 172.532C456.471 168.351 457.312 164.067 457.756 159.734C457.756 159.388 457.86 158.315 457.987 157.093C458.333 151.582 458.471 147.166 458.494 143.972C458.252 144.445 456.995 146.544 455.842 146.382C454.689 146.221 453.537 143.419 453.744 139.464L430.385 139.822L420.827 148.481C420.827 148.481 420.561 149.818 419.985 151.939C419.018 155.533 417.801 159.054 416.342 162.478C415.386 165.112 413.947 167.544 412.099 169.649C406.876 174.941 411.545 186.967 423.917 188.062Z" fill="#FFCB9D"/>
    <path d="M416.354 162.478C425.306 165.487 435.005 165.43 443.921 162.316C446.212 162.605 448.381 163.514 450.193 164.945C452.868 167.136 452.834 169.199 455.013 172.186L455.232 172.428C456.462 168.286 457.311 164.041 457.768 159.745C457.768 159.399 457.872 158.327 457.999 157.105C458.345 151.594 458.483 147.178 458.506 143.984C458.264 144.457 457.007 146.555 455.854 146.394C454.701 146.232 453.548 143.43 453.756 139.476L430.397 139.833L420.839 148.492C420.839 148.492 420.573 149.829 419.997 151.951C419.03 155.541 417.812 159.058 416.354 162.478Z" fill="black" opacity="0.1"/>
    <path d="M577.158 227.044C569.779 231.794 546.178 245.699 514.76 243.094C496.27 241.444 478.585 234.761 463.625 223.77C462.818 223.159 462.38 222.79 462.149 222.617C450.758 212.943 445.777 195.383 449.271 182.124C449.409 181.605 449.536 181.11 449.651 180.648C451.138 174.884 451.657 171.99 452.626 166.617C453.02 164.25 453.082 161.84 452.81 159.457C452.753 158.938 452.637 158.385 452.534 157.854C452.153 156.009 449.282 153.807 448.141 150.856C443.656 153.496 427.387 162.086 416.411 154.845C413.901 153.219 411.833 150.997 410.392 148.377C409.719 147.111 409.431 145.677 409.562 144.249C410.162 138.346 418.555 135.198 422.107 133.872C435.689 128.776 449.086 135.025 452.591 136.674C458.818 139.706 464.34 144.008 468.802 149.305C473.264 154.601 476.567 160.773 478.499 167.424C480.528 174.884 479.202 178.377 482.799 182.182C487.918 187.601 496.877 187.151 509.398 185.399C525.62 183.11 541.64 179.572 557.316 174.814C551.885 186.079 552.808 192.374 554.768 196.064C556.728 199.753 559.749 200.918 560.717 205.507C561.87 211.122 558.319 213.843 559.253 217.705C559.45 218.5 559.803 219.249 560.291 219.907C562.228 222.525 566.862 225.199 577.158 227.044Z" fill="#454C5E"/>
    <path d="M410.404 148.342C411.845 150.963 413.913 153.185 416.423 154.81C427.445 162.051 443.668 153.461 448.153 150.821C449.668 149.359 451.028 147.744 452.211 146.002C445.963 149.778 438.884 151.962 431.595 152.364C424.306 152.766 417.03 151.373 410.404 148.308V148.342Z" fill="black" opacity="0.5"/>
    <path d="M577.159 227.044C569.78 231.794 546.178 245.699 514.76 243.094C496.27 241.444 478.585 234.761 463.625 223.77C462.818 223.159 462.38 222.79 462.15 222.617C450.758 212.943 445.777 195.384 449.271 182.124C449.409 181.605 449.536 181.11 449.651 180.649C459.175 204.861 473.795 214.604 479.375 217.843C507.15 233.985 543.942 224.531 560.291 219.942C562.228 222.525 566.863 225.199 577.159 227.044Z" fill="black" opacity="0.5"/>
    <path d="M567.992 263.951L566.966 264.896C561.593 270.155 557.389 276.488 554.629 283.482C544.656 276.207 533.98 268.978 522.554 261.922C537.492 265.036 552.836 265.721 567.992 263.951Z" fill="black" opacity="0.1"/>
    <path d="M416.664 235.08C401.56 254.081 386.468 273.325 371.387 292.81C365.761 300.066 360.161 307.318 354.588 314.566C352.428 307.649 350.261 300.761 348.085 293.905L345.238 285.731C343.623 281.119 342.002 276.484 340.372 271.826C352.501 271.826 370.488 271.561 374.961 270.131C381.879 267.94 389.224 259.166 395.819 249.285C402.414 239.404 416.226 235.207 416.664 235.08Z" fill="black" opacity="0.1"/>
</svg>
