<svg xmlns="http://www.w3.org/2000/svg" width="800" height="600" fill="none" viewBox="0 0 800 600">
    <path d="M132.496 300.059C132.496 347.038 182.184 381.184 204.202 419.097C226.926 458.306 232.342 518.119 271.551 540.844C309.582 562.861 363.626 538.253 410.605 538.253C457.585 538.253 511.629 562.861 549.66 540.844C588.868 518.119 594.284 458.306 617.009 419.097C639.027 381.184 688.714 347.038 688.714 300.059C688.714 253.079 639.027 218.816 617.009 180.903C594.402 141.694 588.868 81.881 549.66 59.1566C511.747 37.1386 457.585 61.7469 410.605 61.7469C363.626 61.7469 309.464 37.1386 271.551 59.1566C232.342 81.7632 226.926 141.694 204.202 180.903C182.301 218.816 132.496 252.962 132.496 300.059Z" fill="black" opacity="0.07"/>
    <path d="M100 478.086C100 481.854 234.227 484.798 400.009 484.798C565.792 484.798 700.019 481.736 700.019 478.086C700.019 474.436 565.792 471.375 400.009 471.375C234.227 471.375 100 474.554 100 478.086Z" fill="#1D2535" opacity="0.5"/>
    <path d="M505.625 255.552C505.272 256.494 503.741 259.791 501.504 264.383C501.504 264.383 501.033 265.325 500.326 266.62C500.326 266.62 499.149 268.975 497.854 271.33C479.604 305.004 458.999 317.014 458.999 317.014C453.818 319.957 445.576 323.961 437.805 321.724C435.45 321.135 433.331 319.84 431.682 317.956C428.739 313.953 430.034 308.536 430.269 307.948C432.977 298.057 449.108 301.472 466.887 287.814C473.599 282.751 479.133 276.275 483.254 268.975C485.962 263.912 488.081 258.731 489.612 253.197C489.847 252.491 490.083 251.784 490.201 250.96L493.968 252.137L500.326 254.021L505.625 255.552Z" fill="#FFCB9D"/>
    <path d="M500.091 250.725L500.444 254.021L501.504 264.383C500.444 266.502 499.266 268.857 497.854 271.33L483.371 268.857C486.079 263.794 488.199 258.613 489.729 253.079L494.086 252.02L500.091 250.725Z" fill="black" opacity="0.1"/>
    <path d="M436.51 320.428C435.332 320.428 434.39 319.486 434.273 318.309C434.155 315.13 432.271 240.716 457.939 211.869C458.763 210.927 460.176 210.927 461 211.634C461.824 212.34 461.942 213.871 461.236 214.695C436.745 242.247 438.629 317.249 438.747 318.073C438.747 319.369 437.805 320.311 436.51 320.428Z" fill="#454C5E"/>
    <path d="M479.014 192.324C477.954 194.208 476.777 195.974 475.246 197.505C471.478 201.273 467.122 204.569 462.412 207.042C462.648 201.744 463.707 196.563 465.591 191.618C466.415 189.498 467.475 187.614 468.77 185.848C474.657 178.313 478.778 181.492 478.778 181.492C478.778 181.492 483.37 183.729 479.014 192.324Z" fill="#066FD1"/>
    <path d="M498.325 220.347C498.325 220.347 497.383 226.587 485.726 225.056C483.489 224.703 481.252 224.114 479.132 223.29C469.831 219.522 461.824 211.869 461.824 211.869C468.065 209.985 474.658 209.161 481.252 209.279C483.96 209.397 486.55 209.75 489.141 210.574C500.326 214.342 498.325 220.347 498.325 220.347Z" fill="#066FD1"/>
    <path d="M467.711 239.068C467.829 247.31 463.473 247.428 463.473 247.428C463.473 247.428 459.116 248.37 457.468 240.245C457.114 238.715 456.997 237.184 457.114 235.653C457.468 230.708 458.645 225.998 460.529 221.406C463.355 225.292 465.592 229.649 467.005 234.24C467.358 235.889 467.594 237.42 467.711 239.068Z" fill="#066FD1"/>
    <path d="M454.524 211.752C454.524 211.752 446.753 219.052 438.04 221.878C436.627 222.349 435.214 222.702 433.683 222.937C423.557 224.232 422.851 218.698 422.851 218.698C422.851 218.698 421.203 213.518 430.975 210.339C432.859 209.75 434.743 209.397 436.745 209.279C445.34 208.69 454.524 211.752 454.524 211.752Z" fill="#066FD1"/>
    <path d="M458.055 209.632C452.05 206.689 446.516 203.039 441.689 198.447C439.57 196.445 437.686 194.09 436.155 191.5C430.15 180.667 435.92 177.488 435.92 177.488C435.92 177.488 440.983 173.25 448.989 182.669C450.991 185.259 452.639 188.085 453.817 191.147C456.054 197.152 457.584 203.392 458.055 209.632Z" fill="#066FD1"/>
    <path d="M454.524 211.752C454.524 211.752 446.753 219.052 438.04 221.878C437.451 220.582 437.098 219.169 436.745 217.757C436.156 214.931 436.039 212.105 436.627 209.279C445.34 208.69 454.524 211.752 454.524 211.752Z" fill="black" opacity="0.1"/>
    <path d="M441.691 198.564C444.87 194.914 449.109 192.324 453.819 191.264C456.056 197.151 457.587 203.392 458.058 209.75C452.053 206.806 446.637 203.038 441.691 198.564Z" fill="black" opacity="0.1"/>
    <path d="M460.413 221.406C463.238 225.292 465.476 229.649 466.888 234.241C465.829 234.711 464.651 235.065 463.474 235.3C461.355 235.771 459.117 235.889 456.998 235.771C457.351 230.826 458.529 225.998 460.413 221.406Z" fill="black" opacity="0.1"/>
    <path d="M475.246 197.505C471.478 201.272 467.122 204.569 462.412 207.042C462.648 201.743 463.707 196.563 465.591 191.617C469.241 192.795 472.538 194.796 475.246 197.505Z" fill="black" opacity="0.1"/>
    <path d="M481.135 209.279C481.959 214.106 481.252 218.934 479.015 223.29C469.714 219.522 461.707 211.869 461.707 211.869C468.065 209.985 474.541 209.161 481.135 209.279Z" fill="black" opacity="0.1"/>
    <path d="M468.889 219.523C465.356 225.056 458.056 226.705 452.522 223.173C451.698 222.702 450.992 222.113 450.403 221.406C445.811 216.697 445.929 209.161 450.638 204.569C455.348 199.977 462.884 200.095 467.476 204.805C471.243 208.808 471.832 214.931 468.889 219.523Z" fill="#DADBE0"/>
    <path d="M468.888 219.523C465.356 225.057 458.056 226.705 452.522 223.173C451.698 222.702 450.991 222.113 450.402 221.406C451.462 212.811 459.351 206.806 467.946 207.866C468.535 207.984 469.241 208.102 469.83 208.219C471.361 211.869 471.125 216.226 468.888 219.523Z" fill="black" opacity="0.1"/>
    <path d="M527.996 393.9L543.42 407.441L546.364 410.149L575.8 436.052L578.037 433.933L557.432 401.436L547.541 385.894L527.996 393.9Z" fill="#FFCB9D"/>
    <path d="M584.63 463.957C580.744 457.364 578.743 440.644 582.275 438.171C585.807 435.699 591.341 439.467 591.341 439.467L597.582 442.528L594.52 450.063L588.751 448.768L584.63 463.957Z" fill="#454C5E"/>
    <path d="M527.996 393.9L556.019 418.508L569.206 419.215L547.659 385.776L527.996 393.9Z" fill="black" opacity="0.1"/>
    <path d="M535.768 182.434C527.762 193.384 516.105 201.037 502.918 203.981L544.246 213.871L535.768 182.434Z" fill="#454C5E"/>
    <path d="M503.387 392.252L505.153 415.329L508.332 452.301H511.158L518.458 416.625L521.872 399.552L503.387 392.252Z" fill="#FFCB9D"/>
    <path d="M503.387 392.252L505.388 415.212C509.627 415.8 513.866 416.271 518.576 416.625L522.108 399.67L503.387 392.252Z" fill="black" opacity="0.1"/>
    <path d="M583.806 171.248C583.1 174.78 582.158 179.843 580.745 186.319C580.509 187.732 580.039 188.909 580.039 189.263C578.743 194.208 576.977 199.035 574.74 203.745L572.621 207.984L572.032 208.808C571.443 209.75 570.855 210.81 570.266 211.634C570.148 211.752 570.03 212.105 569.795 212.223C569.088 213.047 568.146 213.753 567.087 214.224C563.437 216.108 556.608 217.286 549.072 217.286C544.48 217.286 539.888 216.697 535.532 215.755C524.581 213.047 520.225 203.745 522.109 197.151C522.58 195.15 523.757 193.501 525.406 192.324C527.878 190.205 529.998 187.732 531.646 184.788C533.883 181.021 535.885 177.135 537.651 173.132C538.593 170.895 539.182 169.364 539.182 169.364L551.898 161.122L578.979 164.89C578.037 169.482 578.861 172.779 580.156 173.25C581.451 173.721 583.335 171.719 583.806 171.248Z" fill="#FFCB9D"/>
    <path d="M531.646 184.789C541.419 189.852 552.605 191.618 563.555 189.616C566.145 190.44 568.5 191.853 570.384 193.855C573.092 196.798 572.621 199.271 574.623 203.039L574.74 203.51C576.86 198.8 578.626 193.973 580.039 189.027C580.039 188.556 580.51 187.497 580.745 186.084C582.158 179.843 583.1 174.663 583.807 171.013C583.336 171.484 581.57 173.721 580.274 173.25C578.979 172.779 578.155 169.482 579.097 164.89L552.016 160.887L539.3 169.129C539.3 169.129 538.711 170.659 537.769 172.897C535.885 177.135 533.884 181.139 531.646 184.789Z" fill="black" opacity="0.1"/>
    <path d="M504.212 266.855C505.625 267.444 504.33 273.802 501.622 288.756C500.68 294.407 499.738 299.117 499.267 302.178L498.914 303.591C497.383 312.069 495.853 320.546 494.204 329.259L580.274 330.908C580.274 328.906 580.274 326.904 580.157 325.021V324.785C580.981 303.003 580.745 281.102 579.215 259.32C579.097 257.789 578.979 256.023 578.744 254.492C580.157 257.907 581.57 261.204 582.983 264.501L600.291 254.257C599.702 251.549 597.465 243.307 591.107 237.655C591.107 237.655 585.455 232.71 578.979 231.768C578.391 231.768 577.802 231.65 577.331 231.533H577.095C573.445 230.944 569.913 230.591 566.499 230.237C558.374 229.531 550.132 229.413 542.008 229.766C534.119 230.237 526.348 231.297 518.813 233.181C516.811 233.652 514.809 234.123 513.043 234.712L511.513 235.3L510.924 235.418L509.982 235.889C497.972 239.068 488.317 248.134 484.432 260.026C486.904 261.086 489.612 262.263 492.438 263.676C495.97 265.443 499.15 267.326 502.093 269.093C503.035 266.973 503.741 266.738 504.212 266.855Z" fill="#066FD1"/>
    <path d="M568.498 234.24C568.498 243.307 557.548 250.724 544.008 250.724C530.467 250.724 519.635 243.307 519.635 234.24C519.635 233.769 519.635 233.299 519.753 232.828C527.406 231.061 535.177 229.884 542.948 229.413C551.072 228.942 559.314 229.178 567.438 229.884C568.145 231.179 568.498 232.71 568.498 234.24Z" fill="#DADBE0"/>
    <path d="M493.143 478.204C496.204 471.14 508.92 459.601 513.159 461.131C517.398 462.662 517.398 469.373 517.398 469.373L518.575 476.438L510.451 478.322L508.214 472.788L493.143 478.204Z" fill="#454C5E"/>
    <path d="M489.848 399.552H578.273L579.803 350.217L580.392 330.554L494.44 329.024L490.672 386.129L489.848 399.552Z" fill="#DADBE0"/>
    <path d="M510.569 235.418L511.158 235.3C513.513 245.897 527.289 254.021 544.008 254.021C562.376 254.021 577.33 244.249 577.33 232.121V231.532C577.918 231.65 578.507 231.65 578.978 231.768V232.003C578.978 245.191 563.318 255.905 544.008 255.905C526.582 255.905 512.1 247.075 509.51 235.771L510.569 235.418Z" fill="#DADBE0"/>
    <path d="M538.004 263.441C538.239 264.972 539.652 265.913 541.065 265.678C542.596 265.442 543.537 264.03 543.302 262.617C543.067 261.204 541.654 260.144 540.241 260.38C538.828 260.615 537.768 261.91 538.004 263.441Z" fill="#DADBE0"/>
    <path d="M494.439 329.024L580.51 330.672C580.51 328.67 580.51 326.669 580.392 324.785V324.667C534.237 326.904 507.038 309.949 499.149 303.473C497.619 311.951 495.97 320.428 494.439 329.024Z" fill="black" opacity="0.1"/>
    <path d="M543.067 229.413C551.191 228.942 559.433 229.178 567.558 229.884C568.146 231.297 568.499 232.71 568.499 234.24C568.499 243.307 557.549 250.724 544.127 250.724C530.704 250.724 519.754 243.307 519.754 234.24C519.754 233.769 519.754 233.299 519.872 232.828C527.643 231.061 535.296 230.002 543.067 229.413Z" fill="#FFCB9D"/>
    <path d="M570.265 211.634C570.147 211.752 570.03 212.105 569.794 212.223C569.088 213.047 568.146 213.753 567.086 214.224C563.436 216.108 556.607 217.285 549.071 217.285C547.894 215.99 547.188 214.224 547.188 212.458C547.188 207.513 552.25 203.51 558.609 203.51C564.849 203.627 569.794 207.042 570.265 211.634Z" fill="black" opacity="0.1"/>
    <path d="M597.818 255.67V259.673C597.347 282.28 589.576 298.057 579.803 299.941C570.031 301.825 560.14 289.462 556.019 284.164C548.601 275.097 543.538 264.383 541.301 252.844V252.608C538.946 240.716 537.769 222.466 542.714 212.929C543.774 210.692 545.54 208.808 547.777 207.748C551.192 206.335 555.077 206.689 558.139 208.69C562.613 212.105 562.377 219.758 562.26 222.702C561.671 247.192 574.269 278.63 580.392 278.63C581.569 278.63 583.218 277.452 585.102 271.683L586.044 266.149L586.632 262.499L597.818 255.67Z" fill="#FFCB9D"/>
    <path d="M599.584 201.743C599.702 209.161 598.171 216.579 595.11 223.29L580.392 220.229L562.142 216.461C566.145 209.985 569.677 203.274 572.739 196.327C573.445 194.679 573.916 193.03 574.151 191.264C574.269 190.205 574.387 189.145 574.387 188.203V186.319C574.387 183.375 570.737 177.724 570.619 177.371C569.206 177.842 567.911 178.312 566.734 178.666C565.556 179.019 564.261 179.372 563.084 179.608C562.259 179.725 561.553 179.961 560.846 180.079C560.14 180.196 559.198 180.314 558.256 180.432C556.608 180.667 555.077 180.785 553.429 180.785C547.542 180.903 539.653 181.138 533.412 176.193C531.882 175.016 528.467 172.19 527.643 167.598C527.29 165.949 527.407 164.301 527.761 162.653C529.762 155.706 541.419 153.469 544.009 152.998C560.964 149.819 575.211 159.356 577.684 161.122L578.743 161.828C585.455 167.009 590.989 173.603 594.757 181.256C596.287 184.2 597.465 187.261 598.289 190.44C598.289 190.911 598.407 191.264 598.524 191.735C599.113 194.208 599.466 196.68 599.702 199.153C599.584 199.859 599.702 200.801 599.584 201.743Z" fill="#454C5E"/>
    <path d="M576.153 172.425C574.504 174.192 572.62 175.84 570.619 177.253C569.206 177.724 567.911 178.195 566.733 178.548C565.556 178.901 564.261 179.255 563.083 179.49C562.259 179.608 561.553 179.843 560.846 179.961C560.14 180.079 559.198 180.196 558.256 180.314C556.843 180.432 555.194 180.55 553.428 180.667C547.541 180.785 539.652 181.021 533.412 176.075C531.881 174.898 528.467 172.072 527.643 167.48C533.177 171.13 539.299 173.721 545.775 175.134C555.783 177.135 566.38 176.193 576.153 172.425Z" fill="black" opacity="0.5"/>
    <path d="M580.273 220.229L594.991 223.29C598.053 216.579 599.701 209.161 599.466 201.743C599.466 200.802 599.466 199.86 599.348 198.918L598.17 191.618C598.053 191.147 598.053 190.793 597.935 190.322C597.111 187.143 595.933 184.082 594.403 181.138C593.814 190.793 592.048 204.098 586.749 211.869C584.63 214.695 582.511 217.521 580.273 220.229Z" fill="black" opacity="0.5"/>
    <path d="M597.817 255.67V259.673L586.043 266.031L586.632 262.381L597.817 255.67Z" fill="black" opacity="0.1"/>
    <path d="M295.218 457.952H285.327L250.946 339.032L251.888 339.974L234.698 353.396L215.388 368.585L150.158 341.269L157.694 334.087L208.794 340.445L235.286 287.696L292.274 312.893C292.274 314.07 292.274 315.248 292.392 316.425C293.334 363.64 294.276 410.737 295.218 457.952Z" fill="#DADBE0"/>
    <path d="M295.219 457.952H285.329C274.025 418.744 262.604 379.653 251.301 340.445L286.624 312.187L292.275 316.543C293.217 363.64 294.277 410.738 295.219 457.952Z" fill="black" opacity="0.1"/>
    <path d="M308.759 476.438L282.385 478.911C282.385 478.911 279.912 472.435 283.562 469.138C287.212 465.841 303.225 471.139 308.759 476.438Z" fill="#454C5E"/>
    <path d="M120.252 342.447L139.797 324.55C139.797 324.55 145.684 328.2 144.743 333.027C143.801 337.855 127.905 343.271 120.252 342.447Z" fill="#454C5E"/>
    <path d="M430.975 267.209C432.388 266.973 433.684 266.973 435.096 267.209C435.921 267.326 436.627 267.444 437.451 267.68C444.516 269.563 448.99 275.451 447.459 280.867C446.164 285.694 440.513 288.52 434.39 287.696C433.684 287.578 432.859 287.46 432.153 287.225C431.446 286.989 430.74 286.754 430.034 286.518C424.264 284.164 420.732 278.865 422.027 274.038C423.087 270.27 426.619 267.797 430.975 267.209Z" fill="#FFCB9D"/>
    <path d="M430.975 267.209C432.388 266.973 433.684 266.973 435.096 267.209C434.272 274.038 434.037 280.867 434.39 287.696C433.684 287.578 432.859 287.46 432.153 287.225C431.446 286.989 430.74 286.754 430.034 286.518C424.264 284.164 420.732 278.865 422.027 274.038C423.087 270.27 426.619 267.797 430.975 267.209Z" fill="black" opacity="0.1"/>
    <path d="M408.252 307.594C421.439 295.349 430.623 279.454 434.744 261.91C411.077 255.434 388.706 245.073 368.337 231.415C364.098 228.589 361.508 226.587 358.682 224.585C342.316 212.811 316.883 196.327 278.381 177.135L265.194 209.632L256.481 230.944C253.537 238.244 250.594 245.544 247.65 252.844C242.469 265.678 237.171 278.63 231.99 291.581L276.85 315.13L294.63 324.432L298.986 317.72C303.46 310.891 307.817 303.944 312.291 297.115C313.939 294.525 315.588 292.052 317.236 289.462C321.946 282.162 325.243 276.981 329.364 270.387L341.138 251.784C359.271 274.979 382.113 293.936 408.252 307.594Z" fill="#066FD1"/>
    <path d="M352.558 194.796C348.555 194.679 344.552 194.09 340.666 193.03C329.481 190.087 319.708 184.553 318.53 180.785C318.059 179.254 317.824 177.959 317.353 176.429C315.705 169.011 314.998 161.475 315.234 153.94C315.234 153.469 315.351 152.174 315.351 150.643C315.822 143.814 316.411 138.162 316.764 134.394C316.764 134.512 316.764 134.63 316.882 134.748C317.235 135.807 318.177 137.927 319.59 137.927C319.943 137.927 320.297 137.691 320.65 137.456C321.945 136.396 323.122 133.57 323.476 129.685H323.593L352.323 133.923L362.802 146.169C362.92 147.582 363.037 149.112 363.273 150.525C363.744 155.117 364.568 159.709 365.863 164.301C365.863 164.301 365.863 164.301 365.863 164.419C366.687 167.833 368.1 171.012 370.102 173.956C371.162 175.369 371.868 177.017 371.868 178.901C372.574 186.201 365.157 195.267 352.558 194.796Z" fill="#FFCB9D"/>
    <path d="M365.982 164.183C354.443 166.421 342.551 164.772 332.072 159.474C331.719 160.887 331.248 162.3 330.777 163.712C330.071 165.95 329.129 168.069 327.834 169.953C326.538 171.719 324.89 173.25 323.006 174.309C321.24 175.369 319.356 176.075 317.472 176.429C315.824 169.011 315.117 161.475 315.353 153.94C315.353 153.469 315.47 152.174 315.47 150.643C315.941 143.814 316.53 138.162 316.883 134.394L317.001 134.63C317.354 135.572 318.532 137.691 319.945 137.573C320.298 137.573 320.533 137.456 320.769 137.22C322.064 136.278 323.359 133.452 323.713 129.449L352.442 133.688L362.921 145.933C363.039 147.346 363.156 148.877 363.392 150.29C363.863 155.117 364.687 159.709 365.982 164.183Z" fill="black" opacity="0.1"/>
    <path d="M312.408 140.046C311.702 146.051 313.233 152.173 316.765 157.119C317.589 158.061 318.296 158.885 318.884 159.827C320.533 162.535 321.475 165.714 321.592 168.893C323.241 167.48 324.301 165.714 324.772 163.595C325.36 160.533 324.889 154.293 325.007 153.586L325.125 153.115C325.125 152.644 325.125 152.173 325.125 151.703C325.242 150.172 325.478 148.523 325.831 146.993V146.875C332.543 152.527 351.852 166.42 367.394 157.825C369.749 156.412 371.986 154.764 373.988 152.88C374.224 152.762 374.459 152.527 374.577 152.291C375.048 151.82 375.519 151.349 375.872 150.761L376.108 150.643C377.285 149.23 378.109 147.699 378.698 145.933L378.933 145.344C379.169 144.638 379.287 143.814 379.287 142.99C379.287 139.928 378.345 136.985 376.343 134.63C372.928 129.92 367.277 126.741 364.215 124.975C352.559 118.146 334.191 114.378 321.946 123.915C316.883 128.036 313.586 133.806 312.408 140.046Z" fill="#454C5E"/>
    <path d="M325.831 146.875C332.542 152.527 351.852 166.421 367.394 157.825C369.749 156.412 371.986 154.764 373.988 152.88C374.223 152.762 374.459 152.527 374.576 152.291C375.047 151.82 375.518 151.349 375.872 150.761C375.872 150.643 375.989 150.643 376.107 150.643C377.285 149.23 378.109 147.699 378.697 145.933C374.93 148.641 370.691 150.643 366.334 152.056C344.316 158.767 324.536 143.461 321.357 141.106L321.121 140.87C322.534 142.872 324.182 144.874 325.831 146.875Z" fill="black" opacity="0.5"/>
    <path d="M311.938 192.677C313.586 198.093 316.765 202.921 321.239 206.453L321.828 206.924L337.135 207.748L311.938 192.677Z" fill="#FFCB9D"/>
    <path d="M311.938 192.677C313.586 198.093 316.765 202.921 321.239 206.453L321.828 206.924L337.135 207.748L311.938 192.677Z" fill="black" opacity="0.1"/>
    <path d="M321.945 207.042L342.904 204.098L344.552 209.632L325.949 219.64L321.945 207.042Z" fill="#DADBE0"/>
    <path d="M312.173 297.115L305.58 307.477C301.93 313.128 298.28 318.78 294.63 324.549L276.85 315.248L231.99 291.699C237.171 278.747 242.587 265.795 247.65 252.961L256.481 231.061C259.424 223.997 262.25 216.814 265.194 209.75L291.215 204.451C291.215 204.334 270.374 260.262 312.173 297.115Z" fill="black" opacity="0.1"/>
    <path d="M197.727 113.907C197.727 114.143 197.727 114.378 197.727 114.496C197.609 116.262 197.138 118.028 196.314 119.677C196.078 120.03 195.843 120.501 195.49 120.854C195.254 121.207 194.901 121.56 194.548 121.914C193.724 122.738 192.664 123.327 191.604 123.798C187.601 125.21 183.009 123.209 180.065 119.206C179.477 118.499 179.006 117.675 178.652 116.851C178.535 116.497 178.299 116.262 178.181 115.909C178.064 115.556 177.946 115.202 177.828 114.967C177.593 114.26 177.357 113.554 177.24 112.847C176.062 106.843 178.417 101.073 183.127 99.4247C187.836 97.7763 193.488 100.955 196.196 106.725C196.432 107.314 196.667 107.902 196.903 108.491C197.138 109.197 197.374 110.022 197.491 110.728C197.609 111.435 197.727 112.023 197.727 112.73V112.847C197.727 113.083 197.727 113.318 197.727 113.436C197.727 113.554 197.727 113.672 197.727 113.907Z" fill="#FFCB9D"/>
    <path d="M197.726 113.907C197.726 114.143 197.726 114.378 197.726 114.496C197.608 116.851 196.901 119.088 195.488 120.854C195.253 121.207 194.9 121.56 194.547 121.914C193.722 122.738 192.663 123.327 191.603 123.68C187.6 125.093 183.008 123.091 180.064 119.088C179.475 118.381 179.004 117.557 178.651 116.733C178.533 116.38 178.298 116.144 178.18 115.791C178.062 115.438 177.945 115.085 177.827 114.731C177.592 114.025 177.356 113.318 177.238 112.612C184.185 113.789 191.25 111.552 196.195 106.489C196.43 107.078 196.666 107.667 196.901 108.255C197.137 108.962 197.372 109.786 197.49 110.493C197.608 111.199 197.726 111.788 197.726 112.494V112.612C197.726 113.201 197.726 113.554 197.726 113.907Z" fill="black" opacity="0.1"/>
    <path d="M290.272 204.687C290.272 205.629 290.037 206.571 289.684 207.513C284.974 217.521 254.949 215.755 231.754 206.689C228.339 205.276 224.925 203.745 221.628 202.097C213.622 197.858 194.076 187.497 182.184 166.774C179.005 160.887 176.179 154.882 173.942 148.524C171.469 142.048 169.35 135.454 167.584 128.743L204.084 107.313C204.32 112.612 206.086 143.696 227.751 162.064C235.169 168.304 240.467 172.779 248.356 173.603C255.538 174.309 262.956 171.954 274.024 175.487C275.437 175.958 276.967 176.546 278.262 177.135L290.272 204.687Z" fill="#066FD1"/>
    <path d="M321.239 206.689L305.697 179.843L297.926 182.08L302.871 210.692L321.239 206.689Z" fill="#DADBE0"/>
    <path d="M306.285 216.108C299.691 238.361 293.215 260.615 286.504 282.868C298.396 263.205 310.523 243.66 322.416 224.232C322.18 218.345 321.827 212.693 321.591 206.806L320.885 206.571C316.175 209.868 311.23 213.047 306.285 216.108Z" fill="#DADBE0"/>
    <path d="M321.828 206.924L286.74 282.868C298.632 263.205 310.76 243.66 322.77 224.35C322.299 218.463 322.181 212.693 321.828 206.924Z" fill="black" opacity="0.11"/>
    <path d="M321.945 207.042L342.904 204.098L344.552 209.632L325.949 219.64L321.945 207.042Z" fill="black" opacity="0.11"/>
    <path d="M580.392 330.554L579.803 350.217L578.273 399.552H489.848L490.672 387.189C521.285 383.185 530.469 374.59 532.471 366.819C533.295 364.229 533.413 360.343 535.767 358.93C542.361 355.28 555.195 376.474 557.197 374.943C558.492 373.884 553.664 361.756 537.534 329.73L580.392 330.554Z" fill="black" opacity="0.1"/>
</svg>
