<svg xmlns="http://www.w3.org/2000/svg" width="800" height="600" fill="none" viewBox="0 0 800 600">
    <path d="M126.596 299.992C126.596 347.037 176.332 381.149 198.302 419.133C220.926 458.31 226.419 518.214 265.609 540.875C303.605 562.833 357.664 538.261 404.709 538.261C451.755 538.261 505.814 562.833 543.785 540.875C582.962 518.251 588.417 458.31 611.091 419.133C633.062 381.149 682.86 347.037 682.86 299.992C682.86 252.946 633.125 218.847 611.154 180.876C588.53 141.686 583.025 81.7948 543.848 59.133C505.877 37.1624 451.793 61.7347 404.772 61.7347C357.752 61.7347 303.605 37.1624 265.571 59.133C226.381 81.7571 220.939 141.686 198.264 180.876C176.294 218.847 126.559 252.971 126.559 299.992" fill="black" opacity="0.07"/>
    <path d="M462.565 369.31C463.996 369.485 465.399 369.844 466.738 370.378C467.511 370.664 468.259 371.013 468.975 371.422C475.611 375.192 478.628 382.357 475.737 387.485C473.148 392.072 466.712 393.468 460.654 391.042C459.921 390.745 459.207 390.4 458.518 390.011C457.853 389.637 457.214 389.217 456.607 388.754C451.341 384.82 449.179 378.548 451.768 373.948C453.716 370.378 457.952 368.744 462.565 369.31Z" fill="#FFCB9D"/>
    <path d="M462.565 369.31C463.996 369.485 465.398 369.844 466.737 370.378C464.17 377.098 462.127 384.006 460.629 391.042C459.895 390.745 459.182 390.4 458.492 390.011C457.827 389.637 457.189 389.217 456.582 388.754C451.315 384.82 449.153 378.548 451.743 373.948C453.716 370.378 457.952 368.744 462.565 369.31Z" fill="black" opacity="0.1"/>
    <path d="M430.564 343.129C423.175 334.914 418.032 324.931 415.632 314.145C413.231 302.67 416.487 300.671 415.041 273.723C414.476 263.216 413.37 251.954 406.909 249.264C406.203 248.973 405.457 248.791 404.697 248.724L285.393 217.553C282.979 232.778 280.562 247.995 278.14 263.203C276.557 273.208 274.969 283.217 273.377 293.23C271.755 303.575 270.172 313.718 268.55 324.062C265.785 342.073 262.768 360.235 259.94 378.448L324.645 395.353L350.223 401.989C351.43 398.638 352.624 395.311 353.805 392.01C357.425 381.892 361.02 371.698 364.652 361.505C365.993 357.734 367.346 353.964 368.712 350.193C371.963 340.816 375.256 331.453 378.591 322.101C378.591 322.378 378.692 322.654 378.73 322.893C380.426 332.156 384.134 343.255 391.877 356.05C400.222 369.876 413.244 385.612 433.492 403.133L446.564 388.981L468.597 365.1C461.559 363.566 444.251 358.777 430.564 343.129Z" fill="#066FD1"/>
    <path d="M399.984 521.859C560.689 521.859 690.967 517.853 690.967 512.91C690.967 507.968 560.689 503.961 399.984 503.961C239.278 503.961 109 507.968 109 512.91C109 517.853 239.278 521.859 399.984 521.859Z" fill="#1D2535" opacity="0.5"/>
    <path d="M512.904 508.436H538.18C540 508.432 541.745 507.709 543.033 506.423C544.321 505.137 545.048 503.393 545.055 501.573V497.362C544.376 495.754 543.71 494.132 543.031 492.511C539.613 484.19 536.433 475.97 533.491 467.851C533.942 470.75 533.737 473.713 532.892 476.522C532.047 479.332 530.583 481.917 528.609 484.087C526.634 486.257 524.198 487.957 521.481 489.062C518.763 490.168 515.832 490.65 512.904 490.475C511.081 490.493 509.337 491.218 508.039 492.498C507.4 493.134 506.894 493.89 506.548 494.723C506.203 495.556 506.027 496.448 506.028 497.35V501.561C506.032 503.383 506.757 505.13 508.046 506.418C509.334 507.707 511.081 508.432 512.904 508.436Z" fill="#DDDDDD"/>
    <path d="M512.904 508.436H538.18C540 508.432 541.745 507.709 543.033 506.423C544.321 505.137 545.048 503.393 545.055 501.573V497.362C544.376 495.754 543.71 494.132 543.031 492.511C539.613 484.19 536.433 475.97 533.491 467.851C533.942 470.75 533.737 473.713 532.892 476.522C532.047 479.332 530.583 481.917 528.609 484.087C526.634 486.257 524.198 487.957 521.481 489.062C518.763 490.168 515.832 490.65 512.904 490.475C511.081 490.493 509.337 491.218 508.039 492.498C507.4 493.134 506.894 493.89 506.548 494.723C506.203 495.556 506.027 496.448 506.028 497.35V501.561C506.032 503.383 506.757 505.13 508.046 506.418C509.334 507.707 511.081 508.432 512.904 508.436Z" fill="black" opacity="0.15"/>
    <path d="M560.489 507.179H586.872C591.196 507.179 594.702 503.673 594.702 499.348V493.34C594.702 489.016 591.196 485.51 586.872 485.51H560.489C556.165 485.51 552.659 489.016 552.659 493.34V499.348C552.659 503.673 556.165 507.179 560.489 507.179Z" fill="#DDDDDD"/>
    <path d="M560.489 507.179H586.872C591.196 507.179 594.702 503.673 594.702 499.348V493.34C594.702 489.016 591.196 485.51 586.872 485.51H560.489C556.165 485.51 552.659 489.016 552.659 493.34V499.348C552.659 503.673 556.165 507.179 560.489 507.179Z" fill="black" opacity="0.15"/>
    <path d="M576.2 474.135C576.514 473.909 590.466 470.691 593.143 460.913C594.614 455.558 590.918 451.725 587.6 443.316C586.105 439.545 580.486 424.689 583.113 412.748C586.193 398.734 600.207 390.552 607.107 387.183C602.721 406.225 606.29 417.173 610.501 423.696C616.546 433.072 624.44 433.877 628.764 445.352C629.819 448.142 634.08 459.467 628.248 469.51C623.397 477.818 614.422 480.244 610.878 481.324C593.105 486.603 578.048 475.543 576.2 474.135Z" fill="#066FD1"/>
    <path d="M608.164 493.479C608.853 486.375 607.441 479.225 604.104 472.916C601.477 468.02 597.757 463.797 593.232 460.573C590.416 461.653 587.446 462.276 584.433 462.421C578.262 462.685 574.114 460.297 570.155 457.682C566.196 455.068 562.136 451.989 556.405 451.498C547.606 450.744 537.111 456.136 534.296 463.439C533.688 465.041 533.435 466.757 533.554 468.466C533.844 473.255 536.445 477.504 534.133 482.694C531.531 488.552 524.618 491.128 519.716 492.36H519.791C517.678 492.482 515.691 493.405 514.236 494.942C512.781 496.479 511.967 498.514 511.961 500.63V505.658C511.968 507.856 512.844 509.962 514.398 511.516C515.952 513.071 518.058 513.947 520.256 513.953H550.761C552.959 513.947 555.066 513.071 556.62 511.516C558.174 509.962 559.05 507.856 559.057 505.658V494.635C562.538 494.71 566.045 494.761 569.59 494.761C568.538 495.479 567.677 496.443 567.082 497.568C566.486 498.694 566.173 499.948 566.171 501.221V507.217C566.174 509.293 567 511.285 568.467 512.754C569.935 514.224 571.924 515.053 574.001 515.06H600.396C602.473 515.053 604.463 514.224 605.93 512.754C607.398 511.285 608.223 509.293 608.226 507.217V493.391L608.164 493.479Z" fill="#DDDDDD"/>
    <path d="M588.882 475.618C588.882 475.618 576.477 481.299 575.547 490.349C575.547 490.349 573.347 475.279 588.882 475.618Z" fill="#A7AAB3"/>
    <path d="M346.967 140.731C345.258 145.445 342.782 152.534 339.954 161.055C339.351 163.066 338.911 164.675 338.697 165.253C336.014 174.865 334.507 184.766 334.21 194.74C334.273 196.789 334.21 198.511 334.273 200.622C334.637 205.725 345.296 215.982 358.719 223.309C363.345 225.892 368.26 227.917 373.362 229.342C389.212 234.068 401.617 224.755 403.339 215.102C403.78 212.792 403.508 210.403 402.56 208.252C401.028 203.89 400.25 199.3 400.26 194.677C400.062 188.498 400.423 182.314 401.341 176.201C401.503 174.269 401.767 172.348 402.133 170.444L392.618 151.427L356.96 136.785C354.886 142.918 351.593 146.526 349.506 146.111C347.42 145.696 347.043 141.661 346.967 140.731Z" fill="#FFCB9D"/>
    <path d="M346.967 140.731C345.258 145.445 342.782 152.534 339.954 161.055C339.351 163.066 338.911 164.675 338.697 165.253C336.014 174.864 334.507 184.766 334.21 194.74C336.838 194.92 339.477 194.631 342.003 193.885C344.745 192.991 347.301 191.602 349.544 189.788C351.83 187.735 353.8 185.354 355.389 182.724C356.473 181.102 357.471 179.423 358.38 177.697C370.125 187.907 384.967 193.862 400.511 194.602C400.307 188.423 400.668 182.238 401.592 176.125C401.747 174.193 402.011 172.271 402.384 170.369L392.869 151.352L357.224 136.659C355.15 142.793 351.869 146.4 349.783 145.985C347.696 145.57 347.043 141.699 346.967 140.769" fill="black" opacity="0.1"/>
    <path d="M339.364 146.613C336.459 154.1 336.499 162.409 339.477 169.866C340.231 171.311 340.797 172.669 341.362 174.026C342.57 178.048 342.756 182.308 341.903 186.419C344.392 185.181 346.408 183.164 347.647 180.675C349.419 176.905 350.701 168.86 351.103 167.905L351.342 167.327C351.571 166.742 351.744 166.135 351.857 165.517C352.456 163.514 353.256 161.577 354.246 159.735L354.321 159.534C361.071 168.861 381.42 192.779 403.956 186.746C407.465 185.764 410.841 184.358 414.011 182.561C414.341 182.44 414.644 182.256 414.903 182.02C415.695 181.576 416.44 181.054 417.128 180.462L417.405 180.349C419.319 178.912 420.962 177.146 422.256 175.132L422.759 174.441C423.348 173.568 423.754 172.585 423.953 171.55C425.009 167.654 424.639 163.509 422.91 159.861C419.969 152.785 413.835 146.877 410.429 143.672C397.747 131.242 375.374 120.445 356.646 128.728C351.935 130.997 347.798 134.301 344.542 138.393C342.445 140.884 340.699 143.65 339.351 146.613" fill="#454C5E"/>
    <path d="M354.321 159.534C361.07 168.86 381.419 192.779 403.955 186.746C407.464 185.763 410.841 184.358 414.011 182.561C414.34 182.44 414.643 182.256 414.903 182.02C415.695 181.576 416.44 181.054 417.128 180.462C417.15 180.41 417.191 180.37 417.243 180.349C417.295 180.327 417.353 180.327 417.404 180.348C419.319 178.912 420.962 177.146 422.256 175.132C416.548 177.363 410.525 178.686 404.408 179.054C374.242 180.6 353.78 154.808 350.5 150.749L350.186 150.409C351.442 153.401 352.875 156.467 354.308 159.534" fill="black" opacity="0.5"/>
    <path d="M333.154 227.457C336.842 233.998 342.473 239.23 349.268 242.427L350.223 242.892L370.069 239.46L333.154 227.457Z" fill="#FFCB9D"/>
    <path d="M333.154 227.457C336.842 233.998 342.473 239.23 349.268 242.427L350.223 242.892L370.069 239.46L333.154 227.457Z" fill="black" opacity="0.1"/>
    <path d="M349.218 242.628L321.239 212.927L311.926 218.03L326.82 253.362L349.218 242.628Z" fill="#DDDDDD"/>
    <path d="M364.652 361.555C361.02 371.748 357.425 381.942 353.805 392.06C344.894 393.317 334.952 394.461 324.632 395.353L259.902 378.448C262.73 360.235 265.747 342.073 268.512 324.062C270.133 313.718 271.717 303.574 273.339 293.23C274.931 283.225 276.519 273.216 278.102 263.203L309.952 248.648C309.952 248.648 299.947 326.651 364.652 361.555Z" fill="black" opacity="0.1"/>
    <path d="M427.447 383.136L396.603 486.943L386.057 486.063C382.387 462.484 378.726 438.908 375.072 415.337L328.567 418.304C330.989 432.088 333.268 446.278 335.405 460.875C337.642 476.309 339.59 491.392 341.249 506.123L231.723 509.818C231.547 506.311 231.384 502.792 231.208 499.285L299.508 478.157C282.628 446.031 276.431 434.932 274.47 432.029C274.181 431.589 272.572 429.226 270.624 425.87C269.744 424.337 268.814 422.653 267.846 420.717C259.915 404.968 259.174 389.458 259.903 378.448C279.46 377.844 299.78 377.652 320.862 377.869C330.582 377.978 340.457 378.2 350.487 378.536C377.322 379.365 403 381.012 427.447 383.136Z" fill="#DDDDDD"/>
    <path d="M213.725 534.843L209.841 499.65C209.841 499.65 218.501 496.42 222.749 501.008C226.997 505.595 220.776 527.302 213.725 534.881" fill="#454C5E"/>
    <path d="M414.714 512.345L379.521 508.398C379.521 508.398 378.264 499.223 383.694 496.093C389.124 492.963 408.857 503.798 414.714 512.345Z" fill="#454C5E"/>
    <path d="M427.447 383.136L396.603 486.943L386.058 486.063C382.387 462.484 378.726 438.909 375.072 415.338L328.567 418.304L320.875 377.87C330.595 377.979 340.47 378.201 350.5 378.536C377.322 379.365 403 381.012 427.447 383.136Z" fill="black" opacity="0.1"/>
    <path d="M341.073 378.247C342.452 378.882 343.741 379.698 344.906 380.672C345.588 381.217 346.227 381.814 346.817 382.457C352.259 388.377 352.938 396.585 348.35 400.795C344.265 404.566 337.34 403.85 332.01 399.438C331.374 398.896 330.769 398.316 330.201 397.703C329.648 397.113 329.139 396.483 328.68 395.818C324.683 390.149 324.544 383.148 328.68 379.378C331.822 376.487 336.598 376.236 341.073 378.247Z" fill="#FFCB9D"/>
    <path d="M341.073 378.247C342.452 378.882 343.741 379.698 344.906 380.672C340.134 386.596 335.831 392.883 332.036 399.475C331.399 398.933 330.795 398.354 330.226 397.741C329.673 397.151 329.165 396.521 328.705 395.856C324.708 390.187 324.57 383.186 328.705 379.415C331.822 376.487 336.598 376.235 341.073 378.247Z" fill="black" opacity="0.1"/>
    <path d="M285.355 217.553C284.236 216.948 282.994 216.605 281.723 216.547C267.809 216.045 251.909 253.249 249.044 284.269C248.176 293.809 245.399 330.874 270.888 364.811C281.378 378.673 294.905 389.947 310.43 397.766L344.756 378.36C340.508 376.311 304.636 358.338 295.963 316.697C288.497 280.812 306.647 253.437 309.953 248.623L285.355 217.553Z" fill="#066FD1"/>
    <path d="M332.827 259.231C331.08 289.799 329.346 320.354 327.41 350.859C336.862 322.101 346.515 293.394 356.105 264.887C353.968 257.434 351.97 250.245 349.821 242.791L348.765 242.728C343.653 248.284 338.341 253.785 332.827 259.231Z" fill="#DDDDDD"/>
    <path d="M350.022 242.841L327.611 350.934C337.063 322.176 346.716 293.469 356.319 264.963C354.17 257.446 352.221 250.094 350.022 242.841Z" fill="black" opacity="0.11"/>
    <path d="M350.224 242.892L376.317 232.912L379.974 239.473L359.21 257.949L350.224 242.892Z" fill="#DDDDDD"/>
    <path d="M350.224 242.892L376.317 232.912L379.974 239.473L359.21 257.949L350.224 242.892Z" fill="black" opacity="0.11"/>
    <path d="M446.564 388.98L433.493 403.171C413.257 385.65 400.223 369.888 391.877 356.087C411.623 375.896 435.076 385.285 446.564 388.98Z" fill="black" opacity="0.1"/>
    <path d="M533.516 468.504C540.004 470.518 546.943 470.565 553.457 468.639C559.971 466.713 565.768 462.901 570.117 457.682C566.007 454.955 562.098 451.989 556.367 451.498C547.569 450.744 537.074 456.136 534.258 463.439C533.644 465.053 533.391 466.782 533.516 468.504Z" fill="black" opacity="0.15"/>
    <path d="M536.332 416.481C536.332 416.481 541.033 398.118 525.51 381.779C525.51 381.779 508.642 405.169 514.324 422.791C520.005 440.413 536.332 416.481 536.332 416.481Z" fill="#066FD1"/>
    <path d="M543.936 414.118C543.936 414.118 551.992 394.561 576.804 390.325C576.804 390.325 576.238 422.527 559.396 434.48C542.553 446.433 543.936 414.118 543.936 414.118Z" fill="#066FD1"/>
    <path d="M534.71 470.088C553.633 470.088 568.973 454.748 568.973 435.825C568.973 416.902 553.633 401.562 534.71 401.562C515.787 401.562 500.447 416.902 500.447 435.825C500.447 454.748 515.787 470.088 534.71 470.088Z" fill="#DDDDDD"/>
    <path d="M576.477 456.89C576.309 456.892 576.143 456.862 575.986 456.802L543.345 444.611C543.02 444.458 542.765 444.188 542.629 443.856C542.493 443.524 542.487 443.153 542.612 442.816C542.737 442.479 542.983 442.202 543.303 442.038C543.623 441.875 543.992 441.838 544.338 441.933L576.929 454.138C577.243 454.254 577.505 454.476 577.671 454.767C577.836 455.057 577.894 455.396 577.834 455.725C577.774 456.054 577.6 456.351 577.343 456.564C577.085 456.777 576.761 456.893 576.426 456.89H576.477Z" fill="#066FD1"/>
    <path d="M560.691 467.7C560.354 467.7 560.029 467.58 559.773 467.36L541.863 452.127C541.574 451.883 541.394 451.536 541.362 451.16C541.331 450.784 541.449 450.41 541.693 450.122C541.936 449.834 542.284 449.654 542.66 449.622C543.036 449.59 543.409 449.709 543.698 449.952L561.621 465.199C561.905 465.444 562.081 465.792 562.109 466.167C562.137 466.541 562.016 466.912 561.772 467.197C561.64 467.356 561.475 467.484 561.288 467.571C561.101 467.658 560.897 467.702 560.691 467.7Z" fill="#066FD1"/>
    <path d="M509.849 436.164C509.621 436.164 509.397 436.108 509.195 436.001L478.313 419.963C477.992 419.781 477.755 419.482 477.651 419.128C477.546 418.774 477.584 418.393 477.756 418.066C477.927 417.74 478.219 417.493 478.569 417.378C478.92 417.262 479.301 417.288 479.633 417.449L510.515 433.487C510.849 433.663 511.099 433.964 511.212 434.324C511.325 434.684 511.291 435.075 511.118 435.41C510.994 435.638 510.811 435.829 510.587 435.961C510.364 436.094 510.109 436.164 509.849 436.164Z" fill="#066FD1"/>
    <path d="M507.536 443.128H507.322L484.07 439.608C483.696 439.552 483.361 439.349 483.137 439.045C482.913 438.741 482.819 438.36 482.876 437.987C482.932 437.613 483.135 437.278 483.439 437.054C483.743 436.83 484.124 436.736 484.497 436.793L507.749 440.312C508.109 440.36 508.437 440.543 508.666 440.825C508.894 441.107 509.006 441.465 508.979 441.827C508.952 442.189 508.787 442.526 508.519 442.771C508.25 443.015 507.899 443.147 507.536 443.14V443.128Z" fill="#066FD1"/>
    <path d="M526.176 446.722C528.744 446.722 530.826 444.64 530.826 442.072C530.826 439.503 528.744 437.421 526.176 437.421C523.608 437.421 521.525 439.503 521.525 442.072C521.525 444.64 523.608 446.722 526.176 446.722Z" fill="#454C5E"/>
</svg>
