<svg xmlns="http://www.w3.org/2000/svg" width="800" height="600" fill="none" viewBox="0 0 800 600">
    <path d="M120 300C120 346.964 169.669 381.143 191.676 419.132C214.298 458.351 219.83 518.102 258.926 540.846C296.916 562.853 351.011 538.265 397.975 538.265C444.94 538.265 499.035 562.853 537.024 540.846C576.121 518.225 581.653 458.351 604.275 419.132C626.281 381.143 675.951 347.087 675.951 300C675.951 252.913 626.159 218.857 604.275 180.868C581.653 141.649 576.121 81.7752 537.024 59.1536C499.035 37.1467 444.94 61.7354 397.975 61.7354C351.011 61.7354 296.916 37.1467 258.926 59.1536C219.707 81.7752 214.298 141.649 191.676 180.868C169.669 218.98 120 253.036 120 300Z" fill="black" opacity="0.07"/>
    <path d="M471.495 190.58C471.864 189.105 472.356 187.63 472.971 186.277C473.34 185.54 473.831 184.802 474.323 184.064C478.872 177.548 486.74 175.089 491.781 178.655C496.33 181.851 497.068 188.736 493.994 194.76C493.625 195.498 493.256 196.236 492.765 196.85C492.273 197.465 491.781 198.08 491.289 198.695C486.618 203.735 479.856 205.456 475.307 202.26C471.741 200.047 470.512 195.375 471.495 190.58Z" fill="#FFCB9D"/>
    <path d="M471.495 190.58C471.864 189.105 472.356 187.63 472.971 186.277C479.733 189.597 486.74 192.547 493.994 194.76C493.625 195.498 493.256 196.236 492.765 196.85C492.273 197.465 491.781 198.08 491.289 198.695C486.618 203.735 479.856 205.457 475.307 202.26C471.741 200.047 470.512 195.375 471.495 190.58Z" fill="black" opacity="0.1"/>
    <path d="M462.029 188.613C447.276 234.84 437.687 246.888 431.171 246.274C421.089 245.167 418.63 213.571 397.976 208.161C394.411 207.3 390.722 207.178 387.034 207.915L368.469 207.423C367.117 206.563 365.888 205.579 364.904 204.227C363.675 202.629 362.691 200.784 362.199 198.817L337.611 197.465C337.119 197.957 332.693 203.243 328.144 204.719C326.792 205.21 325.316 205.456 323.964 205.702C322.857 205.825 321.751 205.948 320.521 205.948L299.498 205.456V205.579C298.76 205.702 298.023 205.948 297.408 206.194C289.294 209.022 285.851 218.734 284.622 222.423C278.229 240.372 271.221 259.674 265.074 260.412C261.509 260.904 255.607 255.617 245.526 226.234C231.756 233.119 217.126 238.282 202.004 241.725C212.085 261.396 224.257 276.764 236.305 286.845C249.091 297.418 261.754 301.967 271.836 299.016C282.286 295.943 290.646 284.755 295.81 277.501C298.023 274.428 299.99 271.231 301.834 267.912C302.449 266.928 302.941 265.945 303.432 264.961C303.555 264.715 303.678 264.346 303.801 264.1C303.801 264.838 303.924 265.576 303.924 266.436L304.539 274.674C305.031 280.329 305.522 285.738 305.891 291.271C305.891 291.763 306.014 292.254 306.014 292.746C306.26 295.943 306.383 299.139 306.752 302.09C307.121 317.704 307.489 333.318 307.858 349.054L383.591 337.006L387.157 304.303L388.263 293.361L389.862 278.485C390.845 269.756 391.829 261.027 392.812 252.298C398.099 259.797 404.492 266.313 411.746 271.723C418.507 276.518 426.376 279.714 434.859 279.468C455.022 278.731 470.513 258.199 487.602 235.7C490.429 232.012 493.134 228.078 495.347 224.513C499.65 217.751 502.601 212.464 502.601 212.464C504.568 208.899 506.166 205.702 507.642 202.752L462.029 188.613Z" fill="#066FD1"/>
    <path d="M383.591 337.129C382.361 390.118 381.009 443.106 379.656 496.095L368.592 496.71C360.108 456.753 351.502 416.796 343.019 376.84L325.807 496.833H313.144L307.857 349.423L322.611 347.087L337.364 344.751L383.591 337.129Z" fill="#DDDDDD"/>
    <path d="M240.731 228.078C240.239 226.603 239.624 225.25 238.764 224.021C238.272 223.283 237.78 222.546 237.166 221.931C231.879 215.907 223.888 214.308 219.216 218.366C215.036 222.054 214.913 228.939 218.724 234.717C219.216 235.455 219.708 236.069 220.199 236.684C220.691 237.299 221.306 237.914 221.921 238.405C227.084 242.954 233.969 243.815 238.149 240.25C241.469 237.545 242.206 232.75 240.731 228.078Z" fill="#FFCB9D"/>
    <path d="M240.731 228.078C240.239 226.603 239.624 225.25 238.764 224.021C232.37 228.078 225.732 231.643 218.847 234.717C219.338 235.455 219.83 236.069 220.322 236.684C220.814 237.299 221.429 237.914 222.043 238.405C227.207 242.954 234.092 243.815 238.272 240.25C241.468 237.545 242.206 232.75 240.731 228.078Z" fill="black" opacity="0.1"/>
    <path d="M393.058 251.191L389.984 278.485L388.386 293.361L387.279 304.303L383.714 337.006L307.981 349.054C307.612 333.441 307.243 317.827 306.874 302.09C306.629 299.016 306.383 295.943 306.137 292.746C340.315 295.205 373.264 279.345 393.058 251.191Z" fill="black" opacity="0.1"/>
    <path d="M194.258 516.872C194.258 519.823 284.007 522.282 394.656 522.282C505.305 522.282 595.054 519.823 595.054 516.872C595.054 513.922 505.305 511.586 394.656 511.586C284.007 511.586 194.258 514.045 194.258 516.872Z" fill="#1D2535" opacity="0.5"/>
    <path d="M299.744 518.348L324.087 515.52C324.087 515.52 325.071 509.127 321.136 506.914C317.202 504.701 303.678 512.447 299.744 518.348Z" fill="#454C5E"/>
    <path d="M394.656 518.348L370.313 515.52C370.313 515.52 369.33 509.127 373.264 506.914C377.198 504.701 390.722 512.447 394.656 518.348Z" fill="#454C5E"/>
    <path d="M287.818 265.576L297.408 257.339C298.637 256.232 298.76 254.388 297.654 253.036C297.162 252.421 296.424 252.052 295.687 252.052L207.782 245.536C206.921 245.536 206.184 245.782 205.569 246.274L196.471 254.511C195.242 255.618 195.119 257.462 196.225 258.691C196.717 259.306 197.455 259.675 198.315 259.675L285.605 266.191C286.343 266.314 287.203 266.068 287.818 265.576Z" fill="#454C5E"/>
    <path d="M286.343 262.994C286.22 264.838 284.622 266.191 282.778 266.068C282.778 266.068 282.778 266.068 282.655 266.068L244.419 263.24L238.887 262.871L194.012 259.552C192.414 259.429 191.185 258.199 190.939 256.601L189.586 246.766L184.423 209.882C184.423 209.637 184.423 209.391 184.423 209.145C184.546 207.301 186.267 205.948 188.111 206.071L276.753 212.587C278.352 212.71 279.581 213.94 279.827 215.538L280.934 223.652L286.22 262.133C286.343 262.502 286.343 262.748 286.343 262.994Z" fill="#454C5E"/>
    <path d="M286.343 262.994C286.22 264.838 284.621 266.191 282.777 266.068C282.777 266.068 282.777 266.068 282.654 266.068L244.419 263.24L238.886 262.871L194.012 259.552C192.414 259.429 191.184 258.199 190.938 256.601L189.586 246.765C213.068 246.765 231.387 226.972 231.387 226.972C231.387 226.972 244.911 225.988 248.353 234.594C250.935 241.11 271.097 229.676 280.933 223.652L286.22 262.133C286.343 262.502 286.343 262.748 286.343 262.994Z" fill="black" opacity="0.1"/>
    <path d="M222.289 249.593C221.551 248.241 220.937 246.888 220.568 245.413C220.322 244.552 220.199 243.692 220.076 242.831C219.092 234.963 223.273 227.832 229.42 227.094C234.952 226.357 240.116 231.029 241.837 237.668C242.083 238.528 242.206 239.266 242.329 240.126C242.452 240.987 242.452 241.725 242.452 242.585C242.452 249.47 238.518 255.248 232.985 255.986C228.805 256.355 224.748 253.773 222.289 249.593Z" fill="#FFCB9D"/>
    <path d="M222.29 249.593C221.552 248.241 220.937 246.888 220.568 245.413C227.822 243.323 234.953 240.741 241.838 237.668C242.083 238.528 242.206 239.266 242.329 240.127C242.452 240.987 242.452 241.725 242.452 242.585C242.452 249.47 238.518 255.249 232.986 255.986C228.806 256.355 224.748 253.773 222.29 249.593Z" fill="black" opacity="0.1"/>
    <path d="M213.191 260.904L206.798 249.593L249.459 241.479C249.459 241.479 249.213 260.412 255.115 264.101C261.016 267.789 213.191 260.904 213.191 260.904Z" fill="#066FD1"/>
    <path d="M538.377 272.461H661.935C666.484 272.461 670.418 269.879 671.156 266.313L680.745 218.734C681.606 214.308 677.303 210.374 671.525 210.374H547.966C543.417 210.374 539.483 212.956 538.746 216.521L529.279 264.1C528.418 268.526 532.721 272.461 538.377 272.461Z" fill="#066FD1"/>
    <path d="M301.711 268.035C299.866 271.354 297.899 274.551 295.686 277.624C290.523 284.878 282.163 296.066 271.712 299.139C261.631 302.09 248.968 297.541 236.182 286.968C281.056 293.73 297.162 275.534 301.711 268.035Z" fill="black" opacity="0.1"/>
    <path d="M343.019 376.717L325.807 496.71H313.144L307.857 349.3L337.241 344.628L343.019 376.717Z" fill="black" opacity="0.1"/>
    <path d="M495.593 224.512C493.257 228.078 490.675 231.889 487.847 235.7C470.758 258.199 455.267 278.731 435.105 279.468C426.499 279.837 418.753 276.518 411.991 271.723C425.392 269.879 438.547 265.821 450.718 259.92C468.053 251.56 483.421 239.389 495.593 224.512Z" fill="black" opacity="0.1"/>
    <path d="M550.549 329.015H479.365C477.766 329.138 476.414 327.785 476.291 326.187C476.291 325.818 476.291 325.326 476.537 324.958L480.84 309.221C481.578 307.008 483.545 305.409 485.881 305.287H557.065C558.663 305.164 560.016 306.393 560.139 308.114C560.139 308.483 560.139 308.975 559.893 309.344L555.59 325.08C554.975 327.293 552.885 328.892 550.549 329.015Z" fill="#A7AAB3"/>
    <path d="M503.215 145.952H595.177C597.267 146.075 598.988 144.476 599.111 142.386C599.111 141.895 598.988 141.403 598.865 140.911L593.333 120.625C592.472 117.675 589.89 115.708 586.817 115.462H494.855C492.765 115.339 491.044 116.937 490.921 119.027C490.921 119.519 491.044 120.011 491.167 120.502L496.699 140.788C497.683 143.739 500.265 145.829 503.215 145.952Z" fill="#DDDDDD"/>
    <path d="M320.644 141.895C321.135 145.46 321.75 150.87 322.611 157.14L323.225 160.336C324.578 167.467 326.791 174.229 329.741 180.868C330.356 182.097 330.971 183.327 331.586 184.556C334.044 188.859 351.379 193.162 365.887 190.58C380.394 187.999 384.574 173.368 377.935 167.713C375.599 165.377 373.632 162.672 372.28 159.721C370.19 155.787 368.469 151.607 367.116 147.427C366.256 144.968 365.764 143.493 365.764 143.493L353.592 134.518L326.053 136.485C326.668 141.157 325.561 144.476 324.209 144.722C322.857 144.968 320.889 142.264 320.644 141.895Z" fill="#FFCB9D"/>
    <path d="M372.28 159.599C368.715 161.197 363.182 163.287 356.051 163.902C349.044 164.516 343.265 163.41 339.577 162.426C339.577 163.902 339.577 165.254 339.331 166.606C339.208 168.819 338.716 170.909 337.979 172.999C337.118 174.844 336.012 176.565 334.536 177.917C333.184 179.27 331.586 180.253 329.864 180.868C326.914 174.352 324.701 167.467 323.348 160.336L322.734 157.14C321.75 150.87 321.135 145.46 320.767 141.895C321.012 142.264 322.488 145.337 323.963 144.968C324.209 144.845 324.578 144.722 324.701 144.477C325.684 143.37 326.299 140.542 325.807 136.731H326.176L353.347 134.887L365.518 143.985C365.518 143.985 366.747 147.673 366.87 147.919C367.362 149.148 368.1 150.993 369.575 153.82V153.943L372.28 159.599Z" fill="black" opacity="0.1"/>
    <path d="M386.05 132.797C384.944 135.993 382.731 138.452 379.657 139.927C378.428 144.599 375.969 148.779 372.403 151.976C362.937 160.336 346.216 160.09 331.094 150.992L330.971 151.115V151.238C331.094 152.714 331.094 154.189 331.34 155.541C331.34 156.033 331.463 156.402 331.463 156.894V157.385C332.324 160.459 332.816 163.656 333.184 166.729C333.062 168.696 332.447 170.663 331.217 172.262C330.48 169.311 329.127 166.606 327.037 164.393C326.3 163.656 325.439 163.041 324.578 162.426C320.275 158.615 317.571 153.328 317.079 147.55C316.956 146.812 316.956 145.952 317.079 145.214L316.956 145.091C311.915 143.247 309.333 137.837 311.055 132.797C312.53 128.986 316.095 126.527 320.152 126.404C318.431 119.888 322.365 113.126 328.881 111.405C331.217 110.79 333.799 110.913 336.135 111.65C338.348 112.388 340.192 113.741 341.545 115.462C344.495 109.437 351.872 106.979 357.896 109.929C362.076 112.019 364.781 116.322 364.658 120.994C367.977 116.814 373.51 115.216 378.428 116.937C384.944 119.396 388.263 126.281 386.05 132.797Z" fill="#454C5E"/>
    <path d="M379.657 139.927C378.427 144.599 375.968 148.779 372.403 151.976C362.936 160.336 346.216 160.09 331.094 150.992L330.971 151.115V151.238C329.127 149.886 327.283 148.411 325.685 146.935L325.807 147.058C329.373 148.534 350.519 158.615 369.452 148.165C373.264 145.952 376.706 143.124 379.657 139.927Z" fill="black" opacity="0.5"/>
</svg>
