<svg xmlns="http://www.w3.org/2000/svg" width="800" height="600" fill="none" viewBox="0 0 800 600">
    <path d="M676.648 298.405C676.648 345.15 627.191 379.132 605.334 416.784C582.839 455.712 577.414 515.22 538.486 537.875C500.675 559.732 446.91 535.322 400.324 535.322C353.738 535.322 299.814 559.732 262.162 537.875C223.234 515.38 217.81 455.871 195.315 416.784C173.458 378.973 124 345.15 124 298.405C124 251.659 173.458 217.677 195.315 180.026C217.81 141.098 223.234 81.5891 262.162 59.0939C299.973 37.2369 353.579 61.6466 400.324 61.6466C447.07 61.6466 500.835 37.2369 538.486 59.0939C577.414 81.5891 582.839 141.098 605.334 180.026C627.191 217.837 676.648 251.659 676.648 298.405Z" fill="black" opacity="0.07"/>
    <path d="M223.234 54.3077H544.23C552.207 54.3077 558.588 60.6893 558.588 68.6664V191.034C558.588 199.011 552.207 205.393 544.23 205.393H223.234C215.257 205.393 208.875 199.011 208.875 191.034V68.6664C208.875 60.6893 215.257 54.3077 223.234 54.3077Z" fill="#232B41"/>
    <path d="M544.229 209.541H223.234C213.023 209.541 204.727 201.244 204.727 191.034V68.6663C204.727 58.4558 213.023 50.1597 223.234 50.1597H544.229C554.44 50.1597 562.736 58.4558 562.736 68.6663V191.034C562.736 201.244 554.44 209.541 544.229 209.541ZM223.234 58.2962C217.49 58.2962 212.864 62.9229 212.864 68.6663V191.034C212.864 196.777 217.49 201.404 223.234 201.404H544.229C549.973 201.404 554.599 196.777 554.599 191.034V68.6663C554.599 62.9229 549.973 58.2962 544.229 58.2962H223.234Z" fill="#454C5E"/>
    <path d="M245.251 163.274C243.974 163.274 243.017 162.157 243.017 161.04C243.017 160.402 243.336 159.924 243.655 159.445L295.187 107.913L317.842 130.568L367.778 80.6319L438.933 151.627L508.014 82.5464C508.971 81.7487 510.247 81.7487 511.205 82.5464C512.002 83.5036 512.002 84.7799 511.205 85.7372L438.933 158.009L367.937 87.0135L318.001 136.95L295.346 114.295L247.006 162.636C246.367 163.114 245.889 163.274 245.251 163.274Z" fill="#DADCE0"/>
    <path d="M295.187 123.867C300.385 123.867 304.6 119.653 304.6 114.454C304.6 109.256 300.385 105.042 295.187 105.042C289.988 105.042 285.774 109.256 285.774 114.454C285.774 119.653 289.988 123.867 295.187 123.867Z" fill="#066FD1"/>
    <path d="M438.773 179.387C424.255 179.387 412.449 167.581 412.449 153.063C412.449 138.545 424.255 126.739 438.773 126.739C453.291 126.739 465.097 138.545 465.097 153.063C465.097 167.581 453.291 179.228 438.773 179.387ZM438.773 133.121C427.765 133.121 418.83 142.055 418.83 153.063C418.83 164.072 427.765 173.006 438.773 173.006C449.781 173.006 458.715 164.072 458.715 153.063C458.715 142.055 449.781 133.121 438.773 133.121Z" fill="#066FD1"/>
    <path d="M286.572 201.404L285.136 209.541H249.239C251.473 207.945 253.866 206.509 256.259 205.073C258.174 203.957 259.928 202.84 261.524 201.245L286.572 201.404ZM562.736 152.585V184.812C560.184 185.769 557.312 185.929 554.6 185.131V152.106C555.717 151.787 556.833 151.627 558.11 151.627C559.705 151.627 561.3 151.947 562.736 152.585Z" fill="black" opacity="0.3"/>
    <path d="M671.543 542.023C671.543 546.49 553.323 550 407.344 550C261.364 550 143.145 546.49 143.145 542.023C143.145 537.556 261.364 534.046 407.344 534.046C553.323 534.046 671.543 537.715 671.543 542.023Z" fill="#1D2535" opacity="0.5"/>
    <path d="M411.811 188.481C412.13 187.045 412.768 185.61 413.406 184.333C415.64 179.547 419.15 176.675 422.181 177.792C426.01 179.068 427.605 186.088 425.691 193.267C425.531 194.065 425.212 194.863 424.893 195.661C422.819 201.564 418.671 205.233 415.321 204.116C411.651 202.84 410.056 195.82 411.811 188.481Z" fill="#FFCB9D"/>
    <path d="M411.811 188.481L412.449 186.248C412.769 185.45 413.088 184.812 413.247 184.174C413.566 184.652 414.045 185.131 414.523 185.45C415.8 186.567 417.076 187.364 418.512 188.003C421.384 189.438 424.096 190.555 425.851 191.193C425.851 191.672 425.691 192.151 425.532 192.789C425.372 193.746 425.053 194.544 424.734 195.501C421.703 200.766 417.874 204.595 415.162 203.957C411.173 202.999 411.333 190.715 411.811 188.481Z" fill="black" opacity="0.1"/>
    <path d="M257.695 336.216C259.29 337.013 260.726 338.13 262.002 339.247C266.789 343.236 268.863 348.022 266.789 351.213C264.076 355.201 255.78 354.882 248.122 350.574C247.325 350.096 246.367 349.617 245.57 348.979C239.507 344.671 236.476 339.087 238.869 335.578C241.422 331.43 249.877 331.749 257.695 336.216Z" fill="#FFCB9D"/>
    <path d="M257.695 336.216C259.29 337.013 260.726 338.13 262.002 339.247L261.045 340.204C256.578 344.512 252.27 344.352 246.367 348.341C246.048 348.5 245.889 348.66 245.729 348.819C239.667 344.512 236.635 338.928 239.029 335.418C241.581 331.589 250.037 331.908 257.695 336.216Z" fill="black" opacity="0.2"/>
    <path d="M265.353 177.633C265.512 181.142 265.831 186.567 266.31 192.948C266.469 194.384 266.629 195.661 266.629 195.98C267.427 203.159 269.182 210.019 271.734 216.72C272.213 217.996 272.851 219.273 273.33 220.549C275.563 225.016 292.315 230.44 306.993 228.845C321.67 227.25 326.776 213.051 320.554 206.988C318.32 204.595 316.565 201.723 315.448 198.692C313.693 194.703 312.257 190.555 311.141 186.248C310.503 183.855 310.024 182.259 310.024 182.259L298.537 172.368H271.096C271.415 176.994 270.139 180.185 268.703 180.504C267.267 180.823 265.672 178.271 265.353 177.633Z" fill="#FFCB9D"/>
    <path d="M265.353 177.633C265.512 181.142 265.831 186.567 266.31 192.948C266.469 194.384 266.629 195.661 266.629 195.98C267.427 203.159 269.182 210.019 271.734 216.72C273.489 216.082 275.244 215.284 276.68 214.008C278.275 212.731 279.552 210.976 280.509 209.222C281.466 207.307 282.104 205.233 282.423 202.999C282.742 201.564 282.902 200.287 283.062 198.851C293.591 202.361 305.078 202.202 315.448 198.532C313.693 194.544 312.257 190.396 311.141 186.088C310.503 183.695 310.024 182.1 310.024 182.1L298.537 172.208H271.096C271.415 176.835 270.139 180.026 268.703 180.345C267.267 180.664 265.672 178.271 265.353 177.633Z" fill="#606060" opacity="0.1"/>
    <path d="M262.003 183.536C261.843 187.684 262.162 191.672 262.96 195.661C263.598 198.692 264.236 199.49 264.555 202.68C264.874 204.754 265.034 206.828 264.874 208.902C264.236 216.082 258.652 218.475 259.45 221.028C261.045 226.133 287.369 227.888 294.389 216.241C297.899 210.338 295.347 203.159 298.218 201.883C300.611 200.925 304.6 205.073 307.95 209.222C303.802 200.606 304.281 197.096 305.717 195.501C307.631 193.427 310.981 195.342 315.289 192.31C317.363 190.715 319.278 188.8 320.713 186.726C320.873 186.567 321.033 186.407 321.033 186.088C321.352 185.61 321.671 184.971 321.99 184.493C321.99 184.493 321.99 184.333 322.149 184.333C322.947 182.897 323.426 181.302 323.745 179.707L323.904 179.068C324.223 175.399 322.787 171.889 320.075 169.496C316.246 165.667 310.503 163.433 307.472 162.157C295.825 157.371 278.116 156.414 267.906 166.943C265.353 169.655 263.598 173.006 262.481 176.675C262.322 178.909 262.003 181.302 262.003 183.536Z" fill="#454C5E"/>
    <path d="M258.492 367.326L264.874 519.528H277.158L294.389 401.946L306.035 519.528H315.129L331.721 367.326H258.492Z" fill="#DADBE0"/>
    <path d="M291.039 540.747L263.438 537.715C263.438 537.715 262.481 530.536 266.789 528.143C271.096 525.75 286.572 534.046 291.039 540.747ZM331.722 540.747L304.121 537.715C304.121 537.715 303.164 530.536 307.471 528.143C311.779 525.75 327.254 534.046 331.722 540.747Z" fill="#454C5E"/>
    <path d="M420.107 191.991C415.959 191.034 411.811 190.396 407.982 189.758C400.165 219.432 373.362 240.172 342.73 240.332H245.889C244.772 240.332 243.815 240.491 242.698 240.811C239.667 241.449 229.137 243.842 215.736 262.827C207.599 274.474 196.751 289.789 199.941 305.265C200.899 309.573 202.335 313.721 204.249 317.709C206.642 322.655 209.673 327.441 213.343 331.589C217.331 336.375 221.001 339.566 228.18 345.629C233.126 349.777 237.434 353.127 240.305 355.201C241.262 352.489 242.539 349.777 244.134 347.384C247.166 342.916 251.154 338.928 255.462 335.897C256.578 346.267 257.536 356.637 258.493 367.007V367.326H331.722C331.882 364.454 332.201 361.583 332.52 358.711C333.477 347.224 334.434 335.897 335.551 324.41C336.987 308.456 338.263 292.661 339.699 276.707C350.867 277.026 381.977 277.824 397.453 260.274C406.068 250.543 414.843 229.802 418.991 220.07C419.788 218.315 420.586 216.401 421.384 214.646C422.501 211.615 423.936 208.583 425.372 205.552C426.33 203.797 427.446 202.202 428.723 200.766C429.361 200.128 429.839 199.49 430.158 199.17C431.754 197.575 433.03 196.299 433.987 195.501C429.68 194.225 425.053 193.108 420.107 191.991ZM237.753 315.635C232.328 307.02 229.616 302.872 229.616 297.128C229.456 287.237 235.998 279.579 239.029 276.229C241.901 273.038 245.091 270.326 248.761 268.092C249.878 278.622 250.835 289.311 251.952 299.841L254.345 324.25C254.504 325.846 254.664 327.601 254.823 329.196C254.823 329.834 254.983 330.632 254.983 331.27C254.504 331.11 253.866 330.951 253.388 330.632C245.091 327.281 237.753 315.635 237.753 315.635Z" fill="#066FD1"/>
    <path d="M319.277 244.001C319.277 244.001 313.853 244.799 306.674 245.597C295.825 246.554 280.828 247.352 274.766 244.001V233.631L274.925 233.791C276.521 234.588 290.72 240.651 315.927 233.631C316.565 233.472 319.277 244.001 319.277 244.001Z" fill="#DADBE0"/>
    <path d="M258.492 367.007L312.257 367.326L315.129 519.528H306.035L294.389 401.947L277.158 519.528H264.874L258.492 367.007Z" fill="black" opacity="0.15"/>
    <path d="M492.857 246.235L495.251 274.474L500.037 329.036C501.313 343.236 502.43 357.275 503.706 371.474H575.818C577.254 357.275 578.69 343.236 579.967 329.036L582.36 304.946C584.274 285.322 586.348 265.699 588.263 246.075L492.857 246.235Z" fill="#DADBE0"/>
    <path d="M496.527 280.058C522.053 315.476 535.774 319.624 543.432 316.273C550.132 313.401 552.047 305.105 566.246 289.63C572.309 282.929 578.85 276.867 585.87 271.442L580.445 329.036L499.718 322.814C498.76 308.456 497.644 294.257 496.527 280.058ZM500.037 329.036C501.313 343.236 502.589 357.275 503.706 371.474H575.819C577.254 357.275 578.69 343.236 579.967 329.036H500.037Z" fill="black" opacity="0.15"/>
    <path d="M471.798 321.059C473.553 325.846 475.946 330.472 478.818 334.78C479.775 336.056 480.572 337.333 481.53 338.29C485.837 343.395 491.102 347.384 497.324 349.936C500.515 351.213 503.706 352.17 507.056 352.808C511.683 353.606 516.469 353.925 521.096 353.606H524.287C527.796 353.287 531.466 352.648 534.976 351.851C538.007 351.053 541.198 350.255 544.229 349.139C545.505 348.66 546.941 348.181 548.058 347.543C549.813 346.745 551.408 345.948 553.004 345.15C555.876 343.714 558.428 341.959 560.981 340.204C562.098 339.407 563.214 338.609 564.172 337.811L545.825 329.515L535.135 324.729C533.699 325.846 532.104 326.803 530.349 327.601C529.073 328.239 527.637 328.558 526.361 328.717C525.403 328.877 524.606 328.877 523.648 328.877C520.777 328.558 518.064 327.282 515.99 325.207L515.671 324.888C514.555 323.772 513.597 322.655 512.64 321.538C502.749 308.934 496.846 284.684 496.846 284.684C499.558 275.59 499.717 266.018 497.324 256.765C496.367 253.095 494.931 249.585 493.176 246.235C489.507 246.873 485.997 248.309 482.966 250.383C481.37 251.5 479.775 252.776 478.498 254.212C465.576 267.932 463.661 298.086 472.117 321.059" fill="#DADBE0"/>
    <path d="M492.858 246.235C487.274 247.352 482.009 250.064 478.18 254.372C465.257 268.092 463.343 298.245 471.798 321.219C473.553 326.005 475.947 330.632 478.818 334.939C479.775 336.216 480.573 337.492 481.53 338.449C485.838 343.555 491.103 347.543 497.325 350.096C498.92 350.734 500.516 351.372 502.111 351.851C502.749 358.392 503.228 364.933 503.866 371.474H575.819C577.255 357.275 578.691 343.236 579.967 329.036L582.36 304.946C584.275 285.322 586.349 265.699 588.263 246.075H492.858V246.235Z" fill="black" opacity="0.05"/>
    <path d="M574.861 180.983C574.223 184.812 573.106 190.396 571.671 197.416C571.352 198.851 571.032 200.287 570.873 200.766C568.958 208.264 566.087 215.444 562.417 222.304L560.024 226.133C556.993 230.6 538.167 234.11 522.692 230.281C507.216 226.452 503.706 210.498 511.364 204.914C514.077 202.521 516.31 199.809 518.065 196.618C520.458 192.47 522.692 188.322 524.447 183.855C525.563 181.302 526.202 179.707 526.202 179.707L539.922 170.772L569.437 174.761C568.48 179.707 569.278 183.376 570.873 183.855C572.468 184.333 574.542 181.621 574.861 180.983Z" fill="#FFCB9D"/>
    <path d="M574.861 180.983C574.223 184.812 573.106 190.396 571.67 197.416C571.351 198.851 571.032 200.287 570.873 200.766C568.958 208.264 566.086 215.444 562.417 222.304C560.662 221.506 558.907 220.23 557.631 218.794C556.195 217.199 554.919 215.284 554.28 213.051C553.483 210.817 553.164 208.424 553.164 206.19C553.004 204.595 553.004 203.159 553.164 201.564C541.358 203.797 529.073 202.042 518.384 196.618C520.777 192.47 523.01 188.322 524.765 183.855C525.882 181.302 526.52 179.707 526.52 179.707L540.241 170.772L569.756 174.761C568.799 179.707 569.596 183.376 571.192 183.855C572.787 184.333 574.542 181.621 574.861 180.983Z" fill="#606060" opacity="0.1"/>
    <path d="M577.733 187.843C576.776 193.906 573.585 199.49 568.639 203.319C567.682 203.957 566.725 204.595 565.768 205.393C563.374 207.626 561.62 210.498 560.662 213.529C559.545 211.615 558.907 209.541 559.067 207.307C559.705 203.957 560.503 200.606 561.62 197.416C561.62 197.416 561.62 197.256 561.779 196.937C561.939 196.618 561.939 196.299 562.098 195.501C562.417 193.906 562.577 192.31 562.736 190.874V190.715C554.6 194.225 531.785 202.521 518.863 189.758C516.789 187.684 515.193 185.45 513.757 183.057C513.598 182.897 513.438 182.578 513.438 182.419C513.119 181.781 512.8 181.142 512.641 180.504L512.481 180.345C511.843 178.59 511.524 176.835 511.364 175.08V174.442C511.524 170.453 513.598 166.943 516.789 164.71C521.575 161.2 527.956 159.445 531.307 158.647C544.549 155.297 563.853 156.573 573.106 169.336C575.5 172.687 576.935 176.516 577.414 180.504C578.052 182.897 578.052 185.45 577.733 187.843Z" fill="#454C5E"/>
    <path d="M562.736 190.715C554.6 194.225 531.785 202.521 518.863 189.758C516.789 187.684 515.193 185.45 513.757 183.057C513.598 182.897 513.438 182.578 513.438 182.419C513.119 181.781 512.8 181.142 512.641 180.504L512.481 180.345C511.843 178.59 511.524 176.835 511.364 175.08C514.236 178.749 517.746 182.1 521.734 184.652C541.358 197.256 564.97 188.003 568.639 186.407L568.958 186.248C567.044 187.843 564.97 189.439 562.736 190.715Z" fill="black" opacity="0.5"/>
    <path d="M575.979 371.474L569.756 521.602H557.472L540.72 405.616L529.074 521.602H520.139L503.866 371.474H575.979Z" fill="#066FD1"/>
    <path d="M543.911 542.502L571.192 539.47C571.192 539.47 572.149 532.451 567.842 529.898C563.534 527.345 548.378 535.801 543.911 542.502ZM503.866 542.502L531.148 539.47C531.148 539.47 532.105 532.451 527.797 529.898C523.49 527.345 508.174 535.801 503.866 542.502ZM471.958 321.059C472.596 324.569 474.032 329.675 477.542 335.099C484.243 345.15 493.975 348.819 497.484 350.096C497.804 348.341 499.399 339.407 493.496 331.27C485.838 320.581 472.756 321.059 471.958 321.059Z" fill="#454C5E"/>
    <path d="M550.451 244.32C545.665 249.426 539.283 253.095 532.264 254.531L531.466 254.691L520.617 246.235L550.451 244.32Z" fill="#FFCB9D"/>
    <path d="M497.644 291.225C500.835 301.915 504.185 312.604 507.536 323.293C513.119 330.313 519.661 336.535 526.999 341.8C538.646 350.096 557.791 359.349 574.862 358.711C583.796 358.711 592.411 354.882 598.474 348.341C603.739 342.438 606.291 335.578 608.844 325.846C609.482 323.453 610.12 320.9 610.758 318.028C612.513 310.53 617.938 286.918 610.599 265.858C607.887 258.2 604.855 254.531 603.1 252.776C599.271 248.788 594.007 246.394 588.582 245.916C587.784 249.745 586.987 254.052 586.508 258.679C586.03 263.306 585.71 267.294 585.71 271.123C585.71 277.345 584.753 283.567 583.158 289.63C581.562 295.214 579.329 300.479 576.457 305.424C569.597 308.456 562.258 310.37 554.919 311.008C527.478 313.88 506.419 298.564 497.644 291.225Z" fill="#DADBE0"/>
    <path d="M574.702 358.871C582.041 358.871 587.305 356.637 589.858 355.361C601.983 348.979 605.972 336.694 606.929 333.504C607.886 330.472 608.365 327.92 608.524 326.165C604.217 327.282 596.718 329.994 589.379 336.216C579.807 344.352 576.138 354.403 574.702 358.871Z" fill="#454C5E"/>
    <path d="M529.074 521.602L540.72 405.616L535.615 371.474H503.866L520.139 521.602H529.074Z" fill="black" opacity="0.15"/>
    <path d="M534.657 252.457L517.108 239.853L513.119 244.161L525.085 262.029L534.657 252.457ZM535.614 252.297L562.258 235.705L568.32 241.289L550.133 264.901L535.614 252.297Z" fill="#066FD1"/>
    <path d="M534.657 252.457L517.108 239.853L513.119 244.161L525.085 262.029L534.657 252.457Z" fill="black" opacity="0.11"/>
    <path d="M306.674 245.437C295.825 246.394 280.829 247.192 274.766 243.842V233.472C274.926 233.631 274.926 233.95 275.245 234.269C276.202 235.546 277.159 236.822 278.435 237.939C280.509 239.534 282.903 240.97 285.455 241.768C293.113 244.48 305.238 245.437 306.674 245.437ZM331.722 358.073C290.561 326.643 267.746 256.445 262.96 240.332H245.889C244.772 240.332 243.815 240.491 242.698 240.811C239.667 241.449 229.137 243.842 215.736 262.827C207.599 274.474 196.751 289.789 199.941 305.265C200.899 309.572 202.335 313.721 204.249 317.709C206.642 322.655 209.673 327.441 213.343 331.589C217.331 336.375 221.001 339.566 228.18 345.629C233.126 349.777 237.434 353.127 240.305 355.201C241.262 352.489 242.539 349.777 244.134 347.384C247.166 342.916 251.154 338.928 255.462 335.897C256.578 346.267 257.536 356.637 258.493 367.007V367.326H331.722C331.882 364.454 332.201 361.583 332.52 358.711L331.722 358.073ZM253.388 330.632C245.091 327.122 237.912 315.635 237.912 315.635C232.488 307.02 229.776 302.872 229.776 297.128C229.616 287.237 236.157 279.579 239.188 276.229C242.06 273.038 245.251 270.326 248.92 268.092C250.037 278.622 250.994 289.311 252.111 299.841L254.504 324.25C254.664 325.846 254.823 327.601 254.983 329.196C254.983 329.834 255.143 330.632 255.143 331.27C254.504 331.11 253.866 330.951 253.388 330.632Z" fill="black" opacity="0.1"/>
</svg>
