<svg xmlns="http://www.w3.org/2000/svg" width="800" height="600" fill="none" viewBox="0 0 800 600">
    <path d="M119.418 300C119.418 346.972 169.066 381.097 190.973 419.116C213.528 458.302 219.102 518.119 258.12 540.827C296.101 562.885 350.156 538.231 397.082 538.231C444.007 538.231 498.062 562.885 536.044 540.827C575.062 518.249 580.636 458.302 603.191 419.116C625.228 381.097 674.746 347.101 674.746 300C674.746 252.899 624.969 218.773 603.191 180.884C580.636 141.698 575.062 81.7509 536.044 59.1734C498.062 37.1149 444.007 61.7685 397.082 61.7685C350.156 61.7685 296.101 37.1149 258.12 59.1734C218.973 81.7509 213.528 141.698 190.973 180.884C168.936 219.032 119.418 253.028 119.418 300Z" fill="black" opacity="0.07"/>
    <path d="M102 432.898C102 435.353 235.587 437.474 399.865 437.474C564.143 437.474 697.73 435.465 697.73 432.898C697.73 430.331 564.143 428.322 399.865 428.322C235.587 428.322 102 430.443 102 432.898Z" fill="#1D2535" opacity="0.5"/>
    <path d="M252.105 432.451C239.606 423.635 175.323 377.32 184.474 351.094C184.697 350.536 188.38 340.268 195.411 339.152C200.88 338.259 205.455 343.281 225.544 357.343C231.235 361.361 233.021 362.254 235.365 361.919C245.186 360.915 250.766 342.165 245.074 331.117C239.048 319.622 211.705 321.184 197.085 302.212C191.17 294.623 189.385 288.485 189.162 283.798C189.05 281.566 188.492 271.187 194.518 267.281C203.223 261.589 227.441 278.552 229.115 279.668C230.789 281.008 232.909 281.677 235.03 281.566C237.262 281.231 239.271 280.226 240.833 278.664C248.199 271.633 228.892 230.675 241.949 208.355C248.98 196.302 265.832 189.383 274.314 193.958C277.215 195.521 282.461 199.427 282.237 214.939C281.568 252.103 262.484 288.262 269.292 293.395C271.189 294.846 274.314 293.507 276.769 292.503C300.987 282.458 295.406 234.693 313.709 230.787C317.392 230.117 321.186 231.01 324.088 233.354C333.239 240.608 329.668 261.589 323.084 275.428C321.186 279.445 315.606 286.811 304.335 301.431C293.063 316.051 292.058 316.609 290.831 320.403C284.804 337.255 293.509 358.571 301.991 360.58C306.79 361.696 313.374 356.004 322.079 342.947C334.021 325.202 353.774 327.546 361.921 339.822C368.171 349.085 361.586 361.919 355.337 376.427C349.533 389.708 341.833 408.68 333.686 432.786C306.232 432.898 279.224 432.674 252.105 432.451Z" fill="#454C5E"/>
    <path d="M530.33 418.389C530.33 418.389 462.141 359.24 513.031 288.596C563.922 217.952 606.107 195.744 604.991 269.736C603.875 343.728 530.33 418.389 530.33 418.389Z" fill="#066FD1"/>
    <path d="M554.321 359.687C554.321 383.793 538.139 385.243 542.38 409.015C544.389 420.286 548.518 426.759 551.643 432.451H462.585C460.464 426.424 459.348 420.621 459.348 407.899C459.348 383.793 471.401 383.793 471.401 359.687C471.401 335.581 459.348 335.581 459.348 311.475C459.348 287.369 471.401 287.369 471.401 263.151C471.401 247.304 463.031 240.496 459.46 231.233C459.014 228.889 459.237 226.434 460.018 224.09C467.384 205.23 527.537 201.658 544.501 225.318C548.183 230.787 550.862 236.813 552.536 243.286C554.768 251.656 554.321 258.687 554.321 263.263C554.321 287.369 542.268 287.369 542.268 311.475C542.268 335.581 554.321 335.581 554.321 359.687Z" fill="#A6A9B3"/>
    <path d="M488.589 409.127C487.362 409.127 486.357 408.122 486.357 406.894C486.357 406.225 486.581 405.667 487.139 405.332C506.669 388.369 515.597 372.856 513.923 359.241C513.142 352.991 509.905 347.634 506.557 341.942C501.758 333.907 496.402 324.756 497.629 311.81C498.187 304.89 499.973 298.194 502.986 291.945C503.879 290.159 504.995 288.373 506.111 286.811C507.45 284.802 508.789 282.682 509.905 280.561C511.021 278.441 514.704 271.298 515.82 265.941C518.276 254.67 510.91 243.175 506.334 237.371C505.441 236.479 505.441 235.139 506.223 234.247C507.004 233.354 508.455 233.354 509.347 234.135C509.459 234.247 509.682 234.47 509.794 234.581C514.816 241.054 522.963 253.665 520.173 266.723C518.945 272.638 514.927 280.338 513.811 282.57C512.584 284.802 511.245 287.034 509.794 289.155C508.678 290.717 507.785 292.279 506.892 293.842C504.214 299.534 502.651 305.783 502.093 312.033C500.977 323.528 505.776 331.675 510.463 339.487C513.923 345.29 517.494 351.317 518.387 358.459C520.396 373.526 510.91 390.377 490.152 408.457C489.705 408.903 489.147 409.127 488.589 409.127Z" fill="#DADBE0"/>
    <path d="M518.945 498.073C502.428 499.859 467.385 487.583 465.488 476.981C463.591 466.378 476.425 458.343 476.425 458.343L518.945 498.073Z" fill="#454C5E"/>
    <path d="M303.33 503.988C319.624 500.416 348.752 477.538 347.301 466.824C345.85 456.111 330.896 452.651 330.896 452.651L303.33 503.988Z" fill="#454C5E"/>
    <path d="M299.199 384.351H494.279L414.261 448.633L299.199 384.351Z" fill="#066FD1"/>
    <path d="M299.199 384.351H494.279L414.261 448.633L299.199 384.351Z" fill="black" opacity="0.21"/>
    <path d="M462.92 459.459L453.88 478.319L288.709 422.742C281.343 420.287 276.321 413.367 276.21 405.555L275.987 391.716C275.875 386.583 277.995 381.561 281.79 377.989L293.062 367.387C299.2 361.696 308.463 360.803 315.494 365.267L462.92 459.459Z" fill="#066FD1"/>
    <path d="M462.92 459.459L453.88 478.319L288.709 422.742C281.343 420.287 276.321 413.367 276.21 405.555L275.987 391.716C275.875 386.583 277.995 381.561 281.79 377.989L293.062 367.387C299.2 361.696 308.463 360.803 315.494 365.267L462.92 459.459Z" fill="black" opacity="0.1"/>
    <path d="M353.773 453.544L362.813 472.405L517.158 421.961C524.189 419.505 528.765 412.809 528.542 405.332L528.319 391.717C528.207 386.583 526.087 381.672 522.404 378.101L511.467 367.276C505.552 361.472 496.735 360.356 490.151 364.597L353.773 453.544Z" fill="#066FD1"/>
    <path d="M352.434 414.149C349.644 420.621 338.93 424.193 330.56 422.519C309.69 418.278 299.534 380.333 297.749 357.008C296.298 337.701 299.981 319.622 305.003 299.757C306.007 295.851 307.012 291.945 308.128 287.815C310.583 278.329 313.038 270.517 314.936 265.16L324.645 271.41C331.899 275.986 339.042 280.673 346.296 285.248C344.51 287.369 342.836 289.601 341.274 291.833C340.939 292.391 340.492 293.061 340.158 293.619C337.479 298.083 335.247 302.77 333.685 307.68C328.774 323.082 330.113 338.148 331.006 348.08C331.676 356.339 333.238 364.597 335.693 372.521C343.617 396.962 356.228 405.444 352.434 414.149Z" fill="#FFCB9D"/>
    <path d="M341.388 291.721C341.053 292.279 340.607 292.949 340.272 293.507C337.593 297.971 335.361 302.658 333.799 307.569C326.21 296.074 313.376 297.19 305.117 299.533C306.122 295.627 307.126 291.721 308.242 287.592C310.697 278.106 313.153 270.294 315.05 264.937L324.759 271.186L341.388 291.721Z" fill="black" opacity="0.1"/>
    <path d="M420.735 151.103C420.4 155.679 419.731 162.375 418.838 170.633C418.615 172.419 418.391 174.093 418.28 174.539C416.941 183.579 414.374 192.396 410.803 200.766C410.021 202.44 409.352 204.002 408.459 205.453C405.334 211.033 383.683 217.283 365.157 214.493C346.631 211.703 340.605 193.4 348.975 186.034C351.877 183.021 354.22 179.45 355.894 175.544C358.35 170.41 360.359 165.165 362.033 159.808C363.037 156.795 363.595 154.674 363.595 154.674L378.773 142.51L413.927 143.737C413.258 149.652 414.709 153.782 416.606 154.228C418.503 154.674 420.289 151.773 420.735 151.103Z" fill="#FFCB9D"/>
    <path d="M420.735 151.103C420.4 155.679 419.73 162.375 418.838 170.633C418.614 172.419 418.391 174.093 418.28 174.539C416.94 183.579 414.374 192.396 410.802 200.766C408.57 199.985 406.45 198.757 404.664 197.195C402.767 195.409 401.093 193.289 399.977 190.945C398.861 188.378 398.08 185.7 397.857 182.91C397.522 181.124 397.41 179.338 397.299 177.553C383.683 181.57 369.175 180.901 356.006 175.655C358.349 170.522 360.47 165.276 362.144 159.92C363.148 156.906 363.706 154.786 363.706 154.786L378.773 142.733L413.927 143.961C413.258 149.875 414.708 154.005 416.606 154.451C418.503 154.898 420.288 151.773 420.735 151.103Z" fill="black" opacity="0.1"/>
    <path d="M342.726 150.21C343.73 152.665 344.958 155.009 346.52 157.13C348.417 159.92 350.649 162.486 353.216 164.718C364.823 174.651 383.237 175.767 400.089 167.397C402.991 165.946 405.669 164.272 408.236 162.486H408.348V162.598C408.348 164.495 408.236 166.392 408.013 168.29C407.901 169.183 407.901 169.406 407.79 169.964L407.678 170.522C407.566 171.526 405.446 178.669 405.446 182.686C405.558 185.253 406.45 187.82 408.013 189.94C408.906 186.146 410.803 182.686 413.37 179.785C414.374 178.78 415.49 177.887 416.606 176.995C421.963 171.861 425.423 164.942 426.092 157.576C426.315 154.563 426.092 151.438 425.423 148.536C425.088 146.527 423.414 139.496 419.173 135.479C410.356 127.22 388.482 130.568 377.545 133.805C375.648 134.363 372.3 135.479 369.622 134.698C369.064 134.586 368.617 134.251 368.171 133.916C365.381 131.684 365.381 126.774 366.274 123.761C368.059 117.846 374.755 113.605 383.46 112.935C365.158 107.913 347.636 116.395 342.279 130.01C339.601 136.595 339.936 143.849 342.726 150.21Z" fill="#454C5E"/>
    <path d="M342.723 150.21C343.727 152.665 344.955 155.009 346.517 157.13C348.414 159.92 350.646 162.486 353.213 164.718C364.82 174.651 383.234 175.767 400.086 167.397C404.215 164.942 407.675 162.821 408.233 162.486H408.345L414.036 157.799C404.885 161.817 395.175 164.16 385.243 164.718C376.426 165.165 364.262 165.946 352.544 158.58C348.861 156.237 345.513 153.447 342.723 150.21Z" fill="black" opacity="0.5"/>
    <path d="M478.32 281.008C474.749 282.235 471.177 283.463 467.495 284.802C463.812 286.141 460.017 287.592 456.111 289.266C449.527 291.945 443.277 294.623 437.362 297.302C438.255 306.007 439.371 315.046 440.599 324.421C443.723 346.183 447.741 366.271 452.205 384.463C431.782 386.025 415.488 386.36 404.105 386.36C387.253 386.471 378.66 386.471 372.075 386.248C361.138 385.802 351.987 385.021 345.291 384.351C347.857 377.32 349.308 369.954 349.643 362.477C350.09 351.986 347.969 345.625 344.509 327.657C343.17 320.403 341.385 311.029 339.599 299.757C324.309 293.619 311.364 282.905 302.436 269.178C305.226 264.602 322.859 236.367 340.38 231.791C343.617 230.898 353.103 229.224 359.799 228.22C361.361 227.997 362.812 227.774 364.04 227.662C367.388 227.216 370.289 226.992 372.41 226.769C374.53 226.546 376.204 226.434 376.874 226.434C377.097 226.434 391.047 225.542 406.337 225.876C414.819 225.876 423.412 226.546 431.782 227.885C432.005 227.885 433.902 228.22 436.581 228.666C438.143 228.89 439.371 229.001 439.929 229.113C443.947 230.229 447.853 232.015 451.424 234.135C473.298 247.081 477.427 274.423 478.32 281.008Z" fill="#DADBE0"/>
    <path d="M437.366 297.301C438.259 306.118 439.375 315.158 440.602 324.421C443.727 345.96 447.745 365.936 452.209 384.462C431.786 386.025 415.492 386.36 404.108 386.36C398.528 386.36 389.712 386.36 372.079 386.248L349.535 386.136C377.882 360.468 404.22 328.55 423.416 288.596C424.866 285.695 426.206 282.793 427.433 279.78L431.451 298.417L437.366 297.301Z" fill="black" opacity="0.1"/>
    <path d="M481.446 357.008C479.772 380.333 469.617 418.278 448.636 422.519C440.265 424.193 429.663 420.621 426.762 414.148C423.748 407.229 431.226 400.31 438.368 385.467C440.377 381.338 442.051 376.985 443.502 372.633C444.841 368.392 445.957 364.039 446.738 359.687C447.52 355.223 447.966 351.317 448.189 348.192C449.082 339.152 450.198 325.648 446.627 311.698C445.287 306.229 443.167 300.984 440.489 296.074C445.511 293.842 450.644 291.61 456.113 289.378C460.019 287.815 463.813 286.364 467.496 285.025L470.063 284.132C470.398 285.36 470.733 286.699 471.068 288.038C473.634 297.971 476.201 307.457 478.098 316.608C480.888 330.001 482.451 343.17 481.446 357.008Z" fill="#FFCB9D"/>
    <path d="M477.986 316.385C465.375 305.113 452.541 308.796 446.626 311.698C445.287 306.229 443.167 300.984 440.488 296.074C445.51 293.842 450.644 291.61 456.113 289.378C460.019 287.815 463.813 286.364 467.496 285.025L470.063 284.132C470.398 285.36 470.732 286.699 471.067 288.038C473.634 297.748 476.089 307.122 477.986 316.385Z" fill="black" opacity="0.1"/>
    <path d="M406.451 226.323C406.786 230.675 396.518 234.916 383.573 235.809C370.627 236.702 359.913 233.912 359.578 229.559C359.578 229.113 359.69 228.555 359.801 228.108C361.364 227.885 362.815 227.662 364.042 227.55C367.39 227.104 370.292 226.881 372.412 226.658C374.533 226.434 376.207 226.323 376.876 226.323C377.1 226.323 391.05 225.43 406.339 225.765C406.451 225.876 406.451 226.1 406.451 226.323Z" fill="#FFCB9D"/>
</svg>
