<svg xmlns="http://www.w3.org/2000/svg" width="800" height="600" fill="none" viewBox="0 0 800 600">
    <path d="M122.039 299.98C122.039 347.019 171.768 381.134 193.74 419.11C216.427 458.283 221.862 518.153 261.06 540.866C299.05 562.838 353.122 538.266 400.173 538.266C447.224 538.266 501.283 562.838 539.285 540.866C578.471 518.153 583.918 458.283 606.605 419.11C628.603 381.173 678.268 347.058 678.268 299.98C678.268 252.903 628.603 218.827 606.566 180.89C583.879 141.704 578.432 81.795 539.246 59.134C501.27 37.162 447.185 61.7342 400.134 61.7342C353.083 61.7342 299.024 37.162 261.021 59.134C221.823 81.795 216.388 141.704 193.701 180.89C171.716 218.827 122 252.981 122 300.019" fill="black" opacity="0.07"/>
    <path d="M139.877 454.356C139.877 458.127 253.858 461.208 394.479 461.208C535.099 461.208 649.068 458.075 649.068 454.356C649.068 450.638 535.086 447.57 394.479 447.57C253.871 447.57 139.877 450.703 139.877 454.356Z" fill="#1D2535" opacity="0.5"/>
    <path d="M413.147 386.854H352.562C342.933 386.854 335.127 394.66 335.127 404.289V439.132C335.127 448.761 342.933 456.567 352.562 456.567H413.147C422.776 456.567 430.582 448.761 430.582 439.132V404.289C430.582 394.66 422.776 386.854 413.147 386.854Z" fill="#454C5E"/>
    <path d="M550.96 413.273H208.301C207.06 413.267 205.845 412.907 204.802 412.233C203.759 411.559 202.931 410.601 202.415 409.471C201.899 408.341 201.718 407.088 201.893 405.858C202.067 404.629 202.59 403.475 203.4 402.534L283.773 309.861C284.583 308.92 285.106 307.766 285.28 306.537C285.455 305.307 285.274 304.053 284.758 302.924C284.242 301.794 283.414 300.836 282.371 300.162C281.328 299.488 280.113 299.128 278.872 299.122H260.15C259.307 299.132 258.47 298.974 257.689 298.657C256.908 298.34 256.197 297.871 255.6 297.276C254.421 296.117 253.729 294.551 253.664 292.899C253.598 291.247 254.165 289.632 255.249 288.383L337.754 193.28C338.568 192.338 339.095 191.182 339.271 189.949C339.448 188.716 339.266 187.459 338.749 186.326C338.231 185.194 337.399 184.234 336.351 183.56C335.304 182.887 334.085 182.529 332.839 182.528H307.669C306.427 182.523 305.213 182.162 304.17 181.488C303.127 180.815 302.298 179.856 301.783 178.727C301.267 177.597 301.086 176.343 301.261 175.114C301.435 173.884 301.958 172.731 302.768 171.789L374.729 88.8286C375.339 88.126 376.093 87.5626 376.94 87.1765C377.787 86.7904 378.707 86.5906 379.637 86.5906C380.568 86.5906 381.487 86.7904 382.334 87.1765C383.181 87.5626 383.935 88.126 384.545 88.8286L425.785 136.4L456.494 171.789C457.303 172.731 457.826 173.884 458.001 175.114C458.175 176.343 457.994 177.597 457.478 178.727C456.963 179.856 456.134 180.815 455.091 181.488C454.048 182.162 452.834 182.523 451.592 182.528H426.422C425.178 182.531 423.961 182.891 422.915 183.565C421.869 184.24 421.039 185.2 420.523 186.332C420.007 187.464 419.827 188.721 420.003 189.952C420.18 191.184 420.707 192.339 421.52 193.28L475.332 255.308L504.026 288.383C505.109 289.632 505.676 291.247 505.611 292.899C505.545 294.551 504.853 296.117 503.675 297.276C503.075 297.872 502.363 298.342 501.579 298.659C500.795 298.976 499.957 299.133 499.111 299.122H480.39C479.147 299.125 477.931 299.484 476.886 300.157C475.841 300.83 475.01 301.788 474.493 302.918C473.976 304.048 473.793 305.303 473.968 306.533C474.142 307.764 474.665 308.919 475.475 309.861L489.958 326.555L555.861 402.534C556.671 403.475 557.194 404.629 557.369 405.858C557.543 407.088 557.362 408.341 556.846 409.471C556.331 410.601 555.502 411.559 554.459 412.233C553.416 412.907 552.202 413.267 550.96 413.273Z" fill="#DADBE0"/>
    <path d="M382.323 53.7905L387.926 71.0301C388.111 71.5981 388.471 72.0931 388.954 72.4435C389.438 72.794 390.02 72.9819 390.618 72.9802H408.728C409.326 72.9773 409.909 73.1644 410.394 73.5144C410.879 73.8644 411.239 74.3593 411.425 74.9278C411.61 75.4962 411.61 76.1087 411.424 76.677C411.238 77.2453 410.877 77.74 410.392 78.0897L395.74 88.7507C395.252 89.0968 394.888 89.5911 394.703 90.1602C394.518 90.7293 394.522 91.3429 394.713 91.9099L400.303 109.136C400.489 109.704 400.491 110.315 400.307 110.883C400.124 111.451 399.765 111.946 399.282 112.297C398.8 112.648 398.218 112.837 397.622 112.837C397.025 112.837 396.443 112.647 395.961 112.296L381.296 101.648C380.813 101.3 380.233 101.113 379.638 101.113C379.043 101.113 378.463 101.3 377.98 101.648L363.38 112.296C362.896 112.643 362.315 112.83 361.72 112.828C361.124 112.827 360.544 112.638 360.062 112.288C359.58 111.939 359.22 111.446 359.034 110.88C358.848 110.314 358.844 109.704 359.025 109.136L364.563 91.9619C364.748 91.3944 364.749 90.7828 364.564 90.2151C364.379 89.6474 364.02 89.1529 363.536 88.8027L348.884 78.1417C348.4 77.7927 348.039 77.2992 347.853 76.7321C347.667 76.1651 347.666 75.5538 347.85 74.986C348.033 74.4182 348.392 73.9232 348.874 73.5722C349.357 73.2211 349.938 73.0321 350.535 73.0323H368.659C369.255 73.0319 369.837 72.8432 370.32 72.493C370.803 72.1429 371.164 71.6491 371.35 71.0821L376.953 53.8425C377.131 53.2729 377.485 52.7743 377.964 52.4184C378.443 52.0626 379.022 51.8677 379.619 51.8619C380.216 51.8562 380.799 52.0397 381.285 52.3863C381.771 52.7328 382.134 53.2244 382.323 53.7905Z" fill="#066FD1"/>
    <path d="M339.419 371.604C355.115 371.604 367.839 358.88 367.839 343.184C367.839 327.487 355.115 314.763 339.419 314.763C323.722 314.763 310.998 327.487 310.998 343.184C310.998 358.88 323.722 371.604 339.419 371.604Z" fill="#066FD1"/>
    <path d="M550.975 413.273H383.676C402.189 384.774 435.68 340.011 461.566 331.248C470.745 328.266 480.322 326.684 489.973 326.555L555.876 402.534C556.686 403.475 557.209 404.629 557.383 405.858C557.558 407.088 557.377 408.342 556.861 409.471C556.346 410.601 555.517 411.559 554.474 412.233C553.431 412.907 552.217 413.267 550.975 413.273Z" fill="black" opacity="0.1"/>
    <path d="M451.606 182.528H307.67C361.963 181.722 400.836 158.658 425.799 136.4L456.507 171.789C457.317 172.731 457.84 173.884 458.014 175.114C458.189 176.343 458.008 177.597 457.492 178.727C456.977 179.856 456.148 180.815 455.105 181.488C454.062 182.162 452.848 182.523 451.606 182.528Z" fill="black" opacity="0.1"/>
    <path d="M503.675 297.276C503.075 297.872 502.363 298.342 501.579 298.659C500.796 298.976 499.957 299.134 499.112 299.122H260.15C382.686 292.518 444.533 272.171 475.333 255.309L504.026 288.384C505.11 289.632 505.676 291.247 505.611 292.899C505.546 294.551 504.854 296.117 503.675 297.276Z" fill="black" opacity="0.1"/>
    <path d="M547.072 255.777C542.964 250.745 535.943 249.887 531.12 250.745C517.222 252.994 506.717 271.144 501.217 300.579C500.788 298.771 500.268 297.094 499.839 295.287C493.066 270.91 485.538 259.404 476.073 258.754C473.441 258.678 470.843 259.362 468.59 260.725C466.337 262.087 464.525 264.071 463.371 266.438C457.572 278.139 467.882 299.317 481.404 319.95C486.253 327.283 491.531 334.538 496.719 341.259L503.831 335.786L501.516 332.756L503.453 332.418L509.954 337.463C514.907 331.04 519.484 325.021 523.449 319.326C530.749 309.401 537.298 298.945 543.042 288.046C550.96 272.678 552.195 262.147 547.072 255.777ZM490.933 318.182C475.332 295.04 467.973 277.515 471.432 270.481C471.725 269.782 472.19 269.168 472.783 268.695C473.376 268.223 474.078 267.907 474.825 267.777C475.043 267.724 475.27 267.724 475.488 267.777C481.872 268.193 490.296 289.411 495.952 317.532C496.68 320.938 497.252 324.488 497.85 328.154C495.458 324.709 493.196 321.341 490.985 318.195L490.933 318.182ZM514.049 317.389C511.826 320.444 509.486 323.513 506.977 326.841C507.263 323.474 507.549 320.093 507.874 316.934C511.631 284.431 521.187 261.627 532.472 259.625H532.576C535.254 259.144 538.687 259.755 540.104 261.497C542.067 263.798 545.174 274.498 514.101 317.402L514.049 317.389Z" fill="#066FD1"/>
    <path d="M523.503 319.482C519.42 325.19 514.948 331.183 509.994 337.606L503.494 332.561L501.557 332.912L503.793 335.864L496.681 341.337C491.481 334.616 486.215 327.361 481.379 320.028C484.239 319.3 487.45 318.728 490.896 318.117C493.002 321.276 495.368 324.618 497.864 328.063L495.992 317.428L498.93 317.129C500.894 316.999 502.831 316.869 504.963 316.83C505.959 316.772 506.957 316.772 507.953 316.83C507.55 320.106 507.238 323.331 507.056 326.737C509.565 323.409 511.88 320.236 514.129 317.285C517.312 317.74 520.449 318.475 523.503 319.482Z" fill="black" opacity="0.1"/>
    <path d="M454.726 332.484L549.206 334.408C551.901 334.476 554.46 335.608 556.324 337.557C558.187 339.506 559.204 342.113 559.152 344.809L557.227 442.395C557.156 445.089 556.022 447.644 554.074 449.505C552.125 451.366 549.52 452.381 546.826 452.328L452.347 450.417C449.654 450.345 447.098 449.212 445.237 447.263C443.376 445.315 442.362 442.71 442.414 440.016L444.338 342.429C444.433 339.745 445.572 337.204 447.512 335.346C449.452 333.489 452.04 332.462 454.726 332.484Z" fill="#066FD1"/>
    <path d="M562.83 380.588L513.49 379.6L514.44 332.041C514.461 330.862 514.015 329.722 513.199 328.869C512.383 328.017 511.264 327.522 510.084 327.491L493.092 327.192C491.913 327.174 490.775 327.621 489.923 328.436C489.072 329.252 488.575 330.369 488.541 331.547L487.592 379.08L441.893 378.156C440.717 378.142 439.582 378.591 438.733 379.406C437.884 380.22 437.39 381.336 437.356 382.512L437.057 399.517C437.056 400.679 437.508 401.796 438.316 402.63C439.124 403.465 440.225 403.953 441.386 403.99L487.059 404.913L486.11 452.419C486.089 453.595 486.534 454.732 487.347 455.582C488.16 456.432 489.276 456.926 490.452 456.957L507.458 457.256C508.634 457.277 509.771 456.832 510.621 456.019C511.471 455.205 511.965 454.089 511.995 452.913L512.957 405.42L562.362 406.421C563.54 406.439 564.679 405.991 565.53 405.176C566.382 404.361 566.878 403.244 566.912 402.066L567.211 385.06C567.195 383.895 566.731 382.78 565.916 381.947C565.1 381.114 563.995 380.628 562.83 380.588Z" fill="#DADBE0"/>
    <path d="M352.601 247.833C363.372 247.833 372.103 239.102 372.103 228.331C372.103 217.561 363.372 208.829 352.601 208.829C341.831 208.829 333.1 217.561 333.1 228.331C333.1 239.102 341.831 247.833 352.601 247.833Z" fill="white"/>
    <path d="M395.324 168.617C402.21 168.617 407.792 163.035 407.792 156.149C407.792 149.263 402.21 143.681 395.324 143.681C388.438 143.681 382.855 149.263 382.855 156.149C382.855 163.035 388.438 168.617 395.324 168.617Z" fill="#454C5E"/>
    <path d="M428.802 291.049C435.688 291.049 441.27 285.467 441.27 278.581C441.27 271.695 435.688 266.113 428.802 266.113C421.916 266.113 416.334 271.695 416.334 278.581C416.334 285.467 421.916 291.049 428.802 291.049Z" fill="#066FD1"/>
    <path d="M567.186 385.073L566.887 402.079C566.853 403.256 566.356 404.372 565.504 405.185C564.652 405.998 563.514 406.442 562.336 406.421L557.942 406.33L557.227 442.447C557.152 445.139 556.017 447.693 554.069 449.553C552.122 451.413 549.519 452.429 546.826 452.38L512.061 451.678V452.913C512.033 454.092 511.541 455.211 510.691 456.027C509.84 456.843 508.702 457.29 507.523 457.269L490.518 456.97C489.341 456.936 488.225 456.439 487.412 455.587C486.599 454.735 486.154 453.597 486.175 452.419V451.119L469.131 450.794C475.111 446.894 480.832 442.681 486.409 438.391C495.594 431.219 504.391 423.564 512.763 415.457C516.182 412.168 519.445 408.878 522.579 405.628C531.211 396.644 538.739 387.933 545.032 380.172C550.648 373.255 555.277 367.08 558.813 362.139L558.397 380.445L562.778 380.536C563.96 380.566 565.083 381.058 565.907 381.906C566.73 382.754 567.189 383.891 567.186 385.073Z" fill="black" opacity="0.1"/>
</svg>
