<svg xmlns="http://www.w3.org/2000/svg" width="800" height="600" fill="none" viewBox="0 0 800 600">
    <path d="M627.859 345.516C627.859 383.993 587.187 411.907 569.238 442.966C550.681 474.941 546.237 523.97 514.187 542.526C483.118 560.507 438.896 540.394 400.419 540.394C361.942 540.394 317.731 560.496 286.672 542.526C254.697 524.002 250.167 475.005 231.621 442.966C213.651 411.907 173 383.993 173 345.516C173 307.039 213.63 279.156 231.621 248.098C250.167 216.122 254.622 167.094 286.672 148.516C317.731 130.556 361.953 150.648 400.419 150.648C438.885 150.648 483.118 130.546 514.187 148.516C546.162 167.062 550.681 216.048 569.238 248.098C587.208 279.156 627.859 307.06 627.859 345.516Z" fill="black" opacity="0.07"/>
    <path d="M199 529.009C199 531.747 289.375 534 400.5 534C511.625 534 602 531.747 602 529.009C602 526.27 511.625 524 400.5 524C289.375 524 199 526.253 199 529.009Z" fill="#1D2535" opacity="0.5"/>
    <path d="M555.827 357.837C555.827 271.845 485.865 201.893 399.884 201.893C313.902 201.893 243.93 271.845 243.93 357.837C243.943 384.961 251.029 411.614 264.486 435.164C277.944 458.715 297.309 478.35 320.67 492.133C318.617 492.615 316.679 493.499 314.968 494.734L312.41 496.588C299.918 505.637 306.324 525.366 321.747 525.366H479.001C494.435 525.366 500.84 505.616 488.338 496.588L485.791 494.734C483.857 493.345 481.641 492.403 479.3 491.973C502.599 478.178 521.907 458.557 535.325 435.038C548.743 411.52 555.809 384.914 555.827 357.837ZM399.884 505.627C318.389 505.627 252.094 439.331 252.094 357.837C252.094 276.342 318.389 210.047 399.884 210.047C481.378 210.047 547.663 276.342 547.663 357.837C547.663 439.331 481.368 505.627 399.884 505.627Z" fill="#454C5E"/>
    <path d="M525.495 357.837C525.469 390.259 512.898 421.413 490.413 444.773C467.929 468.132 437.277 481.884 404.88 483.147C372.482 484.41 340.853 473.085 316.619 451.547C292.385 430.009 277.426 399.928 274.877 367.606C272.328 335.284 282.386 303.23 302.945 278.159C323.503 253.088 352.967 236.946 385.162 233.115C417.357 229.284 449.785 238.061 475.653 257.607C501.521 277.153 518.821 305.952 523.928 337.97C524.975 344.54 525.499 351.183 525.495 357.837Z" fill="#DADBE0"/>
    <path d="M523.93 337.969C434.794 373.036 372.911 316.535 333.144 293.854C320.29 286.521 306.328 287.182 292.973 291.85C306.44 270.043 326.255 252.877 349.76 242.655C373.264 232.433 399.332 229.645 424.466 234.664C449.6 239.684 472.598 252.271 490.373 270.736C508.148 289.202 519.85 312.662 523.909 337.969H523.93Z" fill="black" opacity="0.1"/>
    <path d="M537.828 361.056V354.629C537.828 351.579 535.356 349.108 532.307 349.108H508.411C505.362 349.108 502.89 351.579 502.89 354.629V361.056C502.89 364.105 505.362 366.577 508.411 366.577H532.307C535.356 366.577 537.828 364.105 537.828 361.056Z" fill="#066FD1"/>
    <path d="M396.669 495.778H403.096C406.145 495.778 408.617 493.306 408.617 490.257V466.361C408.617 463.312 406.145 460.84 403.096 460.84H396.669C393.62 460.84 391.148 463.312 391.148 466.361V490.257C391.148 493.306 393.62 495.778 396.669 495.778Z" fill="#066FD1"/>
    <path d="M260.812 354.618V361.045C260.812 364.094 263.284 366.566 266.334 366.566H290.23C293.279 366.566 295.751 364.094 295.751 361.045V354.618C295.751 351.569 293.279 349.097 290.23 349.097H266.334C263.284 349.097 260.812 351.569 260.812 354.618Z" fill="#066FD1"/>
    <path d="M404.031 365.01L338.045 334.793C337.471 334.531 336.955 334.158 336.525 333.696C336.095 333.234 335.761 332.692 335.54 332.1C335.32 331.509 335.219 330.88 335.241 330.249C335.264 329.619 335.411 328.999 335.674 328.425C335.936 327.851 336.309 327.334 336.771 326.905C337.233 326.475 337.775 326.14 338.367 325.92C338.958 325.7 339.587 325.598 340.218 325.621C340.848 325.644 341.468 325.791 342.042 326.053L395.739 350.642L403.104 271.877C403.162 271.247 403.344 270.634 403.638 270.075C403.933 269.515 404.335 269.019 404.822 268.615C405.308 268.21 405.869 267.906 406.474 267.718C407.078 267.531 407.713 267.464 408.343 267.523C408.973 267.581 409.585 267.762 410.145 268.057C410.704 268.352 411.2 268.754 411.605 269.24C412.009 269.727 412.313 270.288 412.501 270.892C412.688 271.496 412.755 272.131 412.697 272.761L404.031 365.01Z" fill="#454C5E"/>
    <path d="M372.513 207.084H405.799C408.195 207.073 410.489 206.115 412.182 204.42C413.874 202.726 414.829 200.43 414.837 198.035V192.482C413.953 190.35 413.057 188.218 412.183 186.087C407.686 175.13 403.497 164.312 399.617 153.632C399.841 155.039 401.355 166.038 393.222 175.013C385.09 183.987 373.93 183.539 372.513 183.433C370.116 183.458 367.823 184.414 366.118 186.097C365.271 186.933 364.599 187.929 364.142 189.027C363.684 190.125 363.45 191.303 363.453 192.493V198.046C363.464 200.443 364.423 202.739 366.12 204.432C367.818 206.125 370.115 207.078 372.513 207.084Z" fill="#DADBE0"/>
    <path d="M372.513 207.084H405.799C408.195 207.073 410.489 206.115 412.182 204.42C413.874 202.726 414.829 200.43 414.837 198.035V192.482C413.953 190.35 413.057 188.218 412.183 186.087C407.686 175.13 403.497 164.312 399.617 153.632C399.841 155.039 401.355 166.038 393.222 175.013C385.09 183.987 373.93 183.539 372.513 183.433C370.116 183.458 367.823 184.414 366.118 186.097C365.271 186.933 364.599 187.929 364.142 189.027C363.684 190.125 363.45 191.303 363.453 192.493V198.046C363.464 200.443 364.423 202.739 366.12 204.432C367.818 206.125 370.115 207.078 372.513 207.084Z" fill="#A6A9B3"/>
    <path d="M451.079 179.457H416.354C410.661 179.457 406.047 184.072 406.047 189.764V197.662C406.047 203.354 410.661 207.969 416.354 207.969H451.079C456.771 207.969 461.385 203.354 461.385 197.662V189.764C461.385 184.072 456.771 179.457 451.079 179.457Z" fill="#DADBE0"/>
    <path d="M451.079 179.457H416.354C410.661 179.457 406.047 184.072 406.047 189.764V197.662C406.047 203.354 410.661 207.969 416.354 207.969H451.079C456.771 207.969 461.385 203.354 461.385 197.662V189.764C461.385 184.072 456.771 179.457 451.079 179.457Z" fill="#A6A9B3"/>
    <path d="M437.031 164.461C437.458 164.162 455.811 159.931 459.35 147.056C461.279 140.021 456.408 134.969 452.049 123.874C450.067 118.843 442.68 99.3592 446.134 83.638C450.226 65.1989 468.602 54.4232 477.746 50C471.97 75.058 476.681 89.4362 482.212 98.0695C490.174 110.401 500.513 111.457 506.247 126.57C507.633 130.247 513.25 145.169 505.565 158.364C499.17 169.321 487.446 172.508 482.713 173.915C459.275 180.886 439.472 166.315 437.031 164.461Z" fill="#066FD1"/>
    <path d="M329.925 131.057C329.925 131.057 321.632 107.556 292.684 101.011C292.684 101.011 291.352 138.955 310.452 154.069C329.552 169.183 329.925 131.057 329.925 131.057Z" fill="#066FD1"/>
    <path d="M336.512 122.936C336.512 122.936 331.023 95.6394 355.068 72.8411C355.068 72.8411 378.027 108.472 368.349 133.903C358.671 159.334 336.512 122.936 336.512 122.936Z" fill="#066FD1"/>
    <path d="M319.424 189.795C310.197 183.781 303.488 174.6 300.562 163.981L300.636 163.992C298.194 155.156 298.498 145.786 301.51 137.128C304.522 128.469 310.098 120.933 317.497 115.52C324.896 110.108 333.767 107.076 342.931 106.828C352.095 106.58 361.117 109.127 368.798 114.131C376.479 119.136 382.455 126.359 385.931 134.842C386.913 137.238 387.682 139.702 388.236 142.206C393.506 141.633 399.381 141.496 405.483 142.195C412.955 143.09 420.371 144.403 427.695 146.128C432.251 147.18 436.858 147.998 441.498 148.58C447.545 149.632 453.766 148.956 459.447 146.629C465.404 150.871 470.302 156.429 473.761 162.873C478.142 171.183 479.995 180.594 479.09 189.945V208.15C479.163 209.246 478.969 210.343 478.525 211.347C473.025 223.498 431.905 210.559 427.45 208.821C426.241 208.399 425.186 207.623 424.423 206.594C422.952 204.462 423.357 201.723 423.773 200.199C423.773 198.518 424.184 196.862 424.969 195.376C425.755 193.89 426.892 192.618 428.281 191.672C423.602 191.672 418.987 191.587 414.425 191.501L411.484 191.363C407.421 197.126 404.051 203.347 401.443 209.898C394.398 227.66 394.416 244.597 394.43 257.741C394.443 270.207 394.453 279.262 388.429 282.375C386.918 283.119 385.257 283.513 383.572 283.525C381.887 283.538 380.221 283.171 378.698 282.45C362.905 274.354 370.614 217.946 376.414 183.546C375.938 184.033 375.451 184.509 374.952 184.974C368.249 191.228 359.801 195.292 350.731 196.628H350.656C339.761 198.239 328.652 195.808 319.424 189.795Z" fill="#DADBE0"/>
    <path d="M316.559 170.803C317.005 170.67 317.386 170.377 317.628 169.979C317.87 169.581 317.955 169.108 317.867 168.651C317.78 168.194 317.525 167.786 317.153 167.506C316.781 167.226 316.319 167.094 315.855 167.136L270.333 172.231C269.866 172.316 269.448 172.575 269.164 172.957C268.88 173.338 268.752 173.813 268.805 174.285C268.857 174.757 269.087 175.192 269.448 175.501C269.809 175.81 270.274 175.971 270.749 175.951L316.282 170.888L316.559 170.803Z" fill="#066FD1"/>
    <path d="M291.116 193.303L291.414 193.217L319.425 180.033C319.664 179.94 319.883 179.799 320.065 179.618C320.248 179.437 320.392 179.221 320.488 178.982C320.584 178.743 320.629 178.488 320.622 178.231C320.615 177.974 320.554 177.721 320.445 177.488C320.336 177.255 320.18 177.047 319.988 176.877C319.795 176.707 319.569 176.578 319.324 176.499C319.08 176.42 318.821 176.392 318.565 176.417C318.31 176.442 318.061 176.519 317.837 176.644L289.816 189.828C289.408 190.041 289.093 190.396 288.929 190.825C288.765 191.255 288.763 191.729 288.924 192.16C289.085 192.59 289.398 192.947 289.803 193.163C290.209 193.38 290.679 193.441 291.127 193.335L291.116 193.303Z" fill="#066FD1"/>
    <path d="M339.293 171.208C342.677 171.208 345.421 168.464 345.421 165.079C345.421 161.694 342.677 158.95 339.293 158.95C335.908 158.95 333.164 161.694 333.164 165.079C333.164 168.464 335.908 171.208 339.293 171.208Z" fill="#454C5E"/>
    <path d="M395.26 168.106C395.676 167.988 396.039 167.73 396.287 167.375C396.535 167.021 396.652 166.591 396.62 166.159C396.587 165.728 396.406 165.321 396.108 165.007C395.81 164.694 395.412 164.493 394.982 164.439L364.233 160.848C363.76 160.821 363.295 160.973 362.93 161.275C362.565 161.577 362.328 162.005 362.266 162.475C362.204 162.944 362.322 163.419 362.596 163.805C362.869 164.192 363.279 164.46 363.743 164.557H363.796L394.545 168.117C394.782 168.161 395.025 168.157 395.26 168.106Z" fill="#066FD1"/>
    <path d="M404.638 144.743C405.111 144.612 405.514 144.3 405.76 143.876C406.006 143.451 406.076 142.947 405.954 142.471C405.833 141.996 405.53 141.587 405.111 141.332C404.692 141.077 404.189 140.997 403.711 141.108L359.138 151.617C358.682 151.756 358.297 152.063 358.059 152.476C357.821 152.888 357.749 153.376 357.858 153.839C357.966 154.303 358.247 154.708 358.643 154.972C359.039 155.236 359.521 155.34 359.99 155.263L404.564 144.764L404.638 144.743Z" fill="#066FD1"/>
    <path d="M453.74 166.433C453.74 166.433 437.412 173.894 436.186 185.81C436.175 185.81 433.276 165.996 453.74 166.433Z" fill="#A6A9B3"/>
</svg>
