<svg xmlns="http://www.w3.org/2000/svg" width="800" height="600" fill="none" viewBox="0 0 800 600">
    <path d="M122 300C122 346.909 171.675 381.115 193.683 419.095C216.32 458.332 221.854 518.068 260.965 540.831C298.945 562.839 353.021 538.315 399.93 538.315C446.839 538.315 500.915 562.839 538.895 540.831C578.006 518.194 583.54 458.332 606.177 419.095C628.185 381.115 677.86 347.034 677.86 300C677.86 252.966 628.059 218.885 606.177 180.905C583.54 141.668 578.006 81.8061 538.895 59.1693C500.915 37.1613 446.839 61.6845 399.93 61.6845C353.021 61.6845 298.945 37.1613 260.965 59.1693C221.728 81.8061 216.32 141.668 193.683 180.905C171.801 219.01 122 252.966 122 300Z" fill="black" opacity="0.07"/>
    <path d="M123.637 515.176C123.637 517.314 244.492 519.074 393.518 519.074C542.544 519.074 663.399 517.314 663.399 515.176C663.399 513.038 542.544 511.277 393.518 511.277C244.492 511.277 123.762 513.163 123.637 515.176Z" fill="#1D2535" opacity="0.5"/>
    <path d="M437.911 314.84C437.282 316.349 436.779 317.984 436.528 319.619C436.402 320.625 436.276 321.505 436.276 322.511C436.024 331.189 441.432 338.483 448.097 338.608C454.134 338.734 459.29 333.201 460.422 325.781C460.548 324.901 460.673 324.02 460.673 323.014C460.673 322.134 460.673 321.254 460.548 320.373C459.793 312.953 454.889 307.043 448.852 306.917C444.199 306.791 440.175 310.061 437.911 314.84Z" fill="#FFCB9D"/>
    <path d="M437.909 314.84C437.28 316.349 436.777 317.984 436.525 319.619C444.574 321.128 452.623 323.14 460.42 325.781C460.546 324.901 460.671 324.02 460.671 323.014C460.671 322.134 460.671 321.254 460.546 320.373C459.791 312.953 454.886 307.043 448.85 306.917C444.197 306.791 440.172 310.061 437.909 314.84Z" fill="black" opacity="0.1"/>
    <path d="M341.201 226.933L364.09 196.625C374.15 195.493 384.337 195.871 394.272 197.38C413.136 200.398 429.485 208.069 438.54 214.609C463.566 232.718 473.752 273.59 465.326 316.475L406.219 314.966C409.74 310.941 426.341 291.448 422.694 266.296C421.813 259.883 419.424 243.785 405.465 235.611C394.146 228.946 381.947 231.461 378.426 232.341L341.201 226.933Z" fill="#066FD1"/>
    <path d="M451.871 235.611C450.613 238.126 449.607 240.767 448.727 243.408C449.607 242.528 450.361 241.521 450.739 240.39C451.116 238.755 451.493 237.246 451.871 235.611Z" fill="black" opacity="0.1"/>
    <path d="M466.206 240.264L466.08 239.761C465.326 236.868 464.697 233.85 464.068 230.832L467.338 231.586C468.847 231.964 470.607 232.467 472.745 233.221H472.871C471.991 230.077 471.362 226.808 470.733 223.664C469.979 219.136 469.727 214.483 469.853 209.956C465.703 209.453 461.679 209.327 457.528 209.578C457.403 209.578 457.151 209.704 457.025 209.704C453.001 209.956 448.851 210.207 445.078 210.71C435.646 211.716 426.214 213.477 417.034 215.866C408.23 218.256 399.553 221.274 391.253 225.173C389.115 226.179 386.977 227.185 384.965 228.442C384.085 228.945 383.33 229.449 382.575 229.826C381.066 230.58 379.683 231.586 378.425 232.593C375.659 234.605 362.454 239.384 355.537 240.012C352.141 240.264 338.182 240.515 315.294 215.866C303.975 203.668 273.416 270.321 310.766 277.992C349.375 285.915 379.934 261.014 384.21 257.493C384.588 274.974 384.965 292.454 385.342 310.061C385.594 320.75 385.845 331.692 386.097 342.381L434.137 334.584C451.115 331.817 468.218 329.051 485.196 326.158C484.818 324.02 484.19 321.128 483.435 317.606C477.65 290.442 474.003 276.357 466.206 240.264Z" fill="#DADBE0"/>
    <path d="M519.152 289.185C518.523 284.909 517.517 280.633 516.385 276.357C515.756 274.093 515.128 271.955 514.373 269.817L514.247 269.314C512.109 263.404 508.84 257.87 504.689 253.091C501.42 249.319 497.647 245.923 493.497 243.031C492.239 242.15 490.856 241.27 489.598 240.515C484.442 237.497 478.909 234.982 473.124 233.096C470.986 232.341 469.099 231.838 467.716 231.461L464.446 230.706C465.075 233.724 465.704 236.617 466.458 239.635L466.584 240.138C464.698 239.509 462.811 239.132 461.428 238.755C456.775 234.479 451.87 230.455 446.588 226.933C442.061 223.789 437.534 220.897 432.629 218.256C432.88 218.256 433.132 218.256 433.383 218.256C442.941 217.879 452.499 218.382 461.931 220.016C474.507 222.154 486.706 225.676 498.401 230.832C505.067 233.85 511.606 237.371 517.769 241.27C521.29 243.408 525.063 245.923 529.213 248.941C536.633 254.223 543.675 260.008 550.34 266.296C553.987 270.572 557.257 275.099 560.15 280.004L561.282 282.142C562.539 284.531 563.419 286.544 564.048 287.927C549.46 290.945 534.495 291.951 519.529 290.945L519.152 289.185Z" fill="black" opacity="0.1"/>
    <path d="M448.849 214.86C450.987 225.424 440.172 236.491 424.829 239.635C409.486 242.779 395.275 236.743 393.137 226.053C393.012 225.424 393.012 224.921 393.012 224.292C401.312 220.52 409.989 217.376 418.793 215.112C427.973 212.722 437.405 210.962 446.837 209.956C447.717 211.339 448.472 212.974 448.849 214.86Z" fill="#FFCB9D"/>
    <path d="M565.559 381.744L560.78 393.314L493.75 408.028L446.338 370.803C447.344 401.237 447.848 432.174 447.848 463.614C447.848 470.279 447.848 476.819 447.848 483.484L437.912 483.861C429.864 459.841 421.312 435.192 412.257 410.166C403.706 386.9 395.154 364.138 386.477 342.004L407.982 338.483L485.576 325.781C495.762 343.639 505.949 361.497 516.261 379.48L565.559 381.744Z" fill="#066FD1"/>
    <path d="M485.323 325.907L435.648 334.081L386.224 342.255L385.721 276.231L477.274 227.436C475.388 258.751 477.651 290.316 484.191 321.002C484.568 322.511 484.945 324.146 485.323 325.907Z" fill="black" opacity="0.1"/>
    <path d="M590.71 381.996L582.284 382.247C582.284 382.247 574.235 381.241 571.972 385.894C569.708 390.547 581.278 406.77 589.327 411.549L585.051 393.44L591.842 391.679L590.71 381.996Z" fill="#232B41"/>
    <path d="M453.88 510.523L451.239 502.474C451.239 502.474 449.856 494.425 444.7 493.671C439.544 492.916 427.345 508.636 425.207 517.691L441.179 508.385L444.826 514.421L453.88 510.523Z" fill="#232B41"/>
    <path d="M448.849 214.86C450.987 225.424 440.172 236.491 424.829 239.635C409.486 242.779 395.275 236.743 393.137 226.053C393.012 225.424 393.012 224.921 393.012 224.292C401.312 220.52 409.989 217.376 418.793 215.112C427.973 212.722 437.405 210.962 446.837 209.956C447.717 211.339 448.472 212.974 448.849 214.86Z" fill="black" opacity="0.1"/>
    <path d="M447.848 463.614C447.848 470.279 447.848 476.819 447.848 483.484L437.912 483.861C429.864 459.841 421.312 435.192 412.257 410.166C403.706 386.9 395.154 364.138 386.477 342.004L407.982 338.483L446.59 370.803C447.219 401.237 447.722 432.174 447.848 463.614Z" fill="black" opacity="0.1"/>
    <path d="M288.883 318.864L285.487 405.513L237.195 463.237L243.735 471.788L315.292 426.263L330.258 365.018L374.274 410.669C380.939 438.839 387.604 467.009 394.396 495.306L404.079 494.299C407.223 461.979 410.241 429.533 413.385 397.213L370.501 337.728L354.655 334.207L338.81 330.685L288.883 318.864Z" fill="#DADBE0"/>
    <path d="M220.218 497.318L218.332 470.657C218.332 470.657 224.997 468.267 228.141 472.04C231.285 475.813 225.752 491.91 220.218 497.318Z" fill="#232B41"/>
    <path d="M419.424 515.301L392.888 512.157C392.888 512.157 391.757 505.241 396.158 502.725C400.56 500.21 415.148 508.762 419.424 515.301Z" fill="#232B41"/>
    <path d="M311.523 124.942C312.53 128.715 313.787 134.5 315.422 141.291L316.428 144.686C318.692 152.232 321.836 159.4 325.86 166.191L328.25 169.964C331.394 174.366 350.761 177.007 366.103 172.605C381.446 168.203 384.339 151.854 376.541 146.447C373.775 144.183 371.385 141.542 369.499 138.398C366.858 134.374 364.468 130.098 362.456 125.696C361.199 123.181 360.57 121.546 360.57 121.546L346.359 113.246L316.805 118.528C318.063 123.558 317.183 127.206 315.674 127.709C314.164 128.212 311.901 125.319 311.523 124.942Z" fill="#FFCB9D"/>
    <path d="M369.624 138.272C364.342 141.416 358.557 143.554 352.52 144.812C346.61 145.944 340.448 146.07 334.411 145.063C334.788 148.962 334.663 152.861 333.908 156.759C333.279 158.897 332.147 160.783 330.764 162.544C329.506 164.179 327.871 165.437 325.985 166.317C321.961 159.526 318.817 152.358 316.553 144.812L315.547 141.416C313.786 134.751 312.529 128.966 311.648 125.068C311.9 125.445 313.912 128.589 315.421 128.086C315.673 127.96 316.05 127.709 316.176 127.457C317.056 126.199 317.433 123.055 316.427 118.905H316.805L346.107 113.875L360.318 122.301C360.318 122.301 362.078 126.199 362.204 126.451C363.336 128.589 364.468 130.601 365.851 132.487V132.613L369.624 138.272Z" fill="black" opacity="0.1"/>
    <path d="M381.445 107.713C380.691 111.234 378.427 114.252 375.283 116.139C374.528 121.295 372.265 126.074 368.743 129.972C359.437 140.159 341.202 141.794 323.847 133.619L323.721 133.745V133.871C323.973 135.506 324.224 137.015 324.602 138.524C324.602 139.027 324.853 139.404 324.853 139.907V140.41C326.111 143.68 327.117 146.95 327.746 150.345C327.871 152.483 327.368 154.747 326.236 156.633C325.105 153.489 323.218 150.848 320.829 148.585C319.948 147.83 318.942 147.327 317.936 146.698C312.78 143.051 309.259 137.644 308.127 131.481C307.875 130.601 307.875 129.846 307.875 128.966L307.75 128.84C302.09 127.457 298.695 121.798 299.953 116.139C301.084 111.863 304.731 108.719 309.133 108.216C306.492 101.299 310.013 93.6276 316.93 90.9866C319.445 90.1063 322.212 89.8548 324.853 90.4836C327.242 90.9866 329.38 92.2442 331.141 94.0048C333.656 87.088 341.328 83.5668 348.244 86.2077C353.023 87.9684 356.419 92.37 356.796 97.4004C359.814 92.4957 365.725 90.1063 371.259 91.3639C378.678 93.1245 383.08 100.419 381.445 107.713Z" fill="#232B41"/>
    <path d="M375.406 116.139C374.652 121.295 372.388 126.074 368.867 129.972C359.561 140.159 341.325 141.794 323.97 133.619L323.845 133.745V133.871C321.707 132.613 319.569 131.23 317.557 129.847L317.682 129.972C321.707 131.104 345.853 139.656 365.094 126.199C368.993 123.307 372.514 119.911 375.406 116.139Z" fill="black" opacity="0.5"/>
    <path d="M384.336 196.877L375.659 289.562L371.131 338.105L288.129 327.667L287.249 241.899L286.746 193.858L312.15 193.104C314.665 193.104 317.054 192.224 319.066 190.589C320.701 189.205 321.959 187.319 322.588 185.307L349.375 187.067C349.123 188.828 349.375 190.589 350.255 192.224C351.513 194.487 353.65 195.996 356.166 196.499L384.336 196.877Z" fill="#066FD1"/>
    <path d="M377.923 265.667L371.132 338.105L288.13 327.667L287.25 241.899L297.185 232.718C304.605 233.347 311.773 235.611 318.313 239.258C327.745 244.666 330.889 250.828 336.548 255.732C343.213 261.643 355.035 267.428 377.923 265.667Z" fill="black" opacity="0.1"/>
    <path d="M330.258 364.892L340.067 334.207L371.13 338.105L413.26 396.961L403.953 494.048L394.27 495.18L374.274 410.543L330.258 364.892Z" fill="black" opacity="0.1"/>
    <path d="M369.497 279.753C370.754 278.621 372.012 277.615 373.521 276.86C374.402 276.357 375.282 275.98 376.162 275.728C384.211 272.71 392.888 275.351 395.152 281.639C397.29 287.298 393.643 293.963 387.103 297.485C386.349 297.862 385.468 298.239 384.588 298.617C383.834 298.994 382.953 299.245 382.073 299.371C374.779 301.132 367.61 298.365 365.473 292.706C363.963 288.43 365.724 283.525 369.497 279.753Z" fill="#FFCB9D"/>
    <path d="M369.497 279.753C370.754 278.621 372.012 277.615 373.521 276.86C377.546 284.028 382.073 290.945 387.103 297.485C386.349 297.862 385.468 298.239 384.588 298.617C383.834 298.994 382.953 299.245 382.073 299.371C374.779 301.132 367.61 298.365 365.473 292.706C363.963 288.43 365.724 283.525 369.497 279.753Z" fill="black" opacity="0.1"/>
    <path d="M418.419 294.844C418.419 295.221 418.293 295.598 418.293 295.976C418.293 296.227 418.167 296.479 418.041 296.73C417.287 298.742 415.903 300.377 414.143 301.509L413.766 301.761C413.514 301.886 413.137 302.138 412.885 302.264C411.879 302.767 410.747 303.27 409.615 303.521C406.849 304.15 404.082 304.15 401.315 303.521C400.435 303.396 399.555 303.144 398.8 302.767C397.92 302.515 397.039 302.012 396.285 301.635C391.003 298.868 387.607 294.089 387.607 289.31C387.607 288.053 387.859 286.921 388.236 285.789C390.626 279.501 399.177 276.86 407.226 279.878C408.106 280.256 408.987 280.633 409.867 281.01C411.376 281.765 412.634 282.771 413.891 283.903C414.017 284.028 414.269 284.154 414.394 284.406C417.287 286.921 418.796 290.945 418.419 294.844Z" fill="#FFCB9D"/>
    <path d="M418.293 295.976C418.293 296.227 418.167 296.479 418.041 296.73C417.287 298.742 415.903 300.377 414.143 301.509L413.766 301.761C413.514 301.886 413.137 302.138 412.885 302.264C411.879 302.767 410.747 303.27 409.615 303.521C406.849 304.15 404.082 304.15 401.315 303.521C400.435 303.395 399.555 303.144 398.8 302.767C397.92 302.515 397.039 302.012 396.285 301.635C391.003 298.868 387.607 294.089 387.607 289.31C391.883 291.448 396.914 291.574 401.315 289.813C405.214 288.053 408.232 284.909 409.993 281.01C411.502 281.765 412.759 282.771 414.017 283.903C414.143 284.028 414.394 284.154 414.52 284.406C415.903 285.915 419.425 290.945 418.293 295.976Z" fill="black" opacity="0.1"/>
    <path d="M292.407 193.733C290.521 193.481 288.635 193.607 286.748 193.858C264.992 197.631 246.002 239.006 256.566 269.943C259.584 278.495 264.74 286.166 271.406 292.454C308.379 328.296 371.888 323.014 389.494 321.128C380.565 305.911 374.529 289.185 371.511 271.955C365.474 275.477 346.61 285.538 324.225 280.256C316.553 278.495 301.085 274.848 294.797 260.889C289.767 249.822 293.288 238.755 294.545 235.359C293.791 221.4 293.036 207.566 292.407 193.733Z" fill="#066FD1"/>
    <path d="M496.262 294.844C494.502 306.414 490.226 317.355 483.938 327.29C480.291 332.949 477.398 335.59 474.003 337.351C466.457 340.998 458.409 338.734 453.378 337.225C429.861 330.182 403.2 318.487 395.654 315.091L421.435 275.728C426.969 282.771 433.382 289.059 440.676 294.341C448.977 300.503 454.259 304.276 459.037 302.641C464.948 300.629 468.469 291.448 468.218 280.13C477.021 286.166 486.327 291.197 496.262 294.844Z" fill="#DADBE0"/>
    <path d="M217.957 272.333C217.957 272.333 204.123 272.081 197.458 281.639C193.433 287.298 193.811 293.712 194.062 296.353C196.074 323.769 238.204 345.651 250.025 340.243C250.528 339.992 252.038 339.237 252.289 337.98C253.295 333.955 241.348 329.051 231.539 322.637C219.34 314.714 199.47 297.359 202.74 284.783C203.368 282.268 205.758 276.734 217.957 272.333Z" fill="#232B41"/>
    <path d="M592.845 235.611C592.845 235.611 606.553 233.85 611.835 223.538C614.979 217.376 613.721 211.088 613.218 208.447C607.433 181.534 562.663 165.688 551.722 172.731C551.219 173.108 549.835 173.988 549.71 175.246C549.332 179.396 561.783 182.54 572.346 187.57C585.551 193.733 607.685 208.195 606.176 221.148C605.924 223.789 604.289 229.574 592.845 235.611Z" fill="#066FD1"/>
    <path d="M410.619 191.846C423.824 197.002 439.921 197.38 447.341 194.864C448.599 194.487 449.73 193.858 450.611 192.978C451.743 191.846 452.623 190.463 453.629 189.205C455.012 187.445 456.27 185.558 457.528 183.546C460.672 178.516 463.438 173.234 465.702 167.7C465.828 167.323 466.331 165.94 466.96 164.305C469.601 157.262 471.487 151.477 472.745 147.453C472.242 147.956 469.852 150.22 468.343 149.591C466.834 148.962 466.457 144.812 468.217 139.782L437.532 131.23L421.686 138.775C421.686 138.775 420.806 140.41 419.296 142.926C416.656 147.327 413.763 151.477 410.619 155.376C408.355 158.394 405.589 161.035 402.319 163.173C393.516 168.078 394.899 185.558 410.619 191.846Z" fill="#FFCB9D"/>
    <path d="M410.744 155.502C421.308 162.921 433.884 166.568 446.712 165.94C449.604 167.197 452.119 169.209 453.88 171.725C456.521 175.623 455.64 178.264 457.401 183.043L457.527 183.546C460.671 178.516 463.438 173.234 465.701 167.7C465.827 167.197 466.33 165.94 466.959 164.305C469.6 157.262 471.486 151.477 472.744 147.453C472.241 147.956 469.851 150.22 468.342 149.591C466.833 148.962 466.456 144.812 468.217 139.782L437.531 131.23L421.685 138.775C421.685 138.775 420.805 140.41 419.17 142.926C416.781 147.327 413.888 151.477 410.744 155.502Z" fill="black" opacity="0.1"/>
    <path d="M577.126 298.617C568.575 301.383 559.646 303.018 550.717 303.647C536.38 304.779 522.043 303.018 508.461 298.742C508.461 298.742 468.344 289.436 446.839 259.002C444.324 255.607 442.186 251.834 440.551 247.935C433.76 231.964 432.251 207.189 443.695 193.23C448.474 187.445 452.75 181.157 456.397 174.617C457.906 171.725 459.038 168.581 459.415 165.311L459.541 163.047C459.792 160.406 456.774 156.508 456.522 152.232C449.731 153.992 425.082 159.023 413.512 145.315C410.872 142.171 408.985 138.524 408.105 134.5C407.728 132.613 407.853 130.601 408.482 128.715C411.5 121.295 423.699 120.289 428.855 119.911C448.6 118.528 463.691 131.733 467.715 135.254C469.476 136.763 495.508 160.532 489.723 185.432C486.705 198.763 476.393 202.033 477.776 208.069C479.285 214.986 494.754 221.903 560.778 220.142C555.999 238.252 558.514 249.822 561.91 257.367C564.55 263.152 568.323 268.057 571.719 276.483C572.473 278.243 573.102 280.13 573.731 282.142C575.366 287.675 576.498 293.083 577.126 298.617Z" fill="#232B41"/>
    <path d="M577.125 298.617C568.448 300.88 559.644 302.641 550.715 303.647C536.379 304.779 522.042 303.018 508.46 298.742C508.46 298.742 468.343 289.436 446.838 259.002C444.322 255.607 442.184 251.834 440.55 247.935C433.759 231.964 432.249 207.189 443.694 193.23C448.472 187.445 452.748 181.157 456.395 174.617C450.233 196.374 452.497 219.513 462.809 239.635C475.134 260.26 494.501 275.602 517.389 282.771C527.701 286.292 538.768 287.172 549.458 285.412C557.381 283.903 564.926 281.01 571.717 276.609C572.472 278.369 573.101 280.256 573.73 282.268C575.49 287.55 576.622 293.083 577.125 298.617Z" fill="black" opacity="0.5"/>
    <path d="M408.357 134.625C409.238 138.65 411.124 142.297 413.765 145.441C425.461 159.149 450.11 154.118 456.775 152.358C459.29 151.1 461.68 149.465 463.943 147.704C444.325 152.735 423.574 147.83 408.357 134.625Z" fill="black" opacity="0.5"/>
    <path d="M438.791 234.982C434.516 228.568 430.617 225.676 426.97 226.179C422.82 226.808 420.305 231.838 419.299 234.856C416.658 231.838 410.998 226.43 405.339 227.814C400.812 228.945 397.542 234.479 395.656 244.162C394.775 248.69 394.021 254.978 396.913 257.493C397.794 258.122 399.051 258.373 400.057 258.122C404.962 257.116 412.256 249.444 417.035 243.785C416.658 245.923 415.652 247.935 414.017 249.57C412.759 250.325 412.13 251.708 412.005 253.091C411.879 256.235 414.645 259.631 416.909 262.146L418.418 259.631C414.897 255.732 414.645 254.098 414.52 253.594C414.645 253.217 414.897 252.84 415.274 252.588C418.167 250.702 419.676 244.666 420.43 241.018C421.94 243.156 423.197 245.294 424.203 247.684C424.203 248.313 424.203 248.816 424.077 249.444C423.826 251.708 423.449 255.481 426.215 257.493C427.725 258.625 429.737 263.278 431.372 269.943L433.887 269.189C431.875 261.14 429.611 256.11 427.221 254.475C426.467 253.846 426.341 252.714 426.593 250.199C426.718 249.319 426.718 248.438 426.718 247.558C426.09 245.546 425.209 243.534 423.952 241.773C429.108 244.414 435.899 247.181 439.546 246.552C440.552 246.426 441.432 245.923 441.935 245.043C443.319 242.402 440.804 238 438.791 234.982ZM397.919 254.726C397.919 254.601 396.536 253.343 398.045 245.42C399.68 236.868 402.321 232.09 405.842 231.209H406.094C410.621 230.329 415.652 235.359 417.789 237.749C409.992 247.684 400.309 256.613 397.919 254.726ZM439.546 243.031C438.666 244.666 430.24 241.899 421.437 236.994C422.317 234.605 424.203 230.203 427.347 229.574H427.473C430.114 229.197 433.258 231.712 436.779 236.994C440.049 241.773 439.672 243.031 439.546 243.031Z" fill="#066FD1"/>
</svg>
