<svg xmlns="http://www.w3.org/2000/svg" width="800" height="600" fill="none" viewBox="0 0 800 600">
    <path d="M121.028 300.015C121.028 347.05 170.768 381.157 192.704 419.123C215.496 458.379 220.868 518.194 260.099 540.861C298.077 562.847 352.16 538.256 399.195 538.256C446.23 538.256 500.3 562.847 538.279 540.861C577.46 518.194 582.944 458.305 605.587 419.123C627.61 381.108 677.238 347.05 677.238 300.015C677.238 252.98 627.51 218.86 605.562 180.907C582.944 141.651 577.46 81.7993 538.279 59.1191C500.263 37.1462 446.181 61.7866 399.145 61.7866C352.11 61.7866 298.04 37.1462 260.099 59.1191C220.918 81.7993 215.434 141.688 192.778 180.87C170.818 218.86 121.103 252.98 121.103 299.978" fill="black" opacity="0.07"/>
    <path d="M109.365 414.247L118.46 399.78L119.278 400.636L109.365 414.247Z" fill="#066FD1"/>
    <path d="M144.092 363.738C144.244 362.189 143.839 360.636 142.951 359.358C142.516 358.75 141.784 357.745 140.742 357.646C138.918 357.472 137.368 360.127 136.536 361.591C135.068 364.347 134.181 367.375 133.931 370.487C133.739 371.816 133.614 373.153 133.559 374.495L135.358 376.467L144.092 363.738Z" fill="#066FD1"/>
    <path d="M144.092 363.738C145.488 363.047 147.081 362.867 148.596 363.229C149.072 363.297 149.53 363.461 149.941 363.71C150.353 363.96 150.71 364.29 150.991 364.681C151.797 366.318 149.862 368.738 148.819 370.016C146.776 372.378 144.272 374.298 141.462 375.661C139.998 376.467 138.732 377.05 137.852 377.435L135.37 376.467L144.092 363.738Z" fill="#066FD1"/>
    <path d="M144.092 363.738C145.488 363.047 147.081 362.867 148.596 363.229C149.072 363.297 149.53 363.461 149.941 363.71C150.353 363.96 150.71 364.29 150.991 364.681C151.797 366.318 149.862 368.738 148.819 370.016C146.776 372.378 144.272 374.298 141.462 375.661C139.998 376.467 138.732 377.05 137.852 377.435L135.37 376.467L144.092 363.738Z" fill="black" opacity="0.2"/>
    <path d="M144.093 363.738C145.008 362.956 146.145 362.479 147.344 362.373C147.803 362.373 148.584 362.373 148.708 363.117C148.932 364.358 147.071 366.84 146.091 368.142C144.248 370.51 142.128 372.647 139.775 374.507C138.597 375.5 137.592 376.269 136.897 376.778L135.358 376.468L144.093 363.738Z" fill="#066FD1"/>
    <path d="M144.092 363.738C144.244 362.189 143.839 360.636 142.951 359.358C142.516 358.75 141.784 357.745 140.742 357.646C138.918 357.472 137.368 360.127 136.536 361.591C135.068 364.347 134.181 367.375 133.931 370.487C133.739 371.816 133.614 373.153 133.559 374.495L135.358 376.467L144.092 363.738Z" fill="black" opacity="0.15"/>
    <path d="M137.852 377.385L130.048 387.559L117.914 403.44L116.264 402.311L124.49 389.085C127.5 384.222 130.524 379.358 133.559 374.495C134.453 374.757 135.294 375.178 136.041 375.735C136.726 376.188 137.337 376.745 137.852 377.385Z" fill="#DADBE0"/>
    <path d="M130.085 387.609L117.914 403.44L116.264 402.311L124.49 389.085C126.363 388.552 128.299 388.031 130.085 387.609Z" fill="black" opacity="0.1"/>
    <path d="M305 366.976L315.707 349.966L316.663 350.971L305 366.976Z" fill="#066FD1"/>
    <path d="M345.844 307.583C346.015 305.761 345.536 303.937 344.492 302.434C343.971 301.727 343.115 300.549 341.886 300.424C339.752 300.226 337.929 303.377 336.924 305.052C335.201 308.298 334.158 311.861 333.859 315.524C333.586 317.472 333.474 319.097 333.425 320.239L335.534 322.559L345.844 307.583Z" fill="#066FD1"/>
    <path d="M345.845 307.583C347.483 306.772 349.355 306.565 351.13 307C351.691 307.075 352.23 307.265 352.715 307.558C353.199 307.85 353.619 308.239 353.947 308.7C354.902 310.623 352.619 313.464 351.403 314.978C348.986 317.751 346.032 320.005 342.718 321.603C341.006 322.559 339.517 323.241 338.475 323.7L335.547 322.559L345.845 307.583Z" fill="#066FD1"/>
    <path d="M345.845 307.583C347.483 306.772 349.355 306.565 351.13 307C351.691 307.075 352.23 307.265 352.715 307.558C353.199 307.85 353.619 308.239 353.947 308.7C354.902 310.623 352.619 313.464 351.403 314.978C348.986 317.751 346.032 320.005 342.718 321.603C341.006 322.559 339.517 323.241 338.475 323.7L335.547 322.559L345.845 307.583Z" fill="black" opacity="0.2"/>
    <path d="M345.844 307.583C346.913 306.661 348.247 306.101 349.653 305.983C350.199 305.983 351.105 305.983 351.254 306.851C351.527 308.303 349.343 311.218 348.177 312.769C346.002 315.539 343.502 318.038 340.733 320.214C339.343 321.38 338.164 322.286 337.346 322.881L335.534 322.521L345.844 307.583Z" fill="#066FD1"/>
    <path d="M345.844 307.583C346.015 305.761 345.536 303.937 344.492 302.434C343.971 301.727 343.115 300.549 341.886 300.424C339.752 300.226 337.929 303.377 336.924 305.052C335.201 308.298 334.158 311.861 333.859 315.524C333.586 317.472 333.474 319.097 333.425 320.239L335.534 322.559L345.844 307.583Z" fill="black" opacity="0.15"/>
    <path d="M338.524 323.7C335.472 327.679 332.415 331.665 329.355 335.661L315.087 354.271L313.151 352.944C316.369 347.757 319.591 342.571 322.816 337.385L333.487 320.239C334.556 320.52 335.566 320.996 336.464 321.641C337.26 322.209 337.956 322.905 338.524 323.7Z" fill="#DADBE0"/>
    <path d="M329.318 335.66L315.05 354.271L313.114 352.943C316.332 347.757 319.554 342.571 322.779 337.385C325.05 336.727 327.271 336.157 329.318 335.66Z" fill="black" opacity="0.1"/>
    <path d="M307.295 381.244L305.657 356.207L307.357 356.517L307.295 381.244Z" fill="#066FD1"/>
    <path d="M305.112 291.268C303.949 289.302 302.13 287.808 299.975 287.05C298.921 286.702 297.196 286.131 295.869 286.913C293.561 288.278 294.02 292.806 294.256 295.226C294.777 300.338 296.836 304.308 298.822 308.055C299.963 310.226 301.055 311.951 301.836 313.142L305.67 313.936L305.112 291.268Z" fill="#066FD1"/>
    <path d="M305.111 291.268C306.18 289.235 307.94 287.651 310.074 286.801C311.104 286.404 312.804 285.747 314.168 286.466C316.538 287.707 316.315 292.248 316.191 294.68C315.93 299.804 314.069 303.874 312.27 307.72C311.44 309.506 310.521 311.249 309.516 312.943L305.719 313.936L305.111 291.268Z" fill="#066FD1"/>
    <path d="M305.111 291.268C306.18 289.235 307.94 287.651 310.074 286.801C311.104 286.404 312.804 285.747 314.168 286.466C316.538 287.707 316.315 292.248 316.191 294.68C315.93 299.804 314.069 303.874 312.27 307.72C311.44 309.506 310.521 311.249 309.516 312.943L305.719 313.936L305.111 291.268Z" fill="black" opacity="0.2"/>
    <path d="M305.111 291.268C305.517 289.553 306.45 288.008 307.779 286.851C308.35 286.467 309.28 285.834 310.049 286.566C311.377 287.807 311.29 292.372 311.29 294.792C311.141 299.192 310.458 303.559 309.255 307.794C308.709 310.003 308.176 311.777 307.791 312.993L305.694 313.936L305.111 291.268Z" fill="#066FD1"/>
    <path d="M305.112 291.268C303.949 289.302 302.13 287.808 299.975 287.05C298.921 286.702 297.196 286.131 295.869 286.913C293.561 288.278 294.02 292.806 294.256 295.226C294.777 300.338 296.836 304.308 298.822 308.055C299.963 310.226 301.055 311.951 301.836 313.142L305.67 313.936L305.112 291.268Z" fill="black" opacity="0.15"/>
    <path d="M309.467 312.943C309.31 319.221 309.14 325.495 308.958 331.765C308.685 341.533 308.416 351.293 308.152 361.045L305.211 361.12L303.611 338.303L301.824 313.141C304.271 312.189 306.974 312.118 309.467 312.943Z" fill="#DADBE0"/>
    <path d="M308.958 331.765C308.685 341.533 308.416 351.293 308.151 361.045L305.211 361.12L303.61 338.303C305.409 335.983 307.246 333.775 308.958 331.765Z" fill="black" opacity="0.1"/>
    <path d="M58 520.067C58 522.437 204.255 524.36 384.654 524.36C565.053 524.36 711.283 522.437 711.283 520.067C711.283 517.697 565.04 515.811 384.654 515.811C204.267 515.811 58 517.759 58 520.067Z" fill="#1D2535" opacity="0.5"/>
    <path d="M344.505 132.507L330.944 153.599L325.658 129.12C332.142 128.098 338.782 129.291 344.505 132.507Z" fill="#DADBE0"/>
    <path d="M361.353 106.39L346.465 129.566C339.937 125.806 332.311 124.417 324.877 125.633L319.058 98.6604C333.627 95.9378 348.689 98.6903 361.353 106.39Z" fill="#066FD1"/>
    <path d="M322.233 129.814L327.519 154.281L306.427 140.72C310.312 135.404 315.884 131.56 322.233 129.814Z" fill="#DADBE0"/>
    <path d="M315.671 99.4668L321.49 126.44C314.256 128.387 307.916 132.769 303.537 138.847L280.36 123.896C288.723 111.685 301.295 102.986 315.671 99.4668Z" fill="#A7AAB3"/>
    <path d="M301.638 141.763C297.895 148.26 296.506 155.85 297.705 163.252L270.732 169.071C268.007 154.497 270.759 139.431 278.462 126.762L301.638 141.763Z" fill="#DADBE0"/>
    <path d="M325.621 157.234L301.142 162.52C300.135 156.026 301.346 149.382 304.579 143.661L325.621 157.234Z" fill="#066FD1"/>
    <path d="M310.894 184.629L295.931 207.818C283.73 199.45 275.042 186.878 271.526 172.507L298.499 166.676C300.443 173.908 304.821 180.248 310.894 184.629Z" fill="#A7AAB3"/>
    <path d="M326.353 160.659L312.792 181.751C307.485 177.88 303.639 172.333 301.874 166.006L326.353 160.659Z" fill="#DADBE0"/>
    <path d="M329.293 162.557L334.579 187.036C328.088 188.037 321.448 186.822 315.732 183.587L329.293 162.557Z" fill="#066FD1"/>
    <path d="M335.323 190.46L341.142 217.433C326.586 220.157 311.537 217.409 298.884 209.716L313.834 186.527C320.332 190.27 327.921 191.659 335.323 190.46Z" fill="#DADBE0"/>
    <path d="M353.76 175.386C349.888 180.693 344.335 184.536 338.003 186.292L332.73 161.812L353.76 175.386Z" fill="#DADBE0"/>
    <path d="M379.89 192.235C371.526 204.458 358.95 213.169 344.567 216.701L338.748 189.728C345.976 187.768 352.312 183.389 356.701 177.321L379.89 192.235Z" fill="#066FD1"/>
    <path d="M359.107 153.587C360.109 160.078 358.894 166.717 355.658 172.433L334.628 158.872L359.107 153.587Z" fill="#DADBE0"/>
    <path d="M389.506 147.023C392.223 161.583 389.475 176.634 381.788 189.294L358.6 174.331C362.35 167.827 363.74 160.228 362.533 152.817L389.506 147.023Z" fill="#A7AAB3"/>
    <path d="M358.376 150.162L333.896 155.448L347.457 134.355C352.776 138.242 356.624 143.812 358.376 150.162Z" fill="#DADBE0"/>
    <path d="M388.773 143.599L361.8 149.418C359.842 142.189 355.462 135.851 349.393 131.465L364.281 108.288C376.512 116.644 385.232 129.216 388.773 143.599Z" fill="#DADBE0"/>
    <path d="M372.595 385.5H310.137C308.602 385.495 307.094 385.902 305.77 386.678C304.432 387.439 303.32 388.542 302.548 389.874C301.776 391.206 301.373 392.72 301.378 394.259V511.68C301.381 514.002 302.305 516.228 303.947 517.87C305.589 519.512 307.815 520.436 310.137 520.439H372.595C374.917 520.436 377.143 519.512 378.785 517.87C380.427 516.228 381.351 514.002 381.354 511.68V394.259C381.351 391.937 380.427 389.711 378.785 388.069C377.143 386.427 374.917 385.503 372.595 385.5ZM374.356 511.68C374.358 511.912 374.314 512.143 374.226 512.358C374.138 512.573 374.009 512.769 373.845 512.934C373.681 513.099 373.486 513.229 373.272 513.319C373.057 513.408 372.827 513.454 372.595 513.454H310.137C309.669 513.451 309.221 513.262 308.891 512.93C308.561 512.598 308.376 512.148 308.376 511.68V394.259C308.376 393.792 308.561 393.344 308.892 393.013C309.222 392.683 309.67 392.497 310.137 392.497H372.595C372.826 392.496 373.056 392.54 373.271 392.628C373.485 392.716 373.68 392.846 373.844 393.01C374.008 393.174 374.138 393.369 374.226 393.583C374.314 393.798 374.358 394.027 374.356 394.259V511.68Z" fill="#066FD1"/>
    <path d="M381.354 394.259V438.441C379.079 437.423 376.747 436.468 374.356 435.575V394.259C374.358 394.027 374.314 393.797 374.226 393.583C374.138 393.368 374.008 393.174 373.844 393.01C373.68 392.846 373.485 392.716 373.271 392.628C373.056 392.54 372.826 392.496 372.595 392.497H310.137C309.67 392.497 309.222 392.683 308.892 393.013C308.561 393.344 308.376 393.792 308.376 394.259V421.877C305.894 421.629 303.5 421.443 301.378 421.269V394.259C301.373 392.72 301.776 391.206 302.548 389.874C303.32 388.542 304.432 387.439 305.77 386.678L310.212 385.5H372.595C374.917 385.503 377.143 386.427 378.785 388.069C380.427 389.711 381.351 391.937 381.354 394.259Z" fill="black" opacity="0.15"/>
    <path d="M301.614 338.204H381.118C385.116 338.204 388.951 339.792 391.778 342.619C394.605 345.446 396.193 349.281 396.193 353.279V393.8C396.193 397.802 394.603 401.639 391.774 404.468C388.945 407.298 385.107 408.887 381.106 408.887H301.614C297.616 408.887 293.781 407.299 290.954 404.472C288.127 401.645 286.539 397.811 286.539 393.813V353.291C286.537 351.31 286.926 349.349 287.683 347.519C288.44 345.688 289.55 344.025 290.95 342.624C292.35 341.223 294.012 340.111 295.842 339.353C297.672 338.594 299.633 338.204 301.614 338.204Z" fill="#DADBE0"/>
    <path d="M148.522 208.277C149.763 211.466 151.575 216.205 153.87 221.85C154.441 223.153 154.937 224.183 155.111 224.58C157.969 230.717 161.565 236.484 165.818 241.751C166.748 242.781 167.505 243.724 168.436 244.754C170.917 247.235 180.843 247.806 191.054 245.66C194.578 244.95 198.005 243.825 201.265 242.31C211.513 237.744 213.796 227.421 210.421 221.739C209.632 220.362 208.442 219.259 207.009 218.575C204.297 217.003 201.872 214.981 199.838 212.595C196.964 209.497 194.381 206.141 192.121 202.57C191.35 201.508 190.641 200.402 189.999 199.257L176.699 193.649L151.885 201.813C153.523 205.895 153.423 209.195 152.17 209.902C150.917 210.61 148.969 208.736 148.522 208.277Z" fill="#FFCB9D"/>
    <path d="M148.522 208.277C149.763 211.466 151.575 216.205 153.87 221.85C154.441 223.153 154.937 224.183 155.111 224.58C157.969 230.717 161.565 236.484 165.818 241.751C167.247 240.684 168.478 239.374 169.453 237.88C170.469 236.205 171.171 234.36 171.525 232.433C171.807 230.373 171.773 228.281 171.426 226.23C171.265 224.907 171.033 223.595 170.731 222.297C181.297 222.357 191.575 218.861 199.913 212.371C197.085 209.274 194.544 205.927 192.319 202.371C191.549 201.302 190.836 200.192 190.185 199.046L176.885 193.45L152.071 201.614C153.696 205.684 153.597 209.059 152.344 209.704C151.091 210.349 149.044 208.711 148.622 208.252" fill="black" opacity="0.1"/>
    <path d="M147.195 214.667C149.002 219.808 152.69 224.073 157.517 226.602C158.535 227.012 159.428 227.458 160.321 227.917C162.717 229.456 164.691 231.566 166.066 234.059C166.809 232.324 166.958 230.391 166.488 228.563C165.743 225.833 162.852 221.118 162.641 220.461L162.505 220.051C162.366 219.646 162.188 219.255 161.971 218.885C161.398 217.593 160.957 216.246 160.656 214.865V214.729C168.249 216.552 189.292 219.902 198.237 206.85C199.618 204.792 200.739 202.571 201.575 200.237C201.699 200.032 201.779 199.804 201.811 199.567C202.017 198.992 202.167 198.398 202.257 197.793L202.344 197.607C202.704 196.024 202.775 194.389 202.555 192.78V192.197C202.468 191.491 202.245 190.808 201.897 190.187C200.722 187.712 198.703 185.737 196.203 184.617C191.562 182.272 185.793 181.937 182.617 181.788C170.594 180.969 154.304 185.287 148.311 197.818C146.885 201.066 146.211 204.595 146.338 208.14C146.359 210.349 146.68 212.545 147.294 214.667" fill="#454C5E"/>
    <path d="M160.607 214.729C168.2 216.552 189.242 219.902 198.188 206.85C199.568 204.792 200.689 202.571 201.525 200.237C201.649 200.032 201.729 199.804 201.761 199.567C201.969 198.992 202.119 198.398 202.208 197.793C202.198 197.757 202.202 197.718 202.218 197.684C202.233 197.65 202.261 197.623 202.294 197.607C202.654 196.024 202.726 194.389 202.505 192.781C200.557 196.457 198.045 199.807 195.061 202.706C180.173 216.813 158.274 212.557 154.788 211.925H154.478C156.438 212.917 158.535 213.86 160.681 214.815" fill="black" opacity="0.5"/>
    <path d="M151.463 370.971L156.972 502.722H167.58L182.419 400.934L192.592 502.722H200.508L214.789 370.971H151.463Z" fill="#DADBE0"/>
    <path d="M179.59 521.097L155.706 518.404C155.706 518.404 154.85 512.201 158.535 510.067C162.22 507.933 175.632 515.303 179.627 521.097" fill="#454C5E"/>
    <path d="M214.789 521.097L190.88 518.404C190.88 518.404 190.024 512.201 193.709 510.067C197.394 507.933 210.806 515.303 214.801 521.097" fill="#454C5E"/>
    <path d="M192.593 502.722L182.419 400.934L186.948 370.971H214.789L200.508 502.722H192.593Z" fill="black" opacity="0.15"/>
    <path d="M133.05 375.549C134.01 376.474 134.785 377.573 135.333 378.787C137.728 382.956 137.443 387.472 134.428 390.028C130.544 393.279 123.733 392.175 119.018 387.311C118.492 386.817 118.041 386.248 117.678 385.624C114.353 381.12 114.216 375.698 117.678 372.832C121.475 369.718 128.423 370.872 133.05 375.549Z" fill="#FFCB9D"/>
    <path d="M133.05 375.549C134.01 376.474 134.785 377.573 135.333 378.788C135.147 378.862 134.924 379.085 134.738 379.172C132.182 381.257 133.497 385.041 132.02 385.847C130.544 386.654 128.484 382.77 124.849 383.254C123.281 383.518 121.751 383.977 120.296 384.619C119.44 384.917 118.534 385.339 118.534 385.339L117.765 385.81C114.427 381.294 114.303 375.884 117.765 373.018C121.474 369.718 128.422 370.872 133.05 375.549Z" fill="black" opacity="0.1"/>
    <path d="M308.387 331.244C307.147 331.758 305.839 332.088 304.504 332.224C297.878 332.72 291.886 329.234 291.104 324.283C290.434 319.941 294.007 315.859 299.454 314.568L301.613 314.147C307.729 313.638 313.102 316.541 314.665 320.822C314.739 321.206 314.938 321.678 315.012 322.062C315.72 326.107 312.854 329.631 308.387 331.244Z" fill="#FFCB9D"/>
    <path d="M308.387 331.243C307.147 331.758 305.839 332.088 304.504 332.224C297.878 332.72 291.886 329.234 291.104 324.283C290.434 319.941 294.007 315.859 299.454 314.568C299.454 314.767 299.652 315.04 299.727 315.437C301.179 318.613 304.504 323.042 308.275 323.514C310.893 323.911 313.015 322.273 314.591 320.933C314.665 321.33 314.864 321.802 314.938 322.174C315.72 326.107 312.854 329.631 308.387 331.243Z" fill="black" opacity="0.1"/>
    <path d="M244.007 276.107C242.878 274.121 237.903 264.357 228.262 261.652C227.002 261.302 225.709 261.078 224.404 260.982H155.371C154.564 260.846 153.497 260.685 152.219 260.548C149.908 260.298 147.583 260.207 145.259 260.275C142.948 260.215 140.64 260.495 138.41 261.106C137.01 261.588 135.667 262.221 134.403 262.992C124.688 269.047 112.145 304.618 112.145 304.618C108.633 314.56 105.883 324.755 103.919 335.115C103.658 336.653 103.373 338.341 103.112 340.673C102.079 349.763 102.342 358.953 103.894 367.969C105.164 374.736 107.221 381.332 110.023 387.621C116.512 382.15 123.174 376.592 129.663 371.12C128.388 357.848 128.634 344.473 130.395 331.256C131.934 319.928 133.77 314.432 134.912 311.69C137.275 305.938 140.373 300.516 144.13 295.561L145.805 312.646C146.512 319.705 147.219 326.641 147.927 333.738C149.167 346.033 150.334 358.477 151.649 370.959H214.925C216.054 358.663 217.046 346.219 218.176 333.738C219.205 320.76 220.334 307.782 221.488 294.804C238.711 318.193 263.533 334.861 291.7 341.951C295.488 331.546 299.277 321.132 303.065 310.71C261.6 294.047 248.027 283.179 244.007 276.107Z" fill="#066FD1"/>
    <path d="M396.193 353.291V367.931C376.949 377.435 363.14 377.075 354.009 374.892C338.55 371.17 332.247 361.331 315.845 359.718C303.71 358.477 293.326 362.572 286.539 366.108V353.291C286.539 349.292 288.127 345.456 290.954 342.627C293.78 339.798 297.614 338.207 301.614 338.204H381.118C385.117 338.207 388.952 339.798 391.778 342.627C394.605 345.456 396.193 349.292 396.193 353.291Z" fill="black" opacity="0.15"/>
    <path d="M648.291 362.708L677.224 399.929L724.284 405.959C724.744 408.962 725.215 412.001 725.649 414.979L682.113 427.51L629.11 399.917L615.822 500.414H608.018L589.779 381.728L648.291 362.708Z" fill="#DADBE0"/>
    <path d="M629.11 399.904L634.036 368.279L648.279 362.708L677.225 399.954L724.285 405.984L725.65 414.991L682.113 427.498L629.11 399.904Z" fill="black" opacity="0.1"/>
    <path d="M593.191 521.097L618.502 518.181C618.502 518.181 619.47 511.556 615.388 509.223C611.306 506.891 597.273 515.055 593.191 521.097Z" fill="#454C5E"/>
    <path d="M738.95 427.857L742.995 406.133C742.995 406.133 737.759 403.651 734.782 406.43C731.804 409.21 735.005 422.932 738.975 427.857" fill="#454C5E"/>
    <path d="M616.939 207.644C616.468 211.007 615.699 215.982 614.793 222.024C614.458 223.265 614.272 224.505 614.197 224.915C612.906 231.549 610.741 237.982 607.758 244.047C607.063 245.287 606.517 246.416 605.934 247.434C603.453 251.503 587.187 255.151 573.514 252.483C559.842 249.816 556.145 235.957 562.621 230.821C564.913 228.705 566.789 226.181 568.155 223.376C570.12 219.686 571.836 215.869 573.291 211.949C574.222 209.654 574.668 208.227 574.668 208.227L586.256 199.865L612.113 202.185C611.381 206.478 612.237 209.629 613.713 210.113C615.19 210.597 616.654 208.314 617.001 207.706" fill="#FFCB9D"/>
    <path d="M616.94 207.644C616.468 211.007 615.699 215.982 614.793 222.024C614.458 223.265 614.272 224.505 614.198 224.915C612.907 231.549 610.742 237.982 607.759 244.047C606.15 243.322 604.677 242.327 603.404 241.106C601.99 239.781 600.91 238.14 600.252 236.317C599.515 234.409 599.096 232.393 599.012 230.349C598.856 229.007 598.781 227.656 598.788 226.304C588.556 228.718 577.809 227.616 568.279 223.178C570.252 219.492 571.969 215.674 573.416 211.751C574.346 209.456 574.805 207.967 574.805 207.967L586.394 199.592L612.25 201.925C611.518 206.205 612.362 209.369 613.85 209.853C615.339 210.337 616.667 208.252 617.014 207.644" fill="black" opacity="0.1"/>
    <path d="M621.815 220.845C620.5 223.575 615.611 224.89 612.944 226.615C612.351 227.014 611.784 227.449 611.244 227.917C610.992 228.12 610.767 228.353 610.574 228.612C608.546 230.652 607.046 233.156 606.207 235.908C605.142 234.32 604.584 232.447 604.606 230.535C605.046 227.513 605.739 224.533 606.678 221.627C606.661 221.502 606.687 221.375 606.753 221.267C606.827 220.907 606.753 220.746 606.926 220.027C607.216 218.644 607.358 217.234 607.348 215.821V215.672C604.631 216.391 591.715 220.039 580.859 220.039C574.656 220.039 568.998 218.798 566.455 215.076C565.383 213.581 564.678 211.856 564.395 210.039V209.94V209.257V209.158C564.388 208.562 564.468 207.969 564.631 207.396C566.157 202.21 574.11 201.974 574.879 197.16C575.388 193.959 572.125 192.607 573.08 189.791C574.035 186.974 578.44 184.952 581.976 185.386C584.618 185.709 584.681 187.222 587.162 187.582C591.405 188.153 592.82 183.86 597.187 184.232C599.885 184.728 602.371 186.025 604.321 187.954C605.934 189.567 606.194 190.523 608.043 191.676C609.499 192.504 611.092 193.062 612.745 193.327C616.306 193.91 617.051 192.867 618.949 193.327C622.162 194.567 624.259 198.562 624.358 202.123C624.358 206.714 620.996 207.446 620.798 212.446C620.475 217.098 623.018 218.302 621.815 220.845Z" fill="#454C5E"/>
    <path d="M572.459 305.561C567.906 305.697 563.588 305.871 559.482 306.07C547.596 306.653 537.571 307.459 529.444 308.266C527.021 308.506 524.775 308.741 522.707 308.973C519.875 309.44 516.998 309.582 514.134 309.395C499.543 307.993 495.821 294.233 475.585 272.297C461.937 257.471 454.208 253.389 455.734 247.037C457.111 241.342 465.175 236.813 472.061 237.471C478.265 238.054 481.54 242.669 497.942 263.885C509.382 278.675 511.479 281.255 512.992 282.223C513.191 282.36 513.402 282.484 513.712 282.657C519.233 285.796 524.717 285.685 531.355 284.556C537.558 283.476 544.866 281.504 554.171 280.486C554.866 280.395 555.573 280.321 556.293 280.263C559.91 279.935 563.542 279.79 567.174 279.829C568.944 288.398 570.706 296.975 572.459 305.561Z" fill="#FFCB9D"/>
    <path d="M563.564 288.055L559.482 306.107C547.596 306.69 537.571 307.496 529.444 308.303C536.727 302.273 533.563 290.424 531.38 284.593C537.583 283.514 544.891 281.541 554.196 280.523L563.564 288.055Z" fill="black" opacity="0.1"/>
    <path d="M664.83 369.941C649.961 371.979 635.21 374.795 620.636 378.378C608.514 381.368 597.261 384.706 586.901 388.18C586.901 388.18 586.765 387.187 586.479 385.698C586.194 384.209 585.76 382.162 585.152 380.103C584.904 379.284 583.911 376.157 582.67 371.529C581.194 366.455 580.189 362.621 579.804 361.48C578.402 356.455 574.407 342.261 564.171 306.144C562.127 307.709 559.952 309.095 557.67 310.288C554.927 311.719 552.041 312.859 549.06 313.687C547.955 310.722 546.578 307.012 545.064 302.707C543.935 299.519 543.067 296.95 542.583 295.424C540.929 290.511 539.374 285.685 537.918 280.945C543.26 278.197 548.748 275.741 554.357 273.588C558.328 272.062 562.149 270.771 565.784 269.68L566.777 269.394H567.025L570.573 268.476L605.735 259.407L610.288 258.24L613.738 257.347C615.77 257.388 617.778 257.809 619.656 258.588C632.522 263.96 634.681 285.213 636.653 299.779C636.815 301.02 636.976 302.174 637.15 303.29C639.656 319.965 646.368 342.993 664.83 369.941Z" fill="#066FD1"/>
    <path d="M605.699 259.344C600.952 265.027 594.546 269.08 587.379 270.936C580.211 272.792 572.643 272.357 565.735 269.692L566.728 269.407H566.976L570.524 268.501C582.262 265.432 593.986 262.38 605.699 259.344Z" fill="#FFCB9D"/>
    <path d="M664.83 369.941C649.962 371.979 635.21 374.795 620.636 378.378C608.515 381.368 597.261 384.706 586.901 388.18C596.566 384.917 602.162 377.596 613.366 362.993C620.673 353.465 626.927 345.301 631.505 332.397C635.199 321.897 636.924 310.806 636.592 299.68C636.753 300.921 636.914 302.075 637.088 303.191C639.656 319.966 646.369 342.993 664.83 369.941Z" fill="black" opacity="0.1"/>
    <path d="M605.699 259.344C600.952 265.027 594.546 269.08 587.379 270.936C580.211 272.792 572.643 272.357 565.735 269.692L566.728 269.407H566.976L570.524 268.501C582.262 265.432 593.986 262.38 605.699 259.344Z" fill="black" opacity="0.15"/>
    <path d="M611.48 210.101C611.381 210.386 609.731 215.064 607.299 215.672C604.582 216.391 591.666 220.039 580.81 220.039C574.606 220.039 568.949 218.798 566.405 215.076C565.334 213.581 564.629 211.856 564.346 210.039V209.94V209.257V209.158C564.346 209.158 584.805 220.275 611.48 210.101Z" fill="black" opacity="0.5"/>
    <path d="M682.672 319.99C676.729 332.608 663.962 340.4 654.061 346.293C645.86 351.169 631.902 359.618 625.339 355.214C623.383 353.841 621.842 351.957 620.885 349.767C620.075 347.389 619.95 344.831 620.525 342.385C621.915 336.789 628.379 334.01 638.304 329.097C643.267 326.616 667.734 314.395 666.605 310.747C666.558 310.588 666.487 310.437 666.394 310.3C666.034 309.668 665.265 308.923 662.498 306.802C661.183 305.784 659.396 304.444 656.965 302.658L655.935 301.888C652.746 299.556 649.806 297.397 647.089 295.461L645.252 267.508C647.969 269.357 650.885 271.367 653.937 273.538L654.223 273.724C656.493 275.362 658.875 277.074 661.307 278.861C678.305 291.342 682.573 296.02 684.347 299.283C684.622 299.799 684.871 300.329 685.091 300.871C685.203 301.156 687.66 309.432 682.672 319.99Z" fill="#FFCB9D"/>
    <path d="M662.498 306.802C661.183 305.784 659.396 304.444 656.964 302.658L655.935 301.888C652.746 299.556 649.805 297.397 647.088 295.461L645.252 267.508C647.969 269.357 650.885 271.367 653.937 273.538L654.222 273.724C653.664 281.255 653.937 296.603 662.498 306.802Z" fill="black" opacity="0.1"/>
    <path d="M613.701 257.285C616.319 257.211 619.049 257.285 621.902 257.459C636 258.64 649.589 263.277 661.468 270.958C654.296 279.115 649.431 289.039 647.374 299.705L632.051 297.893L613.701 257.285Z" fill="#066FD1"/>
    <path d="M420.957 186.229L445.052 195.46L444.022 196.912L420.957 186.229Z" fill="#066FD1"/>
    <path d="M506.02 222.831C508.377 222.609 510.577 221.553 512.224 219.853C512.993 219.022 514.259 217.644 514.11 216.069C513.824 213.327 509.395 211.813 507.038 211.007C502.075 209.282 497.447 209.505 493.092 209.766C490.611 209.902 488.489 210.175 487.05 210.399L484.531 213.612L506.02 222.831Z" fill="#066FD1"/>
    <path d="M506.02 222.831C507.454 224.691 508.188 226.997 508.092 229.344C508.017 230.486 507.893 232.347 506.64 233.315C504.469 235.002 500.312 232.831 498.104 231.677C493.414 229.195 490.412 225.746 487.595 222.421C485.957 220.498 484.729 218.798 483.873 217.607C484.096 216.28 484.332 214.952 484.568 213.625L506.02 222.831Z" fill="#066FD1"/>
    <path d="M506.02 222.831C507.454 224.691 508.188 226.997 508.092 229.344C508.017 230.486 507.893 232.347 506.64 233.315C504.469 235.002 500.312 232.831 498.104 231.677C493.414 229.195 490.412 225.746 487.595 222.421C485.957 220.498 484.729 218.798 483.873 217.607C484.096 216.28 484.332 214.952 484.568 213.625L506.02 222.831Z" fill="black" opacity="0.2"/>
    <path d="M506.02 222.83C507.449 223.951 508.49 225.492 508.998 227.235C509.11 227.93 509.308 229.071 508.291 229.468C506.542 230.175 502.323 228.141 500.077 227.074C496.035 225.057 492.252 222.557 488.812 219.629C486.976 218.165 485.549 216.912 484.581 216.031C484.581 215.237 484.581 214.456 484.581 213.662L506.02 222.83Z" fill="#066FD1"/>
    <path d="M506.02 222.831C508.377 222.609 510.577 221.553 512.224 219.853C512.993 219.022 514.259 217.644 514.11 216.069C513.824 213.327 509.395 211.813 507.038 211.007C502.075 209.282 497.447 209.505 493.092 209.766C490.611 209.902 488.489 210.175 487.05 210.399L484.531 213.612L506.02 222.831Z" fill="black" opacity="0.15"/>
    <path d="M483.823 217.607L466.454 209.034L439.443 195.709L440.684 192.929L462.657 201.205L486.938 210.349C486.843 211.773 486.495 213.168 485.908 214.468C485.388 215.621 484.684 216.681 483.823 217.607Z" fill="#DADBE0"/>
    <path d="M466.466 209.034L439.456 195.709L440.697 192.929L462.657 201.205C464.047 203.922 465.337 206.577 466.466 209.034Z" fill="black" opacity="0.1"/>
    <path d="M346.13 147.942L366.589 132.234L367.296 133.859L346.13 147.942Z" fill="#066FD1"/>
    <path d="M421.764 94.6281C422.789 92.5139 423.03 90.1047 422.446 87.829C422.136 86.7248 421.64 84.9258 420.213 84.2434C417.731 83.0027 414.108 86.03 412.185 87.6181C408.116 90.9804 405.895 95.0623 403.835 98.7845C402.595 101.005 401.776 102.928 401.205 104.268C401.714 105.509 402.222 106.75 402.719 107.991L421.764 94.6281Z" fill="#066FD1"/>
    <path d="M421.764 94.628C424.1 94.3707 426.453 94.951 428.401 96.2658C429.332 96.9233 430.883 98.0028 431.032 99.5785C431.329 102.308 427.31 104.715 425.176 106.005C420.635 108.71 416.094 109.455 411.788 110.112C409.786 110.424 407.769 110.635 405.746 110.745L402.719 108.077L421.764 94.628Z" fill="#066FD1"/>
    <path d="M421.764 94.628C424.1 94.3707 426.453 94.951 428.401 96.2658C429.332 96.9233 430.883 98.0028 431.032 99.5785C431.329 102.308 427.31 104.715 425.176 106.005C420.635 108.71 416.094 109.455 411.788 110.112C409.786 110.424 407.769 110.635 405.746 110.745L402.719 108.077L421.764 94.628Z" fill="black" opacity="0.2"/>
    <path d="M421.764 94.6282C423.464 93.9925 425.321 93.9057 427.074 94.38C427.731 94.653 428.811 95.0873 428.625 96.1543C428.29 98.0153 424.369 100.546 422.272 101.899C418.432 104.289 414.316 106.206 410.014 107.606C407.806 108.4 405.994 108.958 404.729 109.318L402.719 108.077L421.764 94.6282Z" fill="#066FD1"/>
    <path d="M421.764 94.6281C422.789 92.5139 423.03 90.1047 422.446 87.829C422.136 86.7248 421.64 84.9258 420.213 84.2434C417.731 83.0027 414.108 86.03 412.185 87.6181C408.116 90.9804 405.895 95.0623 403.835 98.7845C402.595 101.005 401.776 102.928 401.205 104.268C401.714 105.509 402.222 106.75 402.719 107.991L421.764 94.6281Z" fill="black" opacity="0.15"/>
    <path d="M405.745 110.757L389.393 121.068L363.909 137.197L362.159 134.715L380.77 120.286L401.254 104.38C402.424 105.198 403.434 106.224 404.232 107.407C404.904 108.44 405.415 109.57 405.745 110.757Z" fill="#DADBE0"/>
    <path d="M389.393 121.068L363.909 137.197L362.159 134.715L380.77 120.286C383.735 120.46 386.663 120.757 389.393 121.068Z" fill="black" opacity="0.1"/>
    <path d="M293.898 94.464C281.304 101.545 271.093 112.201 264.555 125.086C258.018 137.97 255.447 152.504 257.169 166.849C258.891 181.194 264.828 194.706 274.23 205.677C283.631 216.648 296.075 224.585 309.987 228.484C323.899 232.383 338.654 232.07 352.388 227.583C366.122 223.096 378.217 214.637 387.143 203.277C396.07 191.916 401.427 178.164 402.538 163.758C402.633 162.528 401.713 161.455 400.483 161.36C399.253 161.265 398.18 162.185 398.085 163.415C397.042 176.939 392.012 189.851 383.631 200.517C375.25 211.183 363.895 219.124 351.001 223.337C338.107 227.55 324.253 227.844 311.192 224.183C298.131 220.523 286.448 213.071 277.621 202.771C268.795 192.471 263.221 179.785 261.604 166.317C259.987 152.849 262.4 139.204 268.538 127.107C274.676 115.01 284.263 105.005 296.087 98.3574C307.911 91.7093 321.441 88.7166 334.966 89.7578C336.195 89.8524 337.269 88.9323 337.364 87.7025C337.458 86.4727 336.538 85.3991 335.308 85.3044C320.903 84.1955 306.492 87.383 293.898 94.464Z" fill="#066FD1"/>
    <path d="M173.795 259.295C177.337 262.959 181.935 265.427 186.946 266.355L187.654 266.503L200.061 260.846L173.795 259.295Z" fill="#FFCB9D"/>
    <path d="M173.795 259.295C177.337 262.959 181.935 265.427 186.946 266.355L187.654 266.503L200.061 260.846L173.795 259.295Z" fill="black" opacity="0.1"/>
    <path d="M187.654 266.504L203.064 255.474L206.588 259.146L196.128 274.841L187.654 266.504Z" fill="#DADBE0"/>
    <path d="M186.948 266.503L163.473 251.801L158.25 256.751L174.081 277.384L186.948 266.503Z" fill="#DADBE0"/>
    <path d="M187.654 266.504L203.064 255.474L206.588 259.146L196.128 274.841L187.654 266.504Z" fill="black" opacity="0.11"/>
    <path d="M179.031 280.213C183.126 300.573 187.232 320.921 191.19 341.281C192.431 320.784 193.87 300.338 195.285 279.928C192.592 275.412 190.049 271.02 187.369 266.503L186.662 266.64C184.255 271.164 181.711 275.689 179.031 280.213Z" fill="#DADBE0"/>
    <path d="M187.505 266.503L191.326 341.281C192.567 320.784 194.006 300.338 195.421 279.928C192.741 275.412 190.197 270.883 187.505 266.503Z" fill="black" opacity="0.11"/>
    <path d="M129.663 371.182C123.174 376.653 116.512 382.212 110.023 387.683C107.221 381.394 105.164 374.798 103.894 368.03C102.342 359.015 102.079 349.825 103.112 340.735C103.28 338.869 103.55 337.013 103.919 335.177C105.135 349.221 111.251 363.911 129.663 371.182Z" fill="black" opacity="0.1"/>
    <path d="M214.788 370.971H151.512C150.271 358.564 149.105 346.082 147.79 333.75C170.259 364.321 214.788 370.971 214.788 370.971Z" fill="black" opacity="0.1"/>
</svg>
