<svg xmlns="http://www.w3.org/2000/svg" width="800" height="600" fill="none" viewBox="0 0 800 600">
    <path d="M117.369 300C117.369 347.034 167.097 381.155 189.109 419.127C211.764 458.294 217.239 518.154 256.432 540.871C294.417 562.834 348.486 538.266 395.52 538.266C442.554 538.266 496.624 562.834 534.596 540.871C573.789 518.154 579.226 458.294 601.906 419.127C623.881 381.155 673.646 347.034 673.646 300C673.646 252.966 623.919 218.82 601.906 180.873C579.251 141.706 573.789 81.7961 534.596 59.1287C496.624 37.166 442.542 61.734 395.52 61.734C348.499 61.734 294.417 37.166 256.432 59.1287C217.239 81.7835 211.802 141.706 189.109 180.873C167.134 218.82 117.369 252.966 117.369 300Z" fill="black" opacity="0.07"/>
    <path d="M613.334 343.208L565.684 482.069L575.752 484.058L644.686 382.212L671.645 413.916L669.72 481.478L680.682 483.051L696.528 419.039C690.159 397.378 683.942 375.705 677.573 354.044L613.334 343.208Z" fill="#DADBE0"/>
    <path d="M53 505.507C53 509.07 206.831 512 395.994 512C585.158 512 739 509.07 739 505.507C739 501.943 585.594 499 395.994 499C206.395 499 53 501.93 53 505.493" fill="#1D2535" opacity="0.5"/>
    <path d="M456.337 409.549V491.245C456.337 498.935 452.372 505.165 447.526 505.165H343.427C338.544 505.165 334.617 498.935 334.617 491.245V409.549C334.617 401.859 338.569 395.616 343.427 395.616H447.489C452.372 395.616 456.337 401.859 456.337 409.549Z" fill="#454C5E"/>
    <path d="M456.336 409.549V468.703C406.987 476.909 362.067 446.048 334.592 420.876V409.549C334.592 401.859 338.544 395.616 343.402 395.616H447.488C452.372 395.616 456.336 401.859 456.336 409.549Z" fill="black" opacity="0.15"/>
    <path d="M154.298 340.212L136.287 432.279L95.7852 474.518L105.388 485.128L162.466 450.101L188.406 386.39L217.92 416.811L219.418 486.915L230.858 487.57L243.96 419.806L220.047 349.035C197.786 349.929 175.538 346.948 154.298 340.225V340.212Z" fill="#066FD1"/>
    <path d="M242.764 504.838L218.197 504.07C218.197 504.07 216.686 497.777 220.399 495.26C224.112 492.742 238.284 499.375 242.764 504.888" fill="#454C5E"/>
    <path d="M104.998 502.899L84.2559 489.772C84.2559 489.772 86.1438 483.605 90.637 483.265C95.1302 482.925 103.966 495.851 105.035 502.899" fill="#454C5E"/>
    <path d="M188.404 386.391C193.909 374.35 199.404 362.309 204.892 350.269L219.995 349.01L243.909 419.781L230.807 487.544L219.366 486.89L217.868 416.786L188.404 386.391Z" fill="black" opacity="0.1"/>
    <path d="M315.839 276.389C315.839 276.389 290.667 299.912 277.099 310.17C273.55 312.838 270.806 314.612 269.46 314.839C263.041 315.896 235.603 290.863 235.012 289.667L248.768 267.012C248.768 267.012 252.179 271.417 256.458 276.275C256.476 276.314 256.502 276.348 256.534 276.376C261.744 282.279 268.214 288.824 271.411 288.962C272.606 288.962 274.469 287.779 276.697 285.803C280.822 281.876 284.674 277.671 288.225 273.217C294.267 265.867 299.477 258.718 299.477 258.718L304.008 263.652L315.839 276.389Z" fill="#FFCB9D"/>
    <path d="M277.099 310.17C273.55 312.838 270.806 314.612 269.46 314.839C263.041 315.896 235.603 290.863 235.012 289.667L248.768 267.012C248.768 267.012 252.179 271.417 256.458 276.275C256.257 283.827 257.314 296.753 265.835 303.675C269.244 306.391 273.041 308.58 277.099 310.17Z" fill="black" opacity="0.1"/>
    <path d="M269.773 265.477C258.088 274.85 248.63 286.702 242.084 300.176C230.343 294.184 219.683 286.276 210.543 276.779C201.116 266.773 190.405 255.659 193.564 244.823C194.388 242.246 195.784 239.888 197.648 237.927C199.511 235.965 201.794 234.45 204.325 233.495C211.739 230.701 219.127 234.477 233.802 242.91C243.657 248.951 255.928 256.276 269.773 265.477Z" fill="#DADBE0"/>
    <path d="M269.773 265.477C258.088 274.85 248.63 286.702 242.084 300.176C230.343 294.184 219.683 286.276 210.543 276.779C201.116 266.773 190.405 255.659 193.564 244.823C194.388 242.246 195.784 239.888 197.648 237.927C199.511 235.965 201.794 234.45 204.325 233.495C211.739 230.701 219.127 234.477 233.802 242.91C243.657 248.951 255.928 256.276 269.773 265.477Z" fill="black" opacity="0.1"/>
    <path d="M248.982 267.515L246.766 273.897C243.62 283.16 240.473 292.574 237.277 301.989L233.023 314.298C232.367 318.584 232.018 322.912 231.978 327.249C231.759 336.207 232.707 345.155 234.797 353.868C216.433 353.722 198.109 352.123 179.998 349.086H179.809C166.959 346.916 154.24 344.034 141.711 340.452C157.33 324.266 164.202 309.1 167.55 297.835C176.02 269.34 170.986 242.771 187.99 231.884C190.7 230.163 193.71 228.968 196.863 228.36C199.794 228.253 202.698 228.954 205.258 230.387C209.751 232.665 217.554 235.333 232.129 237.171L237.78 238.568C241.169 240.847 244.003 243.858 246.074 247.378C249.482 253.506 250.517 260.674 248.982 267.515Z" fill="#DADBE0"/>
    <path d="M196.725 182.245C196.989 185.492 197.593 190.376 198.285 196.291L198.713 199.11C199.81 205.558 201.726 211.839 204.415 217.801C204.899 218.951 205.471 220.061 206.126 221.123C208.404 225.075 224.036 229.191 237.226 227.152C250.417 225.113 254.557 211.822 248.554 206.486C246.456 204.321 244.711 201.841 243.381 199.136C241.615 195.52 240.06 191.805 238.724 188.01C237.969 185.757 237.604 184.423 237.604 184.423L226.629 175.864L201.57 177.211C202.061 181.503 201.155 184.385 199.821 184.762C198.487 185.14 197.002 182.698 196.725 182.245Z" fill="#FFCB9D"/>
    <path d="M196.725 182.245C196.989 185.492 197.593 190.376 198.285 196.291L198.713 199.11C199.81 205.558 201.726 211.839 204.415 217.801C206.011 217.132 207.497 216.224 208.82 215.107C210.174 213.827 211.26 212.291 212.017 210.589C212.811 208.748 213.317 206.795 213.514 204.799C213.71 203.549 213.831 202.288 213.879 201.023C218.776 202.351 223.854 202.886 228.92 202.609C233.944 202.287 238.879 201.125 243.519 199.173C241.751 195.555 240.196 191.835 238.863 188.035C238.107 185.794 237.743 184.448 237.743 184.448L226.767 175.902L201.709 177.211C202.2 181.49 201.306 184.385 199.959 184.762C198.613 185.14 197.002 182.698 196.725 182.245Z" fill="black" opacity="0.1"/>
    <path d="M252.505 180.546C251.831 182.325 250.944 184.015 249.862 185.58C248.58 187.63 246.993 189.472 245.155 191.043C236.961 198.217 223.822 199.387 211.663 193.56C209.64 192.568 207.692 191.428 205.836 190.149V190.3C205.912 191.559 205.975 193.094 206.189 194.428L206.415 195.611L206.541 196.065C207.391 198.876 207.964 201.763 208.253 204.686C208.256 206.562 207.636 208.386 206.491 209.871C205.787 207.15 204.411 204.648 202.488 202.597C201.803 201.839 201 201.197 200.109 200.696C196.177 197.111 193.685 192.216 193.099 186.927C192.92 184.773 193.043 182.604 193.464 180.483C193.691 179.036 194.861 173.951 197.819 171.031C204.036 165.065 219.781 167.142 227.585 169.344C229.393 170.079 231.383 170.242 233.286 169.81C233.683 169.73 234.052 169.548 234.356 169.282C236.357 167.633 236.257 164.247 235.615 162.019C234.243 157.828 229.41 154.908 223.255 154.556C236.257 150.78 248.994 156.595 253.009 166.236C254.588 170.908 254.409 175.996 252.505 180.546Z" fill="#454C5E"/>
    <path d="M252.507 180.546C251.833 182.325 250.945 184.015 249.864 185.58C248.581 187.63 246.994 189.472 245.156 191.043C236.963 198.217 223.823 199.387 211.665 193.56C208.682 191.773 206.115 190.313 205.838 190.149L201.76 186.839C208.352 189.579 215.38 191.118 222.514 191.383C228.807 191.597 237.617 191.949 245.849 186.537C248.401 184.944 250.654 182.916 252.507 180.546Z" fill="black" opacity="0.5"/>
    <path d="M205.422 230.362C217.177 233.193 232.142 236.831 232.28 237.145L237.932 238.555C234.81 241.626 227.787 242.784 220.311 241.072C212.344 239.272 206.404 234.754 205.422 230.362Z" fill="#FFCB9D"/>
    <path d="M205.422 230.362C217.177 233.193 232.142 236.831 232.28 237.145L237.932 238.555C234.81 241.626 227.787 242.784 220.311 241.072C212.344 239.272 206.404 234.754 205.422 230.362Z" fill="black" opacity="0.1"/>
    <path d="M231.978 327.249C231.76 336.207 232.707 345.155 234.798 353.868C216.433 353.722 198.11 352.123 179.998 349.085C192.345 338.803 219.506 312.938 225.849 280.315L246.805 273.922C243.658 283.185 240.512 292.599 237.315 302.014L233.061 314.323C232.394 318.6 232.032 322.92 231.978 327.249Z" fill="black" opacity="0.1"/>
    <path d="M421.473 320.691C386.735 320.691 349.657 299.295 311.131 257.094C310.572 256.483 310.14 255.767 309.858 254.988C309.575 254.21 309.45 253.383 309.487 252.555C309.524 251.728 309.724 250.916 310.076 250.166C310.427 249.416 310.922 248.742 311.534 248.183C312.145 247.625 312.861 247.192 313.64 246.91C314.418 246.628 315.245 246.502 316.073 246.539C316.9 246.577 317.712 246.777 318.462 247.128C319.212 247.479 319.886 247.975 320.445 248.586C359.008 290.863 395.181 310.786 427.955 307.74C428.924 307.652 430.333 307.652 432.662 307.64C481.835 307.413 513.326 295.947 526.251 273.557C534.646 259.032 533.086 243.589 531.575 228.662C529.964 212.804 528.454 197.827 540.083 187.317C553.437 175.247 576.583 175.99 610.716 189.658C611.486 189.966 612.187 190.422 612.78 191C613.373 191.579 613.847 192.268 614.173 193.03C614.5 193.791 614.673 194.609 614.684 195.438C614.694 196.266 614.541 197.089 614.234 197.858C613.927 198.627 613.471 199.329 612.892 199.922C612.314 200.515 611.624 200.989 610.863 201.315C610.101 201.642 609.283 201.815 608.454 201.826C607.626 201.836 606.804 201.683 606.034 201.376C570.089 187.015 554.935 190.892 548.541 196.669C542.148 202.446 542.588 212.212 544.124 227.391C545.659 242.57 547.597 261.814 537.176 279.862C521.834 306.419 486.693 320.012 432.712 320.251C431.214 320.251 429.528 320.251 429.087 320.251C426.587 320.545 424.049 320.691 421.473 320.691Z" fill="#066FD1"/>
    <path d="M503.459 262.166C503.459 266.152 503.333 270.1 503.081 274.01C502.88 277.37 502.565 280.718 502.175 284.003C500.112 302.53 495.009 320.589 487.072 337.456C486.569 338.538 486.04 339.621 485.499 340.678C481.771 348.064 477.404 355.11 472.447 361.734C453.027 387.397 426.294 403.356 396.717 403.356C363.565 403.356 333.925 383.345 314.341 351.955C311.53 347.435 308.963 342.767 306.651 337.972C301.597 327.405 297.682 316.33 294.972 304.934C294.33 302.265 293.713 299.559 293.222 296.816C291.215 286.249 290.137 275.527 290 264.772C290 263.903 290 263.035 290 262.166C289.989 250.926 291 239.707 293.021 228.65C295.018 217.709 298.078 206.989 302.158 196.644C303.945 192.15 305.934 187.833 308.036 183.592C313.719 172.233 320.977 161.733 329.596 152.404C347.934 132.744 371.293 120.939 396.73 120.939C428.95 120.939 457.822 139.818 477.393 169.672C480.323 174.13 482.996 178.753 485.398 183.516C489.895 192.411 493.552 201.707 496.323 211.281C498.866 219.989 500.73 228.88 501.898 237.875C502.946 245.93 503.467 254.044 503.459 262.166Z" fill="#DADBE0"/>
    <path d="M485.385 183.504C474.275 189.102 462.042 192.114 449.603 192.314C428.723 192.452 414.488 184.133 400.757 176.065C389.681 169.558 379.235 163.404 365.516 162.221C347.681 160.585 328.437 167.796 308.061 183.617C313.743 172.258 321.002 161.758 329.62 152.429C342.357 147.235 354.809 145.192 366.976 146.299C384.269 147.873 396.767 155.223 408.862 162.334C421.284 169.621 433.002 176.519 449.527 176.393C459.198 176.22 468.716 173.944 477.418 169.722C480.325 174.166 482.985 178.767 485.385 183.504Z" fill="white"/>
    <path d="M507.725 239.524C490.029 251.191 471.893 257.145 453.605 257.283C429.868 257.447 413.33 247.755 398.806 239.197C386.887 232.199 376.604 226.145 362.885 224.899C351.167 223.829 338.758 226.598 325.756 233.219C324.498 233.835 323.239 234.477 322.043 235.195C310.355 241.706 298.218 251.217 285.632 263.727L284.235 265.124C284.076 265.287 283.871 265.398 283.648 265.444C283.425 265.49 283.193 265.469 282.982 265.382C282.771 265.296 282.591 265.148 282.465 264.959C282.338 264.769 282.271 264.546 282.272 264.319C282.261 252.698 283.272 241.1 285.292 229.657C285.438 228.832 285.887 228.091 286.551 227.58C293.022 222.359 299.866 217.618 307.028 213.396C308.287 212.653 309.545 211.936 310.867 211.243C329.419 201.225 347.53 197.03 365.201 198.657C384.797 200.445 399.296 208.965 412.084 216.479C425.274 224.22 436.677 230.928 452.875 230.928H453.316C468.948 230.802 484.881 224.446 500.84 212.049C501.148 211.797 501.514 211.628 501.905 211.556C502.296 211.484 502.698 211.512 503.075 211.638C503.452 211.763 503.791 211.982 504.061 212.274C504.33 212.566 504.521 212.922 504.616 213.307C506.645 220.824 508.213 228.457 509.311 236.164C509.38 236.815 509.269 237.474 508.989 238.066C508.709 238.659 508.272 239.163 507.725 239.524Z" fill="#066FD1"/>
    <path d="M503.081 274.01C502.879 277.37 502.565 280.718 502.175 284.003C484.919 297.118 467.273 303.826 449.578 303.952H449.049C429.616 303.952 416.074 295.998 402.959 288.295C391.455 281.536 380.594 275.155 365.88 273.808C363.788 273.62 361.688 273.54 359.587 273.569C339.349 273.859 317.689 284.368 294.933 304.934C294.291 302.265 293.674 299.559 293.184 296.816C313.875 278.881 333.912 268.799 353.043 266.723C357.512 266.234 362.019 266.192 366.497 266.597C382.859 268.094 394.904 275.193 406.584 282.052C419.535 289.667 431.756 296.866 449.489 296.715C467.223 296.564 485.372 288.962 503.081 274.01Z" fill="white"/>
    <path d="M487.008 337.456C486.505 338.538 485.976 339.621 485.435 340.678C481.707 348.064 477.34 355.11 472.383 361.734C465.005 364.052 457.324 365.265 449.59 365.334C428.71 365.485 414.475 357.141 400.744 349.073C389.668 342.566 379.222 336.424 365.503 335.165C349.519 333.705 332.414 339.331 314.366 351.955C311.554 347.435 308.987 342.767 306.676 337.972C327.455 323.788 347.618 317.532 366.963 319.307C384.256 320.893 396.767 328.243 408.849 335.342C421.272 342.641 432.989 349.513 449.515 349.413C460.389 349.337 471.351 346.266 482.314 340.237C483.874 339.369 485.448 338.45 487.008 337.456Z" fill="#066FD1"/>
    <path d="M485.435 340.678C481.719 348.068 477.356 355.115 472.396 361.734C453.026 387.397 426.293 403.356 396.716 403.356C363.552 403.356 333.925 383.345 314.341 351.955C311.525 347.438 308.958 342.77 306.651 337.972C301.596 327.405 297.681 316.33 294.971 304.934C294.329 302.266 293.712 299.559 293.221 296.816C289.685 277.937 294.921 268.799 289.999 264.772C289.394 264.285 288.688 263.939 287.933 263.759C287.178 263.578 286.392 263.567 285.632 263.727C284.587 263.853 283.48 264.13 282.272 264.293C282.261 252.673 283.272 241.075 285.292 229.632C285.438 228.807 285.887 228.066 286.551 227.555C293.022 222.342 299.867 217.61 307.028 213.396C308.287 212.653 309.545 211.936 310.867 211.243C311.584 212.389 312.314 213.547 313.057 214.705C316.908 220.721 321.099 226.926 325.643 233.219C326.058 233.823 326.499 234.414 326.902 235.018C334.97 246.089 343.678 256.679 352.98 266.735C352.98 266.735 356.277 270.272 359.525 273.569C372.589 286.709 419.648 312.41 485.435 340.678Z" fill="black" opacity="0.1"/>
    <path d="M669.116 181.893L657.474 189.104C657.474 189.104 656.945 190.502 655.9 192.629C654.239 196.278 652.339 199.814 650.212 203.213C649.837 203.879 649.416 204.519 648.953 205.126C647.666 206.934 646.137 208.555 644.409 209.947C637.865 214.428 640.42 227.92 653.333 231.343C656.628 232.208 660.001 232.743 663.402 232.942C673.332 233.546 682.684 231.494 684.672 228.713C685.301 227.794 685.931 226.699 686.648 225.591C689.95 220.01 692.49 214.012 694.2 207.757C694.3 207.417 694.552 206.234 694.967 205.051C696.226 199.324 697.321 194.617 698.001 191.433C697.623 191.987 696.088 194.051 694.703 193.56C693.319 193.069 692.715 189.923 693.721 185.87L669.116 181.893Z" fill="#FFCB9D"/>
    <path d="M697.963 191.483C697.296 194.655 696.264 199.362 694.942 205.076C694.539 206.335 694.275 207.455 694.187 207.795C692.469 214.047 689.929 220.044 686.635 225.629C685.155 224.834 683.816 223.801 682.671 222.571C681.418 221.206 680.5 219.569 679.99 217.788C679.424 215.903 679.16 213.941 679.21 211.973C679.14 210.686 679.14 209.396 679.21 208.109C669.269 209.725 659.073 207.952 650.262 203.075C652.401 199.687 654.302 196.155 655.951 192.503C656.995 190.376 657.536 188.979 657.536 188.979L669.166 181.767L693.696 185.694C692.702 189.746 693.293 192.843 694.69 193.384C696.087 193.925 697.51 192.037 697.862 191.496" fill="black" opacity="0.1"/>
    <path d="M701.739 204.422C700.279 206.939 695.446 207.87 692.866 209.343C692.278 209.682 691.711 210.056 691.167 210.463C690.908 210.634 690.675 210.842 690.475 211.08C688.39 212.887 686.785 215.183 685.805 217.763C684.888 216.174 684.479 214.343 684.635 212.515C685.241 209.652 686.082 206.844 687.152 204.12C687.148 204.002 687.184 203.887 687.253 203.792C687.321 203.398 687.409 203.007 687.517 202.622C687.882 201.319 688.109 199.982 688.197 198.632V198.481L687.832 198.557C680.789 200.023 673.627 200.841 666.435 200.998C658.884 200.998 651.773 199.74 649.13 195.209C648.477 194.141 647.997 192.977 647.707 191.76C647.353 190.434 647.397 189.034 647.833 187.733C649.633 182.9 657.21 183.214 658.305 178.658C659.01 175.625 655.989 174.115 657.046 171.472C658.103 168.828 662.483 167.217 665.856 167.859C668.374 168.338 668.374 169.798 670.664 170.301C674.704 171.182 676.328 167.129 680.469 167.784C683.018 168.425 685.311 169.83 687.039 171.811C688.473 173.473 688.662 174.404 690.349 175.688C691.684 176.557 693.163 177.183 694.716 177.538C698.089 178.343 698.87 177.387 700.594 178.016C703.602 179.376 705.326 183.378 705.175 186.826C704.911 191.244 701.613 191.685 701.072 196.455C700.707 200.759 703.061 202.068 701.739 204.422Z" fill="#454C5E"/>
    <path d="M692.16 194.529C691.74 195.335 691.201 196.073 690.562 196.719C689.922 197.362 689.182 197.897 688.372 198.305L687.868 198.557C680.826 200.023 673.664 200.841 666.472 200.998C658.921 200.998 651.809 199.74 649.166 195.209C648.514 194.141 648.034 192.977 647.744 191.76C648.738 192.175 649.884 192.616 651.155 193.019C656.756 194.845 662.586 195.878 668.473 196.09C676.403 196.536 684.358 196.012 692.16 194.529Z" fill="black" opacity="0.5"/>
    <path d="M549.461 505.618L573.009 502.509C573.009 502.509 573.752 496.279 569.901 494.202C566.049 492.126 553.161 499.841 549.461 505.618Z" fill="#454C5E"/>
    <path d="M691.67 505.165L667.971 502.95C667.971 502.95 666.926 496.732 670.778 494.504C674.629 492.277 687.668 499.539 691.67 505.165Z" fill="#454C5E"/>
    <path d="M644.586 382.212L666.36 352.27L677.473 354.044L696.289 419.039L680.582 483.253L669.62 481.478L671.545 413.916L644.586 382.212Z" fill="black" opacity="0.1"/>
    <path d="M336.278 240.141C340.884 239.524 347.957 238.807 351.481 242.96C354.829 246.811 354.162 254.023 350.89 258.554C348.693 261.434 345.519 263.412 341.966 264.117C334.73 266.244 305.543 271.065 275.726 275.797C259.666 278.314 243.292 280.831 229.976 282.757C212.532 285.451 200.122 287.175 200.122 287.175L193.137 265.665C205.723 262.217 220.222 258.567 236.37 255.383C245.547 253.339 254.834 251.826 264.185 250.852C268.175 250.298 272.92 249.669 281.73 247.68C293.674 245.792 313.572 242.847 336.278 240.141Z" fill="#FFCB9D"/>
    <path d="M264.237 250.638C266.162 263.5 270.97 271.09 275.464 275.608C259.416 278.125 243.029 280.643 229.713 282.568L222.904 272.072C222.904 272.072 228.883 263.538 236.094 255.043C245.496 253.306 254.81 251.745 264.237 250.638Z" fill="black" opacity="0.1"/>
    <path d="M255.879 245.427C255.913 251.669 256.333 257.902 257.137 264.092C257.943 268.988 258.396 274.06 258.799 278.994C259.025 282.255 258.991 285.53 258.698 288.786C245.042 288.937 233.211 288.786 223.709 288.446C198.94 287.842 191.703 286.873 188.028 281.335C184.906 276.527 185.51 270.096 187.537 265.69C189.563 261.285 194.233 256.503 214.999 251.468C228.387 248.079 242.083 246.055 255.879 245.427Z" fill="#DADBE0"/>
    <path d="M693.029 286.986C692.009 293.619 691.015 301.372 690.511 310.572C690.008 318.564 690.511 317.608 690.008 327.991C689.375 341.512 687.963 354.984 685.779 368.342L658.43 360.488C641.074 355.366 623.655 350.42 606.248 345.385C606.248 345.41 652.388 347.349 693.029 286.986Z" fill="black" opacity="0.1"/>
    <path d="M627.318 251.128C624.536 252.052 621.693 252.784 618.81 253.318C595.4 257.661 573.853 247.944 565.685 232.677C565.257 231.884 564.879 231.079 564.527 230.261C558.007 214.981 566.402 199.375 576.786 180.105C577.767 178.268 579.731 174.92 583.443 173.636C587.861 172.113 593.84 173.775 595.526 177.286C597.213 180.798 593.726 184.712 590.24 191.71C586.603 198.985 580.045 212.175 584.073 220.406C585.81 223.955 589.585 226.699 595.551 229.531C601.517 232.363 609.396 235.056 619.465 238.605C619.82 238.724 620.169 238.863 620.509 239.021C621.309 239.377 622.058 239.839 622.737 240.393C626.11 243.124 627.067 247.541 627.318 251.128Z" fill="#FFCB9D"/>
    <path d="M620.559 239.021C620.055 243.602 619.413 248.813 618.809 253.318C595.399 257.661 573.852 247.944 565.684 232.677C575.702 235.129 586.262 234.017 595.55 229.531C601.39 232.287 609.395 235.056 619.464 238.605C619.836 238.722 620.202 238.861 620.559 239.021Z" fill="black" opacity="0.1"/>
    <path d="M692.475 249.996C690.612 247.441 688.269 245.273 685.577 243.615C683.274 243.35 680.241 242.859 677.145 242.507C676.969 242.507 676.78 242.507 676.591 242.432C664.886 240.871 650.324 238.958 650.085 239.209L644.396 238.492L641.375 238.114L636.58 237.51C627.247 236.182 618.242 233.13 610.024 228.511C603.224 237.107 598.77 247.32 597.098 258.151L623.705 265.212L623.616 267.729C623.226 277.358 622.798 287.124 622.358 296.904L621.905 309.691C620.992 313.859 619.78 317.956 618.28 321.95C615.31 330.258 611.265 338.141 606.248 345.398C623.654 350.369 641.073 355.353 658.429 360.501L685.779 368.355C687.961 354.996 689.377 341.524 690.02 328.004C690.486 317.62 690.02 318.59 690.511 310.585C691.015 301.384 692.009 293.631 693.028 286.999C695.86 268.673 698.906 258.756 692.475 249.996Z" fill="#066FD1"/>
    <path d="M676.593 242.432C673.308 245.742 666.259 247.617 658.456 246.849C650.225 245.968 643.567 242.343 641.377 238.115L644.398 238.492L650.086 239.209C650.326 238.958 664.888 240.871 676.593 242.432Z" fill="#FFCB9D"/>
    <path d="M676.593 242.432C673.308 245.742 666.259 247.617 658.456 246.849C650.225 245.968 643.567 242.343 641.377 238.115L644.398 238.492L650.086 239.209C650.326 238.958 664.888 240.871 676.593 242.432Z" fill="black" opacity="0.1"/>
    <path d="M737.836 315.657C732.311 342.226 699.386 352.031 691.142 351.213L681.652 350.193C679.305 349.545 677.194 348.234 675.573 346.417C673.808 344.126 672.973 341.255 673.232 338.375C674.692 327.047 709.933 329.565 716.918 312.322C718.553 308.31 718.696 303.844 717.321 299.736C716.4 297.352 714.904 295.233 712.966 293.569C706.9 288.22 697.762 287.187 697.045 287.112C702.079 278.78 707.113 270.452 712.148 262.129C717.094 265.668 721.499 269.907 725.225 274.715C725.678 275.285 726.097 275.877 726.483 276.489C730.599 282.291 741.587 297.659 737.836 315.657Z" fill="#FFCB9D"/>
    <path d="M725.2 274.803C721.424 279.334 715.622 286.91 712.966 293.619C706.9 288.27 697.762 287.238 697.045 287.162C702.079 278.83 707.114 270.503 712.148 262.179C717.088 265.731 721.485 269.984 725.2 274.803Z" fill="black" opacity="0.1"/>
    <path d="M685.58 243.615C693.993 245.706 701.88 249.525 708.738 254.829C712.708 257.907 716.284 261.462 719.386 265.414L705.226 293.178L674.164 277.395L685.58 243.615Z" fill="#066FD1"/>
</svg>
