<svg xmlns="http://www.w3.org/2000/svg" width="800" height="600" fill="none" viewBox="0 0 800 600">
    <path d="M122 300.007C122 347 171.724 381.153 193.696 419.129C216.38 458.298 221.816 518.196 261.011 540.867C298.999 562.839 353.054 538.263 400.086 538.263C447.117 538.263 501.185 562.839 539.16 540.867C578.343 518.157 583.791 458.311 606.475 419.129C628.435 381.153 678.171 347.051 678.171 300.007C678.171 252.963 628.435 218.823 606.475 180.898C583.791 141.716 578.343 81.8315 539.16 59.1604C501.185 37.1879 447.104 61.7006 400.086 61.7006C353.067 61.7006 298.974 37.1879 261.011 59.1223C221.816 81.7807 216.38 141.678 193.696 180.86C171.711 218.785 122 252.938 122 299.969" fill="black" opacity="0.07"/>
    <path d="M580.223 299.682C579.687 306.953 578.587 314.172 576.934 321.274C575.453 327.625 573.565 333.874 571.282 339.982C570.151 342.992 568.958 345.926 567.675 348.796C566.574 351.277 565.406 353.703 564.169 356.074C557.398 369.425 548.472 381.569 537.751 392.017C537.066 392.703 536.367 393.364 535.656 394.011C530.773 398.521 525.503 402.592 519.907 406.179C498.125 420.15 473.498 424.544 451.233 416.213C426.263 406.89 409.587 383.482 403.681 354.347C402.842 350.171 402.231 345.952 401.852 341.709C401.023 332.332 401.193 322.893 402.36 313.551C402.627 311.367 402.944 309.157 403.325 306.96C404.79 298.439 406.995 290.063 409.917 281.926L410.641 279.958L410.895 279.284L411.035 278.941C414.12 270.841 417.906 263.026 422.351 255.585L423.164 254.226L423.24 254.111C426.766 248.382 430.701 242.915 435.014 237.753C436.056 236.482 437.11 235.301 438.177 234.12C440.793 231.224 443.494 228.498 446.28 225.941C453.757 218.992 462.176 213.13 471.288 208.528C479.159 204.539 487.606 201.805 496.321 200.425C507.87 198.562 519.704 199.713 530.677 203.765C554.923 212.833 571.32 235.174 577.67 263.142C578.612 267.333 579.32 271.573 579.791 275.843C580.673 283.758 580.818 291.739 580.223 299.682Z" fill="#DADBE0"/>
    <path d="M535.63 394.011C530.747 398.521 525.477 402.592 519.881 406.179C498.099 420.15 473.472 424.544 451.208 416.212C426.238 406.89 409.562 383.482 403.656 354.347C402.825 350.17 402.223 345.951 401.852 341.709C401.023 332.332 401.193 322.893 402.36 313.551C402.627 311.367 402.944 309.157 403.325 306.96C404.79 298.439 406.995 290.063 409.917 281.926L410.641 279.957L410.895 279.284C414.123 271.116 417.943 263.195 422.326 255.584C422.567 255.165 422.834 254.721 423.139 254.225L423.215 254.111C425.45 250.568 429.426 244.979 434.989 237.752C436.03 236.482 437.084 235.301 438.151 234.12C440.768 231.224 443.469 228.498 446.254 225.941C453.732 218.992 462.151 213.13 471.262 208.528C479.134 204.539 487.58 201.805 496.296 200.425C492.841 210.369 487.481 224.086 481.982 242.414C476.406 260.97 473.383 271.27 472.482 285.863C472.139 291.464 471.097 310.262 476.546 328.627C488.345 368.114 525.203 388.702 535.63 394.011Z" fill="black" opacity="0.1"/>
    <path d="M396.961 338.013C396.771 342.19 396.295 346.348 395.539 350.46C395.424 351.133 395.285 351.806 395.145 352.479C394.185 357.12 392.821 361.667 391.068 366.069C384.197 383.165 371.762 395.955 355.404 400.362C337.064 405.29 317.682 398.634 302.174 384.194C299.94 382.109 297.82 379.904 295.824 377.589C291.431 372.513 287.598 366.977 284.393 361.078C283.631 359.706 282.907 358.296 282.209 356.861C279.522 351.312 277.334 345.536 275.668 339.601C275.591 339.372 275.528 339.131 275.464 338.89C275.401 338.648 275.325 338.407 275.261 338.166C274.944 336.972 274.639 335.778 274.359 334.584L274.093 333.39C273.915 332.59 273.75 331.79 273.597 331.002C272.822 327.095 272.271 323.148 271.946 319.178C271.425 312.833 271.523 306.452 272.238 300.126C272.556 297.37 272.988 294.665 273.508 292.036C274.964 284.909 277.414 278.021 280.786 271.575C288.013 257.972 299.177 247.977 313.25 244.192C331.031 239.391 349.853 245.551 365.12 259.141C367.405 261.17 369.572 263.328 371.61 265.605C373.299 267.485 374.938 269.416 376.5 271.537C378.354 274.001 380.132 276.617 381.783 279.335C384.486 283.773 386.838 288.414 388.82 293.217C390.61 297.51 392.108 301.919 393.303 306.413C393.9 308.611 394.421 310.821 394.865 313.005C395.259 314.91 395.577 316.815 395.856 318.682C396.84 325.076 397.21 331.549 396.961 338.013Z" fill="#DADBE0"/>
    <path d="M371.726 265.567C366.407 270.306 360.085 273.779 353.233 275.728C341.701 278.916 332.594 276.427 323.793 274.013C316.705 272.058 309.999 270.203 302.201 271.575C292.04 273.328 282.515 280.173 273.611 291.998C275.067 284.87 277.517 277.983 280.889 271.537C286.649 266.995 293.427 263.922 300.639 262.583C310.444 260.881 318.42 263.091 326.206 265.212C334.156 267.396 341.663 269.467 350.795 266.939C356.115 265.42 361.042 262.763 365.235 259.153C367.519 261.166 369.686 263.307 371.726 265.567Z" fill="white"/>
    <path d="M388.948 293.179C381.251 302.146 372.437 308.039 362.682 310.744C350.464 314.136 340.621 311.418 331.921 309.03C324.796 307.074 318.661 305.385 311.409 306.642C304.639 307.811 298.073 311.494 291.786 317.616C285.411 324.126 280.008 331.522 275.745 339.575C275.605 339.106 275.465 338.623 275.338 338.14C273.662 331.924 272.552 325.569 272.023 319.152C274.762 315.359 277.785 311.78 281.066 308.446C289.716 299.733 299.051 294.475 309.008 292.747C319.36 290.957 328.06 293.332 335.68 295.44C343.555 297.599 350.362 299.466 358.72 297.218H358.948C367.445 294.856 375.155 288.861 381.924 279.348C384.614 283.773 386.962 288.397 388.948 293.179Z" fill="#066FD1"/>
    <path d="M394.979 312.98C395.36 314.872 395.69 316.79 395.97 318.644C388.349 328.462 379.611 334.8 369.844 337.505L369.552 337.581C358.794 340.477 350.12 338.089 341.724 335.778C334.358 333.758 327.398 331.841 319.053 333.238C317.876 333.442 316.71 333.71 315.56 334.038C304.409 337.213 293.969 346.243 284.469 361.002C283.707 359.63 282.983 358.22 282.297 356.785C291.06 343.779 300.65 335.194 310.925 331.231C313.32 330.287 315.805 329.589 318.342 329.148C327.601 327.548 335.336 329.669 342.817 331.688C351.123 333.974 358.959 336.146 368.739 333.415C378.519 330.685 387.409 323.928 394.979 312.98Z" fill="white"/>
    <path d="M395.502 350.46C395.387 351.133 395.248 351.806 395.108 352.48C394.148 357.12 392.784 361.667 391.031 366.069C387.293 368.442 383.228 370.257 378.965 371.455C367.42 374.643 358.314 372.153 349.525 369.727C342.425 367.784 335.731 365.917 327.933 367.289C318.877 368.864 310.253 374.516 302.138 384.194C299.903 382.109 297.783 379.904 295.787 377.589C305.16 366.666 315.385 360.189 326.345 358.297C336.15 356.595 344.127 358.805 351.912 360.938C359.863 363.123 367.369 365.18 376.501 362.666C382.841 360.807 388.61 357.382 393.279 352.708C394.079 351.984 394.816 351.248 395.502 350.46Z" fill="#066FD1"/>
    <path d="M396.961 338.013C396.394 342.636 395.788 347.459 395.145 352.48C394.185 357.12 392.821 361.667 391.068 366.07C384.197 383.165 371.762 395.955 355.404 400.362C337.064 405.29 317.682 398.635 302.174 384.194C299.94 382.109 297.82 379.904 295.824 377.589C291.431 372.513 287.598 366.977 284.393 361.078C283.631 359.706 282.907 358.297 282.209 356.861C279.522 351.312 277.334 345.536 275.668 339.601C275.591 339.372 275.528 339.131 275.464 338.89C275.401 338.648 275.325 338.407 275.261 338.166C274.944 336.972 274.639 335.778 274.359 334.584L274.093 333.39C273.915 332.59 273.75 331.79 273.597 331.002C272.822 327.096 272.271 323.148 271.946 319.178C271.425 312.833 271.523 306.452 272.238 300.127C274.893 302.806 277.814 305.613 280.977 308.484C286.4 313.399 289.054 315.901 291.709 317.654C297.087 321.101 303.157 323.321 309.49 324.157C317.294 325.1 325.207 324.46 332.758 322.277C348.088 317.616 363.812 293.293 376.538 271.473C378.392 273.937 380.17 276.554 381.822 279.272C384.524 283.709 386.876 288.351 388.858 293.154C390.648 297.447 392.146 301.855 393.341 306.35C393.938 308.547 394.459 310.757 394.903 312.942C395.297 314.847 395.615 316.752 395.894 318.619C396.87 325.035 397.227 331.529 396.961 338.013Z" fill="black" opacity="0.1"/>
    <path d="M420.56 507.379C543.019 507.379 642.292 503.769 642.292 499.314C642.292 494.86 543.019 491.249 420.56 491.249C298.101 491.249 198.828 494.86 198.828 499.314C198.828 503.769 298.101 507.379 420.56 507.379Z" fill="#1D2535" opacity="0.5"/>
    <path d="M555.836 419.591C543.605 440.077 524.262 463.841 494.466 480.225C420.979 520.601 327.094 492.278 274.512 438.807C258.801 422.733 246.133 403.946 237.121 383.355C235.117 378.923 234.744 373.926 236.066 369.245C237.417 364.362 240.475 360.126 244.684 357.308C248.894 354.49 253.975 353.277 259.004 353.889L524.745 385.87L540.291 387.724C543.786 388.156 547.119 389.453 549.986 391.499C552.853 393.545 555.164 396.275 556.708 399.441C558.252 402.606 558.982 406.107 558.829 409.626C558.677 413.145 557.648 416.571 555.836 419.591Z" fill="#454C5E"/>
    <path d="M524.745 385.87C495.533 392.221 458.129 400.184 414.247 408.732C351.555 420.925 314.964 426.742 298.58 407.652C292.141 400.146 292.725 393.021 282.602 384.168C268.504 371.823 250.304 369.067 236.041 369.257C237.391 364.375 240.449 360.139 244.659 357.321C248.869 354.503 253.95 353.29 258.979 353.902L524.745 385.87Z" fill="black" opacity="0.15"/>
    <path d="M332.935 408.795C343.59 408.795 352.228 396.598 352.228 381.552C352.228 366.506 343.59 354.308 332.935 354.308C322.28 354.308 313.643 366.506 313.643 381.552C313.643 396.598 322.28 408.795 332.935 408.795Z" fill="#DADBE0"/>
    <path d="M436.295 426.526C446.95 426.526 455.587 414.328 455.587 399.282C455.587 384.236 446.95 372.039 436.295 372.039C425.64 372.039 417.002 384.236 417.002 399.282C417.002 414.328 425.64 426.526 436.295 426.526Z" fill="#DADBE0"/>
    <path d="M379.6 323.788C379.6 323.788 364.435 208.35 388.198 204.667C411.961 200.984 401.229 320.118 401.229 320.118L379.6 323.788Z" fill="#066FD1"/>
    <path d="M403.643 325.401C403.643 325.401 442.164 215.475 465.013 222.943C487.862 230.411 424.599 331.904 424.599 331.904L403.643 325.401Z" fill="#066FD1"/>
    <path d="M396.212 386.594C422.832 386.594 444.411 365.014 444.411 338.394C444.411 311.774 422.832 290.194 396.212 290.194C369.592 290.194 348.012 311.774 348.012 338.394C348.012 365.014 369.592 386.594 396.212 386.594Z" fill="#DADBE0"/>
    <path d="M365.641 390.519C380.014 390.519 391.665 378.867 391.665 364.495C391.665 350.122 380.014 338.47 365.641 338.47C351.269 338.47 339.617 350.122 339.617 364.495C339.617 378.867 351.269 390.519 365.641 390.519Z" fill="#A6A9B3"/>
    <path d="M406.715 400.133C421.088 400.133 432.74 388.482 432.74 374.109C432.74 359.736 421.088 348.085 406.715 348.085C392.343 348.085 380.691 359.736 380.691 374.109C380.691 388.482 392.343 400.133 406.715 400.133Z" fill="#A6A9B3"/>
    <path d="M457.851 377.272C457.619 377.31 457.383 377.31 457.152 377.272L408.889 368.584C408.379 368.477 407.932 368.175 407.64 367.743C407.349 367.312 407.237 366.784 407.328 366.271C407.418 365.759 407.705 365.301 408.126 364.996C408.548 364.69 409.072 364.561 409.587 364.634L457.736 373.309C457.995 373.353 458.243 373.449 458.464 373.589C458.686 373.729 458.878 373.912 459.029 374.127C459.18 374.342 459.288 374.584 459.345 374.841C459.402 375.097 459.408 375.362 459.362 375.62C459.292 376.029 459.098 376.405 458.808 376.7C458.517 376.996 458.143 377.195 457.736 377.272H457.851Z" fill="#066FD1"/>
    <path d="M438.684 396.158C438.221 396.239 437.744 396.153 437.338 395.917L408.723 379.317C408.493 379.187 408.292 379.014 408.13 378.806C407.968 378.598 407.85 378.36 407.781 378.106C407.713 377.852 407.695 377.586 407.731 377.325C407.766 377.064 407.853 376.813 407.986 376.586C408.252 376.127 408.688 375.793 409.2 375.655C409.711 375.517 410.257 375.587 410.717 375.849L439.37 392.513C439.596 392.644 439.793 392.819 439.951 393.026C440.109 393.234 440.224 393.471 440.291 393.724C440.357 393.976 440.372 394.24 440.336 394.498C440.3 394.757 440.214 395.006 440.081 395.231C439.934 395.481 439.731 395.694 439.489 395.855C439.247 396.016 438.972 396.119 438.684 396.158Z" fill="#066FD1"/>
    <path d="M360.128 358.411C359.815 358.486 359.489 358.486 359.176 358.411L312.411 343.957C311.906 343.799 311.484 343.446 311.239 342.977C310.994 342.508 310.945 341.96 311.103 341.455C311.261 340.95 311.614 340.528 312.083 340.283C312.552 340.038 313.1 339.989 313.605 340.147L360.382 354.601C360.633 354.684 360.864 354.816 361.064 354.988C361.263 355.161 361.426 355.371 361.544 355.607C361.662 355.843 361.732 356.1 361.751 356.363C361.77 356.626 361.736 356.891 361.653 357.141C361.528 357.465 361.323 357.752 361.056 357.974C360.789 358.197 360.47 358.347 360.128 358.411Z" fill="#066FD1"/>
    <path d="M358.668 368.622L358.363 368.686L325.341 369.651C324.809 369.668 324.291 369.473 323.903 369.108C323.515 368.744 323.287 368.24 323.271 367.708C323.254 367.176 323.449 366.659 323.813 366.27C324.178 365.882 324.682 365.654 325.214 365.638L358.236 364.672C358.737 364.665 359.223 364.845 359.598 365.177C359.973 365.509 360.21 365.97 360.263 366.468C360.315 366.967 360.18 367.467 359.882 367.87C359.585 368.273 359.147 368.551 358.655 368.648L358.668 368.622Z" fill="#066FD1"/>
    <path d="M388.287 361.294C391.9 361.294 394.828 358.365 394.828 354.753C394.828 351.141 391.9 348.212 388.287 348.212C384.675 348.212 381.746 351.141 381.746 354.753C381.746 358.365 384.675 361.294 388.287 361.294Z" fill="#454C5E"/>
    <path d="M257.302 356.201C258.474 356.074 259.617 355.747 260.68 355.236C261.271 354.966 261.84 354.652 262.382 354.296C240.105 296.392 250.049 231.212 289.625 183.812C299.57 171.898 336.123 132.564 388.692 126.848C421.308 123.305 453.467 133.682 481.523 156.861C518.825 187.597 544.583 237.549 548.749 287.222C551.987 325.668 541.89 360.316 530.078 386.505C531.96 388.107 534.339 389.005 536.81 389.045C538.392 389.042 539.95 388.663 541.357 387.94C553.156 360.824 562.872 325.528 559.583 286.333C555.175 233.841 527.919 181.03 488.458 148.491C457.976 123.419 423.124 112.204 387.524 116.065C330.954 122.225 291.937 164.164 281.332 176.877C258.714 204.047 244.698 237.336 241.07 272.502C238.1 300.228 241.471 328.266 250.926 354.499C251.732 355.088 252.629 355.543 253.58 355.845C254.785 356.206 256.05 356.327 257.302 356.201Z" fill="#454C5E"/>
</svg>
