<svg xmlns="http://www.w3.org/2000/svg" width="800" height="600" fill="none" viewBox="0 0 800 600">
    <path d="M171.84 299.64C171.84 341.99 216.64 372.71 236.39 406.92C256.91 442.26 261.74 496.13 297.07 516.55C331.28 536.34 379.97 514.19 422.33 514.19C464.69 514.19 513.38 536.34 547.57 516.55C582.86 496.13 587.73 442.21 608.19 406.92C628 372.71 672.73 342 672.73 299.64C672.73 257.28 628 226.56 608.19 192.35C587.78 157.07 582.86 103.14 547.57 82.71C513.34 62.93 464.64 85.12 422.29 85.12C379.94 85.12 331.24 62.93 297.07 82.71C261.79 103.14 256.91 157.07 236.46 192.35C216.68 226.56 171.91 257.28 171.91 299.64" fill="black" opacity="0.07"/>
    <path d="M488.51 438.65L429.01 439.27L386.39 439.71C385.295 439.72 384.201 439.64 383.12 439.47C377.821 438.667 373.048 435.816 369.83 431.53C364.07 423.83 358.29 415.98 352.66 408.21C345.29 398.02 337.91 387.62 330.74 377.28C329.178 375.02 328.084 372.47 327.524 369.78C326.965 367.09 326.949 364.316 327.48 361.62L351.41 241.62C351.643 240.452 351.403 239.239 350.742 238.247C350.081 237.256 349.053 236.568 347.885 236.335C346.717 236.102 345.503 236.342 344.512 237.003C343.521 237.664 342.833 238.692 342.6 239.86L318.67 359.86C318.444 361.036 318.287 362.225 318.2 363.42L308.29 406.42C308.179 406.899 308.163 407.396 308.245 407.881C308.326 408.367 308.502 408.831 308.763 409.248C309.024 409.665 309.365 410.027 309.766 410.312C310.167 410.597 310.62 410.8 311.1 410.91C311.375 410.978 311.657 411.011 311.94 411.01C312.788 411.011 313.611 410.723 314.275 410.194C314.938 409.666 315.402 408.927 315.59 408.1L322 380.24C322.42 380.97 322.87 381.7 323.35 382.4C330.55 392.79 337.96 403.25 345.35 413.48C351.01 421.29 356.81 429.18 362.6 436.91C363.292 437.832 364.036 438.714 364.83 439.55C369.484 444.433 375.671 447.574 382.36 448.45C383.616 448.619 384.882 448.702 386.15 448.7H386.45L429.14 448.26L472.23 447.82L488.57 447.65C489.763 447.638 490.903 447.152 491.739 446.3C492.574 445.448 493.037 444.298 493.025 443.105C493.013 441.911 492.527 440.772 491.675 439.936C490.823 439.101 489.673 438.638 488.48 438.65H488.51Z" fill="#454C5E"/>
    <path d="M381.71 219.55C377.954 222.058 374.944 225.533 373 229.61C372.184 231.359 371.577 233.199 371.19 235.09C371.02 235.91 370.91 236.67 370.83 237.35L370.55 237.27C370.83 240.07 370.28 241.06 369.67 241.42C368.81 241.94 367.17 241.32 365.57 240.42C364.08 239.581 362.649 238.639 361.29 237.6C339.6 220.23 328.75 211.53 323.03 201.02L322.56 200.13C317.05 189.71 315.27 180.85 313.77 173.4C310.29 156.09 307.66 123.4 320.16 117.98C320.69 117.76 324.61 116.14 328.29 117.98C342.29 124.84 326.11 168.47 341.74 189.06C346.418 195.068 351.853 200.446 357.91 205.06L358.74 205.66C360.93 207.21 363.24 208.66 365.98 210.37C372.41 214.42 377.89 217.49 381.71 219.55Z" fill="#FFCB9D"/>
    <path d="M381.711 219.55C377.954 222.058 374.945 225.533 373.001 229.61C372.184 231.359 371.577 233.199 371.191 235.09L365.571 240.46C364.08 239.621 362.65 238.679 361.291 237.64C339.601 220.27 328.751 211.57 323.031 201.06L322.561 200.17C330.721 209.8 339.021 217.17 344.881 216.61C351.361 215.98 355.411 210.87 357.881 205.05L358.711 205.65C360.901 207.2 363.211 208.65 365.951 210.36C372.411 214.42 377.891 217.49 381.711 219.55Z" fill="black" opacity="0.1"/>
    <path d="M393.53 217.73C390.325 217.697 387.126 217.43 383.96 216.93C379.44 216.21 376.55 215.75 373.32 213.93C370.83 212.503 368.658 210.58 366.94 208.28L342.16 237.11C345.599 240.652 349.366 243.859 353.41 246.69C360.382 251.556 368.09 255.27 376.24 257.69C382.013 244.377 387.777 231.057 393.53 217.73Z" fill="#066FD1"/>
    <path d="M244.29 469C244.29 471.42 331.29 473.37 438.63 473.37C545.97 473.37 633 471.4 633 469C633 466.6 546 464.68 438.68 464.68C331.36 464.68 244.29 466.61 244.29 469Z" fill="#1D2535" opacity="0.5"/>
    <path d="M548.64 401.12L549.16 412.12L477.16 367.32C468.874 355.173 460.584 343.023 452.29 330.87L432.19 368.82C424.497 389.42 416.804 410.013 409.11 430.6L400.11 430.77L402.18 355.85C408.274 342.89 414.357 329.933 420.43 316.98L439.54 306.77L483.61 283.25L503.88 340.76L548.64 401.12Z" fill="#DADBE0"/>
    <path d="M559.101 430.75L565.671 405.75C565.671 405.75 559.791 402.5 556.141 405.44C552.491 408.38 554.781 424.58 559.101 430.75Z" fill="#454C5E"/>
    <path d="M452.281 330.87L432.181 368.82C424.487 389.42 416.794 410.013 409.101 430.6L400.101 430.77L402.171 355.85C408.264 342.89 414.347 329.933 420.421 316.98L439.531 306.77L452.281 330.87Z" fill="black" opacity="0.1"/>
    <path d="M303.36 469.35C298.218 469.35 293.191 467.825 288.916 464.968C284.64 462.111 281.307 458.051 279.339 453.3C277.372 448.549 276.857 443.321 277.86 438.278C278.863 433.234 281.339 428.601 284.976 424.965C288.612 421.329 293.245 418.853 298.288 417.85C303.332 416.846 308.559 417.361 313.31 419.329C318.061 421.297 322.122 424.629 324.979 428.905C327.835 433.181 329.36 438.208 329.36 443.35C329.344 450.241 326.6 456.845 321.728 461.717C316.855 466.59 310.251 469.334 303.36 469.35ZM303.36 423.52C299.444 423.52 295.616 424.681 292.36 426.857C289.104 429.033 286.566 432.125 285.068 435.743C283.569 439.361 283.177 443.342 283.941 447.183C284.705 451.024 286.591 454.552 289.36 457.321C292.129 460.09 295.657 461.976 299.498 462.74C303.338 463.504 307.32 463.111 310.937 461.613C314.555 460.114 317.648 457.576 319.823 454.32C321.999 451.064 323.16 447.236 323.16 443.32C323.152 438.071 321.064 433.04 317.352 429.328C313.641 425.617 308.609 423.528 303.36 423.52Z" fill="#454C5E"/>
    <path d="M483.65 438.7C481.905 440.806 479.914 442.696 477.72 444.33C476.016 445.663 474.188 446.828 472.26 447.81L429.17 448.25L386.48 448.69H386.18C384.912 448.692 383.646 448.609 382.39 448.44C375.701 447.564 369.514 444.423 364.86 439.54C364.066 438.704 363.322 437.822 362.63 436.9C362.05 436.12 361.46 435.34 360.88 434.55C364.159 436.089 367.591 437.279 371.12 438.1C375.055 439.009 379.081 439.465 383.12 439.46L429.01 439.26L468.59 438.85H468.65L483.65 438.7Z" fill="black" opacity="0.25"/>
    <path d="M303.36 453.72C309.104 453.72 313.76 449.064 313.76 443.32C313.76 437.576 309.104 432.92 303.36 432.92C297.616 432.92 292.96 437.576 292.96 443.32C292.96 449.064 297.616 453.72 303.36 453.72Z" fill="#066FD1"/>
    <path d="M420.23 155.74C420.23 159.04 420.23 163.91 420.13 169.86C419.98 171.14 419.97 172.36 419.95 172.71C419.589 179.273 418.362 185.759 416.3 192C415.79 193.26 415.43 194.45 415.01 195.5C413.16 199.76 398.01 205.5 384.52 204.77C371.03 204.04 365.58 191.25 371.11 185.43C373.023 183.084 374.481 180.401 375.41 177.52C376.803 173.704 377.936 169.799 378.8 165.83C379.37 163.5 379.61 162.01 379.61 162.01L389.61 152.39L414.79 151.1C414.66 155.33 415.91 158.27 417.4 158.51C418.89 158.75 419.98 156.38 420.23 155.75" fill="#FFCB9D"/>
    <path d="M420.23 155.74C420.23 159.04 420.23 163.91 420.13 169.86C419.98 171.14 419.97 172.36 419.95 172.71C419.589 179.273 418.362 185.759 416.3 192C414.655 191.521 413.103 190.767 411.71 189.77C410.176 188.684 408.917 187.256 408.03 185.6C407.067 183.86 406.392 181.976 406.03 180.02C405.703 178.752 405.449 177.467 405.27 176.17C395.76 179.884 385.276 180.286 375.51 177.31C376.903 173.494 378.035 169.589 378.9 165.62C379.48 163.29 379.72 161.8 379.72 161.8L389.72 152.18L414.9 150.89C414.78 155.12 416.03 158.06 417.52 158.3C419.01 158.54 420.01 156.38 420.26 155.75" fill="black" opacity="0.1"/>
    <path d="M424.48 160C424.92 164.33 427.48 165.14 426.72 167.74C425.82 170.55 421.26 172.49 418.98 174.5C418.465 174.964 417.977 175.459 417.52 175.98C417.308 176.211 417.123 176.466 416.97 176.74C415.297 178.977 414.199 181.59 413.77 184.35C412.511 182.961 411.718 181.212 411.5 179.35C411.51 176.387 411.768 173.43 412.27 170.51C412.233 170.393 412.233 170.267 412.27 170.15C412.27 169.8 412.27 169.65 412.27 168.94C412.363 167.571 412.303 166.196 412.09 164.84L412.03 164.69L411.03 165.11C409.2 165.89 405.83 167.3 401.78 168.71C391.9 172.15 377.99 175.57 372.63 169.71C371.787 168.821 371.082 167.809 370.54 166.71C369.886 165.445 369.622 164.015 369.78 162.6C370.53 157.41 378.14 156.1 378.23 151.37C378.28 148.22 374.96 147.37 375.5 144.53C376.04 141.69 380 139.15 383.44 139.08C386.03 139.08 386.3 140.48 388.73 140.49C392.89 140.49 393.67 136.14 397.91 135.9C400.574 136.007 403.143 136.917 405.28 138.51C407.06 139.85 407.43 140.73 409.38 141.64C410.894 142.239 412.503 142.561 414.13 142.59C417.64 142.66 418.21 141.59 420.06 141.81C423.31 142.52 425.88 146.12 426.46 149.53C427.15 154 424 155.19 424.48 160Z" fill="#454C5E"/>
    <path d="M415.09 160C414.619 161.791 413.589 163.385 412.15 164.55L411.07 165.18C409.24 165.96 405.87 167.37 401.82 168.78C391.94 172.22 378.03 175.64 372.67 169.78C371.827 168.891 371.122 167.879 370.58 166.78C373.865 167.557 377.211 168.049 380.58 168.25C396 169.18 408.3 163.76 415.09 160Z" fill="black" opacity="0.5"/>
    <path d="M389.16 446.94L412 443C412 443 412.48 437 408.72 435.1C404.96 433.2 392.59 441.12 389.16 446.94Z" fill="#454C5E"/>
    <path d="M515.601 283.48C493.671 293.48 478.601 302.88 468.341 310.17C461.281 315.17 446.521 325.53 436.231 323.48C434.161 323.07 430.011 321.48 424.451 322.34C421.831 322.742 419.294 323.57 416.941 324.79C417.236 321.167 417.256 317.526 417.001 313.9C416.641 308.9 410.091 286.05 409.461 283.7C406.679 273.392 402.8 263.411 397.891 253.93L397.231 257.77C396.397 262.543 395.571 267.317 394.751 272.09C385.571 266.59 376.394 261.073 367.221 255.54C367.321 254.83 367.501 253.62 367.691 252.13C369.951 234.94 368.931 230.23 372.751 224.71C374.244 222.348 376.367 220.45 378.881 219.23C381.171 218.23 383.311 218.02 386.511 217.77C388.841 217.595 391.181 217.595 393.511 217.77C393.511 217.77 405.001 216 418.001 204.92C418.341 204.63 418.661 204.32 418.661 204.32C419.151 203.78 419.891 202.97 420.721 201.93C425.991 195.44 426.011 192.17 427.431 191.59C433.361 189.14 450.431 238.96 488.541 267.96C496.852 274.282 505.948 279.498 515.601 283.48Z" fill="#066FD1"/>
    <path d="M411.5 216.55C420.2 210.16 425.69 202.81 423.74 200.19C423.33 199.68 422.739 199.35 422.09 199.27C421.693 200.182 421.225 201.061 420.69 201.9C417.14 207.56 403.58 213.38 393.55 217.69C391.96 220.15 391.41 222.16 392.24 223.32C394.19 226 402.81 223 411.5 216.55Z" fill="#FFCB9D"/>
    <path d="M661.24 136.33H559.17C557.994 136.33 557.04 137.284 557.04 138.46C557.04 139.636 557.994 140.59 559.17 140.59H661.24C662.416 140.59 663.37 139.636 663.37 138.46C663.37 137.284 662.416 136.33 661.24 136.33Z" fill="#066FD1"/>
    <path d="M601.42 149.7H499.35C498.173 149.7 497.22 150.654 497.22 151.83C497.22 153.006 498.173 153.96 499.35 153.96H601.42C602.596 153.96 603.55 153.006 603.55 151.83C603.55 150.654 602.596 149.7 601.42 149.7Z" fill="#066FD1"/>
    <path d="M261.94 282.96H159.87C158.694 282.96 157.74 283.914 157.74 285.09C157.74 286.266 158.694 287.22 159.87 287.22H261.94C263.117 287.22 264.07 286.266 264.07 285.09C264.07 283.914 263.117 282.96 261.94 282.96Z" fill="#066FD1"/>
    <path d="M231.36 300.42H129.29C128.114 300.42 127.16 301.374 127.16 302.55C127.16 303.726 128.114 304.68 129.29 304.68H231.36C232.537 304.68 233.49 303.726 233.49 302.55C233.49 301.374 232.537 300.42 231.36 300.42Z" fill="#066FD1"/>
    <path d="M515.6 283.48C493.67 293.48 478.6 302.88 468.34 310.17C461.28 315.17 446.52 325.53 436.23 323.48C434.16 323.07 430.01 321.48 424.45 322.34C421.83 322.742 419.294 323.57 416.94 324.79C417.235 321.167 417.255 317.526 417 313.9C416.64 308.9 410.09 286.05 409.46 283.7C406.679 273.392 402.8 263.411 397.89 253.93L397.23 257.77V251.4C397.23 251.4 439.51 303.81 515.6 283.48Z" fill="black" opacity="0.1"/>
    <path d="M411.5 216.55C420.2 210.16 425.69 202.81 423.74 200.19C423.33 199.68 422.739 199.35 422.09 199.27C421.693 200.182 421.225 201.061 420.69 201.9C417.14 207.56 403.58 213.38 393.55 217.69C391.96 220.15 391.41 222.16 392.24 223.32C394.19 226 402.81 223 411.5 216.55Z" fill="black" opacity="0.1"/>
    <path d="M374.41 239L349.22 246.78L347.93 247.18L323.33 254.79L321.67 255.3L313.27 257.9C312.054 258.275 310.739 258.151 309.614 257.557C308.489 256.963 307.646 255.946 307.27 254.73L306.74 253.04C306.37 251.825 306.495 250.514 307.087 249.39C307.678 248.267 308.689 247.422 309.9 247.04L319.71 244.04L320.12 243.91L345.21 236.16L351.83 234.16L371.05 228.22C372.265 227.845 373.579 227.967 374.704 228.559C375.829 229.152 376.672 230.166 377.05 231.38L377.58 233.08C377.928 234.285 377.791 235.579 377.199 236.685C376.607 237.791 375.606 238.621 374.41 239Z" fill="#454C5E"/>
    <path d="M462.35 221.84C461.485 230.189 458.9 238.269 454.76 245.57C453.98 246.903 453.15 248.213 452.27 249.5C432.32 278.27 386.98 287.28 355.35 274.73C339.35 268.35 319.35 253.46 321.55 242.48C322.32 238.72 325.69 235.56 329.11 234.29C338.46 230.86 346.88 242.06 359.52 248.48C384.52 261.2 421.52 252.79 435.11 236.8C436.843 234.811 438.226 232.542 439.2 230.09C440.074 227.776 440.521 225.323 440.52 222.85L462.35 221.84Z" fill="#FFCB9D"/>
    <path d="M462.351 221.84C461.485 230.189 458.901 238.269 454.761 245.57C453.981 246.903 453.151 248.213 452.271 249.5C453.841 244.68 453.951 240.45 450.471 238.91C445.611 236.906 440.319 236.183 435.101 236.81C436.834 234.821 438.216 232.552 439.191 230.1C440.065 227.786 440.512 225.333 440.511 222.86L462.351 221.84Z" fill="black" opacity="0.1"/>
    <path d="M427.49 191.25C427.802 191.019 428.137 190.822 428.49 190.66C428.49 190.66 434.49 187.66 444.07 190.45C451.69 192.72 462.97 204.73 470.92 223.85L434.6 234.66C431.133 222.06 427.67 209.463 424.21 196.87C424.37 196.49 424.6 195.94 424.89 195.27C425.161 194.586 425.472 193.918 425.82 193.27C426.258 192.507 426.823 191.824 427.49 191.25Z" fill="#066FD1"/>
    <path d="M489.311 425.12C492.91 425.12 496.429 426.187 499.422 428.187C502.415 430.187 504.748 433.03 506.125 436.355C507.503 439.681 507.863 443.34 507.161 446.871C506.459 450.401 504.725 453.644 502.18 456.189C499.635 458.735 496.392 460.468 492.861 461.17C489.331 461.873 485.671 461.512 482.346 460.135C479.02 458.757 476.178 456.424 474.178 453.431C472.178 450.438 471.111 446.92 471.111 443.32C471.116 438.495 473.035 433.869 476.447 430.457C479.859 427.044 484.485 425.125 489.311 425.12ZM489.311 417.64C484.232 417.642 479.268 419.15 475.046 421.973C470.825 424.796 467.535 428.807 465.593 433.5C463.65 438.192 463.143 443.355 464.135 448.336C465.127 453.317 467.574 457.892 471.166 461.482C474.757 465.072 479.333 467.517 484.314 468.507C489.296 469.497 494.458 468.988 499.15 467.044C503.842 465.1 507.852 461.809 510.673 457.586C513.495 453.363 515.001 448.399 515.001 443.32C515.001 436.509 512.295 429.977 507.479 425.161C502.663 420.346 496.131 417.64 489.321 417.64H489.311Z" fill="#066FD1"/>
</svg>
