<svg xmlns="http://www.w3.org/2000/svg" width="800" height="600" fill="none" viewBox="0 0 800 600">
    <path d="M171.907 303.625C171.907 341.039 211.48 368.198 228.957 398.403C247.006 429.581 251.339 477.22 282.517 495.268C312.722 512.745 355.742 493.18 393.169 493.18C430.597 493.18 473.602 512.745 503.822 495.268C534.999 477.22 539.333 429.581 557.367 398.403C574.858 368.198 614.417 341.039 614.417 303.625C614.417 266.212 574.858 239.067 557.367 208.805C539.333 177.627 534.999 129.988 503.822 111.939C473.602 94.4627 430.582 114.027 393.169 114.027C355.756 114.027 312.722 94.4627 282.517 111.939C251.339 129.988 247.006 177.627 228.957 208.805C211.48 239.025 171.907 266.169 171.907 303.582V303.625Z" fill="black" opacity="0.07"/>
    <path d="M359.117 132.119L379.683 158.592L413.12 162.882C413.449 165.013 413.778 167.173 414.093 169.29L383.158 178.171L345.488 158.563L335.92 227.898L329.87 228.413C325.761 200.83 321.651 173.237 317.542 145.635L359.117 132.119Z" fill="#066FD1"/>
    <path d="M425.935 160.766L422.216 161.438C422.216 161.438 418.569 161.552 417.926 163.755C417.282 165.957 423.403 172.336 427.265 173.966L424.176 166.229L427.036 164.97L425.935 160.766Z" fill="#454C5E"/>
    <path d="M318.672 96.2363C318.837 97.4888 319.076 98.7305 319.387 99.9548C319.521 99.3954 319.521 98.8122 319.387 98.2529C319.187 97.5807 318.929 96.9228 318.672 96.2363Z" fill="black" opacity="0.1"/>
    <path d="M262.538 162.425C262.058 163.068 261.496 163.645 260.865 164.141C258.619 165.914 255.888 166.215 254.071 164.67C251.783 162.682 251.826 158.506 254.2 155.302C254.463 154.949 254.75 154.615 255.058 154.301C257.404 151.913 260.622 151.312 262.652 153.057C264.941 155.016 264.898 159.221 262.538 162.425Z" fill="#FFCB9D"/>
    <path d="M262.537 162.425C262.058 163.068 261.495 163.645 260.864 164.141C260.635 163.912 260.449 163.697 260.249 163.483C257.675 160.537 257.689 158.334 255.372 154.759C255.277 154.6 255.172 154.447 255.058 154.301C257.403 151.913 260.621 151.312 262.652 153.057C264.94 155.016 264.897 159.221 262.537 162.425Z" fill="black" opacity="0.1"/>
    <path d="M393.67 107.735C394.439 107.964 395.167 108.311 395.829 108.765C398.246 110.295 399.419 112.769 398.547 115C397.417 117.86 393.455 119.133 389.651 117.86C389.234 117.731 388.827 117.568 388.435 117.374C385.403 115.944 383.787 113.084 384.788 110.595C385.89 107.864 389.88 106.533 393.67 107.735Z" fill="#FFCB9D"/>
    <path d="M393.67 107.735C394.439 107.964 395.167 108.311 395.829 108.765L395.415 109.551C393.47 112.955 391.381 113.642 388.75 116.988C388.65 117.145 388.535 117.274 388.435 117.446C385.403 116.016 383.787 113.155 384.788 110.667C385.89 107.864 389.88 106.534 393.67 107.735Z" fill="black" opacity="0.1"/>
    <path d="M359.131 132.119C354.841 133.893 350.278 135.652 345.459 137.354C343.174 138.155 340.88 138.932 338.579 139.685C335.719 140.615 332.859 141.501 329.998 142.302C325.708 143.546 321.56 144.633 317.585 145.592C316.154 143.217 314.581 140.786 312.879 138.312C308.591 132.07 303.808 126.183 298.578 120.707C297.233 133.392 295.217 152.027 283.403 164.413C280.096 167.816 276.225 170.623 271.962 172.708L269.745 169.847L266.37 165.557L246.348 140.157C246.348 140.157 260.163 143.961 269.974 141.172C281.415 138.012 287.336 126.012 288.18 121.15C288.615 118.203 289.412 115.32 290.554 112.569C290.654 112.311 290.969 111.539 291.441 110.538C291.627 110.209 291.799 109.837 291.999 109.451C292.485 108.521 293.043 107.592 293.586 106.719C295.795 103.272 298.293 100.019 301.052 96.9943C303.186 94.662 305.449 92.4513 307.831 90.3726C308.632 89.6718 309.475 88.9424 310.348 88.2416C311.742 87.0105 313.224 85.8824 314.781 84.8664C316.388 84.0691 318.104 83.5148 319.873 83.2217H319.987C320.717 83.1073 328.797 85.8533 329.083 85.8962C330.728 86.4253 344.815 109.852 353.267 123.081C354.869 125.612 356.256 127.786 357.315 129.345C357.82 130.331 358.429 131.261 359.131 132.119Z" fill="#DADBE0"/>
    <path d="M359.116 132.119L345.458 137.296L329.969 142.331C333.73 133.167 333.73 122.891 329.969 113.727C323.448 98.2671 308.817 93.5475 306.758 92.9612L307.659 90.487C308.46 89.7862 309.304 89.0568 310.19 88.356C311.57 87.1133 313.048 85.9845 314.609 84.9808C316.218 84.1899 317.933 83.636 319.701 83.3361H319.815C321.283 83.1132 322.772 83.0747 324.249 83.2217V83.379L324.02 84.6232L323.477 87.2405L328.911 85.9533C330.556 86.4825 344.643 109.909 353.095 123.138C354.526 125.641 355.956 127.757 357.143 129.416C357.929 130.575 358.602 131.461 359.116 132.119Z" fill="black" opacity="0.1"/>
    <path d="M312.522 89.1282C315.883 92.5892 314.496 99.3682 309.447 104.274C304.399 109.179 297.591 110.323 294.23 106.862C294.045 106.677 293.882 106.47 293.744 106.247C295.944 102.794 298.442 99.5399 301.21 96.5222C304.095 93.3814 307.207 90.4561 310.52 87.7695C311.275 88.0779 311.957 88.5407 312.522 89.1282Z" fill="#FFCB9D"/>
    <path d="M315.883 105.375C315.439 105.375 315.139 104.903 314.61 103.945C314.431 103.572 314.215 103.217 313.966 102.887C313.241 102.256 312.42 101.745 311.535 101.371C314.138 101.099 317.356 100.541 318.543 99.3827C318.698 99.2426 318.821 99.0701 318.903 98.8774C318.984 98.6846 319.023 98.4763 319.015 98.2672C318.9 96.837 316.912 95.8359 315.425 95.1923C312.293 93.7621 310.076 93.6763 308.832 94.7776C307.588 95.8788 307.717 98.5246 308.045 99.9119C306.344 99.4399 302.868 98.7678 301.052 100.641C299.622 102.186 299.708 105.061 301.367 109.222C302.139 111.139 303.369 113.713 305.056 113.913C305.32 113.946 305.587 113.915 305.836 113.823C306.085 113.731 306.308 113.58 306.487 113.384C308.103 111.811 308.975 107.191 309.347 103.888C309.706 104.796 309.805 105.787 309.633 106.748C309.499 107.036 309.439 107.354 309.459 107.671C309.479 107.988 309.578 108.295 309.747 108.564C310.795 109.763 312.235 110.549 313.809 110.781V109.465C311.549 108.865 311.02 108.321 310.949 108.121C310.904 108.038 310.88 107.944 310.88 107.849C310.88 107.754 310.904 107.661 310.949 107.578C311.564 106.147 310.677 103.516 310.062 102C311.128 102.431 312.149 102.967 313.108 103.602C313.252 103.822 313.381 104.051 313.494 104.288C313.966 105.204 314.767 106.734 316.269 106.791C317.113 106.791 318.958 108.107 321.232 110.223L321.99 109.351C319.201 106.748 317.241 105.432 315.883 105.375ZM309.819 95.9217C310.734 95.1065 312.522 95.2924 315.139 96.4366C317.456 97.452 317.599 98.0098 317.613 98.0098C317.613 98.8679 313.823 99.8404 309.347 100.155C309.147 99.0109 308.803 96.8942 309.819 95.9217ZM304.828 112.454C304.742 112.454 303.941 112.254 302.611 108.951C301.181 105.347 301.009 102.901 302.153 101.685L302.239 101.599C303.669 100.169 306.83 100.842 308.203 101.242C307.645 106.905 306.186 112.612 304.828 112.454Z" fill="#066FD1"/>
    <path d="M325.036 82.0491C337.995 82.1208 350.831 84.5687 362.907 89.2714C362.907 89.2714 368.627 91.5311 395.457 106.133C391.876 108.107 389.084 111.253 387.549 115.043C386.118 119.162 387.377 121.736 386.118 126.198C384.845 130.203 382.343 133.706 378.968 136.21C378.324 134.78 377.423 132.82 376.265 130.646C374.638 127.624 372.832 124.701 370.858 121.894C367.378 116.946 363.447 112.331 359.117 108.107C355.135 104.53 350.754 101.425 346.059 98.8536C338.75 94.7584 330.831 91.8613 322.604 90.2726C323.396 87.5171 324.206 84.7759 325.036 82.0491Z" fill="#DADBE0"/>
    <path d="M296.161 93.3044C300.823 89.0138 304.084 82.5495 304.513 79.0885C304.626 78.522 304.592 77.9358 304.413 77.3866C304.155 76.7287 303.841 76.0994 303.512 75.4415C303.046 74.5255 302.535 73.6329 301.982 72.7671C300.592 70.4998 298.998 68.3647 297.219 66.3885C297.076 66.2312 296.618 65.7593 296.118 65.2015C293.772 62.7845 291.827 60.911 290.397 59.5952C290.512 59.8956 290.941 61.3257 290.397 61.7834C289.854 62.241 288.095 61.6261 286.421 59.9099L277.011 70.6218V78.4878C277.011 78.4878 277.511 79.16 278.212 80.2755C279.44 82.1853 280.535 84.178 281.487 86.2393C282.289 87.7515 282.798 89.4011 282.989 91.1019C283.246 95.6355 290.597 98.453 296.161 93.3044Z" fill="#FFCB9D"/>
    <path d="M281.487 86.2393C286.517 83.4261 290.467 79.0182 292.714 73.711C293.785 72.7935 295.085 72.1853 296.475 71.9519C298.563 71.6373 299.479 72.4954 301.724 72.7385H301.924C300.552 70.4835 298.977 68.358 297.219 66.3885C297.076 66.2312 296.618 65.7593 296.118 65.2015C293.772 62.7845 291.827 60.911 290.397 59.5952C290.512 59.8956 290.941 61.3257 290.397 61.7834C289.854 62.241 288.095 61.6261 286.421 59.9099L277.011 70.6218V78.4878C277.011 78.4878 277.511 79.16 278.212 80.2755C279.44 82.1853 280.535 84.178 281.487 86.2393Z" fill="black" opacity="0.1"/>
    <path d="M270.446 81.8202C271.043 82.464 271.813 82.9211 272.663 83.1359C274.439 83.5581 276.291 83.5335 278.055 83.0644C285.849 81.0479 288.61 70.1929 289.253 67.0751C291.055 67.7759 293.229 67.3755 294.216 67.9618C294.502 68.1334 294.802 68.3051 295.06 68.491C296.282 69.3044 297.351 70.3258 298.22 71.5086C300.223 74.1974 301.195 77.3867 303.226 80.2756C308.546 87.7554 319.687 91.0877 327.453 90.1581C327.838 90.1171 328.22 90.055 328.597 89.9722C339.752 87.8701 350.062 82.591 358.288 74.7694C365.472 67.1223 370.117 57.4417 371.588 47.0527C369.276 46.1813 366.88 45.5534 364.437 45.1792C363.293 45.0076 362.392 44.9217 361.777 44.8788C357.549 44.6157 353.31 44.5775 349.077 44.7644C345.416 44.8645 340.01 42.9052 332.459 33.6377C333.31 40.375 332.464 47.2182 329.999 53.5457C327.139 60.6965 320.746 70.5647 315.983 69.392C312.651 68.5768 313.809 63.8572 309.204 60.1531C300.251 53.0022 285.592 58.8802 284.677 59.2664C282.503 60.1817 274.179 63.6713 270.918 71.9091C270.046 74.04 268.029 79.1315 270.446 81.8202Z" fill="#454C5E"/>
    <path d="M327.453 90.2011C327.837 90.16 328.219 90.098 328.597 90.0151C339.76 87.8989 350.074 82.6051 358.301 74.7695C365.477 67.1183 370.117 57.439 371.588 47.0528C369.276 46.1814 366.879 45.5535 364.437 45.1792C363.493 45.0219 362.621 44.9361 361.777 44.8789C362.207 48.4496 361.93 52.07 360.962 55.5337C359.584 60.2098 357.073 64.4737 353.653 67.9476C346.3 75.754 336.334 80.5845 325.651 81.5199C315.568 81.7858 305.761 78.2067 298.22 71.5087C300.222 74.1974 301.195 77.3867 303.225 80.2757C308.546 87.7984 319.687 91.1307 327.453 90.2011ZM272.663 83.136C274.438 83.5582 276.291 83.5336 278.054 83.0645C285.849 81.048 288.609 70.193 289.253 67.0752C289.213 65.7927 289.04 64.5178 288.738 63.2709C287.883 67.643 285.97 71.7387 283.165 75.1995C280.36 78.6603 276.749 81.3804 272.648 83.1217L272.663 83.136Z" fill="black" opacity="0.5"/>
    <path d="M345.487 158.549L348.991 136.081L359.117 132.119L379.683 158.592L413.12 162.868L414.093 169.275L383.158 178.157L345.487 158.549ZM298.506 120.735C297.162 133.421 295.145 152.056 283.332 164.441C280.025 167.845 276.154 170.651 271.891 172.736L269.674 169.876L266.299 165.585C266.299 165.585 294.559 146.264 298.506 120.735Z" fill="black" opacity="0.1"/>
    <path d="M223.265 288.694V389.436C223.263 390.477 223.466 391.509 223.864 392.472C224.261 393.435 224.844 394.31 225.58 395.047C226.316 395.785 227.19 396.37 228.152 396.769C229.115 397.168 230.146 397.373 231.188 397.373H464.62C465.662 397.373 466.694 397.168 467.656 396.769C468.618 396.37 469.492 395.785 470.228 395.047C470.964 394.31 471.547 393.435 471.945 392.472C472.342 391.509 472.546 390.477 472.544 389.436V250.981C472.544 248.879 471.709 246.864 470.223 245.378C468.737 243.892 466.722 243.058 464.62 243.058H280.486" fill="#232B41"/>
    <path d="M464.549 240.769H280.486V245.346H464.549C466.039 245.364 467.463 245.963 468.518 247.016C469.573 248.068 470.176 249.491 470.198 250.981V389.436C470.192 390.251 470.011 391.056 469.669 391.795H226.068C225.728 391.055 225.552 390.25 225.553 389.436V288.68L220.69 286.95V312.821L220.905 389.436C220.903 390.539 221.081 391.636 221.434 392.682C221.295 392.79 221.166 392.91 221.048 393.04L200.453 415.751C199.138 417.181 199.452 418.826 201.04 418.826H449.704C450.188 418.794 450.661 418.667 451.096 418.451C451.53 418.235 451.918 417.934 452.235 417.567L469.912 398.174C471.409 397.267 472.646 395.988 473.503 394.462C474.36 392.936 474.808 391.215 474.803 389.464V250.981C474.801 249.637 474.535 248.306 474.018 247.065C473.502 245.824 472.745 244.698 471.793 243.749C470.841 242.801 469.711 242.049 468.468 241.538C467.225 241.027 465.893 240.766 464.549 240.769Z" fill="#454C5E"/>
    <path d="M385.89 464.219L365.596 481.725C365.01 482.236 364.279 482.552 363.506 482.629C362.732 482.705 361.954 482.538 361.279 482.15C360.605 481.763 360.069 481.174 359.745 480.467C359.422 479.76 359.327 478.97 359.474 478.207L361.405 467.852C361.493 467.356 361.482 466.848 361.371 466.357C361.261 465.866 361.053 465.402 360.762 464.992L354.583 456.482C354.126 455.854 353.875 455.1 353.865 454.323C353.855 453.546 354.086 452.786 354.528 452.146C354.969 451.507 355.598 451.021 356.328 450.755C357.058 450.489 357.853 450.456 358.602 450.661L384.445 457.812C385.09 457.998 385.673 458.354 386.134 458.842C386.594 459.331 386.915 459.934 387.063 460.589C387.21 461.243 387.179 461.926 386.973 462.565C386.767 463.203 386.392 463.775 385.89 464.219Z" fill="#066FD1"/>
    <path d="M475.59 146.85L538.518 123.853L543.094 128.515L553.949 160.68C553.44 161.637 552.733 162.476 551.876 163.14C550.695 164.032 549.288 164.577 547.814 164.713L489.492 185.05L486.231 182.189L474.561 147.308L475.59 146.85Z" fill="#232B41"/>
    <path d="M496.656 159.25C496.703 159.114 496.776 158.99 496.871 158.883C496.966 158.776 497.082 158.689 497.211 158.626C497.339 158.564 497.479 158.527 497.622 158.519C497.765 158.511 497.908 158.53 498.043 158.577C498.179 158.624 498.303 158.697 498.41 158.793C498.517 158.888 498.604 159.003 498.667 159.132C498.729 159.261 498.766 159.4 498.774 159.543C498.782 159.686 498.763 159.829 498.716 159.965L491.722 178.457C491.62 178.728 491.414 178.947 491.15 179.067C490.885 179.186 490.585 179.196 490.313 179.093C490.042 178.991 489.823 178.785 489.703 178.521C489.584 178.256 489.575 177.956 489.677 177.684L496.656 159.25ZM548.829 158.163C548.753 158.285 548.654 158.39 548.536 158.473C548.419 158.555 548.286 158.613 548.146 158.642C548.005 158.672 547.86 158.672 547.719 158.644C547.579 158.616 547.445 158.559 547.327 158.477L530.809 147.694C530.599 147.521 530.461 147.277 530.42 147.009C530.379 146.74 530.439 146.466 530.588 146.239C530.737 146.012 530.964 145.849 531.227 145.779C531.489 145.71 531.768 145.74 532.01 145.863L548.514 156.661C548.714 156.791 548.866 156.983 548.947 157.208C549.027 157.433 549.031 157.678 548.958 157.905C548.929 157.998 548.886 158.085 548.829 158.163Z" fill="#066FD1"/>
    <path d="M542.479 128.358C542.607 128.191 542.722 128.014 542.823 127.829L553.792 158.492C554.132 159.45 554.079 160.503 553.645 161.422C553.211 162.342 552.431 163.052 551.475 163.397L491.479 184.85C490.521 185.19 489.468 185.137 488.549 184.703C487.63 184.269 486.92 183.489 486.574 182.533L475.604 151.87L476.205 152.056L476.892 152.228L487.604 182.161C487.849 182.845 488.356 183.404 489.013 183.715C489.67 184.026 490.423 184.063 491.108 183.82L551.175 162.368C551.514 162.243 551.825 162.053 552.09 161.807C552.355 161.562 552.569 161.266 552.719 160.937C552.877 160.614 552.967 160.263 552.984 159.904C553.002 159.545 552.945 159.186 552.819 158.849L542.107 128.901L542.479 128.358Z" fill="#066FD1"/>
    <path d="M543.395 126.584C543.191 126.054 542.952 125.538 542.68 125.04C542.465 124.654 541.249 122.408 540.506 122.623C540.177 122.709 539.962 123.352 540.005 123.853C540.018 123.989 540.046 124.124 540.091 124.253L540.606 125.211C544.668 136.443 548.72 147.66 552.762 158.863C552.888 159.2 552.944 159.559 552.927 159.918C552.91 160.277 552.82 160.628 552.662 160.951C552.512 161.28 552.298 161.576 552.033 161.821C551.768 162.067 551.457 162.257 551.118 162.382L491.05 183.834C490.366 184.078 489.612 184.04 488.956 183.729C488.299 183.418 487.792 182.859 487.546 182.175L476.105 148.795L475.576 148.337C474.589 146.907 474.146 146.907 474.046 146.907C473.531 147.079 473.588 148.809 473.745 149.767C473.814 150.217 473.929 150.658 474.089 151.083C477.902 161.667 481.687 172.25 485.444 182.833C485.887 184.063 486.8 185.068 487.982 185.625C489.165 186.183 490.52 186.249 491.751 185.808L551.818 164.355C553.046 163.909 554.048 162.996 554.605 161.815C555.163 160.633 555.23 159.279 554.793 158.048C554.407 156.933 549.788 144.133 543.395 126.584Z" fill="#A7AAB3"/>
    <path d="M532.01 145.878L548.514 156.675C548.714 156.805 548.866 156.998 548.947 157.222C549.027 157.447 549.031 157.692 548.958 157.92C548.929 158.012 548.886 158.099 548.829 158.177C548.753 158.299 548.654 158.405 548.536 158.487C548.419 158.57 548.286 158.627 548.146 158.657C548.005 158.686 547.86 158.687 547.719 158.658C547.579 158.63 547.445 158.573 547.327 158.492L530.809 147.708C530.599 147.536 530.461 147.292 530.42 147.023C530.379 146.755 530.439 146.481 530.588 146.254C530.737 146.027 530.964 145.863 531.227 145.793C531.489 145.724 531.768 145.754 532.01 145.878ZM498.072 158.606C498.331 158.709 498.542 158.906 498.662 159.159C498.781 159.411 498.8 159.699 498.716 159.965L491.722 178.457C491.62 178.728 491.414 178.948 491.15 179.067C490.885 179.186 490.585 179.196 490.313 179.093C490.042 178.991 489.823 178.785 489.703 178.521C489.584 178.257 489.575 177.956 489.677 177.685L496.685 159.25C496.788 158.984 496.99 158.768 497.248 158.648C497.507 158.528 497.802 158.513 498.072 158.606Z" fill="#A7AAB3"/>
    <path d="M542.451 125.426C542.457 125.478 542.457 125.531 542.451 125.583C542.327 125.922 542.154 126.24 541.936 126.527L518.195 158.592C517.755 159.193 517.146 159.65 516.446 159.904C515.746 160.159 514.986 160.2 514.262 160.022L475.576 150.311C475.227 150.226 474.89 150.096 474.575 149.925C473.828 149.485 473.255 148.801 472.953 147.988C472.651 147.176 472.638 146.284 472.916 145.463C473.151 144.741 473.606 144.111 474.217 143.661L474.403 143.546C474.525 143.459 474.654 143.382 474.789 143.318L475.19 143.146L537.631 120.807C538.283 120.585 538.984 120.547 539.656 120.696C540.328 120.845 540.947 121.176 541.444 121.653C541.941 122.129 542.298 122.733 542.475 123.398C542.653 124.064 542.644 124.765 542.451 125.426ZM284.591 478.679V475.818C290.311 475.704 296.204 475.418 302.067 474.974L302.282 477.835C296.304 478.278 290.369 478.564 284.591 478.679ZM266.928 478.521C260.964 478.292 255.029 477.863 249.294 477.263L249.594 474.402C255.315 475.003 261.136 475.418 267.043 475.661L266.928 478.521ZM319.844 476.047L319.487 473.258C325.093 472.543 330.814 471.671 336.492 470.67L336.978 473.444C331.2 474.445 325.436 475.318 319.787 476.047H319.844ZM231.789 474.817C225.854 473.745 220.047 472.443 214.527 470.941L215.256 468.224C220.705 469.654 226.44 470.984 232.289 472.043L231.789 474.817ZM197.665 465.464C192.131 463.351 186.737 460.886 181.518 458.084L182.863 455.61C187.976 458.355 193.26 460.772 198.68 462.847L197.665 465.464ZM166.602 448.388C161.876 444.72 157.616 440.488 153.916 435.788L156.133 434.072C159.69 438.588 163.787 442.651 168.332 446.171L166.602 448.388ZM145.449 419.899C145.149 418.969 144.892 418.011 144.663 417.038C143.867 413.644 143.469 410.17 143.476 406.684C143.476 405.125 143.476 403.523 143.705 401.936L146.565 402.207C146.422 403.709 146.35 405.211 146.35 406.684C146.346 409.954 146.726 413.213 147.48 416.395C147.68 417.267 147.938 418.154 148.21 419.026L145.449 419.899ZM150.669 385.574L148.052 384.545C150.274 379.019 152.983 373.702 156.147 368.656L158.535 370.086C155.448 375.014 152.816 380.213 150.669 385.617V385.574ZM168.647 355.956L166.444 354.196C170.978 348.562 175.111 344.185 178.215 340.924L180.231 342.87C177.185 346.102 173.109 350.392 168.647 355.998V355.956ZM499.417 243.129L497.586 240.998C501.945 237.247 505.835 232.983 509.171 228.298L511.459 229.929C507.997 234.803 503.953 239.236 499.417 243.129ZM519.854 214.111L517.208 213.124C519.291 207.791 520.554 202.174 520.955 196.463H523.816C523.438 202.532 522.101 208.503 519.854 214.154V214.111Z" fill="#066FD1"/>
    <path d="M474.832 298.019V389.436C474.831 391.188 474.379 392.911 473.52 394.439C472.661 395.967 471.423 397.248 469.927 398.16L452.235 417.61C451.918 417.977 451.531 418.278 451.096 418.494C450.661 418.71 450.188 418.837 449.704 418.869H405.912C409.914 411.972 414.667 405.54 420.085 399.69C421.515 398.06 423.031 396.501 424.376 395.128C425.72 393.755 426.836 392.782 427.951 391.839H469.712C470.063 391.102 470.244 390.295 470.241 389.479V299.492L474.832 298.019Z" fill="black" opacity="0.3"/>
    <path d="M561.386 313.937H654.204C655.544 313.84 656.832 313.375 657.925 312.593C659.017 311.81 659.873 310.741 660.396 309.504L666.846 293.071C667.805 290.611 666.603 288.623 664.143 288.623H571.325C569.984 288.723 568.696 289.191 567.603 289.975C566.51 290.76 565.655 291.831 565.133 293.071L558.697 309.504C557.724 311.949 558.94 313.937 561.386 313.937Z" fill="#066FD1"/>
    <path d="M658.294 338.207H596.94C595.51 338.207 594.866 337.077 595.409 335.69L597.097 331.4C597.393 330.7 597.878 330.095 598.496 329.654C599.114 329.212 599.843 328.95 600.601 328.897H661.912C663.343 328.897 663.972 330.012 663.428 331.4L661.741 335.69C661.451 336.384 660.977 336.986 660.369 337.43C659.761 337.874 659.044 338.142 658.294 338.207Z" fill="#DADBE0"/>
    <path d="M549.158 364.565H636.17C636.952 364.506 637.703 364.233 638.341 363.776C638.979 363.32 639.479 362.698 639.788 361.977L641.676 357.143C642.234 355.712 641.533 354.554 640.103 354.554H553.091C552.309 354.613 551.558 354.886 550.92 355.343C550.282 355.799 549.782 356.422 549.473 357.143L547.585 361.977C547.013 363.407 547.728 364.565 549.158 364.565ZM549.158 364.565H636.17C636.952 364.506 637.703 364.233 638.341 363.776C638.979 363.32 639.479 362.698 639.788 361.977L641.676 357.143" fill="#A7AAB3"/>
    <path d="M508.226 550.345C555.98 550.345 594.695 548.185 594.695 545.525C594.695 542.865 555.98 540.719 508.226 540.719C460.473 540.719 421.772 542.865 421.772 545.525C421.772 548.185 460.473 550.345 508.226 550.345Z" fill="#1D2535" opacity="0.5"/>
    <path d="M513.518 362.863L512.016 380.211L509.156 413.706L506.882 439.706H462.59C461.712 431.04 460.85 422.373 460.001 413.706C459.505 408.805 459.029 403.895 458.571 398.975L454.967 362.863H513.518Z" fill="#066FD1"/>
    <path d="M464.049 323.562C464.692 325.879 465.694 329.283 467.038 333.359C467.353 334.26 467.61 335.046 467.696 335.318C469.318 339.778 471.495 344.015 474.174 347.932C474.732 348.705 475.261 349.434 475.848 350.12C477.435 352.023 484.343 352.981 491.58 352.051C494.062 351.751 496.506 351.195 498.874 350.392C506.253 347.789 508.484 340.796 506.482 336.62C505.999 335.604 505.228 334.754 504.265 334.174C502.45 332.927 500.879 331.356 499.632 329.54C497.877 327.193 496.295 324.722 494.898 322.146C494.068 320.716 493.582 319.701 493.582 319.701L484.572 314.995L466.766 319.286C467.681 322.232 467.395 324.506 466.494 324.906C465.593 325.307 464.335 323.862 464.049 323.562Z" fill="#FFCB9D"/>
    <path d="M464.048 323.562C464.692 325.879 465.693 329.283 467.037 333.359C467.352 334.26 467.61 335.046 467.695 335.318C469.318 339.778 471.495 344.015 474.174 347.932C475.243 347.296 476.179 346.461 476.934 345.472C477.743 344.37 478.33 343.122 478.665 341.797C478.983 340.39 479.079 338.943 478.951 337.506C478.916 336.548 478.825 335.593 478.679 334.646C486.043 335.293 493.413 333.46 499.617 329.44C497.869 327.084 496.287 324.608 494.883 322.032C494.053 320.602 493.567 319.586 493.567 319.586L484.571 314.995L466.766 319.286C467.681 322.232 467.395 324.492 466.494 324.906C465.593 325.321 464.277 323.92 463.991 323.619" fill="black" opacity="0.1"/>
    <path d="M462.762 327.895C463.725 331.578 466.044 334.761 469.255 336.805C469.901 337.128 470.527 337.491 471.128 337.892C472.701 339.118 473.944 340.715 474.747 342.54C475.336 341.345 475.555 340 475.376 338.679C474.813 336.648 474.071 334.672 473.159 332.772C473.159 332.772 473.159 332.644 473.059 332.486C472.959 332.329 472.916 332.1 472.773 331.685C472.484 330.748 472.26 329.793 472.101 328.825V328.682C477.249 330.355 491.68 333.988 498.759 325.364C499.859 324.015 500.764 322.517 501.448 320.916C501.523 320.783 501.576 320.638 501.605 320.487C501.767 320.09 501.906 319.684 502.02 319.271C502.02 319.271 502.02 319.2 502.02 319.171C502.311 318.101 502.418 316.988 502.335 315.882V315.453C502.26 314.968 502.145 314.489 501.991 314.023C501.307 312.253 500.028 310.776 498.373 309.847C495.494 308.325 492.346 307.378 489.105 307.058C480.81 305.814 469.169 307.83 464.278 316.197C463.059 318.389 462.377 320.84 462.29 323.347C462.247 324.902 462.411 326.455 462.776 327.967" fill="#454C5E"/>
    <path d="M472.086 328.697C477.235 330.37 491.665 334.002 498.745 325.379C499.85 324.033 500.756 322.535 501.433 320.931C501.505 320.801 501.558 320.661 501.591 320.516C501.757 320.116 501.895 319.705 502.005 319.286C502.005 319.286 502.005 319.214 502.005 319.186C502.297 318.115 502.403 317.003 502.32 315.896C500.78 318.342 498.847 320.516 496.599 322.332C485.401 331.242 470.441 327.009 467.996 326.337H467.824C469.158 327.267 470.564 328.09 472.029 328.797" fill="black" opacity="0.5"/>
    <path d="M462.59 439.706L466.394 531.809H473.874L484.214 460.658L491.322 531.809H496.871L506.839 439.706H462.59Z" fill="#DADBE0"/>
    <path d="M482.255 544.595L465.565 542.736C465.565 542.736 464.95 538.446 467.567 536.901C470.184 535.356 479.523 540.548 482.255 544.595ZM506.84 544.595L490.149 542.736C490.149 542.736 489.549 538.446 492.166 536.901C494.783 535.356 504.122 540.548 506.84 544.595Z" fill="#454C5E"/>
    <path d="M478.236 361.662C480.696 364.235 483.895 365.979 487.389 366.653L487.89 366.725L496.471 362.734L478.236 361.662ZM454.739 448.488C454.922 449.401 454.965 450.336 454.867 451.262C454.624 454.594 452.736 457.154 449.976 457.483C446.472 457.87 442.94 454.523 442.067 449.975C441.982 449.473 441.924 448.967 441.896 448.459C441.71 444.555 443.74 441.308 446.83 440.993C450.319 440.579 453.866 443.94 454.739 448.488Z" fill="#FFCB9D"/>
    <path d="M454.739 448.488C454.922 449.401 454.965 450.336 454.867 451.262H453.838C449.275 451.148 447.416 449.389 442.539 448.545C442.327 448.5 442.112 448.472 441.896 448.459C441.71 444.555 443.74 441.308 446.83 440.994C450.319 440.579 453.866 443.94 454.739 448.488Z" fill="black" opacity="0.1"/>
    <path d="M560.742 392.668C561.02 391.78 561.424 390.937 561.943 390.165C563.745 387.305 566.634 386.018 569.209 387.047C572.484 388.377 573.985 392.997 572.57 397.416C572.409 397.904 572.218 398.382 571.998 398.846C570.296 402.365 566.992 404.224 564.089 403.051C560.842 401.721 559.326 397.073 560.742 392.668Z" fill="#FFCB9D"/>
    <path d="M560.743 392.668C561.02 391.78 561.425 390.937 561.944 390.165C562.273 390.337 562.559 390.48 562.859 390.666C566.806 392.94 567.593 395.385 571.44 398.46C571.626 398.575 571.769 398.718 571.969 398.832C570.267 402.35 566.964 404.21 564.061 403.037C560.843 401.721 559.327 397.073 560.743 392.668Z" fill="black" opacity="0.1"/>
    <path d="M460.431 370.586L458.528 399.018L458.328 447.801L437.505 446.485C437.505 446.4 438.663 434.3 440.079 420.642C440.422 417.51 440.766 414.292 441.109 411.103C445.056 375.463 447.545 364.265 453.337 362.963C453.864 362.857 454.402 362.819 454.939 362.849L460.431 370.586ZM576.646 404.424C572.243 408.401 567.142 411.528 561.601 413.649C557.673 415.122 553.546 416 549.359 416.251C543.685 416.751 537.974 415.893 532.697 413.749C517.866 407.413 512.474 391.924 511.245 388.449C510.577 386.518 510.037 384.545 509.628 382.542C508.813 378.581 507.984 374.591 507.154 370.615L513.519 362.892C516.228 363.246 518.818 364.225 521.084 365.752C529.05 371.344 526.276 380.654 534.299 390.594C536.43 393.226 541.621 399.661 548.172 398.975C553.892 398.36 557.468 392.582 558.354 391.066L576.646 404.424Z" fill="#066FD1"/>
    <path d="M506.84 439.706H462.59C461.713 431.04 460.85 422.373 460.002 413.706C459.506 408.805 459.029 403.895 458.571 398.975L459.244 388.964C467.696 418.039 506.84 439.706 506.84 439.706ZM561.587 413.649C557.659 415.122 553.532 416 549.344 416.252C543.671 416.751 537.959 415.893 532.683 413.749C517.852 407.413 512.46 391.924 511.23 388.449C511.745 389.164 526.047 410.288 561.587 413.649ZM458.328 447.758L437.505 446.442C437.505 446.357 438.663 434.257 440.079 420.599C445.056 436.875 451.993 444.24 458.328 447.758Z" fill="black" opacity="0.11"/>
    <path d="M220.69 286.95L225.553 288.68V316.068L220.762 312.85C220.752 304.212 220.729 295.578 220.69 286.95Z" fill="black" opacity="0.3"/>
    <path d="M237.91 190.613L308.875 281.129L303.698 291.14L256.931 325.965C255.892 325.882 254.87 325.646 253.899 325.264C252.347 324.58 250.945 323.597 249.775 322.369C248.604 321.142 247.687 319.696 247.077 318.113L182.877 233.733L185.737 226.911L235.507 189.498L237.91 190.613Z" fill="#232B41"/>
    <path d="M228.843 231.602C229.34 231.613 229.812 231.822 230.155 232.181C230.499 232.54 230.685 233.022 230.674 233.518C230.662 234.015 230.454 234.487 230.095 234.831C229.735 235.174 229.254 235.36 228.757 235.349H228.657L194.834 233.719C194.36 233.661 193.925 233.426 193.618 233.061C193.31 232.696 193.153 232.228 193.176 231.751C193.2 231.275 193.403 230.825 193.745 230.492C194.087 230.159 194.542 229.968 195.019 229.957L228.843 231.602ZM258.319 316.24C258.081 316.175 257.859 316.064 257.664 315.913C257.469 315.763 257.306 315.575 257.184 315.361C257.061 315.147 256.982 314.911 256.952 314.667C256.921 314.423 256.938 314.175 257.003 313.937L265.856 281.258C265.917 281.017 266.026 280.791 266.175 280.593C266.324 280.395 266.511 280.229 266.725 280.104C266.94 279.978 267.176 279.897 267.422 279.864C267.668 279.831 267.918 279.847 268.158 279.912C268.397 279.976 268.621 280.087 268.818 280.239C269.014 280.391 269.178 280.58 269.3 280.796C269.423 281.011 269.501 281.249 269.531 281.495C269.561 281.742 269.542 281.991 269.474 282.23L260.621 314.924C260.525 315.33 260.295 315.692 259.968 315.951C259.641 316.21 259.237 316.352 258.819 316.354C258.648 316.337 258.48 316.299 258.319 316.24Z" fill="#066FD1"/>
    <path d="M303.641 290.025C303.982 290.142 304.331 290.237 304.685 290.311L260.435 324.506C259.752 325.037 258.971 325.427 258.136 325.655C257.302 325.883 256.431 325.945 255.573 325.836C254.714 325.727 253.886 325.45 253.135 325.02C252.384 324.591 251.725 324.018 251.196 323.333L184.236 236.765C183.172 235.378 182.701 233.627 182.923 231.894C183.145 230.161 184.044 228.585 185.423 227.512L229.672 193.316C229.644 193.673 229.644 194.032 229.672 194.389L229.758 195.605L186.553 228.999C185.569 229.77 184.929 230.897 184.771 232.137C184.613 233.376 184.95 234.628 185.709 235.621L252.655 322.189C253.418 323.174 254.541 323.816 255.777 323.974C257.013 324.133 258.261 323.794 259.248 323.033L302.454 289.624L303.641 290.025Z" fill="#066FD1"/>
    <path d="M307.016 290.582C307.774 289.973 308.486 289.308 309.147 288.594C309.676 288.037 312.679 284.804 312.007 283.76C311.664 283.274 310.506 283.26 309.719 283.589C309.496 283.68 309.288 283.805 309.104 283.961L307.817 285.305L259.32 323.033C258.333 323.794 257.085 324.132 255.849 323.974C254.613 323.816 253.49 323.174 252.727 322.189L185.78 235.621C185.021 234.628 184.684 233.376 184.842 232.137C185 230.897 185.64 229.77 186.624 228.999C202.833 216.89 218.989 204.772 235.093 192.644C235.25 192.287 235.407 191.915 235.55 191.543C237.467 189.14 237.195 188.482 237.066 188.296C236.508 187.538 233.691 188.554 232.118 189.369C231.422 189.721 230.761 190.137 230.144 190.613L184.379 226.039C182.606 227.413 181.449 229.433 181.162 231.658C180.876 233.883 181.482 236.13 182.848 237.909L249.795 324.477C250.469 325.364 251.313 326.107 252.278 326.664C253.242 327.221 254.308 327.58 255.412 327.722C256.517 327.863 257.639 327.783 258.713 327.486C259.786 327.189 260.79 326.682 261.665 325.993C263.296 324.649 281.745 310.347 307.016 290.582Z" fill="#A7AAB3"/>
    <path d="M269.474 282.23L260.621 314.924C260.525 315.33 260.295 315.692 259.968 315.951C259.641 316.21 259.237 316.352 258.819 316.354C258.653 316.375 258.485 316.375 258.319 316.354C258.081 316.289 257.859 316.179 257.664 316.028C257.469 315.877 257.306 315.689 257.184 315.476C257.061 315.262 256.982 315.026 256.952 314.781C256.921 314.537 256.938 314.289 257.003 314.051L265.856 281.372C265.917 281.132 266.026 280.906 266.175 280.708C266.324 280.51 266.511 280.343 266.725 280.218C266.94 280.093 267.176 280.011 267.422 279.978C267.668 279.945 267.918 279.962 268.158 280.026C268.397 280.09 268.621 280.202 268.818 280.353C269.014 280.505 269.178 280.694 269.3 280.91C269.423 281.126 269.501 281.364 269.531 281.61C269.561 281.856 269.542 282.106 269.474 282.344V282.23ZM230.631 233.561C230.609 234.043 230.402 234.498 230.053 234.831C229.704 235.164 229.24 235.35 228.757 235.349H228.657L194.834 233.719C194.36 233.661 193.925 233.426 193.618 233.061C193.31 232.696 193.153 232.228 193.176 231.751C193.2 231.275 193.403 230.825 193.745 230.492C194.087 230.159 194.542 229.968 195.019 229.957L228.843 231.602C229.089 231.613 229.331 231.672 229.554 231.777C229.777 231.881 229.977 232.029 230.143 232.211C230.309 232.393 230.438 232.606 230.522 232.838C230.605 233.069 230.642 233.315 230.631 233.561Z" fill="#A7AAB3"/>
    <path d="M437.562 274.679H352.438C350.803 274.679 349.478 276.004 349.478 277.639V282.788C349.478 284.423 350.803 285.748 352.438 285.748H437.562C439.197 285.748 440.522 284.423 440.522 282.788V277.639C440.522 276.004 439.197 274.679 437.562 274.679Z" fill="#A7AAB3"/>
    <path d="M434.802 302.596H324.321C322.022 302.596 320.159 304.459 320.159 306.758V353.481C320.159 355.78 322.022 357.643 324.321 357.643H434.802C437.1 357.643 438.964 355.78 438.964 353.481V306.758C438.964 304.459 437.1 302.596 434.802 302.596Z" fill="#DADBE0"/>
    <path d="M491.322 531.809H496.871L506.839 439.706H487.089L484.214 460.658L491.322 531.809Z" fill="black" opacity="0.15"/>
    <path d="M362.306 242.514C362.252 243.094 362.065 243.654 361.76 244.15C361.455 244.646 361.04 245.065 360.547 245.375H279.513C279.02 245.065 278.604 244.646 278.299 244.15C277.994 243.654 277.808 243.094 277.754 242.514C277.776 241.874 278.013 241.259 278.426 240.77H361.648C362.056 241.261 362.287 241.876 362.306 242.514Z" fill="black" opacity="0.3"/>
    <path d="M338.308 240.912L337.836 237.165C337.836 237.165 337.936 233.519 335.776 232.703C333.617 231.888 326.824 237.68 325.064 241.456L332.973 238.839L334.075 241.799L338.308 240.912Z" fill="#454C5E"/>
    <path d="M308.66 288.78H308.374C307.745 288.761 307.123 288.645 306.529 288.437L241.113 266.541C239.893 266.134 238.822 265.372 238.037 264.353C237.253 263.334 236.79 262.104 236.708 260.82L231.974 192.015C231.931 191.393 231.97 190.768 232.089 190.156C232.418 188.698 233.236 187.397 234.407 186.469C235.577 185.54 237.03 185.039 238.524 185.05C239.837 185.051 241.116 185.461 242.186 186.223L242.486 186.466C242.692 186.625 242.888 186.797 243.072 186.981C243.23 187.152 243.401 187.338 243.559 187.538L313.637 278.24C314.388 279.191 314.859 280.332 314.996 281.535C315.134 282.739 314.933 283.957 314.415 285.053C313.898 286.148 313.085 287.078 312.069 287.736C311.052 288.395 309.871 288.756 308.66 288.78Z" fill="#066FD1"/>
    <path d="M478.236 361.662C480.696 364.235 483.895 365.979 487.389 366.653L487.89 366.725L496.471 362.734L478.236 361.662Z" fill="black" opacity="0.1"/>
    <path d="M487.889 366.725L498.687 358.973L501.161 361.576L493.81 372.545L487.889 366.725ZM487.389 366.653L471.028 356.456L467.295 359.888L478.407 374.29L487.389 366.653Z" fill="#DADBE0"/>
    <path d="M493.253 376.307C490.392 390.399 487.57 404.481 484.786 418.554C484.793 418.683 484.793 418.812 484.786 418.94L481.926 376.035L487.432 366.639L487.933 366.725L493.253 376.307Z" fill="#DADBE0"/>
    <path d="M493.253 376.307C490.392 390.399 487.57 404.481 484.786 418.554L487.89 366.725L493.253 376.307ZM498.687 358.973L487.89 366.725L493.811 372.545L501.162 361.576L498.687 358.973Z" fill="black" opacity="0.11"/>
</svg>
