<svg xmlns="http://www.w3.org/2000/svg" width="800" height="600" fill="none" viewBox="0 0 800 600">
    <path d="M647.28 275.729C647.28 317.598 603.012 347.967 583.448 381.783C563.289 416.658 558.411 469.967 523.536 490.146C489.751 509.71 441.662 487.838 399.743 487.838C357.823 487.838 309.745 509.72 275.939 490.156C241.064 469.997 236.206 416.668 216.027 381.793C196.464 347.977 152.195 317.609 152.195 275.739C152.195 233.87 196.464 203.501 216.027 169.695C236.186 134.811 241.064 81.5011 275.939 61.3224C309.745 41.7585 357.883 63.6406 399.743 63.6406C441.602 63.6406 489.751 41.7585 523.557 61.3224C558.431 81.481 563.289 134.811 583.468 169.695C603.032 203.491 647.28 233.84 647.28 275.729Z" fill="black" opacity="0.07"/>
    <path d="M310.441 409.219C310.441 403.988 298.164 399.412 279.679 396.812V392.78H274.347V396.116C264.379 395.021 254.358 394.485 244.331 394.514C220.927 394.514 200.385 397.215 188.643 401.297V366.503H270.668V361.212H188.673V326.811H183.381V403.575C180.096 405.319 178.281 407.224 178.281 409.239C178.281 411.255 180.096 413.16 183.381 414.904V490.862H188.673V417.142C196.303 419.56 204.158 421.204 212.117 422.05V515.788H217.409V422.645C225.644 423.461 234.756 423.915 244.361 423.915C254.378 423.945 264.389 423.414 274.347 422.322V477.456H279.649V421.647C298.164 419.037 310.441 414.461 310.441 409.219Z" fill="#454C5E"/>
    <path d="M613.696 71.8252H307.205C298.171 71.8252 290.847 79.1492 290.847 88.1839V206.283C290.847 215.318 298.171 222.642 307.205 222.642H613.696C622.731 222.642 630.055 215.318 630.055 206.283V88.1839C630.055 79.1492 622.731 71.8252 613.696 71.8252Z" fill="#727583"/>
    <path d="M304.252 84.3435H616.649V210.113H304.252V84.3435Z" fill="#232B41"/>
    <path d="M348.933 128.934V140.102H366.975V150.504H348.933V162.599H369.293V173.384H335.417V118.139H369.293V128.934H348.933ZM406.244 173.444L394.744 152.57H391.518V173.444H378.042V118.139H400.65C404.493 118.03 408.309 118.813 411.798 120.427C414.676 121.769 417.079 123.951 418.692 126.686C420.228 129.388 421.018 132.449 420.98 135.556C421.024 139.088 419.932 142.54 417.866 145.404C415.591 148.429 412.357 150.593 408.693 151.542L421.504 173.444H406.244ZM391.518 143.035H399.864C402.337 143.035 404.188 142.43 405.418 141.221C406.063 140.541 406.56 139.735 406.88 138.854C407.199 137.973 407.332 137.036 407.272 136.1C407.322 135.191 407.183 134.28 406.864 133.427C406.545 132.573 406.052 131.795 405.418 131.141C404.188 129.932 402.337 129.327 399.864 129.327H391.518V143.035ZM457.618 173.444L446.118 152.57H442.882V173.444H429.406V118.139H452.024C455.867 118.032 459.682 118.815 463.172 120.427C466.05 121.769 468.453 123.951 470.066 126.686C471.602 129.388 472.392 132.449 472.354 135.556C472.398 139.088 471.306 142.54 469.24 145.404C466.961 148.429 463.724 150.593 460.057 151.542L472.828 173.444H457.618ZM442.882 143.035H451.238C453.257 143.19 455.254 142.537 456.792 141.221C457.435 140.54 457.931 139.734 458.25 138.853C458.569 137.972 458.704 137.035 458.646 136.1C458.694 135.191 458.554 134.281 458.235 133.428C457.916 132.575 457.424 131.797 456.792 131.141C455.254 129.825 453.257 129.172 451.238 129.327H442.882V143.035ZM492.634 170.34C488.347 167.973 484.78 164.49 482.313 160.261C479.801 155.799 478.482 150.765 478.482 145.646C478.482 140.526 479.801 135.492 482.313 131.031C484.784 126.804 488.349 123.321 492.634 120.951C497.033 118.568 501.958 117.319 506.961 117.319C511.965 117.319 516.89 118.568 521.289 120.951C525.56 123.312 529.102 126.798 531.53 131.031C534 135.506 535.296 140.534 535.296 145.646C535.296 150.757 534 155.786 531.53 160.261C529.092 164.486 525.553 167.97 521.289 170.34C516.903 172.715 511.994 173.958 507.007 173.958C502.019 173.958 497.11 172.715 492.724 170.34H492.634ZM517.53 157.237C520.217 154.294 521.561 150.406 521.561 145.575C521.561 140.744 520.217 136.843 517.53 133.873C516.188 132.418 514.545 131.273 512.715 130.518C510.886 129.762 508.914 129.415 506.936 129.499C504.95 129.409 502.968 129.75 501.125 130.498C499.283 131.246 497.624 132.384 496.262 133.833C493.608 136.729 492.281 140.643 492.281 145.575C492.281 150.507 493.608 154.408 496.262 157.277C497.618 158.737 499.274 159.884 501.117 160.64C502.961 161.395 504.946 161.74 506.936 161.651C508.913 161.743 510.885 161.4 512.715 160.648C514.545 159.896 516.189 158.752 517.53 157.297V157.237ZM570.91 173.444L559.409 152.57H556.184V173.444H542.708V118.139H565.316C569.158 118.03 572.974 118.813 576.463 120.427C579.341 121.769 581.745 123.951 583.357 126.686C584.898 129.386 585.688 132.448 585.645 135.556C585.689 139.088 584.597 142.54 582.531 145.404C580.256 148.429 577.023 150.593 573.359 151.542L586.119 173.444H570.91ZM556.184 143.035H564.529C567.002 143.035 568.853 142.43 570.083 141.221C570.728 140.541 571.226 139.735 571.545 138.854C571.864 137.973 571.998 137.036 571.938 136.1C571.987 135.191 571.848 134.28 571.529 133.427C571.21 132.573 570.718 131.795 570.083 131.141C568.853 129.932 567.002 129.327 564.529 129.327H556.184V143.035Z" fill="#DADCE0"/>
    <path d="M391.136 536.43C527.563 536.43 638.159 533.095 638.159 528.981C638.159 524.868 527.563 521.533 391.136 521.533C254.708 521.533 144.112 524.868 144.112 528.981C144.112 533.095 254.708 536.43 391.136 536.43Z" fill="#1D2535" opacity="0.5"/>
    <path d="M324.128 420.044C323.644 423.632 317.768 426.918 313.091 425.931C309.977 425.265 308.152 422.907 306.126 420.205C292.489 402.224 292.801 402.728 292.378 402.063C283.398 388.607 282.027 385.936 280.696 382.741C279.93 380.927 279.325 379.243 278.832 377.701C277.985 375.111 277.441 372.903 276.997 371.039C273.157 355.033 270.123 337.485 268.49 327.446L286.22 323.414C286.764 325.38 287.51 328.182 288.306 331.598C288.488 332.344 288.669 333.13 288.85 333.937C290.503 341.335 290.473 343.008 292.197 351.223C292.429 352.231 292.489 352.543 295.543 365.687L298.012 376.27C301.036 387.468 309.503 403.827 320.772 414.027C321.719 414.884 324.491 417.282 324.128 420.044Z" fill="#FFCB9D"/>
    <path d="M288.306 331.609C284.889 332.717 278.942 335.257 274.911 341.093C268.198 350.81 269.569 365.656 278.832 377.701C277.985 375.111 277.441 372.903 276.997 371.039C273.157 355.033 270.123 337.485 268.49 327.446L286.22 323.414C286.764 325.4 287.51 328.202 288.306 331.609Z" fill="black" opacity="0.17"/>
    <path d="M287.823 394.473L344.59 425.951L374.394 502.322L364.164 504.267C364.164 504.267 333.825 449.234 322.183 444.295C310.542 439.356 271.787 429.126 271.787 429.126L264.983 392.79L287.823 394.473Z" fill="#A7AAB3"/>
    <path d="M287.823 394.473L344.59 425.951L374.394 502.322L364.164 504.267C364.164 504.267 333.825 449.234 322.183 444.295C310.542 439.356 271.787 429.126 271.787 429.126L264.983 392.79L287.823 394.473Z" fill="black" opacity="0.1"/>
    <path d="M398.04 519.386L368.084 522.561C368.084 522.561 365.353 515.213 369.354 511.544C373.356 507.875 391.7 513.338 398.04 519.386ZM261.002 534.142L231.5 528.094C231.5 528.094 231.127 520.263 236.055 518.015C240.984 515.767 256.799 526.451 261.002 534.142Z" fill="#454C5E"/>
    <path d="M214.516 241.167C215.725 244.131 217.539 248.434 219.989 253.676C220.533 254.815 220.997 255.823 221.168 256.165C224.001 261.824 227.54 267.101 231.701 271.869C232.547 272.806 233.364 273.683 234.241 274.51C237.476 277.533 253.099 276.979 264.761 271.214C276.423 265.448 276.463 252.063 269.367 248.918C266.78 247.539 264.462 245.705 262.523 243.506C259.84 240.663 257.364 237.632 255.115 234.434C253.785 232.64 252.998 231.411 252.998 231.411L240.429 226.643L217.509 234.999C219.192 238.758 219.152 241.802 218.023 242.478C216.894 243.153 214.949 241.52 214.516 241.167Z" fill="#FFCB9D"/>
    <path d="M214.516 241.167C215.725 244.131 217.539 248.434 219.989 253.676C220.533 254.815 220.997 255.823 221.168 256.165C224.001 261.824 227.54 267.101 231.701 271.869C233.013 270.857 234.121 269.605 234.966 268.18C235.869 266.598 236.455 264.855 236.69 263.049C236.894 261.134 236.796 259.199 236.398 257.314C236.202 256.077 235.936 254.852 235.601 253.645C245.456 253.365 254.933 249.796 262.523 243.506C259.84 240.663 257.364 237.632 255.115 234.434C253.785 232.64 252.998 231.411 252.998 231.411L240.429 226.643L217.509 234.999C219.192 238.758 219.152 241.802 218.023 242.478C216.894 243.153 214.949 241.52 214.516 241.167Z" fill="black" opacity="0.1"/>
    <path d="M212.44 246.62C213.75 250.652 211.704 252.385 213.397 254.321C215.292 256.488 219.999 256.508 222.852 257.415C223.86 257.738 224.746 258.161 224.746 258.161C225.03 258.282 225.306 258.42 225.573 258.574C227.917 259.929 229.887 261.844 231.308 264.148C231.906 262.432 231.955 260.572 231.449 258.826C230.623 256.206 227.71 251.932 227.418 251.287C227.418 251.287 227.307 251.105 227.206 250.924C227.034 250.581 226.974 250.42 226.682 249.916C226.106 248.716 225.628 247.473 225.25 246.197V246.136C225.243 246.119 225.239 246.1 225.239 246.081C225.239 246.062 225.243 246.043 225.25 246.025C229.363 246.106 258.22 246.449 262.151 235.745C262.443 234.938 263.703 231.189 261.939 228.276C259.278 223.901 252.061 225.665 250.217 221.533C248.987 218.791 251.608 216.796 250.056 214.397C248.503 211.998 244.068 211.312 240.984 212.603C238.636 213.61 238.968 214.931 236.811 215.808C233.052 217.34 230.764 213.792 226.903 215.132C223.829 216.14 221.864 219.517 221.37 220.273C220.291 222.087 220.312 223.105 218.85 224.647C217.74 225.753 216.421 226.627 214.97 227.217C211.875 228.608 210.938 227.782 209.436 228.82C206.856 230.614 205.818 234.868 206.664 238.133C207.662 242.205 210.978 242.054 212.44 246.62Z" fill="#454C5E"/>
    <path d="M182.696 297.45C182.696 297.45 165.34 316.318 167.98 321.64C170.621 326.962 172.214 330.903 180.68 330.379C189.147 329.855 199.055 312.025 199.055 312.025L182.696 297.45Z" fill="#FFCB9D"/>
    <path d="M182.696 297.45C182.696 297.45 165.34 316.318 167.98 321.64C170.621 326.962 172.214 330.903 180.68 330.379C189.147 329.855 199.055 312.025 199.055 312.025L182.696 297.45Z" fill="black" opacity="0.17"/>
    <path d="M212.117 394.906C213.272 398.776 215.191 402.375 217.762 405.49C225.654 414.934 234.967 413.372 241.045 417.837C262.08 433.288 233.072 512.794 233.072 512.804H250.207C250.207 512.804 291.129 433.712 288.659 419.954C286.19 406.195 271.404 394.554 271.404 394.554L212.117 394.906Z" fill="#A7AAB3"/>
    <path d="M292.49 394.1C287.178 394.463 278.883 395.108 268.763 396.469C251.427 398.727 245.329 400.682 234.766 400.319C226.153 399.98 217.648 398.279 209.568 395.279C203.558 369.374 201.61 342.691 203.792 316.187L178.715 293.902L187.171 285.99C187.171 285.99 200.587 273.139 207.763 271.969C214.224 270.961 215.162 277.846 221.763 282.805C222.538 283.4 223.357 283.935 224.213 284.407C230.008 287.592 244.371 286.141 255.116 285.072C262.171 284.367 265.729 284.165 267.211 284.458C274.619 285.929 284.164 293.529 292.167 322.265L266.425 327.869C267.151 324.704 267.873 321.539 268.592 318.374C269.281 345.361 277.564 371.607 292.49 394.1Z" fill="#066FD1"/>
    <path d="M171.618 320.844C173.241 315.804 189.872 312.216 199.054 320.289C205.848 326.266 208.206 338.341 203.872 342.464C202.937 343.319 201.775 343.886 200.526 344.097C194.146 345.337 180.297 347.614 176.184 340.922C174.309 337.898 176.477 336.305 174.511 329.28C172.929 323.656 171.003 322.749 171.618 320.844ZM239.25 292.541C228.707 291.18 220.493 287.502 220.916 284.276C220.972 283.962 221.09 283.662 221.263 283.394C221.436 283.126 221.661 282.895 221.924 282.714C222.697 283.311 223.516 283.847 224.373 284.316C230.169 287.502 244.532 286.05 255.276 284.982C257.816 286.342 259.248 287.824 259.076 289.205C258.663 292.41 249.783 293.912 239.25 292.541Z" fill="#FFCB9D"/>
    <path d="M262.776 232.045C262.732 233.284 262.494 234.509 262.07 235.674C258.139 246.398 229.282 246.046 225.17 245.955C223.453 245.43 221.949 244.371 220.876 242.931C249.753 240.945 259.49 235.462 262.776 232.045Z" fill="black" opacity="0.3"/>
    <path d="M424.024 198.058C423.75 196.97 423.365 195.913 422.875 194.903C421.202 191.285 418.602 189.188 416.344 189.954C413.481 190.962 412.312 196.123 413.673 201.566C413.824 202.17 414.015 202.765 414.217 203.329C415.83 207.764 418.823 210.546 421.343 209.669C424.196 208.702 425.405 203.501 424.024 198.058Z" fill="#FFCB9D"/>
    <path d="M424.024 198.058C423.75 196.97 423.365 195.913 422.875 194.903C422.593 195.044 422.341 195.175 422.079 195.327C418.652 197.343 418.047 200.044 414.67 202.987C414.527 203.111 414.376 203.226 414.217 203.33C415.829 207.764 418.823 210.546 421.343 209.669C424.195 208.702 425.405 203.501 424.024 198.058Z" fill="black" opacity="0.32"/>
    <path d="M568.803 337.717C567.363 338.516 566.012 339.465 564.771 340.549C560.276 344.318 558.301 348.804 560.246 351.717C562.746 355.396 570.557 355.103 577.743 351.062C578.537 350.618 579.308 350.133 580.052 349.61C585.726 345.629 588.528 340.317 586.311 337.061C583.852 333.393 575.99 333.675 568.803 337.717Z" fill="#FFCB9D"/>
    <path d="M568.803 337.717C567.363 338.516 566.012 339.465 564.771 340.549C565.074 340.902 565.356 341.204 565.669 341.557C569.821 345.659 573.934 345.508 579.386 349.137C579.62 349.293 579.842 349.464 580.052 349.651C585.726 345.669 588.528 340.357 586.311 337.102C583.852 333.393 575.99 333.675 568.803 337.717Z" fill="black" opacity="0.14"/>
    <path d="M625.247 315.199C622.596 323.122 615.954 329.603 611.338 334.078C610.279 335.086 608.525 336.739 596.43 346.496C591.723 350.306 587.823 353.41 585.172 355.567C584.248 353.004 583.027 350.558 581.533 348.28C578.648 344.077 575.041 340.419 570.879 337.475C569.478 336.401 568.028 335.392 566.535 334.451C568.159 334.196 569.756 333.787 571.303 333.231C571.807 333.07 572.311 332.858 572.845 332.637C580.636 329.28 584.668 322.94 587.349 318.526C590.725 313.073 594.233 307.368 594.203 300.05C594.152 284.76 578.731 275.094 577.199 274.167L579.799 248.021C580.814 248.087 581.823 248.211 582.823 248.394C590.887 249.876 598.587 255.218 608.021 269.006C620.348 287.078 629.944 301.088 625.247 315.199Z" fill="#A7AAB3"/>
    <path d="M561.546 184.32C561.405 187.687 561.143 192.615 560.639 198.683C560.508 200.014 560.407 201.183 560.377 201.576C559.606 208.204 558.005 214.71 555.61 220.938C555.116 222.168 554.602 223.337 554.047 224.466C551.941 228.669 536.247 233.729 522.62 232.237C508.993 230.745 504.155 217.471 510.001 211.806C512.066 209.506 513.702 206.853 514.829 203.975C516.449 200.188 517.796 196.291 518.861 192.313C519.526 190.055 519.869 188.553 519.869 188.553L530.603 179.291H556.325C556.023 183.625 557.162 186.618 558.523 186.89C559.883 187.162 561.244 184.824 561.546 184.32Z" fill="#FFCB9D"/>
    <path d="M561.547 184.32C561.405 187.687 561.143 192.615 560.639 198.683C560.508 200.014 560.408 201.183 560.377 201.576C559.607 208.204 558.005 214.71 555.61 220.938C553.946 220.409 552.397 219.572 551.044 218.469C549.578 217.224 548.367 215.708 547.476 214.004C546.583 212.181 545.984 210.228 545.702 208.218C545.445 206.923 545.263 205.614 545.158 204.297C540.244 205.927 535.094 206.731 529.918 206.676C524.763 206.623 519.653 205.71 514.799 203.975C516.419 200.188 517.766 196.291 518.831 192.313C519.496 190.055 519.838 188.553 519.838 188.553L530.573 179.291H556.295C555.993 183.625 557.132 186.618 558.493 186.89C559.853 187.162 561.244 184.824 561.547 184.32Z" fill="black" opacity="0.1"/>
    <path d="M564.711 189.813C564.884 193.637 564.572 197.467 563.784 201.213C563.22 204.116 562.645 204.751 562.222 207.704C561.923 209.641 561.818 211.602 561.909 213.56C562.454 220.293 567.695 222.49 566.949 224.869C565.467 229.667 540.803 231.29 534.292 220.454C530.986 214.951 533.455 208.158 530.684 206.988C528.496 206.051 524.697 209.962 521.542 213.842C525.422 205.779 524.979 202.463 523.628 201.011C521.794 198.995 518.709 200.9 514.647 198.048C512.692 196.585 510.972 194.831 509.547 192.847C509.4 192.688 509.278 192.508 509.185 192.313C508.815 191.825 508.478 191.313 508.177 190.781C508.177 190.781 508.116 190.68 508.086 190.65C507.349 189.274 506.844 187.786 506.594 186.245L506.503 185.65C506.444 184.98 506.444 184.305 506.503 183.635C506.87 180.992 508.137 178.557 510.092 176.74C513.7 173.142 519.052 171.005 521.864 169.907C532.79 165.512 549.371 164.474 558.785 174.342C561.15 176.93 562.876 180.037 563.824 183.413C564.283 185.521 564.58 187.66 564.711 189.813Z" fill="#454C5E"/>
    <path d="M567.947 366.826L562.07 509.216H550.499L534.503 399.2L523.527 509.216H514.96L499.528 366.826H567.947Z" fill="#066FD1"/>
    <path d="M537.558 528.981L563.36 526.109C563.36 526.109 564.288 519.416 560.246 517.037C556.204 514.659 541.771 522.712 537.558 528.981ZM499.528 528.981L525.321 526.139C525.321 526.139 526.259 519.446 522.217 517.068C518.175 514.689 503.752 522.712 499.528 528.981Z" fill="#454C5E"/>
    <path d="M489.207 248.021C474.82 248.609 460.668 244.237 449.12 235.637C437.571 227.037 429.328 214.731 425.768 200.779L407.958 204.932C410.74 205.862 413.231 207.502 415.185 209.689C418.854 213.953 419.116 219.224 419.217 220.777C420.053 231.743 428.711 255.974 438.085 266.637C452.458 282.986 481.628 282.321 492.13 282.049C493.427 296.946 494.747 311.806 496.091 326.629C497.247 340.015 498.406 353.413 499.569 366.826H567.997C567.992 366.735 567.992 366.644 567.997 366.553C568.965 356.837 569.932 347.131 570.9 337.434C571.031 336.023 571.182 334.602 571.323 333.181C571.384 332.536 571.464 331.881 571.525 331.236C571.676 329.693 571.827 328.151 571.968 326.629C572.734 319.03 573.494 311.436 574.246 303.85C575.234 293.972 576.242 284.078 577.27 274.167L579.87 248.021H489.207Z" fill="#DADBE0"/>
    <path d="M514.315 241.772C513.71 241.611 511.14 251.478 511.14 251.478C511.14 251.478 543.252 256.518 552.777 251.478V241.772C552.777 241.772 539.362 248.656 514.315 241.772Z" fill="#066FD1"/>
    <path d="M567.976 366.554L517.781 366.826L514.959 509.216H523.526L534.503 399.201L550.499 509.216H562.07L567.976 366.554Z" fill="black" opacity="0.22"/>
    <path d="M607.971 269.006C598.526 255.218 590.836 249.855 582.772 248.394C581.773 248.211 580.763 248.087 579.749 248.021H552.777C552.842 270.47 548.126 292.675 538.943 313.16C529.76 333.644 516.32 351.939 499.518 366.826H567.946C567.941 366.735 567.941 366.644 567.946 366.553C568.913 356.837 569.881 347.131 570.849 337.434C575.01 340.379 578.617 344.037 581.502 348.239C582.996 350.518 584.217 352.964 585.141 355.527C587.792 353.41 591.693 350.306 596.4 346.455C608.495 336.699 610.249 335.066 611.307 334.038C615.923 329.562 622.566 323.081 625.216 315.159C629.944 301.088 620.348 287.078 607.971 269.006ZM587.348 318.505C584.667 322.87 580.636 329.21 572.844 332.616C572.31 332.838 571.836 333.05 571.302 333.211C571.363 332.566 571.443 331.911 571.504 331.266C571.655 329.724 571.806 328.182 571.947 326.66L574.225 303.88C575.213 294.003 576.221 284.108 577.249 274.197C578.781 275.124 594.202 284.79 594.253 300.081C594.233 307.418 590.725 313.073 587.348 318.505Z" fill="black" opacity="0.1"/>
</svg>
