<svg xmlns="http://www.w3.org/2000/svg" width="800" height="600" fill="none" viewBox="0 0 800 600">
    <path d="M156.869 300.312C156.869 347.291 206.539 381.368 228.487 419.3C251.134 458.429 256.577 518.248 295.706 540.884C333.649 562.82 387.647 538.275 434.625 538.275C481.603 538.275 535.601 562.82 573.521 540.884C612.65 518.248 618.092 458.429 640.739 419.3C662.687 381.357 712.357 347.291 712.357 300.312C712.357 253.334 662.687 219.268 640.739 181.349C618.092 142.22 612.661 82.4001 573.521 59.7646C535.601 37.8169 481.591 62.4206 434.625 62.4206C387.658 62.4206 333.649 37.8762 295.706 59.8239C256.577 82.4594 251.134 142.279 228.487 181.408C206.539 219.351 156.869 253.405 156.869 300.372" fill="black" opacity="0.07"/>
    <path d="M474 446C474 448.75 373.03 451 248.479 451C123.929 451 23 448.775 23 446C23 443.225 123.937 441 248.479 441C373.022 441 474 443.225 474 446Z" fill="#1D2535" opacity="0.5"/>
    <path d="M635.806 178.622V433.458C635.806 435.125 635.477 436.777 634.839 438.317C634.201 439.858 633.265 441.258 632.086 442.437C630.907 443.616 629.507 444.552 627.966 445.19C626.426 445.828 624.774 446.157 623.107 446.157H493.566C490.198 446.157 486.968 444.819 484.587 442.437C482.205 440.056 480.867 436.826 480.867 433.458V178.622C480.87 175.256 482.21 172.029 484.591 169.65C486.972 167.271 490.2 165.935 493.566 165.935H623.107C626.473 165.935 629.701 167.271 632.082 169.65C634.463 172.029 635.803 175.256 635.806 178.622Z" fill="#DADBE0"/>
    <path d="M340.653 121.653C346.668 94.1108 329.217 66.9069 301.675 60.8916C274.132 54.8763 246.928 72.3275 240.913 99.8699C234.898 127.412 252.349 154.616 279.891 160.631C307.434 166.647 334.638 149.196 340.653 121.653Z" fill="#232B41"/>
    <path d="M290.868 164.63C286.788 164.614 282.722 164.137 278.749 163.207C265.415 160.127 253.765 152.062 246.186 140.666C238.608 129.27 235.676 115.407 237.992 101.919C240.308 88.4309 247.696 76.3396 258.641 68.1242C269.586 59.9089 283.26 56.1918 296.858 57.7353C310.456 59.2787 322.949 65.9657 331.775 76.4251C340.6 86.8846 345.09 100.324 344.324 113.988C343.558 127.652 337.594 140.506 327.654 149.913C317.715 159.32 304.553 164.569 290.868 164.583V164.63ZM290.761 62.5038C281.682 62.5024 272.787 65.0635 265.099 69.8923C257.41 74.7212 251.241 81.6219 247.3 89.8008C243.359 97.9798 241.806 107.105 242.82 116.127C243.835 125.149 247.374 133.702 253.033 140.802C258.692 147.902 266.239 153.261 274.807 156.262C283.376 159.264 292.617 159.786 301.47 157.769C310.322 155.752 318.425 151.278 324.847 144.861C331.27 138.443 335.751 130.344 337.775 121.494C339.386 114.429 339.386 107.092 337.774 100.027C336.162 92.9626 332.98 86.3517 328.463 80.685C323.947 75.0184 318.213 70.4415 311.686 67.294C305.159 64.1466 298.007 62.5093 290.761 62.5038Z" fill="#DADCE0"/>
    <path d="M273.828 119.252C273.077 119.246 272.352 118.972 271.783 118.48C271.215 117.988 270.84 117.31 270.726 116.567C270.612 115.824 270.766 115.065 271.161 114.425C271.555 113.785 272.165 113.306 272.88 113.075L288.045 108.332L295.16 74.4321C295.367 73.6483 295.867 72.9739 296.557 72.5479C297.247 72.1219 298.074 71.9768 298.867 72.1425C299.661 72.3083 300.361 72.7722 300.823 73.4386C301.284 74.1051 301.473 74.9233 301.349 75.7246L293.511 113.241L274.824 119.169C274.499 119.252 274.163 119.28 273.828 119.252Z" fill="#066FD1"/>
    <path d="M307.127 309.128L246.098 394.784L249.931 397.515L310.961 311.86L307.127 309.128Z" fill="#A6A9B3"/>
    <path d="M307.127 309.128L246.098 394.784L249.931 397.515L310.961 311.86L307.127 309.128Z" fill="black" opacity="0.1"/>
    <path d="M188.741 342.311L174.311 367.875L155.826 400.66L151.332 408.569L145.818 418.351C145.221 419.417 144.419 420.354 143.459 421.11C142.499 421.865 141.4 422.424 140.224 422.755C139.048 423.085 137.818 423.18 136.605 423.035C135.392 422.89 134.22 422.507 133.155 421.908L93.6227 399.605C92.4525 398.952 91.4404 398.049 90.6583 396.961C89.6109 395.518 88.9994 393.805 88.8964 392.024C88.7934 390.244 89.2033 388.472 90.0773 386.918L101.887 365.966L108.456 354.31L113.519 345.346L132.989 310.83C133.587 309.764 134.39 308.826 135.351 308.071C136.312 307.315 137.412 306.756 138.59 306.426C139.767 306.095 140.997 306 142.211 306.145C143.425 306.291 144.598 306.674 145.664 307.273L173.256 322.829L185.196 329.564C186.27 330.164 187.215 330.97 187.976 331.937C188.737 332.904 189.298 334.013 189.628 335.198C189.957 336.383 190.049 337.622 189.897 338.843C189.745 340.064 189.352 341.243 188.741 342.311Z" fill="#454C5E"/>
    <path d="M144.403 321.062L102.839 394.735C102.424 395.471 102.684 396.404 103.42 396.819L106.828 398.742C107.564 399.157 108.497 398.897 108.912 398.161L150.476 324.487C150.891 323.752 150.631 322.819 149.895 322.404L146.487 320.481C145.751 320.066 144.818 320.326 144.403 321.062Z" fill="#DADBE0"/>
    <path d="M149.963 353.312L124.217 398.948C123.889 399.53 124.095 400.268 124.676 400.596L128.642 402.833C129.224 403.161 129.961 402.956 130.29 402.374L156.036 356.738C156.364 356.156 156.158 355.419 155.576 355.091L151.611 352.853C151.029 352.525 150.291 352.731 149.963 353.312Z" fill="#066FD1"/>
    <path d="M112.462 447.01C117.695 447.01 121.936 442.769 121.936 437.536C121.936 432.304 117.695 428.062 112.462 428.062C107.23 428.062 102.988 432.304 102.988 437.536C102.988 442.769 107.23 447.01 112.462 447.01Z" fill="#066FD1"/>
    <path d="M206.822 431.999C207.917 431.997 208.989 432.319 209.901 432.926C210.813 433.533 211.525 434.397 211.946 435.409C212.367 436.421 212.478 437.534 212.266 438.609C212.054 439.684 211.527 440.672 210.753 441.448C209.979 442.223 208.993 442.752 207.918 442.966C206.844 443.181 205.73 443.072 204.717 442.653C203.705 442.235 202.839 441.525 202.23 440.614C201.621 439.703 201.296 438.632 201.296 437.536C201.299 436.071 201.882 434.666 202.917 433.628C203.953 432.591 205.356 432.005 206.822 431.999ZM206.822 428.062C204.946 428.062 203.112 428.619 201.552 429.661C199.992 430.703 198.776 432.185 198.058 433.918C197.34 435.651 197.152 437.559 197.518 439.399C197.884 441.239 198.788 442.929 200.114 444.256C201.441 445.582 203.131 446.486 204.971 446.852C206.811 447.218 208.718 447.03 210.452 446.312C212.185 445.594 213.667 444.378 214.709 442.818C215.751 441.258 216.308 439.424 216.308 437.548C216.308 435.032 215.308 432.62 213.529 430.841C211.75 429.062 209.338 428.062 206.822 428.062Z" fill="#454C5E"/>
    <path d="M188.741 342.311L174.311 367.875L155.826 400.66L151.332 408.569L130.262 416.644L90.6583 396.937C89.6109 395.494 88.9994 393.781 88.8964 392.001C88.7934 390.221 89.2033 388.448 90.0773 386.894L101.887 365.966C113.033 376.377 136.593 393.748 153.051 373.389C167.766 355.2 172.023 334.663 173.268 322.841L185.208 329.576C186.28 330.177 187.222 330.984 187.98 331.95C188.739 332.917 189.299 334.024 189.627 335.208C189.955 336.391 190.046 337.629 189.894 338.848C189.742 340.067 189.351 341.244 188.741 342.311Z" fill="black" opacity="0.1"/>
    <path d="M230.111 344.623L223.732 368.705L219.878 383.23L215.55 399.593L211.21 415.956L211.127 416.252C210.59 418.276 209.272 420.003 207.462 421.054C205.652 422.106 203.499 422.396 201.476 421.861L170.967 413.774L164.232 411.996C162.206 411.459 160.476 410.139 159.422 408.327C158.368 406.515 158.077 404.359 158.612 402.332L163.189 385.068L166.746 371.646L168.999 363.191L177.619 330.667C178.156 328.644 179.474 326.917 181.284 325.865C183.094 324.813 185.247 324.523 187.271 325.058L224.514 334.924C225.519 335.192 226.461 335.656 227.287 336.289C228.112 336.922 228.805 337.711 229.325 338.612C229.845 339.513 230.182 340.508 230.316 341.539C230.451 342.571 230.381 343.619 230.111 344.623Z" fill="#DADBE0"/>
    <path d="M184.727 353.391L171.796 402.159C171.64 402.747 171.991 403.351 172.58 403.507L176.167 404.458C176.756 404.614 177.359 404.264 177.515 403.675L190.446 354.908C190.602 354.319 190.251 353.715 189.663 353.559L186.075 352.608C185.487 352.452 184.883 352.802 184.727 353.391Z" fill="#454C5E"/>
    <path d="M206.461 339.856L189.276 404.669C189.097 405.346 189.5 406.041 190.177 406.221L193.444 407.087C194.121 407.266 194.816 406.863 194.995 406.186L212.18 341.372C212.36 340.695 211.956 340.001 211.279 339.821L208.013 338.955C207.335 338.775 206.641 339.179 206.461 339.856Z" fill="#066FD1"/>
    <path d="M219.878 383.195L215.55 399.558L211.21 415.921L170.967 413.739L164.232 411.96C162.206 411.423 160.476 410.104 159.422 408.292C158.368 406.48 158.077 404.323 158.612 402.297L163.189 385.068C172.01 385.744 202.685 387.641 219.878 383.195Z" fill="black" opacity="0.1"/>
    <path d="M252.213 396.795V420.355C252.21 421.433 251.78 422.465 251.018 423.228C250.256 423.99 249.224 424.419 248.146 424.422H71.1412C70.0636 424.419 69.0309 423.99 68.2689 423.228C67.5068 422.465 67.0773 421.433 67.0742 420.355V396.795C67.0742 395.715 67.5023 394.679 68.2647 393.915C69.0271 393.15 70.0615 392.719 71.1412 392.716H248.146C249.226 392.719 250.26 393.15 251.023 393.915C251.785 394.679 252.213 395.715 252.213 396.795Z" fill="#A6A9B3"/>
    <path d="M252.213 419.774V420.308C252.21 421.385 251.78 422.418 251.018 423.18C250.256 423.942 249.224 424.372 248.146 424.375H71.1412C70.0636 424.372 69.0309 423.942 68.2689 423.18C67.5068 422.418 67.0773 421.385 67.0742 420.308V396.795C67.0742 395.715 67.5023 394.679 68.2647 393.915C69.0271 393.15 70.0615 392.719 71.1412 392.716H79.8089C106.642 402.059 166.355 418.837 252.213 419.774Z" fill="black" opacity="0.1"/>
    <path d="M635.807 176.772V431.703C635.807 439.386 640.55 447.188 646.478 449.121L705.48 468.448L766.865 488.605C772.793 490.55 777.536 485.89 777.536 478.207V223.276C777.536 215.593 772.793 207.802 766.865 205.858L646.502 166.361C640.597 164.393 635.807 169.136 635.807 176.772Z" fill="#454C5E"/>
    <path d="M758.991 352.484C762.809 352.484 765.904 348.789 765.904 344.232C765.904 339.674 762.809 335.979 758.991 335.979C755.173 335.979 752.078 339.674 752.078 344.232C752.078 348.789 755.173 352.484 758.991 352.484Z" fill="#DADBE0"/>
    <path d="M635.807 178.622V431.738C635.807 439.422 640.55 447.224 646.478 449.156L705.48 468.484C665.42 376.702 641.836 278.583 635.807 178.622Z" fill="black" opacity="0.1"/>
    <path d="M635.806 179.808V433.458C635.806 435.125 635.477 436.777 634.839 438.317C634.201 439.858 633.265 441.258 632.086 442.437C630.907 443.616 629.507 444.552 627.966 445.19C626.426 445.828 624.774 446.157 623.107 446.157H493.566C490.198 446.157 486.968 444.819 484.587 442.437C482.205 440.056 480.867 436.826 480.867 433.458V249.172C563.927 252.457 619.976 183.471 631.015 168.697C632.331 166.931 633.007 165.935 633.007 165.935L634.395 172.812L635.806 179.808Z" fill="black" opacity="0.11"/>
    <path d="M495.725 321.928C497.052 322.59 498.492 322.992 499.97 323.114C504.938 323.541 509.242 320.743 509.574 316.913C509.871 313.474 506.906 310.344 502.721 309.407C502.212 309.296 501.697 309.217 501.179 309.17C500.678 309.134 500.175 309.134 499.673 309.17C495.381 309.348 491.883 311.944 491.575 315.395C491.35 318.039 493.033 320.482 495.725 321.928Z" fill="#FFCB9D"/>
    <path d="M495.725 321.928C496.562 322.362 497.45 322.688 498.369 322.9C499.462 318.311 500.917 313.815 502.721 309.454C502.212 309.344 501.697 309.265 501.179 309.217C500.678 309.182 500.175 309.182 499.673 309.217C495.381 309.395 491.883 311.992 491.575 315.442C491.35 318.039 493.033 320.482 495.725 321.928Z" fill="black" opacity="0.1"/>
    <path d="M395.791 192.352C395.957 195.151 396.325 199.253 396.823 204.411C396.941 205.467 397.06 206.522 397.143 206.878C397.94 212.414 399.41 217.834 401.518 223.015L402.953 225.956C404.779 229.406 418.047 233.367 429.477 231.801C440.908 230.236 444.643 219.031 439.568 214.431C437.806 212.533 436.39 210.342 435.382 207.957C433.954 204.826 432.765 201.591 431.825 198.281C431.209 196.36 430.877 195.163 430.877 195.163L421.699 187.693L400.166 188.297C400.475 191.926 399.621 194.499 398.435 194.724C397.249 194.949 395.969 192.839 395.791 192.352Z" fill="#FFCB9D"/>
    <path d="M395.791 192.352C395.957 195.151 396.325 199.253 396.823 204.411C396.941 205.467 397.06 206.522 397.143 206.878C397.94 212.415 399.41 217.834 401.518 223.015C402.966 222.512 404.295 221.718 405.425 220.682C406.555 219.647 407.461 218.391 408.087 216.992C408.794 215.459 409.242 213.821 409.415 212.142C409.646 211.046 409.765 209.93 409.771 208.81C418.099 211.318 427.022 211.01 435.157 207.933C433.709 204.804 432.5 201.569 431.541 198.257C430.936 196.336 430.604 195.139 430.604 195.139L421.426 187.669L399.894 188.274C400.202 191.902 399.348 194.475 398.162 194.7C396.977 194.925 395.921 192.839 395.791 192.329" fill="black" opacity="0.1"/>
    <path d="M393.219 197.06C393.43 201.551 395.347 205.792 398.579 208.917C399.242 209.45 399.876 210.02 400.476 210.624C402.011 212.411 403.061 214.563 403.523 216.873C404.505 215.627 405.073 214.106 405.148 212.521C404.972 210.06 404.616 207.615 404.08 205.206C404.078 205.083 404.049 204.961 403.997 204.85C403.919 204.504 403.879 204.15 403.879 203.795C403.772 202.609 403.784 201.423 403.772 200.415V200.309C409.357 203.451 425.115 211.17 435.395 202.976C436.972 201.685 438.378 200.199 439.581 198.554C439.717 198.444 439.817 198.295 439.866 198.127C440.148 197.714 440.387 197.273 440.577 196.811L440.707 196.704C441.261 195.527 441.66 194.284 441.893 193.004V192.542C441.978 191.147 441.738 189.751 441.19 188.465C440.643 187.179 439.804 186.037 438.739 185.131C435.788 182.696 432.405 180.838 428.767 179.653C419.495 176.226 405.527 175.669 397.938 184.135C395.994 186.328 394.632 188.974 393.978 191.831C393.38 193.515 393.11 195.298 393.184 197.083" fill="#454C5E"/>
    <path d="M403.759 200.285C409.344 203.427 425.102 211.146 435.383 202.953C436.959 201.661 438.365 200.175 439.568 198.53C439.705 198.42 439.804 198.271 439.853 198.103C440.136 197.691 440.374 197.25 440.564 196.787L440.695 196.68C441.249 195.504 441.647 194.26 441.88 192.981C439.508 195.451 436.738 197.507 433.687 199.064C418.605 206.629 402.337 198.162 399.823 196.692L399.609 196.55C400.874 197.902 402.254 199.14 403.736 200.249" fill="black" opacity="0.5"/>
    <path d="M440.386 249.67L433.533 268.986C429.114 281.428 424.684 293.866 420.241 306.3C416.755 316 413.411 325.616 409.937 335.327H409.854L359.473 322.189C360.089 315.185 360.832 308.071 361.702 300.846C363.623 284.886 366.053 269.578 368.816 254.935C370.302 247.164 371.883 239.592 373.559 232.216L440.386 249.67Z" fill="#066FD1"/>
    <path d="M359.377 322.154L339.742 375.215L298.965 394.02V401.301L349.809 396.143L380.329 351.085L406.605 374.646L428.055 431.418L434.612 430.552L429.134 365.836L409.818 335.291L359.377 322.154Z" fill="#DADBE0"/>
    <path d="M286.503 414L284.949 394.21C284.949 394.21 289.799 392.574 292.194 395.289C294.589 398.004 290.653 409.921 286.503 414Z" fill="#454C5E"/>
    <path d="M450.334 436.742L432.631 445.73C432.631 445.73 429.276 441.864 430.865 438.615C432.453 435.366 445.093 434.394 450.334 436.742Z" fill="#454C5E"/>
    <path d="M500.574 305.98L488.622 337.995C456.003 322.877 434.541 301.854 428.624 283.226C428.609 283.154 428.589 283.083 428.565 283.013C426.791 277.799 426.511 272.192 427.759 266.828C428.861 262.476 431.778 256.156 440.387 249.658C440.791 249.741 441.187 249.856 441.572 250.002C450.276 253.429 449.339 270.468 451.912 278.887C453.038 282.61 455.469 286.653 460.366 290.601C467.397 296.329 479.634 301.866 500.574 305.98Z" fill="#066FD1"/>
    <path d="M308.131 300.751C307.352 301.285 306.646 301.919 306.032 302.636C305.679 303.045 305.354 303.476 305.06 303.929C302.357 308.126 302.807 313.225 306.056 315.312C308.949 317.185 313.111 316.023 315.898 312.763C316.231 312.363 316.54 311.943 316.822 311.506C317.095 311.087 317.34 310.651 317.558 310.201C319.395 306.312 318.743 302.008 315.826 300.135C313.609 298.676 310.657 299.02 308.131 300.751Z" fill="#FFCB9D"/>
    <path d="M308.13 300.751C307.351 301.285 306.645 301.919 306.031 302.636C309.576 305.752 312.874 309.138 315.896 312.763C316.23 312.363 316.539 311.943 316.821 311.506C317.094 311.087 317.339 310.651 317.556 310.201C319.394 306.312 318.742 302.008 315.825 300.135C313.608 298.676 310.656 299.02 308.13 300.751Z" fill="black" opacity="0.1"/>
    <path d="M376.109 253.038C373.642 253.505 371.203 254.115 368.805 254.864C360.601 257.406 353.023 261.644 346.561 267.302C327.092 284.459 325.633 308.257 325.443 313.059L301.018 298.178C303.226 289.653 306.443 281.422 310.598 273.657C316.267 262.904 324.161 253.482 333.755 246.018C341.166 240.374 356.972 228.351 373.655 232.157C374.426 232.335 375.042 232.513 375.481 232.631C375.679 239.438 375.888 246.24 376.109 253.038Z" fill="#066FD1"/>
    <path d="M409.877 335.315L359.496 322.177C360.113 315.174 360.856 308.059 361.725 300.834C363.646 284.874 366.077 269.567 368.84 254.923C368.78 256.82 367.251 317.055 409.806 335.339L409.877 335.315Z" fill="black" opacity="0.11"/>
    <path d="M368.805 254.864C360.601 257.406 353.023 261.644 346.561 267.302C327.092 284.459 325.633 308.257 325.443 313.059L301.018 298.178C303.226 289.653 306.443 281.422 310.598 273.657C325.147 262.203 346.87 249.86 368.805 254.864Z" fill="black" opacity="0.11"/>
    <path d="M500.573 305.98L488.621 337.995C456.002 322.877 434.54 301.854 428.624 283.226L428.564 283.013C428.861 283.309 439.627 293.91 460.33 290.601C467.397 296.328 479.634 301.866 500.573 305.98Z" fill="black" opacity="0.11"/>
    <path d="M380.33 351.133L390.326 330.205L409.878 335.315L429.134 365.883L434.612 430.6L428.055 431.465L406.606 374.693L380.33 351.133Z" fill="black" opacity="0.11"/>
    <path d="M399.834 238.003C402.035 241.739 405.353 244.692 409.32 246.445L409.877 246.706L421.272 244.5L399.834 238.003Z" fill="#FFCB9D"/>
    <path d="M399.834 238.003C402.035 241.739 405.353 244.692 409.32 246.445L409.877 246.706L421.272 244.5L399.834 238.003Z" fill="black" opacity="0.1"/>
    <path d="M409.842 246.706L424.77 240.647L426.964 244.382L415.201 255.279L409.842 246.706Z" fill="#DADBE0"/>
    <path d="M409.262 246.564L392.793 229.762L387.48 232.809L396.48 253.014L409.262 246.564Z" fill="#DADBE0"/>
    <path d="M409.842 246.706L424.77 240.647L426.964 244.382L415.201 255.279L409.842 246.706Z" fill="black" opacity="0.11"/>
    <path d="M413.494 259.31C413.233 262.322 411.965 272.756 403.404 280.582C394.12 289.072 379.95 291.088 367.156 285.823C368.084 285.871 369.015 285.871 369.943 285.823C375.278 285.621 386.709 284.009 394.12 274.262C397.967 269.064 400.015 262.753 399.953 256.287C403.068 253.125 406.068 249.892 408.953 246.587H409.57C410.933 250.951 412.19 255.042 413.494 259.31Z" fill="#DADBE0"/>
    <path d="M413.494 259.31C413.233 262.322 411.965 272.756 403.404 280.582C394.12 289.072 379.95 291.088 367.156 285.823C368.105 285.823 369.042 285.823 369.943 285.823C413.66 285.455 409.57 246.611 409.57 246.611C410.933 250.951 412.19 255.042 413.494 259.31Z" fill="black" opacity="0.11"/>
</svg>
