<svg xmlns="http://www.w3.org/2000/svg" width="800" height="600" fill="none" viewBox="0 0 800 600">
    <path d="M158 295.5C158 337.561 202.548 367.988 222.048 401.994C242.265 437.074 247.095 490.59 282.161 510.815C316.153 530.503 364.457 508.488 406.5 508.488C448.543 508.488 496.847 530.503 530.839 510.815C565.905 490.59 570.735 437.074 590.952 401.994C610.631 367.988 655 337.561 655 295.5C655 253.439 610.452 223.012 590.952 189.006C570.735 153.926 565.905 100.41 530.839 80.1852C496.847 60.4972 448.543 82.512 406.5 82.512C364.457 82.512 316.153 60.4972 282.161 80.1852C247.095 100.41 242.265 153.926 222.048 189.006C202.369 222.833 158 253.439 158 295.5Z" fill="black" opacity="0.07"/>
    <path d="M596.591 434.364L573.181 420.538L587.792 395.714L611.202 409.54L596.591 434.364ZM578.208 419.281L595.334 429.336L606.332 410.797L589.206 400.741L578.208 419.281Z" fill="#DADBE0"/>
    <path d="M596.591 434.364L573.181 420.538L587.792 395.714L611.202 409.54L596.591 434.364ZM578.208 419.281L595.334 429.336L606.332 410.797L589.206 400.741L578.208 419.281Z" fill="black" opacity="0.1"/>
    <path d="M596.591 434.364L573.181 420.538L587.792 395.714L611.202 409.54L596.591 434.364ZM578.208 419.281L595.334 429.336L606.332 410.797L589.206 400.741L578.208 419.281Z" fill="black" opacity="0.35"/>
    <path d="M655.352 406.397L622.043 386.758L616.701 383.616L610.417 394.142L615.759 397.285L630.685 406.083C632.099 406.869 632.57 408.754 631.784 410.168L629.271 414.41C628.485 415.824 626.6 416.296 625.186 415.51L610.26 406.712L604.918 403.569L602.561 407.497L589.678 429.179L587.478 432.793L592.82 435.935L607.746 444.733C609.16 445.519 609.631 447.404 608.846 448.818L606.332 452.903C605.546 454.317 603.661 454.789 602.247 454.003L587.478 445.048L582.136 441.905L574.595 454.632L613.245 477.57L616.701 471.6L655.352 406.397Z" fill="#DADBE0"/>
    <path d="M655.352 406.397L622.043 386.758L616.701 383.616L610.417 394.142L615.759 397.285L630.685 406.083C632.099 406.869 632.57 408.754 631.784 410.168L629.271 414.41C628.485 415.824 626.6 416.296 625.186 415.51L610.26 406.712L604.918 403.569L602.561 407.497L589.678 429.179L587.478 432.793L592.82 435.935L607.746 444.733C609.16 445.519 609.631 447.404 608.846 448.818L606.332 452.903C605.546 454.317 603.661 454.789 602.247 454.003L587.478 445.048L582.136 441.905L574.595 454.632L613.245 477.57L616.701 471.6L655.352 406.397Z" fill="black" opacity="0.1"/>
    <path d="M655.351 406.397L622.043 386.758L615.758 397.285L630.684 406.083C632.098 406.869 632.57 408.754 631.784 410.168L629.27 414.41C628.485 415.824 626.599 416.296 625.185 415.51L610.259 406.712L608.06 410.482L595.333 432.164L593.134 435.935L608.06 444.733C609.474 445.519 609.945 447.404 609.159 448.818L606.646 453.06C605.86 454.474 603.975 454.946 602.561 454.16L587.478 445.047L583.55 451.646C591.091 457.774 600.518 461.073 610.102 461.073C615.13 460.916 620.157 459.816 624.871 457.774L655.351 406.397Z" fill="#DADBE0"/>
    <path d="M607.903 444.733L592.977 435.935L587.635 432.793C586.221 432.007 584.493 432.478 583.708 433.892L581.351 438.134C580.565 439.548 581.037 441.277 582.294 442.062L587.635 445.205L602.561 454.003C603.975 454.789 605.861 454.317 606.646 452.903L609.16 448.661C609.789 447.247 609.317 445.519 607.903 444.733ZM630.842 406.083L615.916 397.285L610.574 394.142C609.16 393.357 607.432 393.828 606.646 395.242L604.132 399.484C603.347 400.898 603.818 402.627 605.075 403.569L610.417 406.712L625.343 415.51C626.757 416.296 628.642 415.824 629.428 414.41L631.942 410.168C632.57 408.754 632.099 406.869 630.842 406.083Z" fill="#066FD1"/>
    <path d="M493.209 416.924L527.774 457.774L558.097 466.572L562.025 461.387L537.044 441.434L537.987 404.041L493.209 416.924Z" fill="#DADBE0"/>
    <path d="M393.913 550C499.515 550 585.122 546.764 585.122 542.773C585.122 538.781 499.515 535.545 393.913 535.545C288.312 535.545 202.705 538.781 202.705 542.773C202.705 546.764 288.312 550 393.913 550Z" fill="#1D2535" opacity="0.5"/>
    <path d="M570.981 410.011C571.924 411.582 573.181 412.996 574.438 414.41C578.994 419.124 584.179 421.166 587.321 418.652C591.249 415.51 590.463 406.712 585.278 399.013C584.65 398.227 584.021 397.285 583.393 396.499C578.522 390.372 572.395 387.544 568.781 390.372C565.011 393.357 565.796 402.155 570.981 410.011Z" fill="#FFCB9D"/>
    <path d="M570.981 410.011C571.924 411.582 573.181 412.996 574.438 414.41C574.752 414.096 575.066 413.625 575.38 413.31C579.779 408.283 579.308 403.726 582.922 397.285C583.079 396.97 583.236 396.813 583.393 396.499C578.522 390.372 572.395 387.544 568.781 390.372C565.011 393.357 565.796 402.155 570.981 410.011Z" fill="black" opacity="0.19"/>
    <path d="M398.627 232.786C397.998 226.815 396.427 220.845 394.07 215.346C394.228 214.403 394.228 213.304 393.913 212.361L384.644 165.384C383.858 161.613 381.187 159.099 378.516 159.57C375.845 160.042 374.274 163.498 375.06 167.269L379.145 188.165C378.673 186.123 376.159 184.709 373.646 185.337C371.132 185.966 369.089 188.008 369.561 190.208L371.289 198.849L370.346 193.979C369.875 191.779 367.361 190.522 364.847 191.15C362.333 191.779 360.448 193.821 360.762 195.864L361.548 199.478C360.605 199.163 359.662 199.163 358.563 199.32C355.892 199.792 354.006 201.991 354.478 204.034L359.662 230.586C360.134 232.472 361.862 233.571 363.747 233.571L363.905 234.043C366.104 244.569 370.66 253.211 375.845 258.395C379.616 262.166 383.701 263.894 387.629 263.109C395.799 261.381 400.355 248.34 398.627 232.786Z" fill="#FFCB9D"/>
    <path d="M395.013 223.202C397.056 241.427 391.871 256.824 381.973 258.867C379.93 259.338 377.73 259.181 375.845 258.395C370.503 253.368 366.104 244.569 363.904 234.043L363.747 233.571C361.862 233.571 360.134 232.314 359.662 230.586L355.892 211.575C358.405 211.575 360.919 211.89 363.433 212.361L364.062 212.518C364.847 212.675 365.476 212.832 366.261 213.146C369.246 214.089 372.074 215.189 374.745 216.446C380.559 219.431 386.529 221.631 392.814 223.045C393.599 223.045 394.228 223.045 395.013 223.202Z" fill="black" opacity="0.1"/>
    <path d="M468.229 543.558L498.394 541.516C498.394 541.516 499.651 535.231 494.938 533.032C490.225 530.832 473.256 537.902 468.229 543.558Z" fill="#454C5E"/>
    <path d="M493.209 416.924L527.774 457.774L558.097 466.572L562.025 461.387L537.044 441.434L537.987 404.041L493.209 416.924Z" fill="black" opacity="0.15"/>
    <path d="M539.401 403.569C530.132 424.937 521.019 446.304 511.906 467.672L494.781 523.919H487.082L480.641 469.086L491.167 411.739L539.401 403.569Z" fill="#DADBE0"/>
    <path d="M561.869 479.141L570.038 465.315C570.038 465.315 567.21 462.644 564.697 463.901C562.183 465.158 560.455 475.056 561.869 479.141Z" fill="#454C5E"/>
    <path d="M593.92 389.586L592.977 388.329L590.621 385.187C573.809 362.719 556.998 340.095 540.187 317.628C537.987 314.957 535.159 312.757 532.174 311.343H532.017C530.603 310.715 529.189 310.4 527.775 310.086C525.732 309.772 523.69 309.929 521.647 310.243C519.448 310.872 517.091 311.343 514.891 311.972L513.477 312.286C509.707 311.5 506.407 308.986 504.522 305.53L478.127 313.857C478.598 316.056 474.042 320.613 471.214 322.97L465.557 324.384C464.301 322.97 462.887 321.556 461.315 320.299C442.147 305.216 428.636 284.319 422.979 260.595C418.58 242.056 419.052 222.573 424.551 204.191C411.981 218.488 400.983 222.259 392.971 222.573C382.601 223.202 374.117 218.488 363.747 223.673C358.877 226.187 354.635 230.115 351.649 234.828C364.061 257.61 378.83 278.977 395.799 298.617C405.54 309.929 415.909 320.613 427.064 330.511L430.05 333.182C433.663 336.324 437.277 339.309 440.89 342.138C449.846 349.365 459.116 356.121 468.7 362.405C469.8 365.705 471.056 369.161 472.47 372.618C477.655 385.972 483.626 398.856 490.539 411.425C506.879 408.754 523.061 406.083 539.244 403.412C538.301 400.113 537.359 396.656 536.416 392.885C533.902 382.359 532.017 371.518 531.074 360.677C530.917 359.42 530.917 358.32 530.76 357.221C530.76 356.749 530.76 356.121 530.603 355.649C531.231 357.221 531.703 358.949 532.331 360.52C533.902 364.762 535.316 368.847 536.887 373.089C541.444 385.658 546 398.227 550.556 410.954L552.285 415.667H552.442C559.669 416.453 564.068 414.724 566.896 412.839C573.809 408.126 573.809 400.741 580.879 395.242C584.179 392.728 588.264 391.157 592.506 390.843C593.292 390.843 593.92 390.686 594.548 390.686L593.92 389.586Z" fill="#066FD1"/>
    <path d="M515.205 258.395C514.734 261.695 514.106 266.408 513.006 272.379C512.849 273.636 512.534 274.735 512.534 275.207C511.277 281.648 509.078 287.776 506.25 293.746L504.364 297.046C502.008 300.974 486.139 304.587 472.942 301.916C459.744 299.245 456.13 285.891 462.415 280.863C464.614 278.82 466.5 276.307 467.757 273.636C469.642 270.022 471.37 266.408 472.784 262.638C473.57 260.438 474.041 259.024 474.041 259.024L485.354 250.854L510.492 253.054C509.863 257.296 510.649 260.281 511.906 260.595C513.163 260.909 514.891 258.867 515.205 258.395Z" fill="#FFCB9D"/>
    <path d="M515.205 258.395C514.734 261.695 514.106 266.408 513.006 272.379C512.849 273.636 512.534 274.735 512.534 275.207C511.278 281.648 509.078 287.776 506.25 293.746C504.679 293.118 503.265 292.175 502.008 290.918C500.594 289.504 499.651 287.933 498.866 286.205C498.08 284.319 497.766 282.434 497.609 280.392C497.451 279.135 497.452 277.878 497.452 276.464C487.553 278.82 477.027 277.721 467.757 273.478C469.642 269.865 471.37 266.251 472.785 262.48C473.57 260.281 474.041 258.867 474.041 258.867L485.354 250.697L510.492 252.896C509.864 257.139 510.649 260.124 511.906 260.438C513.163 260.752 514.891 258.867 515.205 258.395Z" fill="black" opacity="0.1"/>
    <path d="M524.161 253.525C524.161 248.811 520.391 244.884 515.677 244.726C515.992 243.627 516.149 242.527 516.149 241.427C516.149 235.3 511.121 230.272 504.994 230.272C502.165 230.272 499.494 231.372 497.609 233.1C495.724 229.801 492.11 227.444 487.868 227.444C482.526 227.444 477.97 231.372 476.87 236.399C474.513 233.728 471.214 232 467.443 232C460.53 232 455.031 237.499 455.031 244.412C455.031 249.126 457.702 253.368 461.63 255.41V255.567C461.787 257.139 462.101 258.553 462.73 259.967V260.124C462.887 260.595 463.201 261.224 463.515 261.695C463.672 261.852 463.672 262.009 463.829 262.323C465.086 264.366 466.658 266.251 468.386 267.822C479.698 278.192 498.709 270.336 505.465 267.037V267.194C505.465 268.608 505.308 269.865 505.151 271.122C504.994 271.75 504.994 272.064 504.994 272.222C504.836 272.379 504.836 272.693 504.836 272.693C504.051 275.521 503.422 278.349 502.951 281.177C502.951 283.062 503.422 284.791 504.522 286.362C505.308 283.691 506.565 281.334 508.45 279.292L510.807 277.406C514.735 273.95 517.248 269.236 517.877 264.052C518.034 263.266 518.034 262.638 518.034 261.852C521.648 260.752 524.161 257.453 524.161 253.525ZM430.207 333.496L427.222 330.825C416.067 320.77 405.697 310.086 395.956 298.774C396.113 297.988 396.427 297.203 397.056 296.731C400.827 293.746 411.825 303.016 421.409 317.47C424.865 322.498 427.85 327.84 430.207 333.496Z" fill="#454C5E"/>
    <path d="M319.441 175.282C313.784 172.454 308.6 168.683 304.201 164.127C299.33 158.942 295.402 152.972 292.731 146.373C289.903 139.46 285.033 127.676 289.589 122.491C292.103 119.82 296.031 118.878 299.487 120.135C301.687 121.077 302.786 122.963 304.829 127.362C304.986 127.833 305.3 128.462 305.615 128.933C311.271 140.874 316.613 152.186 326.668 157.999C330.124 159.885 333.895 161.142 337.98 161.613C339.237 161.77 340.494 160.827 340.651 159.57C340.808 158.314 339.866 157.057 338.609 156.899C335.309 156.585 332.01 155.485 329.182 153.914C320.383 148.887 315.356 138.203 310.014 126.891C309.7 126.419 309.542 125.791 309.228 125.319C307.186 120.92 305.457 117.307 301.53 115.735C296.188 113.85 290.217 115.264 286.289 119.349C279.691 126.734 285.033 139.617 288.646 148.101C291.474 155.171 295.716 161.77 301.058 167.269C305.772 172.297 311.428 176.382 317.712 179.524C318.027 179.681 318.341 179.838 318.812 179.838C320.069 179.838 321.169 178.738 321.169 177.481C320.855 176.539 320.226 175.753 319.441 175.282Z" fill="#066FD1"/>
    <path d="M312.685 87.2978C295.716 81.4845 275.763 85.8837 264.136 97.9816C260.208 102.067 257.223 106.937 255.338 112.279C249.839 125.948 252.353 138.517 253.138 143.388C254.081 148.101 255.495 152.815 257.38 157.214C257.852 158.314 259.109 158.785 260.366 158.314C261.465 157.842 261.937 156.585 261.465 155.328C259.58 151.243 258.323 146.844 257.537 142.445C256.595 137.574 254.552 126.262 259.423 113.85C261.151 108.98 263.822 104.58 267.436 100.81C277.805 89.9687 295.873 86.0409 311.271 91.2256C327.925 96.8818 333.895 110.551 340.18 125.005C342.536 130.504 343.008 134.432 341.594 137.732C340.808 139.774 339.237 141.345 337.195 142.131C334.681 142.759 332.324 141.188 331.224 140.402C328.867 138.831 327.925 137.26 324.782 130.818C323.84 129.09 322.74 126.734 321.326 124.063C319.912 121.077 318.184 118.092 316.298 115.421C313.784 111.965 310.642 108.98 306.871 106.78C302.001 104.423 296.345 103.952 291.16 105.366C285.661 106.623 280.633 109.608 277.02 114.007C269.164 124.063 274.034 137.574 277.962 148.415V148.572C282.047 159.885 288.96 170.097 297.916 178.267C298.387 178.581 298.859 178.896 299.487 178.896C300.744 178.896 301.687 177.953 301.687 176.696C301.687 176.067 301.372 175.439 301.058 174.968C292.574 167.269 286.132 157.685 282.204 147.001V146.844C278.591 136.946 274.192 124.848 280.476 116.678C285.818 109.765 297.602 106.937 304.829 110.708C307.971 112.593 310.642 115.264 312.685 118.249C314.413 120.763 315.984 123.434 317.398 126.262C318.812 128.933 319.912 131.133 320.855 132.861C324.154 139.303 325.411 141.817 328.867 144.016C330.281 144.959 334.052 147.473 338.451 146.373C341.751 145.273 344.579 142.759 345.836 139.617C348.35 133.961 346.464 127.99 344.422 123.277C337.666 108.822 331.067 93.5824 312.685 87.2978Z" fill="#066FD1"/>
    <path d="M340.966 167.74C337.509 168.212 334.053 168.055 330.596 167.269C308.914 162.241 300.744 133.332 299.959 130.033C299.644 128.933 298.388 128.148 297.131 128.462C296.031 128.776 295.402 129.876 295.56 131.133C296.502 134.746 305.143 165.855 329.496 171.511C332.01 172.14 334.524 172.297 337.038 172.297C338.609 172.297 340.023 172.14 341.437 171.983C342.694 171.825 343.479 170.726 343.322 169.469C343.322 168.369 342.223 167.583 340.966 167.74ZM278.434 104.266C278.434 104.266 278.748 104.109 279.062 103.795C280.005 103.166 280.319 101.752 279.691 100.653C279.063 99.7098 277.648 99.3956 276.549 100.024L275.606 100.653C273.092 102.538 270.893 104.895 269.007 107.408C268.222 108.351 268.536 109.765 269.479 110.551C270.421 111.336 271.835 111.022 272.621 110.079C274.349 108.037 276.234 105.994 278.434 104.266ZM269.95 146.059C268.064 140.402 266.808 135.846 266.808 130.504C266.808 129.719 266.808 128.933 266.965 128.148C267.122 126.419 267.279 124.691 267.593 123.12C267.75 121.863 266.965 120.763 265.865 120.606C264.608 120.449 263.508 121.235 263.351 122.334C263.037 124.22 262.723 126.105 262.565 127.99C262.565 128.933 262.408 129.876 262.408 130.661C262.408 136.632 263.822 141.659 265.865 147.63C266.179 148.572 266.965 149.201 267.907 149.201C268.064 149.201 268.379 149.201 268.536 149.044C269.636 148.415 270.264 147.158 269.95 146.059ZM300.744 98.4529C301.687 98.61 302.63 98.7672 303.415 99.0814C306.872 100.024 310.171 101.752 312.999 104.109C313.942 104.895 315.356 104.738 316.142 103.795C316.927 102.852 316.77 101.438 315.827 100.653C312.528 97.9816 308.6 96.0962 304.515 94.9964C303.415 94.6822 302.473 94.5251 301.373 94.3679C300.116 94.0537 299.016 94.8393 298.702 96.0962C298.388 97.3531 299.173 98.4529 300.43 98.7671L300.744 98.4529ZM278.591 164.755C276.549 161.613 274.82 158.314 273.406 154.857C272.935 153.757 271.521 153.286 270.421 153.757C269.321 154.229 268.85 155.643 269.321 156.742C270.893 160.356 272.778 163.813 274.82 167.112C275.292 167.74 275.92 168.212 276.706 168.212C277.177 168.212 277.491 168.055 277.806 167.898C278.905 167.269 279.22 165.855 278.591 164.755C278.591 164.912 278.591 164.912 278.591 164.755ZM327.297 122.491C329.025 125.319 330.596 128.305 332.167 131.29C332.796 132.39 334.053 132.861 335.152 132.233C336.252 131.604 336.566 130.347 336.095 129.247C334.524 126.262 332.796 123.12 331.067 120.135C328.711 115.893 326.197 111.651 323.212 107.88C322.426 106.937 321.169 106.623 320.069 107.408C319.127 108.194 318.812 109.451 319.598 110.551C319.598 110.551 319.598 110.708 319.755 110.708C322.583 114.321 325.097 118.249 327.297 122.491ZM320.855 78.028H320.698C316.142 75.9855 311.271 74.4144 306.243 73.6288C304.986 73.4717 303.887 74.2573 303.729 75.5142C303.572 76.7711 304.358 77.8709 305.615 78.028C310.171 78.8136 314.728 80.2276 318.97 82.113L319.127 82.2701C319.441 82.4272 319.755 82.4272 320.069 82.4272C321.012 82.4272 321.798 81.9559 322.112 81.1703C322.426 79.9134 321.955 78.4994 320.855 78.028ZM280.948 74.4144C277.648 75.3571 274.349 76.4569 271.207 77.8709C270.107 78.3423 269.636 79.7563 270.107 80.8561C270.421 81.6417 271.207 82.113 272.149 82.113C272.464 82.113 272.778 82.113 273.092 81.9559C275.92 80.699 278.905 79.5992 282.048 78.8136C283.305 78.4994 283.933 77.2425 283.619 76.1427C283.305 74.8857 282.048 74.1002 280.948 74.4144ZM244.183 115.578C242.926 115.421 241.826 116.207 241.669 117.307C241.041 120.606 240.727 124.063 240.727 127.362C240.727 128.776 240.727 130.19 240.884 131.604C241.041 132.704 241.983 133.647 243.083 133.647H243.24C244.497 133.489 245.44 132.547 245.283 131.29C245.126 130.033 245.126 128.619 245.126 127.362C245.126 124.22 245.44 121.077 245.911 118.092C246.226 116.992 245.44 115.736 244.183 115.578ZM261.309 89.4974C262.251 88.5547 262.251 87.2978 261.309 86.3551C260.523 85.5695 259.266 85.4124 258.323 86.198L257.224 87.2978C251.567 92.9539 247.168 99.8669 244.34 107.566C243.869 108.665 244.497 109.922 245.597 110.394C245.911 110.551 246.068 110.551 246.383 110.551C247.325 110.551 248.111 109.922 248.425 109.137C250.939 102.224 255.024 95.782 260.209 90.5972L261.309 89.4974ZM347.093 101.752C342.694 94.5251 336.724 88.0834 329.81 83.2128C328.868 82.4272 327.454 82.7415 326.668 83.6842C325.883 84.6268 326.197 86.0409 327.14 86.8264C333.581 91.3828 339.08 97.3531 343.165 104.109C343.794 105.209 345.208 105.366 346.15 104.738C347.25 104.109 347.564 102.852 347.093 101.752Z" fill="#066FD1"/>
    <path d="M285.347 66.8729C299.959 64.5162 315.042 67.3442 327.925 74.8857C329.025 75.5142 330.282 75.0428 330.91 73.943C331.382 72.8432 331.067 71.5863 330.125 70.9579C316.299 62.945 300.273 59.9599 284.561 62.4737C276.706 63.7306 256.752 68.7583 242.926 86.5122C240.255 90.1258 237.898 93.8966 236.013 97.9816C235.542 99.0814 236.013 100.338 237.113 100.967C237.427 101.124 237.741 101.124 238.056 101.124C238.841 101.124 239.627 100.653 240.098 99.8669C241.826 96.0962 244.026 92.4826 246.54 89.3403C259.266 72.6861 277.963 67.9727 285.347 66.8729ZM309.071 56.1891C312.528 56.9747 315.984 57.9174 319.284 59.1743C319.598 59.3314 319.755 59.3314 320.069 59.3314C321.326 59.3314 322.269 58.3887 322.269 57.1318C322.269 56.1891 321.64 55.4035 320.855 55.0893C317.241 53.8324 313.628 52.7326 310.014 51.947C308.757 51.7899 307.657 52.5755 307.5 53.8324C307.343 54.7751 307.971 55.8749 309.071 56.1891ZM246.697 70.6436C247.325 70.6436 247.797 70.4865 248.111 70.1723C259.266 61.531 272.464 56.1891 286.447 54.7751C289.746 54.4608 293.046 54.3037 296.345 54.4608C297.602 54.4608 298.545 53.5182 298.545 52.2612C298.545 51.0043 297.602 50.0616 296.345 50.0616C292.888 49.9045 289.432 50.0616 285.818 50.3759C271.05 51.7899 256.909 57.446 245.126 66.7158C244.183 67.5014 244.026 68.9154 244.811 69.8581C245.44 70.3294 246.068 70.6436 246.697 70.6436Z" fill="#066FD1"/>
    <path d="M299.173 269.708H151.957C149.286 269.708 147.086 267.665 146.772 265.151L145.044 252.739C144.729 250.54 146.143 248.497 148.343 248.183H296.345C299.016 248.183 301.215 250.226 301.53 252.739L303.101 265.151C303.415 267.351 302.001 269.393 299.958 269.708C299.644 269.551 299.33 269.708 299.173 269.708Z" fill="#DADBE0"/>
    <path d="M283.933 310.557H156.199C153.842 310.557 151.8 308.672 151.329 306.315L150.386 299.559C150.072 297.517 151.329 295.789 153.371 295.317H281.891C284.247 295.317 286.29 297.203 286.761 299.559L287.704 306.315C288.018 308.358 286.761 310.086 284.719 310.557H283.933Z" fill="#066FD1"/>
    <path d="M314.255 411.739H276.391C273.877 411.739 271.835 410.011 271.206 407.654L263.665 374.503C263.036 371.675 264.764 368.847 267.75 368.219C268.064 368.061 268.535 368.061 268.849 368.061H306.871C309.385 368.061 311.427 369.79 312.056 372.146L319.597 405.455C320.226 408.283 318.34 411.111 315.512 411.739C315.041 411.582 314.727 411.739 314.255 411.739Z" fill="#DADBE0"/>
    <path d="M245.44 400.898C244.183 397.599 240.57 396.028 237.427 397.128C234.128 398.385 232.557 401.998 233.656 405.14C234.913 408.44 238.527 410.011 241.669 408.911H241.826C245.126 407.654 246.697 404.041 245.44 400.898ZM225.958 347.951L214.803 353.921L230.671 391.314L238.056 388.486C233.971 374.974 229.886 361.463 225.958 347.951ZM271.05 382.83C274.035 383.616 276.863 384.873 279.691 386.287C282.99 387.858 286.133 389.9 289.118 392.1C291.003 384.087 294.46 376.388 299.173 369.633C305.772 360.206 314.256 352.35 324.312 346.851C310.485 367.747 302.001 391.471 299.173 416.453C296.188 413.31 292.26 409.383 287.39 404.826C281.576 399.484 277.02 395.714 273.721 393.043C269.793 389.743 264.765 385.815 258.795 381.416C262.88 381.259 267.122 381.887 271.05 382.83Z" fill="#066FD1"/>
    <path d="M594.862 390.843C594.234 390.843 593.448 390.843 592.82 391C588.578 391.314 584.65 392.885 581.193 395.399C574.123 400.898 574.123 408.283 567.21 412.996C564.382 414.881 559.983 416.767 552.756 415.824L550.87 410.954C546.314 398.384 541.758 385.815 537.201 373.089C543.643 384.087 555.269 401.841 562.34 401.684C572.709 401.527 577.108 394.771 584.964 389.743C587.321 388.329 590.149 387.701 592.82 387.858L593.762 389.115L594.862 390.843ZM539.401 403.726C523.061 406.397 506.878 409.068 490.695 411.739C483.782 399.327 477.655 386.287 472.627 372.932C471.37 369.475 470.113 366.019 468.856 362.719C494.152 408.597 539.401 403.726 539.401 403.726Z" fill="black" opacity="0.1"/>
    <path d="M505.308 267.037C498.552 270.336 479.698 278.192 468.229 267.822C466.5 266.251 464.929 264.366 463.672 262.323C463.515 262.166 463.515 262.009 463.358 261.695C463.044 261.224 462.73 260.595 462.572 260.124V259.967C461.944 258.553 461.63 257.139 461.473 255.567C464.144 258.553 467.129 261.224 470.585 263.266C487.711 273.164 507.193 264.523 510.335 263.109L510.65 262.952C508.921 264.366 507.193 265.78 505.308 267.037Z" fill="black" opacity="0.5"/>
</svg>
