<svg xmlns="http://www.w3.org/2000/svg" width="800" height="600" fill="none" viewBox="0 0 800 600">
    <path d="M163 336.764C163 376.827 205.366 405.973 224.135 438.378C243.431 471.825 248.148 522.791 281.497 542.186C313.902 560.967 360.042 539.993 400.104 539.993C440.167 539.993 486.294 560.967 518.699 542.186C552.048 522.902 556.764 471.825 576.061 438.378C594.83 405.973 637.196 376.925 637.196 336.764C637.196 296.603 594.72 267.555 576.061 235.15C556.764 201.703 552.048 150.614 518.699 131.342C486.294 112.573 440.154 133.535 400.104 133.535C360.054 133.535 313.902 112.573 281.497 131.342C248.05 150.639 243.431 201.703 224.135 235.15C205.366 267.665 163 296.701 163 336.764Z" fill="black" opacity="0.07"/>
    <path d="M325.016 200.686C323.701 206.36 323.925 212.281 325.665 217.838H292.586C290.512 213.087 289.722 207.873 290.295 202.72C290.404 201.838 290.564 200.962 290.773 200.098C292.647 192.355 297.401 189.231 297.621 182.089C297.793 176.428 295.012 171.736 292.586 168.612H325.665L325.922 169.053C330.48 177.078 330.627 183.13 329.904 187.185C328.961 192.441 326.474 194.671 325.016 200.686Z" fill="#A6A9B3"/>
    <path d="M325.016 200.686C323.701 206.359 323.925 212.281 325.665 217.838H292.586C290.512 213.086 289.722 207.873 290.295 202.72C292.953 207.4 296.715 211.676 301.566 211.835C312.482 212.203 309.334 197.268 314.896 186.695C318.234 180.606 321.916 174.712 325.922 169.041C330.48 177.065 330.627 183.118 329.904 187.173C328.961 192.441 326.474 194.671 325.016 200.686Z" fill="black" opacity="0.1"/>
    <path d="M319.93 215.731C318.979 214.656 318.242 213.409 317.762 212.056C315.544 207.388 316.255 202.549 319.71 200.098C324.133 196.937 331.337 198.726 335.955 204.337C336.473 204.912 336.91 205.555 337.254 206.248C340.427 211.37 340.096 217.275 336.188 219.946C331.753 222.972 324.427 221.134 319.93 215.731Z" fill="#FFCB9D"/>
    <path d="M319.93 215.731C318.978 214.656 318.242 213.409 317.762 212.056C320.028 211.272 321.841 210.696 323.079 210.267C326.546 209.042 327.857 208.576 330.05 207.988C331.814 207.498 333.248 207.204 334.216 207.008L336.298 206.506L337.168 206.065C340.341 211.186 340.023 217.091 336.115 219.75C331.753 222.972 324.427 221.134 319.93 215.731Z" fill="black" opacity="0.1"/>
    <path d="M424.951 221.624C423.521 221.726 422.103 221.952 420.712 222.298C415.885 223.523 404.258 233.961 404.258 233.961C400.681 237.196 394.665 240.871 383.921 242.096C375.954 242.272 368.143 239.875 361.647 235.26C346.247 224.038 346.504 204.729 346.566 202.843C331.979 210.865 318.936 221.419 308.047 234.01C319.594 249.33 335 261.312 352.691 268.731C364.612 273.632 381.581 280.579 401.391 274.698C412.187 271.344 421.835 265.048 429.251 256.517C431.052 270.851 432.841 285.148 434.507 299.483C436.222 312.776 437.791 326.093 439.481 339.239L507.477 336.727C508.347 323.324 509.082 309.921 509.928 296.677C510.418 289.069 510.908 281.608 511.373 273.987L514.792 218.255L424.951 221.624Z" fill="#066FD1"/>
    <path d="M242.867 515.134C242.867 517.928 319.929 520.268 414.928 520.268C509.926 520.268 587.013 517.928 587.013 515.134C587.013 512.341 509.963 510.111 414.965 510.111C319.966 510.111 242.904 512.451 242.904 515.134" fill="#1D2535" opacity="0.5"/>
    <path d="M275.823 118.932C275.172 118.928 274.541 118.703 274.033 118.295C273.526 117.886 273.173 117.317 273.03 116.681C272.888 116.046 272.966 115.38 273.25 114.794C273.535 114.208 274.01 113.736 274.598 113.455C279.319 111.053 284.165 108.906 289.116 107.023C289.831 106.752 290.624 106.776 291.322 107.089C292.019 107.403 292.563 107.981 292.834 108.696C293.106 109.41 293.082 110.204 292.768 110.901C292.455 111.598 291.877 112.143 291.162 112.414C286.405 114.23 281.747 116.295 277.207 118.601C276.781 118.825 276.305 118.939 275.823 118.932Z" fill="#066FD1"/>
    <path d="M211.221 258.023C210.607 258.021 210.009 257.825 209.514 257.461C209.019 257.098 208.651 256.587 208.465 256.002C205.601 246.907 203.885 237.491 203.356 227.97C203.344 227.223 203.623 226.499 204.134 225.953C204.644 225.406 205.347 225.079 206.094 225.039C206.84 224.999 207.574 225.251 208.139 225.74C208.705 226.23 209.058 226.919 209.126 227.664C209.634 236.705 211.281 245.646 214.027 254.274C214.147 254.64 214.192 255.026 214.161 255.41C214.13 255.794 214.023 256.168 213.847 256.51C213.67 256.852 213.427 257.155 213.132 257.402C212.837 257.65 212.496 257.836 212.128 257.95C211.831 258.021 211.525 258.046 211.221 258.023ZM208.44 202.99C208.238 202.988 208.036 202.964 207.84 202.916C207.469 202.839 207.117 202.689 206.804 202.475C206.492 202.261 206.224 201.987 206.018 201.669C205.812 201.352 205.671 200.996 205.603 200.623C205.535 200.251 205.542 199.868 205.622 199.498C207.604 190.159 210.744 181.105 214.97 172.544C215.138 172.205 215.37 171.902 215.655 171.652C215.939 171.403 216.27 171.211 216.628 171.09C216.987 170.968 217.366 170.918 217.743 170.943C218.121 170.967 218.49 171.066 218.83 171.234C219.169 171.401 219.472 171.633 219.722 171.918C219.971 172.202 220.162 172.533 220.284 172.892C220.406 173.25 220.456 173.629 220.431 174.007C220.407 174.384 220.308 174.753 220.14 175.093C216.131 183.21 213.147 191.795 211.258 200.649C211.133 201.306 210.783 201.898 210.269 202.325C209.755 202.752 209.108 202.987 208.44 202.99ZM232.637 153.42C231.969 153.418 231.321 153.189 230.799 152.77C230.208 152.283 229.835 151.58 229.762 150.818C229.688 150.055 229.92 149.295 230.407 148.703C236.436 141.37 243.229 134.7 250.671 128.806C250.967 128.571 251.307 128.396 251.671 128.291C252.034 128.187 252.415 128.155 252.791 128.198C253.167 128.24 253.531 128.357 253.862 128.54C254.193 128.723 254.485 128.97 254.72 129.266C254.956 129.562 255.131 129.901 255.236 130.265C255.34 130.629 255.372 131.01 255.329 131.386C255.287 131.762 255.17 132.126 254.987 132.457C254.804 132.788 254.557 133.079 254.261 133.315C247.138 138.959 240.637 145.345 234.867 152.366C234.594 152.7 234.25 152.968 233.86 153.15C233.47 153.333 233.043 153.425 232.612 153.42H232.637Z" fill="#066FD1"/>
    <path d="M231.146 296.371C230.7 296.372 230.26 296.27 229.86 296.072C229.46 295.874 229.112 295.587 228.842 295.231C225.635 290.998 222.685 286.575 220.009 281.987C219.624 281.326 219.517 280.539 219.713 279.799C219.908 279.059 220.389 278.427 221.05 278.042C221.712 277.657 222.499 277.551 223.239 277.746C223.978 277.941 224.61 278.422 224.995 279.084C227.548 283.471 230.367 287.697 233.437 291.74C233.898 292.349 234.099 293.117 233.996 293.875C233.893 294.633 233.493 295.319 232.885 295.783C232.384 296.161 231.774 296.367 231.146 296.371Z" fill="#066FD1"/>
    <path d="M535.557 136.415C535.088 136.413 534.626 136.3 534.209 136.084C529.707 133.715 525.077 131.596 520.341 129.737C519.629 129.458 519.058 128.907 518.752 128.207C518.446 127.506 518.432 126.712 518.711 126.001C518.991 125.289 519.541 124.718 520.242 124.412C520.943 124.107 521.736 124.092 522.448 124.371C527.381 126.303 532.204 128.508 536.892 130.975C537.458 131.278 537.907 131.761 538.168 132.347C538.429 132.933 538.488 133.59 538.335 134.213C538.182 134.836 537.826 135.391 537.323 135.789C536.82 136.188 536.199 136.408 535.557 136.415Z" fill="#066FD1"/>
    <path d="M605.231 257.007C605.089 257.019 604.945 257.019 604.803 257.007C604.426 256.954 604.064 256.828 603.737 256.634C603.41 256.441 603.124 256.185 602.896 255.881C602.669 255.577 602.503 255.231 602.41 254.863C602.316 254.494 602.297 254.111 602.352 253.735C602.922 249.841 603.209 245.91 603.21 241.974C603.169 234.006 602.09 226.078 600 218.39C599.903 218.024 599.878 217.642 599.928 217.267C599.979 216.891 600.102 216.529 600.292 216.202C600.482 215.874 600.735 215.587 601.036 215.357C601.337 215.127 601.68 214.959 602.046 214.861C602.412 214.764 602.794 214.74 603.169 214.79C603.544 214.84 603.906 214.964 604.234 215.154C604.562 215.343 604.849 215.596 605.079 215.897C605.309 216.198 605.477 216.541 605.574 216.907C607.817 225.064 608.991 233.478 609.066 241.937C609.065 246.157 608.754 250.37 608.135 254.544C608.036 255.239 607.686 255.873 607.151 256.327C606.616 256.781 605.933 257.023 605.231 257.007ZM588.079 186.83C587.586 186.829 587.102 186.701 586.672 186.459C586.243 186.216 585.884 185.867 585.629 185.445C580.122 176.303 573.654 167.777 566.333 160.011C565.438 159.08 564.458 158.1 563.38 157.059C562.829 156.529 562.512 155.802 562.497 155.038C562.482 154.274 562.771 153.536 563.301 152.985C563.83 152.434 564.557 152.116 565.321 152.101C566.085 152.086 566.823 152.376 567.374 152.905C568.501 153.983 569.53 155.025 570.474 155.993C578.087 164.073 584.815 172.945 590.542 182.456C590.81 182.892 590.956 183.392 590.967 183.903C590.978 184.415 590.852 184.92 590.602 185.367C590.352 185.814 589.988 186.186 589.547 186.445C589.106 186.705 588.603 186.841 588.091 186.842L588.079 186.83Z" fill="#066FD1"/>
    <path d="M582.382 303.256C581.81 303.268 581.247 303.108 580.765 302.798C580.284 302.488 579.906 302.041 579.679 301.515C579.453 300.989 579.389 300.407 579.495 299.844C579.601 299.282 579.873 298.763 580.275 298.355C583.708 294.672 586.835 290.714 589.623 286.52C589.826 286.194 590.093 285.912 590.407 285.69C590.721 285.469 591.077 285.312 591.453 285.23C591.828 285.149 592.217 285.143 592.594 285.213C592.972 285.284 593.333 285.429 593.653 285.641C593.974 285.853 594.249 286.127 594.462 286.447C594.676 286.767 594.822 287.127 594.894 287.505C594.966 287.882 594.962 288.271 594.881 288.647C594.801 289.023 594.646 289.379 594.425 289.694C591.47 294.158 588.151 298.371 584.502 302.288C584.234 302.587 583.908 302.827 583.543 302.994C583.178 303.161 582.783 303.25 582.382 303.256Z" fill="#066FD1"/>
    <path d="M322.709 147.429C323.834 145.722 325.061 144.086 326.385 142.528C327.451 141.07 328.602 139.698 329.778 138.387C330.333 135.093 331.203 131.86 332.376 128.733C334.015 119.906 337.977 111.677 343.855 104.891C348.989 97.8125 355.852 92.1685 363.789 88.4988C371.056 83.491 379.499 80.4557 388.292 79.69C391.64 79.2782 395.014 79.1022 398.387 79.1631C399.309 77.5316 400.315 75.949 401.401 74.4218L391.955 73.0251C390.115 72.7366 388.403 71.9066 387.037 70.641C385.671 69.3754 384.713 67.7316 384.285 65.9192L383.514 62.6481C383.088 60.8335 382.131 59.187 380.765 57.9191C379.399 56.6511 377.685 55.8193 375.844 55.5299L341.442 50.1148C338.984 49.7269 336.472 50.3311 334.46 51.7946C332.447 53.2581 331.098 55.4611 330.709 57.919L327.365 79.1509L318.115 137.836C317.818 139.712 318.099 141.634 318.919 143.347C319.74 145.06 321.062 146.484 322.709 147.429Z" fill="#A6A9B3"/>
    <path d="M491.451 98.1653L482.875 120.01L466.789 161.236C465.742 163.7 463.926 165.759 461.611 167.104C459.296 168.449 456.608 169.008 453.949 168.697L324.181 148.299C319.023 147.49 316.401 142.822 318.337 137.885L324.904 121.076L340.487 81.2336L342.203 76.8721C343.492 73.8267 345.734 71.2815 348.592 69.6181C351.451 67.9548 354.771 67.2631 358.056 67.6467L409.17 75.6959L448.571 81.9075L485.631 87.727C490.789 88.5601 493.411 93.2279 491.451 98.1653Z" fill="#DADBE0"/>
    <path d="M482.875 120.01L466.789 161.236C465.742 163.7 463.926 165.759 461.611 167.104C459.296 168.449 456.608 169.008 453.949 168.697L324.181 148.299C319.023 147.49 316.401 142.822 318.337 137.885L324.904 121.076C348.304 131.073 383.368 142.197 401.402 128.855C420.024 115.085 458.433 117.008 482.875 120.01Z" fill="black" opacity="0.1"/>
    <path d="M423.983 515.195L449.711 513.615C449.711 513.615 450.936 506.987 447.15 504.512C443.365 502.037 428.503 509.192 423.934 515.195" fill="#454C5E"/>
    <path d="M479.127 515.195L504.855 513.615C504.855 513.615 506.081 506.987 502.295 504.512C498.509 502.037 483.648 509.192 479.078 515.195" fill="#454C5E"/>
    <path d="M437.301 494.368L448.033 495.189L468.947 378.799C476.126 418.322 483.314 457.838 490.509 497.345L501.033 494.895C503.181 442.188 505.329 389.47 507.478 336.74L461.718 338.43L439.494 339.251C438.751 390.969 438.02 442.674 437.301 494.368Z" fill="#DADBE0"/>
    <path d="M437.301 494.368L448.033 495.189L468.947 378.799L461.718 338.455L439.494 339.275C438.751 390.977 438.02 442.674 437.301 494.368Z" fill="black" opacity="0.1"/>
    <path d="M476.186 146.535C477.08 150.075 478.342 155.405 479.775 161.788C480.069 163.282 480.266 164.483 480.4 164.924C481.641 172.086 482.003 179.372 481.478 186.622C481.295 188.116 481.209 189.403 481.013 190.873C480.376 194.548 471.898 201.201 461.619 205.575C458.085 207.103 454.384 208.209 450.592 208.87C438.745 211.125 430.439 203.467 429.899 196.337C429.75 194.633 430.122 192.924 430.965 191.436C432.394 188.388 433.297 185.12 433.636 181.77C434.228 177.304 434.416 172.793 434.2 168.293C434.233 166.878 434.179 165.463 434.04 164.054L442.347 150.97L469.3 142.933C470.366 147.527 472.523 150.357 474.017 150.284C475.512 150.21 476.063 147.221 476.186 146.535Z" fill="#FFCB9D"/>
    <path d="M476.185 146.534C477.079 150.075 478.341 155.405 479.775 161.788C480.069 163.282 480.265 164.483 480.4 164.924C481.64 172.086 482.002 179.372 481.478 186.622C479.562 186.547 477.674 186.132 475.903 185.396C473.981 184.547 472.229 183.356 470.733 181.88C469.209 180.26 467.934 178.422 466.947 176.428C466.274 175.203 465.722 173.782 465.159 172.52C455.875 179.074 444.652 182.303 433.305 181.684C433.903 177.219 434.092 172.707 433.868 168.207C433.905 166.801 433.856 165.393 433.721 163.993L442.052 150.921L469.006 142.884C470.059 147.49 472.216 150.308 473.722 150.234C475.229 150.161 476.026 147.331 476.173 146.682" fill="black" opacity="0.1"/>
    <path d="M481.269 151.362C482.816 157.01 482.177 163.034 479.48 168.232C478.819 169.2 478.255 170.168 477.802 171.099C476.641 173.924 476.194 176.991 476.503 180.03C474.791 178.953 473.476 177.349 472.754 175.46C471.737 172.581 471.419 166.676 471.198 165.941L471.063 165.5C470.939 165.059 470.857 164.608 470.818 164.152C470.526 162.656 470.091 161.191 469.52 159.778L469.434 159.668C463.847 165.929 447.381 181.782 431.454 175.779C428.979 174.808 426.63 173.541 424.458 172.005C424.228 171.894 424.02 171.74 423.846 171.552C423.309 171.166 422.808 170.731 422.351 170.253L422.167 170.155C420.88 168.973 419.814 167.571 419.019 166.014L418.676 165.5C418.319 164.822 418.098 164.081 418.026 163.319C417.537 160.42 418.107 157.441 419.631 154.927C422.29 150.026 427.166 146.179 429.886 144.109C439.981 136.023 456.986 129.848 470.01 137.284C475.235 140.647 479.189 145.657 481.244 151.521" fill="#454C5E"/>
    <path d="M469.473 159.644C463.886 165.904 447.42 181.758 431.493 175.755C429.017 174.784 426.668 173.517 424.497 171.981C424.268 171.867 424.061 171.713 423.885 171.528C423.35 171.139 422.85 170.704 422.39 170.229C422.387 170.212 422.381 170.195 422.371 170.18C422.361 170.165 422.348 170.153 422.333 170.143C422.318 170.134 422.301 170.128 422.283 170.126C422.266 170.124 422.248 170.126 422.231 170.131C420.936 168.956 419.868 167.552 419.082 165.99C423.057 168.029 427.328 169.43 431.738 170.143C453.472 173.488 470.171 156.336 472.842 153.592L473.124 153.396C472.009 155.466 470.673 157.61 469.448 159.693" fill="black" opacity="0.5"/>
    <path d="M479.198 217.777C475.552 221.86 470.72 224.701 465.378 225.9L464.631 226.071L451.02 220.509L479.198 217.777Z" fill="#FFCB9D"/>
    <path d="M479.198 217.777C475.552 221.86 470.72 224.701 465.378 225.9L464.631 226.071L451.02 220.509L479.198 217.777Z" fill="black" opacity="0.1"/>
    <path d="M464.608 226.071L447.639 214.861L443.988 218.941L455.835 235.358L464.608 226.071Z" fill="#DADBE0"/>
    <path d="M465.367 226.059L489.968 209.336L495.788 214.445L479.616 237.22L465.367 226.059Z" fill="#DADBE0"/>
    <path d="M464.608 226.071L447.639 214.861L443.988 218.941L455.835 235.358L464.608 226.071Z" fill="black" opacity="0.11"/>
    <path d="M474.407 240.406C470.817 262.458 467.228 284.425 463.785 306.429C461.604 284.487 459.289 262.544 456.961 240.749C459.656 235.787 462.205 230.947 464.973 226.047L465.733 226.169C468.441 230.972 471.344 235.689 474.407 240.406Z" fill="#DADBE0"/>
    <path d="M464.756 226.083L463.641 306.49C461.448 284.536 459.132 262.581 456.805 240.798C459.5 235.848 462.048 230.874 464.756 226.083Z" fill="black" opacity="0.11"/>
    <path d="M507.476 336.764L439.492 339.276C473.355 320.093 498.864 288.993 511.053 252.032C511.298 257.382 511.539 262.736 511.776 268.094L507.476 336.764Z" fill="black" opacity="0.1"/>
    <path d="M536.342 355.815C536.252 357.244 536.443 358.676 536.906 360.03C538.057 365.065 541.635 368.422 545.849 368.202C551.289 367.932 555.822 362.076 555.969 354.798C556.01 354.026 555.952 353.252 555.798 352.495C555.099 346.516 551.216 342.118 546.462 342.412C541.157 342.755 536.55 348.758 536.342 355.815Z" fill="#FFCB9D"/>
    <path d="M536.342 355.815C536.252 357.243 536.443 358.675 536.906 360.03C539.16 359.246 540.949 358.572 542.186 358.143C545.653 356.918 546.989 356.489 549.072 355.595C550.75 354.884 552.061 354.235 552.931 353.781L554.879 352.887L555.847 352.691C555.148 346.7 551.265 342.314 546.523 342.608C541.157 342.755 536.55 348.758 536.342 355.815Z" fill="black" opacity="0.1"/>
    <path d="M514.802 218.292C515.683 218.396 516.55 218.598 517.387 218.892C528.413 222.751 530.79 242.305 531.66 248.406C534.319 267.016 543.042 299.519 558.221 348.293L521.467 360.655L505.074 266.22L514.802 218.292Z" fill="#066FD1"/>
    <path d="M266.022 405.042C264.454 395.989 265.343 386.681 268.595 378.089C270.224 369.265 274.183 361.038 280.062 354.259C285.195 347.177 292.058 341.529 299.995 337.854C303.02 335.779 306.261 334.037 309.662 332.66C310.21 329.355 311.084 326.113 312.271 322.981C312.646 320.998 313.137 319.038 313.742 317.113L310.372 317.382C308.515 317.528 306.656 317.119 305.031 316.208C303.406 315.296 302.088 313.922 301.245 312.261L299.738 309.259C298.899 307.597 297.584 306.222 295.961 305.31C294.337 304.398 292.479 303.99 290.623 304.138L255.89 306.919C253.417 307.129 251.127 308.308 249.52 310.199C247.914 312.09 247.12 314.54 247.314 317.015L249.041 338.504L253.77 397.691C253.98 400.164 255.158 402.454 257.05 404.06C258.941 405.667 261.391 406.46 263.866 406.267L266.255 406.071L266.022 405.042Z" fill="#454C5E"/>
    <path d="M413.043 318.583L408.62 350.718L403.805 385.721C403.367 388.363 402.084 390.791 400.149 392.642C398.214 394.492 395.731 395.667 393.073 395.988L262.129 406.475C261.131 406.611 260.117 406.537 259.15 406.257C258.183 405.977 257.285 405.498 256.515 404.851C255.744 404.204 255.117 403.402 254.674 402.498C254.232 401.594 253.983 400.608 253.945 399.602C253.878 398.975 253.878 398.342 253.945 397.715L262.349 337.45L262.986 332.807C263.527 329.544 265.111 326.544 267.501 324.258C269.891 321.971 272.959 320.522 276.242 320.126L327.821 315.998L367.553 312.812L404.969 309.823C410.152 309.406 413.79 313.327 413.043 318.583Z" fill="#A6A9B3"/>
    <path d="M408.644 350.719L403.83 385.721C403.391 388.363 402.108 390.791 400.173 392.642C398.238 394.492 395.755 395.667 393.097 395.988L262.153 406.475C261.155 406.611 260.141 406.537 259.174 406.257C258.207 405.977 257.31 405.498 256.539 404.851C255.768 404.204 255.141 403.402 254.699 402.498C254.256 401.594 254.007 400.608 253.969 399.602C334.89 382.34 383.014 363.264 408.644 350.719Z" fill="black" opacity="0.1"/>
    <path d="M430.464 255.144C422.893 264.37 412.793 271.183 401.403 274.747C381.592 280.627 364.648 273.669 352.703 268.78C335.012 261.36 319.606 249.379 308.059 234.059C377.415 286.716 430.464 255.144 430.464 255.144Z" fill="black" opacity="0.1"/>
</svg>
