<svg xmlns="http://www.w3.org/2000/svg" width="800" height="600" fill="none" viewBox="0 0 800 600">
    <path d="M681.229 307.822C681.229 353.361 633.11 386.45 611.798 423.241C589.926 461.266 584.542 519.143 546.629 541.128C509.839 562.44 457.457 538.66 411.917 538.66C366.378 538.66 313.996 562.44 277.205 541.128C239.293 519.256 233.909 461.266 212.037 423.241C190.725 386.45 142.605 353.474 142.605 307.822C142.605 262.17 190.837 229.193 212.037 192.402C233.909 154.378 239.293 96.5 277.205 74.5154C313.996 53.2038 366.378 76.9831 411.917 76.9831C457.457 76.9831 509.839 53.2038 546.629 74.5154C584.654 96.3879 589.813 154.378 611.798 192.402C633.11 229.305 681.229 262.394 681.229 307.822Z" fill="black" opacity="0.07"/>
    <path d="M691.099 475.959C691.099 478.203 559.191 479.997 396.549 479.997C233.908 479.997 102 478.203 102 475.959C102 473.716 233.908 472.034 396.549 472.034C559.191 472.034 691.099 473.94 691.099 475.959Z" fill="#1D2535" opacity="0.5"/>
    <path d="M368.845 151.013C368.845 162.117 359.984 204.516 358.862 210.012C358.526 211.471 355.385 214.611 350.898 218.313C339.345 227.959 319.38 241.756 319.38 241.756L317.473 218.874C323.305 212.592 328.801 206.087 333.961 199.245C337.438 194.421 340.355 189.71 341.028 186.57C343.047 177.148 341.588 136.095 351.347 132.281C361.105 128.467 368.845 139.908 368.845 151.013Z" fill="#FFCB9D"/>
    <path d="M350.898 218.313C339.345 227.959 319.38 241.756 319.38 241.756L317.473 218.874C323.305 212.592 328.801 206.087 333.961 199.245C335.868 207.208 340.355 216.967 350.898 218.313Z" fill="black" opacity="0.1"/>
    <path d="M223.924 241.531C221.344 244.672 194.425 232.558 178.946 209.9C178.833 209.788 178.833 209.676 178.721 209.676C175.805 205.414 173.113 195.992 167.729 177.372C161.784 156.621 161.896 150.677 165.261 146.526C168.178 142.825 174.347 139.684 179.394 141.479C189.938 145.18 185.003 166.941 196.78 190.72C200.257 197.562 204.632 203.956 209.903 209.564C212.595 212.48 215.624 215.172 218.765 217.752C219.774 223.809 220.896 229.978 221.905 236.035C224.373 239.625 224.373 240.971 223.924 241.531Z" fill="#FFCB9D"/>
    <path d="M223.926 241.531C221.346 244.672 194.426 232.558 178.947 209.9C189.715 214.387 203.175 217.528 209.905 209.34C212.597 212.256 215.626 214.948 218.766 217.528C219.776 223.585 220.898 229.754 221.907 235.811C224.375 239.625 224.375 240.971 223.926 241.531Z" fill="black" opacity="0.1"/>
    <path d="M230.094 209.788C227.402 225.043 224.71 240.185 222.018 255.44C223.924 259.59 226.504 263.292 229.757 266.544C244.675 281.799 267.221 279.556 271.259 279.107C268.679 253.421 265.987 227.847 263.407 202.161L230.094 209.788Z" fill="#A6A9B3"/>
    <path d="M253.089 218.986C250.509 232.782 247.93 246.691 245.35 260.487C237.274 257.123 229.198 253.87 221.122 250.617L204.297 243.775L214.616 208.218L227.067 211.695C235.704 214.163 244.452 216.63 253.089 218.986Z" fill="#DADBE0"/>
    <path d="M301.77 323.862L301.658 328.348C300.985 366.934 300.312 405.407 299.751 443.992L299.526 458.125H290.665C289.207 452.853 287.861 447.581 286.515 442.197C283.935 431.878 281.355 421.334 278.888 410.566C275.186 394.19 271.933 378.374 269.241 362.896L250.398 438.496L245.462 458.237H236.489C236.489 450.385 236.489 442.422 236.489 434.57L236.265 380.393C236.265 362.559 236.265 344.725 236.152 327.002L277.205 325.095L282.253 324.871L301.77 323.862Z" fill="#066FD1"/>
    <path d="M253.987 476.072L232.115 473.043C232.115 473.043 231.442 467.323 235.031 465.304C238.62 463.285 250.51 470.688 253.987 476.072Z" fill="#454C5E"/>
    <path d="M310.294 476.072L288.421 473.043C288.421 473.043 287.748 467.323 291.337 465.304C294.927 463.285 306.816 470.688 310.294 476.072Z" fill="#454C5E"/>
    <path d="M269.241 362.783L250.397 438.384C245.686 437.374 240.975 436.028 236.376 434.346L236.264 380.281C246.583 373.215 257.687 367.27 269.241 362.783Z" fill="black" opacity="0.1"/>
    <path d="M301.77 328.348C301.097 366.934 300.424 405.407 299.863 443.992L286.627 442.197C284.047 431.878 281.468 421.334 279 410.566C275.298 394.19 272.046 378.374 269.354 362.896L277.43 324.983L277.654 323.862L282.365 324.759L301.77 328.348Z" fill="black" opacity="0.1"/>
    <path d="M647.018 193.3C646.121 193.3 645.336 192.627 645.336 191.617C645.336 190.608 646.009 189.935 647.018 189.935L679.098 187.804C679.995 187.691 680.781 188.477 680.893 189.374C681.005 190.271 680.22 191.056 679.322 191.169L647.243 193.3H647.018Z" fill="#066FD1"/>
    <path d="M669.788 217.752C669.676 217.752 669.564 217.752 669.339 217.752L646.794 212.032C645.896 211.919 645.223 211.022 645.448 210.125C645.672 209.227 646.457 208.554 647.355 208.779C647.467 208.779 647.579 208.779 647.579 208.891L670.124 214.611C671.022 214.836 671.583 215.733 671.358 216.63C671.246 217.303 670.573 217.752 669.788 217.752Z" fill="#066FD1"/>
    <path d="M253.089 218.986C250.509 232.782 247.929 246.691 245.349 260.488C237.273 257.123 229.197 253.87 221.121 250.617C238.731 240.522 229.534 217.191 227.066 211.695C235.703 214.163 244.452 216.63 253.089 218.986Z" fill="black" opacity="0.1"/>
    <path d="M303.564 135.198C293.02 132.73 281.916 133.627 271.933 137.89C251.967 146.526 242.994 167.838 236.264 188.252C233.909 195.655 231.777 202.834 230.095 209.788C230.768 209.676 231.329 209.564 232.002 209.564C240.751 209.564 247.817 221.117 247.817 235.362C247.817 249.607 240.751 261.161 232.002 261.161C228.188 261.161 224.711 258.917 222.019 255.328C219.888 274.06 218.766 292.567 217.196 311.86C216.747 317.468 216.298 323.189 215.738 329.021C210.802 380.394 207.998 424.251 207.998 424.251C207.998 424.251 237.834 405.743 257.463 415.838C277.093 425.933 326.67 424.251 326.67 424.251C328.914 397.892 331.606 363.569 333.064 327.787C336.765 240.185 333.849 143.947 303.564 135.198ZM301.994 178.942C306.032 178.942 309.284 182.195 309.284 186.233C309.284 190.271 306.032 193.524 301.994 193.524C297.956 193.524 294.703 190.271 294.703 186.233C294.703 182.307 297.956 179.055 301.994 178.942ZM282.477 179.279C286.515 179.279 289.767 182.532 289.767 186.57C289.767 190.608 286.515 193.861 282.477 193.861C278.439 193.861 275.186 190.608 275.186 186.57C275.186 182.644 278.439 179.391 282.477 179.279Z" fill="#DADBE0"/>
    <path d="M333.175 327.787C331.717 363.568 329.025 397.779 326.782 424.251C326.782 424.251 277.204 425.821 257.575 415.838C237.946 405.855 208.109 424.251 208.109 424.251C208.109 424.251 210.914 380.506 215.849 329.021C216.41 323.188 216.858 317.468 217.307 311.86C224.71 336.312 238.282 361.325 262.174 357.736C307.377 350.894 271.371 262.731 307.04 287.071C317.247 294.137 325.996 309.504 333.175 327.787Z" fill="black" opacity="0.1"/>
    <path d="M681.901 269.685C682.911 269.349 684.033 268.9 685.042 268.339C685.603 268.003 686.052 267.666 686.612 267.217C691.099 263.404 692.445 257.459 689.417 253.982C686.725 250.841 681.565 250.729 677.303 253.421C676.742 253.757 676.293 254.094 675.844 254.43L674.611 255.664C671.246 259.478 670.348 264.525 673.04 267.778C674.947 270.134 678.424 270.695 681.901 269.685Z" fill="#FFCB9D"/>
    <path d="M681.901 269.685C682.91 269.349 684.032 268.9 685.041 268.339C682.125 263.516 679.545 258.581 677.414 253.309C676.853 253.645 676.404 253.982 675.956 254.318L674.722 255.552C671.357 259.366 670.46 264.413 673.152 267.666C674.946 270.134 678.423 270.695 681.901 269.685Z" fill="black" opacity="0.1"/>
    <path d="M525.43 150.452C525.991 149.443 526.664 148.545 527.337 147.648C527.786 147.199 528.234 146.751 528.795 146.302C533.282 142.488 539.451 142.376 542.367 145.853C544.947 149.106 544.162 154.154 540.797 157.855C540.461 158.304 540.012 158.753 539.451 159.089L537.993 160.099C533.618 162.791 528.459 162.678 525.879 159.426C523.636 157.294 523.748 153.705 525.43 150.452Z" fill="#FFCB9D"/>
    <path d="M525.429 150.452C525.99 149.443 526.663 148.545 527.336 147.648C531.486 151.462 535.973 154.827 540.684 157.855C540.347 158.304 539.899 158.752 539.338 159.089L537.88 160.098C533.505 162.79 528.345 162.678 525.766 159.425C523.634 157.294 523.747 153.705 525.429 150.452Z" fill="black" opacity="0.1"/>
    <path d="M542.254 355.38C542.029 371.869 541.917 388.47 541.693 404.958C541.581 421.446 541.469 438.047 541.356 454.536L532.72 456.779L500.191 362.447L457.232 358.409L416.627 402.939L413.599 399.686L410.57 396.433C419.768 375.458 428.966 354.483 438.163 333.508L498.172 319.038C501.874 321.282 505.463 323.525 509.165 325.656C514.885 330.367 520.606 335.078 526.326 339.789C529.018 342.033 531.822 344.276 534.514 346.407C535.748 347.865 536.982 349.436 538.328 351.006C539.674 352.464 541.02 353.922 542.254 355.38Z" fill="#DADBE0"/>
    <path d="M530.365 477.53L547.975 472.706C547.975 472.706 547.975 467.883 544.835 466.762C541.694 465.64 532.609 472.706 530.365 477.53Z" fill="#454C5E"/>
    <path d="M394.193 402.266L406.868 415.277C406.868 415.277 411.131 412.922 410.57 409.669C410.009 406.416 399.353 401.93 394.193 402.266Z" fill="#454C5E"/>
    <path d="M607.648 205.975C606.639 208.554 605.18 212.368 603.274 216.855L602.264 219.098C599.909 224.033 596.992 228.744 593.515 233.007L591.496 235.362C588.916 238.054 575.232 237.942 565.025 233.231C554.818 228.52 554.481 216.967 560.538 214.051C562.669 212.817 564.576 211.134 566.259 209.227V209.115C567.493 207.769 568.726 206.311 569.736 204.853C570.633 203.619 571.53 202.385 572.316 201.151C573.437 199.469 573.998 198.459 573.998 198.459L584.654 194.197L604.62 200.927L604.507 201.151C603.386 203.956 603.386 206.311 604.059 207.096C604.171 207.208 604.283 207.321 604.395 207.321C605.068 207.657 606.302 206.872 606.975 206.423L607.312 206.087L607.648 205.975Z" fill="#FFCB9D"/>
    <path d="M607.535 205.975V206.087C606.638 208.667 605.067 212.48 603.273 216.855L602.263 219.098C599.908 224.033 596.991 228.744 593.514 233.007C592.393 232.222 591.383 231.212 590.598 229.978C589.813 228.632 589.252 227.174 589.028 225.716C588.915 224.033 588.915 222.351 589.252 220.781C589.364 219.771 589.588 218.649 589.813 217.64C585.55 217.752 581.288 216.967 577.362 215.621C573.324 214.163 569.623 212.032 566.258 209.34C567.492 207.994 568.725 206.535 569.735 205.077C571.081 203.507 571.866 202.497 572.427 201.712C572.539 201.6 574.109 199.02 574.109 199.02L584.765 194.646L604.507 201.151H604.619L604.843 201.264C603.721 203.956 603.721 206.199 604.17 207.208C604.17 207.433 604.507 207.545 604.619 207.657C605.404 208.106 606.413 207.096 607.086 206.535C607.311 206.199 607.423 205.975 607.535 205.975Z" fill="black" opacity="0.1"/>
    <path d="M561.099 186.794C561.323 189.374 562.557 191.617 564.464 193.3C564.464 197.001 565.473 200.478 567.492 203.507C572.876 211.471 585.215 214.499 598.114 210.686L598.226 210.798V210.91C597.889 211.919 597.553 213.041 597.104 214.051C596.992 214.387 596.88 214.724 596.768 215.06L596.656 215.397C595.534 217.528 594.412 219.659 593.627 222.014C593.291 223.473 593.403 225.043 593.964 226.501C595.085 224.482 596.656 222.687 598.562 221.454C599.235 221.117 600.021 220.781 600.806 220.444C604.732 218.425 607.76 215.06 609.218 210.91C609.443 210.349 609.555 209.788 609.667 209.227L609.779 209.115C613.817 208.779 616.846 205.19 616.509 201.152C616.173 198.123 613.929 195.543 611.013 194.646C613.481 190.159 611.91 184.439 607.424 181.971C605.741 181.074 603.946 180.625 602.04 180.737C600.357 180.849 598.675 181.522 597.329 182.532C596.319 177.484 591.384 174.344 586.336 175.353C582.859 176.138 580.055 178.718 579.27 182.195C577.699 178.494 573.886 176.251 569.848 176.587C564.576 177.148 560.762 181.635 561.099 186.794Z" fill="#454C5E"/>
    <path d="M564.463 193.3C564.463 197.001 565.472 200.478 567.491 203.507C572.875 211.471 585.214 214.499 598.113 210.686L598.225 210.798V210.91C599.795 210.237 601.366 209.564 602.936 208.779L602.824 208.891C599.908 209.34 582.41 212.705 570.408 201.376C568.052 199.02 566.033 196.328 564.463 193.3Z" fill="black" opacity="0.5"/>
    <path d="M697.269 282.921C693.455 286.959 670.013 311.299 632.661 310.85C610.564 310.626 593.852 301.765 584.205 295.035C579.606 299.97 576.017 303.672 575.905 303.896L572.428 308.943C569.96 312.308 567.605 315.673 565.361 319.038C565.137 319.375 564.913 319.599 564.688 319.936C564.688 320.048 564.576 320.048 564.464 320.16C563.118 322.067 561.884 323.974 560.65 325.656L542.255 355.38L500.193 320.833L498.847 319.711L498.174 319.151V319.038L508.156 296.83L511.521 289.427L516.12 279.332L518.7 273.275L520.046 270.358L522.626 264.638L524.084 261.385L524.196 261.048L524.308 260.824L524.421 260.6L526.327 256.898C513.54 248.374 504.006 235.699 499.52 221.005C492.902 198.684 500.529 180.176 502.997 174.568C507.259 164.81 513.653 156.173 521.616 149.218L553.135 170.53C541.021 176.699 531.824 187.467 527.561 200.366C524.981 211.695 528.683 223.473 537.432 231.1C540.124 231.885 556.612 241.756 556.612 241.756C557.846 241.756 558.968 241.531 560.089 241.083C561.548 240.522 562.781 239.737 563.903 238.615L580.167 247.028C580.279 247.588 581.177 252.636 583.532 255.216C584.205 256.001 584.99 256.786 585.888 257.459C586.561 258.02 587.234 258.469 588.019 258.917L601.703 266.545C602.152 266.993 621.669 284.267 637.148 284.267C637.484 284.267 637.933 284.267 638.27 284.267C646.346 283.818 657.226 277.873 669.452 253.87L697.269 282.921Z" fill="#066FD1"/>
    <path d="M507.481 326.778L500.303 362.447L457.343 358.409L416.739 402.939L413.71 399.686L410.682 396.433C419.879 375.458 429.077 354.483 438.275 333.508L498.284 319.038L507.481 326.778Z" fill="black" opacity="0.1"/>
    <path d="M282.253 194.421C286.775 194.421 290.441 190.755 290.441 186.233C290.441 181.711 286.775 178.045 282.253 178.045C277.73 178.045 274.064 181.711 274.064 186.233C274.064 190.755 277.73 194.421 282.253 194.421Z" fill="#232B41"/>
    <path d="M301.882 194.421C306.404 194.421 310.07 190.755 310.07 186.233C310.07 181.711 306.404 178.045 301.882 178.045C297.359 178.045 293.693 181.711 293.693 186.233C293.693 190.755 297.359 194.421 301.882 194.421Z" fill="#232B41"/>
    <path d="M230.88 118.373L215.625 80.5724L234.805 72.8329C239.853 70.814 243.891 70.2531 247.144 71.0383C250.172 71.7113 252.528 73.8424 253.649 76.6466C254.435 78.4413 254.659 80.4603 254.21 82.3671C253.762 84.3861 252.752 86.1808 251.294 87.5268C249.611 89.2093 247.48 90.5553 245.237 91.4526V88.4241C247.592 87.4146 250.06 86.8538 252.64 86.8538C254.771 86.8538 256.79 87.4146 258.585 88.5363C260.379 89.6579 261.725 91.4526 262.511 93.4716C263.857 96.5001 263.52 99.9772 261.613 102.669C259.706 105.586 256.229 108.053 251.07 110.072L230.88 118.373ZM238.283 106.371L247.256 102.781C248.714 102.333 250.06 101.323 251.07 100.089C252.191 98.1826 251.518 95.8271 249.611 94.7054C249.387 94.5932 249.051 94.3689 248.714 94.3689C247.144 94.1446 245.573 94.4811 244.115 95.1541L234.357 99.0799L231.328 91.6769L239.404 88.4241C240.862 87.9754 242.096 87.0781 243.106 85.8443C243.779 84.8348 243.891 83.6009 243.33 82.5914C242.994 81.4698 241.984 80.5724 240.862 80.3481C239.404 80.1238 237.834 80.4603 236.488 81.1333L229.085 84.0496L238.283 106.371Z" fill="#066FD1"/>
    <path d="M302.106 93.0229C299.863 93.9202 297.395 94.4811 294.927 94.5933C290.328 94.7054 285.954 93.0229 282.701 89.7701C281.019 88.0876 279.785 86.1808 278.887 83.9374C277.99 81.8063 277.541 79.5629 277.654 77.2074C277.766 72.7208 279.785 68.3463 283.15 65.3178C286.851 62.065 291.562 60.046 296.61 59.9338C298.853 59.8216 301.096 60.2703 303.228 61.0555C305.247 61.8406 307.153 63.0745 308.724 64.6448C310.406 66.2151 311.64 68.2341 312.537 70.3653C313.435 72.4964 313.883 74.852 313.883 77.2074C313.771 79.4508 313.323 81.5819 312.313 83.6009C311.304 85.6199 309.958 87.5268 308.275 88.9849C306.593 90.7796 304.461 92.1256 302.106 93.0229ZM299.302 85.9564C300.423 85.5078 301.433 84.8348 302.33 84.0496C303.115 83.2644 303.788 82.3671 304.237 81.2454C304.686 80.1238 304.91 79.0021 304.91 77.8804C304.798 75.1884 303.788 72.7208 301.994 70.7018C301.209 69.8045 300.199 69.1315 299.19 68.6828C298.18 68.2341 297.058 68.0098 295.937 68.0098C293.581 68.0098 291.226 69.0193 289.543 70.5896C288.758 71.3748 288.085 72.3843 287.636 73.3938C287.188 74.5155 286.963 75.6371 286.963 76.7588C287.076 79.3386 288.085 81.9184 289.88 83.8253C290.665 84.7226 291.674 85.3956 292.684 85.8443C293.693 86.2929 294.927 86.5173 296.049 86.5173C297.058 86.6294 298.18 86.4051 299.302 85.9564Z" fill="#066FD1"/>
    <path d="M342.374 77.6561C340.355 77.7682 338.448 77.4317 336.541 76.7587C333.064 75.6371 330.147 73.0572 328.577 69.6922C327.792 68.0097 327.343 66.1029 327.343 64.1961C327.231 62.2892 327.568 60.4946 328.353 58.6999C329.026 57.0174 330.035 55.4471 331.269 54.2133C332.615 52.8673 334.073 51.8578 335.868 51.1848C339.569 49.7266 343.72 49.6144 347.645 50.8483C349.44 51.4091 351.01 52.4186 352.356 53.5403C353.702 54.7741 354.824 56.1201 355.609 57.8026C356.394 59.4851 356.843 61.3919 356.843 63.2987C356.955 65.2056 356.619 67.1124 355.946 68.9071C355.273 70.5896 354.263 72.1599 353.029 73.3937C351.683 74.7397 350.113 75.7492 348.431 76.4222C346.412 77.2074 344.393 77.5439 342.374 77.6561ZM342.261 71.3747C343.271 71.3747 344.168 71.1504 345.066 70.8139C345.963 70.4774 346.636 69.9166 347.309 69.2436C347.982 68.5706 348.431 67.6732 348.767 66.7759C349.104 65.7664 349.328 64.7569 349.216 63.6352C349.216 62.6257 348.991 61.5041 348.543 60.4946C348.206 59.5972 347.645 58.8121 346.972 58.1391C346.299 57.4661 345.514 57.0174 344.617 56.6809C343.72 56.3444 342.71 56.2322 341.813 56.2322C340.803 56.2322 339.906 56.4566 339.009 56.9052C338.111 57.2417 337.438 57.8026 336.765 58.4756C336.092 59.1486 335.644 60.0459 335.307 60.9432C334.634 62.9622 334.746 65.2056 335.531 67.2246C336.204 69.0192 337.663 70.3652 339.457 71.0382C340.355 71.2626 341.252 71.4869 342.261 71.3747Z" fill="#066FD1"/>
    <path d="M377.93 95.1541C376.36 94.8176 374.902 94.1446 373.556 93.2472C369.742 90.7796 367.948 86.0686 368.957 81.6941C369.294 80.2359 369.967 78.8899 370.864 77.6561C372.659 75.3006 375.351 73.7302 378.267 73.3937C381.52 73.0572 384.66 73.8424 387.352 75.5249C388.586 76.3101 389.596 77.4317 390.493 78.6656C392.175 81.1332 392.624 84.1617 391.951 87.0781C391.615 88.5362 390.942 89.9944 390.044 91.2282C389.147 92.3499 388.138 93.3594 386.792 94.0324C385.558 94.7054 384.1 95.2662 382.641 95.3784C381.183 95.6027 379.501 95.4906 377.93 95.1541ZM379.052 90.3309C379.837 90.5552 380.622 90.5552 381.295 90.4431C382.08 90.3309 382.754 90.1066 383.314 89.6579C383.987 89.2092 384.548 88.7606 384.885 88.0876C385.333 87.4146 385.67 86.6294 385.894 85.7321C386.118 84.9469 386.119 84.0496 386.006 83.1522C385.894 82.3671 385.67 81.6941 385.221 81.0211C384.885 80.3481 384.324 79.7872 383.763 79.4507C383.09 79.0021 382.417 78.6656 381.632 78.5534C380.847 78.3291 380.174 78.3291 379.389 78.4412C378.603 78.5534 377.93 78.7777 377.37 79.2264C376.697 79.6751 376.136 80.1237 375.687 80.7967C375.238 81.4697 374.902 82.2549 374.678 83.1522C374.453 83.9374 374.453 84.8347 374.565 85.7321C374.678 86.5172 374.902 87.1902 375.238 87.8632C375.575 88.5362 376.136 89.0971 376.697 89.4336C377.706 89.7701 378.379 90.1066 379.052 90.3309Z" fill="#066FD1"/>
    <path d="M423.021 82.255C421.675 82.4793 420.441 82.4793 419.095 82.1428C416.74 81.6941 414.609 80.236 413.263 78.1048C412.59 77.0953 412.141 75.8615 412.029 74.6276C411.804 73.3938 411.917 72.16 412.253 70.9261C412.59 69.8045 413.15 68.6828 413.823 67.7855C414.609 66.776 415.506 65.9908 416.628 65.43C417.749 64.757 419.095 64.3083 420.329 64.1961C421.675 63.9718 423.021 63.9718 424.255 64.3083C425.489 64.5326 426.61 64.9813 427.62 65.7665C428.629 66.4395 429.415 67.3368 430.088 68.3463C430.761 69.3558 431.209 70.5896 431.321 71.8235C431.546 73.0573 431.434 74.2911 431.097 75.525C430.761 76.6466 430.2 77.7683 429.527 78.6656C428.742 79.563 427.844 80.4603 426.723 81.0211C425.713 81.6941 424.367 82.1428 423.021 82.255ZM422.46 78.217C423.133 78.1048 423.694 77.8805 424.255 77.544C424.816 77.2075 425.264 76.871 425.601 76.3101C425.937 75.7493 426.274 75.1885 426.386 74.6276C426.723 73.2816 426.498 71.8235 425.825 70.4775C425.489 69.9166 425.04 69.468 424.591 69.0193C424.143 68.6828 423.582 68.3463 422.909 68.2341C422.236 68.122 421.675 68.0098 421.002 68.122C420.329 68.2341 419.768 68.4585 419.207 68.795C418.647 69.1315 418.198 69.468 417.861 70.0288C417.525 70.5896 417.188 71.1505 417.076 71.7113C416.852 73.0573 417.076 74.5155 417.637 75.8615C417.974 76.4223 418.31 76.871 418.871 77.3196C419.32 77.6561 419.88 77.9926 420.553 78.1048C421.226 78.3291 421.787 78.3291 422.46 78.217Z" fill="#066FD1"/>
    <path d="M564.462 320.16C563.116 322.067 561.882 323.974 560.649 325.656L542.253 355.38L500.191 320.833L498.957 319.711C498.733 319.487 498.508 319.375 498.284 319.151C498.284 319.151 498.284 319.151 498.172 319.038L508.155 296.717L511.52 289.314L516.119 279.219L518.698 273.275L522.624 264.526L524.195 261.048L524.419 260.6C524.419 260.712 524.419 260.712 524.419 260.824C524.98 267.666 527.223 281.351 536.645 295.484C546.067 309.168 557.62 316.571 564.462 320.16Z" fill="black" opacity="0.1"/>
</svg>
