<svg xmlns="http://www.w3.org/2000/svg" width="800" height="600" fill="none" viewBox="0 0 800 600">
    <path d="M122 299.997C122 347.03 171.741 381.147 193.673 419.133C216.465 458.378 221.832 518.201 261.061 540.865C299.048 562.845 353.121 538.253 400.154 538.253C447.187 538.253 501.26 562.845 539.231 540.865C578.412 518.201 583.827 458.314 606.539 419.133C628.519 381.147 678.212 347.03 678.212 299.997C678.212 252.964 628.487 218.848 606.539 180.861C583.875 141.68 578.412 81.7936 539.231 59.1132C501.212 37.1494 447.139 61.7889 400.106 61.7889C353.073 61.7889 299 37.1494 261.061 59.1132C221.88 81.7936 216.465 141.68 193.752 180.861C171.789 218.848 122.08 252.964 122.08 299.997" fill="black" opacity="0.07"/>
    <path d="M164.446 503.245C164.446 507.689 268.961 511.288 397.892 511.288C526.824 511.288 631.322 507.689 631.322 503.245C631.322 498.801 526.808 495.281 397.892 495.281C268.977 495.281 164.446 498.881 164.446 503.245Z" fill="#1D2535" opacity="0.5"/>
    <path d="M400.696 245.94C397.51 251.005 380.803 276.664 350.62 281.617C339.7 283.373 328.509 282.197 318.192 278.209C312.434 276.032 306.983 273.114 301.979 269.528C304.431 263.603 306.879 257.679 309.321 251.754C310.117 252.454 311.392 253.537 313.032 254.748C318.718 258.873 328.816 264.464 339.169 260.991C344.998 259.016 349.075 255.305 356.88 247.66C363.693 240.95 369.857 233.613 375.292 225.744C380.07 216.825 390.232 214.595 397.112 220.584C403.642 226.222 405.378 237.562 400.696 245.94Z" fill="#FFCB9D"/>
    <path d="M318.192 278.209C312.434 276.032 306.983 273.114 301.979 269.528C304.431 263.603 306.879 257.678 309.321 251.754C310.117 252.454 311.392 253.537 313.032 254.748C312.586 258.586 312.331 264.862 314.243 269.927C315.341 272.786 316.661 275.555 318.192 278.209Z" fill="black" opacity="0.15"/>
    <path d="M266.699 178.058C273.724 191.393 285.425 201.665 299.557 206.902L252.396 211.266L266.731 178.058" fill="#454C5E"/>
    <path d="M247.714 407.554L245.436 434.774L242.123 474.337H238.906L230.544 433.293L226.977 415.709L247.714 407.554ZM294.03 407.554L291.88 433.165L288.44 474.337H285.223L277.147 434.694L273.277 415.709L294.03 407.554Z" fill="#FFCB9D"/>
    <path d="M226.977 415.709L247.682 407.554L245.404 434.758C240.244 434.439 235.259 433.93 230.512 433.277L226.977 415.709ZM294.03 407.554L291.88 433.165C287.198 433.834 282.324 434.344 277.147 434.758L273.277 415.773L294.03 407.554Z" fill="black" opacity="0.15"/>
    <path d="M261.555 214.691C248.144 216.156 233.141 212.254 226.977 208.065C225.913 207.433 225.017 206.553 224.365 205.501C223.696 204.163 223.107 202.777 222.533 201.312C221.721 199.305 221.02 197.203 220.383 195.116C218.722 189.669 217.56 184.082 216.911 178.424C216.911 177.962 216.736 176.577 216.577 174.984C215.987 167.817 215.685 161.987 215.525 158.006C215.86 158.595 217.532 161.318 219.045 161.064C220.558 160.809 222.024 157.161 221.641 152.049H252.078L264.82 163.039C264.82 163.039 265.203 164.791 265.999 167.482C267.275 172.184 268.871 176.792 270.777 181.275C272.1 184.685 274.032 187.826 276.479 190.545C283.487 197.25 277.658 213.018 261.555 214.691Z" fill="#FFCB9D"/>
    <path d="M270.777 181.339C259.191 185.456 246.564 185.59 234.893 181.721C231.905 182.134 229.089 183.363 226.754 185.273C223.33 188.172 223.409 190.848 220.638 194.829L220.383 195.212C218.73 189.762 217.568 184.176 216.911 178.52C216.911 178.058 216.736 176.672 216.577 175.08C215.987 167.912 215.685 162.083 215.525 158.101C215.86 158.69 217.532 161.414 219.045 161.159C220.558 160.904 222.024 157.257 221.641 152.144H252.078L264.82 163.134C264.82 163.134 265.203 164.886 265.999 167.578C267.275 172.279 268.871 176.888 270.777 181.371" fill="black" opacity="0.1"/>
    <path d="M292.135 271.567C295.065 287.367 297.136 298.978 298.506 307.164L298.744 308.518C300.449 318.075 302.201 327.535 303.905 337.044C271.944 337.639 239.978 338.254 208.007 338.892C208.007 336.694 208.086 334.432 208.134 332.218V332.107C207.188 307.81 207.56 283.48 209.249 259.223C209.377 257.44 209.504 255.656 209.647 253.872C208.055 257.599 206.462 261.315 204.869 265.021L185.677 253.681C186.378 250.654 188.783 241.544 195.87 235.269C195.87 235.269 202.241 229.662 209.488 228.659C210.153 228.592 210.813 228.48 211.463 228.324H211.813C215.923 227.751 219.873 227.225 223.616 226.939C232.688 226.144 241.806 226.006 250.899 226.525C259.615 227.052 268.272 228.303 276.781 230.268C278.931 230.777 281.161 231.351 283.279 232.051L285.079 232.657L285.748 232.88L286.926 233.31C288.28 233.835 301.675 237.737 304.606 238.629C307.902 239.71 310.927 241.486 313.477 243.838C309.368 255.114 305.264 266.396 301.165 277.683L292.023 271.599" fill="#066FD1"/>
    <path d="M221.338 231.542C221.338 241.656 233.538 249.842 248.574 249.842C263.609 249.842 275.746 241.656 275.746 231.542C275.738 231.007 275.68 230.473 275.57 229.949C267.06 227.971 258.396 226.724 249.673 226.222C240.58 225.71 231.462 225.853 222.389 226.652C221.686 228.208 221.327 229.898 221.338 231.605" fill="#DADBE0"/>
    <path d="M278.326 162.72C276.51 166.169 273.86 169.109 270.617 171.273C256.394 180.829 234.988 169.983 229.207 166.702C227.789 170.588 224.094 173.535 223.632 175.924C223.505 176.64 223.377 177.357 223.298 178.01C223.152 179.167 223.083 180.332 223.09 181.498C223.138 183.473 223.362 185.44 223.759 187.375C226.046 195.538 228.926 203.523 232.376 211.266L211.671 212.652L194.963 213.767C192.614 205.811 192.07 197.432 193.37 189.239C193.498 188.522 193.689 187.439 193.975 186.053C194.604 183.341 195.434 180.679 196.46 178.09C196.635 177.628 196.826 177.15 197.033 176.688C198.463 173.332 200.229 170.131 202.305 167.132C207.676 159.355 214.759 152.914 223.011 148.306C225.862 146.809 244.114 137.443 262.686 144.021C267.289 145.614 278.263 149.596 279.202 157.273C279.377 159.133 279.023 161.004 278.183 162.672M260.52 503.245C257.047 495.281 243 482.54 238.317 484.132C233.634 485.725 233.539 493.322 233.539 493.322L232.265 501.127L241.279 503.245L243.844 497.113L260.52 503.245ZM305.275 503.245C301.803 495.281 287.755 482.54 283.073 484.132C278.39 485.725 278.294 493.322 278.294 493.322L277.02 501.127L286.035 503.245L288.599 497.113L305.275 503.245Z" fill="#454C5E"/>
    <path d="M278.326 162.72C276.51 166.169 273.86 169.109 270.617 171.273C256.41 180.925 234.972 169.983 229.206 166.702C227.204 164.843 225.405 162.777 223.839 160.538C232.058 165.319 241.324 168.014 250.825 168.386C260.326 168.758 269.774 166.796 278.342 162.672" fill="black" opacity="0.5"/>
    <path d="M309.018 415.709H210.46L208.74 360.776L208.071 338.908L303.969 337.044L308.063 400.737L309.018 415.709Z" fill="#A7AAB3"/>
    <path d="M309.018 415.709H210.46C210.078 389.875 209.701 364.041 209.329 338.207L257.493 337.904C239.591 373.279 234.351 386.466 235.784 387.645C237.775 389.238 251.234 367.162 258.082 370.953C260.551 372.339 260.806 376.416 261.523 379.14C263.721 387.565 273.819 396.803 308.126 400.737L309.018 415.709Z" fill="black" opacity="0.1"/>
    <path d="M285.86 232.848L285.191 232.625C282.563 244.395 267.161 253.442 248.558 253.442C228.124 253.442 211.495 242.484 211.495 229.041V228.356C210.858 228.452 210.205 228.547 209.521 228.691V229.025C209.521 243.758 227.041 255.751 248.542 255.751C267.91 255.751 284.012 245.988 286.991 233.262L285.812 232.832M255.391 264.065C255.291 264.632 255.032 265.158 254.643 265.583C254.255 266.007 253.753 266.312 253.197 266.462C252.642 266.611 252.055 266.599 251.506 266.427C250.957 266.255 250.468 265.93 250.097 265.49C249.726 265.05 249.489 264.514 249.412 263.943C249.335 263.373 249.422 262.793 249.664 262.27C249.905 261.748 250.29 261.305 250.774 260.994C251.259 260.683 251.821 260.516 252.397 260.513C253.264 260.59 254.065 261.007 254.626 261.672C255.187 262.338 255.462 263.198 255.391 264.065Z" fill="#E2E2E2"/>
    <path d="M211.686 212.716L194.979 213.831C192.629 205.875 192.085 197.495 193.386 189.303C193.513 188.586 193.704 187.503 193.991 186.117L196.476 178.154C196.651 177.692 196.842 177.214 197.049 176.752C198.478 173.396 200.245 170.194 202.321 167.196C201.477 177.899 201.381 192.823 205.937 202.331C207.625 205.913 209.535 209.387 211.654 212.732" fill="black" opacity="0.5"/>
    <path d="M303.969 337.044C272.009 337.639 240.043 338.26 208.071 338.908C208.071 336.694 208.151 334.432 208.199 332.218V332.107C259.676 334.655 289.937 315.702 298.809 308.518C300.513 318.075 302.265 327.535 303.969 337.044Z" fill="black" opacity="0.1"/>
    <path d="M228.649 367.959C227.286 370.215 225.362 372.081 223.066 373.376C220.769 374.671 218.177 375.35 215.541 375.349C212.509 375.355 209.586 374.217 207.354 372.164C190.458 356.606 179.798 335.434 177.363 312.596C175.211 293.738 178.268 274.65 186.203 257.408C186.697 256.341 187.127 255.465 187.493 254.748L202.433 263.492C201.891 264.368 201.095 265.706 200.187 267.41C195.207 277.147 193.286 288.162 194.676 299.01C196.078 309.554 200.394 316.609 204.997 324.111C209.917 332.121 216.01 339.348 223.075 345.549C230.481 351.904 232.392 361.524 228.649 367.959Z" fill="#FFCB9D"/>
    <path d="M202.464 263.492C201.923 264.368 201.126 265.706 200.234 267.394C196.077 264.495 189.627 259.94 186.234 257.408C186.728 256.356 187.158 255.465 187.524 254.748L202.464 263.492Z" fill="black" opacity="0.15"/>
    <path d="M249.673 226.158C240.58 225.646 231.462 225.79 222.389 226.588C221.691 228.145 221.337 229.835 221.354 231.542C221.354 241.656 233.538 249.842 248.574 249.842C263.609 249.842 275.73 241.656 275.73 231.542C275.727 231.007 275.674 230.474 275.57 229.949C267.06 227.971 258.396 226.724 249.673 226.222" fill="#FFCB9D"/>
    <path d="M546.446 109.698H365.576C354.862 109.698 346.177 118.384 346.177 129.098V481.011C346.177 491.725 354.862 500.41 365.576 500.41H546.446C557.16 500.41 565.846 491.725 565.846 481.011V129.098C565.846 118.384 557.16 109.698 546.446 109.698Z" fill="#232B41"/>
    <path d="M546.43 105.223H365.575C359.239 105.223 353.162 107.74 348.682 112.22C344.202 116.701 341.685 122.777 341.685 129.114V166.383C341.435 166.368 341.185 166.368 340.936 166.383H340.203C338.823 166.388 337.501 166.938 336.525 167.913C335.549 168.889 334.999 170.212 334.995 171.592V211.999C334.995 213.38 335.544 214.705 336.521 215.682C337.497 216.659 338.822 217.207 340.203 217.207H340.936C341.185 217.223 341.435 217.223 341.685 217.207V480.995C341.685 487.331 344.202 493.408 348.682 497.888C353.162 502.369 359.239 504.886 365.575 504.886H546.43C552.766 504.886 558.843 502.369 563.323 497.888C567.803 493.408 570.321 487.331 570.321 480.995V129.114C570.321 122.777 567.803 116.701 563.323 112.22C558.843 107.74 552.766 105.223 546.43 105.223ZM561.354 480.995C561.354 484.954 559.782 488.752 556.983 491.553C554.185 494.354 550.389 495.93 546.43 495.935H365.575C361.614 495.93 357.817 494.355 355.016 491.554C352.215 488.753 350.64 484.956 350.636 480.995V129.114C350.64 125.153 352.215 121.355 355.016 118.554C357.817 115.753 361.614 114.178 365.575 114.174H401.221C399.492 116.303 398.553 118.965 398.561 121.707V123.396C398.559 124.972 398.867 126.533 399.469 127.99C400.071 129.447 400.954 130.771 402.068 131.886C403.182 133.002 404.505 133.887 405.961 134.49C407.417 135.094 408.978 135.405 410.554 135.405H503.697C505.274 135.405 506.835 135.094 508.292 134.491C509.749 133.887 511.073 133.003 512.189 131.887C513.304 130.772 514.188 129.448 514.792 127.991C515.395 126.534 515.706 124.973 515.706 123.396V121.707C515.708 118.966 514.769 116.306 513.046 114.174H546.493C550.453 114.178 554.249 115.754 557.047 118.555C559.845 121.356 561.417 125.154 561.417 129.114L561.354 480.995Z" fill="#454C5E"/>
    <path d="M455.995 471.932C470.395 471.932 482.068 460.259 482.068 445.859C482.068 431.459 470.395 419.786 455.995 419.786C441.595 419.786 429.922 431.459 429.922 445.859C429.922 460.259 441.595 471.932 455.995 471.932Z" fill="#066FD1"/>
    <path d="M512.218 169.967H379.034C377.152 169.967 375.626 171.493 375.626 173.375V177.102C375.626 178.985 377.152 180.511 379.034 180.511H512.218C514.101 180.511 515.627 178.985 515.627 177.102V173.375C515.627 171.493 514.101 169.967 512.218 169.967Z" fill="#DADBE0"/>
    <path d="M523.033 207.46H379.751C376.857 207.46 374.511 209.806 374.511 212.7V233.071C374.511 235.965 376.857 238.311 379.751 238.311H523.033C525.927 238.311 528.273 235.965 528.273 233.071V212.7C528.273 209.806 525.927 207.46 523.033 207.46Z" fill="#066FD1"/>
    <path d="M463.545 294.741H378.206C376.781 294.741 375.626 295.896 375.626 297.321V302.482C375.626 303.907 376.781 305.062 378.206 305.062H463.545C464.97 305.062 466.125 303.907 466.125 302.482V297.321C466.125 295.896 464.97 294.741 463.545 294.741Z" fill="#DADBE0"/>
    <path d="M499.938 338.669H379.592C377.402 338.669 375.626 340.444 375.626 342.634V345.247C375.626 347.437 377.402 349.212 379.592 349.212H499.938C502.129 349.212 503.904 347.437 503.904 345.247V342.634C503.904 340.444 502.129 338.669 499.938 338.669Z" fill="#A7AAB3"/>
</svg>
