<svg xmlns="http://www.w3.org/2000/svg" width="800" height="600" fill="none" viewBox="0 0 800 600">
    <path d="M104.402 299.861C104.402 347.884 155.211 382.906 177.763 421.776C200.979 461.972 206.551 523.128 246.614 546.344C285.483 568.896 340.935 543.691 388.958 543.691C436.981 543.691 492.433 568.896 531.303 546.344C571.366 523.128 576.938 461.839 600.153 421.776C622.705 382.906 673.514 348.017 673.514 299.861C673.514 251.706 622.573 216.816 600.153 177.947C576.938 137.751 571.366 76.4616 531.303 53.3787C492.433 30.8265 436.981 56.0319 388.958 56.0319C340.935 56.0319 285.483 30.8265 246.614 53.3787C206.418 76.5943 200.979 137.883 177.763 177.947C155.211 216.949 104.402 251.838 104.402 299.861Z" fill="black" opacity="0.07"/>
    <path d="M401.693 429.736C401.693 431.991 320.505 433.981 220.346 433.981C120.188 433.981 39 432.123 39 429.736C39 427.348 120.188 425.623 220.346 425.623C320.505 425.623 401.693 427.48 401.693 429.736Z" fill="#1D2535" opacity="0.5"/>
    <path d="M325.149 414.214V124.883H319.577V414.214C305.648 414.878 294.77 422.704 294.77 432.123H348.762C348.762 422.97 338.547 415.541 325.281 414.347L325.149 414.214Z" fill="#A6A9B3"/>
    <path d="M751.65 538.517C751.65 540.772 670.462 542.762 570.303 542.762C470.145 542.762 388.957 540.905 388.957 538.517C388.957 536.129 470.145 534.404 570.303 534.404C670.462 534.404 751.65 536.262 751.65 538.517Z" fill="#1D2535" opacity="0.5"/>
    <path d="M218.623 200.897L213.582 198.509C221.807 181.396 237.594 157.119 265.717 138.414C282.433 127.271 301.138 119.709 321.169 115.994L322.231 121.433C302.995 125.015 284.953 132.179 268.769 142.924C241.706 160.966 226.583 184.314 218.623 200.764V200.897Z" fill="#A6A9B3"/>
    <path d="M322.095 131.383C329.055 131.383 334.698 125.741 334.698 118.78C334.698 111.82 329.055 106.178 322.095 106.178C315.135 106.178 309.492 111.82 309.492 118.78C309.492 125.741 315.135 131.383 322.095 131.383Z" fill="#066FD1"/>
    <path d="M150.432 335.016C166.351 373.753 208.139 397.234 248.335 397.499C300.206 397.764 350.086 359.16 346.239 335.016C345.443 329.71 342.126 325.73 337.085 322.546C313.87 307.556 254.173 307.423 230.426 263.114C222.865 249.052 221.405 235.256 221.671 223.316C222.069 205.407 226.579 192.009 220.344 189.621C203.364 183.253 120.318 261.655 150.432 334.884V335.016Z" fill="#A6A9B3"/>
    <path d="M182.54 296.545C191.295 339.261 266.513 373.09 305.914 349.344C321.567 339.925 331.252 330.506 337.221 322.414C314.006 307.423 254.309 307.29 230.563 262.982C223.001 248.92 221.542 235.123 221.807 223.184C203.898 238.174 176.437 266.829 182.54 296.412V296.545Z" fill="black" opacity="0.1"/>
    <path d="M274.74 324.669C271.822 328.383 269.036 329.444 264.128 333.159C259.087 337.006 252.454 343.241 246.351 353.854C246.351 369.242 246.351 384.631 246.351 400.02H236.402C229.371 384.1 222.207 368.181 215.176 352.262C218.227 343.108 221.278 334.087 224.33 324.934L224.86 323.607C216.237 328.383 207.614 333.292 198.992 338.067C195.542 351.599 192.093 365.263 188.777 378.794C185.858 379.325 182.807 379.723 179.888 380.253C175.909 363.803 171.929 347.486 167.816 331.036C180.817 320.821 193.818 310.607 206.686 300.392C206.818 300.259 206.951 300.127 207.216 299.994H222.738L278.588 299.729C279.914 307.025 280.577 317.107 274.74 324.669Z" fill="#066FD1"/>
    <path d="M251.39 422.439V416.469C251.39 416.469 252.186 410.765 248.869 409.04C245.553 407.316 233.879 415.408 230.43 420.98L243.298 418.194L244.492 423.102L251.39 422.439Z" fill="#454C5E"/>
    <path d="M193.683 398.295L192.622 392.325C192.622 392.325 192.622 386.488 189.04 385.427C185.458 384.366 175.243 394.05 172.723 400.152L185.06 395.376L186.917 400.019L193.683 398.295Z" fill="#454C5E"/>
    <path d="M233.483 300.259L225.391 323.74L224.33 325.066L224.86 323.74C216.237 328.516 207.614 333.424 198.992 338.2C195.542 351.731 192.093 365.395 188.777 378.927C185.858 379.457 182.807 379.855 179.888 380.386C175.909 363.936 171.929 347.619 167.816 331.169C180.817 320.954 193.818 310.739 206.686 300.524C207.349 300.259 207.747 300.259 207.747 300.259H233.483Z" fill="black" opacity="0.1"/>
    <path d="M265.582 232.735C264.388 234.327 263.46 236.185 262.531 237.909C263.327 237.378 263.858 236.715 264.388 235.919C264.919 234.858 265.317 233.797 265.715 232.735H265.582Z" fill="black" opacity="0.1"/>
    <path d="M260.676 327.189C260.145 327.853 259.349 328.516 258.686 329.047C255.635 331.169 251.257 332.098 248.338 330.108C243.96 327.189 245.287 319.628 245.685 317.638C245.818 316.709 246.083 315.913 246.348 314.985C247.675 310.872 251.522 304.106 255.502 304.106C259.88 304.106 263.594 313.658 262.931 321.087C262.931 323.342 262.135 325.465 260.808 327.189H260.676Z" fill="#FFCB9D"/>
    <path d="M260.675 327.189C260.144 327.853 259.348 328.516 258.685 329.047C254.307 325.465 252.583 320.291 247.011 315.515L246.348 314.985C247.674 310.872 251.521 304.106 255.501 304.106C259.879 304.106 263.593 313.658 262.93 321.087C262.93 323.342 262.134 325.465 260.808 327.189H260.675Z" fill="black" opacity="0.1"/>
    <path d="M149.638 276.513C148.444 276.115 147.25 275.85 145.923 275.717C141.413 275.319 137.566 277.309 136.504 281.024C135.178 285.667 139.025 291.106 144.862 293.228C145.525 293.494 146.189 293.626 146.852 293.759C152.026 294.82 156.801 292.83 157.995 288.718C159.322 284.075 155.608 278.636 149.638 276.513Z" fill="#FFCB9D"/>
    <path d="M149.636 276.513C148.443 276.115 147.249 275.85 145.922 275.717C145.922 276.248 145.789 276.646 145.657 277.176C144.861 283.279 146.851 286.197 146.851 292.963C146.851 293.228 146.851 293.626 146.851 293.891C152.024 294.953 156.8 292.963 157.994 288.85C159.321 284.207 155.474 278.768 149.636 276.646V276.513Z" fill="black" opacity="0.1"/>
    <path d="M236.001 314.321C240.91 308.484 254.839 291.106 263.196 270.278C265.717 264.043 269.564 254.226 270.758 240.695C271.023 237.246 271.156 234.46 271.156 232.47C272.35 231.939 273.544 231.409 274.738 230.878C274.738 233 274.871 235.256 275.136 237.378V237.644C276.595 263.91 277.656 274.125 278.718 293.626C278.718 296.147 278.85 298.269 278.983 299.861C266.778 299.861 254.441 299.994 242.236 300.127H207.612C208.673 292.83 209.734 285.136 210.663 277.574C212.388 265.237 213.98 252.9 215.704 240.562C217.163 246.664 219.949 262.318 212.653 279.299C199.918 308.749 168.212 315.515 165.028 316.046C155.874 308.749 152.823 301.453 151.629 297.606C150.568 294.289 150.17 290.708 149.639 286.993C148.843 280.625 148.578 275.186 148.578 271.472C182.274 275.85 194.479 269.615 199.122 262.318C206.02 251.44 200.846 230.48 213.714 222.786C214.378 222.388 214.776 222.255 215.041 222.122C215.571 221.857 216.5 221.326 217.694 220.928C218.225 220.796 218.888 220.53 219.551 220.265C221.143 219.734 222.735 219.204 224.327 218.673C230.562 216.949 236.93 215.755 243.43 215.091C250.196 214.428 256.961 214.295 263.727 214.561C266.38 214.561 269.299 214.959 272.217 215.224C272.35 215.224 272.483 215.224 272.483 215.224C276.33 215.224 284.555 220.398 288.402 225.041C294.637 232.735 298.617 250.91 294.902 278.901C293.443 290.575 290.259 306.759 282.83 325.465C279.514 325.465 274.473 324.934 268.901 322.811C261.605 320.025 259.349 316.444 253.247 314.454C249.532 313.26 243.961 312.331 236.001 314.454V314.321Z" fill="#DADCE0"/>
    <path d="M265.848 217.877C266.113 225.572 257.358 232.072 246.214 232.603C235.071 233.133 225.785 227.296 225.387 219.602C225.387 219.204 225.387 218.806 225.387 218.408C231.622 216.683 237.989 215.49 244.49 214.826C251.255 214.163 258.021 214.03 264.787 214.296C265.317 215.49 265.715 216.683 265.715 218.01L265.848 217.877Z" fill="#FFCB9D"/>
    <path d="M246.881 299.994C245.687 299.994 244.493 299.994 243.432 299.994L207.879 300.259C208.542 295.218 209.205 290.177 209.736 285.136C215.441 285.799 224.594 286.33 235.074 283.146C252.187 278.105 262.27 267.094 266.117 262.319C264.392 267.492 262.137 273.064 259.218 279.034C255.239 287.259 250.861 294.29 246.881 299.994Z" fill="black" opacity="0.1"/>
    <path d="M265.848 217.877C266.113 225.572 257.358 232.072 246.214 232.603C235.071 233.133 225.785 227.296 225.387 219.602C225.387 219.204 225.387 218.806 225.387 218.408C231.622 216.683 237.989 215.49 244.49 214.826C251.255 214.163 258.021 214.03 264.787 214.296C265.317 215.49 265.715 216.683 265.715 218.01L265.848 217.877Z" fill="black" opacity="0.1"/>
    <path d="M256.566 230.878C254.31 225.97 251.79 223.449 249.269 223.449C246.749 223.449 243.963 226.765 242.902 228.623C241.442 226.235 237.993 221.857 233.881 222.122C230.564 222.388 227.646 225.97 225.258 232.603C224.064 235.654 222.87 240.031 224.594 242.021C225.125 242.552 225.921 242.95 226.717 242.817C230.299 242.685 236.136 238.174 240.248 234.592C239.718 236.052 238.789 237.378 237.462 238.307C236.534 238.705 235.871 239.501 235.738 240.562C235.34 242.817 236.799 245.471 238.258 247.46L239.585 245.869C237.595 242.817 237.595 241.623 237.595 241.225C237.595 240.96 237.86 240.695 238.258 240.562C240.514 239.634 242.238 235.521 243.167 233.001C243.963 234.592 244.626 236.317 245.024 238.174C245.024 238.572 244.891 238.97 244.759 239.368C244.361 240.96 243.697 243.613 245.422 245.205C246.351 246.134 247.279 249.583 247.677 254.491L249.535 254.226C249.004 248.389 247.943 244.675 246.483 243.215C245.953 242.685 246.085 241.889 246.483 240.164C246.616 239.501 246.749 238.97 246.881 238.307C246.749 236.848 246.218 235.388 245.555 233.929C248.871 236.317 253.382 239.103 255.902 238.97C256.566 238.97 257.229 238.705 257.759 238.174C258.953 236.317 257.759 233 256.566 230.745V230.878ZM225.656 240.164C225.656 240.164 224.86 238.97 226.717 233.664C228.84 227.827 231.227 224.776 233.748 224.643H233.881C237.197 224.51 240.116 228.623 241.31 230.48C234.677 236.582 226.982 241.756 225.523 240.164H225.656ZM256.168 236.582C255.372 237.644 249.8 234.725 244.095 230.347C244.891 228.755 246.749 225.97 249.004 225.837H249.137C250.994 225.837 252.984 227.959 254.841 232.072C256.433 235.786 256.035 236.582 256.035 236.582H256.168Z" fill="#066FD1"/>
    <path d="M236.395 207.132C246.477 206.867 257.09 202.621 261.203 198.907C261.866 198.376 262.529 197.58 262.795 196.784C263.193 195.723 263.458 194.662 263.723 193.468C264.121 191.876 264.387 190.284 264.652 188.692C265.315 184.58 265.713 180.335 265.581 176.089C265.581 175.824 265.581 174.763 265.581 173.569C265.315 168.263 264.917 163.885 264.652 160.966C264.519 161.497 263.591 163.619 262.397 163.619C261.203 163.619 259.876 161.099 259.611 157.252L237.191 160.17L228.834 169.456C228.834 169.456 228.834 170.783 228.436 172.906C227.905 176.487 227.242 180.069 226.18 183.518C225.517 186.172 224.456 188.692 222.864 190.947C218.353 196.652 224.191 207.663 236.263 207.397L236.395 207.132Z" fill="#FFCB9D"/>
    <path d="M226.316 183.386C235.205 185.243 244.491 184.182 252.716 180.202C254.971 180.202 257.094 180.865 259.083 182.059C261.869 183.916 262.135 185.906 264.523 188.427L264.788 188.692C265.451 184.58 265.849 180.335 265.716 176.089C265.716 175.824 265.716 174.763 265.716 173.569C265.451 168.263 265.053 163.885 264.788 160.966C264.655 161.497 263.727 163.619 262.533 163.619C261.339 163.619 260.012 161.099 259.747 157.252L237.327 160.17L228.97 169.456C228.97 169.456 228.97 170.783 228.572 172.906C228.041 176.487 227.378 180.069 226.449 183.518L226.316 183.386Z" fill="black" opacity="0.1"/>
    <path d="M374.897 230.745C369.989 234.858 364.682 238.44 358.978 241.358C349.957 246.001 340.14 248.92 329.925 249.849C329.925 249.849 301.138 254.89 278.586 240.96C275.933 239.368 273.545 237.644 271.422 235.521C262.534 227.031 254.707 211.112 258.289 198.907C259.748 193.733 260.81 188.56 261.473 183.253C261.738 180.865 261.473 178.61 260.942 176.355C260.81 175.824 260.677 175.294 260.412 174.896C259.748 173.171 256.83 171.446 255.37 168.661C251.391 171.579 236.665 181.794 225.257 176.089C222.603 174.763 220.481 172.906 218.756 170.518C217.96 169.324 217.562 167.997 217.43 166.671C217.43 160.966 225.124 156.986 228.308 155.262C240.778 148.894 254.442 153.405 258.024 154.599C259.483 155.129 283.229 163.354 286.413 181.263C288.138 190.815 282.3 195.723 284.821 199.438C287.74 203.55 299.679 203.815 342.395 184.314C344.253 197.448 349.161 204.346 353.406 208.326C356.723 211.377 360.57 213.5 365.08 218.143C366.009 219.071 366.938 220.133 367.999 221.327C370.519 224.245 372.775 227.562 374.632 230.878L374.897 230.745Z" fill="#454C5E"/>
    <path d="M374.895 230.745C369.854 234.725 364.548 238.174 358.976 241.358C349.955 246.001 340.138 248.92 329.923 249.848C329.923 249.848 301.136 254.889 278.584 240.96C275.931 239.368 273.543 237.644 271.42 235.521C262.532 227.031 254.705 211.112 258.287 198.907C259.746 193.733 260.807 188.559 261.471 183.253C263.461 199.172 271.42 213.765 283.758 223.98C297.554 234.062 314.402 238.705 331.383 236.98C339.077 236.45 346.506 233.929 353.139 229.817C357.915 226.633 362.027 222.653 365.211 217.877C366.14 218.806 367.068 219.867 368.129 221.061C370.65 224.112 372.905 227.429 374.762 230.878L374.895 230.745Z" fill="black" opacity="0.5"/>
    <path d="M218.891 170.385C220.615 172.773 222.87 174.63 225.391 175.957C236.8 181.661 251.525 171.579 255.505 168.528C256.831 166.936 257.893 165.211 258.821 163.487C247.413 172.242 232.422 174.896 218.891 170.385Z" fill="black" opacity="0.5"/>
    <path d="M192.087 289.779L199.914 283.013C200.975 282.085 201.108 280.493 200.179 279.564C199.781 279.034 199.118 278.768 198.587 278.768L126.42 273.462C125.757 273.462 125.093 273.595 124.563 274.125L117.134 280.891C116.072 281.82 116.072 283.411 117.001 284.34C117.399 284.871 118.062 285.136 118.593 285.136L190.362 290.442C191.025 290.442 191.689 290.31 192.219 289.779H192.087Z" fill="#454C5E"/>
    <path d="M190.896 287.657C190.764 289.116 189.437 290.31 187.845 290.177L156.537 287.789L152.027 287.524L115.147 284.738C113.821 284.738 112.759 283.677 112.627 282.35L111.565 274.258L107.32 243.879C107.32 243.613 107.32 243.481 107.32 243.215C107.32 241.756 108.78 240.562 110.371 240.695L183.202 246.134C184.528 246.134 185.59 247.195 185.722 248.522L186.651 255.288L191.029 286.993C191.029 287.126 191.029 287.391 191.029 287.657H190.896Z" fill="#454C5E"/>
    <path d="M574.683 381.845C575.346 382.906 576.275 383.835 577.071 384.764C577.601 385.294 578.132 385.692 578.795 386.09C584.234 389.805 591.132 389.407 594.051 385.029C596.572 381.182 595.112 375.61 591 371.896C590.469 371.365 589.939 370.967 589.408 370.569C588.877 370.304 588.347 369.906 587.683 369.508C582.51 366.987 576.805 367.651 574.152 371.498C572.029 374.284 572.56 378.263 574.683 381.713V381.845Z" fill="#FFCB9D"/>
    <path d="M574.682 381.845C575.346 382.906 576.274 383.835 577.07 384.764C581.315 380.121 585.959 375.743 590.867 371.896C590.336 371.365 589.806 370.967 589.275 370.569C588.744 370.304 588.214 369.906 587.551 369.508C582.377 366.987 576.672 367.651 574.019 371.498C571.897 374.284 572.427 378.263 574.55 381.713L574.682 381.845Z" fill="black" opacity="0.1"/>
    <path d="M555.18 325.863C542.577 304.504 540.189 283.677 529.046 282.085C528.25 282.085 527.321 282.085 526.525 282.085H446.531C448.123 298.933 449.98 315.913 451.705 332.894L453.828 353.721C454.889 366.059 456.215 378.131 457.409 390.468H519.892C520.954 378.131 522.015 366.059 523.076 353.721C523.872 345.098 524.535 336.343 525.331 327.587C526.525 330.904 527.587 333.955 528.781 336.873C530.77 342.18 532.893 347.221 535.414 352.793C536.21 354.65 537.138 356.64 538.199 358.63C542.975 368.314 549.874 380.386 559.69 393.652C570.834 384.1 581.977 374.549 593.121 364.997C572.824 351.333 561.68 336.741 555.18 325.73V325.863Z" fill="#DADCE0"/>
    <path d="M522.809 353.721C521.748 366.059 520.554 378.131 519.625 390.468H457.142C456.479 384.366 455.816 378.263 455.285 372.028C453.163 348.813 452.101 326.393 451.836 305.035C454.489 311.668 463.908 331.832 486.593 344.302C501.318 352.395 515.247 353.589 522.809 353.721Z" fill="black" opacity="0.1"/>
    <path d="M471.206 217.346C470.675 220.663 470.012 225.571 469.349 231.674C469.216 232.868 469.083 234.194 469.083 234.592C468.553 241.225 469.083 247.991 470.144 254.624C470.41 255.818 470.808 257.145 471.073 258.471C472.4 262.982 486.86 271.074 500.656 272.135C514.453 273.196 521.617 261.124 516.841 254.359C515.249 251.705 514.188 248.787 513.657 245.736C512.861 241.623 512.198 237.643 511.932 233.531C511.667 231.143 511.667 229.684 511.667 229.684L502.911 218.54L477.573 213.765C477.043 218.142 475.318 220.928 473.859 220.796C472.4 220.663 471.471 218.01 471.338 217.346" fill="#FFCB9D"/>
    <path d="M470.944 217.347C470.413 220.663 469.75 225.572 469.087 231.674C468.954 232.868 468.821 234.195 468.821 234.592C468.291 241.225 468.821 247.991 469.883 254.624C471.475 254.491 473.332 253.828 474.791 253.032C476.383 252.104 477.975 250.91 479.169 249.185C480.496 247.593 481.292 245.736 481.955 243.879C482.485 242.685 482.883 241.491 483.281 240.032C492.435 245.073 502.915 247.063 513.263 245.471C512.467 241.358 511.803 237.378 511.538 233.266C511.273 230.878 511.273 229.419 511.273 229.419L502.517 218.275L477.179 213.5C476.648 217.877 474.924 220.663 473.465 220.531C472.005 220.531 471.342 217.745 471.209 217.214" fill="black" opacity="0.1"/>
    <path d="M466.696 222.122C465.767 227.296 466.961 232.868 469.88 237.378C470.543 238.174 471.073 238.97 471.737 239.899C473.063 242.419 473.727 245.205 473.727 247.991C475.186 246.665 476.247 245.205 476.778 243.348C477.176 240.43 477.441 237.511 477.441 234.593C477.441 234.593 477.441 234.46 477.441 234.195C477.441 233.929 477.441 233.664 477.574 233.001C477.706 231.541 478.104 230.215 478.37 229.021C484.074 234.062 500.524 247.063 514.719 240.164C516.974 238.97 518.964 237.644 520.688 236.052C520.821 236.052 521.086 235.786 521.086 235.654C521.484 235.256 522.015 234.725 522.28 234.327H522.413C523.474 233.001 524.138 231.541 524.801 230.215V229.684C525.995 226.368 525.199 222.918 523.209 220.265C520.29 216.02 515.515 212.836 512.994 211.244C503.045 204.877 486.86 200.632 475.717 208.591C472.798 210.714 470.543 213.5 469.084 216.551C467.89 218.408 467.226 220.398 466.828 222.52" fill="#454C5E"/>
    <path d="M478.242 228.623C483.946 233.796 500.396 246.797 514.59 239.899C516.846 238.705 518.836 237.378 520.56 235.786C520.693 235.786 520.958 235.521 520.958 235.388C521.356 234.99 521.887 234.46 522.152 234.062H522.285C523.346 232.735 524.009 231.276 524.673 229.949C521.356 232.204 517.509 233.929 513.529 234.99C493.895 240.031 477.048 225.969 474.527 223.581L474.262 223.316C475.456 225.173 476.65 227.031 478.109 228.755" fill="black" opacity="0.5"/>
    <path d="M457.145 390.468L462.451 520.475H473.196L487.656 420.051L497.739 520.475H505.433L519.495 390.468H457.145Z" fill="#066FD1"/>
    <path d="M484.873 538.517L461.259 535.864C461.259 535.864 460.463 529.761 464.178 527.639C467.892 525.516 481.025 532.812 484.873 538.517Z" fill="#454C5E"/>
    <path d="M519.498 538.517L495.884 535.864C495.884 535.864 495.088 529.761 498.803 527.639C502.517 525.516 515.783 532.812 519.498 538.517Z" fill="#454C5E"/>
    <path d="M505.037 281.952L495.618 289.248H494.955C494.955 289.116 494.689 289.116 494.557 288.983L493.097 287.524L492.169 288.32C487.128 286.861 482.75 283.942 479.168 280.228H482.352C482.352 280.36 500.792 281.554 500.792 281.554L505.037 281.819V281.952Z" fill="#FFCB9D"/>
    <path d="M497.738 520.475L487.656 420.051L492.034 390.468H519.495L505.433 520.475H497.738Z" fill="black" opacity="0.1"/>
    <path d="M492.961 287.391L508.084 276.513L511.533 280.228L501.186 295.749L492.961 287.391Z" fill="#066FD1"/>
    <path d="M493.358 287.391L493.093 287.656L492.164 288.452L480.755 298.402L465.102 277.972L470.275 273.064L482.347 280.625L493.093 287.258L493.358 287.391Z" fill="#066FD1"/>
    <path d="M511.537 280.228L501.19 295.749L494.557 289.116L493.097 287.657L492.832 287.391L493.097 287.259L500.792 281.687L508.088 276.513L511.537 280.228Z" fill="black" opacity="0.1"/>
    <path d="M487.391 363.538C488.585 363.803 489.779 364.334 490.973 364.865C491.636 365.13 492.166 365.661 492.83 366.059C498.136 369.906 500.126 376.539 497.075 380.651C494.422 384.366 488.585 384.896 483.676 382.243C483.013 381.978 482.482 381.58 481.952 381.182C481.421 380.784 480.89 380.386 480.492 379.855C476.38 375.875 475.053 370.304 477.707 366.457C479.564 363.538 483.544 362.609 487.523 363.405L487.391 363.538Z" fill="#FFCB9D"/>
    <path d="M487.391 363.538C488.585 363.803 489.779 364.334 490.973 364.865C488.054 370.436 485.533 376.273 483.676 382.243C483.013 381.978 482.482 381.58 481.952 381.182C481.421 380.784 480.89 380.386 480.492 379.855C476.38 375.875 475.053 370.304 477.707 366.457C479.564 363.538 483.544 362.609 487.523 363.405L487.391 363.538Z" fill="black" opacity="0.1"/>
    <path d="M492.959 359.558C482.479 371.498 471.999 383.437 461.519 395.244C454.753 389.938 442.416 378.927 434.324 361.946C431.803 356.772 429.681 350.935 428.221 344.568C427.558 341.782 427.027 338.731 426.629 335.414C424.242 316.974 425.568 291.769 440.426 283.942C445.467 281.289 450.774 281.289 455.019 281.82C453.294 288.453 451.437 298.269 451.702 310.209C451.835 319.097 451.968 327.455 455.549 335.016C464.172 353.456 487.52 358.364 492.959 359.426V359.558Z" fill="#DADCE0"/>
    <path d="M434.327 361.946C432.072 357.701 429.684 352.129 428.092 345.231C427.296 341.649 426.898 338.465 426.633 335.414C428.092 336.343 433.001 339.527 435.388 346.027C438.174 353.854 434.99 360.619 434.327 361.946Z" fill="#454C5E"/>
    <path d="M538.071 358.763C536.877 356.773 535.683 354.517 534.622 352.13C531.969 346.691 530.112 341.649 528.652 337.006C530.244 337.935 533.959 340.456 536.347 345.231C539.398 351.334 538.469 357.038 538.071 358.763Z" fill="#454C5E"/>
    <path d="M504.638 262.053L497.74 261.257C496.811 261.257 495.882 261.788 495.484 262.584C484.606 260.726 477.575 252.369 474.657 248.389C477.045 247.328 478.636 244.94 478.636 242.154C478.636 239.368 475.585 235.256 471.738 235.256C467.891 235.256 464.84 238.307 464.84 242.154C464.84 246.001 467.891 249.052 471.738 249.052C475.585 249.052 472.401 249.052 472.799 249.052C475.585 253.165 483.014 262.451 495.219 264.573C495.219 265.767 496.015 266.696 497.076 266.829L503.975 267.625C505.169 267.757 506.23 266.961 506.362 265.767V264.573C506.628 263.38 505.832 262.318 504.638 262.186V262.053Z" fill="#066FD1"/>
    <path d="M122.842 382.111C124.169 387.682 120.587 388.876 122.842 394.05C123.904 396.57 125.23 397.764 126.291 398.958L105.862 403.867C105.066 402.54 104.403 401.346 103.739 398.428C102.413 392.856 105.199 392.193 103.739 386.621C102.28 381.049 99.6268 381.713 98.3002 376.141C96.9736 370.569 99.7595 369.906 98.3002 364.334C97.3716 360.62 95.1164 359.558 93.7898 357.701C93.6571 357.303 93.3918 356.64 93.5244 356.109C94.1877 351.333 107.852 347.221 113.025 351.731C113.689 352.262 114.883 353.589 115.811 355.446C116.74 357.303 117.005 358.895 117.271 359.956C118.597 365.528 115.811 366.191 117.271 371.763C118.73 377.335 121.383 376.671 122.71 382.243L122.842 382.111Z" fill="#A6A9B3"/>
    <path d="M133.188 392.723C133.188 392.723 133.188 392.723 133.188 392.856C133.188 392.193 133.188 391.662 133.188 391.662V392.723C133.276 392.723 133.276 392.723 133.188 392.723Z" fill="black" opacity="0.1"/>
    <path d="M587.812 431.195V432.256C587.812 435.44 590.2 437.96 593.119 437.96H700.441C702.696 437.96 704.553 436.501 705.349 434.511C705.615 433.848 705.747 433.185 705.747 432.389V431.327C705.747 428.144 703.359 425.623 700.441 425.623H593.119C590.2 425.623 587.812 428.144 587.812 431.327V431.195Z" fill="#A6A9B3"/>
    <path d="M688.369 425.623C687.573 429.47 686.114 433.848 683.328 437.96H700.441C702.696 437.96 704.554 436.501 705.35 434.511C705.35 433.45 705.615 432.521 705.748 431.46C705.748 428.144 703.36 425.623 700.441 425.623H688.369Z" fill="black" opacity="0.1"/>
    <path d="M587.816 431.195V432.256C587.816 435.44 590.204 437.96 593.123 437.96H611.43C608.909 434.511 606.123 430.133 604.133 425.623H592.99C590.071 425.623 587.684 428.144 587.684 431.327L587.816 431.195Z" fill="black" opacity="0.1"/>
    <path d="M587.812 481.473V482.534C587.812 485.718 590.2 488.239 593.119 488.239H700.441C702.696 488.239 704.553 486.779 705.349 484.79C705.615 484.126 705.747 483.463 705.747 482.667V481.606C705.747 478.422 703.359 475.901 700.441 475.901H593.119C590.2 475.901 587.812 478.422 587.812 481.606V481.473Z" fill="#A6A9B3"/>
    <path d="M688.369 475.769C687.573 479.616 686.114 483.993 683.328 488.106H700.441C702.696 488.106 704.554 486.647 705.35 484.657C705.35 483.595 705.615 482.667 705.748 481.606C705.748 478.289 703.36 475.769 700.441 475.769H688.369Z" fill="black" opacity="0.1"/>
    <path d="M587.816 481.473V482.534C587.816 485.718 590.204 488.239 593.123 488.239H611.43C608.909 484.79 606.123 480.412 604.133 475.901H592.99C590.071 475.901 587.684 478.422 587.684 481.606L587.816 481.473Z" fill="black" opacity="0.1"/>
    <path d="M706.011 539.843C709.46 539.843 712.246 537.058 712.114 533.608L711.185 403.071V394.713C711.185 391.264 708.267 388.611 704.95 388.611C704.287 388.611 703.623 388.611 703.093 388.876C700.572 389.672 698.848 392.06 698.848 394.846V406.122L699.909 533.741C699.909 537.19 702.695 539.843 706.144 539.843H706.011Z" fill="#DADCE0"/>
    <path d="M584.103 394.713L583.838 417.796L582.379 533.608C582.379 537.058 585.032 539.843 588.481 539.843C591.93 539.843 594.716 537.19 594.716 533.741L596.176 416.735L596.441 394.846C596.441 392.06 594.716 389.672 592.196 388.876C591.665 388.744 591.002 388.611 590.339 388.611C586.889 388.611 584.103 391.264 584.103 394.713Z" fill="#DADCE0"/>
    <path d="M698.719 394.846C698.719 402.805 698.719 410.765 698.851 418.725C699.515 416.337 700.974 412.224 704.556 408.244C706.811 405.724 709.332 403.999 711.056 402.938V394.58C711.056 391.131 708.138 388.478 704.821 388.478C704.556 388.478 703.76 388.478 702.964 388.743C699.647 389.937 698.719 394.315 698.719 394.713V394.846Z" fill="black" opacity="0.1"/>
    <path d="M584.101 394.713L583.836 417.796C587.816 417.133 591.928 416.867 596.173 416.735L596.439 394.846C596.439 392.06 594.714 389.672 592.194 388.876C591.663 388.744 591 388.611 590.336 388.611C586.887 388.611 584.101 391.264 584.101 394.713Z" fill="black" opacity="0.1"/>
    <path d="M541.516 385.825V395.774C541.516 399.356 543.771 402.407 546.557 402.407H756.16C758.946 402.407 761.201 399.489 761.201 395.774V385.825C761.201 382.243 758.946 379.192 756.16 379.192H546.557C543.771 379.192 541.516 382.11 541.516 385.825Z" fill="#A6A9B3"/>
    <path d="M714.638 357.303H600.152C597.234 357.303 594.979 354.782 595.244 351.864L602.806 285.401C603.071 282.881 605.193 281.023 607.714 281.023H722.2C725.118 281.023 727.373 283.544 727.108 286.463L719.546 352.925C719.281 355.446 717.159 357.303 714.638 357.303Z" fill="#454C5E"/>
    <path d="M670.063 349.874H657.328C655.203 349.874 653.48 351.597 653.48 353.721V382.907C653.48 385.031 655.203 386.754 657.328 386.754H670.063C672.188 386.754 673.91 385.031 673.91 382.907V353.721C673.91 351.597 672.188 349.874 670.063 349.874Z" fill="#454C5E"/>
    <path d="M685.847 381.58H641.539C639.487 381.58 637.824 383.243 637.824 385.294V388.478C637.824 390.53 639.487 392.193 641.539 392.193H685.847C687.899 392.193 689.562 390.53 689.562 388.478V385.294C689.562 383.243 687.899 381.58 685.847 381.58Z" fill="#454C5E"/>
    <path d="M350.62 151.017C349.957 151.017 349.426 150.751 348.895 150.354C347.834 149.425 347.834 147.7 348.763 146.639C366.937 127.138 354.467 101.8 353.936 100.739C353.273 99.412 353.804 97.9528 355.13 97.2895C356.457 96.6262 357.916 97.1568 358.58 98.4834C358.712 98.7487 373.172 128.067 352.61 150.354C352.079 150.884 351.283 151.149 350.62 151.149V151.017Z" fill="#066FD1"/>
    <path d="M380.331 171.181C379.137 171.181 378.076 170.65 377.413 169.589C376.351 167.997 376.749 165.742 378.341 164.548C409.118 143.853 400.23 105.647 399.832 104.055C399.302 102.198 400.496 100.208 402.485 99.6771C404.475 99.1465 406.333 100.34 406.863 102.33C406.863 102.728 417.343 146.904 382.454 170.518C381.79 170.916 381.127 171.181 380.464 171.181H380.331Z" fill="#066FD1"/>
    <path d="M417.612 205.275C416.02 205.275 414.428 204.479 413.499 203.152C411.908 200.897 412.571 197.713 414.826 196.254C457.41 167.599 445.205 114.535 444.675 112.413C444.011 109.759 445.736 107.106 448.389 106.443C451.042 105.78 453.695 107.371 454.359 110.157C454.491 110.821 458.073 125.811 455.818 144.914C452.767 170.518 440.562 191.213 420.398 204.744C419.602 205.275 418.541 205.54 417.612 205.54V205.275Z" fill="#066FD1"/>
    <path d="M119.131 395.774C119.131 395.774 100.16 385.958 107.987 366.855C115.814 347.752 124.172 340.323 128.151 357.436C131.999 374.549 119.263 395.774 119.263 395.774H119.131Z" fill="#066FD1"/>
    <path d="M130.935 398.295C130.404 406.387 128.547 416.602 122.843 424.296C118.067 430.797 108.383 430.797 103.607 424.296C102.28 422.439 101.086 420.449 100.158 418.327C93.1267 403.469 95.7799 384.631 95.7799 384.631H130.537C130.537 384.631 131.333 390.468 130.935 398.162V398.295Z" fill="#DADCE0"/>
    <path d="M100.16 418.592C113.161 414.082 124.172 405.193 130.937 398.428C130.407 406.52 128.549 416.735 122.845 424.429C118.069 430.929 108.385 430.929 103.609 424.429C102.283 422.572 101.089 420.582 100.16 418.459V418.592Z" fill="black" opacity="0.1"/>
    <path d="M628.013 374.814H559.693C558.447 374.814 557.438 375.824 557.438 377.07V379.988C557.438 381.234 558.447 382.243 559.693 382.243H628.013C629.258 382.243 630.268 381.234 630.268 379.988V377.07C630.268 375.824 629.258 374.814 628.013 374.814Z" fill="#454C5E"/>
    <path d="M727.108 286.463L719.546 352.925C719.281 355.446 717.159 357.303 714.638 357.303H600.152C597.234 357.303 594.979 354.783 595.244 351.864L596.57 340.057C660.645 329.975 703.097 299.065 722.996 281.156C725.516 281.687 727.241 283.942 726.975 286.463H727.108Z" fill="black" opacity="0.3"/>
    <path d="M190.897 287.656C190.632 288.983 189.969 289.514 189.969 289.514C189.438 290.044 188.775 290.177 187.979 290.177L156.671 287.789L152.161 287.524L115.281 284.738C113.954 284.738 112.893 283.677 112.761 282.35L111.699 274.258C113.291 257.145 119.791 254.093 121.383 253.43C124.037 252.369 126.424 253.032 143.405 258.869C156.936 263.512 157.865 263.91 159.987 264.175C166.09 264.839 174.978 263.778 186.652 255.155C189.571 272.666 191.428 285.534 191.03 287.391L190.897 287.656Z" fill="black" opacity="0.3"/>
</svg>
