<svg xmlns="http://www.w3.org/2000/svg" width="800" height="600" fill="none" viewBox="0 0 800 600">
    <path d="M149.035 303.858C149.035 350.102 197.937 383.702 219.6 421.151C241.851 459.764 247.323 518.587 285.818 540.983C323.214 562.659 376.475 538.444 422.719 538.444C468.964 538.444 522.198 562.659 559.62 540.983C598.116 518.731 603.561 459.764 625.839 421.151C647.502 383.755 696.403 350.22 696.403 303.858C696.403 257.495 647.384 224.013 625.839 186.564C603.587 147.951 598.116 88.9968 559.62 66.7319C522.198 45.056 468.964 69.2712 422.719 69.2712C376.475 69.2712 323.241 45.056 285.818 66.7319C247.205 88.9837 241.878 147.951 219.6 186.564C197.937 224.091 149.035 257.613 149.035 303.858Z" fill="black" opacity="0.07"/>
    <path d="M163.199 495.328C163.199 498.561 279.419 501.257 422.721 501.257C566.022 501.257 682.242 498.561 682.242 495.328C682.242 492.095 566.022 489.529 422.721 489.529C279.419 489.529 163.199 492.226 163.199 495.328Z" fill="#1D2535" opacity="0.5"/>
    <path d="M591.437 113.448H682.303C683.35 113.448 684.188 114.757 684.188 116.249C684.188 117.793 683.35 119.05 682.303 119.05H591.437C590.39 119.05 589.539 117.741 589.539 116.249C589.539 114.678 590.39 113.448 591.437 113.448Z" fill="#066FD1"/>
    <path d="M564.214 136.406H655.08C656.127 136.406 656.978 137.715 656.978 139.207C656.978 140.765 656.127 142.022 655.08 142.022H564.214C563.167 142.022 562.316 140.713 562.316 139.207C562.316 137.663 563.167 136.406 564.214 136.406Z" fill="#066FD1"/>
    <path d="M132.136 333.348H222.976C224.023 333.348 224.874 334.657 224.874 336.149C224.874 337.707 224.023 338.963 222.976 338.963H132.136C131.089 338.963 130.238 337.654 130.238 336.149C130.225 334.657 131.076 333.348 132.136 333.348Z" fill="#066FD1"/>
    <path d="M104.898 356.385H195.764C196.811 356.385 197.649 357.628 197.649 359.186C197.649 360.731 196.811 361.987 195.764 361.987H104.898C103.851 361.987 103 360.678 103 359.186C103 357.628 103.851 356.385 104.898 356.385Z" fill="#066FD1"/>
    <path d="M476.725 436.884L465.599 438.756C452.998 412.813 440.389 386.874 427.771 360.94L371.67 344.945C365.562 364.369 359.453 383.803 353.345 403.245L250.45 452.343C249.743 447.849 249.032 443.368 248.316 438.9L309.836 381.137L329.994 273.962L380.204 291.815L384.694 293.766L470.69 331.162L476.725 436.884Z" fill="#066FD1"/>
    <path d="M476.727 436.884L465.601 438.756C453 412.813 440.391 386.874 427.773 360.94L371.672 344.945L384.761 293.766L470.758 331.162L476.727 436.884Z" fill="black" opacity="0.1"/>
    <path d="M599.646 278.661C593.886 294.446 553.833 299.604 524.461 290.441C510.605 286.007 498.029 278.283 487.811 267.927C480.251 260.37 473.72 251.85 468.386 242.587C465.903 238.349 463.652 233.98 461.645 229.497C461.174 228.437 460.703 227.377 460.258 226.317L492.981 211.918L493.793 214.261C494.665 216.731 495.538 219.087 496.41 221.33C498.535 226.823 501.028 232.167 503.871 237.325C513.217 253.83 522.694 259.576 530.403 261.186C536.529 262.495 553.624 263.961 572.695 259.878C581.321 258.045 588.18 255.571 593.638 259.315C599.096 263.058 601.949 272.339 599.646 278.661Z" fill="#FFCB9D"/>
    <path d="M503.871 237.325C498.635 242.05 489.054 252.639 487.732 267.98C480.173 260.422 473.642 251.902 468.307 242.639C465.824 238.402 463.574 234.032 461.566 229.55L493.688 214.288C494.56 216.757 495.433 219.113 496.305 221.356C498.465 226.843 500.993 232.178 503.871 237.325Z" fill="black" opacity="0.1"/>
    <path d="M412.785 87.112C413.047 91.51 413.492 97.9761 414.264 105.921C414.474 107.675 414.631 109.22 414.683 109.717C415.836 118.391 418.07 126.886 421.332 135.006C422.013 136.616 422.707 138.134 423.466 139.613C426.319 145.032 447.027 151.393 464.828 149.129C482.63 146.865 488.834 129.39 480.967 122.087C478.19 119.124 475.973 115.683 474.423 111.929C472.212 106.991 470.349 101.904 468.847 96.7064C467.917 93.7482 467.446 91.7848 467.446 91.7848L453.192 79.8605L419.461 80.4102C419.945 86.0779 418.518 90.0309 416.725 90.4104C414.932 90.79 413.139 87.7402 412.785 87.112Z" fill="#FFCB9D"/>
    <path d="M412.785 87.112C413.047 91.51 413.492 97.9761 414.264 105.921C414.474 107.675 414.631 109.22 414.683 109.717C415.824 118.393 418.058 126.89 421.332 135.006C423.508 134.281 425.524 133.148 427.275 131.668C429.172 130.012 430.728 128.002 431.856 125.752C432.995 123.332 433.741 120.748 434.068 118.094C434.382 116.394 434.592 114.676 434.697 112.95C447.672 117.048 461.645 116.693 474.396 111.942C472.185 107.006 470.326 101.919 468.834 96.7195C467.904 93.7744 467.433 91.7979 467.433 91.7979L453.179 79.8867L419.435 80.4233C419.919 86.091 418.505 90.0439 416.712 90.4366C414.919 90.8293 413.139 87.7402 412.785 87.112Z" fill="black" opacity="0.1"/>
    <path d="M487.631 87.7533C486.624 90.0642 485.369 92.2587 483.887 94.298C482.062 96.9762 479.858 99.3748 477.343 101.419C466.047 110.686 448.271 111.484 432.302 103.12C429.592 101.704 427.001 100.072 424.554 98.2379H424.475C424.46 98.2612 424.452 98.2885 424.452 98.3164C424.452 98.3443 424.46 98.3715 424.475 98.3949C424.407 100.23 424.477 102.068 424.684 103.892C424.802 104.743 424.802 104.992 424.868 105.555L424.986 106.105C425.116 107.099 426.975 113.958 426.883 117.806C426.745 120.317 425.831 122.723 424.266 124.691C423.473 121.018 421.772 117.602 419.318 114.757C418.358 113.784 417.339 112.87 416.268 112.021C411.178 107.012 408.088 100.321 407.577 93.1985C407.405 90.2806 407.683 87.3535 408.401 84.5203C408.768 82.6485 410.522 75.8944 414.684 72.1378C423.284 64.3758 444.266 68.0409 454.659 71.3655C456.478 71.9676 459.633 73.0933 462.277 72.321C462.79 72.1794 463.27 71.9393 463.691 71.6142C466.426 69.5592 466.544 64.8732 465.719 61.902C464.123 56.1689 457.722 52.0326 449.462 51.1949C467.172 46.7446 483.809 55.2264 488.73 68.3288C490.941 74.6951 490.546 81.6772 487.631 87.7533Z" fill="#454C5E"/>
    <path d="M487.631 87.7533C486.624 90.0642 485.369 92.2587 483.887 94.2979C482.062 96.9762 479.858 99.3748 477.342 101.419C466.046 110.686 448.271 111.484 432.302 103.12C428.375 100.659 425.116 98.552 424.553 98.2378H424.475L419.082 93.6173C427.731 97.6729 437.045 100.125 446.57 100.856C454.999 101.484 466.727 102.4 478.128 95.62C481.673 93.4911 484.877 90.839 487.631 87.7533Z" fill="black" opacity="0.5"/>
    <path d="M505.823 221.146C495.291 235.611 482.032 247.874 466.791 257.247C464.461 252.862 462.144 248.084 459.919 242.848C458.243 238.922 456.777 235.099 455.495 231.461C452.17 237.652 447.039 247.011 440.272 258.516C436.921 264.223 437.209 263.752 435.481 266.632C430.01 275.794 427.627 281.422 424.879 287.025C423.272 290.273 421.462 293.416 419.46 296.436C417.354 299.601 415.091 302.659 412.679 305.598C398.756 304.309 384.919 302.211 371.239 299.316C349.753 294.778 328.724 288.298 308.41 279.956C317.726 273.128 326.174 265.19 333.568 256.317C339.799 248.868 345.267 240.813 349.89 232.272C351.88 228.725 354.066 224.68 356.435 220.138C360.362 212.39 364.799 203.24 369.236 192.769C369.216 192.779 369.193 192.784 369.171 192.784C369.148 192.784 369.125 192.779 369.105 192.769C367.456 192.036 372.22 159.142 390.336 152.336C395.572 150.372 400.284 151.315 409.761 153.2C420.249 155.286 430.317 159.103 439.552 164.496C446.921 167.114 452.994 169.732 457.877 171.917C468.113 176.564 473.388 180.007 475.089 181.263C492.092 193.659 501.032 209.863 505.823 221.146Z" fill="#DADBE0"/>
    <path d="M412.68 305.572C398.757 304.286 384.921 302.197 371.239 299.316C366.697 298.36 359.891 296.829 351.749 294.643C336.996 290.663 322.508 285.758 308.371 279.957C317.686 273.128 326.135 265.19 333.529 256.317C339.759 248.868 345.228 240.813 349.851 232.272C351.841 228.725 354.027 224.68 356.396 220.138C358.024 234.755 362.492 248.912 369.55 261.815C379.679 280.052 394.59 295.181 412.68 305.572Z" fill="black" opacity="0.1"/>
    <path d="M457.917 171.944C452.616 175.87 442.328 176.708 431.542 173.541C417.955 169.614 408.492 160.621 409.683 153.187C426.74 156.549 443.069 162.899 457.917 171.944Z" fill="#FFCB9D"/>
    <path d="M607.537 229.995L566.484 233.378C555.62 234.273 547.538 243.806 548.433 254.671L551.816 295.724C552.711 306.588 562.244 314.67 573.108 313.775L614.161 310.392C625.026 309.497 633.108 299.964 632.213 289.1L628.83 248.047C627.935 237.182 618.402 229.1 607.537 229.995Z" fill="#066FD1"/>
    <path d="M602.921 284.917L603.537 265.859L596.809 260.179L593.772 257.561L575.094 261.357C574.099 268.189 572.018 282.3 571.69 284.394C571.309 286.334 571.654 288.346 572.659 290.048L584.322 276.278C583.711 275.204 583.499 273.948 583.726 272.733C583.952 271.518 584.6 270.422 585.557 269.639C586.513 268.856 587.716 268.437 588.952 268.455C590.188 268.474 591.377 268.929 592.309 269.74C593.242 270.552 593.857 271.667 594.047 272.888C594.236 274.109 593.987 275.359 593.344 276.414C592.701 277.47 591.706 278.264 590.533 278.656C589.361 279.048 588.088 279.012 586.94 278.556L575.355 292.208C577.101 292.754 578.979 292.708 580.696 292.077C582.633 291.423 596.285 287.064 602.856 284.957L602.921 284.917Z" fill="white"/>
    <path d="M614.07 261.54L608.18 265.755L602.486 260.925L593.441 253.254L595.968 246.199L603.01 252.155L614.07 261.54Z" fill="white"/>
    <path d="M505.717 455.877L469.459 468.534C469.459 468.534 463.307 459.83 466.933 453.939C470.559 448.049 495.585 449.934 505.717 455.877Z" fill="#454C5E"/>
    <path d="M225.921 483.678L225.41 445.274C225.41 445.274 235.633 442.211 240.07 447.513C244.507 452.814 234.769 476.021 225.921 483.678Z" fill="#454C5E"/>
    <path d="M452.576 184.981L442.968 195.373L420.101 220.152L404.996 185.818L437.929 185.242L452.576 184.981Z" fill="#A6A9B3"/>
    <path d="M404.945 185.84L420.054 220.177L251.257 294.449C249.957 295.021 248.484 295.053 247.16 294.539C245.837 294.024 244.772 293.005 244.2 291.705L233.262 266.845C232.728 265.631 232.698 264.255 233.178 263.019C233.659 261.783 234.611 260.789 235.825 260.255L404.945 185.84Z" fill="#454C5E"/>
    <path d="M411.013 198.815L408.066 192.118L234.022 268.699L236.968 275.397L411.013 198.815Z" fill="white"/>
    <path d="M416.791 211.933L413.844 205.236L239.799 281.817L242.746 288.515L416.791 211.933Z" fill="white"/>
    <path d="M452.576 184.981L439.905 198.685L432.602 185.334L452.576 184.981Z" fill="#454C5E"/>
    <path d="M392.508 232.285C392.557 234.208 392.487 236.131 392.299 238.045C392.299 238.045 392.089 240.361 391.657 242.56C391.003 245.885 383.215 264.511 363.489 271.946C351.578 276.449 332.297 277.98 320.713 267.247C299.496 247.613 321.276 202.677 328.685 193.004C331.252 189.715 334.061 186.622 337.088 183.75C340.94 180.152 345.166 176.975 349.693 174.274C353.057 176.97 356.578 179.954 360.164 183.292C364.51 187.337 368.358 191.329 371.735 195.072C359.798 209.183 358.646 210.688 358.646 210.688C351.015 220.78 341.63 233.188 345.727 240.401C348.266 244.864 355.819 246.945 361.814 245.728C363.967 245.266 366.006 244.376 367.809 243.11H367.887L392.508 232.285Z" fill="#FFCB9D"/>
    <path d="M392.508 232.285C392.598 235.731 392.312 239.176 391.657 242.56C381.487 239.655 368.96 242.848 367.887 243.123L392.508 232.285Z" fill="black" opacity="0.1"/>
    <path d="M371.67 195.138C371.759 197.044 371.196 198.923 370.074 200.465C369.756 200.858 369.396 201.213 369 201.525C367.691 202.638 365.676 205.046 362.901 210.688C359.198 203.804 353.268 198.381 346.081 195.308C340.567 193.024 334.549 192.234 328.633 193.017C331.229 189.752 334.036 186.661 337.036 183.763C340.888 180.165 345.114 176.988 349.641 174.287C353.005 176.983 356.526 179.967 360.113 183.305C364.498 187.337 368.346 191.329 371.67 195.138Z" fill="black" opacity="0.1"/>
    <path d="M379.2 201.329C381.818 200.243 394.907 190.57 398.336 186.996L393.507 151.236C392.564 151.38 391.687 151.524 390.889 151.668C390.889 151.668 389.789 151.852 388.742 152.061C380.387 153.55 372.166 155.712 364.16 158.527C359.396 160.399 354.76 162.585 350.286 165.072C345.05 167.821 340.744 170.438 337.484 172.546C343.471 178.026 349.496 183.628 355.561 189.352C360.945 194.431 366.233 199.488 371.425 204.523L379.2 201.329Z" fill="#DADBE0"/>
    <path d="M457.917 171.944C452.616 175.87 442.328 176.708 431.542 173.541C417.955 169.614 408.492 160.621 409.683 153.187C426.74 156.549 443.069 162.899 457.917 171.944Z" fill="black" opacity="0.1"/>
</svg>
