<svg xmlns="http://www.w3.org/2000/svg" width="800" height="600" fill="none" viewBox="0 0 800 600">
    <path d="M122 300C122 346.962 171.679 381.151 193.678 419.132C216.311 458.355 221.837 518.115 260.97 540.851C298.963 562.85 353.055 538.263 400.03 538.263C447.004 538.263 501.083 562.85 539.077 540.851C578.171 518.231 583.709 458.355 606.368 419.132C628.367 381.151 678.047 347.091 678.047 300C678.047 252.909 628.251 218.862 606.368 180.868C583.748 141.645 578.21 81.769 539.077 59.1487C501.083 37.1496 446.991 61.7368 400.03 61.7368C353.068 61.7368 298.963 37.1496 260.97 59.1487C221.759 81.769 216.35 141.645 193.678 180.868C171.679 218.979 122 253.038 122 300Z" fill="black" opacity="0.07"/>
    <path d="M159.645 508.901C159.645 512.071 255.729 514.698 374.2 514.698C492.672 514.698 588.756 512.11 588.756 508.901C588.756 505.692 492.672 503.246 374.2 503.246C255.729 503.246 159.645 505.834 159.645 508.901Z" fill="#1D2535" opacity="0.5"/>
    <path d="M625.974 232.734H579.672C577.044 232.738 574.525 233.783 572.667 235.642C570.809 237.5 569.763 240.019 569.76 242.647V289C569.763 291.628 570.809 294.148 572.667 296.006C574.525 297.864 577.044 298.91 579.672 298.913H625.974C628.602 298.91 631.121 297.864 632.979 296.006C634.838 294.148 635.883 291.628 635.887 289V242.647C635.883 240.019 634.838 237.5 632.979 235.642C631.121 233.783 628.602 232.738 625.974 232.734ZM629.274 289C629.274 289.876 628.926 290.715 628.307 291.334C627.688 291.953 626.849 292.3 625.974 292.3H579.672C578.797 292.3 577.958 291.953 577.339 291.334C576.72 290.715 576.372 289.876 576.372 289V242.647C576.372 242.214 576.458 241.785 576.624 241.384C576.789 240.984 577.033 240.62 577.339 240.314C577.645 240.007 578.009 239.764 578.41 239.598C578.81 239.433 579.239 239.347 579.672 239.347H625.974C626.407 239.347 626.836 239.433 627.237 239.598C627.637 239.764 628.001 240.007 628.307 240.314C628.614 240.62 628.857 240.984 629.023 241.384C629.188 241.785 629.274 242.214 629.274 242.647V289Z" fill="#066FD1"/>
    <path d="M586.296 272.411C585.862 272.411 585.431 272.496 585.03 272.663C584.629 272.83 584.265 273.074 583.958 273.382C583.651 273.689 583.409 274.055 583.244 274.457C583.079 274.858 582.994 275.289 582.996 275.723V282.336C583.049 283.177 583.42 283.967 584.034 284.544C584.649 285.121 585.46 285.442 586.302 285.442C587.145 285.442 587.956 285.121 588.571 284.544C589.185 283.967 589.556 283.177 589.609 282.336V275.723C589.609 274.845 589.26 274.002 588.638 273.381C588.017 272.76 587.175 272.411 586.296 272.411Z" fill="#066FD1"/>
    <path d="M596.207 259.237C595.331 259.237 594.49 259.584 593.869 260.203C593.249 260.821 592.898 261.66 592.895 262.537V282.388C592.947 283.229 593.318 284.018 593.933 284.595C594.547 285.172 595.358 285.494 596.201 285.494C597.044 285.494 597.855 285.172 598.469 284.595C599.083 284.018 599.455 283.229 599.507 282.388V262.485C599.494 261.619 599.14 260.793 598.523 260.185C597.905 259.577 597.074 259.237 596.207 259.237Z" fill="#066FD1"/>
    <path d="M606.12 265.798C605.245 265.798 604.406 266.146 603.787 266.764C603.168 267.383 602.82 268.223 602.82 269.098V282.336C602.873 283.177 603.244 283.967 603.858 284.544C604.473 285.121 605.284 285.442 606.127 285.442C606.969 285.442 607.781 285.121 608.395 284.544C609.009 283.967 609.38 283.177 609.433 282.336V269.098C609.433 268.663 609.347 268.233 609.181 267.832C609.014 267.431 608.77 267.066 608.462 266.76C608.154 266.453 607.789 266.21 607.387 266.045C606.985 265.88 606.555 265.796 606.12 265.798Z" fill="#066FD1"/>
    <path d="M563.328 333.348H528.647C527.671 333.348 526.705 333.54 525.804 333.913C524.903 334.287 524.084 334.834 523.394 335.524C522.705 336.213 522.157 337.032 521.784 337.933C521.411 338.835 521.219 339.801 521.219 340.776V375.457C521.219 377.427 522.001 379.316 523.394 380.709C524.787 382.102 526.677 382.885 528.647 382.885H563.328C565.298 382.885 567.187 382.102 568.58 380.709C569.973 379.316 570.756 377.427 570.756 375.457V340.763C570.752 338.795 569.968 336.909 568.575 335.519C567.183 334.129 565.295 333.348 563.328 333.348ZM565.799 375.457C565.799 376.114 565.539 376.744 565.076 377.209C564.613 377.675 563.984 377.938 563.328 377.942H528.647C527.988 377.942 527.356 377.68 526.89 377.214C526.424 376.748 526.162 376.116 526.162 375.457V340.763C526.166 340.106 526.429 339.478 526.894 339.014C527.36 338.551 527.99 338.291 528.647 338.291H563.328C563.982 338.295 564.609 338.556 565.072 339.019C565.534 339.482 565.796 340.109 565.799 340.763V375.457Z" fill="#A6A9B3"/>
    <path d="M526.192 263.738C527.661 265.132 528.539 267.037 528.645 269.059V296.804C528.644 298.829 527.867 300.776 526.473 302.245C525.079 303.714 523.174 304.591 521.152 304.697H493.407C491.383 304.697 489.435 303.92 487.966 302.525C486.498 301.131 485.62 299.227 485.514 297.205V269.46C485.514 267.435 486.292 265.488 487.686 264.019C489.08 262.55 490.984 261.672 493.006 261.566H520.751C522.776 261.567 524.724 262.344 526.192 263.738Z" fill="#454C5E"/>
    <path d="M538.558 368.029H533.601C533.261 368.004 532.919 368.05 532.597 368.163C532.275 368.277 531.98 368.455 531.73 368.688C531.48 368.92 531.28 369.202 531.144 369.515C531.008 369.828 530.938 370.166 530.938 370.507C530.938 370.848 531.008 371.186 531.144 371.499C531.28 371.812 531.48 372.094 531.73 372.326C531.98 372.559 532.275 372.737 532.597 372.851C532.919 372.964 533.261 373.01 533.601 372.985H538.558C539.184 372.94 539.77 372.659 540.197 372.199C540.625 371.74 540.863 371.135 540.863 370.507C540.863 369.879 540.625 369.274 540.197 368.815C539.77 368.355 539.184 368.074 538.558 368.029Z" fill="#A6A9B3"/>
    <path d="M548.457 360.588H533.601C533.261 360.564 532.919 360.609 532.597 360.723C532.275 360.836 531.98 361.015 531.73 361.247C531.48 361.48 531.28 361.761 531.144 362.074C531.008 362.387 530.938 362.725 530.938 363.066C530.938 363.408 531.008 363.745 531.144 364.058C531.28 364.371 531.48 364.653 531.73 364.885C531.98 365.118 532.275 365.296 532.597 365.41C532.919 365.523 533.261 365.569 533.601 365.544H548.457C548.798 365.569 549.14 365.523 549.462 365.41C549.784 365.296 550.079 365.118 550.329 364.885C550.579 364.653 550.778 364.371 550.914 364.058C551.051 363.745 551.121 363.408 551.121 363.066C551.121 362.725 551.051 362.387 550.914 362.074C550.778 361.761 550.579 361.48 550.329 361.247C550.079 361.015 549.784 360.836 549.462 360.723C549.14 360.609 548.798 360.564 548.457 360.588Z" fill="#A6A9B3"/>
    <path d="M533.601 358.116H543.501C543.841 358.141 544.183 358.095 544.505 357.982C544.827 357.868 545.122 357.69 545.372 357.457C545.622 357.225 545.822 356.943 545.958 356.63C546.094 356.317 546.165 355.98 546.165 355.638C546.165 355.297 546.094 354.959 545.958 354.646C545.822 354.333 545.622 354.052 545.372 353.819C545.122 353.587 544.827 353.408 544.505 353.295C544.183 353.181 543.841 353.136 543.501 353.16H533.601C533.261 353.136 532.919 353.181 532.597 353.295C532.275 353.408 531.98 353.587 531.73 353.819C531.48 354.052 531.28 354.333 531.144 354.646C531.008 354.959 530.938 355.297 530.938 355.638C530.938 355.98 531.008 356.317 531.144 356.63C531.28 356.943 531.48 357.225 531.73 357.457C531.98 357.69 532.275 357.868 532.597 357.982C532.919 358.095 533.261 358.141 533.601 358.116Z" fill="#A6A9B3"/>
    <path d="M522.189 270.198V278.829C522.169 279.367 521.95 279.878 521.573 280.263C521.197 280.647 520.69 280.878 520.153 280.908C519.615 280.939 519.086 280.768 518.668 280.429C518.25 280.09 517.973 279.607 517.893 279.075V270.198C517.909 269.659 518.127 269.146 518.503 268.76C518.878 268.373 519.385 268.141 519.923 268.108C520.461 268.076 520.991 268.246 521.411 268.584C521.83 268.923 522.107 269.406 522.189 269.939V270.198Z" fill="#DADBE0"/>
    <path d="M509.248 270.198V274.507C509.231 275.046 509.013 275.559 508.638 275.945C508.262 276.332 507.755 276.564 507.217 276.596C506.68 276.629 506.149 276.459 505.73 276.12C505.31 275.782 505.033 275.299 504.951 274.766V274.507V270.198C504.945 269.643 505.153 269.107 505.531 268.701C505.909 268.295 506.429 268.05 506.983 268.017C507.537 267.983 508.082 268.164 508.506 268.522C508.93 268.88 509.2 269.387 509.261 269.939L509.248 270.198Z" fill="#DADBE0"/>
    <path d="M515.718 270.198V283.138C515.699 283.676 515.479 284.188 515.103 284.572C514.726 284.957 514.219 285.187 513.682 285.218C513.145 285.248 512.615 285.077 512.197 284.738C511.779 284.399 511.503 283.916 511.422 283.384V283.138V270.198C511.416 269.643 511.623 269.107 512.002 268.701C512.38 268.295 512.9 268.05 513.453 268.017C514.007 267.983 514.553 268.164 514.977 268.522C515.401 268.88 515.671 269.387 515.731 269.939L515.718 270.198Z" fill="#DADBE0"/>
    <path d="M535.711 142.939V198.714C535.701 201.607 534.547 204.379 532.501 206.425C530.455 208.471 527.683 209.625 524.79 209.635C518.051 210.193 511.267 209.518 504.77 207.643C501.461 206.761 498.302 205.387 495.401 203.566C491.491 200.965 488.271 197.452 486.019 193.33C480.093 182.59 485.476 174.528 479.549 168.355C474.916 163.58 466.893 163.075 458.158 164.473V142.939C458.168 140.046 459.322 137.274 461.368 135.228C463.414 133.182 466.187 132.028 469.08 132.018H524.854C527.737 132.045 530.492 133.206 532.524 135.25C534.556 137.295 535.701 140.057 535.711 142.939Z" fill="#066FD1"/>
    <path d="M503.812 139.368C502.93 139.368 502.084 139.718 501.46 140.342C500.837 140.966 500.486 141.812 500.486 142.694V149.306C500.486 150.188 500.837 151.034 501.46 151.658C502.084 152.282 502.93 152.632 503.812 152.632C504.694 152.632 505.54 152.282 506.164 151.658C506.787 151.034 507.138 150.188 507.138 149.306V142.694C507.138 141.812 506.787 140.966 506.164 140.342C505.54 139.718 504.694 139.368 503.812 139.368Z" fill="white"/>
    <path d="M513.74 139.368C513.302 139.366 512.868 139.451 512.463 139.617C512.058 139.784 511.69 140.028 511.38 140.337C511.069 140.646 510.823 141.014 510.655 141.418C510.487 141.822 510.401 142.256 510.401 142.694V162.532C510.373 162.987 510.438 163.443 510.592 163.872C510.747 164.301 510.988 164.693 511.3 165.026C511.612 165.358 511.989 165.623 512.408 165.804C512.826 165.985 513.277 166.078 513.733 166.078C514.189 166.078 514.64 165.985 515.059 165.804C515.477 165.623 515.854 165.358 516.166 165.026C516.479 164.693 516.719 164.301 516.874 163.872C517.029 163.443 517.094 162.987 517.065 162.532V142.694C517.065 141.812 516.715 140.966 516.091 140.342C515.468 139.718 514.622 139.368 513.74 139.368Z" fill="white"/>
    <path d="M523.65 139.368C522.768 139.368 521.922 139.718 521.298 140.342C520.675 140.966 520.324 141.812 520.324 142.694V155.919C520.377 156.767 520.751 157.563 521.37 158.144C521.989 158.726 522.807 159.05 523.656 159.05C524.506 159.05 525.324 158.726 525.943 158.144C526.562 157.563 526.936 156.767 526.989 155.919V142.694C526.985 141.81 526.632 140.964 526.006 140.341C525.38 139.718 524.533 139.368 523.65 139.368Z" fill="white"/>
    <path d="M273.133 300L252.713 382.639L194.92 428.552C196.434 431.71 197.961 434.854 199.475 438.012L277.313 408.378C286.147 389.726 294.99 371.083 303.841 352.448L337.151 405.013C338.013 433.483 338.876 461.922 339.739 490.331L349.237 491.237C358.632 460.723 368.018 430.217 377.396 399.721L347.943 334.047L333.359 327.473L318.775 320.899L273.133 300Z" fill="#DADBE0"/>
    <path d="M182.807 459.7L180.943 433.522C180.943 433.522 187.478 431.218 190.584 434.919C193.69 438.62 188.229 454.33 182.82 459.7" fill="#454C5E"/>
    <path d="M362.422 510.855L336.359 507.84C336.359 507.84 335.298 500.994 339.517 498.613C343.735 496.232 358.203 504.54 362.422 510.855Z" fill="#454C5E"/>
    <path d="M323.809 124.654C324.624 128.42 325.737 134.14 327.186 140.765L328.105 144.117C330.161 151.551 333.075 158.721 336.788 165.482L339.066 169.274C342.055 173.648 360.922 176.792 376.192 172.806C391.462 168.821 394.685 152.865 387.127 147.391C384.434 145.123 382.16 142.398 380.411 139.342C377.886 135.308 375.721 131.06 373.941 126.647C372.815 124.059 372.155 122.558 372.155 122.558L358.412 114.004L329.192 118.43C330.24 123.36 329.334 126.997 327.898 127.372C326.461 127.747 324.093 125.081 323.809 124.654Z" fill="#FFCB9D"/>
    <path d="M380.41 139.251C375.134 142.186 369.397 144.204 363.445 145.217C357.578 146.182 351.587 146.117 345.742 145.023C345.901 146.514 345.931 148.017 345.833 149.513C345.862 151.857 345.557 154.192 344.927 156.449C344.212 158.491 343.104 160.372 341.666 161.988C340.366 163.505 338.744 164.712 336.917 165.521C333.186 158.77 330.276 151.597 328.247 144.156L327.315 140.804C325.736 134.192 324.623 128.472 323.938 124.693C324.222 125.068 326.06 128.226 327.6 127.708C327.858 127.553 328.234 127.398 328.35 127.113C329.308 125.819 329.722 122.791 328.881 118.753H329.269L358.114 114.496L371.87 123.192C371.87 123.192 373.5 127.074 373.655 127.268C374.664 129.354 375.792 131.381 377.033 133.337V133.48L380.41 139.251Z" fill="black" opacity="0.1"/>
    <path d="M392.845 109.488C392.412 111.197 391.638 112.8 390.568 114.202C389.498 115.603 388.155 116.773 386.621 117.64C385.754 122.7 383.414 127.391 379.892 131.125C370.497 140.843 352.626 141.982 335.725 133.545L335.596 133.687V133.816C335.855 135.382 335.971 136.961 336.346 138.384C336.346 138.915 336.553 139.29 336.592 139.821V140.338C337.706 143.545 338.571 146.833 339.18 150.173C339.253 152.314 338.685 154.427 337.55 156.242C336.554 153.155 334.77 150.38 332.374 148.193C331.497 147.492 330.567 146.86 329.591 146.304C324.656 142.604 321.338 137.144 320.326 131.06C320.132 130.243 320.066 129.4 320.132 128.562L319.989 128.446C317.345 127.738 315.088 126.012 313.713 123.645C312.338 121.279 311.957 118.463 312.652 115.816C313.26 113.785 314.455 111.979 316.088 110.627C317.721 109.275 319.718 108.438 321.827 108.22C321.265 106.579 321.033 104.844 321.144 103.113C321.254 101.383 321.706 99.6912 322.471 98.1354C323.237 96.5797 324.303 95.1905 325.607 94.0474C326.911 92.9044 328.427 92.03 330.07 91.4745C332.575 90.6339 335.265 90.5128 337.834 91.1251C340.177 91.7037 342.297 92.9595 343.93 94.7355C345.224 91.5257 347.736 88.9583 350.917 87.5934C354.098 86.2285 357.689 86.177 360.908 87.4499C363.195 88.3556 365.177 89.8945 366.621 91.8862C368.064 93.8779 368.911 96.2399 369.06 98.6954C370.803 96.0793 373.419 94.1678 376.441 93.3025C379.462 92.4371 382.694 92.6741 385.557 93.9712C388.42 95.2683 390.729 97.541 392.071 100.383C393.413 103.226 393.701 106.453 392.884 109.488H392.845Z" fill="#454C5E"/>
    <path d="M386.623 117.64C385.757 122.7 383.416 127.391 379.894 131.125C370.499 140.843 352.628 141.982 335.728 133.544L335.598 133.687V133.816C333.52 132.55 331.516 131.168 329.594 129.675L329.736 129.792C333.618 131.086 357.08 140.054 376.413 127.307C380.279 124.612 383.721 121.354 386.623 117.64Z" fill="black" opacity="0.5"/>
    <path d="M407.21 245.106C403.056 220.519 394.464 203.696 389.611 201.845L389.106 201.664H388.809C386.272 200.779 383.678 200.07 381.044 199.542C379.116 199.192 377.511 198.998 376.45 198.908L362.06 195.698C360.926 195.205 359.909 194.476 359.079 193.559C358.249 192.641 357.624 191.558 357.246 190.38C356.77 188.675 356.847 186.862 357.466 185.204L332.051 178.203C330.944 180.212 329.231 181.82 327.155 182.796C325.079 183.772 322.748 184.067 320.495 183.638L295.779 179.652C292.768 195.06 289.877 210.222 286.849 225.656L270.699 308.308L348.408 334.771L362.423 289L367.922 271L407.21 245.106Z" fill="#066FD1"/>
    <path d="M362.423 289L348.408 334.784L270.699 308.321L286.836 225.591L293.785 216.882C293.785 216.882 327.91 267.765 362.423 289Z" fill="black" opacity="0.1"/>
    <path d="M303.801 352.448L319.33 324.833L348.394 334.733L377.304 399.721L349.145 491.224L339.646 490.331L337.11 405.013L303.801 352.448Z" fill="black" opacity="0.2"/>
    <path d="M458.093 195.595L452.309 208.328L438.527 238.713L413.668 211.188L444.389 200.409L458.093 195.595Z" fill="#A6A9B3"/>
    <path d="M413.59 211.157L438.45 238.679L303.112 360.923C302.071 361.864 300.698 362.352 299.296 362.281C297.894 362.21 296.578 361.585 295.637 360.543L277.682 340.664C276.803 339.692 276.347 338.409 276.413 337.1C276.48 335.791 277.064 334.561 278.037 333.683L413.633 211.205L413.59 211.157Z" fill="#454C5E"/>
    <path d="M423.366 221.513L418.518 216.145L279.012 342.153L283.861 347.521L423.366 221.513Z" fill="white"/>
    <path d="M432.862 232.029L428.014 226.661L288.509 352.669L293.357 358.037L432.862 232.029Z" fill="white"/>
    <path d="M458.093 195.595L450.458 212.418L439.445 202.182L458.093 195.595Z" fill="#454C5E"/>
    <path d="M403.833 273.394C402.976 272.322 402.218 271.174 401.568 269.965C401.244 269.255 400.967 268.525 400.74 267.778C398.592 260.919 401.193 253.944 406.525 252.249C411.326 250.761 416.644 254.048 419.258 259.573C419.599 260.221 419.872 260.902 420.074 261.605C420.242 262.304 420.397 262.99 420.565 263.676C421.588 269.809 419.077 275.581 414.276 277.069C410.73 278.454 406.706 276.759 403.833 273.394Z" fill="#FFCB9D"/>
    <path d="M403.833 273.394C402.976 272.322 402.218 271.174 401.568 269.965C407.733 266.994 413.649 263.532 419.258 259.612C419.598 260.26 419.872 260.941 420.073 261.644C420.242 262.343 420.397 263.029 420.565 263.714C421.588 269.848 419.077 275.62 414.276 277.108C410.73 278.454 406.706 276.759 403.833 273.394Z" fill="black" opacity="0.1"/>
    <path d="M328.986 287.37C330.459 288.053 331.837 288.923 333.088 289.958C333.805 290.558 334.479 291.207 335.107 291.899C340.853 298.162 341.577 306.975 336.712 311.427C332.338 315.503 324.936 314.623 319.319 309.9C318.622 309.338 317.969 308.723 317.365 308.062C316.768 307.416 316.223 306.724 315.735 305.991C311.465 299.974 311.322 292.494 315.735 288.418C319.112 285.506 324.25 285.248 328.986 287.37Z" fill="#FFCB9D"/>
    <path d="M328.986 287.37C330.459 288.053 331.837 288.923 333.088 289.958C328.036 296.274 323.435 302.937 319.319 309.9C318.622 309.338 317.969 308.723 317.365 308.062C316.768 307.416 316.223 306.724 315.735 305.991C311.465 299.974 311.322 292.494 315.735 288.418C319.112 285.506 324.25 285.248 328.986 287.37Z" fill="black" opacity="0.1"/>
    <path d="M295.774 179.649C292.539 179.002 282.415 180.254 279.689 181.163C256.525 188.928 239.573 219.002 244.141 244.948C245.578 253.165 248.839 258.458 255.218 268.927C263.666 282.766 274.278 295.161 286.651 305.64C303.195 302.256 318.66 294.877 331.698 284.145C322.104 279.475 312.881 274.081 304.108 268.008C288.165 256.957 280.155 251.185 278.292 241.557C277.696 238.491 276.609 229.264 286.056 216.893L291.892 213.295L295.774 179.649Z" fill="#066FD1"/>
    <path d="M368.621 301.85C369.168 304.169 370.351 306.289 372.037 307.971C372.788 308.709 376.23 311.854 385.263 311.388C397.647 310.78 406.835 304.154 410.432 301.488C415 298.124 423.088 291.964 427.397 280.693C429.049 276.349 429.967 271.762 430.115 267.118L397.362 272.1L368.621 301.85Z" fill="#066FD1"/>
</svg>
