<svg xmlns="http://www.w3.org/2000/svg" width="800" height="600" fill="none" viewBox="0 0 800 600">
    <path d="M689.59 299.89C689.59 346.92 639.816 381.122 617.829 419.005C595.194 458.174 589.742 518.056 550.561 540.853C512.515 562.839 458.423 538.283 411.543 538.283C364.663 538.283 310.409 562.839 272.588 540.853C233.42 518.218 227.955 458.336 205.32 419.005C183.333 380.96 133.559 346.92 133.559 299.89C133.559 252.861 183.271 218.659 205.207 180.838C227.842 141.67 233.308 81.7876 272.476 59.1526C310.521 37.1539 364.451 61.723 411.493 61.723C458.535 61.723 512.628 37.1539 550.511 59.1526C589.692 81.7876 595.145 141.67 617.78 180.838C639.766 218.883 689.541 252.911 689.541 299.953" fill="black" opacity="0.07"/>
    <path d="M110 511.742C110 515.286 238.361 518.181 396.707 518.181C555.053 518.181 683.401 515.236 683.401 511.742C683.401 508.248 555.053 505.353 396.707 505.353C238.361 505.353 110 508.298 110 511.742Z" fill="#1D2535" opacity="0.5"/>
    <path d="M445.37 323.337H168.571C165.194 323.333 161.956 321.992 159.566 319.607C157.176 317.221 155.828 313.986 155.818 310.609V280.749C155.818 277.366 157.162 274.121 159.553 271.728C161.944 269.334 165.188 267.988 168.571 267.984H445.37C448.755 267.988 452 269.334 454.393 271.727C456.786 274.12 458.132 277.365 458.135 280.749V310.609C458.122 313.987 456.772 317.222 454.38 319.608C451.987 321.993 448.748 323.333 445.37 323.337ZM168.571 273.812C166.734 273.818 164.975 274.552 163.677 275.852C162.379 277.152 161.649 278.913 161.646 280.749V310.609C161.649 312.445 162.38 314.204 163.678 315.502C164.976 316.8 166.735 317.531 168.571 317.534H445.37C447.201 317.521 448.952 316.787 450.244 315.49C451.536 314.194 452.264 312.44 452.271 310.609V280.749C452.267 278.91 451.535 277.148 450.235 275.847C448.934 274.547 447.172 273.815 445.333 273.812H168.571Z" fill="#454C5E"/>
    <path d="M359.934 281.785H175.872C172.853 281.785 170.406 284.232 170.406 287.25V303.709C170.406 306.727 172.853 309.174 175.872 309.174H359.934C362.953 309.174 365.4 306.727 365.4 303.709V287.25C365.4 284.232 362.953 281.785 359.934 281.785Z" fill="#066FD1"/>
    <path d="M597.278 304.37L521.624 323.561C521.624 323.561 514.973 301.65 509.845 282.134C502.733 255.057 503.194 250.253 496.581 227.231C493.237 215.552 490.055 206.131 487.934 200.067L581.519 178.617C582.816 188.774 584.064 198.931 585.262 209.088C586.443 218.538 587.637 228.038 588.843 237.588L591.875 261.77C593.797 275.97 595.519 290.083 597.278 304.37Z" fill="#DADBE0"/>
    <path d="M557.647 124.475C557.011 128.331 555.887 133.946 554.44 141.008C554.116 142.456 553.791 143.903 553.641 144.39C551.685 151.926 548.828 159.199 545.131 166.052C544.32 167.299 543.522 168.622 542.723 169.907C539.666 174.399 520.724 177.931 505.152 174.087C489.579 170.244 486.048 154.123 493.76 148.557C496.478 146.192 498.759 143.366 500.498 140.21C502.956 136.096 505.104 131.804 506.924 127.37C508.047 124.799 508.683 123.19 508.683 123.19L522.496 114.206L552.194 118.223C551.233 123.215 552.032 126.883 553.641 127.37C555.251 127.856 557.385 125.124 557.647 124.475Z" fill="#FFCB9D"/>
    <path d="M557.647 124.475C557.011 128.331 555.888 133.946 554.44 141.008C554.116 142.456 553.791 143.903 553.642 144.39C551.686 151.926 548.828 159.199 545.132 166.052C543.201 165.145 541.478 163.851 540.07 162.249C538.662 160.648 537.598 158.773 536.946 156.743C536.179 154.524 535.8 152.19 535.823 149.843C535.661 148.296 535.661 146.736 535.823 145.188C523.925 147.423 511.622 145.668 500.822 140.197C503.281 136.083 505.429 131.791 507.248 127.357C508.371 124.787 509.008 123.177 509.008 123.177L522.809 114.193L552.519 118.211C551.545 123.202 552.356 126.871 553.954 127.357C555.551 127.844 557.323 125.111 557.697 124.463" fill="black" opacity="0.1"/>
    <path d="M560.544 131.375C559.589 137.544 556.313 143.115 551.385 146.948C550.386 147.593 549.424 148.293 548.503 149.044C546.116 151.287 544.345 154.105 543.362 157.23C542.206 155.361 541.649 153.184 541.764 150.991C542.348 147.606 543.182 144.269 544.26 141.008C544.281 140.841 544.337 140.679 544.422 140.534C544.583 140.065 544.692 139.58 544.747 139.087C545.071 137.477 545.233 135.88 545.383 134.432V134.27C537.197 137.801 514.25 146.149 501.236 133.309C499.256 131.282 497.534 129.019 496.107 126.571C495.937 126.392 495.825 126.166 495.783 125.922C495.448 125.312 495.181 124.668 494.984 124.001L494.822 123.838C494.217 122.128 493.839 120.345 493.699 118.535V117.899C493.787 115.955 494.325 114.059 495.271 112.359C496.218 110.659 497.546 109.202 499.152 108.104C503.969 104.572 510.382 102.801 513.764 102.002C527.09 98.6329 546.519 99.9182 555.827 112.758C558.191 116.078 559.68 119.941 560.157 123.988C560.75 126.401 560.86 128.907 560.481 131.363" fill="#454C5E"/>
    <path d="M545.444 134.27C537.258 137.801 514.311 146.149 501.296 133.309C499.317 131.282 497.594 129.019 496.168 126.571C495.998 126.392 495.885 126.166 495.844 125.922C495.509 125.312 495.241 124.668 495.045 124.001L494.883 123.839C494.277 122.128 493.9 120.345 493.76 118.535C496.671 122.31 500.198 125.566 504.191 128.168C523.932 140.859 547.702 131.537 551.383 129.94L551.708 129.778C549.763 131.454 547.675 132.957 545.469 134.27" fill="black" opacity="0.5"/>
    <path d="M615.983 406.515C607.149 434.915 598.331 463.34 589.53 491.789L584.938 490.442L577.252 488.171V488.046C578.35 474.32 579.548 460.436 580.845 446.394C582.085 433.135 583.391 420.012 584.763 407.026C582.407 399.103 579.535 391.341 576.166 383.792C572.523 375.623 568.298 367.725 563.526 360.159C561.221 403.774 558.909 447.389 556.588 491.003C554.791 491.29 552.944 491.552 551.073 491.802C548.852 492.101 546.668 492.363 544.534 492.6L521.662 323.524C537.168 318.948 553.369 314.602 570.264 310.484C579.414 308.28 588.436 306.229 597.329 304.333C603.534 338.389 609.753 372.45 615.983 406.515Z" fill="#066FD1"/>
    <path d="M602.555 515.448L575.603 509.409C575.603 509.409 575.415 502.284 580.007 500.212C584.599 498.141 598.824 508.248 602.555 515.448Z" fill="#454C5E"/>
    <path d="M530.883 515.448L557.835 509.409C557.835 509.409 558.022 502.284 553.431 500.212C548.839 498.141 534.452 508.273 530.883 515.448Z" fill="#454C5E"/>
    <path d="M544.009 185.23C540.396 191.413 534.962 196.328 528.449 199.305L527.701 199.642L515.223 193.765L544.009 185.23Z" fill="#FFCB9D"/>
    <path d="M530.332 196.735L510.305 188.287L507.348 193.403L523.082 208.265L530.332 196.735Z" fill="#066FD1"/>
    <path d="M531.232 196.373L553.68 174.137L560.868 178.267L548.29 205.494L531.232 196.373Z" fill="#066FD1"/>
    <path d="M530.332 196.735L510.305 188.287L507.348 193.403L523.082 208.265L530.332 196.735Z" fill="black" opacity="0.1"/>
    <path d="M407.161 135.305C414.147 103.318 393.879 71.7236 361.892 64.7376C329.905 57.7516 298.311 78.019 291.325 110.006C284.339 141.993 304.606 173.587 336.594 180.573C368.581 187.559 400.175 167.292 407.161 135.305Z" fill="#232B41"/>
    <path d="M349.34 185.23C344.602 185.213 339.88 184.66 335.265 183.583C319.777 180.005 306.244 170.638 297.441 157.402C288.638 144.165 285.232 128.063 287.921 112.395C290.61 96.7282 299.192 82.6834 311.905 73.1405C324.618 63.5975 340.5 59.2796 356.295 61.072C372.09 62.8643 386.601 70.6311 396.853 82.78C407.105 94.9289 412.321 110.539 411.432 126.411C410.542 142.282 403.615 157.212 392.07 168.14C380.525 179.067 365.237 185.164 349.34 185.18V185.23ZM349.216 66.6145C338.67 66.6121 328.338 69.5862 319.407 75.1945C310.477 80.8029 303.31 88.818 298.732 98.318C294.154 107.818 292.35 118.417 293.527 128.897C294.705 139.377 298.816 149.311 305.389 157.558C311.961 165.805 320.728 172.03 330.68 175.516C340.633 179.003 351.367 179.61 361.65 177.267C371.932 174.924 381.344 169.727 388.804 162.273C396.264 154.819 401.468 145.411 403.819 135.131C405.686 126.926 405.682 118.406 403.809 110.203C401.935 101.999 398.238 94.3226 392.994 87.7419C387.75 81.1613 381.092 75.8453 373.513 72.188C365.935 68.5306 357.63 66.6257 349.216 66.6145Z" fill="#DADCE0"/>
    <path d="M329.549 132.523C328.68 132.509 327.844 132.188 327.188 131.616C326.533 131.044 326.102 130.259 325.97 129.4C325.839 128.54 326.016 127.662 326.47 126.92C326.924 126.179 327.626 125.622 328.451 125.349L346.07 119.846L354.331 80.4652C354.585 79.5686 355.17 78.802 355.968 78.3201C356.766 77.8381 357.716 77.6766 358.628 77.8682C359.541 78.0598 360.346 78.5902 360.882 79.3524C361.419 80.1146 361.646 81.0518 361.518 81.975L352.447 125.548L330.747 132.436C330.356 132.532 329.951 132.561 329.549 132.523Z" fill="#066FD1"/>
    <path d="M400.413 276.756C399.289 277.393 398.09 277.888 396.844 278.229C396.121 278.413 395.388 278.55 394.648 278.641C387.922 279.489 381.845 275.92 381.209 270.667C380.585 265.95 384.565 261.546 390.23 260.073C390.923 259.884 391.627 259.742 392.339 259.649C393.035 259.566 393.735 259.532 394.436 259.549C400.313 259.549 405.242 262.906 405.865 267.622C406.19 271.191 403.981 274.66 400.413 276.756Z" fill="#FFCB9D"/>
    <path d="M400.413 276.756C399.289 277.393 398.09 277.888 396.844 278.229C395.069 272.029 392.859 265.962 390.23 260.073C390.923 259.884 391.627 259.742 392.339 259.649C393.035 259.566 393.735 259.532 394.436 259.549C400.313 259.549 405.241 262.906 405.865 267.622C406.19 271.191 403.981 274.66 400.413 276.756Z" fill="black" opacity="0.1"/>
    <path d="M508.709 221.292C505.539 225.721 502.108 230.301 498.402 234.93C494.546 239.747 490.366 244.65 485.861 249.567L482.343 253.31C474.155 261.929 465.459 270.05 456.301 277.63C446.543 285.696 436.287 293.139 425.593 299.916L408.598 279.751L387.797 255.045C434.752 249.442 451.709 237.139 458.26 226.545C461.005 222.128 470.339 204.421 487.983 199.967C488.594 199.817 489.106 199.692 489.43 199.63L508.709 221.292Z" fill="#DADBE0"/>
    <path d="M482.318 253.36C474.131 261.979 465.435 270.1 456.277 277.68C456.067 277.515 455.885 277.317 455.74 277.093C453.419 273.587 459.034 265.751 468.305 259.624C472.53 256.654 477.288 254.527 482.318 253.36Z" fill="#454C5E"/>
    <path d="M498.439 234.943C494.584 239.759 490.403 244.663 485.899 249.579L482.38 253.323C474.193 261.942 465.497 270.063 456.338 277.642C446.58 285.708 436.324 293.152 425.63 299.928L408.598 279.751C408.598 279.751 452.458 270.305 498.439 234.943Z" fill="black" opacity="0.1"/>
    <path d="M597.278 304.37L526.527 320.466C526.532 320.421 526.532 320.375 526.527 320.329C530.121 317.759 583.103 278.778 585.099 212.819C585.099 211.446 585.224 210.174 585.336 209.075C586.467 218.534 587.636 228.038 588.842 237.588L591.875 261.77C593.796 275.97 595.518 290.07 597.278 304.37Z" fill="black" opacity="0.1"/>
    <path d="M600.759 263.193C599.472 263.38 598.214 263.732 597.016 264.241C596.333 264.544 595.671 264.89 595.032 265.277C589.23 268.783 586.672 275.346 589.417 279.863C591.85 283.956 597.715 284.954 603.068 282.596C604.377 282.049 605.597 281.308 606.687 280.4C611.303 276.769 613.1 271.079 610.667 266.974C608.758 263.991 604.877 262.644 600.759 263.193Z" fill="#FFCB9D"/>
    <path d="M600.759 263.193C599.471 263.38 598.213 263.732 597.016 264.241C599.46 270.21 601.482 276.344 603.067 282.596C604.376 282.049 605.596 281.308 606.686 280.4C611.303 276.769 613.1 271.079 610.667 266.974C608.757 263.991 604.877 262.644 600.759 263.193Z" fill="black" opacity="0.1"/>
    <path d="M658.021 252.911C656.396 255.705 654.547 258.363 652.493 260.859C649.997 263.991 646.504 268.146 641.45 273.587C637.045 278.328 631.006 284.555 623.444 291.58C617.531 286.03 612.131 279.958 607.31 273.437C606.973 272.988 606.636 272.514 606.299 272.052C603.278 267.855 600.5 263.489 597.977 258.975C600.918 256.858 603.75 254.592 606.462 252.187C615.134 244.488 625.254 235.516 624.467 228.753C623.544 220.767 607.248 213.954 585.049 212.781L578.299 185.23L581.531 178.517C595.631 179.64 637.395 184.656 658.457 214.142L658.695 214.478C663.86 221.815 664.934 226.732 665.245 229.764C666.081 237.862 662.338 245.374 658.021 252.911Z" fill="#DADBE0"/>
    <path d="M607.311 273.437C609.045 273.025 629.983 267.984 652.493 260.859C649.998 263.991 646.504 268.146 641.45 273.587C637.046 278.328 631.006 284.555 623.445 291.58C617.532 286.03 612.132 279.958 607.311 273.437Z" fill="black" opacity="0.1"/>
    <path d="M658.021 252.911C654.552 251.076 652.318 242.654 652.917 232.721C653.416 224.399 655.762 217.373 658.67 214.479C663.836 221.816 664.909 226.732 665.221 229.764C666.019 237.363 663.424 245.249 658.021 252.911Z" fill="#454C5E"/>
    <path d="M615.983 406.515C607.149 434.915 598.331 463.34 589.53 491.79L584.938 490.442C582.317 489.668 579.759 488.857 577.251 488.046C578.349 474.32 579.547 460.437 580.845 446.395C582.084 433.135 583.39 420.012 584.763 407.027C582.407 399.103 579.535 391.341 576.166 383.793C572.522 375.623 568.298 367.725 563.525 360.159C564.137 352.323 564.985 344.1 566.146 335.515C567.331 326.781 568.729 318.37 570.264 310.484L597.291 304.37C603.522 338.402 609.752 372.45 615.983 406.515Z" fill="black" opacity="0.1"/>
</svg>
