<svg xmlns="http://www.w3.org/2000/svg" width="800" height="600" fill="none" viewBox="0 0 800 600">
    <path d="M142.377 315.889C142.377 359.876 188.896 391.867 209.514 427.462C230.696 464.196 235.876 520.155 272.495 541.429C308.078 562.035 358.742 539.012 402.729 539.012C446.716 539.012 497.379 562.035 532.962 541.429C569.582 520.236 574.762 464.162 595.955 427.462C616.561 391.879 663.081 359.991 663.081 315.889C663.081 271.787 616.446 239.911 595.955 204.305C574.762 167.57 569.582 111.496 532.962 90.3375C497.379 69.7313 446.716 92.755 402.729 92.755C358.742 92.755 308.078 69.7313 272.495 90.3375C235.761 111.531 230.696 167.605 209.514 204.305C188.896 239.991 142.377 271.891 142.377 315.889Z" fill="black" opacity="0.07"/>
    <path d="M267.075 296.975L252.006 286.729C251.293 286.242 250.749 285.544 250.452 284.733C250.155 283.922 250.119 283.038 250.348 282.205L267.098 222.102C267.275 221.47 267.599 220.889 268.045 220.407C268.491 219.926 269.045 219.557 269.662 219.332C270.278 219.107 270.939 219.032 271.591 219.113C272.242 219.195 272.864 219.43 273.407 219.8L286.173 228.48L267.075 296.975Z" fill="#DADBE0"/>
    <path d="M267.072 296.975L288.231 295.847L307.329 227.328L286.17 228.468L267.072 296.975Z" fill="#A6A9B3"/>
    <path d="M305.753 307.75L288.232 295.847L307.331 227.328L324.852 239.243L305.753 307.75Z" fill="#DADBE0"/>
    <path d="M305.754 307.75L324.334 306.76C325.085 306.72 325.805 306.445 326.391 305.974C326.978 305.503 327.402 304.86 327.603 304.135L344.664 242.95C344.822 242.397 344.846 241.814 344.734 241.25C344.622 240.685 344.376 240.156 344.018 239.706C343.66 239.255 343.2 238.897 342.675 238.66C342.151 238.424 341.578 238.316 341.003 238.345L324.887 239.209L305.754 307.75Z" fill="#A6A9B3"/>
    <path d="M215.226 331.695C209.792 329.899 197.417 324.868 191.926 312.953C189.831 308.418 191.108 298.184 193.652 277.727C194.942 267.366 196.358 259.17 202.943 254.231C204.267 253.242 205.719 252.437 207.259 251.837C209.923 278.46 212.578 305.079 215.226 331.695Z" fill="#066FD1"/>
    <path d="M215.226 331.695C209.792 329.899 197.417 324.868 191.926 312.953C189.831 308.418 191.108 298.184 193.652 277.727C194.942 267.366 196.358 259.17 202.943 254.231C204.267 253.242 205.719 252.437 207.259 251.837C209.923 278.46 212.578 305.079 215.226 331.695Z" fill="black" opacity="0.1"/>
    <path d="M287.369 302.846C284.595 331.626 280.002 365.378 280.002 365.378L214.062 365.666C214.062 365.666 196.38 265.214 203.92 254.255C211.46 243.295 285.827 251.849 288.924 264.535C290.086 269.358 289.108 285.141 287.369 302.846Z" fill="#066FD1"/>
    <path d="M136 521.44C136 523.929 185.934 526 247.5 526C309.066 526 359 524.009 359 521.44C359 518.872 309.055 517 247.5 517C185.945 517 136 518.991 136 521.44Z" fill="#1D2535" opacity="0.5"/>
    <path d="M317.796 295.709C317.852 294.615 318.057 293.535 318.406 292.497C318.599 291.893 318.837 291.304 319.12 290.736C321.629 285.567 326.982 282.884 331 284.865C334.649 286.591 335.95 291.472 334.373 296.181C334.191 296.758 333.964 297.32 333.694 297.861C333.454 298.415 333.173 298.95 332.853 299.462C330.136 303.652 325.463 305.597 321.813 303.871C319.039 302.386 317.635 299.22 317.796 295.709Z" fill="#FFCB9D"/>
    <path d="M317.796 295.709C317.852 294.615 318.057 293.535 318.406 292.497C323.637 294.092 328.972 295.323 334.373 296.181C334.191 296.758 333.964 297.32 333.694 297.861C333.454 298.415 333.173 298.95 332.853 299.462C330.136 303.652 325.463 305.597 321.813 303.871C319.039 302.386 317.635 299.22 317.796 295.709Z" fill="black" opacity="0.1"/>
    <path d="M560.212 93.3191C560.212 81.8301 555.648 70.8118 547.525 62.6879C539.401 54.564 528.382 50 516.893 50C505.404 50 494.386 54.564 486.262 62.6879C478.138 70.8118 473.574 81.8301 473.574 93.3191C472.814 109.49 475.42 125.642 481.226 140.754C487.032 155.865 495.912 169.607 507.304 181.108C508.551 182.382 510.039 183.393 511.682 184.084C513.324 184.774 515.088 185.13 516.87 185.13C518.652 185.13 520.416 184.774 522.059 184.084C523.702 183.393 525.19 182.382 526.437 181.108C537.727 169.534 546.545 155.783 552.351 140.693C558.158 125.602 560.833 109.488 560.212 93.3306V93.3191Z" fill="#066FD1"/>
    <path d="M516.891 116.343C529.607 116.343 539.915 106.035 539.915 93.3191C539.915 80.6035 529.607 70.2954 516.891 70.2954C504.175 70.2954 493.867 80.6035 493.867 93.3191C493.867 106.035 504.175 116.343 516.891 116.343Z" fill="white"/>
    <path d="M313.051 490.558C312.288 490.621 311.531 490.378 310.947 489.882C310.363 489.387 310 488.68 309.937 487.916C309.875 487.153 310.118 486.396 310.613 485.812C311.109 485.228 311.816 484.865 312.579 484.802L314.882 484.411C315.263 484.324 315.658 484.315 316.042 484.386C316.426 484.457 316.792 484.605 317.118 484.822C317.443 485.038 317.721 485.319 317.934 485.646C318.147 485.974 318.292 486.342 318.358 486.727C318.425 487.112 318.412 487.507 318.321 487.887C318.23 488.267 318.063 488.624 317.829 488.938C317.595 489.251 317.3 489.513 316.962 489.709C316.623 489.904 316.248 490.029 315.86 490.075L313.558 490.478C313.393 490.523 313.223 490.55 313.051 490.558ZM336.075 486.092C335.368 486.088 334.687 485.823 334.162 485.349C333.637 484.875 333.305 484.224 333.23 483.521C333.154 482.817 333.341 482.111 333.753 481.536C334.165 480.962 334.775 480.559 335.465 480.405C346.631 477.964 357.809 475.086 368.711 471.863C369.444 471.648 370.232 471.732 370.902 472.098C371.573 472.464 372.07 473.082 372.286 473.814C372.501 474.547 372.416 475.335 372.05 476.006C371.684 476.676 371.067 477.173 370.334 477.389C359.317 480.647 347.99 483.559 336.697 486.034C336.496 486.081 336.292 486.112 336.087 486.126L336.075 486.092ZM389.605 471.126C388.929 471.117 388.277 470.871 387.764 470.431C387.25 469.99 386.907 469.384 386.795 468.717C386.683 468.05 386.808 467.365 387.149 466.78C387.49 466.196 388.025 465.75 388.661 465.52C399.471 461.79 410.234 457.623 420.664 453.122C421.366 452.816 422.161 452.803 422.873 453.083C423.586 453.364 424.158 453.916 424.463 454.618C424.768 455.32 424.782 456.115 424.501 456.828C424.221 457.54 423.669 458.112 422.966 458.417C412.399 462.964 401.497 467.189 390.572 470.965C390.263 471.062 389.94 471.109 389.617 471.103L389.605 471.126ZM440.971 449.864C440.32 449.864 439.687 449.643 439.178 449.237C438.668 448.831 438.311 448.265 438.166 447.63C438.02 446.995 438.094 446.329 438.376 445.742C438.657 445.154 439.13 444.68 439.716 444.396C449.962 439.411 460.15 433.966 469.981 428.279C470.64 427.894 471.426 427.788 472.164 427.982C472.902 428.176 473.533 428.656 473.918 429.315C474.303 429.975 474.409 430.76 474.215 431.498C474.021 432.237 473.541 432.868 472.882 433.252C462.936 438.997 452.575 444.511 442.214 449.553C441.829 449.737 441.409 449.835 440.982 449.841L440.971 449.864ZM489.505 422.719C488.878 422.719 488.268 422.515 487.768 422.137C487.268 421.759 486.905 421.228 486.734 420.625C486.564 420.021 486.595 419.379 486.822 418.795C487.05 418.211 487.463 417.717 487.997 417.389C497.045 411.852 507.567 405.313 516.776 398.682C517.082 398.442 517.433 398.267 517.808 398.166C518.184 398.065 518.576 398.041 518.96 398.096C519.345 398.151 519.714 398.283 520.047 398.485C520.379 398.686 520.667 398.953 520.893 399.269C521.12 399.585 521.28 399.943 521.364 400.322C521.448 400.702 521.454 401.094 521.383 401.476C521.311 401.858 521.163 402.222 520.947 402.545C520.731 402.868 520.452 403.144 520.126 403.356C510.721 410.102 500.119 416.71 490.99 422.293C490.544 422.558 490.035 422.697 489.516 422.696L489.505 422.719ZM534.885 390.67C534.308 390.669 533.746 390.495 533.269 390.171C532.793 389.847 532.425 389.387 532.213 388.851C532.001 388.316 531.955 387.729 532.08 387.166C532.205 386.604 532.497 386.092 532.916 385.697C543.277 375.958 548.469 367.082 548.722 358.54C548.745 357.777 549.07 357.054 549.626 356.531C550.182 356.007 550.923 355.726 551.686 355.749C552.449 355.772 553.172 356.097 553.696 356.653C554.219 357.209 554.501 357.95 554.478 358.713C554.178 368.867 548.411 379.066 536.842 389.899C536.311 390.385 535.616 390.653 534.896 390.647L534.885 390.67ZM544.37 342.32C543.946 342.32 543.526 342.227 543.142 342.045C542.758 341.864 542.419 341.6 542.149 341.273C536.738 334.688 527.977 328.287 515.36 321.703C514.683 321.35 514.173 320.742 513.943 320.014C513.713 319.285 513.782 318.495 514.134 317.817C514.487 317.14 515.095 316.63 515.823 316.4C516.552 316.17 517.342 316.239 518.02 316.591C531.339 323.498 540.686 330.406 546.592 337.6C546.939 338.022 547.159 338.533 547.227 339.074C547.295 339.616 547.207 340.165 546.974 340.659C546.741 341.153 546.373 341.57 545.912 341.862C545.451 342.154 544.916 342.309 544.37 342.309V342.32ZM497.552 313.092C497.156 313.092 496.765 313.013 496.4 312.861C487.087 308.878 477.107 305.01 467.471 301.269L464.363 300.118C463.65 299.843 463.076 299.296 462.766 298.598C462.456 297.9 462.436 297.107 462.711 296.394C462.986 295.681 463.533 295.106 464.231 294.797C464.929 294.487 465.722 294.467 466.435 294.742L469.543 295.893C479.236 299.646 489.252 303.537 498.668 307.554C499.28 307.815 499.783 308.28 500.091 308.87C500.4 309.46 500.494 310.138 500.358 310.789C500.222 311.441 499.865 312.025 499.347 312.443C498.829 312.86 498.182 313.086 497.517 313.08L497.552 313.092ZM445.748 292.462C445.373 292.463 445.001 292.389 444.655 292.244C430.841 286.488 420.802 281.664 413.147 276.91C412.498 276.507 412.036 275.863 411.862 275.119C411.688 274.375 411.817 273.593 412.22 272.944C412.623 272.295 413.267 271.833 414.011 271.659C414.755 271.486 415.537 271.614 416.186 272.017C423.565 276.622 433.304 281.342 446.842 286.983C447.457 287.237 447.964 287.697 448.278 288.283C448.593 288.87 448.694 289.547 448.565 290.2C448.436 290.852 448.085 291.44 447.571 291.863C447.058 292.286 446.414 292.518 445.748 292.52V292.462ZM398.826 263.683C398.38 263.681 397.94 263.576 397.54 263.377C397.141 263.177 396.793 262.888 396.524 262.532C393.498 258.498 391.826 253.61 391.746 248.568V248.119C391.884 241.534 394.947 234.685 400.864 227.777C401.102 227.468 401.4 227.211 401.74 227.021C402.081 226.83 402.456 226.711 402.844 226.671C403.232 226.63 403.624 226.669 403.997 226.784C404.37 226.9 404.715 227.09 405.011 227.343C405.308 227.596 405.551 227.907 405.724 228.256C405.897 228.606 405.997 228.987 406.018 229.376C406.039 229.766 405.981 230.156 405.847 230.522C405.713 230.888 405.506 231.223 405.238 231.507C400.208 237.39 397.606 243.019 397.502 248.234V248.568C397.567 252.412 398.866 256.133 401.209 259.182C401.651 259.804 401.828 260.576 401.703 261.328C401.578 262.081 401.161 262.754 400.541 263.199C400.047 263.523 399.463 263.684 398.872 263.66L398.826 263.683ZM418.914 218.695C418.296 218.695 417.694 218.497 417.198 218.129C416.701 217.762 416.336 217.244 416.157 216.652C415.977 216.061 415.993 215.428 416.201 214.846C416.41 214.264 416.8 213.765 417.314 213.422C420.965 210.962 424.794 208.777 428.768 206.883C435.66 203.759 442.997 201.727 450.514 200.863C450.892 200.814 451.276 200.839 451.644 200.939C452.012 201.038 452.357 201.209 452.659 201.441C452.961 201.674 453.214 201.963 453.404 202.294C453.594 202.624 453.717 202.989 453.766 203.367C453.815 203.745 453.79 204.128 453.69 204.496C453.591 204.864 453.42 205.209 453.188 205.511C452.955 205.813 452.666 206.066 452.335 206.256C452.005 206.446 451.64 206.57 451.263 206.619C444.329 207.404 437.563 209.272 431.209 212.156C427.496 213.915 423.921 215.95 420.514 218.246C420.048 218.534 419.509 218.682 418.96 218.672L418.914 218.695ZM506.404 205.939H506.174C499.44 205.398 492.579 205.122 485.787 205.122H483.093C479.179 205.122 475.472 205.203 471.949 205.272C471.186 205.287 470.448 204.998 469.897 204.47C469.347 203.941 469.029 203.215 469.014 202.451C468.999 201.688 469.287 200.95 469.816 200.399C470.345 199.849 471.071 199.531 471.834 199.516C475.38 199.447 479.098 199.401 483.035 199.366H485.787C492.694 199.366 499.75 199.654 506.634 200.195C507.398 200.226 508.118 200.558 508.636 201.119C509.154 201.681 509.428 202.425 509.397 203.188C509.367 203.951 509.034 204.671 508.473 205.189C507.912 205.708 507.168 205.982 506.404 205.951V205.939Z" fill="#DADCE0"/>
    <path d="M232.09 189.731C231.503 192.839 230.64 197.662 229.719 203.349C229.558 204.638 229.431 205.79 229.362 206.066C228.587 212.457 228.629 218.922 229.489 225.302C229.638 226.522 229.926 227.777 230.087 228.998C231.1 233.372 244.638 241.661 257.819 243.318C271 244.976 278.46 233.625 274.281 227.017C272.834 224.445 271.907 221.613 271.553 218.683C270.85 214.787 270.465 210.841 270.402 206.883C270.344 204.65 270.252 203.153 270.252 203.153L262.274 192.079L238.238 186.323C237.547 190.433 235.763 192.965 234.439 192.942C233.115 192.919 232.251 190.352 232.136 189.719" fill="#FFCB9D"/>
    <path d="M232.09 189.731C231.503 192.839 230.64 197.662 229.719 203.349C229.558 204.639 229.431 205.79 229.362 206.066C228.587 212.457 228.629 218.922 229.489 225.302C231.193 225.174 232.858 224.72 234.393 223.967C236.048 223.13 237.526 221.981 238.744 220.582C240.003 219.069 241.01 217.363 241.726 215.529C242.272 214.408 242.748 213.254 243.153 212.075C251.647 217.338 261.649 219.63 271.587 218.591C270.884 214.695 270.499 210.749 270.436 206.791C270.436 204.558 270.287 203.061 270.287 203.061L262.309 191.987L238.272 186.231C237.581 190.352 235.797 192.885 234.473 192.862C233.149 192.839 232.251 190.41 232.102 189.777" fill="black" opacity="0.1"/>
    <path d="M227.922 194.197C226.924 197.724 226.352 201.356 226.218 205.018C226.137 207.816 226.529 208.645 226.149 211.5C226.012 213.374 225.669 215.227 225.124 217.025C223.052 223.173 217.665 224.094 217.826 226.5C218.148 231.311 240.849 238.368 249.426 229.631C253.743 225.199 253.006 218.384 255.792 217.866C258.094 217.532 260.707 221.998 262.78 226.327C260.949 217.912 262.1 214.942 263.7 213.848C265.807 212.432 268.305 214.815 272.749 213.054C274.903 212.115 276.899 210.85 278.666 209.301C278.767 209.256 278.856 209.19 278.928 209.106C279 209.022 279.052 208.924 279.08 208.817C279.46 208.46 279.875 207.965 280.232 207.666C280.236 207.648 280.243 207.63 280.254 207.615C280.265 207.6 280.279 207.587 280.295 207.577C280.312 207.567 280.33 207.561 280.348 207.558C280.367 207.556 280.386 207.557 280.404 207.563C281.377 206.45 282.177 205.196 282.776 203.844L283.052 203.315C283.567 201.782 283.713 200.149 283.479 198.549C283.245 196.949 282.637 195.426 281.705 194.105C279.149 189.949 274.591 186.795 272.196 185.034C262.987 178.403 247.699 173.856 236.51 180.936C233.711 182.843 231.387 185.368 229.718 188.315C229.119 190.237 228.336 192.275 227.864 194.22" fill="#454C5E"/>
    <path d="M215.225 365.666L220.877 502.726H231.744L246.974 396.84L257.277 502.726H265.324L279.99 365.666H215.225Z" fill="#DADBE0"/>
    <path d="M244.015 521.836L219.598 519.108C219.598 519.108 218.758 512.638 222.568 510.485C226.379 508.332 240.066 515.804 244.015 521.836Z" fill="#454C5E"/>
    <path d="M279.988 521.836L255.583 519.108C255.583 519.108 254.731 512.638 258.542 510.485C262.352 508.332 276.04 515.804 279.988 521.836Z" fill="#454C5E"/>
    <path d="M266.21 254.565C266.21 254.565 261.329 255.291 254.86 256.004C245.086 256.868 231.583 257.581 226.08 254.565V245.229L226.218 245.367C227.657 246.093 240.447 251.549 263.148 245.229C263.781 245.126 266.21 254.565 266.21 254.565Z" fill="#DADBE0"/>
    <path d="M215.225 365.378L262.78 365.666L265.324 502.726H257.277L246.974 396.84L231.744 502.726H220.877L215.225 365.378Z" fill="black" opacity="0.1"/>
    <path d="M254.86 255.901C245.086 256.764 231.583 257.489 226.08 254.473V245.126C226.218 245.275 226.218 245.563 226.506 245.851C227.344 247.052 228.309 248.16 229.384 249.155C231.271 250.669 233.411 251.838 235.704 252.608C242.646 255.049 253.57 255.901 254.86 255.901Z" fill="black" opacity="0.1"/>
    <path d="M287.37 302.846C284.596 331.626 280.002 365.378 280.002 365.378L214.062 365.666C214.062 365.666 268.099 316.522 275.455 289.285C278.874 276.599 283.444 287.535 287.37 302.846Z" fill="black" opacity="0.1"/>
    <path d="M270.331 314.83C275.177 325.939 282.89 343.609 295.772 345.417C309.068 347.27 325.829 331.925 333.761 306.864L314.191 287.293C314.191 287.293 301.942 315.578 297.315 316.372C292.687 317.167 288.911 264.569 288.911 264.569C287.26 262.374 285.036 260.676 282.483 259.661C279.931 258.645 277.149 258.352 274.441 258.813C267.534 260.218 262.33 267.182 262.871 275.264C262.402 288.842 264.95 302.355 270.331 314.83Z" fill="#066FD1"/>
    <path d="M254.859 218.372C253.109 220.111 253.179 225.774 249.426 229.631C240.838 238.357 218.16 231.312 217.826 226.5C217.688 224.404 221.763 223.437 224.18 219.132C224.56 218.457 224.877 217.748 225.124 217.014C225.675 215.221 226.019 213.371 226.149 211.5C226.54 208.645 226.149 207.804 226.218 205.019C226.358 201.357 226.93 197.725 227.922 194.197C228.394 192.24 229.176 190.214 229.786 188.292C231.445 185.34 233.766 182.815 236.567 180.913H236.636C240.147 180.395 244.809 180.28 247.227 183.042C250.278 186.496 247.4 191.907 247.768 199.665C247.987 204.201 249.368 210.671 254.859 218.372Z" fill="black" opacity="0.3"/>
    <path d="M365.677 164.181L365.39 164.262C364.596 164.485 364.134 165.309 364.357 166.102L379.37 219.48C379.593 220.274 380.417 220.736 381.211 220.513L381.498 220.432C382.291 220.209 382.754 219.385 382.53 218.591L367.518 165.213C367.295 164.42 366.471 163.958 365.677 164.181Z" fill="#454C5E"/>
    <path d="M396.341 153.664L374.042 147.908C373.607 147.798 373.151 147.803 372.718 147.924C372.286 148.045 371.893 148.277 371.578 148.598C371.264 148.918 371.039 149.315 370.926 149.75C370.813 150.184 370.816 150.641 370.934 151.074L371.636 153.572L343.214 161.469C342.362 161.718 341.643 162.293 341.212 163.068C340.781 163.844 340.673 164.759 340.911 165.613L343.893 176.331C344.139 177.184 344.713 177.906 345.49 178.337C346.267 178.768 347.182 178.875 348.037 178.633L376.448 170.736L377.139 173.234C377.256 173.669 377.485 174.066 377.803 174.385C378.122 174.703 378.519 174.932 378.954 175.049C379.389 175.166 379.847 175.166 380.282 175.049C380.717 174.933 381.114 174.704 381.433 174.385L397.55 157.935C397.869 157.615 398.097 157.215 398.211 156.778C398.324 156.34 398.319 155.88 398.196 155.445C398.073 155.01 397.836 154.616 397.51 154.303C397.184 153.99 396.78 153.769 396.341 153.664Z" fill="#066FD1"/>
    <path d="M569.932 398.077L570.433 398.251C571.73 398.702 573.147 398.016 573.598 396.718L604.104 308.969C604.555 307.672 603.869 306.255 602.572 305.804L602.071 305.63C600.774 305.179 599.357 305.865 598.906 307.162L568.4 394.912C567.949 396.209 568.635 397.626 569.932 398.077Z" fill="#454C5E"/>
    <path d="M641.878 300.843L595.324 284.669L596.74 280.571C596.985 279.863 597.04 279.103 596.899 278.367C596.758 277.631 596.426 276.945 595.936 276.379C595.446 275.812 594.816 275.384 594.108 275.137C593.401 274.891 592.641 274.836 591.905 274.976L554.146 282.194C553.412 282.338 552.728 282.672 552.163 283.162C551.597 283.653 551.171 284.283 550.925 284.99C550.679 285.697 550.623 286.456 550.762 287.191C550.901 287.927 551.23 288.613 551.717 289.181L576.905 318.306C577.394 318.874 578.024 319.302 578.731 319.548C579.439 319.794 580.199 319.849 580.934 319.708C581.67 319.567 582.355 319.234 582.921 318.743C583.487 318.253 583.913 317.622 584.157 316.913L585.585 312.827L632.116 329.001C632.812 329.245 633.549 329.349 634.286 329.307C635.022 329.265 635.743 329.078 636.407 328.758C637.071 328.437 637.665 327.988 638.156 327.437C638.646 326.886 639.023 326.244 639.265 325.547L645.366 308.003C645.61 307.304 645.714 306.564 645.671 305.825C645.628 305.085 645.439 304.362 645.114 303.696C644.79 303.03 644.337 302.435 643.782 301.946C643.226 301.456 642.579 301.081 641.878 300.843Z" fill="#A6A9B3"/>
</svg>
