<svg xmlns="http://www.w3.org/2000/svg" width="800" height="600" fill="none" viewBox="0 0 800 600">
    <path d="M97.2017 291.657C97.2017 337.104 145.322 370.156 166.466 406.854C188.339 444.767 193.685 502.609 231.477 524.482C268.175 545.747 320.427 521.93 365.874 521.93C411.321 521.93 463.573 545.626 500.271 524.482C538.184 502.609 543.409 444.646 565.282 406.854C586.547 370.156 634.546 337.104 634.546 291.657C634.546 246.21 586.425 213.158 565.282 176.46C543.409 138.547 538.062 80.7051 500.271 58.8322C463.573 37.5669 411.321 61.384 365.874 61.384C320.427 61.384 268.175 37.5669 231.477 58.8322C193.564 80.7051 188.339 138.668 166.466 176.46C145.201 213.158 97.2017 246.21 97.2017 291.657Z" fill="black" opacity="0.07"/>
    <path d="M323.222 550C465.834 550 581.443 545.92 581.443 540.886C581.443 535.853 465.834 531.772 323.222 531.772C180.61 531.772 65 535.853 65 540.886C65 545.92 180.61 550 323.222 550Z" fill="#1D2535" opacity="0.5"/>
    <path d="M324.436 449.628C324.436 449.628 351.777 385.711 362.471 381.822C373.164 377.933 454.702 526.669 454.702 526.669H437.203L366.724 468.098L319.211 508.563L296.245 465.182L324.436 449.628Z" fill="#066FD1"/>
    <path d="M324.436 449.628C324.436 449.628 351.777 385.711 362.471 381.822C373.164 377.933 454.702 526.669 454.702 526.669H437.203L366.724 468.098L319.211 508.563L296.245 465.182L324.436 449.628Z" fill="black" opacity="0.22"/>
    <path d="M543.409 495.439L535.753 537.484C535.753 537.484 524.695 538.213 521.293 531.408C517.89 524.603 532.715 501.637 543.409 495.439Z" fill="#454C5E"/>
    <path d="M131.347 307.697C133.291 311.829 136.208 317.783 140.096 324.952C140.947 326.532 141.676 327.869 141.919 328.355C146.415 336.132 151.762 343.301 158.081 349.742C159.296 350.957 160.633 352.172 161.848 353.266C166.708 357.397 188.703 355.331 204.743 346.218C220.783 337.104 219.811 318.147 209.604 314.259C205.837 312.558 202.434 310.127 199.518 307.089C195.508 303.322 191.741 299.191 188.338 294.816C186.272 292.386 185.179 290.685 185.179 290.685L166.951 284.852L135.114 298.462C137.788 303.687 137.909 307.94 136.451 309.034C134.993 310.127 132.076 308.183 131.347 307.697Z" fill="#FFCB9D"/>
    <path d="M131.347 307.697C133.291 311.829 136.208 317.783 140.096 324.952C140.947 326.532 141.676 327.869 141.919 328.355C146.415 336.132 151.762 343.301 158.081 349.742C159.903 348.162 161.362 346.339 162.455 344.273C163.67 341.965 164.278 339.413 164.521 336.861C164.643 334.188 164.4 331.393 163.67 328.719C163.306 327.018 162.82 325.317 162.212 323.616C176.187 322.522 189.31 316.689 199.518 307.211C195.508 303.444 191.741 299.313 188.338 294.938C186.272 292.508 185.179 290.806 185.179 290.806L166.951 284.974L135.114 298.583C137.788 303.809 137.909 308.062 136.451 309.155C134.993 310.249 132.076 308.183 131.347 307.697Z" fill="black" opacity="0.1"/>
    <path d="M315.323 464.453C321.52 469.556 328.204 474.174 335.13 478.305C356.395 490.579 375.473 494.467 387.746 496.897C433.801 505.768 475.967 512.816 513.273 518.527V533.96C513.273 533.96 314.837 538.334 291.506 535.175C268.175 532.016 248.854 500.907 248.854 500.907L315.323 464.453Z" fill="#066FD1"/>
    <path d="M202.677 279.262C202.677 281.814 202.313 284.487 201.705 286.918C200.976 290.199 199.883 293.237 198.303 296.153C191.133 309.398 174.607 316.932 156.258 315.231C153.099 314.988 150.061 314.38 147.023 313.53H146.902V313.773C147.509 315.596 148.36 317.297 149.21 318.877C149.696 319.606 149.696 319.849 150.061 320.335L150.426 320.821C150.912 321.671 155.408 327.504 156.744 331.15C157.595 333.58 157.716 336.253 156.987 338.684C154.8 335.524 151.884 332.972 148.481 331.271C147.145 330.664 145.929 330.178 144.471 329.813C137.666 327.018 132.198 321.914 128.917 315.353C127.58 312.679 126.73 309.763 126.365 306.846C126.122 304.902 125.029 297.854 127.58 292.629C132.684 281.936 154.071 277.318 165.25 276.346C167.195 276.224 170.597 276.103 172.906 274.28L173.027 274.159C173.392 273.794 173.757 273.429 174.121 272.943C175.944 269.906 174.243 265.409 172.298 262.979C168.531 258.118 160.876 256.66 152.734 259.091C167.802 248.033 186.88 249.612 196.602 260.184C200.855 265.652 203.163 272.457 202.677 279.262Z" fill="#454C5E"/>
    <path d="M207.659 366.997C193.928 373.316 181.29 375.017 179.468 370.886C179.103 370.035 179.103 369.063 179.468 368.212C180.804 368.334 182.263 368.334 183.599 368.334C192.956 367.848 209.118 355.21 221.269 345.853C225.401 345.61 228.196 346.339 229.046 348.04C230.869 352.294 221.391 360.8 207.659 366.997Z" fill="#E1E1E1"/>
    <path d="M349.712 84.958H714.625C722.159 84.958 728.234 91.0338 728.234 98.5678V281.814C728.234 289.348 722.159 295.424 714.625 295.424H349.712C342.178 295.424 336.102 289.348 336.102 281.814V98.5678C336.102 91.0338 342.178 84.958 349.712 84.958Z" fill="#232B41"/>
    <path d="M714.625 302.836H349.712C338.168 302.836 328.689 293.48 328.689 281.814V98.5677C328.689 87.0237 338.046 77.5454 349.712 77.5454H714.625C726.169 77.5454 735.647 86.9022 735.647 98.5677V281.814C735.525 293.358 726.169 302.836 714.625 302.836ZM349.712 92.3704C346.309 92.3704 343.514 95.1652 343.514 98.5677V281.814C343.514 285.216 346.309 288.011 349.712 288.011H714.625C718.027 288.011 720.822 285.216 720.822 281.814V98.5677C720.822 95.1652 718.027 92.3704 714.625 92.3704H349.712Z" fill="#727583"/>
    <path d="M383.493 126.152H571.843C573.179 126.152 574.152 127.246 574.152 128.461V133.808C574.152 135.144 573.058 136.116 571.843 136.116H383.493C382.156 136.116 381.184 135.023 381.184 133.808V128.461C381.184 127.124 382.156 126.152 383.493 126.152Z" fill="#DADCE0"/>
    <path d="M382.764 158.475H518.497C519.348 158.475 520.077 159.204 520.077 160.055V166.981C520.077 167.832 519.348 168.561 518.497 168.561H382.764C381.913 168.561 381.184 167.832 381.184 166.981V160.055C381.184 159.204 381.792 158.475 382.764 158.475Z" fill="#066FD1"/>
    <path d="M390.177 381.822C389.205 377.69 341.692 363.959 322.128 358.612C320.669 358.126 319.09 357.64 317.51 357.275C280.812 348.162 262.463 343.666 242.778 349.984C218.353 357.883 204.5 376.597 178.982 372.586C174.729 371.979 170.597 370.764 166.709 369.063C162.456 369.67 158.567 371.493 155.408 374.288C152.613 376.597 150.547 385.346 149.089 397.74C148.238 404.788 147.631 412.93 147.023 421.679C144.836 459.106 145.2 508.198 145.565 529.099C143.864 528.978 142.041 528.978 140.097 528.978C126.608 528.978 115.672 532.137 115.672 536.026C115.672 539.914 126.608 543.074 140.097 543.074C153.585 543.074 164.521 539.914 164.521 536.147C164.521 535.661 164.4 535.297 164.157 534.932C167.073 510.993 169.99 487.055 172.784 463.116C175.093 444.402 177.281 425.689 179.589 406.976L179.711 407.097L230.748 467.612L289.804 442.458L252.256 376.475C260.762 375.26 269.268 375.017 277.774 375.867C284.944 376.597 293.814 378.176 314.472 385.953C316.052 386.561 317.632 387.047 319.333 387.411C330.391 391.057 347.282 396.404 361.377 400.171C359.433 402.601 357.61 405.153 355.666 407.826C352.507 412.201 349.59 416.454 346.795 420.707C346.066 422.044 341.206 430.671 344.73 438.084C349.104 447.319 363.565 448.656 372.557 444.889C382.521 440.635 385.681 429.942 389.569 416.089C392.364 406.611 398.075 387.168 390.177 381.822Z" fill="#FFCB9D"/>
    <path d="M361.499 399.563L365.995 393.973L307.424 382.794L361.499 399.563ZM285.551 349.863L286.523 376.718L290.412 377.569V350.714L285.551 349.863ZM179.832 406.489L180.44 398.591L149.21 397.619C148.36 404.667 147.752 412.808 147.145 421.558C153.099 422.53 161.24 424.231 165.493 428.484C169.26 432.251 171.691 448.777 172.906 462.508V462.63L179.832 406.489Z" fill="black" opacity="0.21"/>
    <path d="M339.626 444.767C335.008 447.076 331.12 450.357 327.96 454.489C323.343 460.443 322.614 465.79 321.398 469.557C317.145 482.559 303.293 488.149 283.485 499.814C272.914 505.89 261.369 510.264 249.461 512.695C222.727 486.083 200.368 455.461 182.992 421.922L136.086 414.024L140.339 398.105C140.339 398.105 146.78 372.587 154.557 365.782C161.605 359.706 167.924 367.24 179.589 368.212C180.926 368.334 182.384 368.334 183.721 368.334C193.077 367.848 209.239 355.21 221.391 345.853C228.803 340.02 232.692 337.347 235.487 336.01C244.965 331.393 260.276 328.962 285.308 339.413C285.794 354.359 286.402 369.306 286.888 384.252L262.585 375.746C276.194 396.282 293.328 414.145 313.257 428.606C321.641 434.681 330.512 440.15 339.626 444.767Z" fill="#DADBE0"/>
    <path d="M207.659 366.997C193.928 373.316 181.29 375.017 179.468 370.886C179.103 370.035 179.103 369.063 179.468 368.212C180.804 368.334 182.263 368.334 183.599 368.334C192.956 367.848 209.118 355.21 221.269 345.853C225.401 345.61 228.196 346.339 229.046 348.04C230.869 352.294 221.391 360.8 207.659 366.997Z" fill="black" opacity="0.21"/>
    <path d="M202.677 279.262C202.677 281.814 202.313 284.488 201.705 286.918C200.976 290.199 199.883 293.237 198.303 296.153C191.133 309.398 174.607 316.932 156.258 315.231C151.641 314.381 147.631 313.651 147.023 313.53H146.902L139.975 311.221C149.818 311.707 159.539 310.371 168.896 307.454C177.159 304.781 188.582 301.135 196.845 290.199C199.396 287.039 201.341 283.272 202.677 279.262Z" fill="black" opacity="0.5"/>
</svg>
