<svg xmlns="http://www.w3.org/2000/svg" width="800" height="600" fill="none" viewBox="0 0 800 600">
    <path d="M132.09 273.008C132.09 316.969 178.632 348.956 199.259 384.519C220.463 421.224 225.649 477.159 262.282 498.44C297.888 519.043 348.576 496.017 392.59 496.017C436.603 496.017 487.291 519.03 522.898 498.44C559.531 477.261 564.716 421.224 585.921 384.519C606.548 348.956 653.09 317.085 653.09 273.008C653.09 228.932 606.432 197.061 585.921 161.498C564.716 124.793 559.531 68.7427 522.898 47.5764C487.291 26.9742 436.603 49.9994 392.59 49.9994C348.576 49.9994 297.888 26.987 262.282 47.5764C225.534 68.7555 220.463 124.793 199.259 161.498C178.632 197.176 132.09 229.048 132.09 273.008Z" fill="black" opacity="0.07"/>
    <path d="M607.09 541.444C607.09 544.483 514.6 547.008 400.59 547.008C286.58 547.008 194.09 544.483 194.09 541.444C194.09 538.406 286.58 536.008 400.59 536.008C514.6 536.008 607.09 538.534 607.09 541.444Z" fill="#1D2535" opacity="0.5"/>
    <path d="M312.633 539.008H292.547C289.532 539.008 287.103 536.509 287.09 533.424V530C287.624 528.698 288.158 527.384 288.693 526.056C291.402 519.287 293.934 512.608 296.274 506.008C296.134 506.881 295.218 513.676 300.141 519.208C305.051 524.754 311.78 524.468 312.633 524.403C314.07 524.429 315.457 525.014 316.487 526.043C317.517 527.084 318.09 528.503 318.09 529.987V533.411C318.077 536.496 315.635 538.982 312.62 538.995L312.633 539.008Z" fill="#DADCE0"/>
    <path d="M312.633 539.008H292.547C289.532 539.008 287.103 536.509 287.09 533.424V530C287.624 528.698 288.158 527.384 288.693 526.056C291.402 519.287 293.934 512.608 296.274 506.008C296.134 506.881 295.218 513.676 300.141 519.208C305.051 524.754 311.78 524.468 312.633 524.403C314.07 524.429 315.457 525.014 316.487 526.043C317.517 527.084 318.09 528.503 318.09 529.987V533.411C318.077 536.496 315.635 538.982 312.62 538.995L312.633 539.008Z" fill="black"/>
    <path d="M274.759 520.008H253.421C249.924 520.008 247.09 522.921 247.09 526.514V531.503C247.09 535.096 249.924 538.008 253.421 538.008H274.759C278.255 538.008 281.09 535.096 281.09 531.503V526.514C281.09 522.921 278.255 520.008 274.759 520.008Z" fill="#DADCE0"/>
    <path d="M274.759 520.008H253.421C249.924 520.008 247.09 522.921 247.09 526.514V531.503C247.09 535.096 249.924 538.008 253.421 538.008H274.759C278.255 538.008 281.09 535.096 281.09 531.503V526.514C281.09 522.921 278.255 520.008 274.759 520.008Z" fill="black" opacity="0.1"/>
    <path d="M262.09 511.067C261.834 510.886 250.692 508.293 248.543 500.412C247.366 496.103 250.321 493.007 252.969 486.222C254.172 483.139 258.662 471.22 256.564 461.596C254.108 450.322 242.927 443.717 237.376 441.008C240.881 456.346 238.028 465.17 234.664 470.433C229.828 477.979 223.56 478.624 220.081 487.873C219.237 490.118 215.834 499.251 220.49 507.339C224.353 514.047 231.491 515.994 234.357 516.859C248.581 521.128 260.606 512.215 262.077 511.08L262.09 511.067Z" fill="#066FD1"/>
    <path d="M276.102 526.008H306.575C310.172 526.008 313.09 528.926 313.09 532.522V536.495C313.09 540.091 310.172 543.008 306.575 543.008H282.604C279.008 543.008 276.09 540.091 276.09 536.495V526.008H276.102Z" fill="#DADCE0"/>
    <path d="M319.09 500.947C319.09 500.947 320.123 485.607 335.584 477.008C335.584 477.008 342.281 499.337 333.779 511.443C325.277 523.549 319.09 500.947 319.09 500.947Z" fill="#066FD1"/>
    <path d="M313.09 497.445C313.09 497.445 311.957 480.506 294.86 471.008C294.86 471.008 287.457 495.672 296.855 509.063C306.254 522.455 313.09 497.458 313.09 497.458V497.445Z" fill="#066FD1"/>
    <path d="M341.09 515.515C341.09 529.405 330.734 541.11 316.948 542.806H316.896C301.825 544.631 288.116 533.889 286.292 518.817C284.467 503.745 295.209 490.035 310.28 488.21C325.351 486.386 339.06 497.128 340.884 512.2C341.013 513.292 341.09 514.41 341.09 515.515Z" fill="#DADCE0"/>
    <path d="M333.239 522.008C332.606 522.008 332.09 521.545 332.09 520.978C332.09 520.48 332.503 520.052 333.045 519.971L360.757 516.022C361.39 515.93 361.971 516.312 362.074 516.879C362.178 517.446 361.752 517.967 361.119 518.06L333.407 522.008H333.226H333.239Z" fill="#066FD1"/>
    <path d="M351.946 530.997C351.946 530.997 351.816 530.997 351.752 530.997L333.049 528.078C332.428 527.984 332.002 527.447 332.105 526.875C332.209 526.303 332.803 525.929 333.437 526.023L352.153 528.942C352.773 529.047 353.187 529.596 353.07 530.156C352.967 530.646 352.502 530.997 351.959 531.008V530.985L351.946 530.997Z" fill="#066FD1"/>
    <path d="M318.59 526.008C320.523 526.008 322.09 524.441 322.09 522.508C322.09 520.575 320.523 519.008 318.59 519.008C316.657 519.008 315.09 520.575 315.09 522.508C315.09 524.441 316.657 526.008 318.59 526.008Z" fill="#454C5E"/>
    <path d="M316.846 542.813C305.368 544.188 294.248 538.218 289.09 527.896C292.626 527.985 296.15 527.883 299.674 527.603C305.687 527.107 308.368 526.356 311.318 528.099C314.407 529.945 315.62 533.267 316.156 534.718C317.088 537.302 317.331 540.089 316.846 542.8V542.813Z" fill="black" opacity="0.1"/>
    <path d="M306.849 525.68H306.9C302.986 524.685 297.474 522.618 295.389 517.878C293.548 513.693 295.62 510.27 295.85 506.395C295.901 505.542 295.85 504.69 295.684 503.85C295.479 502.83 295.185 502.649 295.249 502.326C295.428 501.473 304.777 501.796 304.866 501.151C304.981 500.427 293.765 495.816 280.886 497.301C276.359 497.857 271.857 498.658 267.406 499.717C264.644 500.363 261.843 500.866 259.029 501.215C255.359 501.861 251.586 501.448 248.146 500.014C244.526 502.61 241.559 506.02 239.462 509.973C236.801 515.062 235.676 520.836 236.226 526.558V537.718C236.251 541.193 239.04 543.996 242.48 544.008H263.544C266.984 543.996 269.772 541.18 269.785 537.705V532.861C269.785 530.769 268.762 528.818 267.048 527.643C269.887 527.643 272.688 527.591 275.464 527.54V536.426C275.464 540.121 278.431 543.104 282.088 543.117H306.465C310.123 543.117 313.077 540.121 313.09 536.426V532.345C313.09 528.805 310.353 525.873 306.849 525.654V525.68Z" fill="#DADCE0"/>
    <path d="M286.245 533.008C285.609 533.008 285.09 532.526 285.09 531.921C285.09 531.463 285.375 531.055 285.817 530.894L303.493 524.095C304.078 523.86 304.752 524.12 304.999 524.676C305.246 525.232 304.973 525.875 304.389 526.11C304.389 526.11 304.363 526.11 304.35 526.122L286.673 532.922C286.53 532.971 286.388 532.996 286.245 532.996V533.008Z" fill="#066FD1"/>
    <path d="M277.239 521.008C276.613 521.008 276.09 520.567 276.09 519.997C276.09 519.427 276.575 518.951 277.2 518.951L304.914 518.009C305.54 517.986 306.063 518.428 306.089 518.997C306.114 519.567 305.629 520.044 305.004 520.067L277.29 521.008H277.239Z" fill="#066FD1"/>
    <path d="M252.09 512.013C252.09 512.013 261.319 516.647 262.009 524.008C262.009 524.008 263.653 511.739 252.09 512.013Z" fill="#A6A9B3"/>
    <path d="M510.096 108.008H292.084C276.092 108.008 263.09 121.025 263.09 137.035V328.056C263.09 344.067 276.092 357.083 292.084 357.083H429.378V358.008H440.903V357.083H510.096C526.088 357.083 539.09 344.067 539.09 328.056V137.035C539.09 121.025 526.088 108.008 510.096 108.008ZM292.071 345.557C282.432 345.557 274.603 337.706 274.603 328.069V137.048C274.603 127.398 282.445 119.56 292.071 119.56H429.365V345.57H292.071V345.557ZM527.564 328.069C527.564 337.719 519.722 345.557 510.096 345.557H440.903V119.547H510.096C519.735 119.547 527.564 127.398 527.564 137.035V328.056V328.069Z" fill="#A6A9B3"/>
    <path d="M359.09 95.0084C319.13 173.679 262.56 274.238 236.082 265.473C225.996 262.131 212.17 240.243 228.92 112.244C230.209 102.399 238.559 95.0213 248.428 95.0213H359.077L359.09 95.0084Z" fill="#DADCE0"/>
    <path d="M569.452 248.342C569.324 248.856 569.184 249.37 569.069 249.859C566.043 260.501 561.817 264.241 558.101 265.475C553.811 266.889 548.729 265.449 543.06 261.671C539.919 259.588 536.612 256.825 533.139 253.406C518.174 238.728 500.477 212.637 482.716 182.69C466.143 154.735 449.518 123.439 435.09 95.0084H545.754C555.624 95.0084 563.974 102.373 565.264 112.218C569.784 146.767 572.07 173.59 572.81 194.412C573.768 220.979 572.172 237.777 569.465 248.329L569.452 248.342Z" fill="#DADCE0"/>
    <path d="M537.98 417.25C525.119 405.096 536.516 308.448 542.066 266.893C542.349 264.884 542.606 263.003 542.85 261.289C543.981 252.998 544.739 248.008 544.739 248.008L569.023 249.518L570.398 249.595C570.398 249.595 572.017 256.261 574.573 266.701C583.182 301.782 602.468 379.29 606.721 386.493C612.233 395.845 554.439 432.782 537.98 417.237V417.25Z" fill="#DADCE0"/>
    <path d="M565.09 371.008H270.711L235.09 338.008H529.508L565.09 371.008Z" fill="#A6A9B3"/>
    <path d="M287.776 412.725C285.501 415.79 281.766 417.61 277.178 418.456H277.152C254.613 422.534 211.111 402.968 214.251 394.506C216.267 389.057 219.434 348.913 221.967 312.769C224.138 281.421 225.831 253.086 225.831 253.086L250.942 247.008C250.942 247.008 301.294 394.519 287.789 412.751L287.776 412.725Z" fill="#DADCE0"/>
    <path d="M256.678 247.008H223.501C219.408 247.008 216.09 250.322 216.09 254.41V258.607C216.09 262.695 219.408 266.008 223.501 266.008H256.678C260.772 266.008 264.09 262.695 264.09 258.607V254.41C264.09 250.322 260.772 247.008 256.678 247.008Z" fill="#066FD1"/>
    <path d="M581.09 255.431V259.612C581.09 263.124 578.602 266.095 575.303 266.828C574.787 266.957 574.233 267.008 573.678 267.008H540.514C536.428 267.008 533.09 263.677 533.09 259.599V255.418C533.09 254.621 533.219 253.836 533.464 253.09C534.456 250.144 537.24 248.008 540.488 248.008H573.666C577.751 248.008 581.09 251.34 581.09 255.418V255.431Z" fill="#066FD1"/>
    <path d="M538.507 417.244C525.746 405.07 537.054 308.268 542.561 266.646H540.381C536.353 266.646 533.064 263.34 533.064 259.29V255.113C533.064 254.318 533.191 253.537 533.433 252.793C518.492 238.159 500.823 212.145 483.09 182.287C506.84 176.751 552.53 170.075 573.042 193.961C573.999 220.449 572.405 237.198 569.702 247.719H573.208C577.249 247.719 580.551 251.038 580.551 255.1V259.265C580.551 262.763 578.091 265.723 574.827 266.454C583.369 301.592 602.504 379.223 606.724 386.438C612.193 395.805 554.85 432.801 538.52 417.231L538.507 417.244Z" fill="black" opacity="0.1"/>
    <path d="M485.938 371.008H447.109C446.801 358.597 450.349 345.995 453.115 338.008H482.839C484.363 348.784 486.681 369.36 485.951 371.008H485.938Z" fill="black" opacity="0.1"/>
    <path d="M386.603 408.178L399.542 392.642V388.008H377.383V393.839H389.991L377.09 409.362V414.008H400.09V408.178H386.603Z" fill="#454C5E"/>
    <path d="M361.523 442.739L371.653 431.404V428.008H354.328V432.265H364.194L354.09 443.613V447.008H372.09V442.739H361.523Z" fill="#066FD1"/>
    <path d="M336.049 466.092L342.798 458.334V456.008H331.249V458.924H337.826L331.09 466.683V469.008H343.09V466.092H336.049Z" fill="#A6A9B3"/>
    <path d="M463.016 345.008C455.703 371.006 448.403 397.017 441.09 423.015C462.387 453.351 483.671 483.686 504.968 514.008C508.009 511.45 511.049 508.904 514.09 506.345C505.148 479.029 496.205 451.726 487.276 424.41C488.367 412.767 489.457 401.124 490.535 389.481L494.294 354.003L463.016 345.008Z" fill="#066FD1"/>
    <path d="M463.016 345.008C455.703 371.006 448.403 397.017 441.09 423.015C462.387 453.351 483.671 483.686 504.968 514.008C508.009 511.45 511.049 508.904 514.09 506.345C505.148 479.029 496.205 451.726 487.276 424.41C488.367 412.767 489.457 401.124 490.535 389.481L494.294 354.003L463.016 345.008Z" fill="black" opacity="0.1"/>
    <path d="M526.09 363.238C508.568 417.161 491.047 471.085 473.525 525.008C469.718 524.52 465.897 524.031 462.09 523.542C464.356 463.369 466.609 403.195 468.876 343.008C487.951 349.747 507.014 356.486 526.09 363.225V363.238Z" fill="#066FD1"/>
    <path d="M505.128 537.008L524.09 518.275C524.09 518.275 520.465 512.363 515.77 513.067C511.062 513.783 504.528 529.318 505.128 536.996" fill="#454C5E"/>
    <path d="M446.09 537.861L472.037 542.008C472.037 542.008 474.736 535.613 471.49 532.254C468.231 528.908 451.946 532.823 446.09 537.848" fill="#454C5E"/>
    <path d="M413.069 238.125C412.917 236.313 411.619 234.804 409.927 234.276L398.352 231.169C396.151 230.54 393.721 231.81 393.047 234.162L388.264 251.672C387.692 253.509 388.582 255.295 390.16 256.326C390.465 256.565 390.986 256.678 391.33 256.741L402.906 259.848C405.106 260.477 407.536 259.207 408.21 256.855L412.993 239.345C413.031 239.169 413.133 238.666 413.069 238.112V238.125ZM405.59 256.49C405.412 257.345 404.407 257.848 403.542 257.672L391.966 254.565C391.101 254.389 390.592 253.395 390.77 252.54L395.553 235.03C395.731 234.175 396.736 233.672 397.601 233.848L409.177 236.955C410.042 237.131 410.551 238.125 410.373 238.98L405.59 256.49Z" fill="#454C5E"/>
    <path d="M402.979 230.682L394.617 260.795C394.079 262.478 392.44 263.389 390.737 262.857L369.351 257.012C367.648 256.48 366.726 254.861 367.225 253.355L375.587 223.242C376.125 221.56 377.764 220.649 379.288 221.142L400.674 226.988C402.403 227.342 403.466 229.176 402.966 230.682H402.979Z" fill="#454C5E"/>
    <path d="M400.09 238.008L393.984 260.785C393.459 262.475 391.857 263.39 390.193 262.856L369.299 256.984C367.635 256.451 366.734 254.824 367.222 253.311L368.098 249.905C379.258 247.249 389.981 243.232 400.077 238.008H400.09Z" fill="black" opacity="0.3"/>
    <path d="M389.655 213.48C389.419 215.195 387.181 215.582 386.386 214.048C385.279 211.907 384.695 209.625 385.391 207.433C386.249 204.338 389.22 203.526 391.457 200.547C392.825 198.755 394.142 196.009 394.031 191.895C393.981 190.129 396.181 189.304 397.163 190.748C398.754 193.108 399.077 194.964 399.09 196.37C398.966 201.631 392.787 203.204 390.45 210.166C390.053 211.224 389.792 212.333 389.642 213.467L389.655 213.48Z" fill="#066FD1"/>
    <path d="M403.258 199.195C402.675 200.198 403.713 201.367 404.764 200.904C406.233 200.275 407.486 199.324 408.018 197.885C408.841 195.893 407.588 194.184 407.613 191.653C407.613 190.124 408.043 188.12 409.803 186.012C410.55 185.113 409.727 183.725 408.6 184.059C406.777 184.599 405.84 185.434 405.258 186.154C403.156 188.955 405.802 192.45 404.182 197.101C403.954 197.821 403.637 198.514 403.258 199.17V199.195Z" fill="#066FD1"/>
    <path d="M564.09 250.555C558.344 267.662 552.483 284.731 546.736 301.812L539.639 322.803C537.677 328.884 535.613 335.068 533.473 341.302C530.937 348.712 528.351 355.931 525.751 363.008C504.856 356.978 483.973 350.922 463.09 344.892C464.886 331.963 466.759 319.226 468.556 306.296C470.875 289.765 473.219 273.207 475.538 256.675C476.761 248.115 477.984 239.555 479.208 231.008L564.064 250.555H564.09Z" fill="#DADCE0"/>
    <path d="M548.09 300.008C543.634 313.626 538.948 327.433 534.017 341.407C531.449 348.679 528.856 355.888 526.236 363.008C505.179 357.007 484.134 350.981 463.09 344.979C465.594 332.341 466.531 325.946 465.889 325.793C465.773 325.768 465.619 325.933 465.414 326.289C475.134 327.141 492.095 327.357 511.599 320.72C528.817 314.859 540.977 306.035 548.077 300.008H548.09Z" fill="black" opacity="0.1"/>
    <path d="M555.09 177.42C554.833 181.008 554.294 186.266 553.574 192.872C553.407 194.232 553.24 195.579 553.138 196.032C552.033 203.13 550.017 210.007 547.243 216.652C546.626 217.895 545.997 219.152 545.38 220.395C542.991 224.786 526.051 229.656 511.551 227.467C497.051 225.265 492.466 210.836 499.003 205.021C501.276 202.573 503.1 199.879 504.423 196.783C506.259 192.742 507.942 188.714 509.175 184.44C509.984 181.979 510.421 180.451 510.421 180.451L522.224 171.008L549.593 172.135C549.143 176.785 550.184 180.101 551.686 180.412C553.189 180.71 554.859 178.029 555.09 177.42Z" fill="#FFCB9D"/>
    <path d="M555.09 177.362C554.83 180.896 554.284 186.076 553.556 192.583C553.387 193.923 553.218 195.25 553.114 195.697C551.996 202.688 549.955 209.463 547.147 216.008C545.457 215.434 543.715 214.426 542.402 213.227C540.933 211.9 539.581 210.267 538.801 208.289C537.865 206.325 537.358 204.181 537.163 202.14C536.877 200.698 536.747 199.397 536.76 197.929C526.008 200.966 514.464 200.417 504.09 196.398C505.949 192.418 507.652 188.45 508.9 184.239C509.719 181.815 510.161 180.31 510.161 180.31L522.108 171.008L549.812 172.118C549.357 176.699 550.41 179.965 551.931 180.271C553.452 180.565 554.843 177.949 555.077 177.35" fill="black" opacity="0.1"/>
    <path d="M558.058 183.782C557.698 189.476 555.257 194.91 551.056 198.879C550.234 199.553 549.411 200.228 548.602 201.045C546.598 203.315 545.236 206.129 544.619 209.008C543.437 207.335 542.666 205.468 542.628 203.392C542.923 200.241 543.373 197.076 544.118 194.028C544.118 194.028 544.105 193.886 544.221 193.574C544.337 193.263 544.311 192.965 544.388 192.212C544.542 190.708 544.555 189.216 544.581 187.881V187.738H544.568C537.411 191.694 517.227 201.343 504.29 190.656C502.208 188.918 500.564 186.986 499.035 184.897C498.881 184.768 498.701 184.482 498.688 184.34C498.341 183.782 497.994 183.211 497.789 182.641L497.634 182.511C496.902 180.942 496.452 179.346 496.157 177.738L496.106 177.141C495.913 173.445 497.506 170.008 500.243 167.673C504.328 164.016 510.02 161.837 513.026 160.812C524.872 156.558 542.666 156.065 552.238 167.077C554.718 169.969 556.362 173.38 557.146 177.038C557.942 179.191 558.161 181.551 558.071 183.795" fill="#454C5E"/>
    <path d="M544.732 187.564C537.542 191.344 517.261 200.565 504.262 190.353C502.17 188.692 500.518 186.845 498.982 184.85C498.827 184.726 498.646 184.453 498.633 184.317C498.284 183.784 497.936 183.239 497.729 182.693L497.574 182.569C496.839 181.07 496.387 179.545 496.09 178.008C499.046 181.008 502.57 183.685 506.469 185.606C525.627 195.124 546.566 184.986 549.806 183.263L550.09 183.09C548.463 184.664 546.695 186.238 544.745 187.552" fill="black" opacity="0.5"/>
    <path d="M531.09 240.559C526.681 243.583 521.468 245.474 516.076 245.917L515.207 244.705L513.162 246.008C513.034 246.008 512.894 246.008 512.766 246.008H512.025L504.09 236.008L508.575 236.765L528.202 240.076L531.09 240.559Z" fill="#FFCB9D"/>
    <path d="M515.09 244.581L502.402 230.008L498.09 232.965L504.875 251.008L515.09 244.581Z" fill="#066FD1"/>
    <path d="M547.09 241.367L525.613 259.008L516.026 245.784L515.142 244.572L515.09 244.494L515.233 244.442L528.371 239.947L542.758 235.008L547.09 241.367Z" fill="#066FD1"/>
    <path d="M515.09 244.572L514.966 244.647L512.979 245.899L504.87 251.008L498.09 232.976L502.411 230.008L508.521 237.021L515.053 244.522L515.09 244.572Z" fill="black" opacity="0.1"/>
    <path d="M515.516 373.918C514.33 374.463 513.157 375.11 512.107 375.849C511.538 376.277 510.983 376.821 510.439 377.365C505.609 382.328 504.645 389.622 508.339 393.535C511.662 397.073 517.542 396.71 522.175 393.121C522.743 392.693 523.311 392.253 523.756 391.734C524.201 391.216 524.645 390.685 525.102 390.167C528.685 385.308 529.179 379.101 525.856 375.564C523.496 372.752 519.408 372.351 515.516 373.918Z" fill="#FFCB9D"/>
    <path d="M515.503 373.913C514.316 374.455 513.141 375.099 512.09 375.833C515.824 381.271 519.287 386.978 522.168 393.008C522.737 392.583 523.306 392.145 523.751 391.63C524.197 391.114 524.642 390.586 525.099 390.071C528.686 385.239 529.18 379.067 525.854 375.55C523.492 372.754 519.398 372.354 515.503 373.913Z" fill="black" opacity="0.1"/>
    <path d="M545.414 322.285C538.136 335.733 528.846 343.583 524.054 347.559C516.955 353.453 510.177 357.313 505.09 359.809C508.665 365.562 511.804 370.323 514.162 373.772C519.415 381.493 522.926 386.64 528.244 392.74C531.55 396.523 534.881 399.933 538.161 403.008C549.924 392.109 565.3 374.595 574.68 350.145C574.885 349.631 575.09 349.09 575.269 348.563C576.871 344.265 578.255 339.761 579.421 335.051C580.6 330.264 581.689 324.602 582.522 318.502C582.688 317.267 582.842 316.019 582.996 314.745C585.84 290.037 584.034 259.861 566.697 250.763C559.483 246.993 551.385 247.713 545.029 249.271C548.668 255.615 555.69 269.886 554.973 288.854C554.358 305.479 548.105 317.318 545.414 322.298V322.285Z" fill="#DADCE0"/>
    <path d="M572.47 331.981C569.825 340.188 571.103 347.991 575.269 350.008C575.473 349.504 575.678 348.975 575.857 348.458C577.454 344.247 578.834 339.835 579.997 335.221C581.173 330.531 582.259 324.984 583.09 319.008C579.013 319.992 574.681 325.085 572.457 331.981H572.47Z" fill="#454C5E"/>
    <path d="M407.229 260.806C406.273 259.844 405.355 258.79 404.606 257.698C404.205 257.073 403.869 256.358 403.52 255.643C400.6 249.153 402.293 241.96 407.307 239.71C411.817 237.668 417.425 240.243 420.643 245.368C421.043 245.992 421.444 246.616 421.69 247.267C421.935 247.917 422.181 248.593 422.426 249.244C424.171 255.148 422.413 261.144 417.89 263.199C414.569 264.942 410.434 263.746 407.216 260.793L407.229 260.806Z" fill="#FFCB9D"/>
    <path d="M406.784 260.745C405.802 259.764 404.86 258.69 404.09 257.576C409.864 253.811 415.452 249.675 420.576 245.008C420.988 245.645 421.399 246.281 421.652 246.944C421.904 247.62 422.156 248.296 422.408 248.959C424.2 254.978 422.395 261.089 417.749 263.184C414.337 264.96 410.09 263.741 406.784 260.731V260.745Z" fill="black" opacity="0.1"/>
    <path d="M493.09 245.357C491.4 255.115 487.022 272.539 473.991 289.593C469.78 295.078 465.287 300.984 459.885 305.589C455.251 309.555 449.99 312.604 443.679 313.624C438.239 314.517 432.581 313.829 427 311.813C414.699 307.349 402.705 296.366 394.09 281.391C396.164 277.386 398.954 272.858 402.705 268.266C411.819 257.118 422.264 250.88 429.304 247.487C432.056 274.733 436.537 280.664 440.082 281.149C451.385 282.692 462.842 230.114 479.355 231.02C485.768 231.364 490.466 239.643 493.09 245.357Z" fill="#DADCE0"/>
    <path d="M459.09 305.803C454.44 309.669 449.16 312.64 442.827 313.634C437.368 314.504 431.69 313.833 426.09 311.869C426.18 311.422 426.334 310.999 426.475 310.564C429.558 302.235 441.299 298.668 452.667 302.621C455.031 303.429 457.189 304.498 459.077 305.791L459.09 305.803Z" fill="#454C5E"/>
    <path d="M507.082 373.008L515.09 396.341L504.213 400.008L500.09 381.073L507.082 373.008Z" fill="#066FD1"/>
    <path d="M277.09 418.458C254.573 422.526 211.114 403.004 214.251 394.561C216.265 389.124 219.428 349.071 221.959 313.008C229.435 345.655 245.341 393.205 277.09 418.458Z" fill="black" opacity="0.1"/>
</svg>
