<svg xmlns="http://www.w3.org/2000/svg" width="800" height="600" fill="none" viewBox="0 0 800 600">
    <path d="M168 292.447C168 331.569 209.483 360.124 227.807 391.826C246.694 424.54 251.303 474.342 283.904 493.341C315.607 511.665 360.687 491.205 399.809 491.205C438.931 491.205 484.123 511.665 515.713 493.341C548.315 474.454 552.924 424.54 571.811 391.826C590.135 360.124 631.618 331.794 631.618 292.447C631.618 253.1 590.135 224.771 571.811 193.068C552.924 160.354 548.315 110.44 515.713 91.5536C484.011 73.2292 438.931 93.802 399.809 93.802C360.687 93.802 315.494 73.3417 283.904 91.666C251.19 110.552 246.694 160.467 227.807 193.181C209.37 224.995 168 253.325 168 292.447Z" fill="black" opacity="0.07"/>
    <path d="M447.25 450.284C439.718 475.578 432.299 500.76 424.767 526.055L414.199 525.155L416.672 446.349L397.111 395.311C397.111 396.323 395.762 424.99 395.65 426.001C395.65 426.788 394.413 452.195 394.413 452.982C386.994 465.348 379.574 477.827 372.267 490.305C365.297 501.997 358.439 513.801 351.581 525.38L341.576 524.031C348.096 500.198 354.617 476.365 361.137 452.532C357.54 422.854 354.055 393.175 350.457 363.496L399.247 362.372L427.802 361.698C434.322 391.264 440.73 420.718 447.25 450.284Z" fill="#DADBE0"/>
    <path d="M447.25 450.284C439.718 475.578 432.299 500.76 424.767 526.055L414.199 525.155L416.672 446.349L397.111 395.311L399.36 362.372L427.914 361.698C434.322 391.264 440.73 420.718 447.25 450.284Z" fill="black" opacity="0.1"/>
    <path d="M268.729 544.941C268.729 547.639 324.489 550 393.289 550C462.09 550 517.85 547.752 517.85 544.941C517.85 542.131 462.09 540.107 393.289 540.107C324.489 540.107 268.729 542.356 268.729 544.941Z" fill="#1D2535" opacity="0.5"/>
    <path d="M533.702 277.27C518.525 285.927 501.662 286.826 487.61 285.365C483.001 284.803 478.392 284.016 473.782 283.004C471.309 282.442 468.836 281.767 466.475 281.093C464.114 280.418 461.529 279.519 459.168 278.619C460.629 273.336 462.091 268.052 463.552 262.881C463.777 262.094 464.002 261.419 464.114 260.632L466.588 251.639C468.836 252.651 470.972 253.55 472.996 254.337L474.457 254.899C478.279 256.36 481.764 257.597 484.912 258.496C502.787 263.668 512.342 261.307 517.738 257.485C521.786 254.674 531.454 245.568 538.649 232.303C541.909 226.232 543.82 220.948 548.991 219.824C554.162 218.7 561.694 222.297 564.617 227.244C571.925 239.273 554.724 265.354 533.702 277.27Z" fill="#FFCB9D"/>
    <path d="M487.722 285.365C483.113 284.803 478.504 284.016 473.894 283.004C471.421 282.442 468.948 281.767 466.587 281.093C465.463 275.022 463.889 266.253 463.552 262.881C463.439 262.431 463.439 262.094 463.439 261.644C463.552 261.307 463.777 260.857 464.114 260.632C466.924 258.272 469.847 256.136 472.995 254.337L474.457 254.899C478.279 256.36 481.764 257.597 484.912 258.496C483.9 265.804 483.113 277.608 487.722 285.365Z" fill="black" opacity="0.1"/>
    <path d="M373.504 166.088C373.841 169.91 374.291 175.418 375.19 182.164C375.415 183.625 375.527 184.974 375.64 185.424C376.764 192.843 378.9 200.151 381.935 207.008C382.497 208.357 383.172 209.706 383.847 210.943C386.432 215.552 404.307 220.611 419.596 218.25C434.885 215.889 439.831 200.825 432.861 194.642C430.388 192.169 428.477 189.246 427.128 186.098C425.104 181.939 423.418 177.554 421.957 173.17C421.057 170.697 420.608 169.011 420.608 169.011L408.129 159.005L379.125 160.129C379.687 164.963 378.563 168.448 376.989 168.786C375.415 169.123 373.729 166.65 373.504 166.088Z" fill="#FFCB9D"/>
    <path d="M373.504 166.088C373.841 169.91 374.291 175.418 375.19 182.164C375.415 183.625 375.527 184.974 375.64 185.424C376.764 192.843 378.9 200.151 381.935 207.008C383.734 206.334 385.533 205.322 386.994 203.973C388.568 202.512 389.917 200.713 390.816 198.802C391.716 196.666 392.39 194.417 392.615 192.169C392.84 190.708 392.952 189.246 393.065 187.785C404.307 191.045 416.336 190.483 427.128 186.098C425.104 181.939 423.418 177.554 422.069 173.17C421.17 170.697 420.72 169.011 420.72 169.011L408.241 159.005L379.237 160.129C379.799 164.963 378.675 168.448 377.101 168.786C375.527 169.123 373.729 166.65 373.504 166.088Z" fill="black" opacity="0.1"/>
    <path d="M437.696 165.076C436.909 167.099 435.898 169.011 434.661 170.809C433.2 173.17 431.288 175.306 429.152 177.105C419.597 185.311 404.42 186.323 390.48 179.466C388.119 178.341 385.871 176.992 383.735 175.419H383.623V175.531C383.623 177.105 383.735 178.679 383.96 180.253C384.072 180.927 384.072 181.152 384.185 181.714L384.297 182.164C384.41 183.063 386.208 188.909 386.208 192.169C386.096 194.305 385.421 196.441 384.072 198.127C383.285 194.98 381.711 192.169 379.575 189.696C378.789 188.909 377.889 188.122 376.877 187.447C372.381 183.288 369.57 177.555 369.008 171.484C368.783 169.011 369.008 166.425 369.57 164.064C369.795 162.49 371.256 156.644 374.741 153.272C381.936 146.414 400.036 149.112 409.029 151.81C410.603 152.26 413.301 153.159 415.55 152.485C415.999 152.373 416.337 152.148 416.786 151.81C419.147 150.012 419.147 145.965 418.36 143.491C416.899 138.545 411.278 135.172 404.195 134.61C419.259 130.451 433.762 137.308 438.258 148.55C440.282 153.834 440.057 159.905 437.696 165.076Z" fill="#232B41"/>
    <path d="M437.696 165.076C436.909 167.099 435.897 169.011 434.66 170.809C433.199 173.17 431.288 175.306 429.152 177.105C419.596 185.311 404.42 186.323 390.48 179.466C387.107 177.442 384.184 175.643 383.734 175.419H383.622L378.9 171.596C386.432 174.856 394.527 176.768 402.733 177.217C410.041 177.554 420.046 178.117 429.714 172.046C432.749 170.135 435.447 167.774 437.696 165.076Z" fill="black" opacity="0.5"/>
    <path d="M362.15 547.864L336.855 540.557C336.855 540.557 336.968 533.699 341.577 532.013C346.186 530.327 359.002 541.007 362.15 547.864Z" fill="#232B41"/>
    <path d="M437.357 547.19L411.163 544.042C411.163 544.042 410.151 537.184 414.423 534.823C418.695 532.463 433.197 540.894 437.357 547.19Z" fill="#232B41"/>
    <path d="M571.473 83.0098C570.574 81.2111 569 79.8621 566.976 79.1875L530.103 67.1587C526.056 65.8096 521.784 68.058 520.435 72.1051L505.82 117.073C503.235 114.824 500.087 113.138 496.827 112.126C488.283 109.316 480.189 110.89 478.727 115.611C477.266 120.333 482.887 126.404 491.318 129.102C499.75 131.8 507.956 130.338 509.418 125.617L509.98 125.842L526.73 74.2411C526.843 74.0163 526.955 73.7914 527.18 73.7914C527.405 73.679 527.63 73.679 527.854 73.7914L564.728 85.8203C565.178 85.9327 565.403 86.3824 565.29 86.8321C565.29 86.8321 565.29 86.8321 565.29 86.9445L550.676 131.912C548.09 129.664 544.942 127.978 541.682 126.966C533.138 124.155 525.044 125.729 523.47 130.451C521.896 135.172 527.63 141.243 536.061 143.941C544.493 146.639 552.699 145.178 554.273 140.456L554.835 140.681L571.586 89.0805C572.485 87.0569 572.373 84.9209 571.473 83.0098Z" fill="#066FD1"/>
    <path d="M287.392 314.032C286.267 310.659 280.422 309.76 274.351 311.783C271.99 312.57 269.854 313.807 268.056 315.493L256.814 283.791C255.802 280.98 252.767 279.406 249.956 280.418L223.987 289.637C221.177 290.648 219.603 293.684 220.615 296.494L233.43 332.918L233.88 332.806C235.004 336.178 240.85 337.078 246.808 334.942C252.766 332.806 256.701 328.421 255.577 325.049C254.453 321.676 248.719 320.777 242.649 322.913C240.288 323.7 238.152 324.936 236.353 326.623L225.111 294.92C224.999 294.583 225.111 294.246 225.449 294.133L251.53 284.915C251.867 284.802 252.204 284.915 252.317 285.252L265.133 321.676L265.582 321.564C266.707 324.936 272.552 325.836 278.511 323.7C284.469 321.564 288.628 317.292 287.392 314.032Z" fill="#A6A9B3"/>
    <path d="M332.886 97.4955L324.263 61.0879C323.364 57.3781 325.725 53.5558 329.435 52.6564L340.339 50.0708C341.801 49.7335 343.262 50.6329 343.6 52.0944C343.937 53.5558 343.038 54.9048 341.576 55.3545L330.784 57.8277C329.997 58.0526 329.435 58.9519 329.66 59.7389L339.777 102.571C339.927 103.221 339.833 103.872 339.552 104.423C338.991 108.577 333.558 112.875 326.247 114.599C317.847 116.579 310.148 114.413 309.051 109.76C307.954 105.107 313.874 99.7291 322.273 97.7485C326.155 96.8333 329.886 96.8035 332.886 97.4955Z" fill="#232B41"/>
    <path d="M393.854 141.22C394.23 141.171 395.186 141.349 396.853 143.094C398.469 144.785 400.363 147.554 402.523 151.54L406.091 149.607C403.866 145.5 401.77 142.366 399.788 140.291C397.887 138.301 395.643 136.824 393.194 137.216L393.175 137.219L393.156 137.222C391.209 137.572 389.81 139.022 388.809 140.754C387.792 142.512 386.982 144.894 386.322 147.791C385 153.605 384.18 161.995 383.842 172.882L387.898 173.008C388.234 162.199 389.045 154.119 390.28 148.691C390.899 145.967 391.599 144.035 392.322 142.786C393.041 141.542 393.6 141.274 393.854 141.22Z" fill="#A6A9B3"/>
    <path d="M399.81 186.098C399.81 193.631 395.201 199.926 389.018 201.612C385.083 202.624 380.924 201.725 377.776 199.252C373.841 195.991 371.593 191.27 371.705 186.211C371.593 180.702 374.178 175.643 378.675 172.496C380.811 171.034 383.172 170.36 385.758 170.36C393.515 170.247 399.81 177.33 399.81 186.098Z" fill="#DADBE0"/>
    <path d="M385.756 195.991C390.537 195.991 394.412 191.562 394.412 186.098C394.412 180.635 390.537 176.205 385.756 176.205C380.975 176.205 377.1 180.635 377.1 186.098C377.1 191.562 380.975 195.991 385.756 195.991Z" fill="#A6A9B3"/>
    <path d="M384.296 189.808C383.734 191.607 382.835 193.406 381.823 194.979C380.699 196.666 379.35 198.127 377.776 199.251C373.841 195.991 371.593 191.27 371.705 186.211C371.593 180.702 374.178 175.643 378.675 172.496C380.362 173.732 381.823 175.194 382.835 176.992C385.083 180.815 385.645 185.536 384.296 189.808Z" fill="black" opacity="0.1"/>
    <path d="M379.349 192.731C374.628 199.139 366.421 196.778 351.807 200.488C338.316 203.973 321.453 212.067 321.903 219.037C322.128 222.859 327.299 225.782 333.033 229.155L333.257 229.267C334.944 230.279 347.872 238.036 349.671 241.071L349.783 241.184L349.896 241.409C350.008 241.521 350.008 241.746 350.008 241.858C350.12 242.196 350.12 242.42 350.12 242.758C350.12 242.87 350.12 243.095 350.12 243.207C350.008 244.219 349.671 246.58 349.109 250.964C348.884 252.875 348.771 254.787 348.884 256.698C348.884 257.035 348.884 257.485 348.884 257.822C348.996 259.058 349.109 260.07 349.221 261.082C349.333 261.532 349.333 262.094 349.446 262.431L349.558 262.993C350.12 266.478 350.345 267.378 350.233 267.827C350.233 267.827 350.233 267.827 350.233 267.94L350.12 268.052C349.109 269.401 336.518 265.466 324.489 257.147C321.004 254.787 317.631 252.313 314.483 249.615C305.715 242.196 295.709 230.954 296.946 218.138C297.171 215.552 298.07 211.505 301.78 205.659C320.554 176.655 372.042 165.301 380.811 177.892C383.509 182.051 382.272 188.796 379.349 192.731Z" fill="#FFCB9D"/>
    <path d="M350.12 268.052C350.12 268.164 350.008 268.277 350.008 268.277C348.996 269.626 336.405 265.691 324.376 257.372C320.891 255.011 317.519 252.538 314.371 249.84C319.992 247.367 327.299 242.87 331.346 234.551C332.133 232.865 332.808 231.066 333.258 229.267C334.944 230.279 347.872 238.036 349.671 241.071L349.783 241.184L349.896 241.409C350.008 241.521 350.008 241.746 350.008 241.858C350.12 242.196 350.12 242.42 350.12 242.758C350.12 242.87 350.12 243.095 350.12 243.207C350.008 244.219 349.671 246.58 349.109 250.964C348.884 252.875 348.771 254.787 348.884 256.698C348.884 257.035 348.884 257.485 348.884 257.822C348.996 259.058 349.109 260.07 349.221 261.082C349.334 261.532 349.334 262.094 349.446 262.431L349.558 262.993C349.896 266.028 350.458 267.265 350.12 268.052Z" fill="black" opacity="0.1"/>
    <path d="M477.941 253.213C477.941 263.668 474.794 273.898 469.173 282.667C467.037 286.039 464.563 289.075 461.753 291.885L448.263 283.678C443.991 294.583 440.618 305.825 438.145 317.179C435.784 327.072 434.323 337.19 433.76 347.42C433.423 354.278 433.423 361.135 433.873 367.881L414.312 367.993C409.253 367.993 396.999 368.105 386.544 368.105C375.977 368.105 361.025 368.105 342.363 367.881C346.298 351.242 349.109 334.492 351.02 317.517C352.594 303.577 353.268 290.424 353.493 278.282C352.144 277.495 350.795 276.708 349.446 276.146C346.411 274.797 343.15 273.898 339.89 273.561C336.518 259.059 336.967 243.994 341.352 229.829C351.245 231.516 361.25 232.752 371.368 233.427C373.729 233.427 378.45 233.314 379.687 233.202C380.586 233.09 381.485 232.977 382.385 232.977H382.722C390.929 231.965 397.337 229.942 410.152 229.38C415.998 229.043 421.956 229.043 427.915 229.492L429.039 229.605C432.187 229.829 435.447 230.392 438.594 230.954C442.642 231.965 446.464 233.652 449.949 236.013C457.031 240.172 466.587 246.018 477.941 253.213Z" fill="#066FD1"/>
    <path d="M533.251 209.931L537.747 208.357C539.771 207.683 541.907 208.695 542.581 210.718L547.078 223.421L535.387 227.581L530.89 214.878C530.215 212.854 531.227 210.606 533.251 209.931Z" fill="#232B41"/>
    <path d="M545.281 209.482L548.541 208.357C550.115 207.795 551.801 208.582 552.363 210.156L555.96 220.274L547.079 223.422L543.482 213.304C542.92 211.73 543.707 210.044 545.281 209.482Z" fill="#066FD1"/>
    <path d="M574.847 255.124L555.061 262.094C551.464 263.33 547.417 261.419 546.18 257.822L534.601 225.108C533.364 221.51 535.275 217.463 538.873 216.227L558.659 209.257C562.256 208.02 566.303 209.931 567.54 213.529L571.137 223.759L579.007 246.243C580.356 249.84 578.444 253.887 574.847 255.124Z" fill="#A6A9B3"/>
    <path d="M550.227 238.149C555.939 238.149 560.57 233.518 560.57 227.806C560.57 222.094 555.939 217.463 550.227 217.463C544.515 217.463 539.885 222.094 539.885 227.806C539.885 233.518 544.515 238.149 550.227 238.149Z" fill="#DADBE0"/>
    <path d="M550.227 232.865C553.021 232.865 555.286 230.6 555.286 227.806C555.286 225.012 553.021 222.747 550.227 222.747C547.433 222.747 545.168 225.012 545.168 227.806C545.168 230.6 547.433 232.865 550.227 232.865Z" fill="#A6A9B3"/>
    <path d="M574.845 255.124L555.06 262.094C552.249 263.106 549.101 262.206 547.303 259.846C564.39 250.177 569.899 235.563 571.248 223.646L579.117 246.13C580.354 249.84 578.555 253.887 574.845 255.124Z" fill="black" opacity="0.1"/>
    <path d="M484.573 320.664H482.1C450.397 320.102 411.725 308.523 396.886 283.903C394.525 280.081 392.839 275.809 392.052 271.312C383.845 273.561 373.053 273.785 366.42 267.827C358.101 260.407 359.9 246.917 361.024 238.036C363.722 217.576 375.189 202.511 384.407 193.406L385.981 194.979C377.1 203.861 365.858 218.587 363.272 238.373C362.148 246.805 360.462 259.621 367.882 266.253C373.952 271.649 383.958 271.312 391.714 269.176C391.265 266.253 391.377 263.218 391.827 260.295C392.277 258.047 393.288 253.437 397.223 251.526C399.809 250.29 402.844 250.515 405.205 252.088C407.566 254 408.69 257.035 408.24 260.07C407.341 264.792 400.708 268.614 394.75 270.75L394.188 270.975C394.975 275.247 396.436 279.294 398.684 283.116C411.163 303.801 444.664 318.191 481.987 318.753C515.488 319.315 542.469 308.748 554.273 290.536C559.669 282.217 562.142 271.874 561.693 259.733L563.941 259.621C564.391 272.212 561.805 283.116 556.184 291.773C544.268 309.872 517.624 320.664 484.573 320.664ZM400.82 252.875C399.921 252.875 399.022 253.1 398.122 253.437C395.199 254.899 394.3 258.834 393.963 260.632C393.513 263.218 393.513 265.804 393.85 268.389H394.075C400.708 266.141 405.542 262.543 406.104 259.508C406.441 257.372 405.542 255.236 403.968 253.775C402.956 253.1 401.832 252.763 400.82 252.875Z" fill="#A6A9B3"/>
    <path d="M427.916 229.38C424.881 232.752 416.674 235.9 406.781 237.024C394.977 238.373 384.859 236.575 382.836 232.865C397.563 229.155 412.74 227.918 427.916 229.38Z" fill="#FFCB9D"/>
    <path d="M433.873 367.768L414.312 367.881C409.253 367.881 396.999 367.993 386.544 367.993C375.977 367.993 361.025 367.993 342.363 367.768C346.298 351.13 349.108 334.38 351.02 317.404C352.593 303.464 353.268 290.311 353.493 278.17C355.404 288.063 359.001 300.429 366.309 313.245C386.881 349.444 421.619 363.496 433.873 367.768Z" fill="black" opacity="0.1"/>
    <path d="M427.916 229.38C424.881 232.752 416.674 235.9 406.781 237.024C394.977 238.373 384.859 236.575 382.836 232.865C397.563 229.155 412.74 227.918 427.916 229.38Z" fill="black" opacity="0.1"/>
</svg>
