<svg xmlns="http://www.w3.org/2000/svg" width="800" height="600" fill="none" viewBox="0 0 800 600">
    <path d="M148.051 301.41C148.051 342.41 191.411 372.25 210.631 405.42C230.381 439.66 235.211 491.83 269.341 511.68C302.511 530.89 349.731 509.43 390.741 509.43C431.751 509.43 478.971 530.9 512.141 511.68C546.271 491.93 551.101 439.66 570.851 405.42C590.061 372.25 633.431 342.52 633.431 301.41C633.431 260.3 589.961 230.57 570.851 197.4C551.101 163.16 546.271 110.89 512.141 91.1401C478.971 71.9301 431.751 93.3901 390.741 93.3901C349.731 93.3901 302.511 71.9201 269.341 91.1401C235.101 110.89 230.381 163.16 210.631 197.4C191.421 230.67 148.051 260.41 148.051 301.41Z" fill="black" opacity="0.07"/>
    <path d="M601.922 491.48C601.922 492.84 631.332 493.98 667.582 493.98C703.832 493.98 733.242 492.84 733.242 491.48C733.242 490.12 703.832 489.04 667.582 489.04C631.332 489.04 601.922 490.18 601.922 491.48Z" fill="#1D2535" opacity="0.5"/>
    <path d="M732.629 308.32V311.49L735.659 312.46C736.259 312.65 736.269 313.51 735.659 313.71L732.649 314.7V317.87C732.659 318.5 731.849 318.77 731.479 318.26L729.609 315.7L726.599 316.69C725.999 316.89 725.489 316.2 725.859 315.68L727.719 313.11L725.849 310.55C725.479 310.04 725.979 309.35 726.579 309.54L729.599 310.51L731.459 307.94C731.829 307.43 732.639 307.69 732.649 308.32H732.629Z" fill="#066FD1"/>
    <path d="M731.139 312.475L730.188 312.169L721.4 339.49L722.352 339.797L731.139 312.475Z" fill="#066FD1"/>
    <path d="M736.647 294.042L736.457 293.981C736.278 293.923 736.086 294.021 736.029 294.2L733.248 302.844C733.191 303.023 733.289 303.214 733.468 303.272L733.658 303.333C733.837 303.391 734.029 303.292 734.086 303.113L736.866 294.47C736.924 294.291 736.826 294.099 736.647 294.042Z" fill="#066FD1"/>
    <path d="M744.883 305.131L744.746 304.864C744.673 304.721 744.498 304.665 744.355 304.738L739.231 307.369C739.088 307.442 739.032 307.616 739.105 307.759L739.242 308.026C739.315 308.168 739.49 308.225 739.633 308.151L744.757 305.521C744.9 305.448 744.956 305.273 744.883 305.131Z" fill="#066FD1"/>
    <path d="M749.167 318.2L749.228 318.01C749.285 317.831 749.187 317.639 749.008 317.582L740.364 314.802C740.186 314.744 739.994 314.843 739.937 315.021L739.875 315.212C739.818 315.39 739.916 315.582 740.095 315.639L748.739 318.42C748.918 318.477 749.109 318.379 749.167 318.2Z" fill="#066FD1"/>
    <path d="M737.888 326.109L738.173 325.963C738.31 325.892 738.365 325.723 738.294 325.586L735.824 320.773C735.753 320.635 735.584 320.581 735.447 320.652L735.162 320.798C735.024 320.868 734.97 321.037 735.041 321.175L737.511 325.988C737.582 326.125 737.75 326.18 737.888 326.109Z" fill="#066FD1"/>
    <path d="M713.738 321.222L713.829 321.4C713.915 321.567 714.12 321.633 714.287 321.547L722.365 317.401C722.532 317.315 722.598 317.11 722.512 316.943L722.421 316.765C722.335 316.598 722.13 316.532 721.963 316.618L713.885 320.764C713.718 320.85 713.652 321.055 713.738 321.222Z" fill="#066FD1"/>
    <path d="M716.487 307.76L716.376 308.103C716.333 308.239 716.408 308.386 716.544 308.43L721.361 309.979C721.498 310.023 721.644 309.948 721.688 309.811L721.799 309.468C721.843 309.332 721.767 309.185 721.631 309.141L716.814 307.592C716.677 307.548 716.531 307.623 716.487 307.76Z" fill="#066FD1"/>
    <path d="M721.973 295.296L721.795 295.387C721.628 295.473 721.562 295.678 721.647 295.845L725.794 303.923C725.879 304.09 726.084 304.156 726.251 304.07L726.429 303.979C726.596 303.893 726.662 303.688 726.577 303.521L722.43 295.443C722.345 295.276 722.14 295.21 721.973 295.296Z" fill="#066FD1"/>
    <path d="M726.598 340.28C726.878 339.95 727.108 339.59 727.288 339.2C728.038 337.61 728.048 335.55 726.918 334.37C725.188 332.59 721.858 333.85 720.958 334.18C720.568 334.34 720.178 334.52 719.798 334.72C718.008 335.64 715.238 337.98 715.598 339.81C715.988 341.83 720.658 342.72 723.968 341.78C724.978 341.55 725.888 341.02 726.598 340.27V340.28Z" fill="#FFCB9D"/>
    <path d="M726.598 340.28C726.878 339.95 727.108 339.59 727.288 339.2C725.258 337.49 722.768 337.11 720.088 334.97L719.798 334.72C718.008 335.64 715.238 337.98 715.598 339.81C715.988 341.83 720.658 342.72 723.968 341.78C724.978 341.55 725.888 341.02 726.598 340.27V340.28Z" fill="black" opacity="0.1"/>
    <path d="M626.861 327.87C626.781 327.45 626.651 327.04 626.461 326.65C625.701 325.07 624.111 323.76 622.481 323.89C620.011 324.11 618.881 327.49 618.581 328.4C618.461 328.81 618.351 329.22 618.271 329.64C617.861 331.61 617.921 335.24 619.571 336.11C621.391 337.08 625.021 334.02 626.381 330.86C626.831 329.93 627.001 328.89 626.871 327.87H626.861Z" fill="#FFCB9D"/>
    <path d="M626.861 327.87C626.781 327.45 626.651 327.04 626.461 326.65C623.851 327.14 621.991 328.84 618.641 329.57L618.271 329.64C617.861 331.61 617.921 335.24 619.571 336.11C621.391 337.08 625.021 334.02 626.381 330.86C626.831 329.93 627.001 328.89 626.871 327.87H626.861Z" fill="black" opacity="0.1"/>
    <path d="M70.1211 475.49C70.1211 476.63 94.7011 477.58 125.001 477.58C155.301 477.58 179.881 476.63 179.881 475.49C179.881 474.35 155.301 473.45 125.001 473.45C94.7011 473.45 70.1211 474.4 70.1211 475.49Z" fill="#1D2535" opacity="0.5"/>
    <path d="M591.022 336.01C590.442 336.01 589.962 335.57 589.912 334.99L582.422 246.87C582.372 246.25 582.822 245.71 583.442 245.66C584.072 245.61 584.602 246.06 584.652 246.68L592.142 334.8C592.192 335.42 591.742 335.96 591.122 336.01C591.092 336.01 591.062 336.01 591.022 336.01Z" fill="#A6A9B3"/>
    <path d="M593.6 336.74C593.15 336.74 592.73 336.47 592.56 336.03C592.42 335.67 592.04 334.71 607.98 237.33C608.08 236.72 608.65 236.31 609.26 236.41C609.87 236.51 610.28 237.08 610.18 237.69C605.9 263.86 594.81 332.18 594.7 335.49C594.76 335.98 594.48 336.47 594 336.66C593.86 336.71 593.73 336.74 593.59 336.74H593.6Z" fill="#A6A9B3"/>
    <path d="M609.969 232.97C614.579 233.79 619.139 232.56 622.919 229.87C627.399 226.71 630.789 221.51 631.909 215.23C633.959 203.65 627.479 192.82 617.419 191.03C615.399 190.67 613.399 190.71 611.469 191.08C603.739 192.56 597.119 199.49 595.479 208.75C593.419 220.33 599.909 231.16 609.969 232.95V232.97Z" fill="#454C5E"/>
    <path d="M610.608 232.16C611.618 234.22 612.638 236.29 613.648 238.35C613.868 238.8 613.488 239.3 612.998 239.22L604.968 237.79C604.478 237.7 604.298 237.09 604.658 236.75C606.318 235.16 607.988 233.57 609.648 231.98C609.948 231.7 610.438 231.78 610.618 232.15L610.608 232.16Z" fill="#454C5E"/>
    <path d="M609.971 232.97C614.581 233.79 619.141 232.56 622.921 229.87C618.331 227.88 612.001 224.1 607.971 217.41C602.701 208.66 608.071 196.68 611.461 191.09C603.731 192.57 597.111 199.5 595.471 208.76C593.411 220.34 599.901 231.17 609.961 232.96L609.971 232.97Z" fill="black" opacity="0.3"/>
    <path d="M567.521 219.64C566.551 230.91 573.411 240.81 583.011 242.3C583.381 242.35 583.751 242.4 584.131 242.44C584.501 242.47 584.881 242.49 585.261 242.49C587.491 242.54 589.661 242.11 591.691 241.29C598.461 238.57 603.641 231.5 604.391 222.81C605.401 211.09 597.961 200.89 587.791 200.01C580.631 199.39 574.031 203.55 570.381 210.15C568.841 212.94 567.831 216.16 567.521 219.63V219.64Z" fill="#066FD1"/>
    <path d="M579.581 247.69L587.701 248.39C588.191 248.43 588.531 247.89 588.271 247.47C587.261 245.81 586.251 244.16 585.241 242.49C585.051 242.19 584.871 241.89 584.681 241.58C584.461 241.23 583.971 241.18 583.701 241.49C583.471 241.76 583.231 242.03 582.991 242.3C581.711 243.76 580.441 245.22 579.151 246.69C578.831 247.06 579.061 247.65 579.561 247.69H579.581Z" fill="#066FD1"/>
    <path d="M567.521 219.64C566.551 230.91 573.411 240.81 583.011 242.3C581.731 243.76 580.461 245.22 579.171 246.69C578.851 247.06 579.081 247.65 579.581 247.69L587.701 248.39C588.191 248.43 588.531 247.89 588.271 247.47C587.261 245.81 586.251 244.16 585.241 242.49C587.471 242.54 589.641 242.11 591.671 241.29C574.981 231.44 571.091 218.1 570.361 210.16C568.821 212.95 567.811 216.17 567.501 219.64H567.521Z" fill="black" opacity="0.1"/>
    <path d="M399.251 437.62C521.98 437.62 621.471 435.659 621.471 433.24C621.471 430.821 521.98 428.86 399.251 428.86C276.523 428.86 177.031 430.821 177.031 433.24C177.031 435.659 276.523 437.62 399.251 437.62Z" fill="#1D2535" opacity="0.5"/>
    <path d="M136.081 172.39C136.081 171.716 135.534 171.17 134.861 171.17C134.187 171.17 133.641 171.716 133.641 172.39V189.48C133.641 190.154 134.187 190.7 134.861 190.7C135.534 190.7 136.081 190.154 136.081 189.48V172.39Z" fill="#DADCE0"/>
    <path d="M135.101 152.4H134.621C134.079 152.4 133.641 152.839 133.641 153.38V162.59C133.641 163.131 134.079 163.57 134.621 163.57H135.101C135.642 163.57 136.081 163.131 136.081 162.59V153.38C136.081 152.839 135.642 152.4 135.101 152.4Z" fill="#066FD1"/>
    <path d="M134.861 168.51C135.534 168.51 136.081 167.964 136.081 167.29C136.081 166.616 135.534 166.07 134.861 166.07C134.187 166.07 133.641 166.616 133.641 167.29C133.641 167.964 134.187 168.51 134.861 168.51Z" fill="#A6A9B3"/>
    <path d="M152.105 180.204C152.581 179.727 152.581 178.955 152.105 178.478C151.628 178.002 150.856 178.002 150.38 178.478L138.295 190.563C137.819 191.039 137.819 191.812 138.295 192.288C138.772 192.765 139.544 192.765 140.02 192.288L152.105 180.204Z" fill="#DADCE0"/>
    <path d="M165.552 165.374L165.212 165.034C164.83 164.652 164.209 164.652 163.827 165.034L157.314 171.547C156.931 171.929 156.931 172.55 157.314 172.933L157.654 173.272C158.036 173.655 158.657 173.655 159.039 173.272L165.552 166.76C165.935 166.377 165.935 165.756 165.552 165.374Z" fill="#066FD1"/>
    <path d="M154.849 176.96C155.523 176.96 156.069 176.414 156.069 175.74C156.069 175.066 155.523 174.52 154.849 174.52C154.175 174.52 153.629 175.066 153.629 175.74C153.629 176.414 154.175 176.96 154.849 176.96Z" fill="#A6A9B3"/>
    <path d="M157.921 197.07C158.594 197.07 159.141 196.524 159.141 195.85C159.141 195.176 158.594 194.63 157.921 194.63H140.831C140.157 194.63 139.611 195.176 139.611 195.85C139.611 196.524 140.157 197.07 140.831 197.07H157.921Z" fill="#DADCE0"/>
    <path d="M177.898 196.09V195.61C177.898 195.069 177.46 194.63 176.918 194.63H167.708C167.167 194.63 166.728 195.069 166.728 195.61V196.09C166.728 196.631 167.167 197.07 167.708 197.07H176.918C177.46 197.07 177.898 196.631 177.898 196.09Z" fill="#066FD1"/>
    <path d="M163.009 197.07C163.683 197.07 164.229 196.524 164.229 195.85C164.229 195.176 163.683 194.63 163.009 194.63C162.335 194.63 161.789 195.176 161.789 195.85C161.789 196.524 162.335 197.07 163.009 197.07Z" fill="#A6A9B3"/>
    <path d="M150.088 213.101C150.564 213.578 151.337 213.578 151.813 213.101C152.29 212.625 152.29 211.852 151.813 211.376L139.729 199.291C139.252 198.815 138.48 198.815 138.003 199.291C137.527 199.768 137.527 200.54 138.003 201.017L150.088 213.101Z" fill="#DADCE0"/>
    <path d="M164.917 226.545L165.256 226.206C165.639 225.823 165.639 225.202 165.256 224.82L158.744 218.307C158.361 217.925 157.741 217.925 157.358 218.307L157.018 218.647C156.636 219.029 156.636 219.65 157.018 220.033L163.531 226.545C163.914 226.928 164.534 226.928 164.917 226.545Z" fill="#066FD1"/>
    <path d="M154.56 217.06C155.234 217.06 155.78 216.514 155.78 215.84C155.78 215.166 155.234 214.62 154.56 214.62C153.886 214.62 153.34 215.166 153.34 215.84C153.34 216.514 153.886 217.06 154.56 217.06Z" fill="#A6A9B3"/>
    <path d="M133.24 218.91C133.24 219.584 133.786 220.13 134.46 220.13C135.133 220.13 135.68 219.584 135.68 218.91V201.82C135.68 201.146 135.133 200.6 134.46 200.6C133.786 200.6 133.24 201.146 133.24 201.82V218.91Z" fill="#DADCE0"/>
    <path d="M134.22 238.89H134.7C135.241 238.89 135.68 238.451 135.68 237.91V228.7C135.68 228.159 135.241 227.72 134.7 227.72H134.22C133.678 227.72 133.24 228.159 133.24 228.7V237.91C133.24 238.451 133.678 238.89 134.22 238.89Z" fill="#066FD1"/>
    <path d="M134.45 225.22C135.124 225.22 135.67 224.674 135.67 224C135.67 223.326 135.124 222.78 134.45 222.78C133.777 222.78 133.23 223.326 133.23 224C133.23 224.674 133.777 225.22 134.45 225.22Z" fill="#A6A9B3"/>
    <path d="M117.2 211.079C116.723 211.556 116.723 212.328 117.2 212.805C117.676 213.281 118.449 213.281 118.925 212.805L131.01 200.72C131.486 200.244 131.486 199.471 131.01 198.995C130.533 198.519 129.761 198.519 129.284 198.995L117.2 211.079Z" fill="#DADCE0"/>
    <path d="M103.757 225.909L104.096 226.249C104.479 226.631 105.099 226.631 105.482 226.249L111.994 219.736C112.377 219.354 112.377 218.733 111.994 218.35L111.655 218.011C111.272 217.628 110.652 217.628 110.269 218.011L103.757 224.523C103.374 224.906 103.374 225.527 103.757 225.909Z" fill="#066FD1"/>
    <path d="M114.458 216.77C115.132 216.77 115.678 216.224 115.678 215.55C115.678 214.876 115.132 214.33 114.458 214.33C113.784 214.33 113.238 214.876 113.238 215.55C113.238 216.224 113.784 216.77 114.458 216.77Z" fill="#A6A9B3"/>
    <path d="M111.4 194.22C110.726 194.22 110.18 194.766 110.18 195.44C110.18 196.114 110.726 196.66 111.4 196.66H128.49C129.163 196.66 129.71 196.114 129.71 195.44C129.71 194.766 129.163 194.22 128.49 194.22H111.4Z" fill="#DADCE0"/>
    <path d="M91.4102 195.2V195.68C91.4102 196.221 91.8489 196.66 92.3902 196.66H101.6C102.141 196.66 102.58 196.221 102.58 195.68V195.2C102.58 194.659 102.141 194.22 101.6 194.22H92.3902C91.8489 194.22 91.4102 194.659 91.4102 195.2Z" fill="#066FD1"/>
    <path d="M106.298 196.66C106.972 196.66 107.518 196.114 107.518 195.44C107.518 194.766 106.972 194.22 106.298 194.22C105.624 194.22 105.078 194.766 105.078 195.44C105.078 196.114 105.624 196.66 106.298 196.66Z" fill="#A6A9B3"/>
    <path d="M119.221 178.189C118.744 177.712 117.972 177.712 117.495 178.189C117.019 178.665 117.019 179.438 117.495 179.914L129.58 191.999C130.056 192.475 130.829 192.475 131.305 191.999C131.782 191.522 131.782 190.75 131.305 190.273L119.221 178.189Z" fill="#DADCE0"/>
    <path d="M104.396 164.752L104.056 165.091C103.674 165.474 103.674 166.094 104.056 166.477L110.569 172.99C110.951 173.372 111.572 173.372 111.955 172.99L112.294 172.65C112.677 172.267 112.677 171.647 112.294 171.264L105.782 164.752C105.399 164.369 104.778 164.369 104.396 164.752Z" fill="#066FD1"/>
    <path d="M114.751 176.67C115.425 176.67 115.971 176.124 115.971 175.45C115.971 174.776 115.425 174.23 114.751 174.23C114.077 174.23 113.531 174.776 113.531 175.45C113.531 176.124 114.077 176.67 114.751 176.67Z" fill="#A6A9B3"/>
    <path d="M415.091 358C414.041 353.11 412.531 348.63 410.551 344.51C408.101 339.42 405.101 335.05 401.551 331.39C398.991 328.73 396.121 326.45 392.981 324.54C385.491 319.99 376.991 317.72 367.461 317.72C357.931 317.72 349.301 319.99 341.861 324.54C334.421 329.09 328.571 335.75 324.291 344.51C320.011 353.29 317.871 363.83 317.871 376.13C317.871 388.43 320.011 398.97 324.291 407.75C326.751 412.79 329.731 417.14 333.241 420.78C335.831 423.48 338.701 425.79 341.861 427.72C348.081 431.53 355.091 433.75 362.851 434.36C364.351 434.48 365.891 434.54 367.451 434.54C376.971 434.54 385.481 432.26 392.971 427.71C400.451 423.17 406.311 416.51 410.541 407.74C414.761 398.97 416.881 388.43 416.881 376.12C416.881 369.58 416.281 363.54 415.081 357.99L415.091 358ZM358.401 405.33C355.771 403.19 353.691 399.75 352.141 394.98C351.011 391.53 350.301 387.28 349.991 382.24C349.871 380.32 349.821 378.29 349.821 376.13C349.821 368.21 350.591 361.91 352.151 357.19C353.701 352.48 355.781 349.06 358.411 346.92C361.031 344.78 364.051 343.71 367.471 343.71C370.891 343.71 373.921 344.78 376.531 346.92C376.881 347.2 377.211 347.51 377.531 347.83C379.681 349.97 381.411 353.1 382.701 357.19C384.201 361.9 384.951 368.21 384.951 376.13C384.951 384.05 384.211 390.23 382.701 394.99C381.201 399.75 379.151 403.2 376.521 405.34C373.901 407.48 370.881 408.55 367.461 408.55C364.041 408.55 361.011 407.48 358.401 405.34V405.33Z" fill="#DADCE0"/>
    <path d="M513.66 407.1V432.29H426.2V412.23L446.07 393.66L468.08 373.08C471.19 370.3 473.44 367.81 474.83 365.61C476.21 363.42 477.16 361.47 477.64 359.76C478.09 358.13 478.34 356.54 478.36 355V354.79C478.36 351.26 477.16 348.48 474.75 346.44C472.35 344.41 468.74 343.39 463.92 343.39C459.85 343.39 456.08 344.31 452.61 346.12C449.13 347.95 446.27 350.61 444.02 354.15L420.43 341.15C424.5 334.09 430.48 328.42 438.4 324.14C446.32 319.86 455.79 317.72 466.8 317.72C475.47 317.72 483.06 319.14 489.59 321.97C496.12 324.81 501.23 328.74 504.91 333.76C506.07 335.34 507.05 337.02 507.84 338.81C509.57 342.69 510.44 347.06 510.44 351.9C510.44 355.43 509.96 359.01 509 362.65C508.04 366.29 506.19 370.11 503.46 374.12C500.73 378.14 496.69 382.61 491.34 387.52L470.24 407.11H513.65L513.66 407.1Z" fill="#066FD1"/>
    <path d="M611.059 396.35C611.059 402.88 609.319 409.05 605.849 414.88C602.369 420.72 597.049 425.45 589.889 429.09C582.719 432.73 573.519 434.55 562.279 434.55C554.359 434.55 546.519 433.61 538.769 431.74C534.399 430.69 530.349 429.35 526.609 427.73C523.709 426.49 520.989 425.06 518.469 423.47L530.179 399.72C534.669 402.61 539.619 404.86 545.019 406.46C550.419 408.07 555.749 408.87 560.989 408.87C561.239 408.87 561.489 408.87 561.729 408.87C566.849 408.78 570.979 407.76 574.139 405.82C577.449 403.79 579.119 400.84 579.119 396.99C579.119 394.74 578.499 392.77 577.279 391.06C576.049 389.35 573.829 388.01 570.619 387.05C567.409 386.08 562.969 385.6 557.299 385.6H526.809L532.429 319.97H603.999V344.68H558.699L557.349 360.89H564.849C575.969 360.89 584.909 362.46 591.649 365.62C598.389 368.78 603.309 373.03 606.409 378.38C609.509 383.73 611.059 389.72 611.059 396.35Z" fill="#066FD1"/>
    <path d="M604.01 319.97V332.06C597.57 335.33 590.12 339.54 582.79 344.68H558.71L557.36 360.89H563.96C557.33 368.14 552.04 376.39 549.49 385.6H526.82L532.44 319.97H604.01Z" fill="black" opacity="0.1"/>
    <path d="M561.739 408.86C557.529 414.2 547.869 422.51 526.609 427.73C523.709 426.49 520.989 425.06 518.469 423.47L530.179 399.72C534.669 402.61 539.619 404.86 545.019 406.46C550.419 408.07 555.749 408.87 560.989 408.87C561.239 408.87 561.489 408.87 561.729 408.87L561.739 408.86Z" fill="black" opacity="0.1"/>
    <path d="M426.199 412.24L446.069 393.67C440.619 404.52 436.369 417.29 434.079 432.3H426.199V412.24Z" fill="black" opacity="0.1"/>
    <path d="M478.36 355V354.79C478.36 351.26 477.16 348.48 474.75 346.44C472.35 344.41 468.74 343.39 463.92 343.39C459.85 343.39 456.08 344.31 452.61 346.12C449.13 347.95 446.27 350.61 444.02 354.15L420.43 341.15C424.5 334.09 430.48 328.42 438.4 324.14C446.32 319.86 455.79 317.72 466.8 317.72C475.47 317.72 483.06 319.14 489.59 321.97C496.12 324.81 501.23 328.74 504.91 333.76C506.07 335.34 507.05 337.02 507.84 338.81C499.3 342.07 488.79 347.16 478.36 355Z" fill="black" opacity="0.1"/>
    <path d="M305.25 406.61V431.81H217.79V411.75L219.63 410.03L259.67 372.58C262.77 369.81 265.02 367.31 266.41 365.13C267.8 362.94 268.75 360.99 269.22 359.27C269.7 357.55 269.95 355.9 269.95 354.3C269.95 350.76 268.75 347.99 266.33 345.96C263.93 343.93 260.31 342.9 255.51 342.9C251.45 342.9 247.67 343.81 244.2 345.63C240.71 347.45 237.85 350.12 235.61 353.66L212.02 340.65C216.09 333.6 222.08 327.92 229.99 323.64C237.91 319.36 247.37 317.22 258.4 317.22C267.06 317.22 274.66 318.64 281.18 321.47C285.9 323.52 289.86 326.14 293.1 329.34C294.35 330.56 295.48 331.87 296.51 333.26C300.2 338.3 302.05 344.33 302.05 351.4C302.05 354.93 301.57 358.51 300.61 362.15C299.65 365.79 297.8 369.61 295.07 373.61C292.34 377.63 288.3 382.1 282.96 387.02L261.85 406.6H305.26L305.25 406.61Z" fill="#DADCE0"/>
    <path d="M71.2588 271.25H70.4187C69.8941 271.25 69.4688 271.675 69.4688 272.2V285.87C69.4688 286.395 69.8941 286.82 70.4187 286.82H71.2588C71.7834 286.82 72.2087 286.395 72.2087 285.87V272.2C72.2087 271.675 71.7834 271.25 71.2588 271.25Z" fill="#066FD1"/>
    <path d="M75.3783 288.97L74.7583 288.32C74.3983 287.94 74.3983 287.32 74.7583 286.94L83.9483 277.31C84.3083 276.93 84.8983 276.93 85.2583 277.31L85.8783 277.96C86.2383 278.34 86.2383 278.96 85.8783 279.34L76.6883 288.97C76.3283 289.35 75.7383 289.35 75.3783 288.97Z" fill="#066FD1"/>
    <path d="M91.6914 293.55V292.58C91.6914 292.055 91.2661 291.63 90.7414 291.63H77.7814C77.2568 291.63 76.8314 292.055 76.8314 292.58V293.55C76.8314 294.075 77.2568 294.5 77.7814 294.5H90.7414C91.2661 294.5 91.6914 294.075 91.6914 293.55Z" fill="#066FD1"/>
    <path d="M74.7817 297.83L75.4017 297.18C75.7617 296.8 76.3517 296.8 76.7117 297.18L85.9017 306.81C86.2617 307.19 86.2617 307.81 85.9017 308.19L85.2817 308.84C84.9217 309.22 84.3317 309.22 83.9717 308.84L74.7817 299.21C74.4217 298.83 74.4217 298.21 74.7817 297.83Z" fill="#066FD1"/>
    <path d="M70.4483 314.92H71.2883C71.813 314.92 72.2383 314.495 72.2383 313.97V300.3C72.2383 299.775 71.813 299.35 71.2883 299.35H70.4483C69.9236 299.35 69.4983 299.775 69.4983 300.3V313.97C69.4983 314.495 69.9236 314.92 70.4483 314.92Z" fill="#066FD1"/>
    <path d="M66.3286 297.2L66.9486 297.85C67.3086 298.23 67.3086 298.85 66.9486 299.23L57.7586 308.86C57.3986 309.24 56.8086 309.24 56.4486 308.86L55.8286 308.21C55.4686 307.83 55.4686 307.21 55.8286 306.83L65.0186 297.2C65.3786 296.82 65.9686 296.82 66.3286 297.2Z" fill="#066FD1"/>
    <path d="M50.0117 292.62V293.59C50.0117 294.115 50.437 294.54 50.9617 294.54H63.9217C64.4464 294.54 64.8717 294.115 64.8717 293.59V292.62C64.8717 292.095 64.4464 291.67 63.9217 291.67H50.9617C50.437 291.67 50.0117 292.095 50.0117 292.62Z" fill="#066FD1"/>
    <path d="M66.9291 288.34L66.3091 288.99C65.9491 289.37 65.3591 289.37 64.9991 288.99L55.8091 279.36C55.4491 278.98 55.4491 278.36 55.8091 277.98L56.4291 277.33C56.7891 276.95 57.3791 276.95 57.7391 277.33L66.9291 286.96C67.2891 287.34 67.2891 287.96 66.9291 288.34Z" fill="#066FD1"/>
    <path d="M344.13 80H343.29C342.765 80 342.34 80.4253 342.34 80.95V94.62C342.34 95.1447 342.765 95.57 343.29 95.57H344.13C344.655 95.57 345.08 95.1447 345.08 94.62V80.95C345.08 80.4253 344.655 80 344.13 80Z" fill="#DADCE0"/>
    <path d="M348.249 97.7099L347.629 97.0599C347.269 96.6799 347.269 96.0599 347.629 95.6799L356.819 86.0499C357.179 85.6699 357.769 85.6699 358.129 86.0499L358.749 86.6999C359.109 87.0799 359.109 87.6999 358.749 88.0799L349.559 97.7099C349.199 98.0899 348.609 98.0899 348.249 97.7099Z" fill="#DADCE0"/>
    <path d="M364.57 102.3V101.33C364.57 100.805 364.145 100.38 363.62 100.38H350.66C350.136 100.38 349.71 100.805 349.71 101.33V102.3C349.71 102.825 350.136 103.25 350.66 103.25H363.62C364.145 103.25 364.57 102.825 364.57 102.3Z" fill="#DADCE0"/>
    <path d="M347.649 106.57L348.269 105.92C348.629 105.54 349.219 105.54 349.579 105.92L358.769 115.55C359.129 115.93 359.129 116.55 358.769 116.93L358.149 117.58C357.789 117.96 357.199 117.96 356.839 117.58L347.649 107.95C347.289 107.57 347.289 106.95 347.649 106.57Z" fill="#DADCE0"/>
    <path d="M343.319 123.66H344.159C344.684 123.66 345.109 123.235 345.109 122.71V109.04C345.109 108.515 344.684 108.09 344.159 108.09H343.319C342.795 108.09 342.369 108.515 342.369 109.04V122.71C342.369 123.235 342.795 123.66 343.319 123.66Z" fill="#DADCE0"/>
    <path d="M339.2 105.94L339.82 106.59C340.18 106.97 340.18 107.59 339.82 107.97L330.63 117.6C330.27 117.98 329.68 117.98 329.32 117.6L328.7 116.95C328.34 116.57 328.34 115.95 328.7 115.57L337.89 105.94C338.25 105.56 338.84 105.56 339.2 105.94Z" fill="#DADCE0"/>
    <path d="M322.891 101.36V102.33C322.891 102.855 323.316 103.28 323.841 103.28H336.801C337.325 103.28 337.751 102.855 337.751 102.33V101.36C337.751 100.835 337.325 100.41 336.801 100.41H323.841C323.316 100.41 322.891 100.835 322.891 101.36Z" fill="#DADCE0"/>
    <path d="M339.8 97.0899L339.18 97.7399C338.82 98.1199 338.23 98.1199 337.87 97.7399L328.68 88.1099C328.32 87.7299 328.32 87.1099 328.68 86.7299L329.3 86.0799C329.66 85.6999 330.25 85.6999 330.61 86.0799L339.8 95.7099C340.16 96.0899 340.16 96.7099 339.8 97.0899Z" fill="#DADCE0"/>
    <path d="M674.688 207.67H673.848C673.324 207.67 672.898 208.095 672.898 208.62V222.29C672.898 222.815 673.324 223.24 673.848 223.24H674.688C675.213 223.24 675.638 222.815 675.638 222.29V208.62C675.638 208.095 675.213 207.67 674.688 207.67Z" fill="#DADCE0"/>
    <path d="M678.812 225.39L678.192 224.74C677.832 224.36 677.832 223.74 678.192 223.36L687.382 213.73C687.742 213.35 688.332 213.35 688.692 213.73L689.312 214.38C689.672 214.76 689.672 215.38 689.312 215.76L680.122 225.39C679.762 225.77 679.172 225.77 678.812 225.39Z" fill="#DADCE0"/>
    <path d="M695.121 229.97V229C695.121 228.475 694.696 228.05 694.171 228.05H681.211C680.686 228.05 680.261 228.475 680.261 229V229.97C680.261 230.495 680.686 230.92 681.211 230.92H694.171C694.696 230.92 695.121 230.495 695.121 229.97Z" fill="#DADCE0"/>
    <path d="M678.219 234.25L678.839 233.6C679.199 233.22 679.789 233.22 680.149 233.6L689.339 243.23C689.699 243.61 689.699 244.23 689.339 244.61L688.719 245.26C688.359 245.64 687.769 245.64 687.409 245.26L678.219 235.63C677.859 235.25 677.859 234.63 678.219 234.25Z" fill="#DADCE0"/>
    <path d="M673.89 251.33H674.73C675.254 251.33 675.68 250.905 675.68 250.38V236.71C675.68 236.185 675.254 235.76 674.73 235.76H673.89C673.365 235.76 672.94 236.185 672.94 236.71V250.38C672.94 250.905 673.365 251.33 673.89 251.33Z" fill="#DADCE0"/>
    <path d="M669.758 233.62L670.378 234.27C670.738 234.65 670.738 235.27 670.378 235.65L661.188 245.28C660.828 245.66 660.238 245.66 659.878 245.28L659.258 244.63C658.898 244.25 658.898 243.63 659.258 243.25L668.448 233.62C668.808 233.24 669.398 233.24 669.758 233.62Z" fill="#DADCE0"/>
    <path d="M653.449 229.04V230.01C653.449 230.535 653.875 230.96 654.399 230.96H667.359C667.884 230.96 668.309 230.535 668.309 230.01V229.04C668.309 228.515 667.884 228.09 667.359 228.09H654.399C653.875 228.09 653.449 228.515 653.449 229.04Z" fill="#DADCE0"/>
    <path d="M670.359 224.76L669.739 225.41C669.379 225.79 668.789 225.79 668.429 225.41L659.239 215.78C658.879 215.4 658.879 214.78 659.239 214.4L659.859 213.75C660.219 213.37 660.809 213.37 661.169 213.75L670.359 223.38C670.719 223.76 670.719 224.38 670.359 224.76Z" fill="#DADCE0"/>
    <path d="M421.428 154.34H421.418C420.767 154.34 420.238 154.868 420.238 155.52V172.09C420.238 172.742 420.767 173.27 421.418 173.27H421.428C422.08 173.27 422.608 172.742 422.608 172.09V155.52C422.608 154.868 422.08 154.34 421.428 154.34Z" fill="#DADCE0"/>
    <path d="M421.658 136.14H421.188C420.664 136.14 420.238 136.565 420.238 137.09V146.01C420.238 146.535 420.664 146.96 421.188 146.96H421.658C422.183 146.96 422.608 146.535 422.608 146.01V137.09C422.608 136.565 422.183 136.14 421.658 136.14Z" fill="#066FD1"/>
    <path d="M421.43 151.76C422.082 151.76 422.61 151.232 422.61 150.58C422.61 149.928 422.082 149.4 421.43 149.4C420.778 149.4 420.25 149.928 420.25 150.58C420.25 151.232 420.778 151.76 421.43 151.76Z" fill="#A6A9B3"/>
    <path d="M431.239 156.788L431.23 156.783C430.652 156.482 429.939 156.706 429.638 157.284L421.979 171.978C421.678 172.556 421.902 173.269 422.48 173.57L422.489 173.574C423.067 173.876 423.78 173.651 424.081 173.073L431.74 158.38C432.041 157.802 431.817 157.089 431.239 156.788Z" fill="#DADCE0"/>
    <path d="M439.841 140.76L439.424 140.543C438.959 140.3 438.385 140.481 438.143 140.946L434.02 148.856C433.777 149.321 433.958 149.895 434.423 150.138L434.84 150.355C435.305 150.597 435.879 150.417 436.122 149.952L440.245 142.042C440.487 141.576 440.307 141.003 439.841 140.76Z" fill="#066FD1"/>
    <path d="M432.942 154.65C433.593 154.65 434.122 154.122 434.122 153.47C434.122 152.818 433.593 152.29 432.942 152.29C432.29 152.29 431.762 152.818 431.762 153.47C431.762 154.122 432.29 154.65 432.942 154.65Z" fill="#A6A9B3"/>
    <path d="M438.713 163.524L438.707 163.516C438.334 162.981 437.598 162.851 437.064 163.224L423.479 172.712C422.945 173.085 422.814 173.82 423.187 174.355L423.193 174.363C423.566 174.897 424.302 175.028 424.836 174.655L438.421 165.167C438.955 164.794 439.086 164.058 438.713 163.524Z" fill="#DADCE0"/>
    <path d="M453.762 153.291L453.493 152.906C453.193 152.475 452.601 152.37 452.17 152.671L444.857 157.778C444.427 158.078 444.322 158.671 444.622 159.101L444.891 159.486C445.192 159.916 445.784 160.021 446.214 159.721L453.527 154.614C453.958 154.313 454.063 153.721 453.762 153.291Z" fill="#066FD1"/>
    <path d="M441.809 162.54C442.461 162.54 442.989 162.012 442.989 161.36C442.989 160.708 442.461 160.18 441.809 160.18C441.157 160.18 440.629 160.708 440.629 161.36C440.629 162.012 441.157 162.54 441.809 162.54Z" fill="#A6A9B3"/>
    <path d="M442.313 172.953L442.312 172.943C442.228 172.297 441.636 171.841 440.99 171.925L424.558 174.059C423.912 174.143 423.456 174.735 423.54 175.381L423.541 175.391C423.625 176.037 424.217 176.493 424.863 176.409L441.295 174.275C441.941 174.191 442.397 173.599 442.313 172.953Z" fill="#DADCE0"/>
    <path d="M460.394 170.839L460.333 170.373C460.266 169.853 459.789 169.486 459.269 169.554L450.423 170.702C449.903 170.77 449.536 171.247 449.603 171.767L449.664 172.233C449.732 172.753 450.208 173.12 450.728 173.053L459.574 171.904C460.094 171.836 460.461 171.36 460.394 170.839Z" fill="#066FD1"/>
    <path d="M446.039 173.64C446.691 173.64 447.219 173.112 447.219 172.46C447.219 171.808 446.691 171.28 446.039 171.28C445.388 171.28 444.859 171.808 444.859 172.46C444.859 173.112 445.388 173.64 446.039 173.64Z" fill="#A6A9B3"/>
    <path d="M441.149 182.99L441.152 182.981C441.377 182.369 441.063 181.691 440.451 181.467L424.893 175.764C424.281 175.54 423.603 175.854 423.379 176.466L423.375 176.476C423.151 177.087 423.465 177.765 424.077 177.99L439.635 183.692C440.247 183.916 440.925 183.602 441.149 182.99Z" fill="#DADCE0"/>
    <path d="M458.156 189.467L458.318 189.026C458.498 188.533 458.245 187.987 457.753 187.807L449.377 184.737C448.885 184.556 448.339 184.809 448.159 185.302L447.997 185.743C447.816 186.236 448.069 186.781 448.562 186.962L456.937 190.032C457.43 190.212 457.975 189.959 458.156 189.467Z" fill="#066FD1"/>
    <path d="M444.649 185.43C445.3 185.43 445.829 184.902 445.829 184.25C445.829 183.598 445.3 183.07 444.649 183.07C443.997 183.07 443.469 183.598 443.469 184.25C443.469 184.902 443.997 185.43 444.649 185.43Z" fill="#A6A9B3"/>
    <path d="M435.425 191.273L435.432 191.267C435.914 190.828 435.949 190.081 435.51 189.6L424.352 177.35C423.913 176.868 423.167 176.833 422.685 177.272L422.677 177.279C422.196 177.718 422.161 178.464 422.6 178.946L433.758 191.196C434.197 191.677 434.943 191.712 435.425 191.273Z" fill="#DADCE0"/>
    <path d="M447.509 204.883L447.856 204.566C448.244 204.213 448.272 203.612 447.919 203.224L441.912 196.63C441.559 196.242 440.958 196.214 440.57 196.568L440.223 196.884C439.835 197.237 439.807 197.838 440.16 198.226L446.167 204.82C446.52 205.208 447.121 205.236 447.509 204.883Z" fill="#066FD1"/>
    <path d="M437.969 195.24C438.621 195.24 439.149 194.712 439.149 194.06C439.149 193.408 438.621 192.88 437.969 192.88C437.317 192.88 436.789 193.408 436.789 194.06C436.789 194.712 437.317 195.24 437.969 195.24Z" fill="#A6A9B3"/>
    <path d="M426.537 196.063L426.547 196.06C427.177 195.893 427.553 195.248 427.386 194.618L423.153 178.597C422.987 177.967 422.341 177.592 421.711 177.758L421.701 177.761C421.071 177.927 420.695 178.573 420.862 179.203L425.095 195.223C425.261 195.853 425.907 196.229 426.537 196.063Z" fill="#DADCE0"/>
    <path d="M430.963 213.71L431.417 213.59C431.925 213.456 432.227 212.936 432.093 212.429L429.815 203.805C429.681 203.298 429.161 202.995 428.654 203.129L428.199 203.249C427.692 203.383 427.389 203.903 427.523 204.411L429.802 213.035C429.936 213.542 430.456 213.844 430.963 213.71Z" fill="#066FD1"/>
    <path d="M427.508 200.86C428.16 200.86 428.688 200.332 428.688 199.68C428.688 199.028 428.16 198.5 427.508 198.5C426.856 198.5 426.328 199.028 426.328 199.68C426.328 200.332 426.856 200.86 427.508 200.86Z" fill="#A6A9B3"/>
    <path d="M416.476 196.117L416.486 196.119C417.121 196.263 417.753 195.864 417.897 195.228L421.551 179.066C421.695 178.431 421.296 177.799 420.66 177.655L420.651 177.653C420.015 177.509 419.383 177.908 419.239 178.544L415.585 194.706C415.442 195.341 415.84 195.973 416.476 196.117Z" fill="#DADCE0"/>
    <path d="M412.252 213.823L412.71 213.927C413.222 214.043 413.731 213.722 413.846 213.21L415.813 204.509C415.929 203.998 415.608 203.489 415.096 203.373L414.638 203.27C414.126 203.154 413.617 203.475 413.502 203.987L411.535 212.687C411.419 213.199 411.74 213.708 412.252 213.823Z" fill="#066FD1"/>
    <path d="M415.641 201C416.293 201 416.821 200.472 416.821 199.82C416.821 199.168 416.293 198.64 415.641 198.64C414.989 198.64 414.461 199.168 414.461 199.82C414.461 200.472 414.989 201 415.641 201Z" fill="#A6A9B3"/>
    <path d="M407.467 191.583L407.475 191.589C407.972 192.01 408.716 191.949 409.138 191.451L419.848 178.808C420.27 178.311 420.208 177.567 419.711 177.145L419.703 177.139C419.206 176.718 418.461 176.779 418.04 177.276L407.329 189.92C406.908 190.417 406.97 191.161 407.467 191.583Z" fill="#DADCE0"/>
    <path d="M395.542 205.322L395.9 205.626C396.3 205.965 396.9 205.915 397.239 205.515L403.005 198.709C403.344 198.309 403.294 197.709 402.894 197.37L402.535 197.066C402.135 196.727 401.536 196.777 401.197 197.177L395.431 203.983C395.092 204.383 395.141 204.983 395.542 205.322Z" fill="#066FD1"/>
    <path d="M405.039 195.64C405.691 195.64 406.219 195.112 406.219 194.46C406.219 193.808 405.691 193.28 405.039 193.28C404.388 193.28 403.859 193.808 403.859 194.46C403.859 195.112 404.388 195.64 405.039 195.64Z" fill="#A6A9B3"/>
    <path d="M401.582 183.384L401.585 183.393C401.832 183.996 402.52 184.286 403.124 184.04L418.465 177.779C419.069 177.532 419.358 176.844 419.112 176.24L419.108 176.231C418.862 175.628 418.173 175.338 417.57 175.584L402.228 181.845C401.625 182.091 401.335 182.78 401.582 183.384Z" fill="#DADCE0"/>
    <path d="M384.647 190.046L384.825 190.481C385.023 190.967 385.577 191.2 386.063 191.001L394.322 187.631C394.808 187.433 395.041 186.878 394.843 186.393L394.665 185.957C394.467 185.472 393.912 185.239 393.426 185.437L385.168 188.807C384.682 189.005 384.449 189.56 384.647 190.046Z" fill="#066FD1"/>
    <path d="M398.129 185.99C398.781 185.99 399.309 185.462 399.309 184.81C399.309 184.158 398.781 183.63 398.129 183.63C397.478 183.63 396.949 184.158 396.949 184.81C396.949 185.462 397.478 185.99 398.129 185.99Z" fill="#A6A9B3"/>
    <path d="M400.232 173.411L400.231 173.421C400.17 174.07 400.647 174.645 401.296 174.706L417.794 176.248C418.443 176.309 419.018 175.832 419.079 175.183L419.08 175.173C419.14 174.524 418.663 173.949 418.015 173.888L401.517 172.346C400.868 172.285 400.292 172.762 400.232 173.411Z" fill="#DADCE0"/>
    <path d="M382.12 171.49L382.077 171.958C382.028 172.481 382.412 172.944 382.934 172.992L391.815 173.823C392.338 173.871 392.801 173.488 392.85 172.965L392.893 172.497C392.942 171.975 392.558 171.512 392.036 171.463L383.155 170.633C382.632 170.584 382.169 170.968 382.12 171.49Z" fill="#066FD1"/>
    <path d="M396.461 174.24C397.113 174.24 397.641 173.712 397.641 173.06C397.641 172.408 397.113 171.88 396.461 171.88C395.81 171.88 395.281 172.408 395.281 173.06C395.281 173.712 395.81 174.24 396.461 174.24Z" fill="#A6A9B3"/>
    <path d="M403.568 163.903L403.562 163.911C403.209 164.459 403.366 165.189 403.913 165.543L417.83 174.536C418.378 174.89 419.108 174.733 419.462 174.185L419.467 174.177C419.821 173.63 419.664 172.899 419.116 172.546L405.199 163.552C404.652 163.199 403.921 163.356 403.568 163.903Z" fill="#DADCE0"/>
    <path d="M388.415 153.825L388.16 154.22C387.875 154.66 388.002 155.248 388.442 155.533L395.934 160.374C396.375 160.659 396.963 160.533 397.248 160.092L397.503 159.697C397.788 159.257 397.661 158.669 397.221 158.384L389.729 153.543C389.288 153.258 388.7 153.384 388.415 153.825Z" fill="#066FD1"/>
    <path d="M400.41 163.04C401.062 163.04 401.59 162.512 401.59 161.86C401.59 161.208 401.062 160.68 400.41 160.68C399.759 160.68 399.23 161.208 399.23 161.86C399.23 162.512 399.759 163.04 400.41 163.04Z" fill="#A6A9B3"/>
    <path d="M410.941 156.997L410.932 157.002C410.366 157.324 410.167 158.044 410.489 158.611L418.674 173.018C418.996 173.585 419.716 173.783 420.283 173.461L420.291 173.456C420.858 173.135 421.056 172.414 420.734 171.848L412.55 157.44C412.228 156.873 411.508 156.675 410.941 156.997Z" fill="#DADCE0"/>
    <path d="M402.164 141.057L401.756 141.289C401.299 141.548 401.14 142.128 401.399 142.585L405.805 150.34C406.064 150.797 406.644 150.956 407.1 150.697L407.509 150.465C407.965 150.206 408.125 149.626 407.866 149.17L403.46 141.414C403.2 140.958 402.621 140.798 402.164 141.057Z" fill="#066FD1"/>
    <path d="M409.09 154.94C409.742 154.94 410.27 154.412 410.27 153.76C410.27 153.108 409.742 152.58 409.09 152.58C408.438 152.58 407.91 153.108 407.91 153.76C407.91 154.412 408.438 154.94 409.09 154.94Z" fill="#A6A9B3"/>
    <path d="M467.33 255.62C465.77 250.79 466.34 246.22 468.8 243.47C467.84 242.11 467.44 240.64 467.28 239.85C467.15 239.21 466.75 237.27 467.55 235.2C467.86 234.39 468.32 233.65 468.87 232.99C467.95 229.92 468.69 224.95 471.06 219.36L472.11 219.81C470.05 224.67 469.25 229.19 469.8 232.02C471.13 230.82 472.76 229.98 474.22 229.6C475.95 229.14 477.43 229.28 478.31 229.99C479.4 230.87 479.55 232.57 479.08 233.71C478.63 234.77 477.55 235.6 476.02 236.06C474.08 236.64 471.92 236.46 470.64 235.61C470.13 235.27 469.71 234.8 469.38 234.21C469.08 234.64 468.82 235.11 468.63 235.61C467.95 237.37 468.29 239.01 468.42 239.62C468.56 240.29 468.89 241.51 469.66 242.66C471.38 241.24 473.92 240.3 475.87 240.4C476.82 240.45 477.57 240.75 478.04 241.27C479.03 242.38 478.73 244.43 477.8 245.51C476.24 247.33 473.18 246.58 471.62 245.85C470.79 245.46 470.11 244.94 469.56 244.36C467.48 246.82 467.04 250.9 468.44 255.26L467.35 255.61L467.33 255.62ZM470.35 243.56C470.82 244.05 471.39 244.49 472.09 244.82C473.46 245.46 475.88 245.98 476.91 244.77C477.57 244.01 477.7 242.63 477.17 242.03C476.91 241.74 476.44 241.57 475.8 241.54C474.12 241.45 471.85 242.31 470.35 243.56ZM470.17 233.24C470.44 233.86 470.8 234.33 471.27 234.64C472.27 235.3 474.08 235.43 475.69 234.95C476.87 234.6 477.72 233.98 478.02 233.25C478.33 232.52 478.23 231.39 477.59 230.87C477.01 230.4 475.87 230.34 474.52 230.7C473.07 231.09 471.42 231.97 470.17 233.25V233.24Z" fill="#066FD1"/>
    <path d="M451.631 259.95C452.703 259.95 453.571 259.081 453.571 258.01C453.571 256.939 452.703 256.07 451.631 256.07C450.56 256.07 449.691 256.939 449.691 258.01C449.691 259.081 450.56 259.95 451.631 259.95Z" fill="#066FD1"/>
    <path d="M432.919 252.81C435.162 252.81 436.979 250.992 436.979 248.75C436.979 246.508 435.162 244.69 432.919 244.69C430.677 244.69 428.859 246.508 428.859 248.75C428.859 250.992 430.677 252.81 432.919 252.81Z" fill="#066FD1"/>
    <path d="M242.151 118.8C243.637 118.8 244.841 117.596 244.841 116.11C244.841 114.624 243.637 113.42 242.151 113.42C240.665 113.42 239.461 114.624 239.461 116.11C239.461 117.596 240.665 118.8 242.151 118.8Z" fill="#066FD1"/>
    <path d="M242.148 101.83C243.943 101.83 245.398 100.375 245.398 98.5801C245.398 96.7852 243.943 95.3301 242.148 95.3301C240.354 95.3301 238.898 96.7852 238.898 98.5801C238.898 100.375 240.354 101.83 242.148 101.83Z" fill="#DADCE0"/>
    <path d="M242.152 92.31C243.196 92.31 244.042 91.4638 244.042 90.42C244.042 89.3762 243.196 88.53 242.152 88.53C241.108 88.53 240.262 89.3762 240.262 90.42C240.262 91.4638 241.108 92.31 242.152 92.31Z" fill="#066FD1"/>
    <path d="M254.551 106.97C256.346 106.97 257.801 105.515 257.801 103.72C257.801 101.925 256.346 100.47 254.551 100.47C252.756 100.47 251.301 101.925 251.301 103.72C251.301 105.515 252.756 106.97 254.551 106.97Z" fill="#DADCE0"/>
    <path d="M260.32 99.8401C261.364 99.8401 262.21 98.9939 262.21 97.9501C262.21 96.9062 261.364 96.0601 260.32 96.0601C259.276 96.0601 258.43 96.9062 258.43 97.9501C258.43 98.9939 259.276 99.8401 260.32 99.8401Z" fill="#066FD1"/>
    <path d="M259.68 119.36C261.475 119.36 262.93 117.905 262.93 116.11C262.93 114.315 261.475 112.86 259.68 112.86C257.885 112.86 256.43 114.315 256.43 116.11C256.43 117.905 257.885 119.36 259.68 119.36Z" fill="#DADCE0"/>
    <path d="M267.839 118C268.883 118 269.729 117.154 269.729 116.11C269.729 115.066 268.883 114.22 267.839 114.22C266.795 114.22 265.949 115.066 265.949 116.11C265.949 117.154 266.795 118 267.839 118Z" fill="#066FD1"/>
    <path d="M254.551 131.76C256.346 131.76 257.801 130.305 257.801 128.51C257.801 126.715 256.346 125.26 254.551 125.26C252.756 125.26 251.301 126.715 251.301 128.51C251.301 130.305 252.756 131.76 254.551 131.76Z" fill="#DADCE0"/>
    <path d="M260.32 136.17C261.364 136.17 262.21 135.324 262.21 134.28C262.21 133.236 261.364 132.39 260.32 132.39C259.276 132.39 258.43 133.236 258.43 134.28C258.43 135.324 259.276 136.17 260.32 136.17Z" fill="#066FD1"/>
    <path d="M242.148 136.89C243.943 136.89 245.398 135.435 245.398 133.64C245.398 131.845 243.943 130.39 242.148 130.39C240.354 130.39 238.898 131.845 238.898 133.64C238.898 135.435 240.354 136.89 242.148 136.89Z" fill="#DADCE0"/>
    <path d="M242.152 143.69C243.196 143.69 244.042 142.844 244.042 141.8C244.042 140.756 243.196 139.91 242.152 139.91C241.108 139.91 240.262 140.756 240.262 141.8C240.262 142.844 241.108 143.69 242.152 143.69Z" fill="#066FD1"/>
    <path d="M229.762 131.76C231.557 131.76 233.012 130.305 233.012 128.51C233.012 126.715 231.557 125.26 229.762 125.26C227.967 125.26 226.512 126.715 226.512 128.51C226.512 130.305 227.967 131.76 229.762 131.76Z" fill="#DADCE0"/>
    <path d="M223.992 136.17C225.035 136.17 225.882 135.324 225.882 134.28C225.882 133.236 225.035 132.39 223.992 132.39C222.948 132.39 222.102 133.236 222.102 134.28C222.102 135.324 222.948 136.17 223.992 136.17Z" fill="#066FD1"/>
    <path d="M224.621 119.36C226.416 119.36 227.871 117.905 227.871 116.11C227.871 114.315 226.416 112.86 224.621 112.86C222.826 112.86 221.371 114.315 221.371 116.11C221.371 117.905 222.826 119.36 224.621 119.36Z" fill="#DADCE0"/>
    <path d="M216.46 118C217.504 118 218.35 117.154 218.35 116.11C218.35 115.066 217.504 114.22 216.46 114.22C215.416 114.22 214.57 115.066 214.57 116.11C214.57 117.154 215.416 118 216.46 118Z" fill="#066FD1"/>
    <path d="M229.762 106.97C231.557 106.97 233.012 105.515 233.012 103.72C233.012 101.925 231.557 100.47 229.762 100.47C227.967 100.47 226.512 101.925 226.512 103.72C226.512 105.515 227.967 106.97 229.762 106.97Z" fill="#DADCE0"/>
    <path d="M223.992 99.8401C225.035 99.8401 225.882 98.9939 225.882 97.9501C225.882 96.9062 225.035 96.0601 223.992 96.0601C222.948 96.0601 222.102 96.9062 222.102 97.9501C222.102 98.9939 222.948 99.8401 223.992 99.8401Z" fill="#066FD1"/>
    <path d="M220.83 188.96H233.02V199.99H239.24V173.09H233.02V183.7H220.83V173.09H214.57V199.99H220.83V188.96Z" fill="#066FD1"/>
    <path d="M250.858 194.23H263.318L265.718 199.99H272.248L260.178 173.09H254.028L242.078 199.99H248.458L250.858 194.23ZM257.088 179.25L261.348 189.5H252.818L257.078 179.25H257.088Z" fill="#066FD1"/>
    <path d="M281.319 192.58H286.699C289.109 192.58 291.179 192.18 292.929 191.39C294.669 190.6 296.019 189.48 296.959 188.03C297.909 186.58 298.379 184.85 298.379 182.82C298.379 180.79 297.909 179.09 296.959 177.63C296.009 176.17 294.669 175.05 292.929 174.27C291.189 173.49 289.109 173.1 286.699 173.1H275.059V200H281.319V192.58ZM290.659 179.38C291.629 180.19 292.119 181.33 292.119 182.82C292.119 184.31 291.629 185.46 290.659 186.28C289.689 187.1 288.249 187.51 286.359 187.51H281.329V178.17H286.359C288.259 178.17 289.689 178.57 290.659 179.38Z" fill="#066FD1"/>
    <path d="M309.069 192.58H314.449C316.859 192.58 318.929 192.18 320.679 191.39C322.419 190.6 323.769 189.48 324.709 188.03C325.659 186.58 326.129 184.85 326.129 182.82C326.129 180.79 325.659 179.09 324.709 177.63C323.759 176.17 322.419 175.05 320.679 174.27C318.939 173.49 316.859 173.1 314.449 173.1H302.809V200H309.069V192.58ZM318.409 179.38C319.379 180.19 319.869 181.33 319.869 182.82C319.869 184.31 319.379 185.46 318.409 186.28C317.439 187.1 315.999 187.51 314.109 187.51H309.079V178.17H314.109C316.009 178.17 317.439 178.57 318.409 179.38Z" fill="#066FD1"/>
    <path d="M337.239 199.99H343.499V190.4L353.879 173.09H347.809L340.609 185L333.429 173.09H326.789L337.239 190.41V199.99Z" fill="#066FD1"/>
    <path d="M222.53 225.26L242.12 249.17H249.67V209.76H240.66V233.67L221.06 209.76H213.52V249.17H222.53V225.26Z" fill="#066FD1"/>
    <path d="M288.802 217.08V209.76H259.012V249.17H289.532V241.85H268.082V232.73H286.382V225.58H268.082V217.08H288.802Z" fill="#066FD1"/>
    <path d="M305.751 249.17H315.491L324.431 222.46L333.171 249.17H342.861L355.811 209.76H347.081L337.891 237.67L328.891 209.76H320.441L311.151 237.46L302.261 209.76H292.801L305.751 249.17Z" fill="#066FD1"/>
    <path d="M235.501 261.23L227.071 275.18L218.681 261.23H210.891L223.131 281.51V292.73H230.461V281.49L242.611 261.23H235.501Z" fill="#066FD1"/>
    <path d="M252.638 279.59H267.258V273.87H252.638V267.08H269.198V261.23H245.398V292.73H269.778V286.88H252.638V279.59Z" fill="#066FD1"/>
    <path d="M285.439 261.23L271.449 292.72H278.919L281.729 285.97H296.319L299.129 292.72H306.779L292.649 261.23H285.449H285.439ZM284.029 280.44L289.019 268.43L294.009 280.44H284.029Z" fill="#066FD1"/>
    <path d="M330.971 282.58C333.011 281.7 334.581 280.41 335.691 278.71C336.801 277.02 337.351 274.98 337.351 272.61C337.351 270.24 336.791 268.25 335.691 266.54C334.581 264.83 333.011 263.52 330.971 262.6C328.931 261.68 326.501 261.23 323.681 261.23H310.051V292.72H317.381V283.9H323.681C323.791 283.9 323.891 283.89 323.991 283.89L330.111 292.72H337.941L330.921 282.59C330.921 282.59 330.951 282.58 330.971 282.57V282.58ZM328.321 268.59C329.461 269.53 330.031 270.88 330.031 272.62C330.031 274.36 329.461 275.71 328.321 276.67C327.181 277.63 325.501 278.11 323.281 278.11H317.391V267.18H323.281C325.501 267.18 327.181 267.65 328.321 268.6V268.59Z" fill="#066FD1"/>
    <path d="M345.909 284.99C344.649 284.99 343.609 285.37 342.779 286.14C341.959 286.91 341.539 287.86 341.539 289C341.539 290.14 341.949 291.07 342.779 291.88C343.599 292.69 344.649 293.09 345.909 293.09C347.169 293.09 348.199 292.68 348.989 291.88C349.779 291.07 350.179 290.11 350.179 289C350.179 287.89 349.779 286.91 348.989 286.14C348.199 285.38 347.169 284.99 345.909 284.99Z" fill="#066FD1"/>
    <path d="M343.069 281.75H348.649L350.049 261.23H341.719L343.069 281.75Z" fill="#066FD1"/>
    <path d="M170.501 347.48C168.671 350.24 168.161 352.7 168.161 352.7L163.761 347.17L161.121 343.85C161.121 343.85 161.261 341.23 164.631 340.7C168.001 340.17 176.011 342.31 176.541 344.1C177.061 345.89 172.321 344.72 170.491 347.48H170.501Z" fill="#FFCB9D"/>
    <path d="M176.541 344.1C172.971 343.16 167.891 342.89 163.761 347.18L161.121 343.86C161.121 343.86 161.261 341.24 164.631 340.71C168.001 340.18 176.011 342.32 176.541 344.11V344.1Z" fill="black" opacity="0.1"/>
    <path d="M116.301 390.49C116.981 391.13 117.631 391.8 118.241 392.51C117.851 392.36 117.511 392.12 117.231 391.82C116.891 391.39 116.601 390.96 116.301 390.49Z" fill="black" opacity="0.1"/>
    <path d="M112.418 393.53C112.288 392.53 112.108 391.54 111.928 390.55L110.998 391.17C110.668 391.41 110.258 391.72 109.828 392.08C108.648 390.97 107.278 390.15 105.658 389.37C105.218 389.16 104.768 388.98 104.328 388.8C104.808 387.81 104.908 386.88 106.108 385.66C107.738 384.01 109.818 383.43 111.308 383.19C111.368 383.19 111.418 383.18 111.478 383.16C112.748 382.73 114.038 382.31 115.258 381.98C118.288 381.14 121.378 380.51 124.498 380.11C127.498 379.74 130.528 379.63 133.548 379.77C134.308 379.81 135.108 379.88 135.878 379.98C136.218 380.02 136.518 380.07 136.788 380.1C137.678 380.19 138.308 380.42 138.388 380.44C139.498 380.73 144.148 380.56 146.328 379.89C147.388 379.56 151.728 377.92 155.718 367.53C157.678 362.41 160.468 352.78 159.118 339.28C165.608 346.13 172.088 352.99 178.578 359.84C178.598 360.62 178.738 377.34 164.788 386.03C153.378 393.13 141.408 389.34 139.738 388.78C141.778 394.19 143.808 399.63 145.858 405.05C147.108 408.38 148.378 411.75 149.618 415.05L133.908 418.57C128.328 419.81 122.768 421.06 117.198 422.28C117.068 421.57 116.878 420.6 116.668 419.45C115.148 410.5 114.528 405.74 112.458 393.67L112.428 393.51L112.418 393.53Z" fill="#DADCE0"/>
    <path d="M114.63 383.75C115.28 387.26 119.95 389.33 125.07 388.37C130.19 387.42 133.8 383.82 133.15 380.31C133.12 380.12 133.06 379.93 132.98 379.75C129.96 379.6 126.93 379.72 123.92 380.1C120.79 380.49 117.7 381.12 114.67 381.97C114.53 382.55 114.51 383.16 114.63 383.75Z" fill="#FFCB9D"/>
    <path d="M99.4102 449.36C100.37 450.36 101.33 451.35 102.29 452.35L124.69 448.6L134.65 431.33C138.11 440.79 141.77 450.35 145.63 460C146.45 462.04 147.27 464.07 148.1 466.09L151.2 464.97C150.69 456.59 150.29 448 150 439.2C149.73 430.99 149.58 422.95 149.53 415.09L142.51 416.67L117.13 422.35C116.2 429.1 115.27 435.85 114.34 442.6C109.36 444.86 104.38 447.12 99.4102 449.37V449.36Z" fill="#066FD1"/>
    <path d="M117.129 422.33L133.379 418.7C138.789 417.49 144.199 416.28 149.599 415.07C148.039 410.92 146.479 406.76 144.919 402.61C141.599 402.91 137.539 402.91 133.009 402.09C120.319 399.8 111.889 392.51 108.129 388.76C111.929 398.73 114.929 409.35 116.849 420.64C116.949 421.2 117.039 421.77 117.129 422.33Z" fill="black" opacity="0.1"/>
    <path d="M91.6914 452.57L94.3114 451.61C94.3114 451.61 96.6714 450.3 97.9314 451.47C99.2014 452.64 97.6714 459.04 95.7714 461.46L94.8714 455.38L92.5614 455.67L91.6914 452.56V452.57Z" fill="#454C5E"/>
    <path d="M148.341 476.56L148.271 473.77C148.271 473.77 147.781 471.12 149.301 470.29C150.821 469.47 156.391 472.96 158.081 475.53L152.031 474.44L151.571 476.72L148.351 476.55L148.341 476.56Z" fill="#454C5E"/>
    <path d="M128.442 373.56C123.972 374.95 118.622 374.63 116.242 373.63C115.842 373.49 115.482 373.24 115.192 372.92C114.872 372.51 114.572 372.05 114.272 371.62C113.872 370.99 113.492 370.32 113.132 369.65C112.202 367.91 111.432 366.09 110.832 364.21C110.792 364.07 110.652 363.6 110.492 363.06C109.812 360.66 109.332 358.73 109.012 357.36C109.012 357.36 109.032 357.39 109.052 357.41C109.262 357.66 109.922 358.35 110.402 358.17C110.402 358.17 110.422 358.17 110.432 358.15C110.472 358.13 110.512 358.11 110.542 358.08C110.962 357.71 111.102 356.47 110.672 354.92H110.702L121.022 352.9L126.072 355.78C126.072 355.78 126.322 356.35 126.772 357.21C127.522 358.71 128.382 360.16 129.342 361.54C129.342 361.54 129.342 361.56 129.362 361.57C130.032 362.64 130.892 363.56 131.892 364.31C134.712 366.15 133.792 371.9 128.442 373.54V373.56Z" fill="#FFCB9D"/>
    <path d="M129.361 361.59C128.051 362.36 126.061 363.33 123.471 363.86C120.871 364.39 118.661 364.3 117.191 364.11C116.211 364.45 115.331 365.05 114.661 365.85C113.701 367.06 113.901 367.98 113.221 369.5L113.161 369.64C112.231 367.9 111.461 366.08 110.861 364.2C110.821 364.06 110.681 363.59 110.521 363.05C109.851 360.7 109.371 358.77 109.051 357.42C109.051 357.39 109.051 357.37 109.031 357.35C109.181 357.53 109.901 358.35 110.431 358.16C110.471 358.14 110.511 358.12 110.541 358.09C110.981 357.76 111.141 356.51 110.701 354.92L121.021 352.91L126.071 355.79C126.071 355.79 126.321 356.36 126.771 357.22C127.521 358.72 128.381 360.17 129.341 361.55C129.341 361.55 129.341 361.57 129.361 361.58V361.59Z" fill="black" opacity="0.1"/>
    <path d="M114.63 383.75C115.28 387.26 119.95 389.33 125.07 388.37C130.19 387.42 133.8 383.82 133.15 380.31C133.12 380.12 133.06 379.93 132.98 379.75C129.96 379.6 126.93 379.72 123.92 380.1C120.79 380.49 117.7 381.12 114.67 381.97C114.53 382.55 114.51 383.16 114.63 383.75Z" fill="black" opacity="0.1"/>
    <path d="M120.208 388.71C120.718 386.23 121.578 384.84 122.768 384.56C124.138 384.24 125.508 385.49 126.208 386.28C126.638 385.05 127.728 382.68 129.628 382.38C131.178 382.16 132.868 383.46 134.638 386.21C135.468 387.49 136.488 389.33 135.888 390.44C135.688 390.77 135.358 390.98 134.988 391.03C133.348 391.33 130.198 389.88 128.008 388.73C128.408 389.35 128.968 389.84 129.638 390.15C130.108 390.24 130.498 390.56 130.678 391C131.108 391.96 130.678 393.33 130.288 394.4L129.498 393.82C130.078 392.2 129.978 391.65 129.948 391.49C129.878 391.37 129.748 391.29 129.608 391.27C128.498 391.06 127.268 389.37 126.618 388.36C126.428 389.19 126.308 390.03 126.278 390.88C126.348 391.06 126.438 391.24 126.528 391.42C126.878 392.1 127.458 393.22 126.848 394.16C126.518 394.69 126.488 396.35 126.798 398.63L125.928 398.71C125.558 395.97 125.638 394.19 126.148 393.38C126.328 393.11 126.188 392.73 125.798 391.99C125.648 391.73 125.528 391.46 125.448 391.17C125.378 390.46 125.418 389.75 125.568 389.06C124.288 390.51 122.578 392.21 121.378 392.43C121.058 392.52 120.718 392.45 120.458 392.25C119.718 391.55 119.948 389.91 120.198 388.73L120.208 388.71ZM135.178 389.72C135.178 389.67 135.438 389.11 134.008 386.88C132.468 384.47 131.058 383.33 129.848 383.5L129.758 383.52C128.268 383.8 127.348 385.97 126.998 386.97C130.628 389.03 134.688 390.61 135.178 389.72ZM120.948 391.26C121.428 391.66 123.668 389.75 125.768 387.2C125.218 386.58 124.098 385.47 123.068 385.66H123.008C122.168 385.87 121.498 387.03 121.048 389.11C120.668 390.94 120.948 391.26 120.948 391.26Z" fill="#066FD1"/>
    <path d="M139.721 388.79C141.391 389.35 153.361 393.14 164.771 386.04C178.731 377.35 178.581 360.63 178.561 359.85C167.661 361.79 172.981 368.79 168.421 376.46C163.861 384.13 139.711 388.79 139.711 388.79H139.721Z" fill="black" opacity="0.1"/>
    <path d="M145.642 459.99C146.462 462.03 147.282 464.06 148.112 466.08L151.212 464.96C150.702 456.58 150.302 447.99 150.012 439.19C149.742 430.98 149.592 422.94 149.542 415.08L142.522 416.66L134.672 431.33C138.132 440.79 141.792 450.35 145.652 460L145.642 459.99Z" fill="black" opacity="0.1"/>
    <path d="M139.83 419.5C140.26 419.46 140.68 419.36 141.08 419.21C142.72 418.59 144.16 417.12 144.17 415.47C144.17 412.99 140.89 411.58 140.01 411.2C139.61 411.04 139.21 410.91 138.8 410.79C136.87 410.21 133.25 409.97 132.24 411.54C131.12 413.27 133.86 417.15 136.9 418.77C137.78 419.3 138.81 419.56 139.84 419.51L139.83 419.5Z" fill="#FFCB9D"/>
    <path d="M139.829 419.5C140.259 419.46 140.679 419.36 141.079 419.21C140.809 416.57 139.269 414.57 138.829 411.17L138.789 410.79C136.859 410.21 133.239 409.97 132.229 411.54C131.109 413.27 133.849 417.15 136.889 418.77C137.769 419.3 138.799 419.56 139.829 419.51V419.5Z" fill="black" opacity="0.1"/>
    <path d="M114.32 415C113.79 414.54 113.28 414.06 112.77 413.58C112.03 412.88 111.29 412.14 110.58 411.39C110.14 410.91 109.7 410.43 109.26 409.92C108.07 408.57 106.97 407.15 105.95 405.67L105.64 405.23C105.41 404.89 105.19 404.55 104.98 404.2C104.62 403.63 104.28 403.06 103.96 402.47C102.73 400.31 101.69 398.03 100.84 395.69C101.79 395.59 102.68 395.26 103.62 394.82C104.72 394.31 105.76 393.69 106.83 393.13C107.01 393.04 107.33 392.94 107.54 392.81C107.54 392.81 107.55 392.81 107.56 392.81C107.7 392.76 107.93 392.74 108.09 392.67C108.43 392.65 108.77 392.6 109.1 392.53C109.16 392.63 109.2 392.73 109.26 392.83C110.36 394.61 111.78 396.18 113.44 397.45C113.49 397.47 113.53 397.5 113.57 397.52C114.17 397.98 114.79 398.41 115.44 398.83C116.66 399.6 117.92 400.32 119.22 400.96L119.69 401.22C125.89 404.04 132.42 406.08 139.13 407.27C138.14 408.84 137.46 410.58 137.12 412.4C136.59 415.49 137.44 417.34 137.38 420.73C137.37 423.17 136.87 425.59 135.94 427.85C130.09 425.66 124.56 422.72 119.47 419.1C118.81 418.64 118.16 418.15 117.51 417.66C116.43 416.83 115.36 415.94 114.3 415H114.32Z" fill="#DADCE0"/>
    <path d="M130.69 354.8C130.66 354.89 130.63 354.98 130.59 355.07C130.21 356.25 129.53 357.33 128.64 358.22C126.75 360.12 124.1 360.71 121.54 360.71C118.42 360.71 115.46 359.83 114.26 359.43C114.03 360.82 112.97 362.04 112.97 362.9V363.63C113.05 364.72 113.31 365.78 113.75 366.77C114.81 369.03 116.06 371.19 117.49 373.23C120.92 378.13 119.82 386.27 117.17 391.35C116.52 392.59 115.73 393.75 114.82 394.82C106.95 404.33 93.4998 406.38 93.4998 406.38C88.8898 407.49 84.1098 407.68 79.4198 406.94C76.4798 406.5 73.5998 405.71 70.8398 404.6C71.1598 402.81 71.6799 401.05 72.3699 399.36C72.6199 398.71 72.8899 398.11 73.1599 397.56C74.4699 394.82 75.8498 393.32 76.8498 391.48C78.1598 389.07 79.2599 385.3 78.1599 379.23C99.9099 381.49 105.17 379.59 105.84 377.36C106.42 375.38 103.11 374.06 102.44 369.59C101.18 361.22 110.39 354.04 110.99 353.6C112.37 352.54 117.69 348.52 124.18 349.5C125.85 349.75 129.85 350.36 130.67 352.9C130.85 353.52 130.85 354.18 130.67 354.8H130.69Z" fill="#454C5E"/>
    <path d="M70.8516 404.61C73.6516 405.6 76.5216 406.38 79.4316 406.95C84.1216 407.68 88.9016 407.49 93.5116 406.39C93.5116 406.39 106.962 404.34 114.822 394.83C115.732 393.77 116.522 392.6 117.172 391.36C119.822 386.28 120.922 378.13 117.492 373.24C116.062 371.2 114.812 369.04 113.752 366.79C115.242 374.11 113.892 381.71 109.982 388.07C105.412 394.55 98.6216 399.12 90.8916 400.91C87.4016 401.8 83.7416 401.82 80.2416 400.97C77.6716 400.29 75.2516 399.11 73.1416 397.5C72.8616 398.06 72.5916 398.65 72.3416 399.3C71.6616 401.02 71.1616 402.8 70.8516 404.62V404.61Z" fill="black" opacity="0.5"/>
    <path d="M130.588 355.06C130.208 356.24 129.528 357.32 128.638 358.21C126.748 360.11 124.098 360.7 121.538 360.7C118.418 360.7 115.458 359.82 114.258 359.42C113.868 359.18 113.438 358.9 112.998 358.54C112.688 358.29 112.398 358.03 112.148 357.8C113.848 358.38 117.398 359.35 121.848 358.66C126.078 358.01 129.058 356.18 130.588 355.06Z" fill="black" opacity="0.5"/>
    <path d="M128.009 350.41L122.829 352.04L112.309 355.34L107.129 356.97L107.019 355.36L106.779 352.09L106.459 347.77L106.229 344.49L106.189 343.92L105.919 340.18L105.749 337.94L105.679 336.9L105.649 336.45L105.359 332.59L105.309 331.9V331.88L105.119 329.31L104.629 322.42L110.369 329.3L113.099 332.56L114.829 334.63L116.699 336.87L118.989 339.61L119.429 340.13L123.029 344.44L125.579 347.49L125.759 347.71L128.009 350.41Z" fill="#DADCE0"/>
    <path d="M107.839 333.61C108.149 334.84 107.399 336.08 106.169 336.38C105.989 336.42 105.809 336.45 105.639 336.45L105.359 332.58L105.309 331.89C106.449 331.73 107.559 332.46 107.839 333.6V333.61Z" fill="#066FD1"/>
    <path d="M118.989 339.61C118.569 340.71 117.639 341.6 116.409 341.91C114.409 342.41 112.389 341.19 111.889 339.2C111.389 337.21 112.609 335.18 114.609 334.68C114.679 334.66 114.759 334.65 114.829 334.63L116.699 336.87L118.989 339.61Z" fill="#066FD1"/>
    <path d="M112.441 352.1C114.098 352.1 115.441 350.757 115.441 349.1C115.441 347.443 114.098 346.1 112.441 346.1C110.785 346.1 109.441 347.443 109.441 349.1C109.441 350.757 110.785 352.1 112.441 352.1Z" fill="#066FD1"/>
    <path d="M128.01 350.41L122.82 352.04L112.3 355.34L107.12 356.97L107 355.36L106.76 352.08L106.45 347.76L106.22 344.49L106.18 343.91C107.08 345.21 108.28 346.51 109.88 347.51C111.37 348.45 113.19 349.14 115.42 349.33C118.06 349.57 121.26 349.13 125.15 347.63C125.29 347.58 125.42 347.52 125.56 347.48L125.75 347.7L128 350.4L128.01 350.41Z" fill="black" opacity="0.1"/>
    <path d="M170.07 343.02C187.18 343.02 201.05 341.865 201.05 340.44C201.05 339.015 187.18 337.86 170.07 337.86C152.96 337.86 139.09 339.015 139.09 340.44C139.09 341.865 152.96 343.02 170.07 343.02Z" fill="#454C5E"/>
    <path d="M159.67 319.54H158.68V339.52H159.67V319.54Z" fill="#066FD1"/>
    <path d="M162.021 339.03H156.461V340.14H162.021V339.03Z" fill="#066FD1"/>
    <path d="M162.009 304.94V319.01C162.009 320.39 160.989 321.54 159.659 321.75C159.519 321.78 159.369 321.79 159.219 321.79C159.029 321.79 158.849 321.77 158.669 321.73C157.409 321.47 156.449 320.35 156.449 319.01V304.94H162.009Z" fill="#066FD1"/>
    <path d="M156.461 307.11V304.93C156.551 305.12 156.491 305.95 156.461 307.11Z" fill="black" opacity="0.1"/>
    <path d="M159.671 339.03H162.021V340.14H156.461V339.03H158.681V321.72C157.421 321.46 156.461 320.34 156.461 319V308.55C156.541 312.1 157.341 317.21 162.021 319C162.021 320.38 161.001 321.53 159.671 321.74V339.03Z" fill="black" opacity="0.1"/>
    <path d="M167.609 322.82H166.859V338.06H167.609V322.82Z" fill="#DADCE0"/>
    <path d="M169.412 337.69H165.172V338.54H169.412V337.69Z" fill="#DADCE0"/>
    <path d="M169.412 311.67V322.41C169.412 323.46 168.632 324.34 167.622 324.5C167.512 324.52 167.402 324.53 167.292 324.53C167.152 324.53 167.012 324.52 166.872 324.49C165.912 324.29 165.172 323.44 165.172 322.42V311.68H169.412V311.67Z" fill="#DADCE0"/>
    <path d="M165.172 313.33V311.67C165.242 311.82 165.192 312.45 165.172 313.33Z" fill="black" opacity="0.1"/>
    <path d="M167.622 337.69H169.412V338.54H165.172V337.69H166.872V324.48C165.912 324.28 165.172 323.43 165.172 322.41V314.44C165.232 317.15 165.842 321.05 169.412 322.41C169.412 323.46 168.632 324.34 167.622 324.5V337.69Z" fill="black" opacity="0.1"/>
    <path d="M179.389 318.24H178.289V340.54H179.389V318.24Z" fill="#A6A9B3"/>
    <path d="M182.009 339.99H175.809V341.23H182.009V339.99Z" fill="#A6A9B3"/>
    <path d="M182.019 301.93V317.63C182.019 319.17 180.889 320.45 179.399 320.68C179.239 320.71 179.079 320.72 178.909 320.72C178.699 320.72 178.499 320.7 178.289 320.66C176.879 320.37 175.809 319.12 175.809 317.63V301.93H182.009H182.019Z" fill="#A6A9B3"/>
    <path d="M175.809 304.36V301.93C175.909 302.14 175.839 303.06 175.809 304.36Z" fill="black" opacity="0.1"/>
    <path d="M179.4 339.99H182.02V341.23H175.82V339.99H178.3V320.67C176.89 320.38 175.82 319.13 175.82 317.64V305.98C175.9 309.95 176.81 315.65 182.02 317.64C182.02 319.18 180.89 320.46 179.4 320.69V339.99Z" fill="black" opacity="0.1"/>
    <path d="M165.911 301.62C166.673 301.62 167.291 301.002 167.291 300.24C167.291 299.478 166.673 298.86 165.911 298.86C165.149 298.86 164.531 299.478 164.531 300.24C164.531 301.002 165.149 301.62 165.911 301.62Z" fill="#066FD1"/>
    <path d="M160.38 277.44C161.142 277.44 161.76 276.822 161.76 276.06C161.76 275.298 161.142 274.68 160.38 274.68C159.618 274.68 159 275.298 159 276.06C159 276.822 159.618 277.44 160.38 277.44Z" fill="#066FD1"/>
    <path d="M160.382 292.8C162.105 292.8 163.502 291.403 163.502 289.68C163.502 287.957 162.105 286.56 160.382 286.56C158.659 286.56 157.262 287.957 157.262 289.68C157.262 291.403 158.659 292.8 160.382 292.8Z" fill="#066FD1"/>
    <path d="M169.409 286.55C170.342 286.55 171.099 285.793 171.099 284.86C171.099 283.927 170.342 283.17 169.409 283.17C168.475 283.17 167.719 283.927 167.719 284.86C167.719 285.793 168.475 286.55 169.409 286.55Z" fill="#066FD1"/>
    <path d="M177.818 293.94C178.691 293.94 179.398 293.233 179.398 292.36C179.398 291.487 178.691 290.78 177.818 290.78C176.946 290.78 176.238 291.487 176.238 292.36C176.238 293.233 176.946 293.94 177.818 293.94Z" fill="#066FD1"/>
    <path d="M536.502 106.48H535.772C535.402 106.48 535.102 106.78 535.102 107.15V122C535.102 122.37 535.402 122.67 535.772 122.67H536.502C536.872 122.67 537.172 122.37 537.172 122V107.15C537.172 106.78 536.872 106.48 536.502 106.48Z" fill="#066FD1"/>
    <path d="M543.719 102.111L542.803 101.954C542.454 101.894 542.124 102.128 542.064 102.477L540.895 109.307C540.835 109.656 541.07 109.986 541.418 110.046L542.335 110.203C542.683 110.263 543.014 110.028 543.073 109.68L544.242 102.849C544.302 102.501 544.068 102.17 543.719 102.111Z" fill="#066FD1"/>
    <path d="M556.78 106.764L555.959 106.327C555.647 106.16 555.26 106.278 555.093 106.59L551.834 112.706C551.667 113.018 551.785 113.405 552.097 113.572L552.918 114.009C553.23 114.175 553.618 114.057 553.784 113.745L557.044 107.63C557.21 107.318 557.092 106.93 556.78 106.764Z" fill="#066FD1"/>
    <path d="M567.794 115.232L567.152 114.558C566.909 114.302 566.503 114.292 566.247 114.536L561.229 119.315C560.973 119.559 560.963 119.964 561.207 120.22L561.848 120.893C562.092 121.149 562.497 121.159 562.753 120.916L567.772 116.137C568.028 115.893 568.037 115.488 567.794 115.232Z" fill="#066FD1"/>
    <path d="M575.486 126.777L575.089 125.936C574.939 125.616 574.557 125.479 574.238 125.63L567.97 128.586C567.65 128.737 567.513 129.118 567.664 129.438L568.061 130.279C568.211 130.599 568.593 130.735 568.912 130.585L575.18 127.629C575.5 127.478 575.637 127.096 575.486 126.777Z" fill="#066FD1"/>
    <path d="M579.259 140.154L579.147 139.231C579.105 138.88 578.786 138.63 578.435 138.672L571.555 139.506C571.204 139.548 570.954 139.867 570.997 140.218L571.109 141.142C571.151 141.492 571.47 141.742 571.821 141.7L578.701 140.866C579.052 140.824 579.302 140.505 579.259 140.154Z" fill="#066FD1"/>
    <path d="M578.525 154.008L578.709 153.096C578.779 152.75 578.555 152.412 578.209 152.342L571.416 150.967C571.07 150.897 570.732 151.121 570.662 151.468L570.478 152.379C570.408 152.726 570.632 153.063 570.978 153.133L577.77 154.508C578.117 154.578 578.454 154.354 578.525 154.008Z" fill="#066FD1"/>
    <path d="M573.564 166.993L574.026 166.185C574.201 165.879 574.095 165.488 573.788 165.312L567.773 161.87C567.467 161.695 567.076 161.801 566.9 162.108L566.438 162.915C566.263 163.222 566.369 163.613 566.676 163.788L572.691 167.23C572.997 167.406 573.388 167.299 573.564 166.993Z" fill="#066FD1"/>
    <path d="M564.69 177.673L565.383 177.053C565.646 176.817 565.668 176.412 565.432 176.149L560.807 170.988C560.571 170.725 560.166 170.703 559.903 170.939L559.211 171.56C558.947 171.796 558.925 172.2 559.161 172.463L563.786 177.624C564.022 177.887 564.427 177.909 564.69 177.673Z" fill="#066FD1"/>
    <path d="M552.228 185.318L553.081 184.947C553.405 184.806 553.554 184.429 553.413 184.105L550.647 177.751C550.506 177.427 550.129 177.278 549.805 177.419L548.952 177.791C548.628 177.932 548.48 178.309 548.621 178.633L551.386 184.987C551.527 185.311 551.904 185.459 552.228 185.318Z" fill="#066FD1"/>
    <path d="M538.491 188.464L539.417 188.38C539.769 188.348 540.029 188.037 539.997 187.685L539.371 180.783C539.339 180.431 539.028 180.172 538.676 180.204L537.75 180.288C537.398 180.319 537.138 180.631 537.17 180.983L537.796 187.884C537.828 188.236 538.139 188.496 538.491 188.464Z" fill="#066FD1"/>
    <path d="M524.651 187.207L525.557 187.419C525.901 187.5 526.245 187.286 526.326 186.942L527.904 180.194C527.985 179.85 527.771 179.506 527.427 179.425L526.522 179.213C526.177 179.133 525.833 179.346 525.753 179.691L524.174 186.438C524.093 186.782 524.307 187.127 524.651 187.207Z" fill="#066FD1"/>
    <path d="M511.536 181.102L512.329 181.588C512.631 181.773 513.025 181.678 513.209 181.377L516.831 175.469C517.016 175.167 516.922 174.773 516.62 174.589L515.827 174.103C515.526 173.918 515.132 174.012 514.947 174.314L511.325 180.222C511.141 180.523 511.235 180.917 511.536 181.102Z" fill="#066FD1"/>
    <path d="M500.812 171.423L501.412 172.134C501.64 172.404 502.043 172.439 502.313 172.211L507.611 167.743C507.881 167.515 507.916 167.112 507.688 166.841L507.088 166.13C506.861 165.86 506.457 165.826 506.187 166.054L500.889 170.521C500.619 170.749 500.584 171.153 500.812 171.423Z" fill="#066FD1"/>
    <path d="M494.667 158.9L495.012 159.764C495.144 160.092 495.516 160.252 495.844 160.121L502.279 157.548C502.607 157.417 502.767 157.044 502.636 156.716L502.291 155.853C502.159 155.525 501.787 155.365 501.459 155.496L495.024 158.068C494.696 158.2 494.536 158.572 494.667 158.9Z" fill="#066FD1"/>
    <path d="M492.308 144.928L492.364 145.857C492.385 146.209 492.688 146.478 493.041 146.457L499.959 146.04C500.311 146.019 500.58 145.715 500.559 145.363L500.503 144.434C500.482 144.081 500.178 143.813 499.826 143.834L492.908 144.251C492.555 144.272 492.287 144.575 492.308 144.928Z" fill="#066FD1"/>
    <path d="M493.997 131.364L493.758 132.262C493.667 132.604 493.871 132.955 494.212 133.045L500.909 134.827C501.251 134.918 501.601 134.715 501.692 134.373L501.931 133.475C502.022 133.133 501.819 132.783 501.477 132.692L494.78 130.91C494.439 130.819 494.088 131.022 493.997 131.364Z" fill="#066FD1"/>
    <path d="M501.06 118.003L500.55 118.781C500.356 119.076 500.439 119.473 500.735 119.667L506.531 123.465C506.826 123.659 507.223 123.577 507.417 123.281L507.926 122.503C508.12 122.208 508.038 121.811 507.742 121.617L501.946 117.818C501.65 117.625 501.254 117.707 501.06 118.003Z" fill="#066FD1"/>
    <path d="M511.918 108.437L511.189 109.015C510.912 109.235 510.866 109.637 511.085 109.914L515.391 115.344C515.61 115.621 516.013 115.668 516.29 115.448L517.018 114.87C517.295 114.651 517.342 114.248 517.122 113.971L512.817 108.541C512.597 108.264 512.195 108.218 511.918 108.437Z" fill="#066FD1"/>
    <path d="M526.619 102.011L525.746 102.33C525.414 102.452 525.243 102.819 525.364 103.151L527.742 109.66C527.864 109.992 528.231 110.163 528.563 110.042L529.437 109.723C529.769 109.601 529.939 109.234 529.818 108.902L527.44 102.393C527.319 102.061 526.951 101.89 526.619 102.011Z" fill="#066FD1"/>
    <path d="M548.733 108.535L548.041 108.302C547.69 108.184 547.31 108.372 547.192 108.722L542.443 122.793C542.325 123.143 542.513 123.523 542.864 123.642L543.555 123.875C543.906 123.994 544.286 123.805 544.404 123.455L549.153 109.384C549.272 109.034 549.083 108.654 548.733 108.535Z" fill="#066FD1"/>
    <path d="M559.61 114.481L559.029 114.038C558.735 113.814 558.314 113.871 558.09 114.165L549.089 125.976C548.865 126.27 548.922 126.691 549.216 126.915L549.796 127.358C550.091 127.582 550.511 127.525 550.735 127.231L559.736 115.42C559.961 115.125 559.904 114.705 559.61 114.481Z" fill="#066FD1"/>
    <path d="M568.081 123.517L567.672 122.913C567.465 122.606 567.048 122.525 566.742 122.732L554.436 131.045C554.13 131.252 554.049 131.669 554.256 131.975L554.665 132.58C554.872 132.887 555.288 132.967 555.595 132.76L567.9 124.448C568.207 124.241 568.288 123.824 568.081 123.517Z" fill="#066FD1"/>
    <path d="M573.223 134.812L573.029 134.108C572.931 133.752 572.562 133.542 572.206 133.64L557.888 137.581C557.531 137.679 557.322 138.048 557.42 138.405L557.614 139.109C557.712 139.466 558.081 139.675 558.437 139.577L572.755 135.636C573.112 135.538 573.321 135.169 573.223 134.812Z" fill="#066FD1"/>
    <path d="M574.483 147.158L574.524 146.429C574.545 146.06 574.263 145.743 573.894 145.722L559.068 144.878C558.698 144.857 558.382 145.139 558.361 145.509L558.319 146.237C558.298 146.607 558.58 146.923 558.95 146.944L573.776 147.789C574.145 147.81 574.462 147.527 574.483 147.158Z" fill="#066FD1"/>
    <path d="M571.641 159.221L571.914 158.544C572.052 158.201 571.886 157.811 571.543 157.672L557.766 152.129C557.423 151.991 557.033 152.157 556.894 152.5L556.622 153.177C556.484 153.521 556.65 153.911 556.993 154.049L570.77 159.593C571.113 159.731 571.503 159.565 571.641 159.221Z" fill="#066FD1"/>
    <path d="M565.168 169.781L565.642 169.227C565.883 168.945 565.85 168.522 565.569 168.282L554.289 158.624C554.008 158.383 553.585 158.416 553.344 158.697L552.869 159.251C552.629 159.532 552.662 159.955 552.943 160.196L564.223 169.854C564.504 170.095 564.927 170.062 565.168 169.781Z" fill="#066FD1"/>
    <path d="M555.649 177.746L556.276 177.373C556.594 177.183 556.698 176.772 556.509 176.454L548.909 163.696C548.72 163.378 548.309 163.274 547.991 163.463L547.364 163.837C547.046 164.026 546.942 164.437 547.131 164.755L554.73 177.513C554.92 177.831 555.331 177.936 555.649 177.746Z" fill="#066FD1"/>
    <path d="M544.061 182.232L544.775 182.079C545.136 182.001 545.367 181.645 545.289 181.283L542.168 166.765C542.091 166.403 541.734 166.173 541.373 166.25L540.659 166.404C540.297 166.482 540.067 166.838 540.145 167.2L543.265 181.718C543.343 182.08 543.699 182.31 544.061 182.232Z" fill="#066FD1"/>
    <path d="M531.699 182.688L532.424 182.771C532.792 182.813 533.124 182.549 533.166 182.181L534.855 167.428C534.897 167.06 534.633 166.728 534.265 166.686L533.54 166.603C533.172 166.561 532.84 166.825 532.798 167.192L531.109 181.946C531.067 182.313 531.331 182.646 531.699 182.688Z" fill="#066FD1"/>
    <path d="M519.784 179.257L520.444 179.567C520.779 179.725 521.178 179.581 521.336 179.246L527.654 165.807C527.811 165.472 527.668 165.073 527.333 164.916L526.672 164.605C526.337 164.448 525.938 164.591 525.781 164.926L519.463 178.365C519.305 178.7 519.449 179.099 519.784 179.257Z" fill="#066FD1"/>
    <path d="M509.576 172.188L510.103 172.694C510.37 172.95 510.794 172.941 511.05 172.674L521.334 161.962C521.59 161.695 521.581 161.271 521.315 161.014L520.788 160.509C520.521 160.252 520.097 160.261 519.841 160.528L509.557 171.241C509.3 171.508 509.309 171.932 509.576 172.188Z" fill="#066FD1"/>
    <path d="M502.181 162.221L502.519 162.868C502.69 163.196 503.094 163.324 503.422 163.153L516.592 156.291C516.92 156.12 517.048 155.716 516.877 155.388L516.539 154.74C516.368 154.412 515.964 154.285 515.636 154.456L502.466 161.317C502.138 161.488 502.01 161.893 502.181 162.221Z" fill="#066FD1"/>
    <path d="M498.448 150.408L498.561 151.129C498.618 151.495 498.96 151.745 499.326 151.688L513.999 149.401C514.364 149.344 514.615 149.001 514.558 148.636L514.445 147.914C514.388 147.549 514.046 147.299 513.68 147.356L499.007 149.643C498.642 149.7 498.391 150.042 498.448 150.408Z" fill="#066FD1"/>
    <path d="M498.605 138.01L498.481 138.729C498.418 139.094 498.663 139.44 499.027 139.503L513.661 142.028C514.026 142.091 514.372 141.846 514.435 141.482L514.559 140.762C514.622 140.398 514.378 140.051 514.013 139.988L499.379 137.463C499.015 137.4 498.668 137.645 498.605 138.01Z" fill="#066FD1"/>
    <path d="M502.71 126.297L502.362 126.939C502.186 127.264 502.307 127.671 502.632 127.847L515.69 134.919C516.015 135.096 516.422 134.975 516.598 134.649L516.946 134.007C517.122 133.682 517.001 133.275 516.676 133.099L503.618 126.027C503.293 125.851 502.886 125.972 502.71 126.297Z" fill="#066FD1"/>
    <path d="M510.408 116.597L509.874 117.094C509.603 117.346 509.587 117.77 509.839 118.041L519.948 128.919C520.199 129.19 520.623 129.206 520.894 128.954L521.429 128.457C521.7 128.205 521.716 127.781 521.464 127.51L511.355 116.632C511.103 116.361 510.679 116.345 510.408 116.597Z" fill="#066FD1"/>
    <path d="M521.484 108.609L520.818 108.908C520.481 109.06 520.33 109.457 520.482 109.794L526.581 123.334C526.733 123.672 527.13 123.822 527.467 123.67L528.133 123.37C528.47 123.218 528.621 122.821 528.469 122.484L522.37 108.944C522.218 108.607 521.821 108.457 521.484 108.609Z" fill="#066FD1"/>
    <path d="M630.75 490.9L640.03 489.54C640.03 489.54 640.32 487.1 638.79 486.28C637.26 485.46 632.19 488.62 630.75 490.88" fill="#454C5E"/>
    <path d="M645.34 423.59C640.87 431.33 636.4 439.07 631.93 446.8C632.93 458.85 633.93 470.91 634.93 482.96L638.69 482.46C640.63 471.95 642.57 461.44 644.51 450.93C652.8 442.26 661.09 433.6 669.37 424.93C661.36 424.48 653.34 424.04 645.33 423.59H645.34Z" fill="#DADCE0"/>
    <path d="M645.34 423.59C640.87 431.33 636.4 439.07 631.93 446.8C632.93 458.85 633.93 470.91 634.93 482.96L638.69 482.46C640.63 471.95 642.57 461.44 644.51 450.93C652.8 442.26 661.09 433.6 669.37 424.93C661.36 424.48 653.34 424.04 645.33 423.59H645.34Z" fill="black" opacity="0.1"/>
    <path d="M713.13 462.5L712.98 453.12C712.98 453.12 710.59 452.52 709.58 453.93C708.57 455.34 711.05 460.78 713.11 462.5" fill="#454C5E"/>
    <path d="M649.801 426.05C655.571 437.68 661.341 449.31 667.111 460.93C680.041 459.77 692.981 458.61 705.911 457.45C705.951 455.96 705.991 454.47 706.041 452.98C696.841 451.9 687.631 450.83 678.431 449.75C676.611 440.73 674.781 431.7 672.961 422.68C665.241 423.8 657.521 424.92 649.801 426.03V426.05Z" fill="#DADCE0"/>
    <path d="M672.949 417.95C672.929 419.58 672.949 421.16 672.969 422.69C669.649 423.71 665.129 424.72 659.749 424.95C653.859 425.2 648.909 424.42 645.339 423.58C643.999 411.45 642.889 399.05 642.049 386.38C641.909 384.25 641.769 382.13 641.649 380.01V379.98C641.329 375.84 640.929 371.82 640.449 367.98C644.399 369.47 648.459 370.63 652.599 371.45L652.819 371.49L653.269 371.58C653.989 371.71 654.729 371.85 655.489 371.98L656.139 372.07C656.369 372.11 656.589 372.14 656.829 372.18L657.539 372.27C659.259 372.49 661.049 372.66 662.919 372.76C664.529 372.86 666.089 372.88 667.599 372.88H668.509C672.329 372.8 676.119 372.43 679.879 371.78C678.169 377.58 676.599 384.07 675.389 391.19C673.709 400.99 673.049 410 672.969 417.96L672.949 417.95Z" fill="#066FD1"/>
    <path d="M652.821 371.49C648.841 374.88 645.781 379.21 643.921 384.09C643.891 384.15 643.871 384.21 643.851 384.28C643.041 386.48 642.501 388.77 642.231 391.1C639.861 388.19 636.591 384.04 632.921 378.89C629.291 373.8 626.231 369.07 624.901 366.86C618.261 355.85 615.051 342.01 613.461 331.97C619.131 331.25 624.811 330.53 630.481 329.8C630.261 334.1 630.261 345.7 637.751 357.19C642.811 364.94 649.121 369.32 652.811 371.49H652.821Z" fill="#066FD1"/>
    <path d="M731.848 349.92C724.168 353.48 715.508 358.16 706.468 364.31C693.188 373.35 682.958 382.93 675.378 391.16C675.038 390.36 671.818 382.81 671.478 382.01C670.178 378.96 668.878 375.91 667.578 372.86H667.628C668.518 372.6 669.398 372.3 670.258 371.96C670.258 371.96 672.788 370.95 675.228 369.39C677.858 367.7 693.808 353.83 715.138 334.14C720.708 339.4 726.278 344.66 731.848 349.93V349.92Z" fill="#066FD1"/>
    <path d="M672.961 422.7C669.641 423.72 665.121 424.73 659.741 424.96C653.851 425.21 648.901 424.43 645.331 423.59C643.991 411.46 642.881 399.06 642.041 386.39C641.931 384.23 641.801 382.1 641.641 380.02V379.99C641.641 379.99 641.641 379.99 641.641 380.01C642.311 381.31 643.091 382.68 643.901 384.09C650.321 395.29 660.241 409.5 672.921 417.95C672.901 419.58 672.921 421.16 672.941 422.69L672.961 422.7Z" fill="black" opacity="0.1"/>
    <path d="M663.839 372.62C662.239 373.85 660.299 374.56 658.279 374.64H657.999L653.449 371.72L663.849 372.63L663.839 372.62Z" fill="#FFCB9D"/>
    <path d="M663.839 372.62C662.239 373.85 660.299 374.56 658.279 374.64H657.999L653.449 371.72L663.849 372.63L663.839 372.62Z" fill="black" opacity="0.1"/>
    <path d="M657.988 374.64L652.588 369.44L650.988 370.67L654.188 377.42L657.988 374.64Z" fill="#DADCE0"/>
    <path d="M658.27 374.69L668.32 370.28L670.08 372.52L662.68 379.7L658.27 374.69Z" fill="#DADCE0"/>
    <path d="M657.988 374.64L652.588 369.44L650.988 370.67L654.188 377.42L657.988 374.64Z" fill="black" opacity="0.1"/>
    <path d="M660.579 380.5C657.799 388.24 655.019 395.98 652.289 403.73C652.969 395.62 653.609 387.51 654.229 379.45C655.539 377.83 656.789 376.26 658.129 374.65L658.399 374.74C659.059 376.68 659.789 378.58 660.589 380.5H660.579Z" fill="#DADCE0"/>
    <path d="M658.048 374.66L652.238 403.75C652.918 395.64 653.558 387.52 654.178 379.46C655.488 377.85 656.748 376.21 658.048 374.66Z" fill="black" opacity="0.1"/>
    <path d="M677.45 350.82C677.45 350.82 677.45 350.84 677.43 350.85C676.79 352.18 675.78 354.14 674.55 356.47C674.24 357 674 357.43 673.92 357.61C672.42 360.14 670.61 362.49 668.55 364.59C668.1 365 667.73 365.37 667.28 365.78C666.12 366.74 661.75 366.56 657.44 365.2C655.94 364.74 654.51 364.11 653.16 363.31C648.92 360.9 648.37 356.34 650.08 354.01C650.48 353.45 651.05 353.01 651.7 352.78C652.94 352.21 654.08 351.44 655.07 350.5L655.09 350.48C656.44 349.27 657.69 347.92 658.79 346.49C659.16 346.06 659.52 345.61 659.85 345.13L665.85 343.28L676.19 347.85L676.27 347.88C675.49 349.4 675.33 350.71 675.66 351.23C675.68 351.26 675.72 351.29 675.75 351.32C675.77 351.35 675.79 351.36 675.81 351.38C676.2 351.67 676.87 351.28 677.23 351.01C677.29 350.97 677.33 350.94 677.37 350.91C677.41 350.88 677.44 350.86 677.46 350.84L677.45 350.82Z" fill="#FFCB9D"/>
    <path d="M677.442 350.85C676.802 352.18 675.792 354.14 674.562 356.47C674.252 357 674.012 357.43 673.932 357.61C672.432 360.14 670.622 362.49 668.562 364.59C667.992 364.07 667.512 363.44 667.152 362.76C666.792 361.99 666.562 361.17 666.482 360.32C666.442 359.41 666.532 358.51 666.762 357.62C666.872 357.07 667.072 356.47 667.242 355.95C662.702 355.53 658.432 353.6 655.102 350.48C656.452 349.27 657.702 347.92 658.802 346.49C659.172 346.06 659.532 345.61 659.862 345.13L665.862 343.28L676.202 347.85C675.392 349.42 675.272 350.76 675.672 351.23C675.692 351.26 675.732 351.29 675.762 351.32C676.162 351.61 676.872 351.24 677.242 351.01C677.302 350.97 677.342 350.94 677.382 350.91C677.412 350.91 677.432 350.88 677.452 350.87L677.442 350.85Z" fill="black" opacity="0.1"/>
    <path d="M677.762 353.64C676.752 355.79 674.972 357.48 672.772 358.37C672.312 358.5 671.902 358.66 671.502 358.81C670.402 359.38 669.452 360.21 668.752 361.23C668.512 360.45 668.522 359.6 668.802 358.83C669.242 357.68 670.702 355.77 670.822 355.48L670.892 355.31C670.972 355.14 671.062 354.98 671.172 354.83C671.472 354.29 671.722 353.73 671.922 353.14V353.08C668.552 353.54 659.292 354.09 655.962 348.05C655.452 347.1 655.062 346.09 654.802 345.04C654.762 344.95 654.732 344.84 654.732 344.74C654.672 344.48 654.622 344.21 654.612 343.95L654.582 343.87C654.492 343.17 654.532 342.45 654.702 341.76L654.732 341.51C654.802 341.21 654.932 340.92 655.102 340.67C655.712 339.65 656.672 338.88 657.812 338.5C659.922 337.68 662.442 337.78 663.822 337.86C669.062 338.03 675.932 340.59 678.002 346.31C678.482 347.78 678.622 349.34 678.412 350.87C678.312 351.83 678.082 352.76 677.722 353.66" fill="#454C5E"/>
    <path d="M671.939 353.09C668.569 353.55 659.309 354.1 655.979 348.06C655.469 347.11 655.079 346.1 654.819 345.05C654.779 344.96 654.749 344.85 654.749 344.75C654.689 344.49 654.639 344.22 654.629 343.96C654.639 343.93 654.629 343.9 654.609 343.88C654.519 343.18 654.559 342.46 654.729 341.77C655.419 343.44 656.369 345 657.539 346.38C663.379 353.13 673.059 352.23 674.589 352.1H674.729C673.839 352.46 672.879 352.78 671.939 353.09Z" fill="black" opacity="0.5"/>
    <path d="M690.991 315.59L687.891 324.84L686.411 329.22L684.461 335.02L682.981 339.41L682.881 339.72L681.041 345.2L679.561 349.59L678.351 353.22L673.881 349.33L667.621 343.88L664.831 341.45L660.371 337.58L661.801 336.56L664.701 334.47L668.521 331.73L671.431 329.64L675.251 326.9L678.161 324.81L681.981 322.06L684.891 319.98L690.991 315.59Z" fill="#DADCE0"/>
    <path d="M686.408 329.23L681.988 322.06L684.888 319.98L687.888 324.84L686.408 329.23Z" fill="#066FD1"/>
    <path d="M682.992 339.41L675.262 326.89L678.162 324.81L684.462 335.02L682.992 339.41Z" fill="#066FD1"/>
    <path d="M681.039 345.2L679.56 349.59L675.14 342.43L668.52 331.73L671.43 329.64L678.69 341.39L681.039 345.2Z" fill="#066FD1"/>
    <path d="M673.881 349.33L667.621 343.88L664.831 341.45L661.801 336.56L664.701 334.47L670.261 343.47L673.881 349.33Z" fill="#066FD1"/>
    <path d="M416.901 376.13C416.901 388.44 414.781 398.97 410.561 407.75C406.341 416.52 400.471 423.18 392.991 427.72C385.501 432.27 377.001 434.55 367.471 434.55C365.901 434.55 364.371 434.49 362.871 434.37C402.591 414.32 413.151 381.59 415.101 358.01C416.301 363.56 416.901 369.6 416.901 376.14V376.13Z" fill="black" opacity="0.1"/>
    <path d="M305.249 406.61V431.81H217.789V428.98C229.979 428.81 258.949 426.19 279.939 406.61H305.249Z" fill="black" opacity="0.1"/>
    <path d="M550.521 323.16C549.021 331.24 547.52 339.33 546.04 347.41C546.18 355.33 546.33 363.26 546.47 371.18L543.8 372.31C541.29 364.41 538.76 356.51 536.24 348.6C535.89 340.27 535.54 331.94 535.18 323.6C530.49 323 525.8 322.41 521.11 321.81C523.11 326.59 525.101 331.37 527.091 336.14C526.901 337.62 526.71 339.09 526.51 340.56C518.92 332.67 511.33 324.77 503.73 316.88C512.45 313.9 521.171 310.92 529.901 307.94C531.291 308.05 532.68 308.15 534.07 308.25L536.211 308.41C537.891 308.53 539.55 308.67 541.23 308.79C545.16 309.08 549.08 309.38 553.01 309.68C552.18 314.17 551.351 318.66 550.521 323.15V323.16Z" fill="#DADCE0"/>
    <path d="M553.009 309.69C552.179 314.18 551.349 318.67 550.519 323.16C547.119 322.63 544.539 319.96 544.239 316.82C543.989 314.32 545.219 311.82 547.379 310.31C547.709 311.4 548.499 312.26 549.469 312.46C550.899 312.76 552.619 311.63 553.019 309.69H553.009Z" fill="black" opacity="0.1"/>
    <path d="M539.238 380.34L547.858 377.41C547.858 377.41 547.698 375.02 546.098 374.52C544.498 374.01 540.218 377.93 539.238 380.34Z" fill="#454C5E"/>
    <path d="M530.638 348.6L532.208 339.63C532.208 339.63 530.038 338.62 528.828 339.79C527.618 340.96 528.988 346.59 530.638 348.6Z" fill="#454C5E"/>
    <path d="M551.329 245.45C550.749 246.67 549.899 248.47 548.829 250.66C548.549 251.11 548.329 251.56 548.269 251.68C546.989 254.05 545.399 256.23 543.549 258.18C543.139 258.56 542.799 258.94 542.459 259.25C541.029 260.5 534.419 259.98 529.549 257.36C524.679 254.74 524.899 249.05 527.959 247.86C529.079 247.33 530.089 246.59 530.929 245.68C532.109 244.51 533.209 243.26 534.229 241.94C534.849 241.18 535.199 240.67 535.199 240.67L540.579 238.85L550.129 242.77C549.339 244.31 549.289 245.62 549.799 245.97C550.309 246.32 551.129 245.63 551.329 245.44" fill="#FFCB9D"/>
    <path d="M551.332 245.45C550.752 246.67 549.902 248.47 548.832 250.66C548.552 251.11 548.332 251.56 548.272 251.68C546.992 254.05 545.402 256.23 543.552 258.18C543.022 257.72 542.582 257.17 542.242 256.55C541.862 255.88 541.642 255.13 541.612 254.36C541.562 253.55 541.642 252.73 541.842 251.95C541.942 251.42 542.072 250.9 542.232 250.39C538.062 250.11 534.112 248.42 531.012 245.62C532.192 244.45 533.292 243.2 534.312 241.88C534.932 241.12 535.282 240.61 535.282 240.61L540.662 238.79L550.212 242.71C549.432 244.26 549.382 245.56 549.892 245.91C550.402 246.26 551.152 245.63 551.352 245.44" fill="black" opacity="0.1"/>
    <path d="M554.731 244.24C554.211 246.01 552.831 245.91 552.161 247.77C551.571 249.45 552.381 250.19 551.641 251.02C550.811 251.91 548.791 251.83 547.591 252.17C547.311 252.25 547.051 252.35 546.791 252.47C546.681 252.52 546.561 252.57 546.461 252.65C545.451 253.18 544.591 253.96 543.941 254.91C543.721 254.18 543.731 253.38 543.981 252.66C544.501 251.56 545.121 250.51 545.801 249.52C545.801 249.47 545.831 249.42 545.871 249.39C545.931 249.27 545.961 249.21 546.081 248.94C546.361 248.45 546.581 247.94 546.731 247.39V247.32H546.581H546.291C545.481 247.28 543.981 247.22 542.231 247.03C537.971 246.57 532.231 245.42 531.271 242.31C531.191 242.07 531.141 241.82 531.091 241.58C531.051 241.34 531.021 241.1 531.021 240.86V240.83C531.001 240.25 531.151 239.67 531.461 239.17C532.641 237.39 535.691 238.23 536.551 236.49C537.111 235.34 536.031 234.44 536.731 233.48C537.431 232.53 539.341 232.27 540.621 232.85C541.571 233.3 541.431 233.86 542.331 234.29C543.881 235.02 544.931 233.55 546.531 234.19C547.501 234.7 548.301 235.48 548.811 236.44C549.231 237.25 549.211 237.63 549.771 238.31C550.231 238.8 550.771 239.2 551.361 239.49C552.651 240.13 553.051 239.83 553.701 240.23C554.781 241.06 555.101 242.84 554.721 244.21L554.731 244.24Z" fill="#454C5E"/>
    <path d="M548.69 246.12C548.2 246.7 547.54 247.11 546.81 247.29L546.58 247.31H546.289C545.479 247.27 543.979 247.21 542.229 247.02C537.969 246.56 532.23 245.41 531.27 242.3C531.19 242.06 531.14 241.81 531.09 241.57C531.05 241.33 531.02 241.09 531.02 240.85C532.1 241.71 533.25 242.48 534.46 243.14C540.01 246.17 545.51 246.32 548.68 246.11L548.69 246.12Z" fill="black" opacity="0.5"/>
    <path d="M475.8 289.19C476.16 290.02 476.72 290.74 477.44 291.36C478.26 292.06 479.28 292.62 480.44 293.07C485.59 295.09 493.41 294.91 497.79 294.42C499.67 294.21 501.93 293.92 504.53 293.06C505.55 292.71 506.61 292.29 507.69 291.79C509.73 290.84 511.54 289.73 513.14 288.56C515.88 286.56 518 284.36 519.58 282.43C518.6 281.72 517.56 280.88 516.5 279.9C514.78 278.32 513.42 276.74 512.35 275.32C511.93 275.95 511.5 276.53 511.08 277.08C507.09 282.24 503.33 283.88 500.55 284.4C495.26 285.38 484.96 283.87 482.12 283.41C481.99 283.39 481.88 283.37 481.79 283.36C481.07 283.24 480.01 283.06 478.95 283.09C477.9 283.13 476.86 283.38 476.18 284.15C475.07 285.38 475.15 287.63 475.82 289.18L475.8 289.19Z" fill="#FFCB9D"/>
    <path d="M513.13 288.58C515.87 286.58 517.99 284.38 519.57 282.45C518.59 281.74 517.55 280.9 516.49 279.92C514.77 278.34 513.41 276.76 512.34 275.34C511.92 275.97 511.49 276.55 511.07 277.1C512.52 279.39 514.71 283.94 513.14 288.58H513.13Z" fill="black" opacity="0.1"/>
    <path d="M483.951 264.85L483.721 271.31L482.811 297.28L471.871 287.54L459.551 276.57L483.951 264.85Z" fill="#DADCE0"/>
    <path d="M483.951 264.85L483.721 271.3C482.221 271.85 476.681 274.08 473.691 280.01C472.181 283 471.901 285.81 471.871 287.54L459.551 276.57L483.941 264.86L483.951 264.85Z" fill="black" opacity="0.1"/>
    <path d="M473.874 275.142C480.609 271.907 485.118 267.302 483.943 264.858C482.769 262.413 476.357 263.055 469.621 266.291C462.886 269.527 458.378 274.131 459.552 276.575C460.726 279.02 467.138 278.378 473.874 275.142Z" fill="#066FD1"/>
    <path d="M483.949 264.85C483.579 264.09 482.709 263.63 481.479 263.45C481.279 266.01 477.109 269.88 471.229 272.7C466.589 274.93 462.099 275.93 459.379 275.53C459.349 275.91 459.409 276.26 459.559 276.57C460.729 279.01 467.149 278.37 473.879 275.14C480.619 271.9 485.129 267.3 483.949 264.85Z" fill="black" opacity="0.1"/>
    <path d="M535.169 323.59C530.479 322.99 525.789 322.4 521.099 321.8C523.099 326.58 525.089 331.36 527.079 336.13C526.889 337.61 526.699 339.08 526.499 340.55C518.909 332.66 511.319 324.76 503.719 316.87C512.439 313.89 521.159 310.91 529.889 307.93C531.279 308.04 532.669 308.14 534.059 308.24L536.199 308.4L535.159 323.58L535.169 323.59Z" fill="black" opacity="0.1"/>
    <path d="M511.262 273.81C512.022 274.95 512.932 276.16 514.012 277.38C516.462 280.16 519.022 282.14 521.162 283.52C521.542 283.08 521.962 282.48 522.312 281.73C522.452 281.43 522.562 281.14 522.652 280.87C523.822 285.31 524.472 289.15 524.852 292.09C525.212 294.86 525.592 297.97 525.502 302.12C525.442 304.75 525.192 307.03 524.932 308.83C526.452 308.97 528.662 309.16 531.352 309.4C536.362 309.84 538.872 310.06 540.432 310.18C543.672 310.43 548.302 310.69 554.132 310.74C553.152 305.8 552.382 299.97 552.212 293.41C552.082 288.92 552.272 284.78 552.612 281.06C552.592 281.12 552.572 281.18 552.562 281.23C552.522 281.38 552.302 282.19 552.482 282.96C552.732 283.98 553.612 284.56 553.812 284.68C554.012 284.32 554.322 283.8 554.732 283.18C555.342 282.26 556.502 280.54 558.472 278.86C558.732 278.64 559.402 278.08 560.332 277.47C560.812 277.15 561.492 276.71 562.452 276.27C562.782 276.12 563.062 276 563.272 275.93C559.162 271.02 554.972 267.89 552.242 266.86C551.662 266.64 548.942 265.71 545.252 265.01C545.032 264.97 544.802 264.93 544.592 264.89C541.442 264.36 538.622 264.19 536.352 264.05C534.682 263.95 532.902 263.92 532.902 263.92C532.012 263.9 531.102 263.9 530.172 263.92C529.822 263.92 529.462 263.93 529.112 263.94C529.112 263.94 528.192 263.96 527.492 264C526.332 264.06 523.342 264.58 521.982 265.01C519.372 265.84 515.102 268.77 511.262 273.82V273.81Z" fill="#066FD1"/>
    <path d="M529.059 264.26C529.119 265.85 533.589 267.3 536.909 267.3C540.689 267.3 543.839 266.27 544.589 264.89C542.199 264.41 539.479 264.03 536.469 263.85C534.489 263.73 532.639 263.72 530.929 263.78C530.319 263.83 529.719 263.88 529.109 263.94C529.079 264.02 529.059 264.13 529.059 264.27V264.26Z" fill="#FFCB9D"/>
    <path d="M524.922 308.84C526.432 308.98 528.652 309.17 531.332 309.41C536.342 309.85 538.852 310.06 540.422 310.19C543.662 310.44 548.292 310.7 554.122 310.75C553.142 305.81 552.372 299.97 552.192 293.42C552.072 288.93 552.252 284.79 552.602 281.08C552.602 281.08 545.352 306.03 524.922 308.85V308.84Z" fill="black" opacity="0.1"/>
    <path d="M529.059 264.26C529.119 265.85 533.589 267.3 536.909 267.3C540.689 267.3 543.839 266.27 544.589 264.89C542.199 264.41 539.479 264.03 536.469 263.85C534.489 263.73 532.639 263.72 530.929 263.78C530.319 263.83 529.719 263.88 529.109 263.94C529.079 264.02 529.059 264.13 529.059 264.27V264.26Z" fill="black" opacity="0.1"/>
    <path d="M542.992 315.5C543.162 316.31 543.642 317.12 543.642 317.12C543.782 317.39 543.992 317.74 544.332 318.1C544.402 318.17 544.802 318.6 545.352 318.91C545.352 318.91 546.342 319.48 547.752 319.42C548.702 319.38 553.832 318.1 560.552 307.87C562.292 305.23 566.772 298.3 567.012 292.14C567.132 289.14 566.562 286.17 566.562 286.17C566.342 285.02 566.022 283.77 565.562 282.45C565.392 281.97 565.202 281.48 564.992 280.98C564.712 280.32 564.422 279.7 564.112 279.1C563.572 278.05 562.992 277.11 562.432 276.26C561.372 276.77 560.172 277.47 558.952 278.44C556.952 280.02 555.592 281.76 554.702 283.17C555.002 283.54 555.312 283.94 555.612 284.36C556.452 285.54 557.282 286.9 557.892 288.41C558.622 290.2 559.052 292.2 558.892 294.32C558.832 295.17 558.692 295.77 558.612 296.12C557.612 300.41 554.382 303.78 551.112 306.57L547.462 309.53C544.392 311.33 542.632 313.83 542.982 315.47L542.992 315.5Z" fill="#FFCB9D"/>
    <path d="M554.721 283.18C555.021 283.55 555.331 283.95 555.631 284.37C557.191 283.1 561.261 280.42 565.571 282.44C565.401 281.96 565.211 281.47 565.001 280.97C564.721 280.31 564.431 279.69 564.121 279.09C563.581 278.04 563.001 277.09 562.441 276.25C561.381 276.76 560.181 277.46 558.961 278.43C556.961 280.01 555.601 281.75 554.711 283.16L554.721 283.18Z" fill="black" opacity="0.1"/>
    <path d="M682.879 339.72L681.039 345.19L679.559 349.58L678.349 353.21L673.879 349.32L667.609 343.86C668.439 343.74 669.319 343.61 670.259 343.45C671.789 343.18 673.439 342.84 675.139 342.42C676.319 342.13 677.509 341.78 678.689 341.38C680.119 340.91 681.529 340.35 682.879 339.71V339.72Z" fill="black" opacity="0.1"/>
</svg>
