<svg xmlns="http://www.w3.org/2000/svg" width="800" height="600" fill="none" viewBox="0 0 800 600">
    <path d="M122 300.005C122 346.967 171.651 381.147 193.645 419.135C216.246 458.349 221.777 518.104 260.853 540.847C298.822 562.852 352.898 538.265 399.836 538.265C446.775 538.265 500.838 562.852 538.808 540.847C577.883 518.235 583.415 458.349 606.027 419.135C628.022 381.147 677.672 347.086 677.672 300.005C677.672 252.925 627.903 218.864 606.027 180.875C583.427 141.602 577.883 81.7752 538.808 59.1632C500.838 37.1581 446.775 61.7457 399.836 61.7457C352.898 61.7457 298.822 37.1343 260.853 59.1632C221.658 81.7752 216.258 141.65 193.645 180.875C171.651 218.959 122 253.032 122 300.005Z" fill="black" opacity="0.07"/>
    <path d="M509.973 281.772H289.086C288.519 281.771 287.952 281.734 287.389 281.661C285.586 281.424 283.852 280.812 282.3 279.864C280.748 278.916 279.412 277.653 278.377 276.157C277.343 274.661 276.633 272.965 276.294 271.178C275.956 269.391 275.995 267.553 276.41 265.782L280.612 247.732L289.409 210.076C290.078 207.216 291.694 204.666 293.996 202.841C296.297 201.016 299.149 200.024 302.086 200.025H496.963C499.898 200.028 502.746 201.022 505.046 202.846C507.345 204.67 508.96 207.218 509.63 210.076L522.65 265.782C523.097 267.693 523.107 269.68 522.679 271.595C522.25 273.51 521.395 275.303 520.175 276.841C518.956 278.378 517.406 279.621 515.639 280.475C513.872 281.328 511.935 281.772 509.973 281.772Z" fill="#454C5E"/>
    <path d="M509.974 281.772H289.087C288.519 281.771 287.953 281.734 287.39 281.661C283.834 278.883 280.319 276.136 276.956 273.479C275.997 271.032 275.806 268.351 276.41 265.793L280.612 247.732C342.399 245.571 468.873 238.328 504.327 202.329C506.993 204.162 508.877 206.925 509.61 210.076L522.65 265.783C523.098 267.693 523.108 269.68 522.679 271.595C522.251 273.51 521.395 275.303 520.176 276.841C518.957 278.379 517.406 279.621 515.639 280.475C513.873 281.329 511.936 281.772 509.974 281.772Z" fill="black" opacity="0.1"/>
    <path d="M477.379 272.399H321.683C315.774 272.399 311.401 262.712 312.744 252.591L317.34 218.036L321.926 183.511C322.936 176.218 326.592 171.046 330.855 171.046H468.227C472.49 171.046 476.187 176.218 477.157 183.511L486.328 252.591C487.682 262.752 483.288 272.399 477.379 272.399Z" fill="#DADBE0"/>
    <path d="M383.238 171.046C380.026 181.814 366.814 211.177 317.34 218.036L321.926 183.511C322.936 176.218 326.592 171.046 330.855 171.046H383.238Z" fill="black" opacity="0.1"/>
    <path d="M576.921 267.096C574.042 266.763 572.365 266.581 572.365 266.561C573.895 266.629 575.417 266.808 576.921 267.096Z" fill="#DADBE0"/>
    <path d="M641.214 326.004C639.147 325.465 636.958 324.994 634.649 324.59C628.681 323.547 622.623 323.117 616.568 323.307C616.568 322.297 616.669 321.287 616.79 320.166C616.911 319.045 617.083 317.994 617.275 317.035C616.144 318.792 614.73 321.014 613.144 323.61C613.144 323.61 610.012 328.711 607.083 333.913C601.629 343.63 597.043 352.963 593.205 361.701C584.528 356.004 577.861 351.125 573.245 347.62C571.023 345.913 567.488 343.166 560.417 337.671L551.326 330.6C553.969 327.592 556.424 324.424 558.68 321.115C562.148 316.238 565.096 311.011 567.478 305.52C567.659 305.095 567.841 304.651 568.023 304.196C569.894 299.56 571.325 294.758 572.296 289.853L560.407 286.59C560.939 280.085 561.471 273.58 562.003 267.075C570.629 267.247 576.589 267.308 576.932 267.075L579.437 267.368C588.154 268.378 593.164 269.005 596.609 269.702C597.215 269.823 597.77 269.944 598.285 270.075C603.24 271.316 607.999 273.237 612.427 275.782C615.598 277.51 618.637 279.472 621.517 281.651C622.194 282.156 622.649 282.53 623.356 283.085C626.97 285.86 630.373 288.898 633.538 292.176C634.778 293.742 635.893 295.404 636.871 297.146C637.716 298.863 638.454 300.631 639.083 302.439C641.625 310.019 642.355 318.09 641.214 326.004Z" fill="#DADBE0"/>
    <path d="M621.459 281.692C618.651 281.953 615.821 281.807 613.055 281.257C604.833 279.631 598.469 274.954 596.57 269.742C597.176 269.863 597.732 269.985 598.247 270.116C603.202 271.357 607.96 273.278 612.388 275.823C615.553 277.552 618.585 279.513 621.459 281.692Z" fill="#FFCB9D"/>
    <path d="M621.459 281.692C618.651 281.953 615.821 281.807 613.055 281.257C604.833 279.631 598.469 274.954 596.57 269.742C597.176 269.863 597.732 269.985 598.247 270.116C603.202 271.357 607.96 273.278 612.388 275.823C615.553 277.552 618.585 279.513 621.459 281.692Z" fill="black" opacity="0.1"/>
    <path d="M637.649 238.793C637.063 241.045 636.164 244.348 634.942 248.389C634.659 249.278 634.416 250.065 634.336 250.318C632.841 254.696 630.805 258.869 628.275 262.742C627.76 263.5 627.265 264.217 626.699 264.904C624.679 267.419 613.275 268.57 604.275 265.56C595.275 262.55 593.871 252.853 598.7 249.884C600.432 248.626 601.927 247.07 603.114 245.288C604.772 242.955 606.264 240.508 607.578 237.965C608.366 236.54 608.811 235.561 608.811 235.561L617.427 230.854L634.861 234.621C634.022 237.51 634.356 239.672 635.245 240.096C636.134 240.52 637.406 239.086 637.649 238.793Z" fill="#FFCB9D"/>
    <path d="M637.649 238.793C637.063 241.045 636.164 244.348 634.942 248.389C634.659 249.278 634.417 250.066 634.336 250.318C632.845 254.698 630.809 258.872 628.275 262.742C627.224 262.136 626.295 261.337 625.538 260.389C624.729 259.335 624.132 258.134 623.78 256.853C623.438 255.481 623.315 254.062 623.417 252.651C623.437 251.739 623.508 250.829 623.629 249.924C616.479 250.713 609.271 249.084 603.154 245.298C604.807 242.967 606.296 240.523 607.609 237.985C608.397 236.55 608.841 235.581 608.841 235.581L617.467 230.874L634.901 234.641C634.063 237.52 634.386 239.692 635.275 240.106C636.164 240.52 637.406 239.086 637.649 238.793Z" fill="black" opacity="0.1"/>
    <path d="M598.791 231.439C599.074 232.744 599.498 234.014 600.054 235.227C600.718 236.803 601.609 238.274 602.7 239.591C607.599 245.571 616.74 247.813 625.932 245.126C627.481 244.672 628.991 244.095 630.447 243.399C630.457 243.41 630.463 243.424 630.463 243.439C630.463 243.454 630.457 243.469 630.447 243.48C630.292 244.438 630.066 245.383 629.771 246.308C629.619 246.732 629.599 246.864 629.498 247.146L629.387 247.419C628.486 249.308 627.753 251.271 627.195 253.288C627.003 254.602 627.226 255.944 627.831 257.126C628.625 255.311 629.861 253.724 631.427 252.51C632.022 252.102 632.643 251.735 633.286 251.409C636.438 249.334 638.731 246.187 639.74 242.55C640.126 241.054 640.283 239.508 640.205 237.965C640.205 236.955 639.993 233.268 638.185 230.894C634.528 225.985 623.276 225.712 617.549 226.369C616.201 226.655 614.8 226.553 613.508 226.076C613.258 225.948 613.035 225.773 612.852 225.561C611.639 224.217 612.064 221.773 612.801 220.318C614.215 217.51 617.963 216.025 622.326 216.45C613.609 212.308 604.145 214.985 600.225 221.278C598.432 224.346 597.917 227.995 598.791 231.439Z" fill="#454C5E"/>
    <path d="M598.793 231.439C599.076 232.744 599.5 234.014 600.056 235.227C600.72 236.803 601.611 238.273 602.702 239.591C607.601 245.57 616.742 247.813 625.934 245.126C628.197 244.247 630.126 243.5 630.449 243.399L633.722 241.55C628.812 242.765 623.722 243.073 618.702 242.459C614.268 241.914 608.096 241.176 602.894 236.469C601.283 235.007 599.901 233.311 598.793 231.439Z" fill="black" opacity="0.5"/>
    <path d="M619.236 314.085C615.195 320.146 611.155 326.772 607.114 333.913C601.66 343.631 597.074 352.964 593.236 361.701C584.559 356.004 577.893 351.125 573.276 347.62C571.054 345.913 567.519 343.166 560.448 337.671L551.357 330.6C554 327.592 556.456 324.424 558.711 321.116C562.169 316.236 565.107 311.01 567.479 305.52C567.66 305.096 567.842 304.651 568.024 304.197C575.842 305.035 582.943 306.005 582.943 306.005C582.943 306.005 598.094 324.045 619.236 314.085Z" fill="black" opacity="0.1"/>
    <path d="M128.279 430.811C128.279 433.397 249.177 435.528 397.832 435.528C546.487 435.528 667.385 433.397 667.385 430.811C667.385 428.225 546.487 426.104 397.832 426.104C249.177 426.104 128.279 428.236 128.279 430.811Z" fill="#1D2535" opacity="0.5"/>
    <path d="M594.024 288.51V395.418C594.034 404.504 590.546 413.245 584.283 419.828C578.02 426.411 569.463 430.33 560.388 430.771C559.802 430.771 559.216 430.822 558.62 430.822H240.441C235.794 430.822 231.193 429.905 226.9 428.126C222.608 426.346 218.708 423.737 215.425 420.449C212.141 417.161 209.538 413.257 207.765 408.962C205.991 404.667 205.081 400.065 205.088 395.418V288.51C205.088 279.133 208.813 270.141 215.443 263.511C222.073 256.881 231.065 253.157 240.441 253.157H558.62C563.267 253.15 567.869 254.059 572.165 255.833C576.46 257.607 580.363 260.21 583.651 263.493C586.939 266.777 589.548 270.676 591.328 274.969C593.108 279.262 594.024 283.863 594.024 288.51Z" fill="#A6A9B3"/>
    <path d="M314.26 253.106C291.271 265.813 240.645 297.893 205.039 350.347V288.51C205.039 279.129 208.762 270.131 215.391 263.493C222.019 256.855 231.011 253.119 240.392 253.106H314.26Z" fill="black" opacity="0.1"/>
    <path d="M525.429 326.641H273.633C260.501 326.641 249.855 337.286 249.855 350.418V407.044C249.855 420.176 260.501 430.821 273.633 430.821H525.429C538.561 430.821 549.206 420.176 549.206 407.044V350.418C549.206 337.286 538.561 326.641 525.429 326.641Z" fill="#454C5E"/>
    <path d="M522.65 469.649L509.63 386.822C508.256 378.074 503.004 371.883 496.953 371.883H302.096C296.036 371.883 290.804 378.074 289.43 386.822L276.41 469.649C274.501 481.77 280.703 493.386 289.087 493.386H509.973C518.357 493.386 524.559 481.78 522.65 469.649Z" fill="#DADBE0"/>
    <path d="M521.065 292.974C525.427 292.974 528.964 289.438 528.964 285.075C528.964 280.713 525.427 277.177 521.065 277.177C516.702 277.177 513.166 280.713 513.166 285.075C513.166 289.438 516.702 292.974 521.065 292.974Z" fill="#F7F8FC"/>
    <path d="M552.642 296.54C558.974 296.54 564.107 291.407 564.107 285.075C564.107 278.744 558.974 273.611 552.642 273.611C546.311 273.611 541.178 278.744 541.178 285.075C541.178 291.407 546.311 296.54 552.642 296.54Z" fill="#066FD1"/>
    <path d="M445.126 397.377H316.975C316.608 397.377 316.245 397.298 315.911 397.144C315.577 396.99 315.28 396.766 315.041 396.487C314.802 396.207 314.626 395.88 314.526 395.526C314.426 395.172 314.403 394.801 314.46 394.438L314.864 391.892C314.958 391.293 315.263 390.747 315.725 390.352C316.186 389.958 316.773 389.741 317.38 389.741H444.752C445.359 389.741 445.946 389.958 446.407 390.352C446.868 390.747 447.173 391.293 447.267 391.892L447.661 394.438C447.718 394.803 447.695 395.176 447.594 395.531C447.493 395.886 447.315 396.215 447.074 396.494C446.833 396.774 446.533 396.998 446.197 397.15C445.861 397.303 445.495 397.38 445.126 397.377Z" fill="white"/>
    <path d="M467.994 421.337H313.268C312.893 421.337 312.521 421.255 312.181 421.095C311.841 420.936 311.54 420.703 311.3 420.413C311.061 420.123 310.888 419.784 310.796 419.42C310.703 419.056 310.692 418.675 310.763 418.306L311.228 415.761C311.335 415.174 311.644 414.643 312.101 414.261C312.559 413.879 313.137 413.67 313.733 413.67H467.59C468.197 413.67 468.784 413.887 469.245 414.281C469.706 414.676 470.011 415.222 470.105 415.821L470.509 418.367C470.571 418.732 470.552 419.107 470.454 419.464C470.356 419.822 470.181 420.153 469.942 420.436C469.702 420.719 469.404 420.946 469.068 421.102C468.731 421.257 468.365 421.337 467.994 421.337Z" fill="white"/>
    <path d="M173.968 216.076C173.377 216.704 172.731 217.279 172.039 217.793C171.628 218.06 171.199 218.3 170.756 218.51C166.716 220.531 162.251 219.521 160.847 216.369C159.575 213.531 161.181 209.925 164.373 207.793C164.743 207.523 165.139 207.29 165.554 207.096L166.797 206.591C170.463 205.389 174.201 206.399 175.473 209.238C176.574 211.319 175.807 213.975 173.968 216.076Z" fill="#FFCB9D"/>
    <path d="M173.967 216.076C173.376 216.704 172.73 217.279 172.038 217.793C169.758 214.257 167.194 210.913 164.371 207.793C164.742 207.523 165.137 207.29 165.553 207.096L166.795 206.591C170.462 205.389 174.199 206.399 175.472 209.238C176.573 211.319 175.805 213.975 173.967 216.076Z" fill="black" opacity="0.1"/>
    <path d="M252.128 245.934L202.634 254.076L201.088 254.328C194.395 272.146 187.715 289.961 181.048 307.772L172.654 306.479L177.705 245.237L215.078 229.278L230.805 222.036L251.462 245.197C251.694 245.45 251.906 245.672 252.128 245.934Z" fill="#066FD1"/>
    <path d="M251.462 245.197L203.028 253.177C202.917 253.47 202.806 253.783 202.685 254.076L201.139 254.328C194.446 272.146 187.766 289.961 181.099 307.772L172.705 306.479L177.756 245.237L215.129 229.278L230.856 222.036L251.462 245.197Z" fill="black" opacity="0.1"/>
    <path d="M191.774 257.046L228.087 235.48L232.845 230.248C232.562 227.554 232.272 224.83 231.976 222.076L265.309 244.652C264.115 248.375 262.169 251.813 259.592 254.753C254.087 260.955 247.279 262.833 240.521 264.641C231.694 266.944 222.503 267.503 213.461 266.288C208.283 283.54 203.104 300.799 197.926 318.065L190.391 315.944C190.849 296.288 191.31 276.655 191.774 257.046Z" fill="#066FD1"/>
    <path d="M182.262 336.287L197.413 328.004C197.413 328.004 196.352 323.327 193.302 322.762C190.252 322.196 183.322 331.125 182.262 336.287Z" fill="#454C5E"/>
    <path d="M161.422 320.328L178.674 319.812C178.674 319.812 179.866 315.166 177.412 313.287C174.957 311.408 164.725 316.186 161.422 320.328Z" fill="#454C5E"/>
    <path d="M284.451 189.622C284.178 190.834 283.895 192.046 283.602 193.248C281.277 202.966 278.38 212.538 274.926 221.914C271.896 230.248 268.572 237.793 265.269 244.621C255.967 242.249 247.267 237.947 239.734 231.995C236.163 229.153 232.89 225.954 229.967 222.45C230.704 216.692 231.754 210.45 233.239 203.824C234.603 197.763 236.169 192.066 237.805 186.915C233.559 191.346 229.088 195.557 224.411 199.531C222.519 201.127 220.546 202.726 218.492 204.329C213.856 207.925 209.26 211.116 204.795 213.935C197.45 218.59 189.773 222.698 181.826 226.227L165.189 202.632C191.846 196.066 210.765 187.309 217.048 182.258C227.148 174.177 229.169 171.268 229.169 171.268C230.275 169.597 231.67 168.136 233.29 166.955C234.98 165.754 236.862 164.849 238.855 164.278C242.458 163.327 246.237 163.25 249.876 164.056C261.3 166.076 268.461 166.076 275.895 167.531C280.532 168.44 283.905 169.107 286.219 169.733C287.552 169.975 288.813 170.518 289.905 171.319C290.437 171.853 290.877 172.471 291.208 173.147C294.239 179.43 285.128 188.925 284.451 189.622Z" fill="#DADBE0"/>
    <path d="M248.553 124.026C248.553 126.309 248.553 129.663 248.603 133.875C248.603 134.743 248.664 135.612 248.704 135.895C249.004 140.442 249.855 144.936 251.24 149.278L252.25 151.753C253.512 154.662 264.017 158.753 273.381 158.228C282.744 157.703 286.512 148.864 282.704 144.794C281.4 143.14 280.398 141.27 279.744 139.268C278.772 136.638 278.002 133.936 277.441 131.188C277.078 129.592 276.886 128.592 276.886 128.592L269.926 121.925L252.331 121.016C252.331 123.986 251.482 126.016 250.512 126.127C249.543 126.238 248.634 124.43 248.492 124.026" fill="#FFCB9D"/>
    <path d="M248.553 124.026C248.553 126.309 248.553 129.663 248.603 133.875C248.603 134.743 248.664 135.612 248.704 135.895C249.004 140.442 249.855 144.937 251.24 149.279C252.379 148.99 253.45 148.478 254.391 147.774C255.458 146.992 256.334 145.981 256.957 144.814C257.638 143.62 258.109 142.319 258.351 140.966C258.615 140.094 258.784 139.197 258.856 138.289C265.449 140.871 272.711 141.201 279.512 139.228C278.546 136.596 277.779 133.895 277.219 131.147C276.856 129.552 276.653 128.562 276.653 128.562L269.694 121.895L252.189 120.976C252.189 123.945 251.341 125.976 250.371 126.026C249.401 126.077 248.674 124.37 248.553 124.006" fill="black" opacity="0.1"/>
    <path d="M246.147 127.683C246.023 131.33 247.299 134.886 249.712 137.622C250.218 138.1 250.697 138.606 251.147 139.137C252.258 140.691 252.953 142.502 253.167 144.4C254.044 143.452 254.605 142.256 254.773 140.976C254.789 138.969 254.657 136.963 254.379 134.976C254.401 134.879 254.401 134.779 254.379 134.683C254.347 134.394 254.347 134.103 254.379 133.814C254.379 132.865 254.45 131.925 254.52 131.077V130.976C258.844 133.895 271.136 141.188 280.005 135.218C281.367 134.271 282.605 133.158 283.692 131.905C283.806 131.82 283.894 131.705 283.944 131.572C284.202 131.26 284.425 130.921 284.611 130.562L284.722 130.481C285.259 129.567 285.67 128.585 285.944 127.562L286.015 127.188C286.175 126.063 286.071 124.916 285.712 123.838C285.352 122.76 284.747 121.78 283.944 120.976C281.704 118.824 279.079 117.11 276.207 115.926C268.914 112.542 257.611 111.168 250.864 117.542C249.144 119.196 247.866 121.255 247.147 123.532C246.537 124.856 246.194 126.287 246.137 127.744" fill="#454C5E"/>
    <path d="M254.5 130.976C258.824 133.895 271.116 141.188 279.985 135.218C281.346 134.271 282.585 133.158 283.672 131.905C283.786 131.82 283.874 131.704 283.924 131.572C284.182 131.26 284.405 130.921 284.591 130.561L284.702 130.481C285.239 129.567 285.65 128.585 285.924 127.562C283.831 129.416 281.441 130.905 278.854 131.966C266.127 137.107 253.48 129.178 251.531 127.854L251.369 127.723C252.305 128.9 253.342 129.992 254.47 130.986" fill="black" opacity="0.5"/>
    <path d="M272.319 165.784C269.072 168.433 265.085 170.013 260.905 170.309H260.42L254.764 164.511L272.319 165.784Z" fill="#FFCB9D"/>
    <path d="M262.46 169.238L253.217 160.491L250.551 162.693L256.116 174.056L262.46 169.238Z" fill="#066FD1"/>
    <path d="M263.037 169.218L279.885 161.642L282.986 165.379L270.502 177.713L263.037 169.218Z" fill="#066FD1"/>
    <path d="M262.46 169.238L253.217 160.491L250.551 162.693L256.116 174.056L262.46 169.238Z" fill="black" opacity="0.1"/>
    <path d="M363.228 174.42C363.822 175.041 364.475 175.602 365.178 176.097C365.597 176.357 366.032 176.59 366.481 176.794C370.572 178.662 375.117 177.602 376.582 174.42C377.885 171.551 376.269 167.976 373.036 165.915C372.658 165.654 372.256 165.431 371.834 165.248L370.511 164.774C366.784 163.662 362.986 164.774 361.683 167.632C360.622 169.733 361.42 172.369 363.228 174.42Z" fill="#FFCB9D"/>
    <path d="M363.228 174.42C363.822 175.041 364.475 175.602 365.178 176.097C367.513 172.5 370.13 169.095 373.006 165.915C372.628 165.654 372.225 165.431 371.804 165.248L370.511 164.774C366.784 163.662 362.986 164.774 361.683 167.632C360.622 169.733 361.42 172.369 363.228 174.42Z" fill="black" opacity="0.1"/>
    <path d="M371.651 160.865L351.691 189.682C342.763 183.991 332.579 180.568 322.025 179.713C315.601 179.218 305.581 178.47 295.055 184.117C290.736 186.437 286.869 189.516 283.641 193.208C282.924 194.016 282.318 194.773 281.793 195.46C276.409 190.501 275.52 186.582 275.581 184.046C275.702 178.996 279.763 174.016 286.217 169.693C291.645 166.201 297.493 163.412 303.621 161.39C313.535 157.99 323.865 155.952 334.328 155.329C335.843 155.248 337.358 155.198 338.833 155.188C350.019 155.157 361.125 157.078 371.651 160.865Z" fill="#DADBE0"/>
    <path d="M478.741 140.844L485.902 128.41C486.078 128.101 486.129 127.736 486.044 127.39C485.96 127.045 485.746 126.745 485.448 126.551L473.922 119.067C473.72 118.934 473.556 118.752 473.445 118.537C473.335 118.322 473.282 118.082 473.292 117.841C473.302 117.6 473.375 117.365 473.503 117.16C473.632 116.955 473.811 116.787 474.023 116.673L498.549 103.42C498.838 103.264 499.173 103.214 499.495 103.281C499.818 103.348 500.106 103.526 500.309 103.785C500.512 104.044 500.617 104.366 500.606 104.695C500.594 105.024 500.466 105.338 500.245 105.582L492.559 114.097C492.434 114.241 492.341 114.409 492.284 114.591C492.227 114.772 492.208 114.964 492.228 115.153C492.248 115.342 492.306 115.525 492.4 115.691C492.493 115.857 492.619 116.002 492.771 116.117L506.215 125.955C506.402 126.094 506.551 126.276 506.649 126.487C506.748 126.697 506.792 126.929 506.778 127.16C506.764 127.392 506.692 127.617 506.569 127.814C506.446 128.011 506.276 128.174 506.074 128.289L480.609 142.743C480.345 142.889 480.04 142.944 479.742 142.9C479.443 142.856 479.167 142.716 478.956 142.501C478.744 142.286 478.609 142.008 478.57 141.709C478.531 141.41 478.591 141.106 478.741 140.844Z" fill="#066FD1"/>
    <path d="M505.791 157.016L512.993 151.137C513.173 150.994 513.29 150.786 513.321 150.559C513.351 150.331 513.291 150.1 513.155 149.915L507.882 142.723C507.793 142.596 507.737 142.447 507.721 142.293C507.705 142.138 507.729 141.981 507.791 141.838C507.853 141.695 507.95 141.57 508.074 141.476C508.198 141.382 508.344 141.321 508.499 141.299L526.387 138.966C526.599 138.935 526.816 138.98 526.997 139.095C527.178 139.209 527.313 139.384 527.376 139.589C527.439 139.794 527.428 140.015 527.343 140.211C527.258 140.408 527.105 140.568 526.913 140.662L520.296 144.026C520.184 144.083 520.085 144.164 520.006 144.262C519.926 144.36 519.869 144.474 519.836 144.596C519.804 144.718 519.798 144.845 519.818 144.97C519.838 145.094 519.884 145.213 519.953 145.319L525.801 154.41C525.882 154.536 525.93 154.681 525.941 154.831C525.951 154.98 525.924 155.13 525.862 155.267C525.8 155.404 525.704 155.522 525.584 155.613C525.464 155.703 525.324 155.762 525.175 155.784L506.458 158.632C506.259 158.663 506.055 158.626 505.878 158.528C505.702 158.429 505.565 158.273 505.488 158.087C505.411 157.9 505.399 157.693 505.454 157.499C505.509 157.304 505.628 157.134 505.791 157.016Z" fill="#066FD1"/>
    <path d="M334.291 155.4C330.424 158.322 325.989 160.404 321.271 161.511C313.948 163.41 307.129 163.258 303.584 161.43C313.5 158.041 323.83 156.012 334.291 155.4Z" fill="#454C5E"/>
    <path d="M224.411 199.531C222.519 201.127 220.546 202.726 218.492 204.329C213.856 207.925 209.26 211.116 204.795 213.935C204.735 213.834 204.674 213.733 204.623 213.632C202.937 210.207 206.836 204.834 213.341 201.622C217.391 199.622 221.492 198.935 224.411 199.531Z" fill="#454C5E"/>
    <path d="M283.644 193.248C281.318 202.966 278.421 212.538 274.967 221.914C271.937 230.247 268.614 237.793 265.311 244.621C256.008 242.249 247.308 237.947 239.775 231.995C236.204 229.152 232.932 225.954 230.008 222.45C230.008 222.45 252.806 230.177 283.644 193.248Z" fill="black" opacity="0.1"/>
    <path d="M538.75 264.449C543.04 264.449 546.518 259.882 546.518 254.247C546.518 248.613 543.04 244.045 538.75 244.045C534.46 244.045 530.982 248.613 530.982 254.247C530.982 259.882 534.46 264.449 538.75 264.449Z" fill="#FFCB9D"/>
    <path d="M594.025 362.287V395.418C594.035 404.504 590.547 413.245 584.284 419.828C578.021 426.411 569.464 430.33 560.389 430.771C583.823 410.953 567.267 365.024 567.267 365.024L593.247 361.741L594.025 362.287Z" fill="black" opacity="0.1"/>
    <path d="M638.576 325.378C638.243 326.792 637.859 328.196 637.435 329.59C637.364 329.802 637.304 330.024 637.233 330.236C634.142 340.034 627.334 354.155 612.385 362.974C597.153 371.943 574.001 375.196 568.527 367.963C567.478 366.335 566.978 364.414 567.098 362.48C567.217 360.547 567.952 358.703 569.193 357.216C571.739 354.489 575.941 354.762 581.032 354.428L582.415 354.327L583.425 354.236C587.046 353.888 590.638 353.284 594.173 352.428C595.567 352.095 596.87 351.751 598.062 351.418C600.435 350.748 602.755 349.901 605.001 348.883C609.041 346.933 613.445 342.762 616.395 333.348C617.382 330.131 618.115 326.841 618.587 323.509V323.307C623.986 323.248 629.379 323.688 634.698 324.62C636.021 324.822 637.314 325.085 638.576 325.378Z" fill="#FFCB9D"/>
    <path d="M638.58 325.378C638.246 326.792 637.863 328.196 637.438 329.59C628.681 327.57 621.176 330.499 616.348 333.327C617.335 330.11 618.068 326.821 618.54 323.489V323.287C623.939 323.228 629.332 323.667 634.651 324.6C636.024 324.822 637.317 325.085 638.58 325.378Z" fill="black" opacity="0.1"/>
</svg>
