<svg xmlns="http://www.w3.org/2000/svg" width="800" height="600" fill="none" viewBox="0 0 800 600">
    <path d="M113.685 299.973C113.685 347.004 163.376 381.099 185.38 419.062C208.11 458.356 213.55 518.082 252.723 540.811C290.686 562.816 344.73 538.152 391.761 538.152C438.792 538.152 492.836 562.695 530.799 540.811C569.972 518.082 575.412 458.235 598.142 419.062C620.146 381.099 669.837 347.004 669.837 299.973C669.837 252.942 620.146 218.847 598.142 180.884C575.533 141.711 569.972 81.8645 530.799 59.1347C492.715 37.1304 438.671 61.7946 391.64 61.7946C344.609 61.7946 290.565 37.1304 252.602 59.1347C213.429 81.8645 207.989 141.711 185.259 180.884C163.376 218.847 113.685 252.942 113.685 299.973Z" fill="black" opacity="0.07"/>
    <path d="M119.125 508.047C119.125 510.828 206.538 513.004 314.383 513.004C422.228 513.004 509.641 510.828 509.641 508.047C509.641 505.266 422.228 503.09 314.383 503.09C206.538 503.09 119.125 505.266 119.125 508.047Z" fill="#1D2535" opacity="0.5"/>
    <path d="M422.954 138.81H643.481C650.614 138.81 656.538 144.613 656.538 151.867V165.892C656.538 173.025 650.735 178.949 643.481 178.949H422.954C415.821 178.949 409.896 173.146 409.896 165.892V151.746C409.896 144.613 415.7 138.81 422.954 138.81Z" fill="#A7AAB3"/>
    <path d="M559.211 198.898H694.259C698.612 198.898 702.239 202.525 702.239 206.878V215.462C702.239 219.814 698.612 223.442 694.259 223.442H559.211C554.859 223.442 551.231 219.814 551.231 215.462V206.878C551.231 202.405 554.859 198.898 559.211 198.898Z" fill="#066FD1"/>
    <path d="M491.627 245.083H580.128C583.271 245.083 585.81 247.622 585.81 250.766V258.262C585.81 261.405 583.271 263.944 580.128 263.944H491.627C488.483 263.944 485.944 261.405 485.944 258.262V250.766C485.944 247.622 488.483 245.083 491.627 245.083Z" fill="#DADBE0"/>
    <path d="M529.832 332.012L532.008 344.223C532.612 347.488 530.436 350.631 527.172 351.236C527.172 351.236 527.172 351.236 527.051 351.236L447.134 365.502C443.87 366.107 440.726 363.931 440.122 360.545L437.946 348.334C437.341 345.07 439.517 341.926 442.782 341.322C442.782 341.322 442.782 341.322 442.903 341.322L522.819 327.055C526.084 326.451 529.227 328.627 529.832 332.012C529.832 331.891 529.832 331.891 529.832 332.012Z" fill="#A7AAB3"/>
    <path d="M686.159 533.074C686.159 537.184 673.706 540.932 652.911 543.955H652.669C645.536 544.922 637.314 545.889 628.368 546.615L619.904 547.34L616.398 547.582L609.507 548.066C602.495 548.549 595.24 548.912 587.623 549.154C577.226 549.516 566.345 549.758 554.98 549.879H554.859H552.078H544.219C540.471 549.879 536.723 549.879 533.096 549.879H527.535H527.414L521.127 549.758C509.883 549.516 499.244 549.154 489.088 548.67C479.778 548.187 471.073 547.582 462.852 546.977L457.048 546.494C423.8 543.35 402.4 538.635 402.4 533.195C402.4 528.117 421.624 523.401 451.85 520.379L457.532 519.774C465.391 519.049 473.854 518.444 482.801 517.961C492.11 517.356 501.903 516.994 512.18 516.752C514.961 516.631 517.863 516.631 520.764 516.51L524.27 516.389H526.568C532.371 516.268 538.295 516.268 544.34 516.268H546.154H553.045H558.728C569.73 516.389 580.248 516.752 590.404 517.115C597.9 517.477 605.154 517.84 612.167 518.324L613.376 518.444L614.464 518.565L620.993 519.049L622.202 519.17L627.884 519.653L630.544 519.895C636.589 520.5 642.272 521.104 647.47 521.709C671.409 524.49 686.159 528.6 686.159 533.074Z" fill="#454C5E"/>
    <path d="M378.583 242.665C379.912 241.94 381.242 241.335 382.693 240.973C387.892 239.643 392.849 241.093 394.784 245.083C397.202 250.282 394.058 257.415 387.529 261.163C386.804 261.526 386.079 261.889 385.353 262.251C379.55 264.67 373.505 263.219 371.328 258.745C368.91 253.546 372.175 246.413 378.583 242.665Z" fill="#FFCB9D"/>
    <path d="M378.582 242.665C379.912 241.94 381.242 241.335 382.693 240.973C382.935 241.577 383.056 242.061 383.298 242.544C385.595 249.557 383.902 253.305 385.232 261.163C385.232 261.526 385.353 261.889 385.474 262.131C379.671 264.549 373.625 263.098 371.449 258.624C368.91 253.546 372.175 246.413 378.582 242.665Z" fill="black" opacity="0.1"/>
    <path d="M402.764 281.596C366.855 285.948 330.705 288.366 294.556 288.729C287.543 288.85 280.773 288.85 273.881 288.729C276.42 303.237 278.959 317.746 281.619 332.254C283.191 341.201 284.762 350.148 286.334 358.974H286.213L245.469 360.424H244.139C230.114 360.908 216.09 361.392 201.944 361.875V354.621C202.307 331.529 202.911 319.317 203.395 288.245V287.883C203.516 285.344 203.516 282.805 203.516 280.145L200.856 281.233C199.768 281.838 198.317 282.563 196.624 283.409C196.02 283.772 195.415 284.135 194.932 284.497V263.944C197.954 262.977 200.977 262.251 204.12 261.647L205.329 261.405H205.813C209.198 260.921 212.583 260.438 215.727 260.196C223.706 259.471 231.686 259.35 239.666 259.833C247.283 260.317 254.899 261.405 262.395 263.219C264.33 263.702 266.264 264.186 268.078 264.79C269.408 265.274 269.529 265.274 270.254 265.516C272.309 266.12 274.486 266.483 276.541 266.604C283.916 266.846 291.291 265.878 298.304 263.702C333.244 251.975 375.319 236.378 375.319 236.378C374.714 245.567 377.132 251.128 379.308 254.514C382.452 259.35 386.079 260.921 391.036 265.758C391.761 266.483 392.487 267.208 393.212 268.055C397.202 272.045 400.345 276.639 402.764 281.596Z" fill="#DADBE0"/>
    <path d="M402.764 281.596C366.856 285.948 330.706 288.366 294.556 288.729C318.736 283.772 366.13 272.165 391.278 265.878C392.003 266.604 392.729 267.329 393.454 268.176C397.202 272.165 400.346 276.639 402.764 281.596Z" fill="black" opacity="0.1"/>
    <path d="M213.551 264.549C213.551 273.616 224.311 280.991 237.49 280.991C250.668 280.991 261.428 273.737 261.428 264.549C261.428 264.065 261.428 263.581 261.307 263.098C253.811 261.284 246.195 260.196 238.457 259.713C230.477 259.229 222.377 259.35 214.397 260.075C213.793 261.526 213.551 262.977 213.551 264.549Z" fill="#FFCB9D"/>
    <path d="M286.213 358.974C279.564 399.234 272.914 439.616 266.144 479.876C263.484 480.844 260.703 481.811 258.043 482.778C257.197 478.426 256.35 473.952 255.625 469.479C250.91 443.847 246.195 418.216 241.479 392.585L232.774 455.091L229.147 480.965L218.871 483.383L215.485 459.323L201.823 362.117L286.213 358.974Z" fill="#066FD1"/>
    <path d="M286.213 359.095L245.469 360.545H244.139C230.114 361.029 216.09 361.513 201.944 361.996V354.742C202.307 331.65 202.911 319.438 203.395 288.366V288.004C203.516 285.465 203.516 282.926 203.516 280.266L200.856 281.354C199.647 281.959 198.317 282.563 196.624 283.53C196.02 283.893 195.415 284.256 194.932 284.498V263.944C197.954 262.977 200.977 262.251 204.12 261.647C216.09 267.45 229.026 273.133 242.93 278.332C253.569 282.321 263.846 285.707 273.76 288.608C277.992 312.184 282.103 335.519 286.213 359.095Z" fill="black" opacity="0.1"/>
    <path d="M229.268 481.085L245.832 360.424L201.823 362.117L218.991 483.503L229.268 481.085Z" fill="black" opacity="0.1"/>
    <path d="M215.969 506.112L217.057 499.1C217.057 499.1 217.057 492.209 221.288 490.879C225.52 489.549 237.731 500.793 240.875 508.047L226.245 502.606L224.069 508.047L215.969 506.112Z" fill="#454C5E"/>
    <path d="M255.262 506.112L256.35 499.1C256.35 499.1 256.35 492.209 260.581 490.879C264.813 489.549 277.024 500.793 280.168 508.047L265.659 502.606L263.483 508.047L255.262 506.112Z" fill="#454C5E"/>
    <path d="M491.264 138.447C479.899 107.012 445.321 90.8111 413.886 102.055C382.452 113.42 366.251 147.998 377.495 179.433C382.21 192.611 391.519 203.855 403.61 210.989C403.489 211.23 403.368 211.351 403.247 211.593L356.941 310.129L343.158 339.508L340.982 344.223C339.894 346.641 340.861 349.422 343.279 350.631L345.093 351.478C347.511 352.566 350.292 351.598 351.501 349.18L355.732 340.113L368.306 313.393L413.766 216.671C413.886 216.429 413.886 216.187 414.007 215.946C445.442 227.19 480.02 210.868 491.264 179.433C495.979 166.254 495.979 151.746 491.264 138.447ZM481.592 181.126C469.381 207.241 438.309 218.364 412.194 206.152C386.079 193.941 374.956 162.869 387.167 136.754C399.378 110.639 430.45 99.5161 456.565 111.727C469.139 117.652 478.811 128.17 483.406 141.228C488.242 154.285 487.637 168.673 481.592 181.126Z" fill="#066FD1"/>
    <path d="M213.551 264.549C213.551 273.616 224.311 280.991 237.49 280.991C250.668 280.991 261.428 273.737 261.428 264.549C261.428 264.065 261.428 263.581 261.307 263.098C253.811 261.284 246.195 260.196 238.457 259.713C230.477 259.229 222.377 259.35 214.397 260.075C213.793 261.526 213.551 262.977 213.551 264.549Z" fill="black" opacity="0.1"/>
    <path d="M271.22 268.78C267.231 263.702 263.724 261.526 260.702 262.251C257.196 263.098 255.503 267.45 254.899 270.11C252.481 267.813 247.282 263.702 242.687 265.153C238.939 266.483 236.521 271.319 235.675 279.54C235.312 283.409 235.071 288.729 237.73 290.543C238.577 291.026 239.544 291.147 240.511 290.784C244.622 289.575 250.062 282.684 253.69 277.606C253.448 279.42 252.843 281.233 251.634 282.684C250.667 283.409 250.183 284.618 250.304 285.827C250.425 288.487 252.964 291.147 255.14 293.082L257.317 291.993C255.14 290.664 253.448 288.608 252.601 286.19V286.069C252.601 285.707 252.843 285.344 253.085 285.223C255.382 283.53 256.229 278.211 256.591 275.188C257.921 276.881 259.251 278.573 260.218 280.508C260.218 280.991 260.218 281.475 260.218 281.959C260.218 283.893 260.218 287.157 262.636 288.608C263.966 289.455 266.022 293.202 267.835 298.643L269.891 297.797C267.593 291.147 265.417 287.157 263.241 285.948C262.515 285.586 262.395 284.498 262.395 282.442C262.395 281.717 262.395 280.991 262.274 280.145C261.669 278.452 260.702 276.881 259.614 275.43C264.208 277.243 270.011 279.178 273.034 278.331C273.88 278.211 274.606 277.606 274.848 276.881C275.573 274.583 273.155 271.077 271.22 268.78ZM238.456 288.245C238.456 288.125 237.126 287.157 237.851 280.508C238.577 273.254 240.511 269.022 243.413 268.055H243.655C247.403 266.967 251.997 270.835 253.931 272.77C248.007 281.354 240.632 289.696 238.456 288.245ZM272.55 275.309C271.946 276.76 264.692 274.946 256.954 271.682C257.438 269.626 258.767 265.878 261.306 265.032H261.427C263.604 264.549 266.384 266.362 269.77 270.594C272.792 274.342 272.55 275.43 272.55 275.309Z" fill="#066FD1"/>
    <path d="M368.306 313.393L355.732 340.113C354.281 340.234 352.83 340.355 351.258 340.355C348.478 340.355 345.818 340.113 343.037 339.629L356.82 310.25C360.931 310.612 364.679 311.701 368.306 313.393Z" fill="black" opacity="0.1"/>
    <path d="M363.47 309.041C364.558 309.283 365.525 309.766 366.492 310.371C370.361 312.668 373.263 317.02 372.537 321.131C371.328 327.297 362.502 329.352 360.205 329.957C359.117 330.199 358.029 330.32 357.062 330.441C351.984 331.045 342.795 329.957 340.982 325.604C338.926 320.768 347.631 312.305 355.974 309.645C358.271 308.557 360.931 308.436 363.47 309.041Z" fill="#FFCB9D"/>
    <path d="M363.469 309.041C364.558 309.283 365.525 309.766 366.492 310.371C364.678 316.899 359.842 321.131 357.182 329.473L356.941 330.441C351.863 331.045 342.674 329.957 340.861 325.604C338.805 320.768 347.51 312.305 355.853 309.645C358.271 308.557 360.93 308.436 363.469 309.041Z" fill="black" opacity="0.1"/>
    <path d="M363.953 302.996C358.754 311.217 352.588 318.955 345.576 325.846C341.223 330.078 337.959 332.738 333.607 338.057C329.254 343.498 325.748 349.422 323.088 355.709C259.372 346.4 211.737 325.363 195.777 300.094C194.206 297.555 192.876 295.016 191.908 292.235C190.941 289.575 190.337 286.916 190.216 284.135C189.732 278.573 190.82 271.924 195.052 264.065C199.646 266.483 204.603 268.901 209.802 271.319C242.204 286.311 276.782 296.225 312.207 300.699C329.375 302.754 346.664 303.6 363.953 302.996Z" fill="#DADBE0"/>
    <path d="M249.459 248.952C237.731 247.259 225.762 240.731 221.288 235.895C220.563 235.169 219.958 234.202 219.596 233.114C219.354 231.784 219.112 230.454 218.87 229.124C218.628 227.19 218.387 225.255 218.387 223.321C218.145 218.364 218.266 213.286 218.991 208.329C218.991 207.966 219.233 206.757 219.475 205.306C220.563 199.019 221.53 194.062 222.256 190.556C222.376 191.161 223.223 193.82 224.553 193.941C225.883 194.062 227.938 191.281 228.663 186.808L254.657 193.337L263.121 205.427C263.121 205.427 263.121 206.999 263.242 209.538C263.362 213.769 263.725 218.122 264.451 222.233C264.813 225.376 265.781 228.52 267.352 231.421C271.947 238.796 263.604 251.007 249.459 248.952Z" fill="#FFCB9D"/>
    <path d="M264.451 222.474C253.69 223.562 242.93 221.023 233.741 215.22C231.082 214.857 228.422 215.341 226.004 216.429C222.497 218.122 221.893 220.54 218.749 223.2L218.508 223.442C218.266 218.485 218.508 213.407 219.112 208.45C219.112 208.087 219.354 206.878 219.596 205.427C220.684 199.14 221.651 194.183 222.377 190.677C222.497 191.281 223.344 193.941 224.674 194.062C226.004 194.183 228.059 191.402 228.784 186.929L254.779 193.458L263.242 205.548C263.242 205.548 263.242 207.12 263.242 209.659C263.363 213.89 263.725 218.243 264.451 222.474Z" fill="black" opacity="0.1"/>
    <path d="M277.024 203.855C276.782 205.427 276.057 206.999 274.969 208.208C272.672 210.747 269.77 212.681 266.506 213.89C252.239 219.089 236.401 205.185 232.048 201.075C229.993 203.976 226.245 205.669 225.399 207.724L224.552 209.417C223.585 211.956 222.981 214.737 222.981 217.517C222.981 220.056 223.102 222.595 223.223 225.134C223.464 228.882 223.948 232.751 224.552 236.499C227.091 251.491 215.847 269.022 204.241 277.848C201.339 280.024 198.317 281.838 195.052 283.288C176.433 291.873 157.693 286.795 150.802 284.86C142.822 282.563 127.83 278.09 113.443 265.878C107.156 260.438 101.594 254.151 97 247.259C99.539 239.643 102.924 232.388 107.156 225.618C109.211 222.353 111.387 219.21 113.805 216.308C125.049 202.525 139.8 192.128 156.484 186.083C155.154 190.072 151.89 201.8 157.33 213.528C165.189 230.454 187.193 238.796 193.239 233.597C197.349 230.091 190.579 223.079 193.843 212.077C200.009 191.402 228.905 184.874 230.839 184.511C235.192 183.544 251.756 180.037 265.659 189.347C269.286 191.523 277.871 197.206 277.024 203.855Z" fill="#454C5E"/>
    <path d="M274.848 208.208C272.551 210.747 269.649 212.681 266.385 213.89C252.118 219.089 236.159 205.185 231.927 201.075C230.598 199.019 229.509 196.964 228.663 194.667C240.874 206.515 258.163 211.593 274.848 208.208Z" fill="black" opacity="0.5"/>
    <path d="M439.88 450.376L438.429 442.517H436.374C429.966 464.159 423.558 485.801 417.15 507.442H423.075L439.88 450.376Z" fill="#454C5E"/>
    <path d="M509.52 450.376L507.586 442.517H506.014L498.881 466.335H504.805L509.52 450.376Z" fill="#454C5E"/>
    <path d="M503.112 472.018H497.188C493.561 483.866 489.934 495.594 486.307 507.321H491.989C495.737 495.594 499.364 483.745 503.112 472.018Z" fill="#454C5E"/>
    <path d="M533.096 550H527.534H527.414L524.27 534.162L523.182 528.479L520.764 516.389V516.268L512.059 472.018L511.092 467.061L510.971 466.456L508.553 454.003L507.827 450.497L505.288 444.935L504.2 442.638H511.938L517.379 470.204L526.446 516.268V516.389L533.096 550Z" fill="#A7AAB3"/>
    <path d="M462.852 546.977L457.049 546.494L451.971 520.258L451.85 519.412L439.034 453.882L438.309 450.376C437.825 447.716 437.221 445.056 436.737 442.517H442.541L447.256 466.335L448.344 472.018L457.533 519.049L457.653 519.774L459.346 528.479L460.434 534.162L462.852 546.977Z" fill="#A7AAB3"/>
    <path d="M524.995 528.479H455.355V534.162H524.995V528.479Z" fill="#A7AAB3"/>
    <path d="M512.301 466.335H442.661V472.018H512.301V466.335Z" fill="#A7AAB3"/>
    <path d="M208.231 281.838C206.901 284.498 204.966 286.795 202.548 288.487C199.526 290.664 195.778 291.994 192.03 292.235C191.062 289.575 190.458 286.916 190.337 284.135C193.239 281.233 196.019 275.672 195.173 264.065C199.767 266.483 204.724 268.901 209.923 271.319C210.407 274.946 209.802 278.573 208.231 281.838Z" fill="black" opacity="0.1"/>
    <path d="M204.362 277.727C201.46 279.903 198.438 281.717 195.173 283.168C176.554 291.752 157.814 286.674 150.923 284.739C142.943 282.442 127.951 277.969 113.564 265.758C107.277 260.317 101.715 254.03 97.1211 247.139C99.6601 239.522 103.045 232.268 107.277 225.497C116.828 247.985 135.689 264.186 157.452 267.692C173.532 270.231 195.536 266.725 208.11 252.942C215.122 245.325 220.2 233.356 223.223 225.255C223.465 229.003 223.948 232.872 224.553 236.62C227.213 251.37 215.969 268.901 204.362 277.727Z" fill="black" opacity="0.5"/>
    <path d="M495.375 356.918L476.272 360.304C476.635 354.017 479.537 349.06 483.889 348.213C488.242 347.367 492.957 351.115 495.375 356.918Z" fill="black" opacity="0.1"/>
    <path d="M484.131 349.18C478.328 346.883 471.92 353.17 469.744 363.084C469.26 365.502 469.018 367.92 469.139 370.338C469.381 377.472 472.162 383.396 476.514 385.089C482.318 387.386 488.725 381.099 490.902 371.185C491.627 368.041 491.748 364.898 491.385 361.754C490.66 355.588 488 350.631 484.131 349.18Z" fill="#FFCB9D"/>
    <path d="M491.264 361.633C486.186 362.601 481.35 364.172 476.634 366.349C473.975 367.558 471.436 368.888 469.018 370.338C469.259 377.472 472.04 383.396 476.393 385.089C482.196 387.386 488.604 381.099 490.78 371.185C491.505 368.041 491.626 364.898 491.264 361.633Z" fill="black" opacity="0.1"/>
    <path d="M647.349 521.467C646.261 516.994 644.931 512.037 643.722 507.08C638.281 485.801 632.115 462.708 630.302 459.081C626.917 452.311 618.332 448.2 618.332 448.2H601.648H598.988C597.779 447.958 596.57 447.474 595.603 446.87C593.668 445.54 592.217 443.485 591.734 441.188L566.344 440.583C565.256 441.429 564.168 442.155 562.959 442.88C558.244 445.661 553.045 447.354 547.725 448.079H540.834C537.448 446.628 534.305 444.935 531.282 443.001C517.016 433.45 510.971 419.788 506.618 409.39C500.573 394.882 497.671 379.164 498.155 363.447L455.355 389.199C456.323 396.937 458.257 404.433 461.038 411.687C472.886 442.397 500.694 466.094 531.403 475.403C535.03 476.491 538.658 477.337 542.285 478.063H542.405C542.647 479.997 542.768 482.053 543.01 483.987C543.494 488.219 543.856 492.45 544.219 496.682L546.153 516.147V516.268V516.51C546.637 521.588 547.121 526.666 547.604 531.744C547.604 532.227 547.725 532.711 547.725 533.315L547.846 534.524C548.33 539.361 548.813 544.197 549.297 548.912C549.297 549.275 549.297 549.637 549.418 549.879H552.199H555.1H555.221C566.465 549.758 577.467 549.516 587.865 549.154C595.482 548.912 602.736 548.549 609.748 548.066C610.111 543.35 610.595 538.756 610.957 534.162C611.441 528.963 611.683 525.215 611.925 522.676C612.045 521.709 612.046 520.983 612.166 520.258L620.146 547.34L628.609 546.615L652.911 543.955H653.152C652.911 543.955 650.613 534.283 647.349 521.467Z" fill="#066FD1"/>
    <path d="M611.683 522.676C611.441 525.215 611.199 528.842 610.716 534.162C610.353 538.756 609.869 543.471 609.507 548.066C602.494 548.549 595.24 548.912 587.623 549.154C577.226 549.516 566.344 549.758 554.979 549.879H554.858H552.078H549.297C549.297 549.516 549.297 549.275 549.176 548.912C548.934 546.373 548.572 542.988 548.33 540.811C548.209 539.119 547.967 536.701 547.725 534.525C547.725 534.162 547.604 533.799 547.604 533.315C547.604 532.711 547.483 532.227 547.483 531.744C570.334 534.887 592.459 530.051 611.683 522.676Z" fill="black" opacity="0.1"/>
    <path d="M652.911 543.955H652.669L628.368 546.615L619.904 547.34C617.486 538.998 615.068 530.777 612.529 522.434C615.431 521.467 618.212 520.258 620.872 518.807C629.577 513.608 636.589 505.991 640.821 496.803C642.997 505.024 645.052 513.246 647.107 521.467C649.163 528.963 651.097 536.459 652.911 543.955Z" fill="black" opacity="0.1"/>
    <path d="M531.403 475.403C500.694 466.094 473.007 442.276 461.038 411.687C458.257 404.433 456.323 396.937 455.355 389.199C455.355 389.199 489.571 459.927 531.403 475.403Z" fill="black" opacity="0.1"/>
    <path d="M615.432 395.97C613.981 399.113 611.684 403.708 608.903 409.148L607.452 411.808C604.067 417.853 599.956 423.294 595.241 428.372C594.274 429.339 593.307 430.306 592.46 431.153C588.833 434.296 571.907 432.845 559.454 426.196C547.001 419.546 547.726 404.917 555.585 401.894C558.487 400.443 560.905 398.751 563.202 396.333C565.378 394.277 567.312 392.101 569.247 389.804C570.093 388.837 570.819 387.869 571.665 386.781C573.116 384.847 574.083 383.638 574.083 383.638L587.866 379.164L612.288 389.32C612.288 389.441 612.167 389.441 612.167 389.562C611.079 391.859 610.596 393.915 610.596 395.365C610.596 396.453 610.958 397.179 611.321 397.542C612.288 398.146 614.223 396.937 614.948 396.333C615.069 396.333 615.069 396.212 615.19 396.212C615.311 395.97 615.432 395.97 615.432 395.97Z" fill="#FFCB9D"/>
    <path d="M615.431 395.97C613.98 399.113 611.683 403.708 608.902 409.148L607.452 411.808C604.066 417.853 599.956 423.294 595.24 428.372C593.91 427.284 592.701 425.712 591.855 424.261C590.888 422.568 590.404 420.634 590.162 418.7C590.162 416.644 590.283 414.468 590.767 412.534C591.13 411.204 591.251 409.995 591.855 408.665C588.228 408.423 582.667 407.577 576.5 404.917C570.334 402.257 565.982 398.751 563.201 396.212C565.377 394.156 567.312 391.98 569.246 389.683C570.334 388.474 571.06 387.628 571.664 386.902C571.785 386.66 574.082 383.759 574.082 383.759L587.865 379.285L612.167 389.441H612.288C611.2 391.738 610.716 393.673 610.716 395.124C610.716 396.333 610.958 397.179 611.441 397.542C612.409 398.146 614.343 396.695 615.068 396.091C615.189 396.091 615.189 395.97 615.31 395.97H615.431Z" fill="black" opacity="0.1"/>
    <path d="M558.97 367.8C559.091 371.306 560.421 374.087 562.597 376.142C562.234 382.671 564.169 387.023 565.499 389.32C571.544 399.718 586.657 404.675 603.22 401.048V401.29V401.411C602.737 402.74 602.132 404.07 601.649 405.159C601.407 405.763 601.286 405.884 601.044 406.368L600.802 406.73C599.11 409.269 597.659 411.929 596.329 414.71C595.724 416.402 595.845 418.337 596.45 420.271C597.901 417.732 600.198 415.798 602.737 414.347C603.704 413.984 604.671 413.501 605.638 413.38C610.837 411.204 614.706 407.214 617.003 402.257C617.366 401.531 617.487 400.927 617.729 400.081H617.97C622.927 399.96 627.159 395.849 627.038 390.65C626.917 386.66 624.257 383.396 620.751 382.066C622.081 380.132 622.807 377.834 622.807 375.296C622.686 368.767 617.366 363.689 610.837 363.81C608.54 363.81 606.485 364.414 604.671 365.623C603.946 359.82 598.868 355.347 592.944 355.467C587.745 355.588 583.392 358.853 581.941 363.689C580.37 359.095 575.896 355.709 570.697 355.83C563.927 355.951 558.849 361.271 558.97 367.8Z" fill="#454C5E"/>
    <path d="M562.596 376.142C562.234 382.671 564.168 387.023 565.498 389.32C571.543 399.718 586.656 404.675 603.22 401.048V401.29V401.41C605.396 400.806 607.572 399.839 609.386 399.113H609.144C605.517 399.355 583.271 402.015 569.367 386.781C566.586 383.638 564.168 380.011 562.596 376.142Z" fill="black" opacity="0.5"/>
</svg>
