<svg xmlns="http://www.w3.org/2000/svg" width="800" height="600" fill="none" viewBox="0 0 800 600">
    <path d="M172 307.402C172 345.953 212.77 374.007 230.841 405.211C249.412 437.416 253.945 486.464 286.043 505.131C317.223 523.19 361.631 503.008 400.182 503.008C438.733 503.008 483.141 523.19 514.333 505.131C546.419 486.56 550.963 437.416 569.535 405.211C587.594 374.031 628.376 346.072 628.376 307.402C628.376 268.731 587.499 240.796 569.535 209.592C550.963 177.387 546.419 128.255 514.333 109.684C483.141 91.6127 438.733 111.795 400.182 111.795C361.631 111.795 317.223 91.6127 286.043 109.684C253.838 128.255 249.412 177.399 230.841 209.592C212.77 240.879 172 268.838 172 307.402Z" fill="black" opacity="0.07"/>
    <path d="M257.988 556.243C257.988 558.282 328.757 560 415.998 560C503.239 560 574.008 558.282 574.008 556.243C574.008 554.203 503.239 552.569 415.998 552.569C328.757 552.569 257.988 554.275 257.988 556.243Z" fill="#1D2535" opacity="0.5"/>
    <path d="M342.559 556.279L324.667 555.193C324.667 555.193 323.808 550.601 326.444 548.883C329.08 547.166 339.35 552.128 342.511 556.279" fill="#454C5E"/>
    <path d="M305.773 556.279L287.881 555.193C287.881 555.193 287.01 550.601 289.658 548.883C292.306 547.166 302.553 552.128 305.714 556.279" fill="#454C5E"/>
    <path d="M333.352 541.858C330.871 542.06 328.402 542.251 325.921 542.43C321.086 515.584 316.259 488.73 311.44 461.869C306.478 489.223 301.504 516.578 296.519 543.933L289.231 542.251C287.752 505.76 286.265 469.264 284.77 432.764L316.45 433.957L331.837 434.53C332.338 470.298 332.843 506.074 333.352 541.858Z" fill="#DADBE0"/>
    <path d="M333.351 541.858C330.87 542.06 328.401 542.251 325.92 542.43C321.085 515.584 316.258 488.73 311.439 461.869L316.449 433.933L331.836 434.506C332.337 470.29 332.842 506.074 333.351 541.858Z" fill="black" opacity="0.1"/>
    <path d="M405.051 360.04C405.363 359.099 405.849 358.225 406.483 357.463C408.51 354.517 411.659 353.265 414.319 354.481C417.755 356.032 419.186 360.97 417.433 365.682C417.263 366.19 417.031 366.674 416.741 367.125C414.773 370.799 411.159 372.636 408.165 371.24C404.837 369.677 403.393 364.644 405.051 360.04Z" fill="#FFCB9D"/>
    <path d="M405.05 360.04C405.361 359.099 405.847 358.225 406.481 357.463C407.745 358.549 408.711 359.431 409.403 360.028C411.324 361.698 412.075 362.306 413.196 363.415C414.091 364.298 414.771 365.061 415.224 365.562L416.25 366.636L416.81 367.006C414.854 370.691 411.228 372.528 408.246 371.133C404.835 369.677 403.392 364.644 405.05 360.04Z" fill="black" opacity="0.1"/>
    <path d="M401.734 358.322C396.401 363.712 390.525 368.537 384.2 372.719C377.342 377.264 373.918 379.53 371.282 379.184C361.048 377.824 359.569 357.201 344.945 353.539C343.944 353.289 342.922 353.13 341.892 353.062L279.699 350.748L282.085 389.335C282.407 394.607 282.753 399.772 283.087 405.044C283.683 414.205 284.184 423.485 284.792 432.764L331.86 434.506C333.053 425.405 334.115 416.185 335.307 406.976C336.178 399.438 337.108 391.911 338.051 384.373C340.436 386.532 343.013 388.476 345.005 389.991C349.502 393.414 356.48 398.722 361.06 400.821C361.06 400.821 380.872 409.958 415.702 381.593L417.789 379.852C418.219 379.494 418.636 379.124 419.042 378.767L420.175 377.753L421.618 376.405L421.809 376.214L422.167 375.868C423.562 374.484 424.922 373.053 426.21 371.562C416.926 369.655 408.411 365.049 401.734 358.322Z" fill="#066FD1"/>
    <path d="M287.881 319.079C289.276 321.19 291.459 324.315 294.012 328.025C294.644 328.872 295.205 329.54 295.324 329.814C298.407 333.79 301.964 337.375 305.916 340.49C306.763 341.086 307.467 341.682 308.302 342.231C310.484 343.627 317.844 342.386 324.846 339.154C327.283 338.058 329.581 336.676 331.692 335.039C338.372 330.029 338.324 322.216 334.937 318.614C334.135 317.741 333.086 317.134 331.931 316.872C329.703 316.182 327.61 315.117 325.74 313.723C323.176 311.96 320.781 309.963 318.583 307.759C317.843 307.118 317.142 306.433 316.484 305.708L305.928 303.847L289.229 313.866C291.078 316.55 291.519 318.972 290.756 319.687C289.992 320.403 288.322 319.329 287.881 319.079Z" fill="#FFCB9D"/>
    <path d="M287.881 319.079C289.276 321.19 291.459 324.315 294.012 328.025C294.644 328.872 295.205 329.54 295.324 329.814C298.407 333.79 301.964 337.375 305.916 340.49C306.778 339.48 307.452 338.325 307.908 337.078C308.37 335.7 308.58 334.249 308.528 332.796C308.401 331.25 308.048 329.731 307.478 328.287C307.156 327.369 306.703 326.415 306.286 325.556C313.955 323.864 320.829 319.636 325.8 313.556C323.236 311.793 320.84 309.797 318.643 307.592C317.932 306.957 317.259 306.28 316.627 305.565L306.047 303.728L289.348 313.759C291.221 316.443 291.65 318.864 290.887 319.58C290.123 320.296 288.334 319.401 287.94 319.162" fill="black" opacity="0.1"/>
    <path d="M288.011 323.922C290.17 327.353 293.55 329.838 297.469 330.876C298.229 331 298.981 331.164 299.724 331.365C301.708 332.084 303.483 333.285 304.889 334.86C305.14 333.484 304.935 332.064 304.304 330.816C303.045 328.975 301.662 327.222 300.165 325.568L299.998 325.305C299.834 325.035 299.643 324.783 299.426 324.554C298.797 323.707 298.253 322.8 297.803 321.846V321.751C303.612 321.811 319.417 320.773 323.771 309.823C324.434 308.104 324.883 306.309 325.107 304.479C325.143 304.306 325.143 304.127 325.107 303.954C325.154 303.498 325.154 303.039 325.107 302.583V302.451C325.107 301.23 324.889 300.018 324.462 298.873L324.367 298.444C324.177 297.948 323.898 297.491 323.544 297.096C322.29 295.497 320.504 294.401 318.51 294.006C315.093 293.375 311.584 293.44 308.193 294.197C299.342 295.605 288.249 301.414 285.971 311.552C285.481 314.141 285.579 316.807 286.257 319.353C286.635 320.953 287.229 322.494 288.022 323.934" fill="#454C5E"/>
    <path d="M297.746 321.751C303.555 321.822 319.36 320.773 323.726 309.823C324.382 308.102 324.826 306.307 325.05 304.479C325.085 304.31 325.085 304.135 325.05 303.966C325.085 303.51 325.085 303.051 325.05 302.595C325.04 302.587 325.032 302.577 325.026 302.565C325.021 302.554 325.018 302.542 325.018 302.529C325.018 302.516 325.021 302.504 325.026 302.493C325.032 302.481 325.04 302.471 325.05 302.463C325.045 301.241 324.823 300.029 324.394 298.885C323.582 301.869 322.306 304.707 320.612 307.294C312.167 319.974 295.564 320.51 292.951 320.63L292.713 320.689C294.299 321.083 295.981 321.429 297.651 321.751" fill="black" opacity="0.5"/>
    <path d="M304.342 350.402C306.866 353.215 310.2 355.177 313.884 356.02L314.397 356.139L323.808 352.286L304.342 350.402Z" fill="#FFCB9D"/>
    <path d="M304.342 350.402C306.866 353.215 310.2 355.177 313.884 356.02L314.397 356.139L323.808 352.286L304.342 350.402Z" fill="black" opacity="0.1"/>
    <path d="M314.443 356.139L326.192 348.374L328.709 351.201L320.515 362.568L314.443 356.139Z" fill="#DADBE0"/>
    <path d="M313.918 356.127L296.885 344.545L292.854 348.088L304.054 363.857L313.918 356.127Z" fill="#DADBE0"/>
    <path d="M314.443 356.139L326.192 348.374L328.709 351.201L320.515 362.568L314.443 356.139Z" fill="black" opacity="0.11"/>
    <path d="M307.656 366.063C310.137 381.295 312.63 396.527 315.004 411.759C316.519 396.575 318.129 381.379 319.775 366.302C317.902 362.855 316.197 359.539 314.217 356.103L313.692 356.187C311.736 359.527 309.779 362.819 307.656 366.063Z" fill="#DADBE0"/>
    <path d="M314.336 356.139L315.111 411.807C316.626 396.599 318.236 381.415 319.882 366.326C317.974 362.902 316.209 359.455 314.336 356.139Z" fill="black" opacity="0.11"/>
    <path d="M284.767 432.764L331.834 434.506C308.544 420.861 290.647 399.629 281.141 374.365C281.141 374.52 281.463 379.649 281.475 379.804C281.487 379.959 281.797 385.076 281.809 385.232L284.767 432.764Z" fill="black" opacity="0.1"/>
    <path d="M426.246 371.598C424.957 373.089 423.598 374.52 422.202 375.904L421.844 376.25L421.653 376.441L420.21 377.788L419.077 378.802C418.671 379.16 418.254 379.53 417.824 379.888L415.737 381.629C380.907 409.994 361.095 400.857 361.095 400.857C356.515 398.758 349.537 393.45 345.04 390.027C343.048 388.512 340.507 386.567 338.086 384.408C338.086 384.408 376.077 407.37 426.246 371.598Z" fill="black" opacity="0.1"/>
    <path d="M285.829 417.27C286.81 417.398 287.758 417.714 288.62 418.2C291.888 419.644 293.701 422.506 292.997 425.357C292.103 429.019 287.523 431.321 282.572 430.486C282.041 430.426 281.522 430.285 281.034 430.069C277.05 428.876 274.569 425.608 275.392 422.411C276.322 418.88 280.998 416.495 285.829 417.27Z" fill="#FFCB9D"/>
    <path d="M285.829 417.27C286.81 417.398 287.758 417.714 288.62 418.2C287.785 419.644 287.093 420.765 286.64 421.552C285.364 423.747 284.899 424.594 284.016 425.894C283.312 426.944 282.692 427.755 282.274 428.279L281.416 429.472L281.153 430.093C277.169 428.9 274.7 425.631 275.511 422.447C276.322 418.88 280.998 416.495 285.829 417.27Z" fill="black" opacity="0.1"/>
    <path d="M279.699 350.748C279.27 350.843 278.638 350.974 277.898 351.165C263.728 354.744 255.235 365.61 253.434 368.067C247.042 376.918 243.903 387.704 244.548 398.603C246.146 426.037 272.185 440.506 274.01 441.472C279.746 433.399 283.802 424.256 285.938 414.586C275.87 412.523 268.749 403.851 268.773 394.428C268.879 390.48 270.108 386.645 272.316 383.37C274.523 380.096 277.618 377.518 281.238 375.94C283.279 367.595 282.742 358.829 279.699 350.795V350.748Z" fill="#066FD1"/>
    <path d="M480.195 292.444L475.496 316.55H421.033L425.589 293.35L421.033 293.219L369.17 556.052L373.738 556.958L378.51 532.339H432.973L428.333 556.052L432.889 556.958L484.752 293.231L480.195 292.444ZM474.589 321.071L465.047 369.284H410.608L420.15 321.071H474.589ZM400.183 422.053L409.725 373.84H464.188L454.646 422.053H400.183ZM453.858 426.741L444.316 474.954H389.889L399.431 426.741H453.858ZM379.452 527.723L388.994 479.522H443.457L433.915 527.723H379.452Z" fill="#454C5E"/>
    <path d="M522.671 484.603L514.847 444.466L484.884 292.277L480.196 293.183L484.752 316.3H430.421L425.721 292.325L421.033 293.231L472.896 556.958L477.536 556.052L472.848 532.47H527.18L531.951 556.958L536.651 556.052L522.671 484.603ZM431.327 321.19H485.659L495.046 369.272H440.714L431.327 321.19ZM441.752 373.972H496.084L505.471 422.053H451.139L441.752 373.972ZM452.177 426.872H506.509L511.459 451.921L516.027 474.846H461.553L452.177 426.872ZM471.978 527.723L462.602 479.713H516.898L517.161 481.013L517.686 483.745L526.286 527.783L471.978 527.723Z" fill="#A6A9B3"/>
    <path d="M345.035 139.13L334.182 138.39C332.059 138.245 330.221 139.849 330.076 141.972L328.611 163.452C328.467 165.575 330.07 167.413 332.193 167.558L343.046 168.298C345.169 168.443 347.007 166.839 347.152 164.716L348.617 143.236C348.761 141.113 347.158 139.275 345.035 139.13Z" fill="#454C5E"/>
    <path d="M343.131 142.282L335.646 141.772C334.187 141.672 332.923 142.774 332.824 144.233L331.815 159.026C331.716 160.485 332.818 161.748 334.277 161.848L341.762 162.358C343.222 162.457 344.485 161.355 344.584 159.896L345.593 145.104C345.692 143.645 344.59 142.381 343.131 142.282Z" fill="#DADBE0"/>
    <path d="M459.439 207.755C458.725 209.254 458.103 210.796 457.578 212.371C458.117 211.873 458.526 211.25 458.771 210.558C459.041 209.636 459.264 208.7 459.439 207.755Z" fill="black" opacity="0.1"/>
    <path d="M518.305 282.269C518.093 283.003 517.784 283.705 517.387 284.357C515.764 287.029 512.723 289.128 509.848 288.555C505.506 287.732 504.099 281.554 503.717 279.896C503.563 279.151 503.452 278.398 503.383 277.641C503.001 274.063 503.741 267.669 506.818 266.405C510.206 264.998 516.11 271.057 517.959 276.89C518.603 278.61 518.723 280.481 518.305 282.269Z" fill="#FFCB9D"/>
    <path d="M518.305 282.269C518.093 283.003 517.784 283.705 517.387 284.357C512.842 283.033 509.848 279.705 504.039 277.832L503.383 277.641C503.001 274.063 503.741 267.669 506.818 266.405C510.206 264.998 516.11 271.057 517.959 276.89C518.603 278.61 518.723 280.481 518.305 282.269Z" fill="black" opacity="0.1"/>
    <path d="M352.291 158.624C351.803 157.687 351.185 156.823 350.454 156.059C347.878 153.304 344.407 152.374 341.735 154.032C338.359 156.167 337.608 161.618 340.065 166.222C340.317 166.723 340.604 167.205 340.924 167.665C343.512 171.244 347.58 172.651 350.562 170.767C353.949 168.715 354.677 163.276 352.291 158.624Z" fill="#FFCB9D"/>
    <path d="M352.293 158.624C351.805 157.687 351.186 156.823 350.456 156.06C350.122 156.31 349.835 156.549 349.525 156.799C345.589 160.127 345.183 162.99 341.486 167.188C341.32 167.372 341.145 167.547 340.961 167.713C343.549 171.292 347.617 172.699 350.599 170.814C353.95 168.715 354.678 163.276 352.293 158.624Z" fill="black" opacity="0.1"/>
    <path d="M535.745 282.066C531.404 282.453 527.03 281.996 522.863 280.719C517.078 279.013 514.382 276.58 508.859 275.828C505.586 275.432 502.266 275.663 499.079 276.508C500.617 264.48 500.641 252.305 499.15 240.271L498.959 239.341C498.554 236.8 498.017 234.271 497.361 231.79C496.991 230.466 496.597 229.166 496.168 227.914C496.168 227.83 496.168 227.747 496.168 227.651C494.882 224.157 492.975 220.924 490.538 218.109C488.825 216.117 486.892 214.324 484.777 212.765L483.93 212.157C483.167 211.644 482.403 211.143 481.64 210.69C478.575 208.877 475.314 207.42 471.919 206.348C470.666 205.93 469.533 205.632 468.71 205.417L466.754 205C467.1 206.753 467.457 208.578 467.947 210.248L468.006 210.523C472.598 231.826 474.734 240.092 478.157 255.849L479.159 260.882C469.151 262.564 459.144 264.186 449.112 265.844L420.843 270.449C420.7 264.186 420.557 257.769 420.414 251.435C420.191 241.098 419.96 230.788 419.722 220.506C417.336 222.534 400.076 236.728 376.519 232.577C347.713 227.484 336.858 199.775 336.369 198.475C342.548 182.85 348.719 167.228 354.881 151.61C361.609 174.798 372.594 188.849 379.226 196.006C392.693 210.523 400.947 210.32 402.927 210.189C406.971 209.867 414.76 207.052 416.394 205.847C417.13 205.225 417.93 204.681 418.779 204.225C419.209 203.998 419.662 203.712 420.199 203.414C421.392 202.734 422.668 202.101 423.908 201.517C428.806 199.285 433.881 197.465 439.081 196.078C444.504 194.672 450.021 193.655 455.589 193.036C457.808 192.75 460.217 192.607 462.603 192.476L462.889 192.416C466.279 191.525 469.865 191.743 473.123 193.036C477.286 194.861 476.952 197.259 481.067 198.809C485.671 200.563 488.141 198.332 493.21 200.658C494.641 201.47 496.012 202.383 497.313 203.39C501.82 206.56 505.985 210.19 509.742 214.22C510.577 215.091 511.364 215.974 512.128 216.88C512.593 217.417 513.058 217.966 513.523 218.538L514.108 219.302C516.076 221.822 517.896 224.455 519.559 227.186C520.191 228.2 520.752 229.214 521.36 230.216C522.255 231.826 523.125 233.46 523.913 235.094C524.461 236.215 524.998 237.337 525.511 238.482C526.545 240.788 527.479 243.074 528.314 245.34C528.815 246.7 529.28 248.072 529.721 249.444C533.142 260.009 535.167 270.976 535.745 282.066Z" fill="#DADBE0"/>
    <path d="M529.672 249.503C506.186 252.938 499.1 276.568 499.1 276.568C500.639 264.539 500.663 252.365 499.172 240.331L498.981 239.4C498.576 236.86 498.039 234.331 497.383 231.85C497.013 230.526 496.619 229.226 496.19 227.973C496.19 227.89 496.19 227.806 496.19 227.711C494.904 224.216 492.997 220.984 490.56 218.168C488.847 216.176 486.914 214.384 484.799 212.825L509.74 214.22C510.575 215.091 511.362 215.974 512.126 216.88C512.591 217.417 513.056 217.978 513.521 218.538L514.106 219.302C516.074 221.822 517.894 224.455 519.557 227.186C520.189 228.2 520.75 229.214 521.358 230.216C522.253 231.826 523.123 233.46 523.911 235.094C524.459 236.215 524.996 237.337 525.509 238.482C526.543 240.788 527.477 243.074 528.312 245.34C528.825 246.7 529.231 248.072 529.672 249.503Z" fill="black" opacity="0.1"/>
    <path d="M499.066 239.329C498.657 236.786 498.12 234.266 497.456 231.778C497.086 230.442 496.693 229.154 496.263 227.89V227.639C494.982 224.145 493.079 220.912 490.645 218.097C488.704 215.837 486.483 213.833 484.037 212.133C483.262 211.62 482.498 211.107 481.735 210.666C478.671 208.849 475.409 207.388 472.014 206.312C470.761 205.907 469.628 205.608 468.805 205.382L466.849 204.976C467.195 206.73 467.553 208.483 468.042 210.224L468.101 210.499C466.909 210.129 465.919 209.879 465.084 209.664C462.338 207.145 459.429 204.81 456.376 202.674C453.74 200.839 451.004 199.151 448.182 197.617C448.336 197.629 448.492 197.629 448.647 197.617C454.269 197.369 459.902 197.709 465.453 198.63C472.845 199.857 480.056 201.992 486.924 204.988C490.856 206.777 494.669 208.817 498.339 211.095C500.39 212.371 502.657 213.874 505.066 215.592C509.431 218.722 513.595 222.124 517.531 225.779C519.675 228.298 521.617 230.982 523.34 233.806C523.34 233.806 523.602 234.367 523.972 235.094C524.664 236.538 525.165 237.695 525.558 238.482C516.955 240.282 508.144 240.88 499.376 240.259L499.066 239.329Z" fill="black" opacity="0.1"/>
    <path d="M457.722 195.541C458.975 201.779 452.629 208.28 443.54 210.105C434.451 211.93 426.113 208.376 424.861 202.137C424.788 201.796 424.756 201.448 424.765 201.1C429.662 198.859 434.742 197.043 439.95 195.672C445.373 194.245 450.895 193.224 456.47 192.619C457.091 193.492 457.518 194.489 457.722 195.541Z" fill="#FFCB9D"/>
    <path d="M526.368 293.78C525.437 296.054 524.511 298.336 523.588 300.626L484.095 309.286L456.195 287.374C456.752 305.298 457.046 323.504 457.078 341.993C457.078 345.905 457.078 349.805 457.078 353.694L451.21 353.885C446.502 339.714 441.468 325.266 436.109 310.539C431.099 296.798 426.026 283.422 420.889 270.413L433.532 268.349L479.216 260.906L497.216 292.444L526.368 293.78Z" fill="#066FD1"/>
    <path d="M479.181 260.906L449.934 265.678L420.853 270.449C420.71 264.175 420.579 257.769 420.412 251.424C420.412 251.96 442.085 265.224 478.108 255.861L478.525 257.924C478.728 258.926 478.978 259.916 479.181 260.906Z" fill="black" opacity="0.1"/>
    <path d="M541.242 293.959L536.28 294.114C536.28 294.114 531.509 293.517 530.197 296.285C528.885 299.052 535.648 308.618 540.395 311.362L537.855 300.722L541.863 299.672L541.242 293.959Z" fill="#454C5E"/>
    <path d="M460.622 369.618L459.036 364.906C459.036 364.906 458.237 360.135 455.195 359.718C452.154 359.3 444.985 368.509 443.732 373.84L453.167 368.33L455.338 371.908L460.622 369.618Z" fill="#454C5E"/>
    <path d="M435.227 181.991C442.969 185.068 452.511 185.223 456.865 183.756C457.596 183.548 458.266 183.167 458.821 182.647C459.441 181.967 460.014 181.192 460.61 180.464C461.428 179.396 462.188 178.285 462.888 177.136C464.757 174.173 466.354 171.047 467.659 167.797C467.755 167.546 468.065 166.735 468.435 165.817C469.962 161.654 471.083 158.278 471.834 155.904C471.548 156.203 470.164 157.551 469.246 157.097C468.327 156.644 468.113 154.306 469.246 151.324L451.163 146.314L441.823 150.74C441.823 150.74 441.299 151.73 440.38 153.125C438.841 155.689 437.127 158.144 435.251 160.473C433.913 162.285 432.251 163.834 430.349 165.041C425.053 168.035 425.947 178.341 435.227 181.991Z" fill="#FFCB9D"/>
    <path d="M435.25 160.628C441.442 164.972 448.904 167.129 456.458 166.759C458.154 167.488 459.619 168.668 460.692 170.17C462.255 172.46 461.766 174.047 462.756 176.838L462.851 177.1C464.725 174.14 466.322 171.014 467.623 167.761C467.73 167.51 468.028 166.699 468.398 165.781C469.925 161.63 471.046 158.242 471.797 155.869C471.511 156.167 470.127 157.527 469.209 157.061C468.29 156.596 468.076 154.27 469.209 151.288L451.138 146.279L441.751 150.752C441.751 150.752 441.226 151.742 440.307 153.137C438.802 155.751 437.112 158.255 435.25 160.628Z" fill="black" opacity="0.1"/>
    <path d="M533.204 244.887C528.166 246.474 522.964 247.478 517.697 247.881C509.285 248.537 500.826 247.549 492.792 244.971C492.792 244.971 469.21 239.519 456.531 221.568C455.063 219.552 453.823 217.38 452.833 215.091C448.813 205.716 447.978 191.104 454.718 182.886C457.522 179.453 460.032 175.79 462.22 171.936C463.135 170.233 463.749 168.385 464.033 166.473L464.141 165.161C464.248 163.622 462.542 161.32 462.328 158.827C458.344 159.829 443.827 162.787 436.969 154.724C435.405 152.902 434.315 150.722 433.796 148.378C433.572 147.254 433.662 146.09 434.058 145.014C435.86 140.613 443.04 140.076 446.046 139.861C457.676 139.014 466.574 146.863 468.888 148.927C469.89 149.785 485.253 163.789 481.89 178.472C480.1 186.309 474.053 188.205 474.816 191.784C475.711 195.851 484.788 199.931 523.721 198.857C520.918 209.485 522.385 216.308 524.365 220.781C525.904 224.18 528.158 227.031 530.102 232.065C530.52 233.078 530.914 234.176 531.295 235.369C532.253 238.468 532.892 241.658 533.204 244.887Z" fill="#454C5E"/>
    <path d="M533.203 244.887C528.113 246.257 522.931 247.257 517.697 247.881C509.285 248.537 500.825 247.549 492.791 244.971C492.791 244.971 469.21 239.519 456.53 221.568C455.062 219.552 453.822 217.38 452.832 215.091C448.813 205.716 447.978 191.104 454.717 182.885C457.522 179.453 460.032 175.79 462.22 171.936C458.586 184.712 459.95 198.393 466.037 210.201C473.267 222.313 484.7 231.343 498.159 235.571C504.235 237.624 510.723 238.157 517.053 237.122C521.726 236.268 526.184 234.501 530.173 231.921C530.591 232.947 530.984 234.045 531.366 235.237C532.299 238.384 532.915 241.617 533.203 244.887Z" fill="black" opacity="0.3"/>
    <path d="M433.83 148.342C434.334 150.684 435.416 152.861 436.979 154.676C443.838 162.739 458.354 159.781 462.338 158.779C463.834 158.011 465.241 157.083 466.537 156.012C460.869 157.498 454.923 157.572 449.219 156.229C443.515 154.886 438.228 152.166 433.818 148.306L433.83 148.342Z" fill="black" opacity="0.5"/>
    <path d="M457.722 195.541C458.975 201.779 452.629 208.28 443.54 210.105C434.451 211.93 426.113 208.376 424.861 202.137C424.788 201.796 424.756 201.448 424.765 201.1C429.662 198.859 434.742 197.043 439.95 195.672C445.373 194.245 450.895 193.224 456.47 192.619C457.091 193.492 457.518 194.489 457.722 195.541Z" fill="black" opacity="0.1"/>
    <path d="M451.796 207.421C449.315 203.664 446.965 201.934 444.806 202.268C442.337 202.662 440.906 205.62 440.262 207.386C438.735 205.644 435.371 202.447 432.02 203.223C429.324 203.891 427.392 207.135 426.294 212.872C425.781 215.544 425.316 219.254 427.034 220.697C427.3 220.897 427.607 221.034 427.934 221.098C428.26 221.162 428.597 221.151 428.918 221.067C431.829 220.482 436.075 215.997 438.914 212.634C438.667 213.918 438.058 215.106 437.16 216.057C436.802 216.276 436.504 216.583 436.296 216.948C436.087 217.312 435.974 217.724 435.968 218.145C435.896 220.017 437.494 221.997 438.866 223.5L439.785 222.033C437.745 219.743 437.554 218.765 437.494 218.455C437.511 218.329 437.557 218.209 437.63 218.105C437.703 218.001 437.8 217.917 437.912 217.858C439.594 216.785 440.512 213.182 440.93 211.071C441.793 212.305 442.536 213.619 443.148 214.996C443.153 215.346 443.133 215.697 443.089 216.045C442.969 217.393 442.755 219.624 444.365 220.816C445.272 221.472 446.417 224.204 447.419 228.164L448.91 227.723C447.717 222.952 446.393 220.053 445.009 219.051C444.532 218.729 444.508 218.001 444.663 216.522C444.723 215.999 444.723 215.471 444.663 214.948C444.32 213.731 443.78 212.579 443.065 211.536C446.13 213.075 450.09 214.745 452.226 214.328C452.513 214.293 452.789 214.192 453.031 214.033C453.274 213.873 453.475 213.66 453.621 213.409C454.444 211.751 452.977 209.199 451.796 207.421ZM427.749 219.015C427.749 218.932 426.914 218.18 427.809 213.564C428.751 208.554 430.326 205.728 432.425 205.215H432.58C435.228 204.678 438.186 207.66 439.427 209.079C434.799 214.912 429.145 220.172 427.749 219.015ZM452.273 212.133C451.736 213.111 446.774 211.441 441.61 208.614C442.099 207.23 443.22 204.654 445.057 204.284H445.164C446.691 204.058 448.564 205.477 450.675 208.662C452.5 211.429 452.273 212.157 452.273 212.157V212.133Z" fill="#066FD1"/>
    <path d="M336.286 119.298C339.869 119.298 342.774 116.392 342.774 112.809C342.774 109.225 339.869 106.32 336.286 106.32C332.702 106.32 329.797 109.225 329.797 112.809C329.797 116.392 332.702 119.298 336.286 119.298Z" fill="#066FD1"/>
    <path d="M347.316 86.6268C342.599 83.9686 337.15 82.9021 331.778 83.5853C326.407 84.2686 321.398 86.6653 317.496 90.4199C317.3 90.613 317.144 90.8433 317.038 91.0972C316.932 91.3511 316.877 91.6237 316.877 91.899C316.877 92.1743 316.932 92.4468 317.038 92.7008C317.144 92.9547 317.3 93.1849 317.496 93.378C317.69 93.5821 317.923 93.7445 318.181 93.8553C318.44 93.9661 318.718 94.0229 318.999 94.0222C319.545 94.0232 320.071 93.8139 320.466 93.4377C323.083 90.9264 326.304 89.1344 329.817 88.2357C333.331 87.337 337.017 87.3621 340.517 88.3087C342.182 88.7694 343.784 89.4302 345.289 90.2768C345.529 90.4298 345.798 90.5323 346.079 90.578C346.36 90.6237 346.648 90.6117 346.924 90.5426C347.201 90.4736 347.46 90.349 347.687 90.1765C347.914 90.0039 348.103 89.7871 348.243 89.539C348.384 89.291 348.472 89.017 348.503 88.7337C348.534 88.4505 348.507 88.1639 348.423 87.8915C348.34 87.619 348.202 87.3664 348.018 87.1489C347.834 86.9315 347.607 86.7539 347.352 86.6268H347.316Z" fill="#DADCE0"/>
    <path d="M354.414 68.7826C347.234 63.8402 338.588 61.4836 329.893 62.099C321.199 62.7145 312.971 66.2656 306.559 72.1701C306.355 72.3563 306.19 72.5809 306.073 72.8311C305.956 73.0812 305.889 73.352 305.877 73.6279C305.865 73.9038 305.907 74.1794 306.002 74.4389C306.096 74.6984 306.241 74.9367 306.428 75.1402C306.615 75.3433 306.84 75.5076 307.091 75.6236C307.341 75.7395 307.612 75.8049 307.888 75.816C308.164 75.8271 308.439 75.7836 308.698 75.6881C308.957 75.5926 309.195 75.447 309.398 75.2595C313.4 71.5809 318.218 68.9056 323.457 67.454C328.695 66.0024 334.203 65.8159 339.528 66.9099C344.011 67.827 348.263 69.6406 352.028 72.2417C352.487 72.558 353.053 72.6792 353.601 72.5786C354.149 72.4779 354.634 72.1636 354.951 71.7049C355.267 71.2462 355.388 70.6806 355.288 70.1326C355.187 69.5846 354.873 69.0989 354.414 68.7826Z" fill="#DADCE0"/>
    <path d="M364.83 50.497C354.392 42.8487 341.566 39.1806 328.662 40.1538C315.759 41.127 303.628 46.6776 294.455 55.805C294.259 55.9992 294.104 56.2301 293.997 56.4845C293.891 56.7389 293.835 57.0117 293.834 57.2875C293.833 57.5633 293.886 57.8367 293.991 58.0919C294.095 58.3471 294.249 58.5792 294.443 58.775C294.637 58.9708 294.868 59.1265 295.123 59.233C295.377 59.3396 295.65 59.395 295.926 59.3961C296.201 59.3972 296.475 59.344 296.73 59.2395C296.985 59.135 297.217 58.9812 297.413 58.787C305.877 50.3659 317.07 45.2446 328.976 44.3458C340.882 43.447 352.717 46.8297 362.349 53.8846C362.571 54.0475 362.824 54.165 363.092 54.2304C363.359 54.2958 363.638 54.3077 363.91 54.2657C364.183 54.2236 364.444 54.1282 364.68 53.9851C364.915 53.8419 365.12 53.6538 365.283 53.4313C365.446 53.2089 365.564 52.9565 365.629 52.6887C365.695 52.4209 365.706 52.1428 365.664 51.8703C365.622 51.5978 365.527 51.3363 365.384 51.1007C365.241 50.8651 365.053 50.66 364.83 50.497Z" fill="#DADCE0"/>
    <path d="M419.626 220.506C417.24 222.534 399.981 236.728 376.423 232.577C347.617 227.484 336.762 199.775 336.273 198.475C355.561 194.444 351.422 209.544 364.042 219.182C376.662 228.82 419.626 220.506 419.626 220.506Z" fill="black" opacity="0.1"/>
    <path d="M457.078 341.993C457.078 345.905 457.078 349.805 457.078 353.694L451.21 353.885C446.502 339.714 441.468 325.266 436.109 310.539C431.099 296.798 426.026 283.422 420.889 270.413L433.532 268.349L456.195 287.374C456.752 305.298 457.046 323.504 457.078 341.993Z" fill="black" opacity="0.1"/>
</svg>
