<svg xmlns="http://www.w3.org/2000/svg" width="800" height="600" fill="none" viewBox="0 0 800 600">
    <path d="M109.891 299.5C109.891 346.376 159.458 380.473 181.418 418.394C203.995 457.535 209.516 517.164 248.531 539.866C286.439 561.827 340.434 537.288 387.297 537.288C434.161 537.288 488.155 561.827 526.064 539.866C565.079 517.29 570.6 457.535 593.177 418.394C615.137 380.486 664.704 346.489 664.704 299.5C664.704 252.511 615.011 218.527 593.177 180.606C570.6 141.465 565.079 81.7101 526.064 59.1337C488.155 37.1736 434.161 61.7121 387.297 61.7121C340.434 61.7121 286.439 37.1736 248.531 59.1337C209.39 81.7101 203.995 141.465 181.418 180.606C159.458 218.64 109.891 252.624 109.891 299.5Z" fill="black" opacity="0.07"/>
    <path d="M643.287 314.316H657.148C658.166 314.316 658.996 315.146 658.996 316.165V331.874H641.426V316.165C641.426 315.146 642.256 314.316 643.275 314.316H643.287Z" fill="#454C5E"/>
    <path d="M649.748 320.026C649.748 328.34 643.019 335.069 634.718 335.069C628.43 335.069 623.034 331.195 620.795 325.724C620.078 323.963 619.676 322.051 619.676 320.039C619.676 311.738 626.417 305.009 634.718 305.009C638.202 305.009 641.409 306.191 643.963 308.179C647.484 310.933 649.748 315.222 649.748 320.026Z" fill="#A6A9B3"/>
    <path d="M649.75 320.026C649.75 328.34 643.021 335.069 634.72 335.069C628.431 335.069 623.036 331.195 620.797 325.724C634.997 321.838 641.248 313.952 643.964 308.179C647.486 310.933 649.75 315.222 649.75 320.026Z" fill="black" opacity="0.1"/>
    <path d="M325.127 256.423H361.338C364.017 256.423 366.18 258.598 366.18 261.265V302.317H320.285V261.265C320.285 258.586 322.461 256.423 325.127 256.423Z" fill="#454C5E"/>
    <path d="M390.546 266.635H370.045C366.426 266.635 363.492 269.569 363.492 273.188V293.689C363.492 297.308 366.426 300.242 370.045 300.242H390.546C394.165 300.242 397.099 297.308 397.099 293.689V273.188C397.099 269.569 394.165 266.635 390.546 266.635Z" fill="#A6A9B3"/>
    <path d="M114.863 432.833C114.863 435.135 243.832 437.034 402.433 437.034C561.033 437.034 690.002 435.135 690.002 432.833C690.002 430.531 561.033 428.632 402.433 428.632C243.832 428.632 114.863 430.531 114.863 432.833Z" fill="#1D2535" opacity="0.5"/>
    <path d="M403.559 330.078C403.025 328.33 401.176 327.346 399.429 327.88C397.682 328.413 396.698 330.262 397.232 332.01L419.307 404.304C419.84 406.052 421.689 407.036 423.436 406.502C425.184 405.969 426.168 404.12 425.634 402.372L403.559 330.078Z" fill="#454C5E"/>
    <path d="M342.916 402.366C342.383 404.113 343.366 405.962 345.114 406.496C346.861 407.029 348.71 406.045 349.243 404.298L371.319 332.003C371.852 330.256 370.868 328.407 369.121 327.873C367.374 327.34 365.525 328.324 364.991 330.071L342.916 402.366Z" fill="#454C5E"/>
    <path d="M342.901 432.544C348.291 432.544 352.661 428.174 352.661 422.784C352.661 417.393 348.291 413.024 342.901 413.024C337.51 413.024 333.141 417.393 333.141 422.784C333.141 428.174 337.51 432.544 342.901 432.544Z" fill="#066FD1"/>
    <path d="M426.151 416.558C429.71 416.558 432.59 419.451 432.59 422.997C432.59 426.544 429.697 429.437 426.151 429.437C422.604 429.437 419.711 426.544 419.711 422.997C419.711 419.451 422.604 416.558 426.151 416.558ZM426.151 413.024C420.629 413.024 416.164 417.501 416.164 423.01C416.164 428.519 420.642 432.996 426.151 432.996C431.659 432.996 436.137 428.519 436.137 423.01C436.137 417.501 431.659 413.024 426.151 413.024Z" fill="#066FD1"/>
    <path d="M435.221 363.23H337.973C333.231 363.23 329.055 360.526 327.697 356.589C319.006 331.245 310.328 305.902 301.637 280.571C347.28 281.125 392.936 281.691 438.579 282.244C441.019 305.864 443.447 329.485 445.887 353.105C446.453 358.538 441.51 363.23 435.209 363.23H435.221Z" fill="#DADCE0"/>
    <path d="M338.459 363.23H337.969C337.579 363.23 337.189 363.217 336.811 363.167L332.523 348.917L331.214 344.565L327.366 331.749L326.888 330.176L322.624 315.964L322.146 314.404L318.084 300.859L317.203 297.953L312.223 281.364C312.713 281.2 313.204 281.062 313.732 280.974L318.838 297.953L319.706 300.859L323.781 314.404L324.247 315.964L328.523 330.176L329.001 331.749L332.85 344.565L334.158 348.917L338.459 363.23Z" fill="#A6A9B3"/>
    <path d="M369.663 363.23H368.028L363.727 348.917L362.419 344.565L358.57 331.749L358.105 330.176L353.829 315.964L353.363 314.404L349.288 300.858L348.42 297.953L343.352 281.074C343.892 281.087 344.433 281.087 344.974 281.099L350.043 297.953L350.911 300.858L354.986 314.404L355.451 315.964L359.727 330.176L360.205 331.749L364.054 344.565L365.362 348.917L369.663 363.23Z" fill="#A6A9B3"/>
    <path d="M401.575 363.23H398.557L394.243 348.904L392.947 344.565L389.099 331.749L388.621 330.176L384.344 315.964L383.879 314.404L379.816 300.859L378.936 297.953L373.98 281.452C374.987 281.464 375.993 281.477 376.999 281.489L381.942 297.953L382.822 300.859L386.897 314.404L387.363 315.964L391.639 330.176L392.104 331.749L395.953 344.565L397.261 348.904L401.575 363.23Z" fill="#A6A9B3"/>
    <path d="M432.089 363.23H430.454L426.153 348.904L424.845 344.565L420.996 331.749L420.531 330.176L416.254 315.964L415.789 314.392L411.714 300.858L410.846 297.953L406.004 281.854C406.545 281.854 407.098 281.867 407.639 281.867L412.469 297.953L413.337 300.858L417.412 314.392L417.877 315.964L422.153 330.176L422.631 331.749L426.48 344.565L427.788 348.904L432.089 363.23Z" fill="#A6A9B3"/>
    <path d="M440.502 300.846C433.383 300.846 423.95 300.846 413.335 300.858C412.794 300.846 412.253 300.846 411.712 300.858H308.603C308.263 299.89 307.936 298.922 307.609 297.953H440.2C440.301 298.922 440.401 299.877 440.502 300.846Z" fill="#A6A9B3"/>
    <path d="M442.064 315.964H313.774C313.598 315.436 313.422 314.92 313.246 314.392C315.925 314.404 318.918 314.404 322.151 314.404H386.899C396.999 314.404 406.872 314.404 415.79 314.392H441.9C441.95 314.92 442.001 315.436 442.064 315.964Z" fill="#A6A9B3"/>
    <path d="M443.685 331.736C438.239 331.736 430.994 331.736 422.63 331.749H319.181C319.005 331.22 318.829 330.705 318.641 330.176H443.521C443.572 330.692 443.622 331.22 443.685 331.736Z" fill="#A6A9B3"/>
    <path d="M445.445 348.904H426.151C417.611 348.904 407.7 348.917 397.261 348.904C396.255 348.917 395.249 348.917 394.243 348.904C384.784 348.917 374.962 348.917 365.365 348.917H325.067C324.577 347.47 324.073 346.011 323.57 344.565H445.005C445.156 346.011 445.307 347.458 445.445 348.904Z" fill="#A6A9B3"/>
    <path d="M443.763 282.206C443.763 283.313 443.272 284.319 442.492 285.049C441.713 285.778 440.618 286.218 439.411 286.218H299.4C296.997 286.218 295.035 284.42 295.035 282.206C295.035 281.099 295.526 280.093 296.305 279.364C297.098 278.634 298.192 278.194 299.387 278.194H439.398C441.801 278.194 443.763 279.993 443.763 282.206Z" fill="#066FD1"/>
    <path d="M292.642 267.088H264.368C262.875 267.088 261.664 268.299 261.664 269.792V272.408C261.664 273.902 262.875 275.113 264.368 275.113H292.642C294.136 275.113 295.346 273.902 295.346 272.408V269.792C295.346 268.299 294.136 267.088 292.642 267.088Z" fill="#066FD1"/>
    <path d="M304.264 286.218H298.277C296.906 286.218 295.649 285.489 294.97 284.307L291.435 278.194L289.649 275.113L287.624 271.591C287.159 270.786 287.436 269.742 288.241 269.277L291.02 267.667C292.24 266.975 293.724 267.176 294.718 268.082C294.944 268.283 295.133 268.535 295.297 268.811L300.717 278.194L304.327 284.445C304.654 285.011 304.616 285.69 304.264 286.218Z" fill="#066FD1"/>
    <path d="M347.797 222.589C347.709 224.74 346.804 226.778 345.282 228.299C341.672 231.871 327.284 246.059 302.091 247.732C298.758 247.958 289.639 248.335 278.596 245.543C274.169 244.424 269.44 242.789 264.648 240.449C263.277 239.783 262.158 239.166 261.391 238.751C263.642 234.601 265.906 230.45 268.17 226.3C269.868 227.205 272.132 228.299 274.886 229.318C279.502 231.016 285.476 232.463 292.495 232.4C297.098 232.362 303.952 232.299 311.109 228.501C318.416 224.639 320.152 223.545 326.881 216.338C331.623 211.282 338.503 210.226 342.955 213.068C346.112 215.181 347.961 218.791 347.785 222.589H347.797Z" fill="#FFCB9D"/>
    <path d="M278.596 245.543C274.169 244.424 269.44 242.789 264.648 240.449C263.277 239.783 262.158 239.166 261.391 238.751C263.642 234.601 265.906 230.45 268.17 226.3C269.868 227.205 272.132 228.3 274.886 229.318C275.188 234.903 276.446 240.386 278.584 245.556L278.596 245.543Z" fill="black" opacity="0.1"/>
    <path d="M236.935 172.557C242.318 183.386 251.525 191.838 262.769 196.303L224.836 198.931L236.961 172.557" fill="#454C5E"/>
    <path d="M241.087 361.092L228.082 372.537L225.592 374.725L200.714 396.635L198.84 394.837L216.222 367.405L224.535 354.275L241.087 361.092Z" fill="#FFCB9D"/>
    <path d="M232.008 201.837H232.121C221.342 202.78 209.369 199.372 204.501 195.9C203.658 195.385 202.954 194.655 202.451 193.8C201.935 192.706 201.483 191.586 201.005 190.391C200.401 188.769 199.873 187.071 199.395 185.386C198.175 180.983 197.345 176.468 196.917 171.915C196.93 171.55 196.816 170.431 196.728 169.148C196.389 163.388 196.2 158.696 196.188 155.514C196.2 155.539 196.213 155.565 196.238 155.59C196.313 155.728 196.464 155.992 196.678 156.307C196.716 156.382 196.766 156.445 196.816 156.52C196.867 156.583 196.917 156.659 196.98 156.734C197.521 157.426 198.25 158.13 198.955 158.03C200.162 157.854 201.42 154.948 201.156 150.823L225.581 151.389L225.681 151.489L235.592 160.445C235.592 160.445 235.869 161.853 236.46 164.042C237.391 167.827 238.586 171.563 240.032 175.198C240.045 175.223 240.057 175.261 240.07 175.286C241.064 178.003 242.548 180.543 244.434 182.744C249.931 188.253 244.963 200.793 232.008 201.837Z" fill="#FFCB9D"/>
    <path d="M240.033 175.198C240.033 175.198 240.058 175.261 240.07 175.286C230.713 178.342 220.601 178.204 211.331 174.909C208.929 175.173 206.652 176.103 204.741 177.6C201.936 179.864 201.961 182.002 199.659 185.147L199.445 185.461C198.225 181.059 197.395 176.544 196.968 171.991C196.993 171.626 196.867 170.506 196.779 169.236C196.427 163.463 196.251 158.772 196.238 155.59C196.314 155.728 196.465 155.992 196.678 156.307C196.716 156.369 196.767 156.445 196.817 156.52C196.867 156.583 196.917 156.659 196.98 156.734C197.521 157.451 198.276 158.206 199.005 158.105C200.225 157.942 201.47 155.024 201.257 150.923L225.682 151.489L235.593 160.445C235.593 160.445 235.87 161.853 236.461 164.042C237.391 167.827 238.586 171.563 240.033 175.198Z" fill="black" opacity="0.1"/>
    <path d="M240.141 175.261V175.286C240.141 175.286 240.129 175.273 240.129 175.261H240.141Z" fill="black" opacity="0.1"/>
    <path d="M270.895 225.092C269.725 228.048 268.505 231.029 267.285 234.022C265.914 237.38 264.53 240.713 263.147 244.009C260.078 242.675 257.009 241.342 253.94 240.009C253.563 247.945 253.877 255.882 254.884 263.755C255.424 268.019 256.154 272.069 256.984 275.741L257.173 276.836C258.544 284.508 259.94 292.092 261.311 299.727C235.653 300.204 210.007 300.708 184.35 301.211C184.35 299.45 184.4 297.651 184.438 295.853V295.765C183.771 278.747 183.909 261.705 184.878 244.713C181.557 245.858 178.237 247.002 174.917 248.134C173.797 245.455 169.735 235.054 173.08 225.344C173.583 223.885 174.678 220.829 177.394 217.86C178.551 216.603 181.243 213.748 185.532 212.779C186.173 212.628 186.714 212.565 187.117 212.528H187.393C190.274 212.125 193.053 211.735 195.732 211.509C196.122 211.471 196.512 211.433 196.889 211.408C204.172 210.767 211.492 210.653 218.787 211.081C225.44 211.471 232.056 212.414 238.558 213.873C238.885 213.936 239.212 213.999 239.552 214.087C241.287 214.49 243.111 214.942 244.784 215.521L246.218 215.999L246.759 216.188L247.702 216.527C250.972 217.42 254.418 218.489 258.028 219.785C262.744 221.47 267.021 223.294 270.882 225.117L270.895 225.092Z" fill="#066FD1"/>
    <path d="M246.534 160.495C245.012 163.237 242.837 165.564 240.183 167.236C228.586 174.644 211.619 165.538 207.041 162.796C205.834 165.891 202.815 168.192 202.4 170.066C202.287 170.645 202.161 171.236 202.098 171.739C201.96 172.657 201.872 173.588 201.872 174.519C201.872 176.103 202.01 177.688 202.3 179.248C203.985 185.851 206.161 192.316 208.802 198.604L192.162 199.334L178.73 199.925C176.994 193.498 176.717 186.769 177.912 180.216C178.088 179.663 178.201 178.782 178.453 177.663C179.006 175.5 179.723 173.387 180.591 171.337C180.704 170.947 180.893 170.582 181.056 170.242C182.264 167.576 183.748 165.035 185.471 162.671C189.923 156.546 195.722 151.527 202.425 147.993C204.74 146.836 219.568 139.667 234.271 145.301C237.931 146.672 246.66 150.068 247.276 156.244C247.39 157.74 247.075 159.237 246.371 160.558" fill="#454C5E"/>
    <path d="M226.445 433.11C223.653 426.72 212.383 416.495 208.648 417.778C204.912 419.061 204.812 425.148 204.812 425.148L203.793 431.412L211.038 433.11L213.088 428.179L226.445 433.11Z" fill="#454C5E"/>
    <path d="M192.95 420.834C196.509 414.898 198.308 399.729 195.075 397.415C191.843 395.101 186.837 398.597 186.837 398.597L181.152 401.415L183.97 408.282L189.177 407.1L192.95 420.834Z" fill="#454C5E"/>
    <path d="M246.534 160.495C245.012 163.237 242.836 165.564 240.182 167.236C228.598 174.72 211.594 165.538 207.041 162.796C205.469 161.275 204.06 159.602 202.84 157.791C216.046 165.891 232.422 166.909 246.534 160.507" fill="black" opacity="0.5"/>
    <path d="M246.807 216.099L246.278 215.911C244.165 225.407 231.814 232.626 216.885 232.626C200.484 232.626 187.127 223.835 187.127 213.043V212.502C186.611 212.578 186.096 212.653 185.555 212.766V213.043C185.555 224.916 199.616 234.488 216.872 234.488C232.405 234.488 245.36 226.652 247.725 216.452L246.781 216.099" fill="#DADCE0"/>
    <path d="M222.374 241.154C222.11 242.437 220.852 243.254 219.569 242.99C218.287 242.726 217.469 241.468 217.733 240.185C217.96 239.103 218.903 238.324 220.01 238.299C221.443 238.449 222.5 239.72 222.387 241.154" fill="#DADCE0"/>
    <path d="M192.147 199.334L178.714 199.925C176.978 193.498 176.702 186.769 177.896 180.216C178.01 179.638 178.186 178.782 178.437 177.663L180.588 171.324C180.701 170.947 180.89 170.569 181.066 170.23C182.273 167.563 183.745 165.023 185.468 162.646C184.6 171.211 184.248 183.197 187.719 190.907C189.002 193.812 190.474 196.63 192.109 199.359" fill="black" opacity="0.5"/>
    <path d="M261.348 299.777C235.702 300.255 210.045 300.745 184.387 301.274C184.387 299.488 184.45 297.714 184.487 295.903V295.815C225.804 297.852 250.078 282.659 257.197 276.886C258.568 284.558 259.977 292.142 261.335 299.777" fill="black" opacity="0.1"/>
    <path d="M238.687 215.081C238.687 223.193 228.977 229.771 216.902 229.771C204.828 229.771 195.043 223.193 195.043 215.081C195.043 213.848 195.269 212.616 195.722 211.484C195.986 211.458 196.389 211.421 196.879 211.383C201.143 211.006 209.406 210.289 218.512 210.804C223.518 211.094 230.385 211.836 238.561 213.848C238.649 214.238 238.686 214.678 238.674 215.081H238.687Z" fill="#FFCB9D"/>
    <path d="M241.085 361.092L200.736 396.623L198.875 394.837L224.571 354.275L241.085 361.104V361.092Z" fill="black" opacity="0.1"/>
    <path d="M216.211 356.312L214.387 378.159L211.721 409.904H209.143L202.426 376.977L199.559 362.852L216.211 356.312Z" fill="#FFCB9D"/>
    <path d="M199.559 362.852L216.173 356.312L214.362 378.096C210.224 377.832 206.212 377.43 202.401 376.914L199.559 362.852Z" fill="black" opacity="0.1"/>
    <path d="M265.398 362.852H186.298L184.928 318.781L184.387 301.223L261.348 299.727L264.643 350.841L265.398 362.852Z" fill="#DADCE0"/>
    <path d="M268.404 286.759C266.14 289.161 263.172 289.841 261.172 290.168C228.987 295.224 205.97 280.621 205.97 280.621C205.97 280.621 198.147 275.653 188.777 264.849C186.752 262.523 184.652 259.906 182.551 257.014C180.036 253.555 178.765 250.021 178.765 250.021C178.325 248.788 178.074 247.757 177.91 247.078C182.602 245.153 187.293 243.216 191.972 241.267C192.261 242.034 192.714 243.204 193.33 244.612C194.437 246.989 195.745 249.241 197.242 251.379C200.751 256.372 205.279 260.611 210.561 263.768C217.906 268.094 224.509 268.874 231.515 269.679C239.011 270.534 246.608 270.245 254.003 268.849C259.852 267.73 268.807 270.723 270.932 276.421C272.178 279.791 270.844 284.156 268.379 286.759H268.404Z" fill="#FFCB9D"/>
    <path d="M197.257 251.379C195.735 252.209 194 253.467 192.453 255.353C189.899 258.473 189.019 261.969 188.793 264.849C186.768 262.523 184.667 259.906 182.567 257.014C180.051 253.555 178.781 250.021 178.781 250.021C178.341 248.788 178.089 247.757 177.926 247.078C182.617 245.153 187.309 243.216 191.987 241.267C192.277 242.034 192.729 243.204 193.346 244.612C194.452 246.989 195.761 249.241 197.257 251.379Z" fill="black" opacity="0.1"/>
    <path d="M614.387 335.559L586.654 334.792C584.516 334.729 582.68 333.459 581.887 331.472C581.095 329.485 581.535 327.296 583.057 325.774L613.721 295.01C615.33 293.4 617.682 292.998 619.733 293.966C621.481 294.796 622.6 296.444 622.739 298.318L653.666 332.855L648.208 332.076C637.089 330.503 626.562 331.359 616.928 334.616C616.186 334.868 615.469 335.132 614.752 335.396L614.375 335.534L614.387 335.559ZM585.899 328.617C585.371 329.145 585.522 329.749 585.623 329.988C585.711 330.227 586.013 330.767 586.767 330.78L613.708 331.522C614.349 331.283 614.991 331.057 615.658 330.83C624.348 327.887 633.693 326.78 643.516 327.535L618.651 299.764L618.739 298.871C618.827 298.066 618.261 297.714 618.022 297.588C617.783 297.475 617.154 297.261 616.576 297.84L585.912 328.604L585.899 328.617Z" fill="#066FD1"/>
    <path d="M626.171 404.32C625.152 407.251 624.146 410.169 623.14 413.112C602.01 398.031 580.892 382.989 559.762 367.921C558.882 361.029 557.964 354.136 557.058 347.231C556.115 340.062 555.159 332.906 554.203 325.774C545.902 336.125 537.588 346.464 529.287 356.828C523.351 376.876 517.427 396.925 511.49 416.985C508.421 416.759 505.34 416.52 502.259 416.294C501.617 395.742 500.988 375.191 500.359 354.652C512.132 334.075 523.904 313.511 535.664 292.922C540.079 292.218 544.493 291.488 548.921 290.784C550.908 290.47 552.87 290.143 554.845 289.828L590.715 283.766C590.137 307.851 589.546 331.925 588.967 355.985C601.368 372.109 613.757 388.221 626.158 404.333L626.171 404.32Z" fill="#066FD1"/>
    <path d="M554.203 325.762C545.902 336.113 537.588 346.451 529.287 356.815C523.351 376.864 517.427 396.912 511.49 416.973C508.421 416.747 505.34 416.508 502.259 416.281C501.617 395.73 500.988 375.178 500.359 354.639C512.132 334.063 523.904 313.499 535.664 292.91C540.079 292.205 544.493 291.476 548.921 290.771C551.235 305.462 554.216 324.743 554.191 325.762H554.203Z" fill="black" opacity="0.1"/>
    <path d="M404.987 237.393C405.439 248.851 430.38 260.561 451.372 260.799C462.214 260.9 471.835 257.944 479.923 253.844C487.23 250.146 493.28 245.531 497.845 241.43C500.336 239.204 502.713 236.84 504.952 234.362C505.48 233.771 506.008 233.18 506.511 232.588C500.411 227.168 494.324 221.759 488.274 216.389C487.934 216.854 487.595 217.307 487.255 217.747C486.161 219.168 485.092 220.502 484.048 221.784C481.155 225.281 478.413 228.174 475.835 230.551C466.301 239.33 458.956 241.04 453.598 240.512C449.334 240.085 437.927 237.468 426.381 230.853C421.161 227.859 417.224 224.816 412.885 226.111C408.546 227.407 404.81 232.815 404.974 237.406L404.987 237.393Z" fill="#FFCB9D"/>
    <path d="M475.844 230.538C478.271 234.714 482.271 243.594 479.919 253.844C487.226 250.146 493.276 245.531 497.842 241.43C500.332 239.204 502.709 236.84 504.948 234.362L487.264 217.735C486.17 219.156 485.101 220.489 484.057 221.772C481.164 225.268 478.422 228.161 475.844 230.538Z" fill="black" opacity="0.1"/>
    <path d="M612.762 311.449C608.234 312.191 602.398 309.16 600.562 305.022C598.738 300.884 601.254 296.595 603.568 291.036C607.203 282.307 610.85 272.006 609.706 262.824C608.737 254.976 604.285 249.719 598.248 242.562C595.732 239.581 593.141 237.003 590.601 234.777C585.444 230.262 580.489 227.193 576.766 225.18C580.073 222.967 583.394 220.766 586.777 218.565C590.047 216.427 593.292 214.326 596.525 212.251C596.663 212.351 596.889 212.502 597.154 212.691C598.235 213.446 599.921 214.628 601.945 216.238C606.838 220.137 613.831 226.501 619.629 235.066C624.711 242.562 628.874 251.731 630.131 262.51C632.534 283.363 624.069 309.575 612.75 311.474L612.762 311.449Z" fill="#FFCB9D"/>
    <path d="M601.957 216.213C598.071 220.237 592.801 226.941 590.612 234.764C585.456 230.249 580.5 227.18 576.777 225.168C580.085 222.954 583.406 220.753 586.789 218.552C590.059 216.414 593.304 214.313 596.536 212.238C596.675 212.339 596.901 212.49 597.165 212.678C598.247 213.433 599.932 214.615 601.957 216.225V216.213Z" fill="black" opacity="0.1"/>
    <path d="M556.618 145.113C556.316 148.106 555.813 152.496 555.046 157.891C554.857 159.074 554.694 160.13 554.656 160.47C554.128 163.413 553.423 166.318 552.53 169.161C551.637 172.003 550.568 174.795 549.336 177.512C548.833 178.594 548.317 179.6 547.751 180.581C545.638 184.203 531.338 187.901 519.251 185.826C507.164 183.75 503.479 171.638 509.063 166.897C511.038 164.947 512.648 162.671 513.805 160.155C513.805 160.143 513.817 160.143 513.817 160.13C515.138 157.501 516.308 154.797 517.326 152.03C517.591 151.351 517.829 150.647 518.068 149.955C518.785 147.968 519.163 146.635 519.163 146.635L529.25 138.937L552.241 140.333C551.763 144.056 552.53 146.723 553.675 147.188C553.738 147.213 553.788 147.238 553.851 147.251C553.927 147.276 553.989 147.289 554.065 147.276C554.996 147.276 555.939 146.106 556.392 145.452C556.492 145.314 556.568 145.188 556.618 145.113Z" fill="#FFCB9D"/>
    <path d="M556.617 145.113C556.315 148.106 555.812 152.496 555.045 157.891C554.856 159.074 554.693 160.13 554.655 160.47C554.127 163.413 553.423 166.318 552.53 169.161C551.649 172.003 550.58 174.795 549.335 177.512C547.876 176.946 546.543 176.116 545.386 175.047C544.14 173.865 543.147 172.443 542.443 170.884C541.751 169.198 541.311 167.412 541.172 165.601C541.009 164.419 540.921 163.249 540.896 162.067C537.801 162.897 533.035 163.79 527.224 163.375C521.401 162.973 516.797 161.426 513.816 160.13C515.137 157.501 516.307 154.797 517.326 152.03C517.59 151.364 517.854 150.672 518.105 149.968C518.52 148.836 518.885 147.729 519.212 146.647L529.299 138.95L552.24 140.346H552.303C551.813 144.006 552.555 146.66 553.674 147.188C553.737 147.213 553.787 147.238 553.85 147.251C553.926 147.276 553.989 147.289 554.064 147.276C554.995 147.326 555.951 146.119 556.391 145.452C556.491 145.314 556.567 145.188 556.617 145.113Z" fill="black" opacity="0.1"/>
    <path d="M505.565 143.276C506.181 144.886 506.961 146.433 507.917 147.867C509.074 149.754 510.508 151.452 512.156 152.923C519.576 159.589 531.676 160.671 542.819 155.451C544.706 154.558 546.529 153.527 548.253 152.345H548.303C548.303 152.345 548.328 152.408 548.315 152.445C548.315 153.703 548.202 154.948 548.001 156.181C547.888 156.759 547.888 156.923 547.825 157.3L547.724 157.677C547.611 158.357 546.127 163.01 546.077 165.601C546.089 167.312 546.643 168.985 547.636 170.368C548.29 167.903 549.561 165.626 551.321 163.778C552.001 163.136 552.718 162.545 553.485 162.004C557.107 158.747 559.421 154.269 559.987 149.439C560.189 147.452 560.088 145.452 559.685 143.49C559.484 142.207 558.503 137.541 555.774 134.862C550.139 129.303 535.726 131.164 528.531 133.126C527.274 133.479 525.085 134.145 523.299 133.541C522.96 133.428 522.633 133.252 522.368 133.013C520.557 131.529 520.62 128.322 521.274 126.335C522.532 122.473 527.035 119.845 532.682 119.518C520.746 115.946 509.137 121.216 505.414 130.007C503.716 134.271 503.766 139.038 505.552 143.264L505.565 143.276Z" fill="#454C5E"/>
    <path d="M505.563 143.276C506.18 144.886 506.959 146.433 507.915 147.867C509.072 149.754 510.506 151.452 512.154 152.923C519.575 159.589 531.674 160.671 542.818 155.451C545.534 153.879 547.849 152.559 548.251 152.345H548.301L552.112 149.339C546.075 151.842 539.648 153.238 533.108 153.452C527.335 153.628 519.31 153.892 511.751 148.886C509.412 147.339 507.324 145.44 505.551 143.264L505.563 143.276Z" fill="black" opacity="0.5"/>
    <path d="M594.186 292.406C582.716 290.709 574.239 292.18 568.717 293.803C561.045 296.029 557.976 298.808 549.725 301.45C540.104 304.518 531.664 304.783 526.206 304.569C522.608 294.784 519.112 283.426 516.282 270.648C513.88 259.68 512.37 249.505 511.44 240.323C509.981 240.877 508.471 241.481 506.924 242.135C503.944 243.405 501.176 244.751 498.623 246.109C496.724 243.116 494.775 240.085 492.762 237.041C488.926 231.217 485.09 225.608 481.254 220.225C486.046 215.345 493.58 208.968 504.195 204.289C508.761 202.277 513.062 200.944 516.873 200.051H516.886C520.458 199.12 524.835 198.152 530.104 197.221H530.142C530.847 197.045 541.009 194.655 551.524 193.133C552.668 193.108 553.737 193.108 554.781 193.108C558.504 193.108 561.636 193.397 564.692 194.856C576.389 200.428 577.433 218.778 577.546 221.218L577.999 222.841C578.276 223.734 578.553 224.652 578.829 225.583C581.735 235.167 584.502 245.405 587.067 256.246C587.256 257.077 587.457 257.894 587.633 258.712C590.35 270.509 592.488 281.779 594.199 292.432L594.186 292.406Z" fill="#DADCE0"/>
    <path d="M551.525 193.133C551.449 198.277 544.029 203.157 534.42 204.239C526.81 205.082 519.993 203.296 516.887 200.038C520.459 199.12 524.836 198.152 530.106 197.221C530.106 197.221 530.118 197.221 530.143 197.208C530.848 197.045 541.01 194.655 551.525 193.133Z" fill="#FFCB9D"/>
    <path d="M490.242 432.355L510.026 433.94C510.026 433.94 511.963 428.783 509.385 426.305C506.807 423.828 494.531 428.054 490.255 432.342L490.242 432.355Z" fill="#454C5E"/>
    <path d="M635.968 429.487L639.276 409.917C639.276 409.917 634.308 407.54 631.617 409.892C628.925 412.244 632.057 424.834 635.956 429.487H635.968Z" fill="#454C5E"/>
    <path d="M564.54 228.815C562.892 227.771 555.233 219.722 553.371 216.917C553.836 208.981 554.314 201.032 554.78 193.095C555.685 193.045 556.805 193.007 558.075 193.007C558.075 193.007 560.176 193.007 562.377 193.196C576.715 194.366 584.626 197.887 584.626 197.887C588.449 199.585 595.229 203.283 601.656 211.119C599.052 212.59 595.103 214.892 590.374 217.911C587.959 219.458 586.462 220.59 581.834 223.57C578.853 225.482 574.577 228.287 569.37 231.884C568.414 231.268 565.483 229.419 564.527 228.803L564.54 228.815Z" fill="#DADCE0"/>
    <path d="M435.008 204.277L407.491 191.034C403.291 189.013 398.248 190.779 396.227 194.979L379.657 229.409C377.635 233.609 379.402 238.652 383.601 240.674L411.118 253.917C415.318 255.938 420.362 254.172 422.383 249.972L438.953 215.542C440.974 211.342 439.208 206.299 435.008 204.277Z" fill="#066FD1"/>
    <path d="M594.184 292.406C582.713 290.709 574.236 292.18 568.715 293.803C561.042 296.029 557.974 298.808 549.723 301.45C540.101 304.518 531.662 304.783 526.203 304.569C526.203 304.569 572.953 289.489 587.618 258.699C590.335 270.497 592.473 281.766 594.184 292.419V292.406Z" fill="black" opacity="0.1"/>
    <path d="M412.178 200.704L405.242 197.366C404.291 196.908 403.148 197.308 402.69 198.259L399.352 205.195C398.895 206.147 399.295 207.289 400.246 207.747L407.182 211.085C408.133 211.543 409.276 211.143 409.734 210.191L413.072 203.255C413.53 202.304 413.129 201.162 412.178 200.704Z" fill="#DADCE0"/>
    <path d="M666.92 332.352C663.952 344.879 660.996 357.419 658.028 369.946C657.449 372.424 655.563 374.134 653.424 374.134H579.885C577.797 374.134 575.948 372.499 575.319 370.097C574.187 365.77 573.042 361.431 571.936 357.105C569.659 348.439 567.408 339.785 565.144 331.12C564.163 327.372 566.502 323.561 569.76 323.598C594.94 323.976 620.12 324.353 645.287 324.73C650.984 324.818 656.682 324.906 662.38 324.994C665.536 325.032 667.775 328.692 666.933 332.352H666.92Z" fill="#DADCE0"/>
    <path d="M645.287 324.73C606.951 329.12 581.167 348.829 571.936 357.105C569.659 348.439 567.408 339.785 565.144 331.12C564.163 327.372 566.502 323.561 569.76 323.598C594.94 323.976 620.12 324.353 645.287 324.73Z" fill="black" opacity="0.1"/>
    <path d="M265.398 362.852H186.298L184.928 318.781L184.387 301.223L219.314 300.544C214.069 304.003 205.504 310.92 201.517 322.315C198.536 330.906 198.285 341.622 201.517 342.791C205.881 344.401 212.095 327.548 221.452 328.265C227.728 328.755 229.275 336.717 237.627 343.923C245.915 351.08 256.241 353.432 264.844 354.124L265.398 362.852Z" fill="black" opacity="0.1"/>
</svg>
