<svg xmlns="http://www.w3.org/2000/svg" width="800" height="600" fill="none" viewBox="0 0 800 600">
    <path d="M145.152 310.87C145.152 355.859 192.754 388.578 213.771 424.818C235.47 462.309 240.696 519.567 278.186 541.266C314.541 562.283 366.232 538.766 411.22 538.766C456.209 538.766 507.9 562.283 544.254 541.266C581.744 519.567 586.97 462.309 608.669 424.818C629.687 388.464 677.288 355.859 677.288 310.87C677.288 265.882 629.687 233.163 608.669 196.923C586.97 159.432 581.744 102.061 544.254 80.4753C507.9 59.458 456.209 82.9747 411.22 82.9747C366.232 82.9747 314.541 59.458 278.186 80.4753C240.696 102.174 235.47 159.432 213.771 196.923C192.64 233.163 145.152 265.882 145.152 310.87Z" fill="black" opacity="0.07"/>
    <path d="M123 509.456C123 513.205 237.97 516.159 379.752 516.159C521.534 516.159 636.39 513.091 636.39 509.456C636.39 505.82 521.42 502.753 379.752 502.753C238.084 502.753 123 505.934 123 509.456Z" fill="#1D2535" opacity="0.5"/>
    <path d="M504.719 247.023C504.265 268.04 486.883 284.627 465.979 284.173C444.962 283.718 428.375 266.336 428.829 245.433C429.284 224.529 446.666 207.829 467.569 208.283C487.905 208.737 504.378 225.097 504.719 245.433C504.719 246.001 504.719 246.569 504.719 247.023Z" fill="#DADBE0"/>
    <path d="M504.719 247.023C504.719 268.154 487.678 285.195 466.547 285.195C457.004 285.195 447.801 281.56 440.758 275.198C463.593 269.063 485.292 258.952 504.719 245.433C504.719 246.001 504.719 246.569 504.719 247.023Z" fill="black" opacity="0.1"/>
    <path d="M428.602 315.528C428.261 315.528 427.92 315.415 427.693 315.301C427.125 315.074 426.671 314.619 426.33 314.165C423.149 310.53 392.021 280.537 371.344 260.77C370.322 259.747 370.322 258.157 371.231 257.134C372.253 256.112 373.844 256.112 374.866 257.021C374.98 257.134 389.067 270.54 402.813 283.832C410.879 291.671 417.355 297.919 421.899 302.35C424.512 304.849 426.671 307.008 428.148 308.598C430.874 311.438 431.897 312.461 430.761 314.279C430.42 315.074 429.511 315.528 428.602 315.528Z" fill="#454C5E"/>
    <path d="M526.76 325.639C526.76 358.926 499.722 385.965 466.435 385.965C433.148 385.965 406.109 358.926 406.109 325.639C406.109 292.352 433.148 265.314 466.435 265.314C494.609 265.314 519.148 284.854 525.283 312.461C526.306 316.778 526.76 321.209 526.76 325.639Z" fill="#DADBE0"/>
    <path d="M526.759 325.639C526.759 358.926 499.835 385.965 466.434 385.965C447.348 385.965 429.285 376.876 417.924 361.539C442.236 327.116 483.248 308.371 525.169 312.461C526.305 316.778 526.759 321.209 526.759 325.639Z" fill="black" opacity="0.1"/>
    <path d="M282.504 336.318C282.504 336.318 290.456 370.628 296.023 367.674C301.59 364.72 309.202 352.11 309.202 352.11L305.339 304.736L282.504 336.318Z" fill="#DADBE0"/>
    <path d="M309.204 352.109C309.204 352.109 307.273 355.29 304.66 358.926C302.615 361.766 300.342 364.379 297.616 366.651C297.048 367.106 296.593 367.446 295.912 367.787C293.98 368.81 291.708 365.288 289.663 360.289C289.55 359.948 289.436 359.607 289.209 359.267C286.482 351.769 284.21 344.157 282.393 336.432L305.341 304.849L309.204 352.109Z" fill="black" opacity="0.2"/>
    <path d="M297.727 366.652C297.159 367.106 296.705 367.447 296.023 367.788C294.092 368.81 291.82 365.288 289.775 360.29C289.661 359.949 289.548 359.608 289.32 359.267C289.888 359.267 290.57 359.381 291.138 359.494C294.205 360.403 296.591 363.016 297.727 366.652Z" fill="#454C5E"/>
    <path d="M276.938 254.407C255.58 259.974 240.697 268.268 237.743 274.63C236.266 277.697 235.698 281.105 236.38 284.513C236.948 286.217 237.857 287.922 239.106 289.171L296.819 324.503L304.431 375.74L311.361 376.421L323.63 314.165L276.938 254.407Z" fill="#066FD1"/>
    <path d="M276.938 254.407C255.58 259.974 240.697 268.268 237.743 274.63C236.266 277.697 235.698 281.105 236.38 284.513C236.948 286.217 237.857 287.922 239.106 289.171L296.819 324.503L304.431 375.74L311.361 376.421L323.63 314.165L276.938 254.407Z" fill="black" opacity="0.15"/>
    <path d="M590.608 153.411L580.383 151.025L586.972 147.049C587.768 146.481 587.995 145.458 587.54 144.663C587.086 143.868 585.95 143.641 585.155 144.095L575.384 149.889L560.956 146.594L570.726 135.347L581.974 134.779C582.996 134.779 583.678 133.87 583.678 132.962C583.678 132.053 582.769 131.258 581.86 131.258L574.021 131.712L580.951 123.646C581.633 122.964 581.746 121.828 581.065 121.146C580.383 120.465 579.247 120.351 578.565 121.033C578.452 121.146 578.338 121.26 578.338 121.374L571.408 129.326L570.954 121.715C570.954 120.692 570.045 120.01 569.136 120.01C568.113 120.01 567.432 120.919 567.432 121.828L568 133.075L558.57 143.982L554.821 130.008L560.729 120.351C561.183 119.556 560.956 118.42 560.161 117.965C559.366 117.511 558.23 117.738 557.775 118.534L553.685 125.236L550.959 115.012C550.732 114.103 549.709 113.535 548.8 113.762C547.891 113.989 547.323 115.012 547.551 115.921L550.277 126.145L543.688 122.169C542.893 121.715 541.757 121.942 541.302 122.737C540.848 123.532 541.075 124.668 541.87 125.123L551.527 131.03L555.276 145.118L541.189 141.028L535.963 131.03C535.508 130.121 534.486 129.781 533.577 130.121C532.668 130.576 532.327 131.598 532.668 132.507C532.668 132.621 532.668 132.621 532.782 132.734L536.417 139.664L526.192 136.711C525.284 136.483 524.261 136.938 524.034 137.96C523.807 138.983 524.261 139.892 525.284 140.119L535.395 143.073L528.578 146.594C527.669 147.049 527.329 148.071 527.669 148.98C528.124 149.889 529.146 150.23 530.055 149.889C530.169 149.889 530.169 149.889 530.282 149.775L540.28 144.55L554.367 148.639L543.688 158.864L532.441 158.41C531.418 158.41 530.737 159.205 530.737 160.227C530.737 161.136 531.418 161.818 532.327 161.931L540.166 162.272L532.441 169.543C531.759 170.225 531.646 171.247 532.327 172.042C533.009 172.724 534.031 172.838 534.827 172.156L534.94 172.042L542.552 164.772L542.211 172.383C542.211 173.406 542.893 174.201 543.915 174.201H544.029C544.938 174.201 545.733 173.406 545.733 172.497L546.187 161.25L556.866 151.025L560.956 165.34L555.276 175.11C554.821 175.905 555.049 177.041 555.958 177.496C556.866 177.95 557.889 177.723 558.343 176.814L562.319 169.998L565.273 180.222C565.501 181.017 566.182 181.472 566.977 181.472C567.091 181.472 567.318 181.472 567.432 181.358C568.341 181.131 568.909 180.109 568.682 179.2L565.841 169.089L572.431 172.951C572.658 173.065 572.999 173.179 573.339 173.179C574.362 173.179 575.043 172.383 575.157 171.474C575.157 170.793 574.816 170.225 574.248 169.884L564.478 164.204L560.615 150.003L575.044 153.297L580.837 162.954C581.405 163.749 582.428 163.976 583.223 163.522C584.018 163.067 584.246 161.931 583.791 161.136L579.701 154.32L590.04 156.705C590.153 156.705 590.267 156.705 590.38 156.705C591.403 156.705 592.085 155.91 592.085 154.888C591.971 154.206 591.403 153.525 590.608 153.411Z" fill="#066FD1"/>
    <path d="M400.542 72.1818L394.748 70.8185L398.383 68.66C398.838 68.4328 398.951 67.7511 398.724 67.2967C398.497 66.8423 397.815 66.7286 397.361 66.9559L391.908 70.2505L383.842 68.4328L389.295 62.0708L395.543 61.7299C396.111 61.7299 396.566 61.2755 396.566 60.8211C396.566 60.253 396.111 59.7986 395.657 59.7986C395.543 59.7986 395.543 59.7986 395.43 59.7986L390.999 60.0258L394.861 55.4815C395.202 55.1407 395.202 54.4591 394.748 54.1183C394.293 53.7774 393.725 53.7774 393.385 54.2319L389.522 58.6625L389.295 54.3455C389.181 53.7774 388.613 53.5502 388.045 53.6638C387.704 53.7774 387.477 54.1183 387.363 54.4591L387.704 60.8211L382.478 66.9559L380.32 59.117L383.614 53.6638C383.955 53.2094 383.842 52.6414 383.387 52.3005C382.933 51.9597 382.365 52.0733 382.024 52.5278L381.91 52.6414L379.638 56.3904L378.161 50.71C378.048 50.142 377.48 49.9148 376.912 50.0284C376.344 50.142 376.116 50.71 376.23 51.2781L377.707 56.9584L374.071 54.6863C373.617 54.4591 372.935 54.6863 372.708 55.1407C372.481 55.5951 372.595 56.0496 373.049 56.3904L378.502 59.685L380.547 67.6375L372.594 65.3654L369.641 59.7986C369.3 59.3442 368.732 59.2306 368.277 59.5714C367.937 59.7986 367.709 60.3666 367.937 60.8211L369.982 64.6837L364.301 62.9796C363.733 62.866 363.279 63.2068 363.165 63.7749C363.052 64.2293 363.279 64.7973 363.847 64.9109L369.527 66.5014L365.778 68.5464C365.324 68.7736 365.096 69.3416 365.324 69.9096C365.437 70.2505 365.778 70.4777 366.233 70.4777C366.346 70.4777 366.573 70.4777 366.687 70.3641L372.254 67.4103L380.093 69.6824L374.071 75.3628L367.823 75.1356C367.255 75.022 366.801 75.4764 366.687 75.9308C366.573 76.4989 367.028 76.9533 367.482 77.0669C367.596 77.0669 367.596 77.0669 367.709 77.0669L372.14 77.2941L367.823 81.384C367.482 81.7248 367.369 82.4064 367.823 82.7472C368.05 82.9745 368.277 83.0881 368.505 83.0881C368.732 83.0881 368.959 82.9745 369.186 82.8609L373.503 78.771L373.276 83.0881C373.276 83.6561 373.731 84.1105 374.185 84.1105C374.753 84.1105 375.094 83.6561 375.207 83.2017L375.435 76.8397L381.456 71.1593L383.728 79.2254L380.661 84.6786C380.433 85.133 380.547 85.701 381.001 86.0419C381.456 86.2691 382.024 86.1555 382.365 85.701L384.637 81.8384L386.227 87.5187C386.341 87.9732 386.682 88.2004 387.136 88.2004C387.25 88.2004 387.363 88.2004 387.363 88.2004C387.931 88.0868 388.159 87.5187 388.045 86.9507L386.455 81.2703L390.204 83.4289C390.317 83.5425 390.544 83.5425 390.658 83.5425C390.999 83.5425 391.34 83.3153 391.567 83.0881C391.794 82.6336 391.681 82.0656 391.226 81.7248L385.773 78.5438L383.501 70.5913L391.567 72.409L394.861 77.8621C395.089 78.3166 395.77 78.4302 396.225 78.203C396.679 77.9757 396.793 77.2941 396.566 76.8397L394.293 73.0906L400.087 74.4539C400.201 74.4539 400.201 74.4539 400.315 74.4539C400.883 74.4539 401.337 73.9995 401.223 73.4315C401.223 72.6362 400.996 72.1818 400.542 72.1818Z" fill="#066FD1"/>
    <path d="M460.3 241.229L437.351 252.135C436.215 252.59 435.761 253.953 436.215 254.976C436.67 255.885 437.578 256.339 438.601 256.225L462.913 252.022C464.049 251.795 464.844 250.772 464.731 249.523V249.409L463.367 242.706C463.14 241.57 462.004 240.775 460.868 241.002C460.641 241.116 460.527 241.116 460.3 241.229Z" fill="#066FD1"/>
    <path d="M472.91 169.202L429.625 188.516C427.012 189.652 424.059 188.516 422.922 186.016L409.062 155.229L404.291 144.55C403.155 141.937 404.291 138.983 406.904 137.847L450.188 118.42C452.801 117.284 455.755 118.42 456.891 121.033L474.955 161.364L475.523 162.613C476.659 164.999 475.523 168.066 472.91 169.202Z" fill="#066FD1"/>
    <path d="M472.91 169.202L429.625 188.515C427.012 189.651 424.059 188.515 422.923 186.016L409.062 155.229C421.786 161.591 443.94 168.066 474.955 161.363L475.523 162.613C476.659 164.999 475.523 168.066 472.91 169.202Z" fill="black" opacity="0.1"/>
    <path d="M422.81 185.902L475.637 162.272C478.25 161.136 481.204 162.272 482.34 164.885L483.249 166.93C484.385 169.543 483.249 172.497 480.636 173.633L427.809 197.263C425.196 198.399 422.242 197.263 421.106 194.65L420.197 192.605C419.061 190.106 420.197 187.038 422.81 185.902Z" fill="#066FD1"/>
    <path d="M435.761 168.066C435.534 174.882 427.013 178.972 424.628 179.768C420.197 180.904 415.766 181.699 411.222 182.267C403.269 183.403 393.045 184.653 382.252 185.902C375.663 186.584 368.96 187.379 362.484 187.947H362.371C344.762 189.765 329.311 191.128 324.881 191.469L323.631 191.583L333.401 175.678C333.401 175.678 333.401 175.678 333.401 175.564L333.628 175.337C338.854 174.201 343.512 173.292 347.261 172.497C351.01 171.701 353.85 171.133 355.441 170.793C376.572 165.453 398.498 163.408 419.856 158.75C422.355 158.182 428.263 156.932 432.239 160.113C434.511 162.158 435.875 164.999 435.761 168.066Z" fill="#FFCB9D"/>
    <path d="M382.252 185.789C375.663 186.471 368.96 187.266 362.485 187.834H362.371L361.576 187.947C349.079 188.97 336.81 190.106 324.881 191.469C326.017 189.424 329.652 182.721 333.401 175.791C333.401 175.791 333.401 175.791 333.401 175.678L333.515 175.337C334.197 175.223 343.058 173.292 355.328 170.793C358.509 173.974 362.03 176.7 365.893 178.972C370.892 182.153 376.458 184.426 382.252 185.789Z" fill="black" opacity="0.1"/>
    <path d="M232.062 208.169C229.79 208.851 227.745 209.419 225.7 210.101C206.046 216.804 199.912 224.87 198.208 231.232C197.072 235.208 195.595 246.455 197.526 259.293C198.435 265.087 199.798 269.631 197.185 273.153C194.572 276.674 188.324 278.151 184.234 276.447C174.009 272.13 171.964 245.433 179.008 226.347C185.938 207.601 201.502 196.695 212.636 190.901C216.157 189.083 219.907 187.493 223.656 186.13L232.062 208.169Z" fill="#FFCB9D"/>
    <path d="M232.064 208.169C229.791 208.851 227.746 209.419 225.702 210.101C224.111 200.785 218.09 194.65 212.637 190.901C216.159 189.083 219.908 187.493 223.657 186.13C226.497 193.514 229.337 200.785 232.064 208.169Z" fill="black" opacity="0.1"/>
    <path d="M271.826 117.057C271.826 120.124 271.94 124.555 272.281 130.008C272.394 131.258 272.394 132.28 272.394 132.621C272.962 138.642 274.212 144.55 276.143 150.23C276.598 151.366 276.938 152.388 277.507 153.411C279.324 157.274 293.298 162.272 305.567 161.25C317.837 160.227 322.609 148.412 317.496 143.186C315.678 141.028 314.315 138.642 313.406 136.029C312.043 132.621 310.907 128.985 309.998 125.35C309.43 123.305 309.203 121.942 309.203 121.942L299.774 113.308L276.598 112.626C276.711 116.489 275.689 119.215 274.439 119.442C273.189 119.67 272.053 117.511 271.826 117.057Z" fill="#FFCB9D"/>
    <path d="M271.826 117.057C271.826 120.124 271.94 124.555 272.281 130.008C272.394 131.258 272.394 132.28 272.394 132.621C272.962 138.642 274.212 144.55 276.143 150.23C277.62 149.776 279.097 149.094 280.347 148.071C281.71 147.049 282.846 145.686 283.641 144.209C284.55 142.618 285.118 140.801 285.345 138.983C285.573 137.847 285.8 136.597 285.913 135.461C294.661 138.642 304.318 138.869 313.179 136.029C311.816 132.621 310.68 128.985 309.771 125.35C309.203 123.305 308.976 121.942 308.976 121.942L299.546 113.308L276.37 112.626C276.484 116.489 275.462 119.215 274.212 119.442C272.962 119.67 272.053 117.511 271.826 117.057Z" fill="black" opacity="0.1"/>
    <path d="M323.177 119.783C322.382 121.374 321.473 122.851 320.45 124.214C319.087 126.032 317.497 127.622 315.792 128.872C307.726 134.893 295.57 134.893 284.891 128.645C283.074 127.622 281.37 126.372 279.779 125.009V125.123C279.665 126.372 279.665 127.622 279.779 128.872C279.779 129.44 279.779 129.667 279.893 130.008V130.349C279.893 131.03 281.029 135.802 280.801 138.415C280.574 140.119 279.893 141.709 278.757 143.073C278.302 140.573 277.28 138.188 275.689 136.143C275.008 135.461 274.439 134.779 273.644 134.211C270.35 130.576 268.418 125.918 268.305 121.033C268.305 118.988 268.532 117.057 269.1 115.125C269.441 113.876 270.804 109.331 273.758 106.832C279.893 101.72 294.207 104.901 301.251 107.514C302.5 107.968 304.659 108.877 306.477 108.423C306.817 108.309 307.158 108.195 307.499 107.968C309.43 106.605 309.658 103.424 309.203 101.379C308.294 97.4026 303.977 94.3352 298.411 93.54C310.68 91.0406 321.814 97.4026 324.767 106.491C325.903 110.922 325.449 115.693 323.177 119.783Z" fill="#454C5E"/>
    <path d="M323.176 119.783C322.38 121.374 321.471 122.851 320.449 124.214C319.086 126.032 317.495 127.622 315.791 128.872C307.725 134.893 295.569 134.893 284.89 128.645C282.277 126.827 280.119 125.35 279.778 125.009L276.256 121.715C282.05 124.782 288.412 126.713 294.887 127.508C300.681 128.19 308.634 129.213 316.7 124.896C318.972 123.532 321.244 121.828 323.176 119.783Z" fill="black" opacity="0.5"/>
    <path d="M198.322 399.711L193.096 383.92C193.096 383.92 196.731 381.534 199.23 383.352C201.73 385.17 200.707 395.621 198.322 399.711Z" fill="#454C5E"/>
    <path d="M317.494 397.553L303.066 386.987C303.066 386.987 304.771 382.67 308.065 382.556C311.36 382.443 317.04 392.554 317.494 397.553Z" fill="#454C5E"/>
    <path d="M350.669 200.217L322.381 203.511C313.974 222.37 307.271 236.003 305.681 238.616C303.636 242.024 303.182 242.706 303.182 242.706C302.159 244.069 301.25 245.546 300.455 247.137C299.433 249.409 298.637 251.795 298.183 254.294C297.388 258.952 297.388 263.61 298.183 268.154C298.183 268.154 298.183 268.154 298.183 268.268C298.183 268.381 298.183 268.495 298.183 268.608C298.296 269.176 298.41 269.744 298.524 270.312V270.54C298.637 271.221 298.524 271.789 298.41 272.471C298.41 272.471 298.41 272.471 298.41 272.585C298.296 273.266 298.183 274.061 297.956 274.743L257.966 271.562L207.865 267.586L209.342 266.336C212.41 263.496 215.363 260.429 218.203 257.361L219.226 256.225C231.723 241.683 240.357 224.188 244.333 205.329L229.451 217.94C230.587 205.102 227.065 192.378 219.567 181.926C231.836 173.86 240.13 172.156 245.583 172.156C250.013 172.156 254.444 171.929 258.875 171.474C261.942 171.133 264.442 170.679 266.146 170.338C267.168 170.111 267.963 169.997 268.077 169.997C276.825 168.18 293.866 169.089 293.866 169.089C301.818 169.429 309.884 168.975 317.723 167.612C320.791 166.589 324.085 165.908 327.38 165.794C328.857 165.794 330.447 165.794 331.924 165.908C334.31 166.135 336.696 166.476 339.081 167.044C342.83 177.95 346.693 189.083 350.669 200.217Z" fill="#DADBE0"/>
    <path d="M298.41 272.358C298.296 273.039 298.183 273.721 297.956 274.63L257.966 271.449L207.865 267.473L209.342 266.223C212.41 263.383 215.363 260.315 218.203 257.248L219.226 256.112C231.723 241.57 240.357 224.075 244.22 205.216C248.991 205.216 266.032 205.784 280.46 218.621C292.843 229.641 296.933 243.956 297.956 254.294C297.16 258.952 297.16 263.61 297.956 268.154C297.956 268.268 297.956 268.381 298.069 268.609C298.183 269.177 298.296 269.745 298.41 270.313V270.54C298.524 271.108 298.524 271.79 298.41 272.358Z" fill="black" opacity="0.1"/>
    <path d="M230.132 399.711C231.155 417.434 232.177 435.27 233.313 452.993L198.322 498.663L207.411 501.844L259.67 460.264C260.806 447.54 261.942 434.929 263.078 422.205L277.166 430.84C281.937 433.68 286.595 436.633 291.253 439.587L302.5 490.256L309.998 489.12L313.52 437.315L287.163 393.236L230.132 399.711Z" fill="#066FD1"/>
    <path d="M300.568 306.553L298.523 319.164C296.933 329.388 295.342 339.499 293.638 349.724L291.934 360.744L290.684 368.81L286.935 393.122L230.132 399.711C230.245 396.303 230.245 392.781 230.359 389.373C230.472 385.283 230.472 381.193 230.586 377.103C230.586 375.854 230.586 374.604 230.7 373.354C230.813 370.514 230.813 367.674 230.813 364.834V364.72C230.813 364.607 230.813 364.379 230.813 364.266L230.7 362.902C230.586 361.198 230.586 359.381 230.586 357.563V356.654C230.586 352.451 230.359 348.474 230.132 344.157L229.904 338.023C229.564 325.867 229.109 313.711 228.768 301.555C228.655 297.01 232.177 293.261 236.721 293.148C236.948 293.148 237.289 293.148 237.516 293.148L252.739 294.17L283.641 296.329L292.956 297.01C297.501 297.351 300.909 301.214 300.568 305.758C300.568 305.985 300.568 306.213 300.568 306.553Z" fill="#DADBE0"/>
    <path d="M324.199 503.207L303.409 506.274C303.409 506.274 301.25 501.162 303.977 498.436C306.703 495.709 319.654 499.231 324.199 503.207Z" fill="#454C5E"/>
    <path d="M213.317 518.998L194.004 510.591C194.004 510.591 194.913 505.138 198.662 504.229C202.411 503.321 211.613 513.204 213.317 518.998Z" fill="#454C5E"/>
    <path d="M300.569 306.553L298.524 319.164C296.934 329.388 295.343 339.499 293.639 349.724L291.935 360.744L290.685 368.81L286.936 393.122L230.133 399.711C230.246 396.303 230.246 392.781 230.36 389.373C230.474 385.283 230.474 381.193 230.587 377.103C230.587 375.854 230.587 374.604 230.701 373.354C230.814 370.514 230.814 367.674 230.814 364.834V364.606C230.814 364.038 230.814 363.47 230.701 362.902C230.587 361.198 230.587 359.381 230.587 357.563C258.648 345.975 282.733 326.321 299.547 301.1C300.456 302.918 300.796 304.736 300.569 306.553Z" fill="black" opacity="0.1"/>
    <path d="M328.63 327.684C327.494 326.321 326.13 325.185 324.54 324.276C319.314 321.436 313.293 322.458 311.021 326.321C308.976 329.956 310.793 334.841 314.77 337.795C315.224 338.136 315.792 338.477 316.36 338.818C316.814 339.159 317.383 339.386 317.951 339.499C322.722 341.317 327.721 340.181 329.766 336.546C331.583 334.16 330.902 330.638 328.63 327.684Z" fill="#FFCB9D"/>
    <path d="M328.629 327.684C327.947 326.775 327.152 325.98 326.243 325.298C322.835 329.729 319.086 333.932 314.996 337.795C315.451 338.136 316.019 338.477 316.587 338.704C317.041 339.045 317.609 339.272 318.177 339.386C322.949 341.317 327.947 340.067 329.992 336.432C331.583 334.16 330.901 330.638 328.629 327.684Z" fill="black" opacity="0.1"/>
    <path d="M260.92 293.829C264.442 297.578 269.1 300.191 274.098 301.214L274.666 301.327L282.505 295.193L260.92 293.829Z" fill="#FFCB9D"/>
    <path d="M252.286 287.581L271.599 299.623L261.147 308.712L247.969 291.671L252.286 287.581Z" fill="#066FD1"/>
    <path d="M285.005 290.535L272.281 299.737L279.211 306.667L287.845 293.716L285.005 290.535Z" fill="#066FD1"/>
    <path d="M252.286 287.581L271.599 299.623L261.147 308.712L247.969 291.671L252.286 287.581Z" fill="black" opacity="0.1"/>
    <path d="M285.005 290.535L272.281 299.737L279.211 306.667L287.845 293.716L285.005 290.535Z" fill="black" opacity="0.1"/>
    <path d="M466.436 305.417C470.2 305.417 473.252 302.365 473.252 298.601C473.252 294.836 470.2 291.784 466.436 291.784C462.671 291.784 459.619 294.836 459.619 298.601C459.619 302.365 462.671 305.417 466.436 305.417Z" fill="#454C5E"/>
    <path d="M466.436 342.567C468.318 342.567 469.844 341.041 469.844 339.159C469.844 337.276 468.318 335.75 466.436 335.75C464.553 335.75 463.027 337.276 463.027 339.159C463.027 341.041 464.553 342.567 466.436 342.567Z" fill="#066FD1"/>
    <path d="M516.309 315.528C515.286 315.528 514.264 314.96 513.696 314.165C512.332 312.006 513.468 310.757 516.763 307.576C518.467 305.872 520.853 303.486 524.148 300.305C529.487 295.079 536.985 287.808 546.528 278.606C562.66 263.155 578.906 247.478 579.133 247.364C580.383 246.228 582.201 246.228 583.45 247.478C584.587 248.727 584.586 250.545 583.337 251.681C559.252 274.743 522.898 309.734 519.149 313.938C518.808 314.619 518.24 315.074 517.558 315.301C517.104 315.415 516.763 315.528 516.309 315.528Z" fill="#454C5E"/>
    <path d="M544.029 431.975C544.029 474.805 509.265 509.456 466.435 509.456C423.605 509.456 388.955 474.692 388.955 431.862C388.955 389.032 423.719 354.382 466.549 354.382C495.405 354.382 521.762 370.4 535.167 395.848C540.961 406.982 544.029 419.365 544.029 431.975Z" fill="#DADBE0"/>
    <path d="M466.435 420.501C473.399 420.501 479.045 414.855 479.045 407.891C479.045 400.926 473.399 395.28 466.435 395.28C459.47 395.28 453.824 400.926 453.824 407.891C453.824 414.855 459.47 420.501 466.435 420.501Z" fill="white"/>
    <path d="M544.029 431.976C543.915 474.805 509.152 509.569 466.322 509.456C433.035 509.456 403.611 488.211 392.932 456.742C432.921 454.697 488.589 442.314 535.168 395.962C541.075 406.982 544.029 419.365 544.029 431.976Z" fill="black" opacity="0.1"/>
    <path d="M320.222 203.057L310.224 183.289C312.042 182.608 313.746 181.926 315.45 181.017C317.495 179.995 318.518 177.609 317.836 175.337L316.473 171.02L315.791 168.861L314.882 165.794C314.2 163.522 311.815 162.045 309.543 162.499C294.433 165.226 283.867 162.045 277.846 159.091C275.46 157.955 272.62 158.864 271.484 161.25C271.257 161.704 271.143 162.158 271.03 162.613L270.348 166.816L269.894 169.429L269.326 173.292C268.985 175.11 269.78 176.927 271.257 177.95C273.984 179.881 276.824 181.585 279.891 182.835C278.641 187.606 274.665 197.263 265.009 203.625C259.669 207.033 253.648 209.078 247.286 209.419C246.945 209.419 246.491 209.533 246.15 209.76C244.787 210.441 244.219 212.146 244.9 213.509L250.694 224.87C251.376 226.233 252.966 226.801 254.33 226.119C271.484 218.28 284.663 203.625 290.797 185.789C293.41 186.13 296.023 186.13 298.636 185.902C301.249 191.81 301.817 204.42 301.931 211.123C301.931 211.578 302.045 211.918 302.272 212.373C302.953 213.736 304.658 214.304 306.021 213.622L319.313 206.92C320.449 206.124 320.903 204.42 320.222 203.057Z" fill="#066FD1"/>
    <path d="M276.953 163.511C277.21 163.581 277.361 163.847 277.291 164.104L274.45 174.443C274.38 174.7 274.114 174.851 273.857 174.78C273.6 174.71 273.449 174.444 273.519 174.187L276.36 163.848C276.43 163.591 276.696 163.44 276.953 163.511Z" fill="#DADBE0"/>
    <path d="M291.282 165.381C292.075 165.459 292.654 166.166 292.575 166.959L291.212 180.705C291.133 181.498 290.426 182.077 289.634 181.999C288.841 181.92 288.262 181.214 288.34 180.421L289.703 166.674C289.782 165.881 290.489 165.302 291.282 165.381Z" fill="#DADBE0"/>
    <path d="M309.594 166.461C309.461 165.994 308.973 165.723 308.506 165.857C308.038 165.99 307.768 166.477 307.901 166.945L311.082 178.078C311.216 178.546 311.703 178.817 312.171 178.683C312.638 178.55 312.909 178.062 312.775 177.595L309.594 166.461Z" fill="#DADBE0"/>
    <path d="M281.937 172.951C283.067 172.951 283.982 172.036 283.982 170.906C283.982 169.777 283.067 168.861 281.937 168.861C280.808 168.861 279.892 169.777 279.892 170.906C279.892 172.036 280.808 172.951 281.937 172.951Z" fill="#DADBE0"/>
    <path d="M303.068 173.633C303.068 175.139 301.847 176.36 300.341 176.36C298.835 176.36 297.615 175.139 297.615 173.633C297.615 172.127 298.835 170.906 300.341 170.906C301.847 170.906 303.068 172.127 303.068 173.633Z" fill="#DADBE0"/>
    <path d="M263.191 422.205C263.759 413.344 264.214 404.483 264.782 395.735L286.935 393.236L313.406 437.315L309.884 489.12L302.386 490.256L291.139 439.701L263.191 422.205Z" fill="black" opacity="0.1"/>
    <path d="M215.818 268.041C215.818 272.471 216.386 277.015 217.182 281.446C219.227 291.444 223.203 300.873 228.997 309.166C217.977 331.206 207.071 353.246 196.051 375.286L204.117 380.512L263.761 314.279C259.216 299.851 254.786 285.309 250.241 270.881L215.818 268.041Z" fill="#066FD1"/>
    <path d="M237.744 332.569C238.88 331.206 240.243 330.07 241.834 329.161C247.06 326.321 253.081 327.343 255.353 331.206C257.398 334.841 255.58 339.726 251.604 342.68C251.149 343.021 250.581 343.362 250.013 343.589C249.559 343.93 248.991 344.157 248.423 344.271C243.651 346.202 238.653 344.952 236.608 341.317C234.904 339.045 235.585 335.409 237.744 332.569Z" fill="#FFCB9D"/>
    <path d="M237.745 332.569C238.426 331.66 239.222 330.865 240.13 330.184C243.539 334.614 247.288 338.818 251.378 342.68C250.923 343.021 250.355 343.362 249.787 343.589C249.333 343.93 248.765 344.157 248.197 344.271C243.425 346.202 238.426 344.953 236.381 341.317C234.905 339.045 235.586 335.409 237.745 332.569Z" fill="black" opacity="0.1"/>
    <path d="M253.421 352.564C247.172 358.017 240.129 362.334 232.403 365.174C223.542 368.583 209.341 373.809 199.457 367.901C199.117 367.674 198.662 367.447 198.321 367.219C191.164 362.107 189.574 352.564 189.687 344.725C189.687 340.522 190.255 336.318 191.164 332.228C195.027 316.664 206.615 307.235 214.681 302.236C217.18 300.646 219.793 299.282 222.52 298.146C223.542 300.305 224.792 302.577 226.155 304.963C227.064 306.553 227.973 307.916 228.882 309.28C225.36 316.323 221.838 323.367 218.316 330.411C216.271 330.751 214.454 331.66 212.863 333.024C210.591 334.728 210.023 337.909 211.727 340.181C212.068 340.635 212.409 340.976 212.863 341.317C215.362 340.635 217.748 339.84 220.134 338.818C225.019 336.659 229.45 333.819 233.426 330.411L253.421 352.564Z" fill="#DADBE0"/>
    <path d="M228.995 309.166C225.473 316.21 221.952 323.253 218.43 330.297C216.385 330.638 214.567 331.547 212.977 332.91C213.431 331.092 214.794 328.366 218.202 324.503C224.11 317.914 218.43 307.576 214.681 302.236C217.18 300.646 219.793 299.282 222.52 298.146C223.542 300.305 224.792 302.577 226.155 304.963C227.177 306.326 228.086 307.803 228.995 309.166Z" fill="black" opacity="0.1"/>
    <path d="M199.457 367.901C199.117 367.674 198.662 367.447 198.321 367.22C191.164 362.107 189.574 352.564 189.687 344.725C193.891 346.884 197.072 350.406 198.662 354.836C200.48 358.813 200.707 363.471 199.457 367.901Z" fill="#454C5E"/>
    <path d="M241.947 251.113C242.402 253.839 243.197 257.929 244.219 263.042C244.447 264.064 244.674 265.086 244.787 265.427C246.151 270.88 248.196 276.106 250.922 280.991L252.626 283.718C254.785 287.013 268.418 289.512 279.665 286.672C290.912 283.832 293.411 272.357 287.845 268.267C285.913 266.563 284.209 264.518 282.959 262.246C281.142 259.293 279.665 256.225 278.302 253.044C277.506 251.226 277.052 250.09 277.052 250.09L267.168 243.615L245.81 246.455C246.492 249.977 245.924 252.703 244.787 253.044C243.651 253.385 242.174 251.567 241.947 251.113Z" fill="#FFCB9D"/>
    <path d="M241.947 251.113C242.402 253.84 243.197 257.929 244.219 263.042C244.447 264.064 244.674 265.087 244.787 265.427C246.151 270.881 248.196 276.107 250.922 280.992C253.762 279.628 255.921 277.243 256.83 274.289C257.398 272.698 257.625 270.994 257.625 269.29C257.739 268.154 257.739 267.018 257.625 265.882C266.146 267.472 275.007 266.223 282.846 262.36C281.028 259.406 279.551 256.339 278.188 253.158C277.393 251.34 276.938 250.204 276.938 250.204L266.941 243.729L245.583 246.569C246.264 250.091 245.696 252.817 244.56 253.158C243.424 253.499 242.061 251.567 241.947 251.113Z" fill="black" opacity="0.1"/>
    <path d="M239.902 256.112C240.583 260.542 242.969 264.519 246.491 267.359C247.173 267.813 247.854 268.268 248.536 268.836C250.24 270.426 251.49 272.471 252.285 274.743C253.08 273.38 253.535 271.79 253.421 270.199C252.967 267.813 252.398 265.428 251.603 263.042C251.603 262.928 251.49 262.815 251.49 262.701C251.376 262.36 251.262 262.019 251.262 261.679C251.035 260.542 250.922 259.406 250.808 258.27V258.157C256.716 260.656 273.189 266.677 282.618 257.475C284.095 255.998 285.231 254.408 286.253 252.59C286.367 252.476 286.481 252.249 286.481 252.136C286.708 251.681 286.935 251.227 287.049 250.772L287.162 250.659C287.617 249.409 287.844 248.159 287.958 246.796V246.455C287.844 243.615 286.367 241.002 283.981 239.412C280.8 237.253 277.165 235.776 273.529 234.981C263.986 232.595 249.899 233.504 243.31 242.706C241.606 245.092 240.583 247.932 240.243 250.772C239.674 252.59 239.675 254.408 239.902 256.112Z" fill="#454C5E"/>
    <path d="M250.695 258.157C256.602 260.656 273.075 266.677 282.505 257.475C283.982 255.998 285.118 254.408 286.14 252.59C286.254 252.476 286.367 252.249 286.367 252.135C286.595 251.681 286.822 251.227 286.935 250.772L287.049 250.659C287.503 249.409 287.731 248.159 287.844 246.796C285.799 249.522 283.186 251.908 280.346 253.726C266.145 262.815 248.991 256.112 246.378 254.976L246.15 254.862C247.627 256.112 249.218 257.248 250.695 258.157Z" fill="black" opacity="0.5"/>
</svg>
