<svg xmlns="http://www.w3.org/2000/svg" width="800" height="600" fill="none" viewBox="0 0 800 600">
    <path d="M128.178 300.002C128.178 347.033 177.866 381.145 199.822 419.128C222.621 458.417 227.983 518.205 267.214 540.866C305.197 562.821 359.277 538.254 406.307 538.254C453.338 538.254 507.418 562.844 545.378 540.866C584.563 518.205 589.983 458.313 612.689 419.128C634.645 381.145 684.333 347.033 684.333 300.002C684.333 252.971 634.645 218.848 612.689 180.865C590.029 141.68 584.563 81.7996 545.378 59.1161C507.361 37.1606 453.292 61.7854 406.261 61.7854C359.23 61.7854 305.15 37.149 267.214 59.1161C228.029 81.7996 222.621 141.68 199.903 180.865C177.947 218.848 128.259 252.96 128.259 300.002" fill="black" opacity="0.07"/>
    <path d="M298.125 519.973C298.125 522.7 380.643 524.908 482.447 524.908C584.251 524.908 666.758 522.7 666.758 519.973C666.758 517.246 584.24 515.074 482.447 515.074C380.655 515.074 298.125 517.269 298.125 519.973Z" fill="#1D2535" opacity="0.5"/>
    <path d="M148.215 219.46H113.144C108.671 219.46 105.044 223.087 105.044 227.561V262.632C105.044 267.106 108.671 270.732 113.144 270.732H148.215C152.689 270.732 156.316 267.106 156.316 262.632V227.561C156.316 223.087 152.689 219.46 148.215 219.46Z" fill="#DADBE0"/>
    <path d="M335.391 255.479H191.548C190.309 255.473 189.115 255.02 188.185 254.202C187.254 253.384 186.651 252.258 186.487 251.03L184.8 238.897C184.714 238.393 184.729 237.878 184.845 237.38C184.961 236.883 185.174 236.413 185.473 235.999C185.772 235.585 186.151 235.235 186.587 234.968C187.023 234.702 187.507 234.525 188.012 234.448H332.629C333.868 234.456 335.063 234.91 335.995 235.727C336.927 236.544 337.533 237.669 337.702 238.897L339.228 251.03C339.4 252.025 339.177 253.048 338.604 253.879C338.032 254.711 337.156 255.285 336.165 255.479C335.913 255.402 335.643 255.402 335.391 255.479Z" fill="#DADBE0"/>
    <path d="M318.716 332.774H197.095C194.853 332.774 192.9 330.763 192.472 328.267L191.571 321.08C191.392 320.109 191.585 319.106 192.112 318.271C192.638 317.436 193.46 316.83 194.414 316.573H316.775C319.017 316.573 320.97 318.584 321.397 321.08L322.299 328.267C322.478 329.238 322.285 330.241 321.758 331.076C321.231 331.911 320.409 332.517 319.456 332.774H318.716Z" fill="#066FD1"/>
    <path d="M110.694 238.088C113.45 239.335 116.071 240.861 118.517 242.641C121.494 244.688 124.271 247.009 126.814 249.574C129.802 242.058 134.176 235.17 139.71 229.271C147.334 221.071 156.75 214.743 167.224 210.782C150.957 229.031 139.265 250.887 133.112 274.546C130.662 271.079 127.427 266.734 123.359 261.638C118.483 255.652 114.612 251.365 111.804 248.326C108.464 244.582 104.154 240.076 99 234.98C103.02 235.485 106.954 236.531 110.694 238.088Z" fill="#066FD1"/>
    <path d="M148.215 300.788H113.144C108.671 300.788 105.044 304.415 105.044 308.889V343.96C105.044 348.433 108.671 352.06 113.144 352.06H148.215C152.689 352.06 156.316 348.433 156.316 343.96V308.889C156.316 304.415 152.689 300.788 148.215 300.788Z" fill="#DADBE0"/>
    <path d="M110.695 319.427C113.465 320.672 116.099 322.201 118.552 323.992C121.529 326.038 124.306 328.36 126.849 330.925C129.837 323.408 134.211 316.521 139.745 310.622C147.366 302.418 156.783 296.089 167.259 292.133C150.995 310.379 139.303 332.231 133.147 355.885C130.697 352.418 127.462 348.085 123.394 342.989C118.518 337.003 114.647 332.716 111.839 329.665C108.499 325.921 104.189 321.415 99.0352 316.33C103.043 316.835 106.965 317.877 110.695 319.427Z" fill="#066FD1"/>
    <path d="M148.216 383.514C149.382 383.517 150.5 383.982 151.325 384.807C152.15 385.632 152.615 386.75 152.618 387.917V422.988C152.615 424.155 152.15 425.273 151.325 426.098C150.5 426.923 149.382 427.387 148.216 427.39H113.145C111.978 427.387 110.86 426.923 110.035 426.098C109.21 425.273 108.745 424.155 108.742 422.988V387.917C108.745 386.75 109.21 385.632 110.035 384.807C110.86 383.982 111.978 383.517 113.145 383.514H148.216ZM148.216 379.816H113.145C110.999 379.816 108.942 380.669 107.425 382.186C105.908 383.703 105.056 385.76 105.056 387.905V422.976C105.056 425.122 105.908 427.179 107.425 428.696C108.942 430.213 110.999 431.065 113.145 431.065H148.216C150.361 431.065 152.418 430.213 153.935 428.696C155.452 427.179 156.304 425.122 156.304 422.976V387.917C156.304 385.772 155.452 383.714 153.935 382.197C152.418 380.68 150.361 379.828 148.216 379.828V379.816Z" fill="#A7AAB3"/>
    <path d="M326.101 103.501H117.431C111.151 103.501 106.061 108.592 106.061 114.871V163.486C106.061 169.765 111.151 174.856 117.431 174.856H326.101C332.381 174.856 337.471 169.765 337.471 163.486V114.871C337.471 108.592 332.381 103.501 326.101 103.501Z" fill="#232B41"/>
    <path d="M117.432 106.286C112.69 106.286 108.846 110.13 108.846 114.871V163.486C108.846 168.227 112.69 172.071 117.432 172.071H326.101C330.843 172.071 334.687 168.227 334.687 163.486V114.871C334.687 110.13 330.843 106.286 326.101 106.286H117.432ZM103.276 114.871C103.276 107.054 109.614 100.716 117.432 100.716H326.101C333.919 100.716 340.257 107.054 340.257 114.871V163.486C340.257 171.303 333.919 177.641 326.101 177.641H117.432C109.614 177.641 103.276 171.303 103.276 163.486V114.871Z" fill="#454C5E"/>
    <path d="M142.16 155.397V129.455H131.887V121.955H161.839V129.455H151.624V155.397H142.16Z" fill="#A7AAB3"/>
    <path d="M181.761 156.067C179.246 156.085 176.748 155.646 174.389 154.773C172.213 153.978 170.223 152.748 168.538 151.159C166.853 149.57 165.51 147.654 164.59 145.528C163.639 143.342 163.158 140.979 163.18 138.595C163.151 136.21 163.632 133.846 164.59 131.662C165.511 129.585 166.834 127.712 168.484 126.15C170.176 124.548 172.172 123.302 174.354 122.487C179.144 120.776 184.378 120.776 189.168 122.487C191.348 123.303 193.347 124.54 195.05 126.127C196.708 127.708 198.032 129.606 198.944 131.708C199.895 133.894 200.372 136.257 200.342 138.641C200.365 141.022 199.897 143.382 198.967 145.574C198.063 147.664 196.738 149.545 195.073 151.098C193.359 152.679 191.353 153.912 189.168 154.726C186.801 155.62 184.291 156.074 181.761 156.067ZM181.761 148.232C182.98 148.239 184.188 148.011 185.32 147.562C186.402 147.124 187.378 146.462 188.186 145.621C189.017 144.755 189.669 143.734 190.104 142.616C191.028 140.07 191.028 137.281 190.104 134.735C189.672 133.612 189.02 132.587 188.186 131.719C187.381 130.877 186.403 130.219 185.32 129.79C183.032 128.896 180.491 128.896 178.202 129.79C177.115 130.225 176.131 130.882 175.313 131.719C174.471 132.578 173.821 133.606 173.407 134.735C172.513 137.286 172.513 140.065 173.407 142.616C173.82 143.727 174.46 144.741 175.286 145.592C176.111 146.443 177.104 147.114 178.202 147.562C179.335 148.011 180.543 148.239 181.761 148.232Z" fill="#A7AAB3"/>
    <path d="M219.27 155.397V121.955H235.077C238.425 121.884 241.743 122.588 244.773 124.012C247.465 125.279 249.745 127.282 251.348 129.79C252.951 132.453 253.754 135.522 253.659 138.63C253.753 141.759 252.951 144.85 251.348 147.539C249.743 150.044 247.464 152.047 244.773 153.317C241.741 154.735 238.424 155.439 235.077 155.374L219.27 155.397ZM228.722 147.839H234.604C236.352 147.869 238.081 147.472 239.642 146.684C241.03 145.97 242.181 144.871 242.958 143.518C243.741 141.995 244.149 140.307 244.149 138.595C244.149 136.883 243.741 135.195 242.958 133.672C242.173 132.335 241.022 131.249 239.642 130.541C238.074 129.777 236.347 129.401 234.604 129.443H228.722V147.839Z" fill="#066FD1"/>
    <path d="M275.545 156.067C273.029 156.101 270.527 155.678 268.161 154.819C265.986 154.024 263.995 152.795 262.31 151.205C260.626 149.616 259.282 147.7 258.362 145.574C257.411 143.388 256.931 141.026 256.952 138.641C256.924 136.256 257.404 133.892 258.362 131.708C259.297 129.604 260.644 127.708 262.323 126.133C264.002 124.557 265.979 123.333 268.138 122.533C272.924 120.819 278.155 120.819 282.941 122.533C285.122 123.346 287.121 124.584 288.823 126.173C290.535 127.762 291.895 129.693 292.815 131.841C293.734 133.988 294.193 136.305 294.161 138.641C294.18 141.023 293.708 143.383 292.774 145.574C291.875 147.666 290.548 149.548 288.88 151.098C287.166 152.679 285.161 153.912 282.975 154.726C280.602 155.625 278.083 156.079 275.545 156.067ZM275.545 148.232C276.764 148.239 277.972 148.011 279.104 147.562C280.184 147.121 281.16 146.46 281.97 145.621C282.794 144.752 283.442 143.732 283.877 142.616C284.8 140.07 284.8 137.281 283.877 134.735C283.443 133.616 282.795 132.591 281.97 131.719C281.163 130.88 280.186 130.222 279.104 129.79C276.816 128.896 274.275 128.896 271.986 129.79C270.898 130.222 269.913 130.88 269.097 131.719C268.256 132.581 267.603 133.608 267.179 134.735C266.285 137.286 266.285 140.065 267.179 142.616C267.605 143.739 268.258 144.762 269.097 145.621C269.916 146.46 270.899 147.121 271.986 147.562C273.118 148.012 274.327 148.24 275.545 148.232Z" fill="#066FD1"/>
    <path d="M302.481 139.866C301.769 139.884 301.06 139.76 300.396 139.502C299.731 139.244 299.124 138.857 298.61 138.364C298.086 137.854 297.675 137.24 297.404 136.561C297.134 135.882 297.009 135.154 297.039 134.423C297.008 133.707 297.133 132.992 297.404 132.328C297.675 131.664 298.087 131.066 298.61 130.575C299.681 129.636 301.057 129.118 302.481 129.118C303.906 129.118 305.282 129.636 306.352 130.575C306.878 131.065 307.291 131.663 307.564 132.327C307.837 132.991 307.964 133.706 307.936 134.423C307.963 135.155 307.836 135.883 307.564 136.562C307.291 137.241 306.878 137.855 306.352 138.364C305.839 138.859 305.233 139.246 304.568 139.504C303.903 139.762 303.194 139.885 302.481 139.866ZM302.481 155.824C301.769 155.842 301.06 155.718 300.396 155.46C299.731 155.203 299.124 154.816 298.61 154.322C298.086 153.813 297.675 153.198 297.404 152.519C297.134 151.84 297.009 151.112 297.039 150.382C297.008 149.665 297.133 148.95 297.404 148.286C297.675 147.622 298.087 147.024 298.61 146.534C299.681 145.594 301.057 145.076 302.481 145.076C303.906 145.076 305.282 145.594 306.352 146.534C306.878 147.023 307.291 147.621 307.564 148.285C307.837 148.949 307.964 149.664 307.936 150.382C307.963 151.113 307.836 151.841 307.564 152.52C307.291 153.199 306.878 153.813 306.352 154.322C305.839 154.817 305.233 155.204 304.568 155.462C303.903 155.72 303.194 155.843 302.481 155.824Z" fill="#066FD1"/>
    <path d="M583.893 414.448H189.988C188.351 414.395 186.782 413.778 185.546 412.703C184.31 411.627 183.483 410.158 183.205 408.543L181.83 399.623C181.682 398.896 181.699 398.146 181.882 397.428C182.064 396.709 182.406 396.041 182.883 395.473C183.36 394.906 183.958 394.453 184.634 394.149C185.31 393.845 186.046 393.698 186.787 393.718H580.738C582.375 393.771 583.944 394.388 585.18 395.463C586.416 396.539 587.243 398.008 587.521 399.623L588.896 408.543C589.045 409.274 589.027 410.028 588.842 410.75C588.657 411.472 588.311 412.143 587.829 412.711C587.347 413.28 586.742 413.732 586.06 414.033C585.379 414.334 584.637 414.476 583.893 414.448Z" fill="#454C5E"/>
    <path d="M408.561 260.182C408.256 258.955 407.719 257.798 406.978 256.773C404.666 252.833 400.784 250.938 397.294 252.232C392.787 253.896 390.488 260.032 392.267 266.191C392.438 266.857 392.694 267.498 393.03 268.098C395.179 272.963 399.605 275.632 403.546 274.141C407.902 272.454 410.225 266.191 408.561 260.182Z" fill="#FFCB9D"/>
    <path d="M408.561 260.182C408.257 258.955 407.719 257.798 406.978 256.773C405.314 258.044 403.951 259.084 403.015 259.766C400.426 261.696 399.409 262.401 397.873 263.707C396.648 264.747 395.7 265.648 395.088 266.249L393.678 267.52L392.927 267.936C395.065 272.801 399.502 275.482 403.431 273.991C407.903 272.454 410.225 266.191 408.561 260.182Z" fill="black" opacity="0.1"/>
    <path d="M464.709 222.812C466.338 225.596 468.834 229.745 471.885 234.644C472.625 235.8 473.249 236.644 473.433 236.956C477.072 242.234 481.34 247.05 486.144 251.296C487.184 252.116 488.051 252.867 489.08 253.688C491.772 255.606 501.213 254.543 510.365 250.915C513.548 249.688 516.574 248.086 519.378 246.142C528.23 240.237 528.727 230.276 524.647 225.446C523.681 224.285 522.389 223.44 520.938 223.02C518.152 221.983 515.562 220.483 513.277 218.582C510.138 216.154 507.226 213.447 504.576 210.493C503.68 209.622 502.835 208.7 502.045 207.732L488.756 204.623L466.801 216.179C468.985 219.726 469.412 222.835 468.361 223.701C467.309 224.568 465.183 223.158 464.709 222.812Z" fill="#FFCB9D"/>
    <path d="M464.709 222.812C466.338 225.596 468.834 229.745 471.885 234.644C472.624 235.8 473.249 236.644 473.433 236.956C477.072 242.234 481.34 247.05 486.144 251.296C487.32 250.074 488.264 248.649 488.929 247.09C489.612 245.363 489.976 243.527 490.004 241.67C489.931 239.7 489.561 237.752 488.906 235.892C488.544 234.68 488.116 233.488 487.624 232.322C497.509 230.72 506.566 225.835 513.335 218.455C510.192 216.027 507.276 213.32 504.622 210.366C503.731 209.493 502.89 208.571 502.103 207.604L488.779 204.496L466.824 216.109C469.008 219.657 469.435 222.765 468.372 223.62C467.309 224.476 465.125 223.216 464.64 222.869" fill="black" opacity="0.1"/>
    <path d="M464.489 228.994C467.002 233.509 471.13 236.906 476.045 238.504C477.073 238.723 477.986 239.001 478.887 239.278C481.371 240.336 483.551 241.996 485.231 244.108C485.646 242.366 485.479 240.536 484.758 238.897C483.602 236.47 480.136 232.53 479.858 231.964L479.673 231.605C479.474 231.249 479.242 230.912 478.98 230.6C478.243 229.481 477.616 228.292 477.108 227.052L477.039 226.925C484.423 227.411 504.633 227.191 510.908 213.544C511.865 211.402 512.56 209.151 512.976 206.842C513.054 206.631 513.089 206.407 513.08 206.183C513.181 205.607 513.228 205.023 513.219 204.438V204.253C513.294 202.717 513.094 201.179 512.63 199.712L512.503 199.181C512.311 198.529 511.989 197.924 511.555 197.401C510.063 195.272 507.857 193.747 505.338 193.102C500.635 191.658 495.192 192.259 492.199 192.629C480.829 193.784 466.292 200.429 462.687 213.105C461.875 216.369 461.812 219.774 462.502 223.066C462.867 225.129 463.516 227.132 464.432 229.017" fill="#454C5E"/>
    <path d="M477.039 226.902C484.423 227.388 504.634 227.168 510.909 213.521C511.866 211.379 512.561 209.128 512.977 206.819C513.055 206.608 513.09 206.384 513.081 206.16C513.182 205.584 513.228 205 513.22 204.415C513.197 204.39 513.184 204.357 513.184 204.323C513.184 204.289 513.197 204.256 513.22 204.23C513.294 202.693 513.095 201.156 512.63 199.689C511.394 203.42 509.573 206.93 507.234 210.089C495.609 225.654 474.428 225.192 471.065 225.111H470.765C472.764 225.724 474.867 226.267 476.982 226.821" fill="black" opacity="0.5"/>
    <path d="M519.552 494.031L498.694 484.937C498.694 484.937 499.665 479.067 503.582 478.165C507.5 477.264 517.634 487.676 519.61 494.031" fill="#454C5E"/>
    <path d="M445.146 486.358L467.193 480.581C467.193 480.581 467.136 474.629 463.403 473.139C459.671 471.648 448.069 480.396 445.146 486.381" fill="#454C5E"/>
    <path d="M614.319 282.473C610.054 299.749 601.668 315.735 589.879 329.065C586.897 332.381 584.101 335.489 581.328 338.101C576.37 342.723 571.448 345.832 565.543 345.739C551.364 345.52 539.508 327.031 534.782 309.732C534.285 307.918 533.858 306.127 533.523 304.359C533.06 307.987 532.61 311.604 532.147 315.233C531.292 321.912 530.449 328.464 529.594 335.143C528.068 346.768 526.682 358.531 525.145 370.295L465.114 368.654C464.351 356.971 463.739 345.15 462.988 333.329C462.579 325.625 462.148 317.921 461.693 310.218C458.897 319.162 454.263 328.14 448.462 334.484C443.586 339.857 437.866 343.393 431.718 343.486C422.474 343.636 415.668 336.021 407.394 326.811C395.605 313.482 387.219 297.496 382.954 280.219L413.218 259.419C420.822 299.586 426.38 307.433 430.031 307.34C434.873 307.236 442.28 292.954 445.423 282.473C446.833 277.758 448.497 270.016 455.095 265.844C456.31 265.083 457.614 264.474 458.978 264.03L538.295 266.191C539.65 266.633 540.946 267.239 542.154 267.994C548.753 272.165 550.417 279.907 551.826 284.622C554.97 295.103 562.377 309.374 567.218 309.49C570.858 309.582 576.463 301.736 584.032 261.569L614.319 282.473Z" fill="#066FD1"/>
    <path d="M588.099 263.025C588.399 261.8 588.937 260.645 589.682 259.627C591.993 255.687 595.876 253.78 599.366 255.075C603.873 256.739 606.161 262.875 604.381 269.034C604.214 269.699 603.962 270.34 603.63 270.94C601.481 275.805 597.043 278.474 593.114 276.984C588.735 275.297 586.424 269.034 588.099 263.025Z" fill="#FFCB9D"/>
    <path d="M588.099 263.025C588.401 261.8 588.939 260.646 589.682 259.627C591.335 260.887 592.71 261.939 593.634 262.609C596.234 264.539 597.251 265.243 598.788 266.549C599.943 267.589 600.96 268.491 601.561 269.091L602.983 270.363L603.734 270.779C601.584 275.643 597.159 278.324 593.218 276.834C588.735 275.297 586.424 269.034 588.099 263.025Z" fill="black" opacity="0.1"/>
    <path d="M687.658 185.945L623.315 193.754C619.526 194.214 616.828 197.658 617.288 201.446L621.347 234.897C621.807 238.685 625.251 241.384 629.04 240.924L693.383 233.115C697.171 232.655 699.87 229.211 699.41 225.422L695.35 191.972C694.89 188.183 691.446 185.485 687.658 185.945Z" fill="#066FD1"/>
    <path d="M686.641 197.228L627.862 204.362C627.26 204.435 626.832 204.982 626.905 205.584L627.264 208.544C627.337 209.146 627.884 209.574 628.486 209.501L687.265 202.368C687.867 202.294 688.296 201.747 688.223 201.145L687.863 198.186C687.79 197.584 687.243 197.155 686.641 197.228Z" fill="#DADBE0"/>
    <path d="M666.697 211.985L629.713 216.474C628.769 216.588 628.097 217.447 628.211 218.39L629.42 228.348C629.534 229.292 630.393 229.964 631.336 229.849L668.32 225.361C669.264 225.246 669.936 224.388 669.822 223.444L668.613 213.487C668.499 212.543 667.641 211.871 666.697 211.985Z" fill="#A7AAB3"/>
    <path d="M616.63 143.506C616.813 142.888 616.956 142.259 617.057 141.623C617.127 141.126 617.577 138.26 616.757 137.936C616.41 137.786 615.763 138.214 615.463 138.699C615.382 138.836 615.312 138.979 615.255 139.127L615.058 140.34C610.967 153.297 606.873 166.232 602.775 179.143C602.517 179.927 601.963 180.579 601.231 180.959C600.499 181.339 599.646 181.418 598.857 181.177L529.778 159.025C529.389 158.901 529.028 158.7 528.716 158.436C528.403 158.171 528.147 157.848 527.96 157.484C527.773 157.12 527.66 156.723 527.627 156.315C527.594 155.907 527.642 155.497 527.768 155.108L540.479 117.055L540.317 116.27C540.421 114.294 540.017 113.959 539.924 113.959C539.346 113.751 538.202 115.357 537.682 116.27C537.432 116.725 537.231 117.205 537.081 117.703C533.23 129.89 529.332 142.065 525.387 154.23C524.937 155.645 525.068 157.182 525.751 158.502C526.433 159.821 527.612 160.816 529.027 161.267L598.106 183.419C599.524 183.866 601.06 183.734 602.381 183.052C603.702 182.37 604.699 181.193 605.155 179.779C605.594 178.531 610.274 163.774 616.63 143.506Z" fill="#A7AAB3"/>
    <path d="M593.01 153.062L600.452 174.221C600.543 174.477 600.548 174.756 600.464 175.016C600.38 175.275 600.214 175.499 599.99 175.653C599.904 175.721 599.806 175.772 599.701 175.804C599.4 175.916 599.068 175.905 598.775 175.773C598.483 175.641 598.255 175.399 598.141 175.099C598.14 175.08 598.14 175.06 598.141 175.041L590.676 153.883C590.631 153.596 590.688 153.302 590.837 153.052C590.986 152.802 591.218 152.613 591.492 152.515C591.766 152.418 592.065 152.42 592.338 152.519C592.611 152.619 592.84 152.811 592.987 153.062H593.01Z" fill="#A7AAB3"/>
    <path d="M553.56 141.102C553.725 141.373 553.779 141.696 553.713 142.006C553.646 142.316 553.463 142.588 553.202 142.766L534.101 154.634C533.962 154.738 533.803 154.813 533.634 154.852C533.465 154.892 533.289 154.896 533.119 154.864C532.948 154.832 532.786 154.764 532.643 154.666C532.5 154.568 532.379 154.441 532.288 154.293C532.197 154.145 532.137 153.98 532.113 153.808C532.09 153.636 532.102 153.461 532.15 153.294C532.197 153.127 532.279 152.972 532.39 152.839C532.502 152.705 532.639 152.597 532.795 152.519L551.85 140.721C552.128 140.547 552.463 140.49 552.783 140.561C553.103 140.633 553.382 140.827 553.56 141.102Z" fill="#A7AAB3"/>
    <path d="M616.56 141.807C616.528 141.862 616.489 141.913 616.444 141.958C616.085 142.178 615.696 142.346 615.289 142.455L571.678 154.992C570.866 155.234 570 155.227 569.191 154.974C568.382 154.721 567.667 154.232 567.137 153.571L538.907 118.049C538.651 117.731 538.437 117.382 538.271 117.009C537.903 116.094 537.86 115.081 538.15 114.138C538.441 113.195 539.046 112.381 539.866 111.832C540.576 111.346 541.42 111.091 542.281 111.104H542.524C542.695 111.106 542.865 111.125 543.032 111.162L543.517 111.278L615.404 134.308C616.479 134.671 617.365 135.446 617.87 136.462C618.374 137.477 618.456 138.652 618.097 139.727C617.806 140.56 617.27 141.285 616.56 141.807Z" fill="#066FD1"/>
    <path d="M482.412 149.261L398.057 183.442C397.209 183.795 396.256 183.797 395.407 183.448C394.558 183.1 393.882 182.428 393.527 181.581C393.436 181.345 393.367 181.102 393.319 180.853L384.976 133.303C384.838 132.522 384.971 131.718 385.354 131.024C385.737 130.331 386.345 129.789 387.079 129.489L471.434 95.308C471.914 95.1099 472.433 95.0222 472.951 95.0514C473.47 95.0806 473.975 95.2259 474.43 95.4766C474.885 95.7273 475.277 96.077 475.579 96.4998C475.881 96.9227 476.083 97.4079 476.172 97.9195L484.515 145.47C484.647 146.247 484.511 147.046 484.129 147.735C483.747 148.424 483.141 148.962 482.412 149.261Z" fill="#DADBE0"/>
    <path d="M401.904 169.541L471.399 143.46C472.314 143.118 473.083 142.472 473.577 141.631C474.072 140.789 474.261 139.803 474.115 138.838L470.105 110.631C470.016 109.993 469.783 109.384 469.424 108.85C469.065 108.316 468.589 107.87 468.033 107.546C467.476 107.222 466.854 107.029 466.212 106.981C465.57 106.933 464.926 107.031 464.327 107.268L394.197 135.175C393.285 135.537 392.527 136.203 392.049 137.06C391.571 137.916 391.403 138.912 391.574 139.878C393.114 148.675 394.655 157.465 396.196 166.247C396.301 166.868 396.542 167.458 396.901 167.975C397.261 168.492 397.73 168.923 398.275 169.238C398.82 169.552 399.428 169.742 400.056 169.795C400.683 169.847 401.314 169.76 401.904 169.541Z" fill="#066FD1"/>
    <path d="M393.539 184.459L381.174 179.513C380.793 179.366 380.445 179.142 380.153 178.855C379.861 178.569 379.631 178.226 379.476 177.847C379.321 177.468 379.246 177.062 379.253 176.653C379.261 176.244 379.353 175.841 379.522 175.469C379.869 174.713 380.494 174.122 381.267 173.816L468.603 139.15C469.419 138.821 470.33 138.821 471.145 139.15L482.932 144.419C483.309 144.571 483.65 144.799 483.935 145.089C484.22 145.379 484.442 145.724 484.589 146.103C484.735 146.482 484.802 146.887 484.785 147.293C484.769 147.699 484.669 148.097 484.492 148.463C484.137 149.202 483.512 149.776 482.747 150.07L395.919 184.482C395.15 184.771 394.301 184.763 393.539 184.459Z" fill="#A7AAB3"/>
    <path d="M568.246 393.718C568.246 401.333 563.705 408.439 555.847 414.448H416.338C408.48 408.439 403.938 401.333 403.938 393.718H568.246Z" fill="black" opacity="0.3"/>
    <path d="M549.145 393.221C538.175 418.913 527.216 444.601 516.269 470.285L502.553 469.892C504.487 449.993 506.413 430.095 508.331 410.196L492.026 395.174L491.795 395.324L476.553 405.366L466.985 465.05L454.055 465.454C454.055 465.454 448.15 446.422 442.233 427.379L430.4 389.165L465.067 368.642L525.156 370.283C533.144 377.933 541.141 385.579 549.145 393.221Z" fill="#DADBE0"/>
    <path d="M525.584 402.384L484.92 380.036L462.306 409.179C463.846 427.799 465.414 446.415 467.009 465.027L476.577 405.343L491.818 395.301C491.816 395.332 491.816 395.363 491.818 395.393L492.003 395.151L508.308 410.173C506.367 430.071 504.441 449.97 502.53 469.869L525.584 402.384Z" fill="black" opacity="0.1"/>
    <path d="M506.991 263.845C503.542 267.231 499.123 269.457 494.349 270.212L493.679 270.328L482.031 264.596L506.991 263.845Z" fill="#FFCB9D"/>
    <path d="M506.991 263.845C503.542 267.231 499.123 269.457 494.349 270.212L493.679 270.328L482.031 264.596L506.991 263.845Z" fill="black" opacity="0.1"/>
    <path d="M493.679 270.316L479.35 259.466L475.906 262.863L485.416 278.012L493.679 270.316Z" fill="#DADBE0"/>
    <path d="M494.35 270.339L516.975 257.016L521.806 261.835L506.263 280.994L494.35 270.339Z" fill="#DADBE0"/>
    <path d="M493.679 270.316L479.35 259.466L475.906 262.863L485.416 278.012L493.679 270.316Z" fill="black" opacity="0.11"/>
    <path d="M501.49 283.547C497.076 302.741 492.662 321.935 488.386 341.129C487.716 321.657 486.907 302.186 486.075 282.854C488.745 278.636 491.264 274.546 493.933 270.328L494.592 270.478C496.764 274.838 499.064 279.195 501.49 283.547Z" fill="#DADBE0"/>
    <path d="M493.806 270.374L488.295 341.117C487.613 321.657 486.804 302.186 485.983 282.854C488.618 278.636 491.149 274.407 493.806 270.374Z" fill="black" opacity="0.11"/>
    <path d="M461.717 310.275C461.717 310.275 461.185 362.275 525.168 370.283L465.08 368.642L461.717 310.275Z" fill="black" opacity="0.1"/>
    <path d="M461.716 310.275C455.776 330.22 443.805 343.451 431.741 343.567C422.323 343.671 415.332 335.709 407.417 326.892C395.627 313.563 387.242 297.576 382.977 280.3C390.511 307.34 411.865 324.766 432.92 323.899C447.248 323.31 457.567 314.354 461.716 310.275Z" fill="black" opacity="0.1"/>
    <path d="M581.327 338.101C576.37 342.723 571.447 345.832 565.542 345.739C551.364 345.52 539.508 327.031 534.782 309.732L533.626 303.712C533.626 303.712 549.145 335.385 581.327 338.101Z" fill="black" opacity="0.1"/>
</svg>
