<svg xmlns="http://www.w3.org/2000/svg" width="800" height="600" fill="none" viewBox="0 0 800 600">
    <path d="M124.658 321.795C124.658 364.759 170.097 395.913 190.116 430.554C210.811 466.32 215.76 520.981 251.526 541.676C286.167 561.696 335.542 539.314 378.506 539.314C421.47 539.314 470.845 561.696 505.486 541.676C541.252 520.981 546.201 466.32 566.895 430.554C586.915 395.913 632.354 364.759 632.354 321.795C632.354 278.831 586.915 247.676 566.895 213.035C546.201 177.269 541.252 122.608 505.486 101.913C470.845 81.8933 421.47 104.275 378.506 104.275C335.542 104.275 286.167 81.7809 251.526 101.913C215.76 122.608 210.811 177.269 190.116 213.035C169.984 247.676 124.658 278.831 124.658 321.795Z" fill="black" opacity="0.07"/>
    <path d="M107 490.951C107 494.325 227.232 497.025 375.581 497.025C523.931 497.025 644.163 494.213 644.163 490.951C644.163 487.69 523.931 484.878 375.581 484.878C227.232 484.878 107 487.69 107 490.951Z" fill="#1D2535" opacity="0.5"/>
    <path d="M260.074 341.477L259.961 345.863L257.824 473.293H249.164C245.115 458.335 241.291 442.701 237.58 426.505C233.98 410.422 230.831 394.788 228.02 379.717C220.259 410.872 212.498 442.139 204.738 473.293H195.853L195.74 344.401C209.237 343.839 222.621 343.164 236.117 342.602L241.066 342.377L260.074 341.477Z" fill="#066FD1"/>
    <path d="M213.06 490.951L191.578 488.027C191.578 488.027 190.903 482.404 194.39 480.492C197.876 478.58 209.686 485.778 213.06 490.951Z" fill="#454C5E"/>
    <path d="M268.509 490.951L247.027 488.027C247.027 488.027 246.352 482.404 249.839 480.492C253.326 478.58 265.135 485.778 268.509 490.951Z" fill="#454C5E"/>
    <path d="M259.961 345.863L257.824 473.293H249.164C245.115 458.335 241.291 442.701 237.58 426.505C233.981 410.422 230.831 394.788 228.02 379.717L236.005 342.489L236.23 341.365L240.841 342.264L259.961 345.863Z" fill="black" opacity="0.1"/>
    <path d="M671.269 315.384C672.282 316.283 673.294 316.958 674.531 317.521C675.206 317.858 675.881 318.195 676.668 318.42C683.191 320.67 689.94 318.308 691.627 313.247C693.201 308.748 690.165 303.574 684.879 300.875C684.204 300.537 683.529 300.313 682.854 299.975C682.179 299.75 681.504 299.525 680.83 299.413C674.981 298.176 669.47 300.537 667.895 305.036C666.658 308.748 668.12 312.572 671.269 315.384Z" fill="#FFCB9D"/>
    <path d="M671.269 315.384C672.282 316.283 673.294 316.958 674.531 317.521C677.568 311.785 680.942 306.161 684.766 300.875C684.091 300.537 683.416 300.313 682.741 299.975C682.067 299.75 681.392 299.525 680.717 299.413C674.869 298.176 669.357 300.537 667.783 305.036C666.658 308.748 668.12 312.572 671.269 315.384Z" fill="black" opacity="0.1"/>
    <path d="M379.856 252.625C378.619 250.938 377.045 249.588 375.245 248.576C369.397 245.089 362.311 245.876 359.612 250.488C357.137 254.649 359.049 260.273 363.661 263.984C364.223 264.434 364.785 264.884 365.46 265.222C366.022 265.559 366.697 265.896 367.372 266.234C372.771 268.596 378.732 267.471 381.206 263.422C382.893 260.16 382.331 256.111 379.856 252.625Z" fill="#FFCB9D"/>
    <path d="M379.856 252.625C379.069 251.612 378.169 250.6 377.157 249.813C372.995 254.874 368.496 259.485 363.66 263.872C364.223 264.322 364.785 264.772 365.46 265.109C366.022 265.446 366.697 265.784 367.372 266.121C372.77 268.483 378.731 267.358 381.206 263.309C382.893 260.16 382.33 256.111 379.856 252.625Z" fill="black" opacity="0.1"/>
    <path d="M260.074 255.212C260.074 255.212 266.822 273.544 276.27 279.73C285.718 285.916 298.314 269.72 303.938 277.593C309.562 285.466 283.018 302.562 268.51 296.376C254.001 290.19 247.815 265.671 248.827 265.559C249.839 265.446 260.074 255.212 260.074 255.212Z" fill="#FFCB9D"/>
    <path d="M260.074 255.212C260.074 255.212 266.822 273.544 276.27 279.73C285.718 285.916 298.314 269.72 303.938 277.593C309.562 285.466 283.018 302.562 268.51 296.376C254.001 290.19 247.815 265.671 248.827 265.559C249.839 265.446 260.074 255.212 260.074 255.212Z" fill="black" opacity="0.1"/>
    <path d="M366.133 76.7197C354.774 76.9446 344.314 83.018 338.465 92.6906C332.954 88.6416 326.206 86.5047 319.345 86.5047C310.91 86.3922 302.924 89.7663 297.076 95.8398C285.604 107.987 286.279 128.794 299.775 140.941L353.986 177.606L390.652 123.395C399.987 105.512 391.552 84.4802 376.031 78.5192C372.769 77.282 369.395 76.7197 366.133 76.7197Z" fill="#066FD1"/>
    <path d="M434.406 103.375L420.684 71.4335C418.097 62.0984 423.833 52.6508 432.381 50.4014C440.591 48.6018 448.802 52.9882 451.839 60.8612C459.599 57.1496 468.484 59.3991 472.646 65.2476C477.819 72.4457 475.57 84.2552 466.347 89.5414L434.406 103.375Z" fill="#DADBE0"/>
    <path d="M437.555 194.927L418.097 185.479C413.261 182.555 411.574 176.257 414.498 171.42C417.422 166.584 423.721 164.897 428.557 167.821C430.694 162.985 435.755 160.398 440.141 161.41C445.54 162.648 449.252 169.171 447.002 175.469L437.555 194.927Z" fill="#A6A9B3"/>
    <path d="M280.994 290.865L290.216 242.277C290.666 240.028 292.803 238.566 295.053 239.016L329.131 245.427C331.381 245.876 332.843 248.013 332.393 250.263L323.17 298.85C322.721 301.1 320.584 302.562 318.334 302.112L284.255 295.701C282.118 295.364 280.656 293.114 280.994 290.865Z" fill="#066FD1"/>
    <path d="M304.163 283.554L294.265 268.933C291.791 264.434 293.928 258.923 298.089 257.348C302.363 255.999 306.862 258.248 308.324 262.41C311.586 258.811 316.76 258.473 319.571 260.835C322.833 263.534 323.17 269.833 318.784 273.544L304.163 283.554Z" fill="#DADBE0"/>
    <path d="M263.561 300.088L261.536 311.897C261.536 313.472 261.649 315.046 261.761 316.621C261.986 318.983 262.211 321.457 262.661 323.819C263.898 332.029 266.148 340.015 269.409 347.663C253.101 353.624 235.556 354.974 218.572 351.824C209.125 350.025 200.015 346.651 191.467 342.039C193.154 331.017 194.728 321.345 195.516 316.059C195.853 313.584 196.191 311.897 196.64 309.648C197.315 306.274 197.653 305.149 198.328 299.975C203.051 267.808 197.54 253.187 207.775 243.852C208.338 243.29 208.9 242.84 209.575 242.39C209.575 242.39 210.025 242.052 210.474 241.715C211.937 240.928 213.399 240.365 215.086 240.028C217.785 239.578 220.597 239.466 223.409 239.803C228.245 240.478 237.018 241.04 248.94 241.827L254.338 242.277L259.062 242.615C266.035 243.177 271.209 249.138 270.647 256.111C270.647 256.449 270.534 256.786 270.534 257.124L268.847 266.909L267.835 273.095C266.485 281.867 265.023 290.977 263.561 300.088Z" fill="#DADBE0"/>
    <path d="M216.66 189.303C216.773 192.228 217.11 196.726 217.56 202.125L217.897 204.712C218.685 210.56 220.147 216.409 222.396 221.92C222.846 222.932 223.296 224.057 223.858 225.069C225.77 228.781 239.829 233.055 251.976 231.593C264.123 230.13 268.284 218.208 262.998 213.147C261.199 211.123 259.624 208.761 258.499 206.287C257.037 202.912 255.688 199.538 254.675 196.052C254.113 194.027 253.776 192.79 253.776 192.79L244.103 184.58L221.271 184.917C221.609 188.854 220.709 191.44 219.472 191.665C218.235 191.89 216.885 189.753 216.66 189.303Z" fill="#FFCB9D"/>
    <path d="M216.66 189.303C216.773 192.228 217.11 196.726 217.56 202.125L217.897 204.712C218.685 210.56 220.147 216.409 222.396 221.92C223.858 221.358 225.208 220.683 226.445 219.671C227.682 218.546 228.807 217.196 229.482 215.622C230.269 213.935 230.832 212.248 231.056 210.448C231.281 209.323 231.394 208.199 231.506 206.961C235.893 208.311 240.617 208.986 245.228 208.873C249.839 208.761 254.338 207.861 258.612 206.287C257.15 202.912 255.8 199.538 254.788 196.052C254.226 194.027 253.888 192.79 253.888 192.79L244.103 184.58L221.271 184.917C221.609 188.854 220.709 191.44 219.472 191.665C218.235 191.89 216.885 189.753 216.66 189.303Z" fill="black" opacity="0.1"/>
    <path d="M267.386 189.753C266.711 191.328 265.811 192.902 264.799 194.252C263.561 196.052 261.987 197.739 260.3 199.088C252.539 205.387 240.617 205.949 229.82 200.213C228.021 199.201 226.333 198.076 224.646 196.839V196.951C224.646 198.189 224.646 199.426 224.759 200.775L224.871 201.9L224.984 202.35C225.659 204.937 226.109 207.524 226.221 210.223C226.109 211.91 225.546 213.597 224.421 214.834C223.859 212.36 222.734 209.998 221.047 208.086C220.485 207.411 219.698 206.736 218.91 206.287C215.424 202.912 213.399 198.301 213.062 193.465C212.949 191.553 213.174 189.528 213.624 187.616C213.849 186.267 215.086 181.768 217.898 179.181C223.747 174.007 238.03 176.369 245.004 178.731C246.578 179.518 248.378 179.743 250.177 179.406C250.515 179.293 250.852 179.181 251.19 178.956C253.102 177.494 253.102 174.457 252.652 172.433C251.527 168.609 247.253 165.797 241.63 165.235C253.552 162.198 265.024 168.046 268.285 176.932C269.635 180.98 269.298 185.592 267.386 189.753Z" fill="#454C5E"/>
    <path d="M267.385 189.753C266.71 191.328 265.81 192.903 264.798 194.252C263.561 196.052 261.986 197.739 260.299 199.088C252.539 205.387 240.617 205.949 229.82 200.213C227.12 198.526 224.871 197.064 224.646 196.839L221.047 193.69C226.895 196.389 233.306 198.076 239.717 198.526C245.453 198.976 253.439 199.538 261.087 194.927C263.449 193.577 265.586 191.778 267.385 189.753Z" fill="black" opacity="0.5"/>
    <path d="M223.408 239.803C234.543 240.59 248.714 241.49 248.939 241.828L254.338 242.277C251.976 245.539 245.79 247.676 238.704 247.339C231.169 246.776 224.983 243.627 223.408 239.803Z" fill="#FFCB9D"/>
    <path d="M223.408 239.803C234.543 240.59 248.714 241.49 248.939 241.828L254.338 242.277C251.976 245.539 245.79 247.676 238.704 247.339C231.169 246.776 224.983 243.627 223.408 239.803Z" fill="black" opacity="0.1"/>
    <path d="M542.714 270.395V289.065C542.264 288.728 541.702 288.391 541.139 288.053C539.565 287.266 538.327 286.591 537.315 286.029L535.066 285.129H534.953V286.928C534.953 288.728 534.953 290.415 535.066 292.102V292.44C535.516 320.67 536.078 331.804 536.415 352.837V359.472L497.95 358.123H496.713L459.598 356.773H459.485C460.947 348.788 462.297 340.577 463.759 332.479C466.233 319.32 468.483 306.049 470.845 292.889C467.695 293.002 464.659 293.002 461.51 293.002C458.36 293.002 455.211 293.002 452.062 292.889C419.108 292.552 386.266 290.415 353.537 286.366C355.674 281.755 358.711 277.593 362.197 273.994C362.872 273.207 363.547 272.532 364.222 271.857C368.721 267.471 372.095 266.009 374.907 261.622C376.931 258.586 379.068 253.524 378.506 245.089C378.506 245.089 416.858 259.26 448.688 269.945C455.099 271.97 461.847 272.87 468.483 272.645C470.395 272.532 472.307 272.195 474.219 271.632C474.894 271.407 475.006 271.407 476.243 270.958C477.93 270.395 479.617 269.945 481.417 269.495C488.165 267.921 495.138 266.796 502.112 266.459C509.422 266.009 516.62 266.121 523.931 266.796C526.743 267.021 529.892 267.471 532.929 267.921H533.379L534.503 268.146C537.203 268.821 540.014 269.495 542.714 270.395Z" fill="#DADBE0"/>
    <path d="M353.426 286.366C386.155 290.303 418.997 292.552 451.951 292.889C429.906 288.391 386.717 277.818 363.886 272.082C363.211 272.757 362.536 273.432 361.861 274.219C358.487 277.818 355.675 281.98 353.426 286.366Z" fill="black" opacity="0.1"/>
    <path d="M525.731 270.957C525.731 279.168 515.946 285.916 503.911 285.916C491.877 285.916 482.092 279.28 482.092 270.957C482.092 270.508 482.092 270.058 482.204 269.608C489.065 267.921 496.038 266.909 503.011 266.571C510.322 266.121 517.633 266.234 524.943 266.909C525.506 268.146 525.731 269.495 525.731 270.957Z" fill="#FFCB9D"/>
    <path d="M556.549 435.391L552.5 439.664L504.587 418.07L500.313 387.59C496.039 410.984 491.766 434.266 487.379 457.66C486.704 461.709 485.917 465.758 485.13 469.807C482.768 468.907 480.181 468.007 477.707 467.107C471.521 430.442 465.447 393.664 459.486 356.998L500.088 358.46L536.304 359.81C534.28 374.206 532.255 388.49 530.118 402.886L556.549 435.391Z" fill="#066FD1"/>
    <path d="M579.042 444.163L572.969 441.801C572.969 441.801 567.57 438.652 564.533 441.352C561.497 444.051 564.871 458.785 569.257 464.633L571.619 450.574L576.905 451.361L579.042 444.163Z" fill="#454C5E"/>
    <path d="M487.715 490.839L486.703 484.428C486.703 484.428 486.703 478.13 482.879 476.892C479.055 475.655 467.92 485.89 464.996 492.526L478.155 487.577L480.18 492.526L487.715 490.839Z" fill="#454C5E"/>
    <path d="M525.731 270.957C525.731 279.168 515.946 285.916 503.911 285.916C491.877 285.916 482.092 279.28 482.092 270.957C482.092 270.508 482.092 270.058 482.204 269.608C489.065 267.921 496.038 266.909 503.011 266.571C510.322 266.121 517.633 266.234 524.943 266.909C525.506 268.146 525.731 269.495 525.731 270.957Z" fill="black" opacity="0.1"/>
    <path d="M477.032 276.581C480.631 271.97 483.893 269.945 486.592 270.62C489.741 271.407 491.316 275.344 491.878 277.818C494.127 275.681 498.851 271.97 503.013 273.319C506.387 274.557 508.636 278.943 509.424 286.366C509.761 289.853 509.986 294.689 507.512 296.376C506.724 296.826 505.825 296.938 505.037 296.601C501.326 295.476 496.377 289.178 493.003 284.567C493.228 286.254 493.79 287.828 494.915 289.178C495.815 289.853 496.264 290.977 496.152 291.99C496.039 294.464 493.678 296.826 491.766 298.625L489.741 297.613C491.766 296.376 493.228 294.576 494.015 292.327V292.215C494.015 291.877 493.79 291.652 493.565 291.427C491.428 289.853 490.753 285.016 490.416 282.317C489.179 283.779 488.054 285.466 487.154 287.153V288.503C487.154 290.303 487.154 293.227 484.905 294.576C483.668 295.364 481.868 298.738 480.181 303.687L478.269 302.899C480.406 296.826 482.318 293.227 484.343 292.102C485.017 291.765 485.13 290.752 485.13 288.953C485.13 288.278 485.13 287.603 485.242 286.816C485.805 285.241 486.592 283.779 487.604 282.542C483.443 284.229 478.157 285.916 475.345 285.129C474.558 285.016 473.995 284.567 473.658 283.779C472.983 281.867 475.232 278.606 477.032 276.581ZM506.837 294.239C506.837 294.127 508.074 293.227 507.399 287.153C506.724 280.518 504.925 276.694 502.338 275.794H502.113C498.739 274.782 494.465 278.381 492.778 280.068C498.176 287.941 504.812 295.589 506.837 294.239ZM475.795 282.43C476.357 283.779 482.993 282.092 489.966 279.168C489.516 277.256 488.279 273.882 486.03 273.094H485.917C483.893 272.645 481.418 274.332 478.269 278.156C475.57 281.53 475.795 282.542 475.795 282.43Z" fill="#066FD1"/>
    <path d="M684.091 295.701C679.367 303.237 673.743 310.21 667.332 316.508C663.396 320.332 660.359 322.807 656.423 327.643C652.486 332.479 649.337 337.99 646.863 343.726C630.442 341.365 614.246 337.878 598.387 333.154C590.627 330.792 583.429 328.318 576.681 325.506C554.636 316.508 538.665 305.261 530.905 293.002C529.443 290.752 528.318 288.391 527.418 285.804C526.518 283.442 525.956 280.967 525.844 278.381C525.394 273.319 526.406 267.246 530.23 260.16C534.391 262.41 538.89 264.547 543.726 266.796C556.211 272.532 569.032 277.481 582.079 281.53C599.962 287.153 618.407 291.09 636.965 293.452C641.127 293.902 645.288 294.352 649.449 294.689C661.034 295.814 672.506 296.039 684.091 295.701Z" fill="#DADBE0"/>
    <path d="M649.45 294.801C636.741 318.42 615.034 328.655 598.275 333.154C590.515 330.792 583.317 328.318 576.568 325.506L581.967 281.642C599.85 287.266 618.295 291.202 636.853 293.564C641.127 294.127 645.288 294.464 649.45 294.801Z" fill="black" opacity="0.1"/>
    <path d="M269.409 347.663C253.101 353.624 235.556 354.974 218.572 351.824C209.125 350.025 200.015 346.651 191.467 342.039C193.154 331.017 194.728 321.345 195.516 316.058C195.853 313.584 196.191 311.897 196.64 309.648C197.315 306.274 197.653 305.149 198.328 299.975C203.051 267.808 197.54 253.187 207.775 243.852C208.562 243.065 209.462 242.39 210.474 241.715C216.323 256.224 236.568 302.225 261.874 316.621C262.099 318.983 262.324 321.457 262.774 323.819C263.898 332.029 266.148 340.015 269.409 347.663Z" fill="black" opacity="0.1"/>
    <path d="M311.586 285.466C311.923 295.926 270.871 325.506 242.528 312.347C241.291 311.785 240.054 311.11 238.817 310.322C224.758 301.437 221.046 284.117 220.146 277.593L231.731 267.921L241.853 267.696C243.316 271.97 245.115 276.131 247.14 280.18C252.651 290.865 257.824 293.902 262.098 294.352C273.233 295.476 294.377 279.73 304.05 277.593C305.512 277.143 307.087 277.368 308.436 278.043C308.436 278.043 311.473 279.843 311.586 285.466Z" fill="#FFCB9D"/>
    <path d="M242.528 312.347C241.291 311.785 240.054 311.11 238.817 310.322C224.758 301.437 221.046 284.117 220.146 277.593L231.731 267.921L241.853 267.696C243.316 271.97 245.115 276.131 247.14 280.18C242.528 283.779 236.455 292.44 242.528 312.347Z" fill="black" opacity="0.1"/>
    <path d="M218.91 287.491C222.959 285.129 227.008 282.992 231.394 280.967C234.768 279.505 238.255 277.706 241.517 276.019C243.654 274.894 245.791 273.657 247.815 272.195C243.766 266.121 240.055 260.948 237.018 256.899C229.145 246.214 226.221 243.402 221.609 243.852C217.673 244.527 213.961 246.551 211.374 249.588C209.012 252.175 207.438 256.111 210.475 267.133C212.274 274.219 215.086 281.08 218.91 287.491Z" fill="#DADBE0"/>
    <path d="M500.313 387.478C496.039 410.872 491.766 434.153 487.379 457.547C486.704 461.596 485.917 465.645 485.13 469.694C482.768 468.795 480.181 467.895 477.707 466.995C471.521 430.329 465.447 393.551 459.486 356.886L500.088 358.348L500.313 387.478Z" fill="black" opacity="0.1"/>
    <path d="M535.066 292.44C535.516 320.67 536.078 331.805 536.416 352.837V359.472L497.95 358.123H496.713L459.598 356.773C459.598 356.773 533.829 321.457 534.953 286.928C534.953 288.728 534.953 290.415 535.066 292.102V292.44Z" fill="black" opacity="0.1"/>
    <path d="M542.714 284.792V289.065C542.265 288.728 541.702 288.391 541.14 288.053C539.565 287.266 538.328 286.591 537.316 286.029L535.066 285.129C535.629 278.043 538.665 279.055 542.714 284.792Z" fill="black" opacity="0.1"/>
    <path d="M491.428 253.862C501.775 256.899 514.147 256.111 519.658 253.749C520.558 253.412 521.457 252.85 522.132 252.062L524.269 249.026C525.281 247.563 526.069 245.989 526.856 244.414C528.993 240.365 530.792 236.204 532.03 231.817C532.142 231.48 532.367 230.468 532.817 229.118C534.279 223.495 535.404 218.996 536.191 215.847C535.854 216.296 534.167 218.208 533.042 217.759C531.917 217.309 531.242 214.272 532.367 210.335L508.411 205.837L496.826 212.585C496.826 212.585 496.264 213.935 495.139 215.959C493.452 219.446 491.54 222.82 489.291 225.969C487.716 228.443 485.804 230.693 483.442 232.492C476.694 236.879 478.943 250.15 491.428 253.862Z" fill="#FFCB9D"/>
    <path d="M489.178 226.194C497.613 231.143 507.511 233.167 517.296 231.817C519.657 232.492 521.682 233.954 523.257 235.754C525.506 238.453 525.056 240.703 526.631 244.077L526.743 244.414C528.88 240.365 530.68 236.204 532.142 231.817C532.254 231.48 532.479 230.468 532.929 229.118C534.391 223.495 535.516 218.996 536.303 215.847C535.966 216.296 534.279 218.208 533.154 217.759C532.029 217.309 531.354 214.272 532.479 210.335L508.523 205.837L496.938 212.585L495.364 215.959C493.339 219.558 491.427 222.932 489.178 226.194Z" fill="black" opacity="0.1"/>
    <path d="M485.802 206.062C485.352 207.524 485.352 208.986 485.802 210.448C486.814 213.372 488.389 216.072 490.639 218.321C500.424 227.994 518.869 222.595 524.043 220.795C524.605 223.945 527.079 226.756 526.967 228.781V230.468C526.854 232.942 526.179 235.417 525.167 237.779C524.267 239.915 523.143 241.94 522.018 243.964C520.331 247.001 518.531 250.038 516.619 252.85C508.859 264.322 511.446 283.104 517.744 294.801C519.319 297.613 521.118 300.313 523.255 302.787C535.402 316.958 552.835 319.883 559.246 320.895C566.782 322.02 580.84 324.044 597.374 319.433C604.684 317.296 611.658 314.259 618.068 310.322C618.856 303.124 618.856 295.814 617.844 288.503C617.394 285.016 616.719 281.642 615.932 278.268C611.883 262.635 603.672 248.351 592.088 236.991C591.638 240.815 589.951 251.725 580.953 259.373C568.019 270.395 546.649 268.933 543.612 262.297C541.588 257.798 549.798 254.649 551.261 244.302C554.072 224.844 532.59 208.424 531.128 207.411C527.867 204.937 515.495 195.714 500.536 198.189C496.937 198.751 487.602 200.213 485.802 206.062Z" fill="#454C5E"/>
    <path d="M517.857 294.801C519.432 297.613 521.231 300.313 523.368 302.787C535.515 316.958 552.948 319.883 559.359 320.895C566.894 322.02 580.953 324.044 597.487 319.433C604.797 317.296 611.77 314.259 618.181 310.322C618.969 303.124 618.969 295.814 617.956 288.503C601.536 303.462 579.716 309.76 560.371 304.362C546.087 300.313 529.217 289.065 524.043 272.87C521.119 263.872 521.456 252.062 522.018 244.189C520.331 247.226 518.532 250.263 516.62 253.075C508.972 264.322 511.559 283.104 517.857 294.801Z" fill="black" opacity="0.5"/>
    <path d="M528.994 216.746C527.419 218.321 525.732 219.671 523.82 220.795H523.707C523.258 220.908 522.695 221.133 521.908 221.358C515.047 223.382 499.301 226.869 490.528 218.209C488.392 216.072 486.704 213.485 485.805 210.561C498.401 219.558 514.485 221.92 528.994 216.746Z" fill="black" opacity="0.5"/>
</svg>
