<svg xmlns="http://www.w3.org/2000/svg" width="800" height="600" fill="none" viewBox="0 0 800 600">
    <path d="M123 300.012C123 347.016 172.737 381.105 194.643 419.11C217.289 458.28 222.792 518.094 261.947 540.855C299.938 562.875 354.014 538.209 401 538.209C447.986 538.209 502.062 562.769 540.053 540.855C579.208 518.094 584.711 458.28 607.357 419.11C629.368 381.105 679 347.016 679 300.012C679 253.008 629.263 218.813 607.357 180.914C584.711 141.744 579.208 81.8239 540.053 59.1687C502.062 37.1488 448.092 61.7095 401 61.7095C353.908 61.7095 299.938 37.1488 261.947 59.1687C222.792 81.8239 217.395 141.744 194.643 180.914C172.737 218.813 123 253.008 123 300.012Z" fill="black" opacity="0.07"/>
    <path d="M85.1211 490.578C85.1211 494.282 217.262 497.15 380.347 497.15C543.432 497.15 675.573 494.163 675.573 490.578C675.573 486.994 543.432 484.007 380.347 484.007C217.262 484.007 85.1211 486.994 85.1211 490.578Z" fill="#1D2535" opacity="0.5"/>
    <path d="M272.819 150.429L284.408 158.554C284.408 158.554 284.886 159.987 285.842 162.257C287.275 166.081 289.067 169.904 291.098 173.488C291.457 174.205 291.815 174.922 292.293 175.519C293.488 177.431 294.922 179.223 296.714 180.776C303.166 185.794 299.701 199.534 286.2 202.282C282.735 202.999 279.27 203.238 275.686 203.238C265.411 203.238 255.972 200.609 254.061 197.503C253.463 196.547 252.866 195.352 252.269 194.158C249.282 188.184 247.012 181.852 245.698 175.28C245.578 174.922 245.459 173.727 245.1 172.413C244.144 166.439 243.308 161.541 242.83 158.195C243.189 158.793 244.622 161.063 246.056 160.585C247.49 160.107 248.326 157.001 247.49 152.699L272.819 150.429Z" fill="#FFCB9D"/>
    <path d="M242.473 158.434C242.951 161.779 243.787 166.678 244.743 172.652C245.101 173.966 245.34 175.161 245.34 175.519C246.654 182.09 248.924 188.423 251.911 194.397C253.464 193.68 254.898 192.724 256.212 191.529C257.646 190.215 258.602 188.542 259.319 186.75C260.036 184.838 260.394 182.807 260.514 180.776C260.633 179.462 260.753 178.148 260.633 176.834C270.789 179.104 281.422 177.909 290.741 173.369C288.71 169.784 287.037 165.961 285.484 162.138C284.528 159.868 284.05 158.434 284.05 158.434L272.581 150.31L247.013 152.819C247.73 157 247.013 160.226 245.46 160.704C243.906 161.182 242.831 159.032 242.473 158.434Z" fill="black" opacity="0.1"/>
    <path d="M238.886 163.452C239.125 167.873 236.616 169.068 237.81 171.577C239.125 174.205 244.023 175.519 246.652 177.192C247.249 177.55 247.846 178.028 248.324 178.506C248.563 178.745 248.802 178.865 249.041 179.223C251.072 181.254 252.626 183.644 253.462 186.392C254.537 184.838 255.015 182.927 255.015 181.015C254.537 178.028 253.82 175.041 252.864 172.174C252.864 172.054 252.864 171.935 252.745 171.816C252.626 171.457 252.745 171.338 252.506 170.621C252.148 169.307 252.028 167.873 252.028 166.439V166.32C256.329 167.395 285.72 175.4 292.411 165.364C292.889 164.647 295.279 161.063 294.203 157.717C292.65 152.58 284.765 152.46 283.928 147.681C283.331 144.575 286.557 143.141 285.601 140.393C284.645 137.645 280.225 135.614 276.76 136.092C274.131 136.451 274.131 138.004 271.622 138.362C267.441 139.079 266.007 134.778 261.706 135.136C259.077 135.614 256.568 136.928 254.657 138.84C253.103 140.513 252.864 141.349 251.072 142.663C249.639 143.5 248.085 143.978 246.413 144.336C242.828 144.933 242.112 143.858 240.319 144.455C237.213 145.65 235.062 149.712 235.062 153.177C235.301 157.837 238.647 158.434 238.886 163.452Z" fill="#454C5E"/>
    <path d="M294.084 161.779C293.725 162.974 293.128 164.169 292.411 165.244C285.481 175.161 256.21 167.275 252.028 166.2C250.355 165.244 249.161 163.811 248.324 162.018C278.552 167.395 289.902 164.408 294.084 161.779Z" fill="black" opacity="0.5"/>
    <path d="M455.378 267.038C455.258 268.95 455.019 270.742 454.78 272.534C454.422 274.685 453.944 276.835 453.466 278.866C450.479 289.619 444.625 296.788 438.412 297.863C428.973 299.416 418.579 287.23 414.278 281.973C409.379 275.76 405.556 268.711 402.808 261.303C402.091 259.033 401.374 256.883 400.658 254.613C396.356 239.559 396.237 224.385 398.985 214.469C399.582 212.079 400.538 209.809 401.972 207.897C402.928 206.464 404.242 205.269 405.795 204.433C409.26 202.999 413.203 203.357 416.309 205.388C420.849 208.734 420.491 216.38 420.491 219.487C419.893 244.099 432.558 276.118 438.89 276.118C439.965 276.118 441.399 275.282 443.072 271.698C443.191 271.339 443.43 270.981 443.55 270.622C443.789 270.144 444.027 269.547 444.266 269.069L444.744 267.755C446.059 266.68 447.253 265.724 448.568 264.649C449.404 263.932 450.36 263.334 451.196 262.617C452.749 261.423 454.302 260.347 455.736 259.272C455.617 261.901 455.497 264.41 455.378 267.038Z" fill="#FFCB9D"/>
    <path d="M601.139 255.568V255.927C598.869 267.516 593.732 278.388 586.205 287.588C582.023 292.845 571.987 305.39 562.071 303.478C554.185 302.045 547.494 291.531 544.985 275.76C544.746 274.207 544.507 272.534 544.388 270.981C544.149 268.352 543.91 265.604 543.91 262.856V258.794L554.305 265.127L555.26 265.724L555.858 269.428L555.977 269.906L556.933 274.924C558.845 280.778 560.517 281.973 561.712 281.973C567.925 281.973 580.589 250.072 580.111 225.341C579.992 222.354 579.634 214.588 584.293 211.123C587.4 208.973 591.342 208.614 594.807 210.048C597.077 211.243 598.869 213.035 599.944 215.305C604.724 224.982 603.529 243.501 601.139 255.568Z" fill="#FFCB9D"/>
    <path d="M454.66 272.534C454.302 274.685 453.824 276.835 453.346 278.866L442.832 271.698C442.952 271.339 443.19 270.981 443.31 270.622C443.549 270.144 443.788 269.547 444.027 269.069L444.505 267.755C445.819 266.68 447.014 265.724 448.328 264.649C448.925 265.365 449.523 266.082 450.24 266.799C451.673 268.83 453.226 270.622 454.66 272.534Z" fill="black" opacity="0.1"/>
    <path d="M555.856 269.906L544.984 275.76C544.745 274.207 544.506 272.534 544.387 270.981L554.303 265.127L555.259 265.724L555.856 269.428V269.906Z" fill="black" opacity="0.1"/>
    <path d="M470.075 116.02C470.433 116.02 470.672 116.02 471.031 116.14C472.225 116.498 473.301 117.454 473.898 118.649C474.615 120.082 474.734 121.874 474.256 123.428L469.597 132.388L466.968 137.526L452.99 130.238C451.914 129.401 451.078 128.087 450.839 126.653C450.6 125.339 450.959 123.905 451.675 122.83C452.751 121.516 454.304 120.799 455.857 120.919C456.813 120.919 457.769 121.158 458.605 121.635L463.026 124.144L465.176 119.604C466.013 117.454 467.924 116.14 470.075 116.02ZM470.194 111.36C466.251 111.48 462.667 113.869 460.995 117.454C459.441 116.617 457.649 116.14 455.977 116.14C452.87 116.14 450.003 117.573 448.091 119.963C444.865 124.622 446.06 130.955 450.6 134.18L469.119 143.739C472.345 137.526 475.451 131.433 478.677 125.22C480.947 119.246 477.482 112.914 472.345 111.599C471.508 111.36 470.792 111.241 470.194 111.36Z" fill="#066FD1"/>
    <path d="M493.014 190.812C484.889 201.924 473.061 209.57 459.68 212.557L501.616 222.593L493.014 190.812Z" fill="#454C5E"/>
    <path d="M502.213 403.241L504.244 428.092L507.35 464.055H510.218L517.745 426.778L521.09 410.649L502.213 403.241Z" fill="#FFCB9D"/>
    <path d="M460.156 403.241L461.948 426.658L465.174 464.055H468.042L475.449 427.973L478.914 410.649L460.156 403.241Z" fill="#FFCB9D"/>
    <path d="M521.09 410.649L502.332 403.241L504.483 427.853C509.262 427.614 513.682 427.136 517.983 426.539L521.09 410.649Z" fill="black" opacity="0.1"/>
    <path d="M460.156 403.241L462.187 426.539C466.488 427.136 470.79 427.495 475.569 427.973L479.153 410.768L460.156 403.241Z" fill="black" opacity="0.1"/>
    <path d="M541.641 179.462C540.924 183.046 539.968 188.184 538.534 194.635C538.295 196.069 537.817 197.264 537.817 197.622C536.503 202.64 534.711 207.539 532.561 212.198L530.41 216.5L529.813 217.336C529.215 218.411 528.618 219.367 528.14 220.203C528.02 220.323 527.901 220.681 527.662 220.801C526.945 221.637 525.989 222.354 524.914 222.832C521.21 224.743 514.281 225.938 506.754 225.938C502.094 225.938 497.554 225.341 493.014 224.385C482.022 221.637 477.482 212.198 479.394 205.627C479.871 203.716 481.066 201.923 482.739 200.729C485.248 198.578 487.398 196.069 489.071 193.082C491.341 189.259 493.372 185.436 495.045 181.374C496.001 179.104 496.598 177.55 496.598 177.55L509.502 169.187L536.862 173.01C535.906 177.67 536.742 181.015 538.056 181.493C539.371 181.971 541.163 179.94 541.641 179.462Z" fill="#FFCB9D"/>
    <path d="M488.83 193.202C498.747 198.339 510.097 200.131 521.089 198.1C523.717 198.937 526.107 200.37 528.018 202.401C530.766 205.388 530.288 207.897 532.319 211.721L532.439 212.198C534.589 207.539 536.382 202.64 537.696 197.622C537.696 197.144 538.174 196.069 538.413 194.635C539.846 188.303 540.802 183.046 541.519 179.462C541.041 179.94 539.249 182.21 537.935 181.732C536.621 181.254 535.784 177.909 536.74 173.249L509.38 169.187L496.477 177.55C496.477 177.55 495.879 179.104 494.923 181.374C493.131 185.436 491.1 189.498 488.83 193.202Z" fill="black" opacity="0.1"/>
    <path d="M540.924 273.968C539.49 270.503 538.056 267.277 536.623 263.812C536.742 265.365 536.862 267.158 537.101 268.711C538.654 290.814 539.012 312.917 538.056 335.02V335.14C538.176 337.051 538.176 339.082 538.176 341.113L450.958 339.441C452.631 330.719 454.184 322.117 455.737 313.514L455.976 312.2C456.454 309.094 457.41 304.315 458.366 298.58C461.114 283.406 462.428 276.955 460.994 276.357C460.516 276.238 459.799 276.596 458.605 278.747C455.379 275.64 451.914 272.653 448.33 270.144C446.179 268.711 443.909 267.277 441.52 265.963C447.613 256.763 456.215 249.475 466.371 245.174C466.49 245.174 466.49 245.174 466.61 245.054L467.565 244.577L468.043 244.457H468.163L469.716 243.86C471.628 243.262 473.539 242.665 475.57 242.307C476.048 242.187 476.526 242.068 477.004 241.948C484.292 240.275 491.7 239.2 499.107 238.842C507.351 238.364 515.714 238.603 523.958 239.32C524.436 239.32 524.914 239.439 525.511 239.439C528.498 239.678 531.485 240.156 534.711 240.634H534.95C535.428 240.753 535.906 240.873 536.264 240.873C536.384 240.873 536.503 240.873 536.623 240.873H536.742C543.313 241.829 548.929 246.847 548.929 246.847C555.38 252.581 557.651 260.945 558.248 263.573L540.924 273.968Z" fill="#066FD1"/>
    <path d="M490.504 490.339C493.61 483.171 506.394 471.582 510.695 473.015C514.997 474.449 514.997 481.379 514.997 481.379L516.191 488.547L508.067 490.459L505.797 484.843L490.504 490.339Z" fill="#454C5E"/>
    <path d="M449.764 490.339C452.87 483.171 465.654 471.582 469.955 473.015C474.256 474.449 474.256 481.379 474.256 481.379L475.451 488.547L467.207 490.459L464.937 484.843L449.764 490.339Z" fill="#454C5E"/>
    <path d="M446.537 410.649H536.025L537.578 360.827L538.175 340.875L451.077 339.321L447.373 397.028L446.537 410.649Z" fill="#DADBE0"/>
    <path d="M446.537 410.649H536.144C536.383 387.112 536.861 363.694 537.1 340.158L493.372 339.919C509.621 372.058 514.519 384.125 513.205 385.081C511.293 386.514 499.107 366.442 493.013 369.907C490.743 371.221 490.624 374.925 489.907 377.315C487.876 384.961 478.676 393.444 447.612 397.028L446.537 410.649Z" fill="black" opacity="0.1"/>
    <path d="M536.741 240.873C536.741 254.254 520.85 265.126 501.256 265.126C483.932 265.126 469.356 256.524 466.369 245.174C466.489 245.054 466.728 244.816 467.086 244.696C467.444 244.577 467.803 244.457 468.042 244.457C470.67 254.971 484.41 263.095 501.256 263.095C519.895 263.095 534.949 253.179 534.949 240.873V240.634C535.307 240.634 535.785 240.634 536.263 240.753C536.382 240.753 536.621 240.873 536.741 240.873Z" fill="#DADBE0"/>
    <path d="M495.283 272.892C495.403 274.446 496.837 275.521 498.39 275.282C499.943 275.163 501.018 273.729 500.779 272.176C500.779 272.056 500.779 272.056 500.779 271.937C500.54 270.383 498.987 269.428 497.554 269.786C496.12 270.145 495.164 271.459 495.283 272.892Z" fill="#DADBE0"/>
    <path d="M451.076 339.321L538.294 340.994C538.294 338.963 538.294 336.932 538.174 335.02V334.781C491.459 337.051 463.86 319.847 455.855 313.275C454.183 321.878 452.629 330.48 451.076 339.321Z" fill="black" opacity="0.1"/>
    <path d="M526.227 243.262C526.227 252.462 515.235 259.87 501.614 259.87C487.994 259.87 476.883 252.462 476.883 243.262C476.883 242.784 476.883 242.426 477.002 241.948C484.29 240.275 491.698 239.2 499.105 238.842C507.349 238.364 515.713 238.603 523.956 239.32C524.434 239.32 524.912 239.439 525.51 239.439C525.988 240.634 526.227 241.948 526.227 243.262Z" fill="#FFCB9D"/>
    <path d="M310.214 319.249C309.378 368.474 308.542 417.817 307.705 467.041H298.147C290.142 432.035 282.257 397.148 274.252 362.141V362.261C265.052 397.506 255.972 432.752 246.772 467.997L237.453 468.236C237.573 419.609 237.812 371.102 237.931 322.475L284.407 320.444L310.214 319.249Z" fill="#DADBE0"/>
    <path d="M257.406 490.339L234.586 486.158C234.586 486.158 234.108 480.064 237.931 478.153C241.754 476.241 254.06 484.604 257.406 490.339Z" fill="#454C5E"/>
    <path d="M319.532 488.428L296.234 487.83C296.234 487.83 294.801 481.857 298.385 479.467C301.969 477.078 315.231 483.29 319.532 488.428Z" fill="#454C5E"/>
    <path d="M310.214 319.249C309.378 368.474 308.542 417.817 307.705 467.041H298.147C290.142 432.035 282.257 397.148 274.252 362.141L284.407 320.444L310.214 319.249Z" fill="black" opacity="0.1"/>
    <path d="M342.95 139.198L329.569 108.015C326.582 98.5765 332.556 89.1379 341.038 87.5847C348.924 86.151 357.526 92.1248 358.721 101.324C366.248 95.7091 375.926 96.9039 380.227 102.041C385.364 108.015 383.811 120.082 374.014 125.698L342.95 139.198Z" fill="#066FD1"/>
    <path d="M336.379 219.964L343.428 232.151C345.34 236.811 347.251 241.47 349.163 246.13C343.906 261.781 336.976 276.955 328.613 291.172C324.79 297.505 324.192 297.385 322.878 300.372C319.055 308.496 319.294 316.74 320.369 323.311C320.608 324.387 320.728 325.462 320.967 326.537C306.39 326.657 291.575 326.776 276.88 326.776C261.945 326.776 247.011 326.776 232.076 326.776C239.245 313.395 245.577 299.655 251.192 285.557C255.494 274.924 258.958 264.529 261.945 254.852L245.816 268.591C247.13 254.732 243.307 240.873 235.183 229.523C248.444 220.801 257.405 218.889 263.379 218.889C268.158 218.889 272.937 218.65 277.716 218.172C282.615 217.575 285.96 216.739 287.752 216.619C307.107 214.469 320.369 218.531 341.516 213.393C341.875 213.274 343.189 212.557 343.428 212.915C343.786 213.393 339.844 216.978 336.379 219.964Z" fill="#066FD1"/>
    <path d="M355.973 215.544C355.734 223.31 355.496 230.956 355.257 238.603L349.044 246.01C343.787 261.662 336.857 276.835 328.494 291.053C324.671 297.385 324.073 297.266 322.759 300.253C318.936 308.377 319.175 316.621 320.25 323.192C320.489 324.267 320.608 325.343 320.847 326.418C306.271 326.537 291.576 326.657 276.761 326.657C261.826 326.657 246.892 326.657 231.957 326.657C239.126 313.275 245.458 299.536 251.073 285.438C255.374 274.804 258.839 264.41 261.826 254.732L245.697 268.472C247.011 254.613 243.188 240.753 235.063 229.403C248.325 220.681 257.286 218.77 263.26 218.77C268.039 218.77 272.818 218.531 277.597 218.053C282.495 217.455 285.841 216.619 287.633 216.5C306.988 214.349 320.25 218.411 341.397 213.274C341.995 213.035 342.592 212.915 343.309 212.796C348.088 211.84 352.509 213.632 355.973 215.544Z" fill="black" opacity="0.1"/>
    <path d="M228.971 284.362C226.223 281.853 223.714 278.986 221.683 275.879C209.257 257.599 210.691 233.107 225.267 217.814C233.869 208.853 245.817 203.955 258.242 204.074C268.398 204.074 278.434 207.3 286.678 213.274L292.293 217.336L295.877 211.482C305.077 196.786 320.848 187.586 337.097 187.586C341.876 187.586 346.655 188.423 351.195 190.095C359.08 193.321 365.771 198.817 370.311 205.986C380.108 221.159 381.064 240.514 372.701 256.524L314.755 342.308L228.971 284.362Z" fill="#066FD1"/>
    <path d="M337.096 181.135V194.038C341.159 194.038 345.101 194.755 348.805 196.189C355.376 198.937 360.992 203.596 364.815 209.57C373.298 222.712 374.134 239.439 367.085 253.298C349.044 279.942 331.003 306.704 312.962 333.347L254.777 293.92L233.033 279.225C223.952 270.622 219.054 258.436 219.89 246.01C220.368 237.169 223.952 228.686 229.926 222.234C237.334 214.588 247.609 210.406 258.123 210.526C266.964 210.526 275.566 213.274 282.735 218.531L293.965 226.655L301.253 214.946C309.258 202.043 322.998 194.158 337.096 194.158V181.135ZM337.096 181.135C319.533 181.135 301.134 190.693 290.381 208.136C281.062 201.326 269.712 197.742 258.123 197.742C243.905 197.622 230.285 203.357 220.487 213.513C203.88 231.076 202.327 259.033 216.306 279.703C218.815 283.406 221.682 286.752 225.028 289.619L247.489 304.793L316.308 351.388L378.196 259.989C387.754 241.829 386.799 219.845 375.687 202.521C370.43 194.277 362.664 187.825 353.584 184.122C348.208 182.09 342.712 181.135 337.096 181.135Z" fill="#DADBE0"/>
    <path d="M378.195 259.869L316.307 351.269L247.488 304.673C251.312 291.77 259.197 282.928 267.919 282.331C271.384 282.212 274.729 283.048 277.716 284.721C290.38 290.933 291.217 304.315 295.876 306.465C303.164 309.811 324.192 287.588 375.567 202.64C386.798 219.845 387.753 241.709 378.195 259.869Z" fill="black" opacity="0.1"/>
    <path d="M218.695 321.878C199.459 314.351 193.605 285.557 200.057 265.963C200.654 264.051 201.371 262.14 202.327 260.348C203.641 257.838 205.194 255.449 206.987 253.298C207.823 262.259 210.81 270.861 215.589 278.508C215.589 281.853 216.545 285.079 218.217 287.946C218.576 288.424 218.815 289.022 219.173 289.5C221.324 292.367 224.191 294.518 227.536 295.832L228.014 295.951C241.993 300.969 254.419 282.929 266.605 288.663C267.919 289.261 270.787 290.575 271.384 293.203C273.893 303.359 242.471 331.197 218.695 321.878Z" fill="#FFCB9D"/>
    <path d="M373.179 292.367C371.745 294.757 369.475 296.549 366.727 297.385C365.174 297.744 363.621 297.863 361.948 297.505C354.779 296.071 348.925 288.066 348.567 287.469C346.416 284.721 345.102 281.375 344.982 277.91C344.982 276.716 345.102 271.817 348.925 268.711C352.39 265.963 356.572 266.56 358.125 266.799C364.935 267.635 368.878 273.131 370.311 275.282L370.67 275.76C371.865 277.433 377.122 285.676 373.179 292.367Z" fill="#FFCB9D"/>
    <path d="M373.178 292.367C371.744 294.757 369.474 296.549 366.726 297.385C365.173 297.744 363.62 297.863 361.947 297.505C363.023 284.601 366.607 278.269 370.43 275.282L370.789 275.76C371.864 277.433 377.121 285.676 373.178 292.367Z" fill="black" opacity="0.1"/>
    <path d="M218.219 288.066C209.856 285.199 203.404 273.37 200.059 265.963C200.656 264.051 201.373 262.14 202.329 260.348C203.643 257.838 205.196 255.449 206.988 253.298C207.825 262.259 210.811 270.861 215.591 278.508C215.591 281.853 216.546 285.199 218.219 288.066Z" fill="black" opacity="0.1"/>
    <path d="M557.769 210.287C557.889 217.814 556.335 225.221 553.229 232.032L538.295 228.925L519.776 225.102C523.838 218.531 527.422 211.721 530.529 204.671C531.245 202.999 531.723 201.326 531.962 199.534C532.082 198.459 532.201 197.383 532.201 196.428V194.516C532.201 191.529 528.497 185.794 528.378 185.436C527.064 185.914 525.63 186.392 524.435 186.75C523.241 187.108 521.926 187.467 520.732 187.706C519.895 187.825 519.178 188.064 518.462 188.184C517.745 188.303 516.669 188.423 515.833 188.542C514.16 188.781 512.607 188.901 510.934 188.901C504.961 189.02 496.956 189.259 490.623 184.241C489.07 183.046 485.605 180.179 484.769 175.519C484.411 173.847 484.53 172.174 484.889 170.501C486.92 163.452 498.748 161.182 501.376 160.704C518.581 157.478 533.038 167.156 535.547 168.948L536.622 169.665C543.432 174.922 549.047 181.613 552.871 189.378C554.424 192.365 555.619 195.472 556.455 198.698C556.455 199.176 556.574 199.534 556.694 200.012C557.291 202.521 557.65 205.03 557.889 207.539C557.769 208.256 557.769 209.212 557.769 210.287Z" fill="#454C5E"/>
    <path d="M533.873 180.537C532.2 182.329 530.288 184.002 528.257 185.436C526.943 185.914 525.509 186.392 524.315 186.75C523.12 187.109 521.806 187.467 520.611 187.706C519.774 187.825 519.058 188.064 518.341 188.184C517.624 188.303 516.549 188.423 515.712 188.542C514.279 188.662 512.606 188.781 510.814 188.901C504.84 189.02 496.835 189.259 490.503 184.241C488.95 183.046 485.485 180.179 484.648 175.519C490.264 179.223 496.477 181.852 503.048 183.285C513.323 185.316 524.076 184.361 533.873 180.537Z" fill="black" opacity="0.5"/>
    <path d="M538.057 229.045L552.991 232.151C556.098 225.341 557.77 217.814 557.531 210.287C557.531 209.331 557.531 208.375 557.412 207.419L556.217 199.892C556.098 199.415 556.098 199.056 555.978 198.578C555.142 195.352 553.947 192.246 552.394 189.259C551.796 199.056 550.004 212.557 544.628 220.442C542.477 223.429 540.327 226.297 538.057 229.045Z" fill="black" opacity="0.5"/>
</svg>
