<svg xmlns="http://www.w3.org/2000/svg" width="800" height="600" fill="none" viewBox="0 0 800 600">
    <path d="M104.137 307.26C104.137 356.294 156.044 391.98 179.038 431.633C202.681 472.583 208.464 534.952 249.319 558.706C289.026 581.678 345.554 556.007 394.637 556.007C443.72 556.007 500.247 581.678 539.954 558.706C580.81 535.087 586.592 472.583 610.235 431.633C633.23 391.966 685.137 356.416 685.137 307.26C685.137 258.105 633.095 222.54 610.235 182.887C586.592 141.937 580.81 79.4334 539.954 55.8139C500.247 32.8423 443.72 58.5133 394.637 58.5133C345.554 58.5133 289.026 32.8423 249.319 55.8139C208.329 79.4334 202.681 141.937 179.038 182.887C156.044 222.675 104.137 258.226 104.137 307.26Z" fill="black" opacity="0.07"/>
    <path d="M537.081 221.283L500.928 208.158C503.774 199.046 503.909 191.444 500.996 190.384C497.69 189.179 491.7 196.887 487.635 207.588C483.57 218.289 482.96 227.944 486.266 229.136C489.18 230.196 494.166 224.342 498.083 215.627L534.236 228.752C535.875 229.348 537.691 228.527 538.301 226.938L538.938 225.256C539.547 223.653 538.707 221.879 537.081 221.283Z" fill="#454C5E"/>
    <path d="M538.811 306.997C550.008 296.853 550.062 280.871 550.129 260.936C550.183 244.589 550.399 209.335 531.284 201.25C526.563 199.246 517.565 197.593 511.98 202.347C496.736 215.322 528.303 258.037 513.14 278.854C507.353 286.803 493.904 292.695 462.391 288.009C461.946 293.873 461.609 299.968 461.393 306.252C461.245 310.721 461.164 315.096 461.137 319.362C461.137 320.337 461.137 321.298 461.137 322.26C462.526 322.152 463.943 322.03 465.386 321.894C476.353 320.879 486.727 319.931 496.696 318.481C519.791 315.109 531.378 313.741 538.798 307.01L538.811 306.997Z" fill="#FFCB9D"/>
    <path d="M495.137 318.778C485.658 320.069 475.811 320.956 465.445 321.897C463.97 322.031 462.536 322.152 461.143 322.26C461.129 321.305 461.143 320.351 461.143 319.383C461.156 315.148 461.252 310.806 461.402 306.369C461.621 300.131 461.962 294.081 462.413 288.26C469.119 289.241 475.019 289.752 480.209 289.873C480.168 297.832 482.503 309.986 495.137 318.778Z" fill="black" opacity="0.1"/>
    <path d="M455.702 380.26C510.872 384.803 550.137 396.522 550.137 410.244C550.137 427.923 484.988 442.26 404.637 442.26C324.285 442.26 259.137 427.923 259.137 410.244C259.137 396.722 297.24 385.164 351.114 380.474L455.702 380.26Z" fill="#454C5E"/>
    <path d="M225.137 323.26H98.1367V196.26H225.137V323.26ZM101.88 319.516H221.38V200.017H101.88V319.516Z" fill="#066FD1"/>
    <path d="M272.137 276.26H145.137V149.26H272.137V276.26ZM148.88 272.503H268.38V153.004H148.88V272.503Z" fill="#066FD1"/>
    <path d="M146 149.488L98.6055 196.9L101.251 199.544L148.646 152.133L146 149.488Z" fill="#066FD1"/>
    <path d="M269.176 149.489L221.781 196.9L224.427 199.545L271.822 152.134L269.176 149.489Z" fill="#066FD1"/>
    <path d="M145.989 272.639L98.5938 320.05L101.239 322.695L148.634 275.284L145.989 272.639Z" fill="#066FD1"/>
    <path d="M269.149 272.653L221.754 320.065L224.4 322.709L271.794 275.298L269.149 272.653Z" fill="#066FD1"/>
    <path d="M99.6367 208.26C105.436 208.26 110.137 203.559 110.137 197.76C110.137 191.961 105.436 187.26 99.6367 187.26C93.8377 187.26 89.1367 191.961 89.1367 197.76C89.1367 203.559 93.8377 208.26 99.6367 208.26Z" fill="#066FD1"/>
    <path d="M222.637 208.26C228.436 208.26 233.137 203.559 233.137 197.76C233.137 191.961 228.436 187.26 222.637 187.26C216.838 187.26 212.137 191.961 212.137 197.76C212.137 203.559 216.838 208.26 222.637 208.26Z" fill="#066FD1"/>
    <path d="M147.637 160.26C153.436 160.26 158.137 155.559 158.137 149.76C158.137 143.961 153.436 139.26 147.637 139.26C141.838 139.26 137.137 143.961 137.137 149.76C137.137 155.559 141.838 160.26 147.637 160.26Z" fill="#066FD1"/>
    <path d="M270.637 160.26C276.436 160.26 281.137 155.559 281.137 149.76C281.137 143.961 276.436 139.26 270.637 139.26C264.838 139.26 260.137 143.961 260.137 149.76C260.137 155.559 264.838 160.26 270.637 160.26Z" fill="#066FD1"/>
    <path d="M99.6367 332.26C105.436 332.26 110.137 327.559 110.137 321.76C110.137 315.961 105.436 311.26 99.6367 311.26C93.8377 311.26 89.1367 315.961 89.1367 321.76C89.1367 327.559 93.8377 332.26 99.6367 332.26Z" fill="#066FD1"/>
    <path d="M222.637 332.26C228.436 332.26 233.137 327.559 233.137 321.76C233.137 315.961 228.436 311.26 222.637 311.26C216.838 311.26 212.137 315.961 212.137 321.76C212.137 327.559 216.838 332.26 222.637 332.26Z" fill="#066FD1"/>
    <path d="M147.637 283.26C153.436 283.26 158.137 278.559 158.137 272.76C158.137 266.961 153.436 262.26 147.637 262.26C141.838 262.26 137.137 266.961 137.137 272.76C137.137 278.559 141.838 283.26 147.637 283.26Z" fill="#066FD1"/>
    <path d="M270.637 283.26C276.436 283.26 281.137 278.559 281.137 272.76C281.137 266.961 276.436 262.26 270.637 262.26C264.838 262.26 260.137 266.961 260.137 272.76C260.137 278.559 264.838 283.26 270.637 283.26Z" fill="#066FD1"/>
    <path d="M409.521 443.213C408.968 443.213 408.374 443.213 407.753 443.213C397.574 443.253 390.312 443.28 384.669 443.24C380.943 443.227 377.933 443.173 375.247 443.052C365.176 442.985 356.847 442.931 351.137 442.877V442.541C351.285 442.528 351.434 442.528 351.582 442.514C354.12 442.393 356.658 442.259 359.209 442.125H359.223C361.963 441.99 364.717 441.842 367.471 441.695C372.871 441.426 378.27 441.144 383.67 440.861C385.452 440.767 387.247 440.673 389.029 440.579C410.588 439.477 432.146 438.362 453.732 437.26C453.84 438.443 453.948 439.639 454.056 440.821C454.069 440.875 454.069 440.929 454.069 440.982C454.096 441.197 454.11 441.426 454.137 441.641C435.494 442.85 420.442 443.159 409.521 443.213Z" fill="#066FD1"/>
    <path d="M384.137 443.26C380.47 443.249 377.508 443.203 374.864 443.102C364.953 443.045 356.756 443 351.137 442.955V442.672C351.283 442.661 351.429 442.661 351.575 442.65C354.073 442.548 356.57 442.435 359.081 442.322H359.094C361.791 442.209 364.501 442.085 367.212 441.961C372.526 441.735 377.84 441.497 383.154 441.26C383.366 441.701 383.579 442.141 383.805 442.582C383.884 442.774 383.977 442.955 384.07 443.147C384.097 443.181 384.11 443.226 384.137 443.26Z" fill="black"/>
    <path d="M200.771 213.325C193.288 212.461 184.218 220.391 181.284 229.035C173.936 250.625 203.503 280.454 224.134 294.641C241.198 306.373 259.905 312.725 280.899 318.753C285.03 319.94 289.243 321.099 293.563 322.299C303.643 325.104 312.148 327.019 318.137 328.26C317.962 324.134 317.8 320.02 317.639 315.907C317.262 306.737 316.885 297.594 316.522 288.465C314.328 288.869 311.327 289.314 307.734 289.53C306.994 289.571 306.227 289.611 305.432 289.625C299.619 289.773 294.114 289.139 288.947 287.966C272.124 284.176 258.868 274.845 250.215 268.628C245.128 264.973 237.955 259.768 230.163 251.124C211.873 230.802 210.864 214.471 200.784 213.311L200.771 213.325Z" fill="#FFCB9D"/>
    <path d="M307.787 289.813C307.051 289.853 306.289 289.893 305.5 289.907C299.724 290.054 294.255 289.425 289.12 288.26C295.565 301.352 287.716 312.571 281.137 318.822C285.242 320 289.427 321.152 293.72 322.343C303.735 325.128 312.186 327.028 318.137 328.26C317.963 324.164 317.802 320.081 317.642 315.998L307.8 289.813H307.787Z" fill="black" opacity="0.1"/>
    <path d="M341.137 200.355C342.43 205.104 344.389 212.066 347.07 220.553C347.696 222.428 348.227 224.088 348.39 224.614C351.657 233.829 356.052 242.599 361.51 250.721C362.625 252.327 363.728 253.824 364.898 255.255C369.28 260.53 393.518 262.77 412.639 256.267C431.76 249.763 434.55 229.269 424.22 223.076C420.505 220.458 417.293 217.207 414.748 213.456C411.183 208.571 407.957 203.444 405.127 198.101C403.426 195.093 402.459 193.042 402.459 193.042L384.033 183.26L347.002 191.504C348.839 197.575 348.159 202.217 346.281 203.053C344.389 203.876 341.654 200.962 341.137 200.355Z" fill="#FFCB9D"/>
    <path d="M341.137 200.208C342.42 204.927 344.365 211.846 347.026 220.28C347.648 222.143 348.175 223.793 348.337 224.315C351.565 233.473 355.942 242.188 361.359 250.26C363.574 248.973 365.52 247.297 367.1 245.286C368.802 243.06 370.045 240.526 370.761 237.831C371.45 234.948 371.693 231.985 371.45 229.035C371.409 227.118 371.247 225.2 370.964 223.31C386.08 224.838 401.277 221.299 414.137 213.267C410.597 208.414 407.423 203.305 404.6 198.009C402.911 195.019 401.952 192.981 401.952 192.981L383.662 183.26L346.891 191.452C348.715 197.486 348.067 202.098 346.189 202.93C344.311 203.748 341.677 200.825 341.15 200.208H341.137Z" fill="black" opacity="0.1"/>
    <path d="M423.322 183.721C422.756 186.478 421.893 189.155 420.733 191.724C419.358 195.046 417.498 198.166 415.22 200.964C407.684 210.231 386.681 218.556 366.46 213.015C362.362 211.885 359.154 210.432 357.091 209.383C357.118 209.383 357.145 209.383 357.185 209.424C357.266 209.491 357.253 209.585 357.253 209.598C357.32 210.903 357.563 211.885 357.779 212.557C357.779 212.557 358.48 214.696 358.399 215.503C358.399 215.53 358.385 215.651 358.399 215.826C358.426 216.068 358.534 216.229 358.56 216.283C358.682 216.66 358.749 216.915 358.884 217.305L359.14 217.883C359.504 218.933 363.103 226.034 363.858 230.19C364.276 232.947 363.831 235.772 362.578 238.26C360.879 234.454 358.25 231.145 354.934 228.616C353.667 227.769 352.359 227.002 350.984 226.317C344.298 222.013 339.404 215.436 337.234 207.796C336.385 204.662 336.021 201.407 336.169 198.153C336.156 196.041 336.533 188.294 340.213 183.264C347.843 172.867 371.556 172.1 383.648 173.378C385.778 173.62 389.472 174.118 392.181 172.692C392.707 172.423 393.165 172.06 393.556 171.603C396.077 168.738 395.147 163.613 393.57 160.574C390.537 154.683 382.61 151.63 373.416 152.585C391.709 143.735 411.796 149.195 420.086 162.363C423.942 168.778 425.101 176.445 423.322 183.707V183.721Z" fill="#454C5E"/>
    <path d="M423.137 183.26C422.574 186.061 421.716 188.78 420.564 191.376C419.197 194.751 417.348 197.92 415.084 200.762C404.927 213.605 385.819 218.565 366.618 213.004C361.861 211.16 357.801 209.602 357.118 209.37H357.024L350.137 205.49C360.441 207.99 371.12 208.564 381.625 207.184C390.911 205.941 403.842 204.26 414.655 194.095C417.991 190.939 420.845 187.291 423.123 183.274L423.137 183.26Z" fill="black" opacity="0.5"/>
    <path d="M472.961 292.6C472.934 293.074 472.907 293.562 472.866 294.05C472.556 298.331 471.95 303.019 470.898 308.019C469.536 314.482 467.69 320.213 465.694 325.159C465.438 325.809 465.182 326.446 464.912 327.069C463.416 330.619 461.866 333.735 460.423 336.364C456.19 335.375 451.944 334.399 447.697 333.41C446.861 346.146 446.713 360.658 447.98 376.551C448.075 377.675 448.169 378.786 448.277 379.884C450.407 403.473 455.098 423.81 460.14 440.218C460.208 440.462 460.288 440.706 460.369 440.95C460.369 441.018 460.396 441.086 460.423 441.153C458.064 441.329 455.772 441.492 453.521 441.628C434.903 442.847 419.872 443.159 408.966 443.213C408.413 443.213 407.82 443.213 407.2 443.213C397.035 443.253 389.782 443.281 384.147 443.24C380.426 443.226 377.42 443.172 374.737 443.05C368.913 442.806 363.548 442.481 358.735 442.115H358.722C356.524 441.953 354.448 441.777 352.507 441.6C350.175 441.384 348.018 441.167 346.049 440.964C346.144 440.679 346.252 440.395 346.346 440.096C346.387 439.988 346.427 439.866 346.467 439.744C348.247 434.501 350.269 426.805 350.673 417.442C351.307 402.85 348.126 393.04 345.362 380.548C345.321 380.345 345.268 380.141 345.227 379.938C342.962 369.532 340.455 354.154 340.347 334.413L315.11 334.453C314.18 332.055 313.263 329.494 312.374 326.798C310.796 322.029 309.3 316.785 308.006 311.122C306.186 303.195 305.107 295.825 304.487 289.24C304.352 287.749 304.231 286.313 304.137 284.918C309.677 283.644 324.291 280.297 340.805 276.734C340.805 276.734 351.671 274.39 361.539 272.872C363.265 272.615 364.815 272.398 366.042 272.236C369.601 271.788 372.688 271.49 375.061 271.287C377.42 271.084 379.092 270.975 379.82 270.935C380.035 270.921 394.945 270.013 411.298 270.325C420.748 270.501 466.544 282.384 473.055 282.425C473.176 285.432 473.176 288.847 472.961 292.6Z" fill="#DADCE0"/>
    <path d="M461.137 441.189C458.775 441.365 456.48 441.528 454.226 441.664C435.587 442.885 420.538 443.197 409.619 443.252C404.774 443.279 397.553 443.238 384.704 443.143C381.869 443.13 378.765 443.116 375.35 443.089C365.282 443.021 356.954 442.967 351.245 442.912H351.137C351.137 442.912 351.204 442.872 351.245 442.845C351.393 442.75 351.542 442.655 351.69 442.546C352.149 442.247 352.621 441.949 353.094 441.637C353.512 441.365 353.931 441.08 354.362 440.795C354.767 440.524 355.172 440.252 355.591 439.981C375.107 426.829 398.686 407.488 419.85 379.868C423.44 375.199 426.949 370.299 430.364 365.142C437.625 354.162 443.55 343.426 448.396 333.26C447.559 346.018 447.41 360.554 448.679 376.475C448.774 377.601 448.868 378.714 448.976 379.814C451.108 403.444 455.805 423.816 460.853 440.252C460.921 440.497 461.002 440.741 461.083 440.985C461.083 441.053 461.11 441.121 461.137 441.189Z" fill="black" opacity="0.1"/>
    <path d="M412.13 271.034C412.445 276.091 401.295 281.046 387.213 282.072C373.145 283.098 361.46 279.829 361.145 274.757C361.104 274.2 361.214 273.643 361.433 273.086C363.186 272.808 364.762 272.573 366.008 272.397C369.624 271.914 372.748 271.591 375.172 271.371C377.569 271.151 379.268 271.034 380.008 270.975C380.227 270.975 395.377 269.993 411.993 270.33C412.062 270.565 412.117 270.8 412.13 271.034Z" fill="#FFCB9D"/>
    <path d="M366.834 236.26L363.2 232.502C362.635 231.911 362.231 231.187 362.043 230.395L357.265 210.732C356.673 208.262 358.181 205.793 360.657 205.189L417.828 191.391C418.918 191.123 420.075 191.27 421.058 191.794L428.137 195.525L368.557 232.435L366.834 236.26Z" fill="#A6A9B3"/>
    <path d="M424.823 195.153L365.771 209.45C362.726 210.187 360.855 213.253 361.593 216.297L366.137 235.067C366.874 238.111 369.94 239.982 372.984 239.245L432.037 224.948C435.081 224.211 436.952 221.145 436.215 218.1L431.67 199.331C430.933 196.286 427.867 194.415 424.823 195.153Z" fill="#DADCE0"/>
    <path d="M428.6 202.438L432.034 216.797C432.587 219.125 430.849 221.561 428.142 222.214L411.696 226.243C409.743 226.72 407.844 225.74 407.44 224.066L406.726 221.085C406.551 220.363 405.703 219.941 404.867 220.146L395.345 222.473C394.496 222.677 393.944 223.453 394.119 224.174L394.833 227.155C395.237 228.829 393.985 230.585 392.032 231.062L375.586 235.09C372.892 235.757 370.225 234.396 369.673 232.069L366.239 217.709C365.686 215.382 367.437 212.945 370.131 212.292L422.687 199.43C425.408 198.763 428.048 200.124 428.6 202.451V202.438Z" fill="#066FD1"/>
    <path d="M428.773 203.26L432.034 216.832C432.587 219.155 430.849 221.587 428.14 222.239L411.686 226.26C409.733 226.736 407.833 225.758 407.428 224.087L406.714 221.111C406.539 220.391 405.69 219.97 404.854 220.174L395.327 222.497C394.478 222.701 393.926 223.475 394.101 224.195L394.815 227.17C395.22 228.841 393.966 230.594 392.012 231.069L375.559 235.091C372.864 235.756 370.196 234.398 369.643 232.075L367.137 221.655C371.206 219.794 377.526 217.729 386.016 217.362C399.02 216.818 421.052 206.928 428.773 203.274V203.26Z" fill="black" opacity="0.1"/>
    <path d="M361.945 226.668L350.395 229.033C347.643 229.596 344.949 227.818 344.386 225.066L343.915 222.764C343.666 221.547 344.457 220.364 345.661 220.118L359.99 217.185L361.932 226.671L361.945 226.668Z" fill="#A6A9B3"/>
    <path d="M225.137 323.26H98.1367V196.26H225.137V323.26ZM101.88 319.516H221.38V200.017H101.88V319.516Z" fill="#066FD1"/>
    <path d="M715.606 233.26H592.031C586.982 233.26 581.472 229.164 579.725 224.122L556.67 157.398C554.924 152.356 557.604 148.26 562.668 148.26H686.242C691.292 148.26 696.802 152.356 698.548 157.398L721.603 224.122C723.35 229.164 720.669 233.26 715.606 233.26Z" fill="#A6A9B3"/>
    <path d="M443.585 85.26H579.236C583.458 85.26 588.057 88.6542 589.513 92.8235L594.692 107.697C596.149 111.879 593.91 115.26 589.688 115.26H454.037C449.816 115.26 445.217 111.866 443.76 107.697L438.581 92.8235C437.125 88.6408 439.364 85.26 443.585 85.26Z" fill="#DADCE0"/>
    <path d="M484.317 187.26C483.877 187.26 483.438 187.119 483.053 186.85C482.078 186.128 481.844 184.727 482.531 183.722C482.751 183.411 487.902 176.024 496.735 174.524C502.491 173.547 508.384 175.288 514.236 179.675C515.211 180.411 515.431 181.812 514.716 182.816C514.002 183.821 512.642 184.048 511.667 183.312C506.804 179.661 502.037 178.203 497.49 178.953C490.471 180.128 486.144 186.255 486.103 186.312C485.677 186.92 485.004 187.26 484.317 187.26Z" fill="#066FD1"/>
    <path d="M475.244 174.26C474.622 174.26 473.987 174.071 473.446 173.692C472.054 172.69 471.716 170.755 472.703 169.361C473.014 168.928 480.352 158.696 492.935 156.626C501.139 155.272 509.518 157.681 517.857 163.758C519.249 164.773 519.546 166.722 518.546 168.116C517.546 169.51 515.587 169.807 514.194 168.806C507.275 163.758 500.477 161.728 494.003 162.77C484.001 164.394 477.839 172.88 477.771 172.961C477.163 173.813 476.203 174.26 475.23 174.26H475.244Z" fill="#066FD1"/>
    <path d="M555.137 409.908C555.137 437.309 465.13 447.26 404.643 447.26C344.157 447.26 254.137 437.309 254.137 409.908C254.137 387.38 313.704 378.499 344.981 375.386C345.278 376.875 345.576 378.269 345.859 379.596C346.251 381.397 346.697 383.197 347.156 385.038C289.818 390.575 263.959 402.8 263.959 409.908C263.959 413.184 272.065 421.199 302.761 428.036C329.917 434.087 366.098 437.418 404.643 437.418C443.189 437.418 479.37 434.087 506.526 428.036C537.222 421.199 545.328 413.184 545.328 409.908C545.328 405.562 538.357 390.9 449.485 383.197C449.242 380.909 449.025 378.581 448.836 376.211C448.755 375.223 448.688 374.235 448.62 373.26C483.747 376.225 510.404 380.652 527.873 386.406C546.22 392.457 555.137 400.133 555.137 409.908Z" fill="#066FD1"/>
    <path d="M595.22 422.648C590.811 433.261 581.438 440.364 572.133 445.961C528.192 470.644 464.6 476.946 414.816 478.234C358.203 478.681 284.738 473.625 234.724 445.135C217.967 435.145 203.969 418.338 215.154 398.4C235.4 364.582 303.631 358.456 341.784 357.846C341.987 359.784 342.217 361.641 342.46 363.43C328.854 365.03 315.276 366.968 301.873 369.706C281.045 373.84 227.083 387.611 226.393 412.659C228.449 430.333 267.886 441.516 283.115 445.473C311.489 452.549 340.932 456.019 370.212 457.604C414.262 459.854 459.028 458.079 502.374 450.448C520.402 447.412 585.36 433.098 581.898 409.826C578.963 390.932 545.666 381.444 529.288 376.618C502.793 369.462 475.23 365.233 447.613 361.505C447.559 359.73 447.532 357.981 447.519 356.26C488.214 358.185 558.555 362.82 586.388 389.007C595.152 397.031 600.089 411.181 595.22 422.648Z" fill="#066FD1"/>
</svg>
