<svg xmlns="http://www.w3.org/2000/svg" width="800" height="600" fill="none" viewBox="0 0 800 600">
    <path d="M677.998 299.918C677.998 346.949 628.241 381.135 606.246 419.017C583.62 458.186 578.168 518.052 538.999 540.842C500.964 562.837 446.867 538.28 399.999 538.28C353.132 538.28 298.882 562.849 261 540.842C221.842 518.216 216.378 458.339 193.752 419.017C171.757 380.983 122 346.949 122 299.918C122 252.887 171.757 218.701 193.752 180.831C216.378 141.661 221.83 81.796 261 59.1579C299.046 37.1632 352.968 61.72 399.999 61.72C447.03 61.72 501.116 37.1515 538.999 59.1579C578.156 81.7843 583.62 141.65 606.246 180.831C628.241 218.865 677.998 252.899 677.998 299.918Z" fill="black" opacity="0.07"/>
    <path d="M208 516.475C208 520.079 293.954 523 399.996 523C506.038 523 592 520.016 592 516.475C592 512.934 506.038 510 399.996 510C293.954 510 208 512.984 208 516.475Z" fill="#1D2535" opacity="0.5"/>
    <path d="M474.127 495.133L462.615 495.811L412.741 442.498C408.552 431.851 404.368 421.221 400.187 410.605L399.462 408.78L368.026 432.974C365.359 454.376 362.683 475.771 360 497.157L350.103 497.098C343.676 473.177 337.222 449.26 330.74 425.347C343.266 408.094 355.788 390.837 368.307 373.577L388.968 373.191L442.785 372.173C442.785 393.419 442.753 414.669 442.691 435.923C453.174 455.624 463.652 475.361 474.127 495.133Z" fill="#DADBE0"/>
    <path d="M340.906 522.521L361.673 515.782C361.673 515.782 361.392 510.073 357.578 508.763C353.764 507.452 343.34 516.671 340.906 522.416" fill="#454C5E"/>
    <path d="M458.088 517.806L478.854 511.102C478.854 511.102 478.573 505.393 474.748 504.083C470.922 502.773 460.521 511.992 458.076 517.748" fill="#454C5E"/>
    <path d="M399.462 408.769L368.026 432.963C365.359 454.365 362.683 475.759 360 497.145L350.103 497.087C343.676 473.173 337.222 449.26 330.74 425.346C343.266 408.094 355.788 390.837 368.307 373.577L388.968 373.191L399.462 408.769Z" fill="black" opacity="0.1"/>
    <path d="M381.129 277.514L366.025 255.8C364.855 259.31 361.802 268.318 357.836 268.283C354.326 268.283 351.658 261.147 349.95 255.589C349.681 254.7 349.447 253.881 349.213 253.109C348.16 249.389 346.265 242.65 344.019 234.297C339.549 217.216 334.004 193.279 332.495 174.01C331.255 158.111 332.764 145.394 339.9 142.317C341.613 141.693 343.439 141.445 345.255 141.588C347.072 141.732 348.836 142.263 350.43 143.147C359.029 147.827 359.286 162.638 359.438 169.167C359.438 169.354 359.438 169.541 359.438 169.705C359.906 190.015 364.703 209.822 369.909 229.558C370.931 233.458 371.984 237.358 373.068 241.258C376.145 253.367 379.152 265.417 381.129 277.514Z" fill="#FFCB9D"/>
    <path d="M471.166 165.598C470.312 167.622 469.458 169.377 468.826 170.687C458.671 192.121 454.167 215.601 449.288 238.976C447.206 248.979 445.053 258.971 442.351 268.786C441.625 271.454 440.853 274.098 440.011 276.753L438.63 267.265L436.185 250.652C433.635 253.273 426.826 259.953 423.316 258.128C419.806 256.303 421.304 246.429 422.392 240.696C422.918 237.853 423.772 233.291 424.895 227.616C428.159 211.471 433.787 186.4 441.146 166.78C447.498 149.816 455.185 136.935 463.632 137.426C465.438 137.632 467.178 138.225 468.735 139.164C470.291 140.102 471.627 141.365 472.652 142.866C477.074 149.231 474.032 158.953 471.166 165.598Z" fill="#FFCB9D"/>
    <path d="M359.38 169.167C346.148 169.319 337.268 172.009 332.471 174.01C331.231 158.111 332.74 145.394 339.877 142.317C341.589 141.693 343.415 141.445 345.232 141.588C347.048 141.732 348.813 142.263 350.406 143.147C358.97 147.815 359.181 162.638 359.38 169.167Z" fill="black" opacity="0.1"/>
    <path d="M471.167 165.598C462.802 165.938 452.319 166.359 441.123 166.768C447.476 149.804 455.162 136.923 463.609 137.415C465.415 137.621 467.155 138.213 468.712 139.152C470.268 140.091 471.605 141.354 472.629 142.855C477.075 149.231 474.033 158.953 471.167 165.598Z" fill="black" opacity="0.1"/>
    <path d="M488.853 267.417C489.739 266.525 491.179 266.52 492.072 267.405L523.238 298.326C524.131 299.211 524.136 300.652 523.251 301.544C522.366 302.436 520.925 302.442 520.033 301.557L488.866 270.636C487.974 269.75 487.968 268.31 488.853 267.417Z" fill="#066FD1"/>
    <path d="M505.508 248.879C506.074 247.757 507.442 247.306 508.564 247.872L537.005 262.215C538.127 262.781 538.578 264.149 538.012 265.272C537.447 266.394 536.078 266.845 534.956 266.279L506.515 251.935C505.393 251.369 504.942 250.001 505.508 248.879Z" fill="#066FD1"/>
    <path d="M308.417 274.273C309.302 275.165 309.297 276.606 308.405 277.491L277.238 308.413C276.345 309.298 274.905 309.292 274.02 308.4C273.134 307.508 273.14 306.067 274.032 305.182L305.199 274.261C306.091 273.375 307.532 273.381 308.417 274.273Z" fill="#066FD1"/>
    <path d="M291.766 255.735C292.332 256.857 291.881 258.225 290.759 258.791L262.318 273.134C261.196 273.7 259.828 273.249 259.262 272.127C258.696 271.005 259.147 269.637 260.269 269.071L288.71 254.728C289.832 254.162 291.201 254.613 291.766 255.735Z" fill="#066FD1"/>
    <path d="M372.985 241.398C366.925 245.423 351.926 255.355 349.937 255.66C349.668 254.782 349.434 253.951 349.212 253.191C348.147 249.459 346.24 242.732 344.018 234.378C352.249 231.149 361.032 229.559 369.873 229.699C370.879 233.56 371.944 237.467 372.985 241.398Z" fill="black" opacity="0.1"/>
    <path d="M449.265 238.965C447.182 248.979 445.03 258.97 442.327 268.786L438.607 267.265L436.162 250.652C433.599 253.285 426.802 259.953 423.292 258.14C419.782 256.326 421.292 246.441 422.368 240.708C422.895 237.853 423.749 233.302 424.872 227.628C430.207 229.476 441.005 233.571 449.265 238.965Z" fill="black" opacity="0.1"/>
    <path d="M436.279 292.524C435.813 303.309 436.149 314.114 437.285 324.849C438.498 336.479 440.658 347.99 443.743 359.269C445.451 365.563 447.312 371.296 449.183 376.443L362.211 378.385C363.179 351.648 362.249 324.875 359.426 298.268C359.422 298.232 359.418 298.196 359.414 298.159C352.882 280.253 346.358 262.346 339.842 244.44C343.354 242.16 347.085 240.236 350.98 238.696C358.001 235.924 365.452 234.4 372.998 234.191L376.039 240.965C376.325 241.629 379.976 249.826 380.457 250.839H380.462L381.526 250.956C383.223 251.144 384.954 251.319 386.733 251.483L388.265 251.588C388.792 251.647 389.318 251.705 389.856 251.705L391.541 251.787C395.566 251.998 399.742 252.056 404.071 251.963C407.826 251.892 411.43 251.682 414.94 251.401C416.38 248.807 417.669 246.131 418.8 243.387C419.93 240.336 420.543 237.117 420.614 233.864L443.123 246.733H443.205C443.211 246.752 443.211 246.772 443.205 246.792L454.238 253.074C447.899 261.083 442.959 270.106 439.625 279.76C438.19 283.925 437.071 288.191 436.279 292.524Z" fill="#066FD1"/>
    <path d="M415.081 251.378H415.01C409.254 254.887 396.291 261.907 387.868 260.456C385.996 260.129 382.65 259.579 381.036 256.865C380.085 255.004 379.904 252.844 380.533 250.851L381.597 250.956C383.071 251.12 384.826 251.284 386.803 251.483L388.336 251.6L389.927 251.717L391.612 251.799C395.78 252.126 399.966 252.185 404.142 251.974C407.909 251.904 411.536 251.694 415.022 251.413L415.081 251.378Z" fill="#FFCB9D"/>
    <path d="M415.081 251.378H415.01C409.254 254.887 396.291 261.907 387.868 260.456C385.996 260.129 382.65 259.579 381.036 256.865C380.085 255.004 379.904 252.844 380.533 250.851L381.597 250.956C383.071 251.12 384.826 251.284 386.803 251.483L388.336 251.6L389.927 251.717L391.612 251.799C395.78 252.126 399.966 252.185 404.142 251.974C407.909 251.904 411.536 251.694 415.022 251.413L415.081 251.378Z" fill="black" opacity="0.1"/>
    <path d="M362.223 378.397C363.191 351.659 362.26 324.886 359.438 298.28C352.894 280.341 346.358 262.402 339.83 244.463C344.782 254.133 350.218 263.547 356.116 272.67C357.906 275.572 359.965 278.59 362.106 281.737C380.474 308.763 409.09 343.252 443.743 359.316C445.463 365.61 447.323 371.342 449.195 376.49L362.223 378.397Z" fill="black" opacity="0.1"/>
    <path d="M425.504 203.188C424.58 206.464 423.164 211.272 421.433 217.227C421.047 218.146 420.719 219.088 420.45 220.047C418.242 226.43 415.197 232.493 411.395 238.076C410.541 239.175 409.839 240.263 409.125 241.176C406.095 244.861 389.505 246.242 376.367 241.726C363.229 237.21 361.427 223.007 368.564 218.795C371.115 217.022 373.313 214.788 375.045 212.208C377.499 208.829 379.723 205.287 381.702 201.609C382.93 199.456 383.597 198.099 383.597 198.099L396.186 191.348L421.515 197.14C420.193 201.281 420.602 204.545 422.006 205.2C423.41 205.856 425.165 203.82 425.586 203.305" fill="#FFCB9D"/>
    <path d="M425.504 203.188C424.58 206.464 423.164 211.272 421.433 217.227C421.047 218.146 420.719 219.088 420.45 220.047C418.242 226.43 415.197 232.493 411.395 238.076C409.903 237.131 408.578 235.945 407.476 234.566C406.27 233.049 405.43 231.276 405.019 229.383C404.552 227.391 404.41 225.337 404.598 223.299C404.635 221.941 404.748 220.585 404.937 219.24C394.474 220.222 383.986 217.641 375.174 211.916C377.623 208.535 379.843 204.994 381.819 201.316C382.989 199.175 383.714 197.806 383.714 197.806L396.326 191.126L421.585 196.976C420.275 201.117 420.672 204.393 422.076 205.037C423.48 205.68 425.095 203.867 425.516 203.293" fill="black" opacity="0.1"/>
    <path d="M428.535 216.982C426.862 219.497 421.796 220.129 418.965 221.474C418.33 221.791 417.713 222.142 417.116 222.527C416.836 222.689 416.58 222.89 416.356 223.124C414.064 224.855 412.236 227.126 411.033 229.734C410.186 228.021 409.884 226.09 410.167 224.2C411.022 221.276 412.118 218.427 413.443 215.683C413.444 215.56 413.485 215.441 413.56 215.344C413.656 214.948 413.773 214.557 413.911 214.174C414.388 212.825 414.718 211.429 414.894 210.009V209.845C412.109 210.184 398.83 212.021 388.102 210.535C381.902 209.67 376.532 207.716 374.508 203.691C373.663 202.067 373.207 200.269 373.174 198.438V198.333V197.654V197.561C373.249 196.973 373.415 196.401 373.665 195.864C375.876 190.927 383.727 191.816 385.201 187.148C386.137 184.048 383.107 182.258 384.429 179.602C385.751 176.947 390.407 175.554 393.788 176.467C396.362 177.145 396.21 178.655 398.62 179.345C402.808 180.515 404.727 176.444 409.009 177.415C411.618 178.271 413.904 179.904 415.56 182.094C416.918 183.908 417.058 184.89 418.731 186.341C420.042 187.349 421.519 188.121 423.095 188.623C426.534 189.699 427.424 188.751 429.167 189.523C432.185 191.15 433.706 195.373 433.308 198.976C432.677 203.516 429.249 203.785 428.371 208.71C427.728 213.097 430.068 214.583 428.535 216.982Z" fill="#454C5E"/>
    <path d="M419.784 204.885C419.632 205.142 417.374 209.564 414.87 209.822C412.086 210.149 398.807 211.986 388.079 210.5C381.878 209.634 376.508 207.681 374.496 203.668C373.644 202.042 373.183 200.239 373.15 198.403V198.298L373.209 197.619V197.514C373.209 197.514 391.998 211.284 419.784 204.885Z" fill="black" opacity="0.5"/>
    <path d="M307.072 159.667C306.312 136.139 297.713 116.379 286.282 109.36L286.212 107.02L278.76 106.68C278.045 106.602 277.326 106.571 276.607 106.587C260.754 107.102 248.681 131.717 249.699 161.574C250.716 191.43 264.311 215.203 280.117 214.689L289.722 215.121L289.593 211.296C300.497 203.469 307.832 183.206 307.072 159.667Z" fill="#A6A9B3"/>
    <path d="M289.726 215.084C305.58 214.57 317.646 189.95 316.677 160.095C315.707 130.24 302.069 106.455 286.215 106.97C270.36 107.484 258.294 132.104 259.263 161.959C260.233 191.814 273.871 215.599 289.726 215.084Z" fill="#DADBE0"/>
    <path d="M521.13 148.976L290.985 156.45C288.718 156.524 286.941 158.421 287.014 160.688C287.088 162.955 288.985 164.733 291.252 164.659L521.396 157.185C523.663 157.111 525.441 155.214 525.367 152.948C525.294 150.681 523.397 148.903 521.13 148.976Z" fill="#454C5E"/>
    <path d="M541.935 151.676C541.175 128.149 532.576 108.389 521.146 101.369L521.075 99.0291L513.623 98.7016C512.909 98.6137 512.189 98.5785 511.47 98.5963C495.618 99.111 483.544 123.738 484.562 153.583C485.58 183.428 499.174 207.224 514.98 206.71L524.585 207.143L524.457 203.305C535.36 195.467 542.707 175.203 541.935 151.676Z" fill="#A6A9B3"/>
    <path d="M524.593 207.08C540.447 206.565 552.513 181.945 551.544 152.09C550.574 122.235 536.936 98.4498 521.082 98.9647C505.227 99.4795 493.161 124.099 494.13 153.954C495.1 183.809 508.738 207.594 524.593 207.08Z" fill="#DADBE0"/>
    <path d="M535.98 149.652L522.959 150.073C523.521 152.799 523.977 155.525 524.351 158.263L536.238 157.877C536.8 157.898 537.361 157.803 537.886 157.598C538.41 157.393 538.887 157.082 539.286 156.685C539.685 156.288 539.999 155.813 540.207 155.29C540.415 154.767 540.513 154.207 540.495 153.644C540.477 153.081 540.344 152.528 540.104 152.019C539.863 151.51 539.521 151.056 539.097 150.685C538.674 150.314 538.179 150.034 537.642 149.862C537.106 149.69 536.541 149.631 535.98 149.687V149.652Z" fill="#454C5E"/>
    <path d="M332.729 155.104C333.573 156.891 334.929 158.387 336.624 159.403C338.319 160.42 340.278 160.91 342.252 160.813C349.564 160.813 357.765 154.297 357.765 154.297C357.203 153.688 351.623 147.909 343.433 148.985C339.22 149.598 335.395 151.784 332.729 155.104Z" fill="#FFCB9D"/>
    <path d="M447.99 151.36C448.164 152.279 448.527 153.151 449.055 153.922C452.728 159.304 463.234 157.198 464.673 156.894C466.112 156.59 474.665 154.788 474.875 151.36C475.074 148.131 467.797 144.048 461.105 144.341C453.746 144.61 449.02 150.108 447.99 151.36Z" fill="#FFCB9D"/>
</svg>
