<svg xmlns="http://www.w3.org/2000/svg" width="800" height="600" fill="none" viewBox="0 0 800 600">
    <path d="M142.809 309.293C142.809 352.975 188.91 384.761 209.33 420.09C230.33 456.568 235.462 512.131 271.749 533.279C307.009 553.751 357.213 530.874 400.809 530.874C444.404 530.874 494.609 553.739 529.868 533.279C566.156 512.238 571.287 456.556 592.287 420.09C612.719 384.761 658.809 353.093 658.809 309.293C658.809 265.494 612.589 233.826 592.287 198.497C571.287 162.019 566.156 106.337 529.868 85.308C494.609 64.8358 444.404 87.713 400.809 87.713C357.213 87.713 307.009 64.8476 271.749 85.308C235.343 106.349 230.33 162.031 209.33 198.497C188.91 233.944 142.809 265.612 142.809 309.293Z" fill="#066FD1" opacity="0.02"/>
    <path d="M349.868 233.497C345.321 234.613 340.621 232.5 337.48 228.427C336.051 226.574 334.949 224.318 334.328 221.765C334.129 220.957 333.988 220.138 333.906 219.342C333.156 212.134 336.801 205.591 342.766 204.094C348.848 202.586 355.212 206.885 357.732 213.891C357.954 214.521 358.153 215.162 358.306 215.827C358.587 216.967 358.739 218.119 358.786 219.235C359.126 226.052 355.552 232.084 349.868 233.497Z" fill="#FFCB9D"/>
    <path d="M345.029 183.38L344.546 183.499C342.547 183.988 341.323 186.006 341.812 188.006L347.56 211.475C348.049 213.474 350.067 214.698 352.066 214.208L352.549 214.09C354.549 213.601 355.773 211.583 355.283 209.583L349.536 186.114C349.046 184.115 347.028 182.891 345.029 183.38Z" fill="#FFCB9D"/>
    <path d="M358.809 219.308C356.914 223.156 354.748 227.274 354.136 227.568C353.241 227.985 342.577 228.634 337.399 228.793C335.963 226.882 334.856 224.553 334.232 221.918C334.032 221.085 333.891 220.24 333.809 219.418C340.706 218.242 351.711 215.411 357.726 213.793C357.949 214.443 358.149 215.105 358.302 215.791C358.585 216.967 358.738 218.156 358.785 219.308H358.809Z" fill="black" opacity="0.1"/>
    <path d="M593.69 242.077L596.631 241.89C598.237 241.788 599.631 243.015 599.733 244.621L607.179 361.671C607.333 364.092 605.498 366.177 603.077 366.331C600.656 366.485 598.571 364.649 598.417 362.228L590.971 245.179C590.869 243.573 592.096 242.179 593.702 242.076L593.69 242.077Z" fill="#232B41"/>
    <path d="M607.69 161.813L572.799 164.04C569.199 164.275 565.987 166.408 564.376 169.647L548.86 201.02C547.26 204.259 547.495 208.112 549.507 211.128L568.87 240.274C570.869 243.29 574.328 244.998 577.928 244.774L612.819 242.547C616.418 242.312 619.63 240.179 621.241 236.94L636.758 205.567C638.357 202.327 638.122 198.475 636.111 195.459L616.748 166.313C614.748 163.297 611.289 161.589 607.69 161.813Z" fill="#A6A9B3"/>
    <path d="M638.691 193.918L619.162 164.533C616.636 160.709 612.213 158.523 607.648 158.82L572.491 161.053C567.914 161.35 563.823 164.07 561.795 168.192L558.428 174.985L546.143 199.821C544.104 203.93 544.424 208.848 546.95 212.672L566.479 242.057C568.862 245.656 572.918 247.793 577.174 247.793C577.459 247.793 577.72 247.782 577.981 247.77L613.15 245.537C617.727 245.24 621.818 242.496 623.846 238.398L627.296 231.391L639.486 206.769C641.501 202.66 641.205 197.73 638.656 193.918H638.691ZM612.818 240.216L577.661 242.449C575.005 242.627 572.396 241.332 570.914 239.087L551.384 209.703C549.89 207.47 549.724 204.596 550.91 202.184L561.878 179.998L566.562 170.543C567.76 168.132 570.167 166.541 572.835 166.362L608.004 164.129C610.66 163.939 613.269 165.246 614.739 167.491L634.268 196.875C635.762 199.096 635.94 201.983 634.743 204.394L622.079 230.001L619.103 236.035C617.917 238.434 615.51 240.038 612.83 240.216H612.818Z" fill="#DADCE0"/>
    <path d="M626.785 231.348L623.356 238.374C621.329 242.482 617.264 245.233 612.727 245.531L577.775 247.77C577.516 247.782 577.245 247.793 576.974 247.793C572.732 247.793 568.702 245.65 566.345 242.042L546.936 212.58C544.426 208.745 544.108 203.827 546.135 199.694L558.343 174.793C560.936 182.296 567.17 197.063 581.464 210.115C599.34 226.441 619.078 230.264 626.809 231.348H626.785Z" fill="black" opacity="0.1"/>
    <path d="M566.591 212.761C565.151 212.853 563.76 212.749 562.417 212.459C561.074 212.17 559.97 211.753 559.131 211.209L560.342 208.105C561.122 208.579 562.057 208.962 563.148 209.24C564.228 209.506 565.307 209.61 566.387 209.552C567.202 209.506 567.862 209.379 568.354 209.182C568.845 208.985 569.205 208.742 569.421 208.452C569.649 208.162 569.745 207.838 569.721 207.479C569.685 207.016 569.481 206.657 569.085 206.414C568.69 206.17 568.174 205.973 567.538 205.834C566.903 205.695 566.219 205.58 565.463 205.464C564.708 205.348 563.964 205.209 563.208 205.035C562.453 204.862 561.745 204.607 561.098 204.271C560.45 203.935 559.922 203.483 559.514 202.904C559.107 202.325 558.879 201.584 558.819 200.669C558.759 199.684 558.963 198.758 559.454 197.912C559.946 197.067 560.738 196.36 561.829 195.804C562.921 195.248 564.3 194.924 565.991 194.82C567.118 194.75 568.246 194.82 569.361 195.005C570.477 195.202 571.472 195.526 572.312 195.967L571.208 199.071C570.381 198.677 569.529 198.387 568.654 198.225C567.79 198.051 566.962 197.993 566.171 198.04C565.355 198.086 564.696 198.213 564.216 198.422C563.736 198.63 563.388 198.885 563.172 199.198C562.957 199.511 562.873 199.847 562.897 200.206C562.933 200.669 563.136 201.028 563.532 201.283C563.928 201.538 564.432 201.723 565.067 201.85C565.703 201.978 566.387 202.082 567.142 202.198C567.898 202.314 568.666 202.453 569.409 202.638C570.153 202.823 570.848 203.078 571.484 203.391C572.12 203.703 572.659 204.155 573.079 204.734C573.499 205.313 573.751 206.043 573.799 206.935C573.859 207.908 573.643 208.811 573.139 209.657C572.635 210.502 571.844 211.197 570.74 211.765C569.649 212.332 568.258 212.668 566.567 212.761H566.591Z" fill="white"/>
    <path d="M579.761 211.793L578.828 197.689L573.027 198.038L572.809 194.759L588.591 193.793L588.809 197.073L583.019 197.433L583.952 211.538L579.761 211.793Z" fill="white"/>
    <path d="M600.455 210.767C599.016 210.86 597.674 210.709 596.417 210.338C595.173 209.967 594.063 209.399 593.111 208.645C592.16 207.892 591.391 206.988 590.818 205.921C590.245 204.866 589.928 203.684 589.83 202.397C589.745 201.087 589.915 199.881 590.33 198.768C590.745 197.655 591.391 196.67 592.233 195.801C593.087 194.931 594.1 194.247 595.271 193.726C596.442 193.204 597.759 192.902 599.199 192.821C600.638 192.729 601.98 192.868 603.212 193.239C604.444 193.598 605.542 194.166 606.506 194.92C607.457 195.673 608.226 196.577 608.799 197.644C609.372 198.699 609.69 199.881 609.787 201.191C609.873 202.478 609.702 203.684 609.287 204.82C608.86 205.944 608.226 206.941 607.384 207.811C606.542 208.68 605.518 209.364 604.347 209.874C603.163 210.384 601.87 210.686 600.443 210.767H600.455ZM600.199 207.382C601.016 207.335 601.76 207.15 602.419 206.837C603.078 206.524 603.663 206.095 604.151 205.562C604.639 205.028 605.005 204.414 605.249 203.73C605.493 203.046 605.579 202.293 605.53 201.458C605.481 200.635 605.286 199.893 604.944 199.244C604.615 198.594 604.176 198.026 603.615 197.563C603.053 197.099 602.431 196.74 601.724 196.508C601.016 196.276 600.26 196.183 599.443 196.241C598.625 196.299 597.881 196.473 597.198 196.786C596.515 197.099 595.942 197.528 595.466 198.061C594.99 198.594 594.624 199.209 594.38 199.893C594.136 200.577 594.051 201.33 594.1 202.165C594.161 202.988 594.344 203.73 594.685 204.379C595.014 205.028 595.454 205.596 596.003 206.06C596.552 206.535 597.174 206.883 597.893 207.115C598.613 207.347 599.369 207.44 600.187 207.382H600.199Z" fill="white"/>
    <path d="M612.949 209.793L611.809 192.303L619.578 191.823C621.187 191.718 622.592 191.893 623.781 192.326C624.982 192.759 625.919 193.438 626.615 194.35C627.312 195.263 627.696 196.363 627.792 197.661C627.876 198.983 627.636 200.13 627.06 201.101C626.483 202.084 625.643 202.867 624.514 203.452C623.385 204.037 622.016 204.388 620.407 204.482L614.919 204.821L616.696 202.879L617.128 209.524L612.949 209.782V209.793ZM616.72 203.335L614.703 201.534L619.963 201.206C621.223 201.124 622.172 200.808 622.785 200.235C623.397 199.662 623.673 198.89 623.613 197.93C623.553 196.959 623.181 196.234 622.496 195.754C621.812 195.275 620.839 195.064 619.566 195.146L614.306 195.473L616.084 193.426L616.732 203.347L616.72 203.335Z" fill="white"/>
    <path d="M605.587 289.251C604.652 290.26 603.541 291.174 602.255 291.901C596.526 295.22 589.663 294.059 586.939 289.31C584.355 284.83 586.354 278.778 591.382 275.319C591.697 275.096 592.025 274.885 592.364 274.686C598.093 271.367 604.956 272.528 607.68 277.277C609.808 280.971 608.826 285.744 605.587 289.239V289.251Z" fill="#FFCB9D"/>
    <path d="M605.809 289.122C604.863 290.159 603.74 291.1 602.439 291.848C596.646 295.261 589.706 294.067 586.951 289.182C584.339 284.575 586.36 278.351 591.444 274.793C594.199 278.798 600.063 286.227 605.809 289.11V289.122Z" fill="black" opacity="0.1"/>
    <path d="M517.386 227.856C520.486 227.641 524.788 227.868 528.666 230.325C543.896 239.96 532.273 271.169 544.58 281.235C550.379 285.981 562.296 286.685 588.111 272.732C592.673 282.487 597.247 292.23 601.809 301.985C587.204 310.392 574.143 313.66 565.609 315.067C554.564 316.892 545.157 318.311 534.761 313.672C525.743 309.653 520.686 303.178 517.786 299.373C515.311 296.13 503.936 281.056 509.17 270.692C510.466 268.128 512.529 266.626 513.708 265.886L517.397 227.868L517.386 227.856Z" fill="#066FD1"/>
    <path d="M518.809 228.793C518.015 237.979 517.198 247.153 516.405 256.327C514.854 274.051 513.303 291.775 511.752 309.511C510.544 323.26 509.337 337.033 508.141 350.793H437.421C436.048 337.021 434.651 323.272 433.278 309.511C432.484 301.714 431.715 293.928 430.921 286.13C430.14 278.391 430.282 277.497 429.749 274.451C427.914 263.936 425.558 262.972 424.35 253.845C423.521 247.612 423.841 242.154 424.031 238.943C424.267 234.886 424.729 231.44 425.167 228.793H518.809Z" fill="#066FD1"/>
    <path d="M172.809 517.229C172.809 520.259 278.505 522.793 408.809 522.793C539.112 522.793 644.809 520.27 644.809 517.229C644.809 514.187 539.112 511.793 408.809 511.793C278.505 511.793 172.809 514.316 172.809 517.229Z" fill="#D6D8E2" opacity="0.5"/>
    <path d="M446.98 270.603C460.701 285.787 462.616 293.935 469.124 296.75C476.689 300.025 489.951 295.898 514.809 261.225C513.634 277.249 512.459 293.261 511.273 309.285C510.074 323.121 508.876 336.957 507.69 350.793H437.524C436.161 336.946 434.775 323.121 433.412 309.285H433.107L427.809 252.793C432.46 256.4 439.391 262.23 446.968 270.615L446.98 270.603Z" fill="black" opacity="0.1"/>
    <path d="M439.809 159.477C439.964 163.269 440.263 168.835 440.837 175.669C440.992 177.172 441.1 178.487 441.148 178.933C441.841 184.98 443.599 193.282 446.624 200.761C447.198 202.147 447.772 203.462 448.417 204.742C450.833 209.474 468.839 215.181 484.49 213.49C500.094 211.869 505.761 196.851 498.994 190.464C496.925 188.468 495.012 185.203 493.446 181.634C491.377 177.054 489.739 171.947 488.783 168.483C488.018 165.923 487.635 164.232 487.635 164.232L475.32 153.793H445.787C446.134 158.678 444.83 162.06 443.264 162.353C441.769 162.612 440.167 160.028 439.821 159.465L439.809 159.477Z" fill="#FFCB9D"/>
    <path d="M439.82 159.47C439.974 163.266 440.269 168.837 440.837 175.677C440.99 177.182 441.097 178.498 441.144 178.945C441.829 184.997 443.566 193.307 446.556 200.793C447.797 200.406 449.759 199.618 451.732 198.008C452.169 197.644 454.214 195.951 455.774 192.978C456.932 190.78 457.31 188.899 457.794 186.443C458.161 184.633 458.314 183.105 458.397 182.012C462.273 183.293 468.264 184.786 475.686 184.704C483.059 184.621 488.98 183.011 492.809 181.66C490.764 177.076 489.145 171.963 488.2 168.496C487.444 165.934 487.065 164.242 487.065 164.242L474.894 153.793H445.705C446.048 158.683 444.76 162.068 443.212 162.361C441.735 162.62 440.151 160.034 439.809 159.47H439.82Z" fill="black" opacity="0.1"/>
    <path d="M436.809 165.859C436.974 172.156 439.725 178.277 443.586 181.947C444.602 182.92 445.074 183.108 446.09 184.316C448.498 187.165 449.514 190.472 449.986 192.793C451.816 190.425 452.289 188.443 452.395 187.095C452.596 183.905 451.214 178.019 451.143 177.186C451.143 177.151 451.108 176.964 451.072 176.694C451.037 176.248 451.002 176.061 450.943 175.345C450.813 173.399 450.872 171.781 450.943 170.737C450.943 170.62 450.943 170.585 450.978 170.514V170.479C458.358 174.947 479.388 185.817 493.545 175.134C494.053 174.794 496.899 172.578 499.331 169.283C499.461 169.131 499.638 168.908 499.733 168.685C500.111 168.158 500.477 167.595 500.819 166.961C500.854 166.926 500.89 166.844 500.925 166.809C500.925 166.774 500.961 166.774 500.961 166.774C501.775 165.238 502.378 163.584 502.649 161.826L502.755 161.145C502.826 160.395 502.826 159.645 502.755 158.859C502.378 155.74 500.831 153.195 498.694 151.096H498.658C494.561 147.051 488.503 144.647 485.315 143.404C472.917 138.456 454.119 137.295 443.456 148.388C439.158 152.891 437.765 158.589 437.765 158.589C436.75 162.271 436.82 165.226 436.82 165.871L436.809 165.859Z" fill="#232B41"/>
    <path d="M437.809 350.793L443.822 497.793H455.649L472.023 384.223L483.252 497.793H492.02L507.809 350.793H437.809Z" fill="#DADCE0"/>
    <path d="M468.809 518.793L441.907 515.763C441.907 515.763 440.928 508.711 445.143 506.236C449.358 503.76 464.403 512.189 468.797 518.793H468.809Z" fill="#232B41"/>
    <path d="M507.809 518.793L480.907 515.763C480.907 515.763 479.928 508.711 484.143 506.236C488.358 503.76 503.403 512.189 507.797 518.793H507.809Z" fill="#232B41"/>
    <path d="M483.105 497.793L471.809 384.223L476.844 350.793H507.809L491.925 497.793H483.105Z" fill="black" opacity="0.1"/>
    <path d="M450.52 170.549V170.514C457.988 175.016 479.269 185.969 493.596 175.205C494.11 174.862 496.989 172.629 499.451 169.308C499.582 169.155 499.762 168.93 499.857 168.706C500.24 168.174 500.61 167.607 500.956 166.969C500.992 166.933 501.028 166.851 501.064 166.815C501.064 166.78 501.1 166.78 501.1 166.78C501.924 165.232 502.534 163.566 502.809 161.793C498.316 166.059 494.17 168.375 491.385 169.663C470.487 179.364 448.584 167.276 445.083 165.35C444.964 165.291 444.868 165.232 444.809 165.196C445.119 165.539 447.139 167.808 450.496 170.561L450.52 170.549Z" fill="black" opacity="0.5"/>
    <path d="M498.946 175.793L499.735 181.701C500.36 186.355 496.918 190.613 492.062 191.212C487.206 191.81 482.763 188.512 482.138 183.858L481.796 181.328L477.647 181.362L477.553 183.61C477.365 188.298 473.251 191.957 468.348 191.788C463.457 191.607 459.638 187.665 459.814 182.966L460.05 177.025C466.108 177.42 472.803 177.578 480.04 177.33C486.876 177.092 493.194 176.539 498.934 175.805L498.946 175.793Z" fill="#232B41"/>
    <path d="M184.042 157.793H178.809V134.793H195.809V139.07H184.054V157.793H184.042ZM183.617 145.134H194.415V149.41H183.617V145.134Z" fill="#DADCE0"/>
    <path d="M210.339 157.793C208.528 157.793 206.873 157.513 205.351 156.941C203.828 156.368 202.497 155.562 201.37 154.523C200.243 153.483 199.367 152.268 198.744 150.867C198.12 149.465 197.809 147.946 197.809 146.288C197.809 144.629 198.12 143.087 198.744 141.697C199.367 140.307 200.243 139.092 201.37 138.064C202.497 137.025 203.816 136.219 205.339 135.646C206.849 135.074 208.504 134.793 210.315 134.793C212.125 134.793 213.78 135.074 215.291 135.634C216.801 136.195 218.12 137.001 219.247 138.029C220.375 139.069 221.25 140.284 221.873 141.685C222.497 143.087 222.809 144.617 222.809 146.288C222.809 147.958 222.497 149.465 221.873 150.878C221.25 152.292 220.375 153.507 219.247 154.546C218.12 155.586 216.801 156.38 215.291 156.941C213.78 157.501 212.137 157.782 210.351 157.782L210.339 157.793ZM210.303 153.448C211.322 153.448 212.269 153.273 213.12 152.922C213.984 152.572 214.739 152.081 215.387 151.427C216.034 150.773 216.55 150.026 216.897 149.173C217.257 148.32 217.437 147.362 217.437 146.299C217.437 145.236 217.257 144.278 216.897 143.426C216.538 142.573 216.034 141.814 215.387 141.171C214.739 140.529 213.984 140.027 213.12 139.676C212.257 139.326 211.322 139.15 210.303 139.15C209.283 139.15 208.336 139.326 207.461 139.676C206.598 140.027 205.83 140.517 205.195 141.171C204.559 141.814 204.056 142.573 203.696 143.426C203.336 144.278 203.156 145.236 203.156 146.299C203.156 147.362 203.336 148.32 203.696 149.173C204.056 150.026 204.559 150.785 205.195 151.427C205.842 152.07 206.598 152.572 207.461 152.922C208.336 153.273 209.271 153.448 210.303 153.448Z" fill="#DADCE0"/>
    <path d="M226.809 157.781V134.793H236.583C238.6 134.793 240.344 135.132 241.815 135.796C243.274 136.46 244.412 137.425 245.207 138.669C246.002 139.913 246.405 141.398 246.405 143.1C246.405 144.802 246.014 146.312 245.207 147.555C244.401 148.799 243.285 149.728 241.815 150.38C240.355 151.032 238.612 151.346 236.583 151.346H229.679L232.064 149.052V157.793H226.809V157.781ZM232.064 149.632L229.679 147.108H236.299C237.888 147.108 239.098 146.758 239.917 146.058C240.735 145.358 241.138 144.368 241.138 143.1C241.138 141.832 240.735 140.854 239.917 140.166C239.098 139.478 237.9 139.128 236.299 139.128H229.679L232.064 136.604V149.644V149.632ZM241.198 157.781L235.516 149.439H241.126L246.809 157.781H241.198Z" fill="#DADCE0"/>
    <path d="M249.809 157.793V134.793H260.988C263.861 134.793 266.024 135.337 267.479 136.436C268.933 137.536 269.655 138.973 269.655 140.773C269.655 141.981 269.366 143.02 268.777 143.914C268.188 144.796 267.371 145.484 266.337 145.967C265.303 146.45 264.125 146.692 262.827 146.692L263.452 145.315C264.894 145.315 266.157 145.557 267.263 146.04C268.368 146.523 269.234 147.224 269.859 148.142C270.496 149.06 270.809 150.195 270.809 151.524C270.809 153.493 270.039 155.039 268.489 156.139C266.938 157.25 264.666 157.793 261.649 157.793H249.809ZM255.074 153.783H261.288C262.635 153.783 263.68 153.553 264.39 153.094C265.111 152.635 265.471 151.923 265.471 150.956C265.471 149.99 265.111 149.253 264.39 148.782C263.668 148.323 262.635 148.093 261.288 148.093H254.689V144.216H260.351C261.637 144.216 262.623 143.986 263.308 143.539C263.993 143.092 264.342 142.404 264.342 141.486C264.342 140.568 263.993 139.891 263.308 139.444C262.623 139.009 261.637 138.792 260.351 138.792H255.086V153.771L255.074 153.783Z" fill="#DADCE0"/>
    <path d="M274.809 157.793V134.793H279.809V157.793H274.809Z" fill="#DADCE0"/>
    <path d="M285.809 157.793V134.793H295.746C298.124 134.793 300.215 135.265 302.03 136.219C303.845 137.173 305.258 138.514 306.281 140.229C307.303 141.945 307.809 143.974 307.809 146.293C307.809 148.613 307.303 150.642 306.281 152.358C305.258 154.073 303.845 155.414 302.03 156.368C300.215 157.322 298.124 157.793 295.746 157.793H285.809ZM290.898 153.457H295.493C296.952 153.457 298.216 153.167 299.296 152.587C300.376 152.007 301.203 151.174 301.8 150.087C302.398 148.999 302.696 147.731 302.696 146.293C302.696 144.856 302.398 143.551 301.8 142.476C301.203 141.401 300.376 140.58 299.296 140C298.216 139.42 296.952 139.13 295.493 139.13H290.898V153.457Z" fill="#DADCE0"/>
    <path d="M311.809 157.793V134.793H322.198C324.684 134.793 326.87 135.265 328.767 136.219C330.665 137.173 332.142 138.514 333.211 140.229C334.28 141.945 334.809 143.974 334.809 146.293C334.809 148.613 334.28 150.642 333.211 152.358C332.142 154.073 330.665 155.414 328.767 156.368C326.87 157.322 324.684 157.793 322.198 157.793H311.809ZM317.129 153.457H321.933C323.459 153.457 324.78 153.167 325.909 152.587C327.038 152.007 327.903 151.174 328.527 150.087C329.152 148.999 329.464 147.731 329.464 146.293C329.464 144.856 329.152 143.551 328.527 142.476C327.903 141.401 327.038 140.58 325.909 140C324.78 139.42 323.459 139.13 321.933 139.13H317.129V153.457Z" fill="#DADCE0"/>
    <path d="M343.86 153.517H355.809V157.793H338.809V134.793H355.405V139.07H343.86V153.529V153.517ZM343.491 144.022H354.067V148.19H343.491V144.022Z" fill="#DADCE0"/>
    <path d="M359.809 157.793V134.793H364.189L377.704 151.355H375.574V134.793H380.809V157.793H376.428L362.913 141.232H365.044V157.793H359.809Z" fill="#DADCE0"/>
    <path d="M212.821 103.353V93.3881L243.324 52.7935H259.038L229.266 93.3881L221.865 91.2884H272.809V103.353H212.809H212.821ZM247.679 116.793V103.353L248.146 91.2884V79.3069H262.289V116.793H247.679Z" fill="#A6A9B3"/>
    <path d="M304.261 117.793C299.013 117.793 294.334 116.505 290.214 113.915C286.094 111.326 282.829 107.601 280.418 102.706C278.008 97.8114 276.809 91.8522 276.809 84.7935C276.809 77.7347 278.008 71.7755 280.418 66.8805C282.829 61.9973 286.094 58.261 290.214 55.6716C294.334 53.0941 299.013 51.7935 304.261 51.7935C309.509 51.7935 314.283 53.0822 318.403 55.6716C322.523 58.261 325.789 61.9855 328.199 66.8805C330.609 71.7755 331.809 77.7465 331.809 84.7935C331.809 91.8404 330.609 97.8114 328.199 102.706C325.789 107.601 322.523 111.338 318.403 113.915C314.283 116.493 309.569 117.793 304.261 117.793ZM304.261 105.402C306.767 105.402 308.939 104.693 310.804 103.262C312.668 101.831 314.128 99.6086 315.197 96.5699C316.266 93.5312 316.8 89.6175 316.8 84.8171C316.8 80.0167 316.266 76.103 315.197 73.0643C314.128 70.0256 312.668 67.7909 310.804 66.3721C308.939 64.9414 306.767 64.232 304.261 64.232C301.756 64.232 299.749 64.9414 297.849 66.3721C295.961 67.8028 294.465 70.0375 293.361 73.0643C292.257 76.103 291.71 80.0167 291.71 84.8171C291.71 89.6175 292.257 93.5312 293.361 96.5699C294.465 99.6086 295.949 101.843 297.849 103.262C299.737 104.693 301.874 105.402 304.261 105.402Z" fill="#A6A9B3"/>
    <path d="M358.106 117.793C353.661 117.793 349.276 117.201 344.95 116.017C340.624 114.832 336.914 113.115 333.809 110.865L339.569 99.6366C341.998 101.401 344.819 102.823 348.019 103.877C351.219 104.931 354.491 105.476 357.845 105.476C361.555 105.476 364.482 104.729 366.615 103.237C368.749 101.745 369.816 99.7195 369.816 97.1612C369.816 94.6029 368.867 92.8144 366.983 91.405C365.098 90.0074 362.052 89.3086 357.845 89.3086H351.172V79.632L368.891 59.3669L370.539 64.6612H337.021V52.7935H381.786V62.3753L364.067 82.5456L356.577 78.2581H360.867C368.725 78.2581 374.675 80.0229 378.728 83.5524C382.782 87.0819 384.809 91.5826 384.809 97.0664C384.809 100.714 383.849 104.125 381.928 107.288C380.008 110.45 377.105 112.997 373.205 114.915C369.306 116.834 364.281 117.793 358.129 117.793H358.106Z" fill="#A6A9B3"/>
    <path d="M396.126 387.782C377.508 387.782 359.044 385.753 340.936 381.719C292.545 370.921 263.105 349.117 262.809 348.895L265.111 345.933C265.395 346.143 294.313 367.54 341.956 378.127C385.885 387.898 455.196 390.207 535.957 345.793L537.809 349.047C501.664 368.927 464.724 381.299 428.022 385.823C417.366 387.14 406.71 387.793 396.114 387.793L396.126 387.782Z" fill="#232B41"/>
    <path d="M266.809 347.793H252.809V512.793H266.809V347.793Z" fill="#A6A9B3"/>
    <path d="M542.809 347.793H529.809V512.793H542.809V347.793Z" fill="#A6A9B3"/>
    <path d="M266.809 347.793V399.643L252.809 413.793V347.793H266.809Z" fill="black" opacity="0.1"/>
    <path d="M542.809 350.781V427.626L529.809 441.793V347.793H536.506C538.518 348.742 540.623 349.738 542.797 350.781H542.809Z" fill="black" opacity="0.1"/>
    <path d="M259.809 356.793C268.093 356.793 274.809 350.078 274.809 341.793C274.809 333.509 268.093 326.793 259.809 326.793C251.524 326.793 244.809 333.509 244.809 341.793C244.809 350.078 251.524 356.793 259.809 356.793Z" fill="#066FD1"/>
    <path d="M536.309 356.793C544.869 356.793 551.809 350.078 551.809 341.793C551.809 333.509 544.869 326.793 536.309 326.793C527.748 326.793 520.809 333.509 520.809 341.793C520.809 350.078 527.748 356.793 536.309 356.793Z" fill="#066FD1"/>
    <path d="M463.809 226.805C467.881 230.539 473.064 232.951 478.623 233.688L479.408 233.793L492.809 227.156L463.809 226.793V226.805Z" fill="#FFCB9D"/>
    <path d="M463.809 226.805C467.881 230.539 473.064 232.951 478.623 233.688L479.408 233.793L492.809 227.156L463.809 226.793V226.805Z" fill="black" opacity="0.1"/>
    <path d="M478.809 234.316L494.825 221.793L498.809 225.534L488.359 242.793L478.809 234.316Z" fill="#DADCE0"/>
    <path d="M478.809 234.44L452.295 219.793L446.809 225.373L465.244 246.793L478.809 234.44Z" fill="#DADCE0"/>
    <path d="M478.809 234.316L494.825 221.793L498.809 225.534L488.359 242.793L478.809 234.316Z" fill="black" opacity="0.11"/>
    <path d="M470.809 249.111C476.088 271.001 481.379 292.891 486.509 314.793C486.842 292.474 487.314 270.154 487.809 247.977C484.784 243.194 481.908 238.577 478.814 233.793L478.089 233.984C475.846 239.09 473.42 244.088 470.82 249.111H470.809Z" fill="#DADCE0"/>
    <path d="M478.82 234.793L486.511 314.793C486.847 292.737 487.322 270.682 487.809 248.791C484.762 244.078 481.855 239.341 478.809 234.793H478.82Z" fill="black" opacity="0.11"/>
    <path d="M425.327 228.425C422.6 228.224 418.048 228.284 413.981 230.873C399.73 239.929 407.947 269.416 400.809 271.603C394.206 273.625 381.2 250.239 376.197 241.242C370.506 231.015 366.57 221.84 363.89 214.793C358.804 215.645 352.355 217.229 345.3 220.291C339.871 222.644 335.377 225.316 331.809 227.763C336.278 241.159 344.743 261.033 361.282 280.66C366.048 286.311 395.865 322.076 411.906 314.828C421.735 310.383 426.465 289.763 426.987 287.517C427.568 285.011 429.809 274.287 429.809 274.287C428.955 265.585 428.113 256.884 427.26 248.194C426.619 241.608 425.967 235.035 425.327 228.449V228.425Z" fill="#066FD1"/>
    <path d="M473.797 189.922C472.234 191.159 470.226 191.865 468.058 191.788C463.437 191.611 459.809 187.924 459.809 183.487V183.167L459.9 180.793C461.532 183.387 465.274 187.207 473.809 189.922H473.797Z" fill="black" opacity="0.3"/>
</svg>
