<svg xmlns="http://www.w3.org/2000/svg" width="800" height="600" fill="none" viewBox="0 0 800 600">
    <path d="M104 300C104 348.09 154.833 383.093 177.36 421.985C200.51 462.147 206.173 523.324 246.187 546.625C285.07 569.164 340.435 543.982 388.5 543.982C436.565 543.982 491.93 569.164 530.813 546.625C570.827 523.463 576.49 462.147 599.64 421.985C622.167 383.081 673 348.217 673 300C673 251.783 622.04 216.907 599.64 178.015C576.49 137.853 570.827 76.549 530.813 53.3752C491.93 30.8363 436.565 56.0181 388.5 56.0181C340.435 56.0181 285.07 30.8363 246.187 53.3752C206.046 76.5374 200.51 137.853 177.36 178.015C154.833 217.045 104 251.91 104 300Z" fill="#066FD1" opacity="0.02"/>
    <path d="M240 315C219.047 315 202 297.953 202 277C202 256.047 219.047 239 240 239V242.317C220.873 242.317 205.317 257.873 205.317 277C205.317 296.127 220.873 311.683 240 311.683V315Z" fill="#232B41"/>
    <path d="M69 453.448C69 455.932 217.235 458 400 458C582.765 458 731 455.932 731 453.448C731 450.964 582.765 449 400 449C217.235 449 69 451.068 69 453.448Z" fill="#D6D8E2" opacity="0.5"/>
    <path d="M247.451 450.977C240.779 450.977 234.997 448.65 228.555 446.06C221.455 443.206 213.418 439.962 202.004 438.965C187.098 437.658 180.876 441.406 174.863 445.04C170.919 447.424 167.196 449.67 161.61 450.152C147.502 451.344 133.59 437.417 133 436.833L136.55 433.382C136.677 433.508 149.444 446.243 161.171 445.246C165.6 444.868 168.687 442.999 172.261 440.844C178.332 437.176 185.883 432.614 202.42 434.07C214.586 435.136 222.993 438.529 230.406 441.509C238.501 444.765 244.884 447.344 253.222 445.372C268.718 441.704 278.282 418.229 278.374 418L283 419.811C282.572 420.877 272.396 445.911 254.378 450.163C251.927 450.748 249.626 451 247.428 451L247.451 450.977Z" fill="#232B41"/>
    <path d="M646.977 433.218C621.535 439.463 596.117 445.732 570.687 452C567.604 424.818 564.533 397.625 561.451 370.455C552.307 368.809 543.175 367.176 534.031 365.53C534.56 388.414 535.1 411.297 535.63 434.18C532.076 434.516 528.522 434.864 524.968 435.2C520.712 417.31 516.698 398.482 513.04 378.739C509.406 359.1 506.427 340.156 504 322C520.459 325.325 536.929 328.685 553.377 332.034C557.747 332.926 562.118 333.807 566.488 334.71C583.936 338.279 601.396 341.871 618.867 345.497C611.034 370.512 603.179 395.516 595.346 420.531C612.449 422.026 629.564 423.544 646.666 425.05C646.77 427.773 646.885 430.484 647 433.207L646.977 433.218Z" fill="#DADCE0"/>
    <path d="M516 454.989L537.941 451.998C537.941 451.998 538.659 446.255 535.071 444.318C531.471 442.381 519.44 449.699 516 455" fill="#232B41"/>
    <path d="M664 448L660.591 426.052C660.591 426.052 654.397 425.367 652.332 428.983C650.268 432.6 658.27 444.589 664 448Z" fill="#232B41"/>
    <path d="M561.002 370.369C551.929 368.727 542.868 367.096 533.796 365.454C534.321 388.296 534.857 411.139 535.382 433.982C531.856 434.318 528.33 434.665 524.804 435C520.581 417.142 516.599 398.347 512.97 378.639C509.364 359.034 506.408 340.124 504 322C520.33 325.319 536.672 328.674 552.991 332.016C557.327 332.907 561.664 333.786 566 334.688L561.013 370.358L561.002 370.369Z" fill="black" opacity="0.1"/>
    <path d="M538 239.656L536.524 242.692L526.766 263C523.135 260.956 518.321 257.967 513.014 253.88C512.065 253.144 511.07 252.396 510.015 251.591C509.125 247.865 508.598 243.124 509.383 237.729C510.133 232.521 511.89 228.246 513.729 225C516.868 231.843 526.602 236.456 537.988 239.656H538Z" fill="black" opacity="0.1"/>
    <path d="M646 272.719C644.925 272.996 643.492 273.377 641.84 273.896C639.506 274.634 635.507 275.915 631.081 278.164C627.187 280.172 626.817 280.945 621.016 283.967C619.653 284.683 618.532 285.236 617.781 285.605C617.284 283.667 616.741 281.648 616.07 279.549C615.389 277.345 614.661 275.28 613.933 273.331C615.181 283.783 616.325 294.442 617.342 305.298C618.59 318.484 619.63 331.428 620.462 344.084C620.647 346.703 620.808 349.31 620.959 351.906C605.913 355.667 594.704 353.532 588.972 351.906C582.455 350.071 577.22 347.303 572.863 345.007C564.347 340.485 557.829 335.697 553.392 332.017C553.38 331.971 551.381 316.5 549.809 307.513C548.446 299.865 547.094 288.755 547.475 274.553C540.865 273.873 534.244 273.215 527.634 272.535C526.039 268.924 524.514 264.759 523.323 260.041C519.961 246.658 520.85 234.903 522.249 227C528.824 231.257 534.845 233.668 539.201 235.052C543.431 236.414 548.099 237.867 553.865 237.914C554.929 237.914 556.003 237.879 557.147 237.787C557.378 237.775 557.61 237.74 557.829 237.717C557.956 237.706 558.083 237.683 558.21 237.671C559.921 237.475 561.354 237.187 562.417 236.944C564.867 236.633 568.148 236.333 572.528 236.333H572.54C579.415 235.491 585.794 235.295 591.48 235.491H591.699C592.612 235.525 593.502 235.56 594.38 235.606C606.132 236.264 616.475 239.033 616.475 239.033C617.284 239.333 618.451 239.794 619.791 240.452C624.264 242.667 628.273 245.931 633.647 252.749C637.114 257.156 641.701 263.755 645.977 272.719H646Z" fill="#066FD1"/>
    <path d="M591 235.546C589.339 239.244 582.211 242 573.629 242C566.88 242 560.979 240.276 558 237.69C562.194 236.681 567.132 235.785 572.69 235.331C579.691 234.752 585.901 235.002 591 235.546Z" fill="#FFCB9D"/>
    <path d="M621 351.918C605.862 355.657 594.584 353.535 588.817 351.918C582.26 350.094 576.993 347.34 572.61 345.057C564.041 340.561 557.483 335.8 553.019 332.14C553.007 332.094 550.996 316.711 549.414 307.775C548.042 300.169 546.682 289.122 547.066 275C547.066 275 580.051 322.94 620.5 344.14C620.686 346.744 620.849 349.336 621 351.918Z" fill="black" opacity="0.1"/>
    <path d="M599.654 173.185C599.963 176.515 600.42 181.43 600.867 187.44C600.832 188.74 600.935 189.983 600.947 190.336C601.198 196.996 600.558 203.656 599.047 210.145C598.647 211.468 598.395 212.699 598.063 213.794C596.587 218.264 581.78 225.471 568.06 225.985C554.329 226.498 547.624 214.102 552.681 207.716C554.398 205.173 555.622 202.322 556.297 199.334C557.35 195.354 558.128 191.306 558.643 187.223C558.998 184.817 559.112 183.289 559.112 183.289L568.335 172.649L593.715 169C593.978 173.276 595.523 176.127 597.045 176.23C598.578 176.333 599.459 173.835 599.654 173.185Z" fill="#FFCB9D"/>
    <path d="M599.643 173.353C599.954 176.655 600.416 181.528 600.865 187.487C600.831 188.776 600.935 190.009 600.946 190.359C601.2 196.963 600.554 203.566 599.031 210C597.312 209.672 595.651 209.061 594.14 208.191C592.467 207.241 591.048 205.929 589.987 204.358C588.844 202.707 587.968 200.886 587.414 198.964C586.964 197.72 586.583 196.465 586.272 195.188C576.916 199.778 566.244 201.146 556 199.077C557.061 195.131 557.846 191.117 558.365 187.069C558.734 184.683 558.838 183.168 558.838 183.168L568.136 172.618L593.724 169C594.001 173.24 595.547 176.067 597.093 176.169C598.639 176.271 599.458 174.02 599.654 173.365" fill="black" opacity="0.1"/>
    <path d="M604.903 177.116C605.762 181.501 608.464 182.078 607.931 184.813C607.27 187.767 602.78 190.179 600.623 192.441C600.135 192.96 599.683 193.514 599.265 194.091C599.068 194.345 598.906 194.622 598.778 194.922C597.27 197.369 596.388 200.138 596.214 203C594.788 201.696 593.813 199.988 593.407 198.107C593.14 195.084 593.117 192.037 593.361 189.002C593.314 188.887 593.303 188.76 593.326 188.633L593.21 187.398C593.175 185.99 592.978 184.594 592.642 183.232L592.56 183.082L591.574 183.602C589.765 184.571 586.447 186.325 582.422 188.148C572.608 192.591 558.652 197.392 552.597 191.91C551.646 191.079 550.834 190.11 550.173 189.048C549.384 187.814 548.978 186.383 549.001 184.929C549.279 179.563 556.97 177.509 556.611 172.662C556.367 169.442 552.875 168.888 553.166 165.934C553.456 162.98 557.272 160.014 560.799 159.622C563.455 159.38 563.873 160.787 566.367 160.568C570.636 160.176 571.03 155.664 575.357 155.018C578.106 154.879 580.821 155.56 583.164 156.991C585.113 158.191 585.577 159.057 587.665 159.807C589.277 160.28 590.96 160.453 592.63 160.326C596.238 160.072 596.725 158.918 598.639 158.976C602.038 159.391 605.019 162.83 605.936 166.257C607.072 170.758 603.94 172.27 604.892 177.139L604.903 177.116Z" fill="#232B41"/>
    <path d="M594.988 178C594.675 179.82 593.772 181.504 592.404 182.796L591.361 183.526C589.553 184.47 586.239 186.177 582.217 187.952C572.413 192.276 558.472 196.948 552.422 191.613C551.472 190.805 550.661 189.861 550 188.828C553.442 189.299 556.919 189.479 560.395 189.367C576.295 188.873 588.394 182.369 595 178H594.988Z" fill="black" opacity="0.5"/>
    <path d="M520.288 213H256.712C247.482 213 240 220.465 240 229.673V400.327C240 409.535 247.482 417 256.712 417H520.288C529.518 417 537 409.535 537 400.327V229.673C537 220.465 529.518 213 520.288 213Z" fill="white"/>
    <path d="M520.521 421H256.479C245.187 421 236 411.827 236 400.551V229.449C236 218.173 245.187 209 256.479 209H520.521C531.813 209 541 218.173 541 229.449V400.551C541 411.827 531.813 421 520.521 421ZM256.479 216.452C249.306 216.452 243.463 222.286 243.463 229.449V400.551C243.463 407.714 249.306 413.548 256.479 413.548H520.521C527.694 413.548 533.537 407.714 533.537 400.551V229.449C533.537 222.286 527.694 216.452 520.521 216.452H256.479Z" fill="#A6A9B3"/>
    <path d="M240 378C214.079 378 193 357.134 193 331.5C193 305.866 214.09 285 240 285V292.375C218.193 292.375 200.454 309.925 200.454 331.5C200.454 353.075 218.193 370.625 240 370.625V378Z" fill="#A6A9B3"/>
    <path d="M117 122H114V135H117V122Z" fill="#DADCE0"/>
    <path d="M130.011 129.882L123.5 122H121V135H123.989V127.107L130.5 135H133V122H130.011V129.882Z" fill="#DADCE0"/>
    <path d="M139.408 135H142.592V124.451H147V122H135V124.451H139.408V135Z" fill="#DADCE0"/>
    <path d="M160 132.581H152.269V129.58H158.867V127.215H152.269V124.419H159.729V122H149V135H160V132.581Z" fill="#DADCE0"/>
    <path d="M165.152 131.35H167.865C167.865 131.35 167.955 131.35 168 131.35L170.634 134.989H174L170.983 130.811C170.983 130.811 170.994 130.811 171.006 130.811C171.884 130.444 172.559 129.914 173.043 129.213C173.516 128.511 173.764 127.679 173.764 126.697C173.764 125.714 173.527 124.894 173.043 124.192C172.57 123.49 171.884 122.939 171.006 122.561C170.128 122.184 169.081 122 167.865 122H162V135H165.152V131.361V131.35ZM169.857 125.023C170.353 125.412 170.589 125.963 170.589 126.686C170.589 127.409 170.341 127.96 169.857 128.36C169.362 128.759 168.642 128.953 167.685 128.953H165.152V124.44H167.685C168.642 124.44 169.362 124.635 169.857 125.023Z" fill="#DADCE0"/>
    <path d="M179.989 127.107L186.5 135H189V122H186.011V129.882L179.511 122H177V135H179.989V127.107Z" fill="#DADCE0"/>
    <path d="M200.614 122H197.35L191 135H194.383L195.653 132.214H202.264L203.534 135H207L200.591 122H200.614ZM196.709 129.925L198.976 124.969L201.243 129.925H196.709Z" fill="#DADCE0"/>
    <path d="M211.182 132.549V122H208V135H218V132.549H211.182Z" fill="#DADCE0"/>
    <path d="M146.385 157.759C146.791 157.084 147 156.337 147 155.518C147 154.771 146.857 154.145 146.571 153.639C146.286 153.133 145.923 152.735 145.462 152.434C145.011 152.133 144.505 151.892 143.967 151.699C143.429 151.506 142.879 151.337 142.319 151.217C141.769 151.084 141.264 150.952 140.802 150.819C140.352 150.687 139.978 150.506 139.703 150.265C139.429 150.024 139.286 149.723 139.286 149.337C139.286 149.036 139.374 148.759 139.538 148.506C139.703 148.253 139.978 148.06 140.341 147.916C140.703 147.771 141.187 147.699 141.791 147.699C142.396 147.699 142.978 147.795 143.604 147.976C144.231 148.157 144.846 148.446 145.44 148.819L146.407 146.289C145.802 145.88 145.099 145.554 144.286 145.337C143.473 145.12 142.648 145 141.824 145C140.582 145 139.538 145.205 138.714 145.614C137.89 146.024 137.275 146.566 136.868 147.253C136.462 147.94 136.264 148.699 136.264 149.518C136.264 150.277 136.396 150.904 136.67 151.41C136.945 151.916 137.308 152.325 137.769 152.627C138.231 152.94 138.736 153.181 139.286 153.373C139.835 153.554 140.374 153.723 140.923 153.855C141.473 153.988 141.967 154.12 142.429 154.265C142.89 154.41 143.253 154.602 143.538 154.819C143.813 155.048 143.956 155.349 143.956 155.747C143.956 156.048 143.868 156.313 143.692 156.542C143.516 156.771 143.242 156.952 142.868 157.096C142.495 157.241 142.011 157.301 141.407 157.301C140.615 157.301 139.824 157.157 139.044 156.88C138.264 156.602 137.593 156.229 137.044 155.795L136 158.325C136.593 158.819 137.374 159.229 138.352 159.53C139.33 159.843 140.341 160 141.407 160C142.659 160 143.692 159.795 144.527 159.373C145.363 158.964 145.978 158.41 146.385 157.735V157.759Z" fill="#DADCE0"/>
    <path d="M159.764 147.605V145H150V159H160V156.395H152.972V153.163H158.97V150.628H152.972V147.605H159.764Z" fill="#DADCE0"/>
    <path d="M171.983 154.488C171.983 154.488 171.994 154.488 172.006 154.488C172.884 154.093 173.559 153.523 174.043 152.767C174.516 152.012 174.764 151.116 174.764 150.058C174.764 149 174.527 148.116 174.043 147.36C173.57 146.605 172.884 146.012 172.006 145.605C171.128 145.198 170.081 145 168.865 145H163V159H166.152V155.081H168.865C168.865 155.081 168.955 155.081 169 155.081L171.634 159H175L171.983 154.5V154.488ZM170.857 148.267C171.353 148.686 171.589 149.279 171.589 150.058C171.589 150.837 171.341 151.43 170.857 151.86C170.362 152.291 169.642 152.5 168.685 152.5H166.152V147.64H168.685C169.642 147.64 170.362 147.849 170.857 148.267Z" fill="#DADCE0"/>
    <path d="M185.066 159L191 145H187.845L183.62 155L179.451 145H176L181.934 159H185.066Z" fill="#DADCE0"/>
    <path d="M202.729 147.605V145H192V159H203V156.395H195.269V153.163H201.855V150.628H195.269V147.605H202.729Z" fill="#DADCE0"/>
    <path d="M214.756 154.488C215.707 154.093 216.439 153.523 216.963 152.767C217.476 152.012 217.744 151.116 217.744 150.058C217.744 149 217.488 148.116 216.963 147.36C216.451 146.605 215.707 146.012 214.756 145.605C213.805 145.198 212.671 145 211.354 145H205V159H208.415V155.081H211.354C211.354 155.081 211.451 155.081 211.5 155.081L214.354 159H218L214.732 154.5C214.732 154.5 214.744 154.5 214.756 154.5V154.488ZM213.524 148.279C214.061 148.698 214.317 149.291 214.317 150.07C214.317 150.849 214.049 151.442 213.524 151.872C212.988 152.302 212.207 152.512 211.171 152.512H208.427V147.651H211.171C212.207 147.651 212.988 147.86 213.524 148.279Z" fill="#DADCE0"/>
    <path d="M149.269 177.158H155.867V174.621H149.269V171.595H156.74V169H146V183H157V180.405H149.269V177.158Z" fill="#DADCE0"/>
    <path d="M168.756 178.488C169.707 178.093 170.439 177.523 170.963 176.767C171.476 176.012 171.744 175.116 171.744 174.058C171.744 173 171.488 172.116 170.963 171.36C170.451 170.605 169.707 170.012 168.756 169.605C167.805 169.198 166.671 169 165.354 169H159V183H162.415V179.081H165.354C165.354 179.081 165.451 179.081 165.5 179.081L168.354 183H172L168.732 178.5C168.732 178.5 168.744 178.5 168.756 178.5V178.488ZM167.524 172.279C168.061 172.698 168.317 173.291 168.317 174.07C168.317 174.849 168.049 175.442 167.524 175.872C166.988 176.302 166.207 176.512 165.171 176.512H162.427V171.651H165.171C166.207 171.651 166.988 171.86 167.524 172.279Z" fill="#DADCE0"/>
    <path d="M183.006 178.488C183.884 178.093 184.559 177.523 185.043 176.767C185.516 176.012 185.764 175.116 185.764 174.058C185.764 173 185.527 172.116 185.043 171.36C184.57 170.605 183.884 170.012 183.006 169.605C182.128 169.198 181.081 169 179.865 169H174V183H177.152V179.081H179.865C179.865 179.081 179.955 179.081 180 179.081L182.634 183H186L182.983 178.5C182.983 178.5 182.994 178.5 183.006 178.5V178.488ZM181.869 172.279C182.364 172.698 182.6 173.291 182.6 174.07C182.6 174.849 182.353 175.442 181.869 175.872C181.373 176.302 180.653 176.512 179.696 176.512H177.163V171.651H179.696C180.653 171.651 181.373 171.86 181.869 172.279Z" fill="#DADCE0"/>
    <path d="M200.869 170.978C200.185 170.348 199.398 169.865 198.486 169.517C197.574 169.18 196.583 169 195.5 169C194.417 169 193.414 169.169 192.514 169.528C191.602 169.876 190.815 170.36 190.131 171C189.448 171.629 188.923 172.371 188.559 173.213C188.182 174.056 188 174.989 188 176C188 177.011 188.182 177.933 188.559 178.787C188.935 179.64 189.459 180.382 190.131 181.011C190.815 181.64 191.613 182.135 192.525 182.483C193.437 182.831 194.44 183 195.523 183C196.606 183 197.586 182.831 198.486 182.483C199.398 182.146 200.185 181.652 200.869 181.022C201.552 180.393 202.077 179.652 202.442 178.787C202.818 177.933 203 177 203 175.989C203 174.978 202.818 174.034 202.442 173.191C202.065 172.337 201.541 171.596 200.869 170.966V170.978ZM199.467 177.753C199.25 178.281 198.942 178.73 198.555 179.124C198.167 179.517 197.711 179.82 197.187 180.034C196.674 180.247 196.104 180.348 195.489 180.348C194.873 180.348 194.303 180.247 193.779 180.034C193.255 179.82 192.799 179.517 192.411 179.124C192.024 178.73 191.727 178.27 191.511 177.753C191.294 177.236 191.191 176.652 191.191 176C191.191 175.348 191.294 174.775 191.511 174.247C191.727 173.73 192.024 173.27 192.411 172.876C192.799 172.483 193.255 172.18 193.779 171.966C194.303 171.753 194.873 171.652 195.489 171.652C196.104 171.652 196.663 171.764 197.187 171.966C197.711 172.169 198.156 172.483 198.555 172.876C198.942 173.27 199.25 173.73 199.467 174.247C199.683 174.764 199.786 175.348 199.786 176C199.786 176.652 199.683 177.225 199.467 177.753Z" fill="#DADCE0"/>
    <path d="M214.756 178.488C215.707 178.093 216.439 177.523 216.963 176.767C217.476 176.012 217.744 175.116 217.744 174.058C217.744 173 217.488 172.116 216.963 171.36C216.451 170.605 215.707 170.012 214.756 169.605C213.805 169.198 212.671 169 211.354 169H205V183H208.415V179.081H211.354C211.354 179.081 211.451 179.081 211.5 179.081L214.354 183H218L214.732 178.5C214.732 178.5 214.744 178.5 214.756 178.5V178.488ZM213.524 172.279C214.061 172.698 214.317 173.291 214.317 174.07C214.317 174.849 214.049 175.442 213.524 175.872C212.988 176.302 212.207 176.512 211.171 176.512H208.427V171.651H211.171C212.207 171.651 212.988 171.86 213.524 172.279Z" fill="#DADCE0"/>
    <path d="M516.522 226H259.478C256.452 226 254 228.422 254 231.41V269.59C254 272.578 256.452 275 259.478 275H516.522C519.548 275 522 272.578 522 269.59V231.41C522 228.422 519.548 226 516.522 226Z" fill="#DADCE0"/>
    <path d="M273.049 232H264.951C263.321 232 262 233.353 262 235.023V264.977C262 266.647 263.321 268 264.951 268H273.049C274.679 268 276 266.647 276 264.977V235.023C276 233.353 274.679 232 273.049 232Z" fill="#232B41"/>
    <path d="M295.838 232H287.162C285.416 232 284 233.353 284 235.023V264.977C284 266.647 285.416 268 287.162 268H295.838C297.584 268 299 266.647 299 264.977V235.023C299 233.353 297.584 232 295.838 232Z" fill="#A6A9B3"/>
    <path d="M318.049 232H309.951C308.321 232 307 233.353 307 235.023V264.977C307 266.647 308.321 268 309.951 268H318.049C319.679 268 321 266.647 321 264.977V235.023C321 233.353 319.679 232 318.049 232Z" fill="#066FD1"/>
    <path d="M340.838 232H332.162C330.416 232 329 233.353 329 235.023V264.977C329 266.647 330.416 268 332.162 268H340.838C342.584 268 344 266.647 344 264.977V235.023C344 233.353 342.584 232 340.838 232Z" fill="#A6A9B3"/>
    <path d="M516.522 289H259.478C256.452 289 254 291.472 254 294.521V333.479C254 336.528 256.452 339 259.478 339H516.522C519.548 339 522 336.528 522 333.479V294.521C522 291.472 519.548 289 516.522 289Z" fill="#DADCE0"/>
    <path d="M273.049 295H264.951C263.321 295 262 296.353 262 298.023V327.977C262 329.647 263.321 331 264.951 331H273.049C274.679 331 276 329.647 276 327.977V298.023C276 296.353 274.679 295 273.049 295Z" fill="#232B41"/>
    <path d="M309.951 331H318.049C319.679 331 321 329.647 321 327.977V298.023C321 296.353 319.679 295 318.049 295H309.951C308.321 295 307 296.353 307 298.023V327.977C307 329.647 308.321 331 309.951 331Z" fill="#A6A9B3"/>
    <path d="M287.162 331H295.838C297.584 331 299 329.647 299 327.977V298.023C299 296.353 297.584 295 295.838 295H287.162C285.416 295 284 296.353 284 298.023V327.977C284 329.647 285.416 331 287.162 331Z" fill="#066FD1"/>
    <path d="M340.838 295H332.162C330.416 295 329 296.353 329 298.023V327.977C329 329.647 330.416 331 332.162 331H340.838C342.584 331 344 329.647 344 327.977V298.023C344 296.353 342.584 295 340.838 295Z" fill="#A6A9B3"/>
    <path d="M516.522 352H259.478C256.452 352 254 354.472 254 357.521V396.479C254 399.528 256.452 402 259.478 402H516.522C519.548 402 522 399.528 522 396.479V357.521C522 354.472 519.548 352 516.522 352Z" fill="#DADCE0"/>
    <path d="M332.162 395H340.838C342.584 395 344 393.609 344 391.893V361.107C344 359.391 342.584 358 340.838 358H332.162C330.416 358 329 359.391 329 361.107V391.893C329 393.609 330.416 395 332.162 395Z" fill="#232B41"/>
    <path d="M309.951 395H318.049C319.679 395 321 393.609 321 391.893V361.107C321 359.391 319.679 358 318.049 358H309.951C308.321 358 307 359.391 307 361.107V391.893C307 393.609 308.321 395 309.951 395Z" fill="#A6A9B3"/>
    <path d="M273.049 358H264.951C263.321 358 262 359.391 262 361.107V391.893C262 393.609 263.321 395 264.951 395H273.049C274.679 395 276 393.609 276 391.893V361.107C276 359.391 274.679 358 273.049 358Z" fill="#066FD1"/>
    <path d="M295.838 358H287.162C285.416 358 284 359.391 284 361.107V391.893C284 393.609 285.416 395 287.162 395H295.838C297.584 395 299 393.609 299 391.893V361.107C299 359.391 297.584 358 295.838 358Z" fill="#A6A9B3"/>
    <path d="M292.714 454C291.758 454 290.814 453.643 290.088 452.917C288.637 451.466 288.637 449.116 290.088 447.665L322.66 415.089C324.111 413.637 326.46 413.637 327.912 415.089C329.363 416.54 329.363 418.89 327.912 420.341L295.34 452.917C294.615 453.643 293.659 454 292.714 454Z" fill="#A6A9B3"/>
    <path d="M467.286 454C466.33 454 465.385 453.643 464.66 452.917L432.088 420.341C430.637 418.89 430.637 416.54 432.088 415.089C433.54 413.637 435.889 413.637 437.34 415.089L469.912 447.665C471.363 449.116 471.363 451.466 469.912 452.917C469.186 453.643 468.23 454 467.286 454Z" fill="#A6A9B3"/>
    <path d="M435.499 268.353L389.173 348.945C385.84 354.748 390.004 362 396.681 362H489.321C495.986 362 500.161 354.748 496.828 348.945L450.503 268.353C447.17 262.549 438.832 262.549 435.499 268.353Z" fill="#066FD1"/>
    <path d="M442.585 349C440.103 349 438.056 348.235 436.434 346.717C434.811 345.187 434 343.379 434 341.293C434 339.207 434.811 337.352 436.434 335.915C438.056 334.478 440.103 333.76 442.585 333.76C445.067 333.76 447.089 334.478 448.651 335.915C450.213 337.352 451 339.149 451 341.293C451 343.437 450.213 345.187 448.651 346.717C447.089 348.247 445.067 349 442.585 349ZM437.003 327.64L434.351 289H450.734L447.985 327.64H437.003Z" fill="white"/>
    <path d="M277.844 145.662C274.01 143.955 268.916 143.101 262.576 143.101H257.252L258.384 130.872H285.154V119H246.038L242.839 154.973H259.111C263.015 154.973 266.041 155.319 268.2 156.023C270.36 156.726 271.885 157.684 272.774 158.895C273.652 160.118 274.102 161.572 274.102 163.279C274.102 165.898 273.016 167.952 270.857 169.44C268.697 170.928 265.752 171.678 262.033 171.678C258.684 171.678 255.404 171.148 252.205 170.086C249.006 169.025 246.223 167.606 243.844 165.841L238 177.066C241.107 179.316 244.837 181.035 249.191 182.223C253.545 183.412 257.945 184 262.403 184C268.501 184 273.513 183.031 277.44 181.081C281.366 179.131 284.277 176.547 286.171 173.317C288.053 170.086 289 166.625 289 162.91C289 159.195 288.099 155.746 286.309 152.734C284.507 149.723 281.69 147.358 277.855 145.662H277.844Z" fill="#A6A9B3"/>
    <path d="M336.591 121.872C332.476 119.291 327.76 118 322.454 118C317.148 118 312.524 119.291 308.409 121.872C304.294 124.453 301.034 128.197 298.618 133.083C296.214 137.98 295 143.948 295 151C295 158.052 296.202 164.02 298.618 168.917C301.022 173.814 304.294 177.547 308.409 180.128C312.524 182.709 317.206 184 322.454 184C327.702 184 332.476 182.709 336.591 180.128C340.706 177.547 343.966 173.803 346.382 168.917C348.786 164.02 350 158.052 350 151C350 143.948 348.798 137.98 346.382 133.083C343.978 128.186 340.706 124.453 336.591 121.872ZM333.389 162.776C332.326 165.818 330.858 168.053 328.996 169.482C327.135 170.911 324.951 171.625 322.454 171.625C319.957 171.625 317.946 170.911 316.05 169.482C314.154 168.053 312.663 165.818 311.565 162.776C310.467 159.734 309.923 155.816 309.923 151.012C309.923 146.207 310.467 142.289 311.565 139.247C312.663 136.205 314.154 133.97 316.05 132.541C317.934 131.112 320.073 130.398 322.454 130.398C324.951 130.398 327.135 131.112 328.996 132.541C330.858 133.97 332.314 136.205 333.389 139.247C334.453 142.289 334.984 146.207 334.984 151.012C334.984 155.816 334.453 159.734 333.389 162.776Z" fill="#A6A9B3"/>
    <path d="M408.382 133.083C405.978 128.186 402.706 124.453 398.591 121.872C394.476 119.291 389.76 118 384.454 118C379.148 118 374.524 119.291 370.409 121.872C366.294 124.453 363.034 128.197 360.618 133.083C358.214 137.98 357 143.948 357 151C357 158.052 358.202 164.02 360.618 168.917C363.022 173.814 366.294 177.547 370.409 180.128C374.524 182.709 379.206 184 384.454 184C389.702 184 394.476 182.709 398.591 180.128C402.706 177.547 405.966 173.803 408.382 168.917C410.786 164.02 412 158.052 412 151C412 143.948 410.798 137.98 408.382 133.083ZM395.401 162.764C394.337 165.806 392.869 168.042 391.008 169.47C389.147 170.899 386.962 171.613 384.465 171.613C381.968 171.613 379.957 170.899 378.061 169.47C376.166 168.042 374.674 165.806 373.576 162.764C372.478 159.722 371.935 155.805 371.935 151C371.935 146.195 372.478 142.278 373.576 139.236C374.674 136.194 376.166 133.958 378.061 132.53C379.946 131.101 382.084 130.387 384.465 130.387C386.962 130.387 389.147 131.101 391.008 132.53C392.869 133.958 394.326 136.194 395.401 139.236C396.464 142.278 396.996 146.195 396.996 151C396.996 155.805 396.464 159.722 395.401 162.764Z" fill="#A6A9B3"/>
    <path d="M154.264 322H114.736C112.12 322 110 324.12 110 326.736V366.264C110 368.88 112.12 371 114.736 371H154.264C156.88 371 159 368.88 159 366.264V326.736C159 324.12 156.88 322 154.264 322Z" fill="#DADCE0"/>
    <path d="M153.989 346.506C153.989 357.279 145.48 366 134.994 366C124.509 366 116 357.267 116 346.506C116 339.907 119.192 334.065 124.1 330.533C127.178 328.306 130.939 327 135.006 327C145.275 327 153.625 335.348 153.989 345.783C154 346.016 154 346.273 154 346.506H153.989Z" fill="#A6A9B3"/>
    <path d="M153.989 346.049C154 346.279 154 346.533 154 346.763C154 357.394 145.489 366 135 366C124.511 366 116 357.382 116 346.763C116 340.25 119.193 334.486 124.102 331C123.25 333.485 121.648 339.399 124.443 344.013C128.557 350.813 141.295 353.217 154 346.049H153.989Z" fill="black" opacity="0.1"/>
    <path d="M125.5 352C128.538 352 131 349.538 131 346.5C131 343.462 128.538 341 125.5 341C122.462 341 120 343.462 120 346.5C120 349.538 122.462 352 125.5 352Z" fill="#DADCE0"/>
    <path d="M144 352C146.761 352 149 349.538 149 346.5C149 343.462 146.761 341 144 341C141.239 341 139 343.462 139 346.5C139 349.538 141.239 352 144 352Z" fill="#DADCE0"/>
    <path d="M141.036 436.611C137.999 445.837 128.655 451.289 119.275 449.738C117.733 449.495 116.74 447.944 117.231 446.462L118.96 441.218L108.354 437.803C107.337 437.468 106.765 436.38 107.092 435.361L107.945 432.791C108.284 431.761 109.382 431.217 110.409 431.541L121.015 434.956L123.281 428.08L112.675 424.642C111.659 424.306 111.087 423.23 111.414 422.2L112.267 419.63C112.605 418.6 113.703 418.055 114.731 418.38L125.337 421.794L127.65 414.733C128.141 413.252 129.846 412.58 131.248 413.275C139.739 417.511 144.061 427.351 141.036 436.588V436.611Z" fill="#DADCE0"/>
    <path d="M630.992 380.582C631.143 385.882 629.13 391.044 625.462 394.893L618.671 377.159C618.128 375.719 616.497 374.993 615.039 375.535L611.742 376.791L604.164 379.671C602.718 380.236 601.989 381.838 602.533 383.289L609.324 401C598.287 400.124 590.062 390.491 590.953 379.499C591.381 374.175 593.937 369.266 598.033 365.832L596.587 362.053L595.21 358.366L590.27 345.46L588.639 341.197L588.072 339.71L585.064 331.898L571.61 296.857C560.527 297.157 551.318 288.446 551.006 277.418C550.878 272.095 552.868 266.956 556.536 263.096L560.041 272.256L563.327 280.852C563.87 282.292 565.478 283.03 566.948 282.477H566.959L577.822 278.363C579.268 277.799 580.009 276.197 579.453 274.745L572.686 257C580.39 257.622 587.054 262.6 589.796 269.825C592.827 277.752 590.49 286.729 583.977 292.202L599.213 331.921L600.439 335.113L602.799 341.266L604.407 345.495L607.438 353.446L610.388 361.177C621.471 360.878 630.703 369.577 630.992 380.616V380.582Z" fill="#A6A9B3"/>
    <path d="M571.988 296.988C560.702 297.29 551.324 288.52 551.006 277.419C550.876 272.06 552.903 266.886 556.637 263L560.207 272.222C558.887 278.243 557.709 291.908 572 297L571.988 296.988Z" fill="black" opacity="0.1"/>
    <path d="M605 345H590.38L588.691 340.917L588.104 339.493L585 332H599.62L600.89 335.057L603.334 340.95L605 345Z" fill="black" opacity="0.1"/>
    <path d="M446.047 205.441C442.838 210.657 447.599 217.201 452.324 220.028C461.04 225.118 474.412 223.445 481.168 216.728C485.018 212.365 482.288 206.307 477.714 203.514C470.316 198.574 451.974 198.574 446.199 205.233L446.047 205.452V205.441Z" fill="#FFCB9D"/>
    <path d="M648.848 318.894C637.013 344.945 594.454 343.485 582.215 336.995C580.356 335.999 576.223 333.809 575.23 329.556C574.479 326.392 575.599 322.521 578.128 320.574C581.672 317.84 586.914 319.729 590.759 320.621C604.395 323.761 622.777 319.334 627.649 310.446C630.628 304.999 628.561 297.861 625.952 292.322C624.105 288.405 621.992 285.287 621.183 284.117C623.539 282.205 626.702 280.014 630.663 278.033C634.946 275.912 638.872 274.707 641.978 274C643.017 275.31 644.345 277.117 645.673 279.412C647.693 282.854 649.748 287.373 650.926 292.913C651.654 296.343 653.755 308.105 648.848 318.906V318.894Z" fill="#FFCB9D"/>
    <path d="M644.989 279.612C638.844 282.436 630.777 286.979 625.673 293C623.863 288.938 621.792 285.705 621 284.491C623.308 282.509 626.409 280.237 630.29 278.182C634.488 275.983 638.335 274.733 641.379 274C642.397 275.358 643.699 277.233 645 279.612H644.989Z" fill="black" opacity="0.1"/>
    <path d="M508.413 165.941C507.854 164.465 507.622 163.046 507.691 161.709C507.761 160.372 508.006 159.093 508.413 157.872C508.821 156.651 509.322 155.488 509.892 154.383C510.474 153.279 510.998 152.221 511.499 151.221C511.988 150.221 512.337 149.232 512.547 148.267C512.756 147.302 512.663 146.314 512.291 145.314C511.72 143.791 510.614 142.791 508.972 142.314C507.331 141.837 505.468 141.988 503.372 142.779C501.241 143.581 499.53 144.698 498.26 146.139C496.991 147.581 496.118 149.256 495.641 151.174L486 149.5C486.768 146.139 488.398 143.093 490.879 140.384C493.359 137.674 496.805 135.488 501.195 133.849C504.501 132.605 507.575 131.989 510.404 132C513.234 132 515.679 132.64 517.74 133.907C519.801 135.175 521.314 137.081 522.281 139.651C522.944 141.43 523.27 143.07 523.224 144.535C523.189 146.011 522.933 147.384 522.455 148.651C521.989 149.918 521.442 151.139 520.814 152.314C520.185 153.488 519.603 154.628 519.079 155.721C518.543 156.814 518.182 157.895 517.984 158.953C517.786 160.023 517.903 161.116 518.322 162.255L508.39 165.976L508.413 165.941ZM519.544 180.522C517.763 181.185 516.063 181.162 514.445 180.429C512.826 179.685 511.72 178.522 511.115 176.918C510.498 175.267 510.567 173.662 511.324 172.116C512.081 170.569 513.35 169.453 515.132 168.79C517.006 168.092 518.729 168.081 520.301 168.755C521.873 169.43 522.968 170.592 523.585 172.243C524.19 173.848 524.132 175.464 523.422 177.069C522.711 178.674 521.419 179.825 519.544 180.522Z" fill="#066FD1"/>
    <path d="M591 235.546C589.339 239.244 582.211 242 573.629 242C566.88 242 560.979 240.276 558 237.69C562.194 236.681 567.132 235.785 572.69 235.331C579.691 234.752 585.901 235.002 591 235.546Z" fill="black" opacity="0.1"/>
    <path d="M110.406 432.096L121 435.591L118.946 442L108.352 438.505C107.337 438.161 106.765 437.048 107.092 436.005L107.944 433.375C108.282 432.321 109.379 431.764 110.406 432.096Z" fill="black" opacity="0.1"/>
    <path d="M125 422.235L122.946 428L112.352 424.841C111.337 424.532 110.765 423.543 111.092 422.596L111.944 420.235C112.282 419.288 113.379 418.788 114.406 419.086L125 422.224V422.235Z" fill="black" opacity="0.1"/>
</svg>
