<svg xmlns="http://www.w3.org/2000/svg" width="800" height="600" fill="none" viewBox="0 0 800 600">
    <path d="M130.399 303.904C130.399 350.222 179.357 383.803 200.953 421.181C223.383 459.81 228.674 518.703 267.292 541.005C304.682 562.647 357.913 538.435 404.208 538.435C450.502 538.435 503.733 562.647 541.112 541.005C579.683 518.703 585.009 459.752 607.369 421.181C629.011 383.803 677.923 350.222 677.923 303.904C677.923 257.586 628.977 224.006 607.369 186.627C585.067 148.056 579.683 89.1051 541.112 66.7799C503.687 45.161 450.456 69.4084 404.161 69.4084C357.867 69.4084 304.636 45.161 267.292 66.7799C228.721 89.1051 223.383 148.056 201.034 186.627C179.357 224.006 130.48 257.586 130.48 303.904" fill="#066FD1" opacity="0.02"/>
    <path d="M123 511.744C123 514.315 178.987 516.376 248.058 516.376C317.13 516.376 373.117 514.292 373.117 511.744C373.117 509.197 317.13 507.112 248.058 507.112C178.987 507.112 123 509.197 123 511.744Z" fill="#D6D8E2" opacity="0.5"/>
    <path d="M549.679 237.474C540.569 244.48 535.125 253.997 535.125 264.337C535.125 274.677 540.569 284.195 549.679 291.2C558.792 298.207 571.48 302.607 585.588 302.607C599.697 302.607 612.384 298.207 621.497 291.2C630.607 284.195 636.052 274.677 636.052 264.337C636.052 253.997 630.607 244.48 621.497 237.474C612.384 230.467 599.697 226.067 585.588 226.067C571.48 226.067 558.792 230.467 549.679 237.474ZM546.856 233.803C556.846 226.121 570.547 221.435 585.588 221.435C600.629 221.435 614.331 226.121 624.321 233.803C634.313 241.486 640.683 252.262 640.683 264.337C640.683 276.412 634.313 287.188 624.321 294.872C614.331 302.554 600.629 307.239 585.588 307.239C570.547 307.239 556.846 302.554 546.856 294.872C536.864 287.188 530.493 276.412 530.493 264.337C530.493 252.262 536.864 241.486 546.856 233.803Z" fill="#A7AAB3"/>
    <path d="M589.792 211.558H518.242V322.929H589.792V211.558Z" fill="white"/>
    <path d="M297.213 459.59L336.56 422.327H589.791L547.48 485.482L297.213 459.59Z" fill="#A7AAB3"/>
    <path d="M589.792 479.009L546.855 504.426L542.432 458.328L589.792 422.327V479.009Z" fill="#232B41"/>
    <path d="M338.478 76.1871C333.641 73.0276 322.27 65.8398 306.769 66.7639C304.093 66.9329 282.454 68.6471 270.038 87.551C260.921 101.436 262.43 115.935 263.008 120.035L258.422 120.681C257.795 116.235 256.109 100.327 266.167 85.0085C279.892 64.1111 303.63 62.3208 306.482 62.1411L306.489 62.1406C323.571 61.1208 336.028 69.0544 341.011 72.3098C348.945 77.4959 360.489 87.5435 374.446 122.569C383.192 144.533 389.08 166.742 392.782 183.441C394.633 191.796 395.94 198.782 396.784 203.685C397.207 206.136 397.513 208.067 397.715 209.388C397.816 210.049 397.89 210.557 397.94 210.901C397.965 211.073 397.983 211.205 397.996 211.294L398.01 211.395L398.014 211.429L398.015 211.431C398.015 211.431 398.015 211.432 395.72 211.743L393.425 212.054L393.421 212.026L393.408 211.934C393.397 211.851 393.379 211.726 393.355 211.56C393.308 211.229 393.235 210.734 393.136 210.087C392.939 208.793 392.637 206.891 392.22 204.471C391.386 199.63 390.093 192.716 388.26 184.443C384.59 167.889 378.766 145.939 370.143 124.283C356.425 89.8568 345.388 80.7046 338.478 76.1871Z" fill="#A7AAB3"/>
    <path d="M285.147 169.096L239.478 169.883C238.957 139.777 248.741 115.182 261.375 114.962C274.008 114.742 284.626 138.978 285.147 169.096Z" fill="#066FD1"/>
    <path d="M285.147 169.096C316.52 281.981 347.904 394.869 379.3 507.761L123 511.744L239.478 169.884L285.147 169.096Z" fill="#99AABB" opacity="0.1"/>
    <path d="M542.177 447.397H292.095C284.715 447.397 278.732 453.38 278.732 460.76V497.258C278.732 504.638 284.715 510.621 292.095 510.621H542.177C549.557 510.621 555.54 504.638 555.54 497.258V460.76C555.54 453.38 549.557 447.397 542.177 447.397Z" fill="#DADBE0"/>
    <path d="M594.828 201.171H344.746C337.366 201.171 331.384 207.154 331.384 214.534V251.021C331.384 258.401 337.366 264.383 344.746 264.383H594.828C602.208 264.383 608.191 258.401 608.191 251.021V214.534C608.191 207.154 602.208 201.171 594.828 201.171Z" fill="#DADBE0"/>
    <path d="M594.828 273.798H344.746C337.366 273.798 331.384 279.78 331.384 287.16V323.659C331.384 331.039 337.366 337.022 344.746 337.022H594.828C602.208 337.022 608.191 331.039 608.191 323.659V287.16C608.191 279.78 602.208 273.798 594.828 273.798Z" fill="#066FD1"/>
    <path d="M608.191 359.787V396.273C608.191 399.817 606.783 403.216 604.277 405.722C601.771 408.228 598.372 409.636 594.828 409.636H344.712C341.308 409.639 338.032 408.341 335.554 406.007C333.077 403.674 331.585 400.482 331.384 397.084C331.384 396.818 331.384 396.54 331.384 396.273V359.787C331.384 356.243 332.792 352.844 335.298 350.338C337.804 347.832 341.202 346.424 344.746 346.424H594.863C598.401 346.433 601.791 347.845 604.289 350.35C606.788 352.855 608.191 356.249 608.191 359.787Z" fill="#DADBE0"/>
    <path d="M516.667 463.319H317.616C314.77 463.319 312.463 465.626 312.463 468.471V470.614C312.463 473.46 314.77 475.767 317.616 475.767H516.667C519.513 475.767 521.82 473.46 521.82 470.614V468.471C521.82 465.626 519.513 463.319 516.667 463.319Z" fill="white"/>
    <path d="M569.319 288.446H370.268C367.422 288.446 365.115 290.753 365.115 293.598V295.741C365.115 298.586 367.422 300.893 370.268 300.893H569.319C572.165 300.893 574.472 298.586 574.472 295.741V293.598C574.472 290.753 572.165 288.446 569.319 288.446Z" fill="white"/>
    <path d="M569.319 215.194H370.268C367.422 215.194 365.115 217.501 365.115 220.347V222.489C365.115 225.335 367.422 227.642 370.268 227.642H569.319C572.165 227.642 574.472 225.335 574.472 222.489V220.347C574.472 217.501 572.165 215.194 569.319 215.194Z" fill="#A7AAB3"/>
    <path d="M479.74 163.33L448.001 174.562C447.508 174.738 446.972 174.755 446.469 174.61C445.965 174.464 445.521 174.164 445.199 173.751C436.845 163.08 431.199 150.545 428.744 137.218C427.971 132.813 427.564 128.351 427.528 123.878C427.537 123.368 427.701 122.873 427.999 122.459C428.297 122.045 428.715 121.732 429.196 121.562L460.947 110.33C461.314 110.197 461.708 110.153 462.096 110.2C462.484 110.247 462.855 110.385 463.18 110.603C463.505 110.821 463.774 111.112 463.965 111.453C464.157 111.793 464.265 112.175 464.282 112.565C464.471 117.119 465.028 121.65 465.949 126.113C468.499 138.199 473.608 149.598 480.933 159.543C481.153 159.857 481.298 160.218 481.357 160.597C481.415 160.977 481.386 161.364 481.271 161.731C481.155 162.097 480.957 162.431 480.692 162.709C480.426 162.986 480.101 163.198 479.74 163.33Z" fill="#A7AAB3"/>
    <path d="M455.911 120.587L431.497 129.158C430.92 129.36 430.616 129.992 430.819 130.569L431.304 131.952C431.507 132.529 432.139 132.832 432.716 132.63L457.13 124.059C457.708 123.856 458.011 123.224 457.809 122.647L457.323 121.265C457.121 120.688 456.489 120.384 455.911 120.587Z" fill="white"/>
    <path d="M456.431 129.513L431.45 138.283C431.03 138.431 430.808 138.892 430.956 139.312L431.063 139.617C431.211 140.038 431.672 140.259 432.092 140.112L457.073 131.342C457.494 131.194 457.715 130.733 457.567 130.313L457.46 130.008C457.312 129.587 456.852 129.366 456.431 129.513Z" fill="#DADBE0"/>
    <path d="M468.079 149.296L450.295 155.586C449.705 155.795 449.395 156.443 449.604 157.034L450.079 158.377C450.288 158.968 450.936 159.277 451.527 159.068L469.31 152.778C469.901 152.569 470.211 151.921 470.002 151.33L469.527 149.987C469.318 149.396 468.669 149.087 468.079 149.296Z" fill="#066FD1"/>
    <path d="M561.989 142.266L515.486 127.549C515.003 127.394 514.561 127.129 514.198 126.775C513.834 126.421 513.557 125.987 513.39 125.507C513.223 125.028 513.169 124.516 513.233 124.012C513.298 123.508 513.478 123.026 513.761 122.604C518.036 116.453 520.917 109.442 522.202 102.063C524.611 87.2987 518.729 78.9036 523.082 66.3746C525.297 60.32 529.057 54.9505 533.99 50.8002C534.417 50.4335 534.93 50.1815 535.481 50.068C536.032 49.9546 536.603 49.9834 537.14 50.1517L583.307 64.765C583.828 64.93 584.3 65.2227 584.679 65.6166C585.059 66.0105 585.333 66.493 585.478 67.0201C585.623 67.5473 585.634 68.1024 585.51 68.6348C585.385 69.1672 585.13 69.6601 584.766 70.0684C580.385 74.9191 577.292 80.7917 575.769 87.1481C573.14 98.7276 577.958 105.293 576.279 117.602C575.48 123.519 573.048 131.764 565.533 141.19C565.123 141.709 564.563 142.091 563.93 142.284C563.297 142.476 562.619 142.47 561.989 142.266Z" fill="#DADBE0"/>
    <path d="M567.004 119.8L531.689 108.618C530.848 108.352 529.95 108.818 529.684 109.659L529.058 111.635C528.792 112.477 529.258 113.375 530.099 113.641L565.414 124.823C566.255 125.09 567.153 124.624 567.419 123.782L568.045 121.806C568.312 120.965 567.845 120.067 567.004 119.8Z" fill="white"/>
    <path d="M532.43 79.2124L559.112 87.6611C560.02 87.9487 560.99 87.4455 561.278 86.537L562.609 82.3311C562.897 81.4226 562.394 80.453 561.485 80.1654L534.803 71.7167C533.895 71.4291 532.925 71.9323 532.638 72.8408L531.306 77.0467C531.018 77.9552 531.522 78.9248 532.43 79.2124Z" fill="#A7AAB3"/>
    <path d="M540.879 65.2833L566.535 73.4069C567.388 73.6771 568.299 73.2043 568.569 72.3507L569.181 70.4189C569.451 69.5653 568.979 68.6543 568.125 68.384L542.47 60.2604C541.616 59.9902 540.705 60.463 540.435 61.3166L539.823 63.2485C539.553 64.102 540.026 65.013 540.879 65.2833Z" fill="#066FD1"/>
    <path d="M365.115 346.424C363.028 355.054 358.867 363.046 352.994 369.704C347.12 376.363 339.71 381.489 331.407 384.636C331.395 384.432 331.395 384.227 331.407 384.022V356.51C331.407 353.835 332.47 351.269 334.361 349.378C336.253 347.486 338.818 346.424 341.493 346.424H365.115Z" fill="black" opacity="0.1"/>
    <path d="M569.319 361.697H370.268C367.422 361.697 365.115 364.004 365.115 366.85V368.992C365.115 371.838 367.422 374.145 370.268 374.145H569.319C572.165 374.145 574.472 371.838 574.472 368.992V366.85C574.472 364.004 572.165 361.697 569.319 361.697Z" fill="#066FD1"/>
    <path d="M365.786 337.01H344.746C341.202 337.01 337.804 335.602 335.298 333.096C332.792 330.59 331.384 327.191 331.384 323.647V297.304C333.791 296.701 336.292 296.571 338.748 296.922C342.115 297.34 345.385 298.331 348.417 299.852C361.965 306.903 365.057 325.963 365.335 327.862C365.804 330.887 365.955 333.953 365.786 337.01Z" fill="black" opacity="0.1"/>
    <path d="M309.615 216.792C309.708 219.663 309.777 223.959 309.8 229.112C309.8 230.27 309.719 231.278 309.8 231.637C309.551 237.347 308.602 243.005 306.975 248.485C306.581 249.643 306.292 250.569 305.898 251.681C304.74 254.39 297.144 258.072 288.529 259.659C285.552 260.241 282.516 260.466 279.485 260.33C270.002 260.064 264.918 252.781 265.706 247.211C265.875 245.875 266.449 244.622 267.35 243.621C268.964 241.532 270.21 239.182 271.032 236.674C272.248 233.343 273.159 229.909 273.753 226.414C274.011 225.334 274.208 224.24 274.344 223.137L282.924 214.487L304.925 212.866C304.925 216.572 306.083 219.119 307.311 219.27C308.538 219.42 309.407 217.29 309.615 216.792Z" fill="#FFCB9D"/>
    <path d="M309.615 216.792C309.707 219.664 309.777 223.959 309.8 229.112C309.8 230.27 309.719 231.278 309.8 231.637C309.551 237.347 308.602 243.005 306.974 248.485C305.514 248.111 304.131 247.484 302.887 246.632C301.555 245.647 300.41 244.431 299.506 243.042C298.629 241.518 297.985 239.871 297.595 238.156C297.294 237.07 297.054 235.968 296.877 234.856C288.634 238.334 279.457 238.926 270.835 236.535C272.044 233.202 272.955 229.769 273.556 226.275C273.813 225.195 274.01 224.101 274.147 222.998L282.727 214.337L304.728 212.716C304.728 216.433 305.886 218.98 307.113 219.131C308.341 219.281 309.371 217.29 309.58 216.815" fill="black" opacity="0.1"/>
    <path d="M312.707 221.354C312.95 225.952 311.439 230.471 308.48 233.999C307.82 234.647 307.264 235.284 306.708 235.921C305.34 237.901 304.481 240.188 304.207 242.579C303.073 241.458 302.334 239.999 302.1 238.422C301.81 236.106 302.551 231.474 302.505 230.849V230.49C302.468 230.132 302.468 229.771 302.505 229.413C302.536 228.215 302.451 227.017 302.25 225.835V225.719C296.901 229.587 281.546 238.978 270.349 231.66C268.616 230.492 267.03 229.119 265.625 227.572C265.466 227.448 265.332 227.295 265.231 227.121C264.879 226.737 264.568 226.318 264.304 225.87L264.177 225.766C263.384 224.646 262.803 223.39 262.463 222.06L262.313 221.597C262.151 221.013 262.104 220.404 262.174 219.802C262.304 217.491 263.248 215.301 264.837 213.619C267.709 210.296 272.097 208.176 274.529 207.042C283.654 202.537 297.769 200.661 306.488 208.524C308.644 210.588 310.309 213.108 311.363 215.9C312.058 217.633 312.514 219.452 312.718 221.308" fill="#232B41"/>
    <path d="M302.25 225.72C296.9 229.587 281.546 238.978 270.349 231.66C268.615 230.492 267.029 229.12 265.624 227.572C265.465 227.448 265.332 227.295 265.23 227.121C264.879 226.738 264.568 226.319 264.304 225.87C264.303 225.855 264.298 225.84 264.291 225.827C264.284 225.813 264.274 225.801 264.262 225.792C264.25 225.782 264.237 225.775 264.222 225.77C264.207 225.766 264.192 225.764 264.177 225.766C263.384 224.646 262.803 223.39 262.463 222.061C265.171 224.293 268.21 226.09 271.472 227.387C287.625 233.617 303.385 223.242 305.897 221.597L306.129 221.458C304.913 222.86 303.582 224.284 302.25 225.697" fill="black" opacity="0.5"/>
    <path d="M244.121 449.945L259.441 463.99C256.114 474.026 252.794 484.062 249.482 494.097L239.744 493.298L244.121 449.945Z" fill="#066FD1"/>
    <path d="M247.143 419.977L244.121 449.944L204.971 414.048C216.62 397.922 228.272 381.799 239.929 365.681L290.647 369.479C281.955 395.81 273.255 422.146 264.547 448.485L247.178 419.942C247.834 413.396 248.49 406.853 249.146 400.315C246.946 404.321 244.735 408.305 242.523 412.311L247.143 419.977Z" fill="#066FD1"/>
    <path d="M227.076 511.177L250.675 508.525C250.675 508.525 251.508 502.388 247.872 500.292C244.236 498.196 230.978 505.456 227.029 511.177" fill="#232B41"/>
    <path d="M215.01 228.012L211.71 262.218L211.618 263.191C211.586 263.535 211.486 263.871 211.324 264.177C211.162 264.483 210.942 264.754 210.675 264.974C210.408 265.195 210.1 265.361 209.769 265.462C209.438 265.563 209.09 265.598 208.746 265.565L185.39 263.376C185.045 263.344 184.71 263.244 184.404 263.083C184.098 262.921 183.827 262.7 183.606 262.433C183.386 262.167 183.22 261.859 183.119 261.528C183.018 261.197 182.983 260.849 183.016 260.504L185.622 233.293L186.397 225.268C186.431 224.923 186.532 224.588 186.695 224.281C186.858 223.975 187.08 223.704 187.347 223.484C187.615 223.263 187.924 223.098 188.255 222.997C188.587 222.895 188.936 222.861 189.281 222.894L212.625 225.164C213.318 225.229 213.957 225.564 214.404 226.097C214.85 226.631 215.068 227.319 215.01 228.012Z" fill="#A7AAB3"/>
    <path d="M249.112 400.35C250.409 389.125 251.702 377.905 252.991 366.688L290.647 369.513L249.482 494.143L239.744 493.344L249.112 400.35Z" fill="black" opacity="0.15"/>
    <path d="M264.547 448.52C265.096 451.822 264.694 455.211 263.389 458.293C262.468 460.44 261.12 462.378 259.429 463.99L244.109 449.944C242.29 439.869 243.337 429.486 247.132 419.977L264.547 448.52Z" fill="#066FD1"/>
    <path d="M211.71 262.218L211.618 263.191C211.586 263.535 211.486 263.87 211.324 264.176C211.162 264.483 210.942 264.754 210.675 264.974C210.408 265.195 210.1 265.36 209.769 265.462C209.438 265.563 209.09 265.598 208.746 265.564L185.39 263.376C185.045 263.344 184.71 263.244 184.404 263.083C184.098 262.921 183.827 262.7 183.606 262.433C183.386 262.166 183.22 261.859 183.119 261.528C183.018 261.197 182.983 260.849 183.016 260.504L185.622 233.292C190.033 242.741 199.042 258.42 211.71 262.218Z" fill="black" opacity="0.1"/>
    <path d="M201.288 264.673C201.289 265.06 201.266 265.446 201.219 265.831C200.64 271.91 196.888 276.53 192.859 276.148C188.829 275.766 186.015 270.509 186.594 264.418C186.636 263.959 186.702 263.503 186.791 263.052C187.752 257.656 191.237 253.788 194.966 254.101C198.695 254.413 201.451 259.08 201.288 264.673Z" fill="#FFCB9D"/>
    <path d="M201.288 264.673C201.289 265.06 201.266 265.447 201.219 265.831C200.64 271.91 196.888 276.53 192.859 276.148C188.829 275.766 186.015 270.509 186.594 264.418C186.636 263.96 186.702 263.504 186.791 263.052C188.924 263.014 191.058 263.095 193.183 263.295C195.916 263.546 198.626 264.006 201.288 264.673Z" fill="black" opacity="0.1"/>
    <path d="M296.309 360.458C296.645 360.203 296.993 359.949 297.352 359.729C303.072 356.023 309.811 356.255 312.405 360.111C314.999 363.967 312.405 370.231 306.719 373.937C306.279 374.226 305.839 374.481 305.399 374.713C299.992 377.596 294.063 377.167 291.678 373.555C289.292 369.942 291.319 364.198 296.309 360.458Z" fill="#FFCB9D"/>
    <path d="M296.31 360.458C296.645 360.203 296.993 359.949 297.352 359.729C303.072 356.023 309.811 356.255 312.405 360.111C314.999 363.967 312.405 370.231 306.72 373.937C306.279 374.226 305.839 374.481 305.399 374.713C303.798 372.814 302.31 370.822 300.941 368.749C299.201 366.1 297.653 363.329 296.31 360.458Z" fill="black" opacity="0.1"/>
    <path d="M358.202 320.498C357.933 319.563 357.616 318.643 357.253 317.742C356.29 315.304 355.071 312.975 353.617 310.794L353.397 310.458C347.775 302.522 341.107 295.382 333.573 289.233C331.836 287.89 330.099 286.674 330.099 286.674C327.783 285.087 326 284.011 325.467 283.663C323.325 282.413 321.484 281.463 320.708 281.116C316.269 279.217 311.53 278.116 306.708 277.862L251.891 265.125C250.364 265.16 248.854 265.45 247.422 265.981C232.368 271.574 235.194 302.167 224.842 304.414C221.437 305.166 218.276 302.468 214.93 299.608C202.111 288.666 204.068 269.768 204.415 266.896L171.24 268.957C173.128 277.559 176.166 285.866 180.272 293.656C183.746 300.326 187.822 307.98 193.438 314.164C196.718 318.098 200.869 321.215 205.562 323.269C210.254 325.323 215.36 326.257 220.476 325.998C224.294 325.843 228.05 324.987 231.558 323.473C236.932 321.091 241.57 317.313 244.99 312.531C244.121 318.413 243.623 321.875 243.091 326.218C242.188 333.733 241.122 344.073 240.451 356.73C240.3 359.613 240.173 362.624 240.069 365.738L290.787 369.537L293.67 361.026C296.09 353.87 298.475 346.725 300.907 339.65C301.764 337.137 302.609 334.648 303.466 332.17L303.802 331.185C304.763 328.372 305.713 325.558 306.685 322.721L312.903 303.904L313.089 303.371L313.575 301.924C319.769 305.987 324.17 312.269 325.872 319.479C329.161 334.833 317.964 352.329 299.24 356.174C301.548 359.347 303.685 362.64 305.643 366.04C309.253 372.325 312.228 378.954 314.525 385.829C333.92 377.098 347.468 363.052 354.254 348.96C354.312 348.832 354.381 348.705 354.427 348.578C359.221 338.573 360.553 328.603 358.202 320.498Z" fill="#DADBE0"/>
    <path d="M298.753 510.621H292.095C288.556 510.618 285.162 509.212 282.658 506.712C280.153 504.211 278.742 500.82 278.732 497.281V463.365C281.836 475.188 288.297 495.66 298.753 510.621Z" fill="black" opacity="0.1"/>
    <path d="M264.547 448.52C267.372 452.689 270.321 456.935 273.394 461.258C276.466 465.581 279.527 469.718 282.576 473.671C281.673 475.322 280.543 476.838 279.218 478.175C278.52 478.865 277.773 479.503 276.983 480.086L259.44 464.025L264.547 448.52Z" fill="#066FD1"/>
    <path d="M285.193 503.21L291.388 480.78C291.388 480.78 286.108 477.781 282.889 480.317C279.67 482.853 281.407 497.559 285.205 503.21" fill="#232B41"/>
    <path d="M288.459 272.35C283.977 275.034 278.778 276.275 273.568 275.905H272.977L267.014 267.8L288.459 272.35Z" fill="#FFCB9D"/>
    <path d="M275.675 274.921L265.821 262.508L262.139 264.742L267.002 279.761L275.675 274.921Z" fill="#066FD1"/>
    <path d="M276.382 275.002L298.522 268.645L301.671 273.798L284.094 286.813L276.382 275.002Z" fill="#066FD1"/>
    <path d="M275.675 274.921L265.821 262.508L262.139 264.742L267.002 279.761L275.675 274.921Z" fill="black" opacity="0.11"/>
    <path d="M313.088 303.904L312.903 304.448L303.64 331.718L303.304 332.702L293.508 361.57L290.624 370.081L239.906 366.271C240.007 363.183 240.134 360.18 240.288 357.262C280.863 347.628 312.521 304.68 313.088 303.904Z" fill="black" opacity="0.1"/>
    <path d="M220.337 325.975C215.214 326.242 210.099 325.311 205.397 323.257C200.696 321.203 196.538 318.081 193.253 314.141C197.437 315.006 201.534 316.25 205.492 317.858C210.786 319.877 215.781 322.608 220.337 325.975Z" fill="#232B41"/>
    <path d="M354.485 348.531C352.951 343.517 351.98 338.348 351.59 333.119C350.837 323.855 351.694 315.518 353.616 310.782C355.07 312.963 356.289 315.292 357.252 317.73C357.616 318.632 357.933 319.551 358.202 320.486C360.552 328.603 359.221 338.573 354.485 348.531Z" fill="#232B41"/>
</svg>
