<svg xmlns="http://www.w3.org/2000/svg" width="800" height="600" fill="none" viewBox="0 0 800 600">
    <path d="M155 329.283C155 370.808 198.897 400.919 218.291 434.442C238.305 469.019 243.115 521.892 277.702 541.94C311.237 561.334 358.957 539.635 400.471 539.635C441.985 539.635 489.716 561.334 523.229 541.94C557.817 521.992 562.626 469.063 582.641 434.442C602.035 400.919 645.932 370.808 645.932 329.283C645.932 287.758 602.035 257.659 582.641 224.146C562.626 189.559 557.817 136.685 523.229 116.649C489.716 97.2546 441.974 118.943 400.471 118.943C358.968 118.943 311.237 97.2546 277.702 116.649C243.115 136.597 238.305 189.514 218.291 224.146C198.897 257.659 155 287.78 155 329.283Z" fill="#066FD1" opacity="0.02"/>
    <path d="M199.539 520.917C199.539 523.322 289.494 525.272 400.471 525.272C511.448 525.272 601.392 523.322 601.392 520.917C601.392 518.512 511.437 516.595 400.526 516.595C289.615 516.595 199.539 518.545 199.539 520.917Z" fill="#D6D8E2" opacity="0.5"/>
    <path d="M551.877 364.425H256.259C253.408 364.425 250.673 365.558 248.657 367.573C246.641 369.589 245.509 372.324 245.509 375.175V376.527C245.509 377.938 245.787 379.335 246.327 380.639C246.868 381.942 247.66 383.127 248.658 384.124C249.656 385.121 250.841 385.912 252.146 386.451C253.45 386.99 254.847 387.267 256.259 387.265H286.181V518.911C286.181 519.293 286.332 519.66 286.603 519.93C286.873 520.2 287.239 520.352 287.621 520.352H290.946C291.329 520.352 291.697 520.2 291.969 519.931C292.241 519.661 292.395 519.294 292.398 518.911V387.265H517.034V518.911C517.037 519.294 517.192 519.661 517.464 519.931C517.736 520.2 518.103 520.352 518.486 520.352H521.811C522.194 520.352 522.562 520.2 522.834 519.931C523.105 519.661 523.26 519.294 523.263 518.911V387.265H551.91C553.32 387.265 554.717 386.988 556.02 386.448C557.323 385.908 558.506 385.117 559.504 384.12C560.501 383.123 561.292 381.939 561.831 380.636C562.371 379.333 562.649 377.937 562.649 376.527V375.175C562.649 373.761 562.37 372.361 561.829 371.056C561.287 369.75 560.493 368.564 559.493 367.566C558.492 366.567 557.304 365.776 555.997 365.237C554.691 364.698 553.291 364.422 551.877 364.425Z" fill="#232B41"/>
    <path d="M497.385 372.304C497.385 377.713 492.609 382.81 484.186 387.265H286.446C278.024 382.832 273.247 377.713 273.247 372.304C273.374 369.334 274.617 366.52 276.727 364.425H493.939C496.037 366.525 497.267 369.338 497.385 372.304Z" fill="black" opacity="0.3"/>
    <path d="M395.052 289.454L363.534 257.57C359.888 260.573 356.142 263.887 352.352 267.544C350.49 269.328 348.728 271.102 347.033 272.864C343.963 278.083 344.174 281.319 344.916 283.292C348.152 291.836 368.078 293.953 395.052 289.454Z" fill="#066FD1"/>
    <path d="M464.327 342.416L387.328 334.658C387.328 333.217 387.261 331.832 387.228 330.524C387.228 330.037 387.228 329.56 387.228 329.095C387.228 328.574 387.228 328.064 387.228 327.565C387.234 327.484 387.234 327.403 387.228 327.322V327.178C387.228 326.623 387.228 326.069 387.228 325.571C387.228 325.072 387.228 324.64 387.228 324.196C387.223 324.126 387.223 324.056 387.228 323.986C387.228 323.443 387.228 322.933 387.228 322.445C387.228 321.958 387.228 321.592 387.228 321.204C387.228 320.816 387.228 320.595 387.228 320.318C387.228 320.041 387.228 319.874 387.228 319.675C387.228 319.475 387.228 319.154 387.228 318.91C387.228 318.378 387.173 317.946 387.162 317.602C387.162 317.447 387.162 317.303 387.162 317.192C387.162 317.082 387.162 316.882 387.162 316.805C387.162 316.727 387.095 316.317 387.062 316.073C387.029 315.829 386.984 315.486 386.951 315.253C386.918 315.02 386.951 315.076 386.951 315.009C386.951 314.943 386.951 314.81 386.951 314.765C386.949 314.747 386.949 314.728 386.951 314.71C386.84 314.001 386.729 313.291 386.596 312.571C386.53 312.205 386.475 311.84 386.397 311.463C385.745 308.026 384.871 304.635 383.782 301.312C383.593 300.735 383.394 300.148 383.183 299.561C382.729 298.253 382.208 296.934 381.654 295.604C381.465 295.15 381.277 294.707 381.078 294.263C380.967 294.008 380.856 293.742 380.734 293.488C380.612 293.233 380.457 292.856 380.302 292.546V292.479L379.947 291.714L379.77 291.349C379.604 291.016 379.448 290.695 379.282 290.373C378.529 288.911 377.775 287.536 377.066 286.262C376.8 285.819 376.534 285.386 376.268 284.965L375.725 284.101L375.448 283.68C375.215 283.325 374.982 282.971 374.738 282.572C374.495 282.173 374.495 282.195 374.362 282.017C373.719 281.087 373.076 280.222 372.456 279.391C365.097 269.639 361.373 264.807 362.482 260.485C362.784 259.371 363.342 258.342 364.111 257.481C365.322 256.654 366.519 255.812 367.701 254.955C375.326 249.547 382.714 243.924 389.866 238.087L391.118 237.068H391.173L391.716 236.647C392.038 236.403 392.348 236.159 392.67 235.893L393.113 235.55L393.346 235.361L393.578 235.173C393.8 234.996 394.01 234.829 394.188 234.663C394.609 234.32 395.008 233.976 395.374 233.655L396.061 233.045L396.382 232.757L396.947 232.247L397.612 231.627L397.845 231.405L398.011 231.239C398.277 230.995 398.532 230.74 398.798 230.474C399.064 230.208 399.319 229.953 399.585 229.676C399.851 229.399 400.117 229.144 400.372 228.867L401.136 228.047L401.934 227.16C402.2 226.872 402.466 226.573 402.721 226.274L403.497 225.354C403.752 225.044 404.018 224.733 404.273 224.412C405.758 222.55 407.786 219.879 411.41 218.738C411.499 218.703 411.592 218.677 411.687 218.66C414.38 218.095 420.364 220.267 426.803 224.102C427.479 224.501 428.155 224.922 428.842 225.365C429.529 225.808 430.205 226.252 430.892 226.728C432.259 227.674 433.607 228.675 434.937 229.731C435.602 230.263 436.256 230.84 436.888 231.361C437.519 231.881 438.162 232.469 438.783 233.056L439.691 233.932C440.29 234.519 440.866 235.117 441.431 235.727C441.753 236.071 442.074 236.425 442.384 236.835C442.695 237.245 442.95 237.467 443.227 237.799L443.315 237.91C467.02 267.012 465.181 325.792 464.327 342.416Z" fill="#066FD1"/>
    <path d="M337.547 279.712C338.172 279.118 338.965 278.731 339.819 278.604C338.965 279.048 338.201 279.413 337.547 279.712Z" fill="black" opacity="0.15"/>
    <path d="M464.327 342.416L387.328 334.658C387.328 333.217 387.261 331.832 387.228 330.524C387.228 330.037 387.228 329.56 387.228 329.095C387.228 328.574 387.228 328.064 387.228 327.566V327.322C387.234 327.274 387.234 327.225 387.228 327.178C387.228 326.624 387.228 326.069 387.228 325.571C387.228 325.072 387.228 324.64 387.228 324.196C387.223 324.126 387.223 324.056 387.228 323.986C387.228 323.443 387.228 322.933 387.228 322.446C387.228 321.958 387.228 321.592 387.228 321.204C387.228 320.816 387.228 320.595 387.228 320.318C387.228 320.041 387.228 319.874 387.228 319.675C387.228 319.475 387.228 319.154 387.228 318.91C387.228 318.378 387.173 317.946 387.162 317.603C387.162 317.447 387.162 317.303 387.162 317.193C387.162 317.082 387.162 316.882 387.162 316.805C387.162 316.727 387.095 316.317 387.062 316.073C387.029 315.829 387.062 315.597 386.973 315.397C386.884 315.198 386.973 315.297 386.973 315.253C386.973 315.209 386.973 315.076 386.973 315.009C386.973 314.943 386.973 314.81 386.973 314.766C386.971 314.747 386.971 314.728 386.973 314.71C386.862 314.001 386.752 313.292 386.619 312.571C386.552 312.206 386.497 311.84 386.419 311.463C385.767 308.026 384.893 304.636 383.804 301.312C383.615 300.735 383.416 300.148 383.205 299.561C382.751 298.253 382.23 296.934 381.676 295.604C381.499 295.15 381.299 294.707 381.111 294.263C380.989 294.009 380.878 293.743 380.756 293.488C380.634 293.233 380.479 292.856 380.324 292.546V292.479C373.878 293.134 367.367 292.68 361.074 291.138C359.373 290.698 357.7 290.154 356.065 289.509C352.226 288.002 348.655 285.884 345.492 283.237C344.872 282.727 343.387 278.649 340.782 278.527H340.395C341.059 278.161 341.769 277.729 342.511 277.23C343.456 276.589 344.363 275.893 345.226 275.147C346.067 274.412 346.863 273.628 347.609 272.797C348.784 271.501 350.823 269.472 353.339 267.09L353.981 266.491C356.564 264.064 359.6 261.338 362.736 258.667L364.088 257.559C365.3 256.732 366.497 255.889 367.679 255.032L367.612 254.689L368.289 254.157C375.237 248.738 378.905 246.876 387.793 239.805L389.821 238.165L391.074 237.146H391.129L391.672 236.724C391.993 236.481 392.304 236.237 392.625 235.971L393.068 235.627L393.301 235.439L393.534 235.251C393.755 235.073 393.966 234.907 394.143 234.741C394.564 234.397 394.963 234.054 395.329 233.732L396.016 233.123L396.338 232.835L396.903 232.325L397.568 231.704L397.8 231.483L397.967 231.316C398.233 231.073 398.488 230.818 398.754 230.552C399.02 230.286 399.274 230.031 399.54 229.754C399.806 229.477 400.072 229.222 400.327 228.945L401.092 228.125L401.89 227.238C402.156 226.95 402.422 226.651 402.677 226.352L403.452 225.432C403.707 225.121 403.973 224.811 404.228 224.49C405.713 222.628 407.741 219.957 411.365 218.816C411.455 218.781 411.548 218.755 411.642 218.738C414.335 218.173 420.32 220.345 426.758 224.179C427.434 224.578 428.11 224.999 428.797 225.443C429.485 225.886 430.161 226.329 430.848 226.806C432.211 227.748 433.563 228.756 434.893 229.809C435.558 230.341 436.211 230.917 436.843 231.438C437.475 231.959 438.118 232.546 438.738 233.134L439.647 234.009C440.245 234.597 440.822 235.195 441.387 235.805C441.708 236.148 442.03 236.503 442.34 236.913C442.65 237.323 442.916 237.567 443.193 237.91C443.216 237.939 443.242 237.965 443.271 237.988C467.02 267.012 465.18 325.792 464.327 342.416Z" fill="black" opacity="0.15"/>
    <path d="M305.851 374.033C307.062 373.484 308.183 372.756 309.176 371.872C314.041 367.439 315.57 360.657 312.501 356.734C309.786 353.298 304.388 353.121 299.745 356.213L297.972 357.487C293.45 361.599 291.91 367.461 293.96 371.517C294.193 371.85 294.403 372.304 294.636 372.626C297.141 375.884 301.651 376.194 305.851 374.033Z" fill="#FFCB9D"/>
    <path d="M305.851 374.033C307.062 373.484 308.183 372.756 309.176 371.872C314.041 367.439 315.57 360.657 312.5 356.734C309.785 353.298 304.388 353.121 299.745 356.213C299.867 356.379 299.955 356.678 300.188 357C301.518 360.214 302.482 365.644 300.266 368.703C298.769 370.919 296.132 371.307 294.093 371.54C294.326 371.872 294.536 372.326 294.769 372.648C297.14 375.884 301.651 376.194 305.851 374.033Z" fill="black" opacity="0.1"/>
    <path d="M358.171 291.98L321.245 372.304C318.026 368.58 314.13 365.501 309.764 363.228C296 356.124 282.213 359.726 278.379 360.879L339.331 274.925L358.171 291.98Z" fill="#066FD1"/>
    <path d="M358.171 291.98L321.245 372.304C318.026 368.58 314.13 365.501 309.764 363.228C296 356.124 282.213 359.726 278.379 360.879L339.331 274.925L358.171 291.98Z" fill="black" opacity="0.15"/>
    <path d="M569.298 79.512L555.656 62.5673L520.736 90.6385L488.065 50L459.728 72.8294L492.399 113.457L457.479 141.528L471.099 158.495L506.008 130.402L538.689 171.029L567.048 148.211L534.378 107.583L569.298 79.512Z" fill="#066FD1"/>
    <path d="M463.13 366.054C461.388 368.606 459.321 370.92 456.979 372.936C452.826 376.809 448.197 380.138 443.204 382.844C428.542 391.033 405.89 398.813 403.408 399.655L374.849 475.912L366.404 475.746C367.313 447.287 368.226 418.842 369.142 390.413L391.384 366.874L358.525 365.954L335.252 440.083L327.251 437.8C325.589 406.209 323.922 374.61 322.253 343.003L321.654 331.588L387.328 334.736L405.148 336.531L418.602 337.883C433.851 339.405 449.093 340.934 464.327 342.471C465.823 347.159 468.339 357.676 463.13 366.054Z" fill="#DDDDDD"/>
    <path d="M306.428 462.935L335.541 459.699C335.541 459.699 336.56 452.207 331.972 449.481C327.384 446.755 311.193 455.787 306.428 462.935Z" fill="#232B41"/>
    <path d="M353.105 504.926L379.237 491.693C379.237 491.693 377.575 484.324 372.311 483.382C367.047 482.44 354.901 496.614 353.105 504.926Z" fill="#232B41"/>
    <path d="M397.324 230.906L397.058 231.627L384.646 265.073C384.646 265.073 363.645 261.127 366.216 259.232C367.325 258.379 367.436 256.661 367.147 255.021L367.081 254.678C366.83 253.465 366.459 252.281 365.973 251.142L385.633 231.859C391.362 233.887 397.324 230.906 397.324 230.906Z" fill="#066FD1"/>
    <path d="M397.324 230.906L397.058 231.627L384.646 265.073C384.646 265.073 363.645 261.127 366.216 259.232C367.325 258.379 367.436 256.661 367.147 255.021L367.081 254.678C366.83 253.465 366.459 252.281 365.973 251.142L385.633 231.859C391.362 233.887 397.324 230.906 397.324 230.906Z" fill="black" opacity="0.15"/>
    <path d="M418.602 337.828L391.384 366.874L358.525 365.954L335.252 440.083L327.251 437.8C325.589 406.209 323.922 374.61 322.253 343.003L321.654 331.588L387.328 334.736L405.148 336.531L418.602 337.883V337.828Z" fill="black" opacity="0.1"/>
    <path d="M364.177 174.83C366.393 178.532 369.718 184.073 373.442 190.755L375.248 194.202C379.175 201.888 382.152 210.023 384.114 218.428C384.509 220.03 384.809 221.655 385.011 223.293C385.798 229.222 372.555 245.923 356.94 254.256C341.325 262.59 326.542 251.708 328.813 241.434C329.35 237.52 329.181 233.542 328.315 229.687C327.357 224.415 325.983 219.227 324.203 214.172C323.206 211.257 322.641 209.462 322.641 209.462L327.506 191.985L355.023 173.522C357.86 178.487 361.318 180.693 362.902 179.983C364.487 179.274 364.121 175.362 364.177 174.83Z" fill="#FFCB9D"/>
    <path d="M364.177 174.83C366.393 178.532 369.718 184.073 373.442 190.755L375.248 194.202C379.175 201.888 382.152 210.023 384.114 218.428C381.956 219.052 379.699 219.255 377.464 219.026C375.034 218.794 372.676 218.066 370.538 216.887C368.317 215.526 366.301 213.854 364.554 211.922C363.359 210.73 362.248 209.456 361.229 208.11C353.04 218.688 341.573 226.249 328.625 229.61C327.657 224.406 326.35 219.272 324.713 214.239C323.727 211.324 323.15 209.529 323.15 209.529L328.027 192.052L355.544 173.589C358.381 178.554 361.827 180.759 363.423 180.061C365.019 179.363 364.121 175.362 364.177 174.83Z" fill="black" opacity="0.1"/>
    <path d="M295.556 214.216C297.202 215.294 299.048 216.03 300.983 216.382C302.919 216.734 304.906 216.695 306.826 216.267C311.368 219.776 316.84 221.876 322.563 222.306C337.657 223.226 353.294 210.803 360.952 191.077L361.162 191.188L361.229 191.309C362.248 192.794 363.246 194.268 364.055 195.62C364.374 196.056 364.652 196.52 364.886 197.006L365.152 197.471C366.654 200.986 368.398 204.393 370.372 207.667C371.897 209.504 373.958 210.817 376.267 211.424C374.733 208.116 374.105 204.459 374.45 200.829C374.648 199.57 374.959 198.331 375.381 197.128C376.671 190.354 375.31 183.344 371.58 177.545C371.093 176.747 370.521 176.003 369.873 175.329L369.995 175.129C371.645 172.544 372.202 169.409 371.544 166.412C370.885 163.416 369.065 160.804 366.482 159.149C364.457 157.905 362.103 157.303 359.73 157.422C357.356 157.541 355.074 158.375 353.183 159.814C352.156 157.329 350.467 155.174 348.3 153.583C346.133 151.991 343.572 151.024 340.894 150.786C338.216 150.549 335.524 151.05 333.111 152.235C330.698 153.42 328.655 155.244 327.206 157.509C325.687 159.781 324.877 162.455 324.879 165.189C321.881 163.716 318.469 163.315 315.211 164.051C311.952 164.788 309.045 166.619 306.972 169.238C304.899 171.858 303.786 175.108 303.818 178.449C303.85 181.789 305.025 185.017 307.148 187.597C304.145 186.845 300.983 187.051 298.104 188.186C295.225 189.321 292.772 191.327 291.089 193.925C290.041 195.547 289.324 197.362 288.981 199.263C288.637 201.165 288.674 203.115 289.09 205.002C289.505 206.889 290.29 208.675 291.4 210.257C292.51 211.838 293.922 213.184 295.556 214.216Z" fill="#232B41"/>
    <path d="M306.826 216.267C311.368 219.776 316.839 221.876 322.563 222.307C337.657 223.226 353.294 210.803 360.952 191.077L361.162 191.188L361.229 191.31C362.009 188.672 362.624 185.989 363.068 183.275L362.947 183.474C360.73 187.453 348.063 212.576 322.408 216.488C317.238 217.285 311.971 217.21 306.826 216.267Z" fill="black" opacity="0.5"/>
    <path d="M332.072 225.52C332.5 227.285 332.661 229.105 332.548 230.917C331.817 239.883 325.844 247.186 319.072 247.186C313.11 247.186 308.433 241.49 307.879 233.887L307.769 230.917C308.4 222.639 313.443 216.078 319.494 214.904C320.037 214.904 320.702 214.726 321.245 214.704C326.797 214.615 330.886 219.203 332.072 225.52Z" fill="#FFCB9D"/>
    <path d="M332.071 225.52C332.5 227.285 332.66 229.105 332.548 230.917C331.817 239.883 325.843 247.186 319.072 247.186C313.11 247.186 308.433 241.49 307.879 233.887C308.145 233.887 308.544 233.732 309.087 233.71C313.642 232.458 320.291 228.956 321.732 224.035C322.84 220.611 321.078 217.386 319.626 215.037C320.169 215.037 320.845 214.859 321.388 214.837C326.796 214.615 330.886 219.203 332.071 225.52Z" fill="black" opacity="0.1"/>
    <path d="M338.843 236.326L292.364 234.264C294.049 246.964 301.529 296.868 328.093 323.698C333.335 328.973 341.281 336.531 352.884 338.005C362.736 339.257 370.494 335.556 383.05 329.383C390.843 325.75 398.303 321.445 405.348 316.517C409.248 313.656 412.999 310.597 416.585 307.352C428.088 296.69 454.597 262.679 442.872 238.165C438.849 229.754 428.953 219.602 416.984 218.483C414.202 218.228 412.728 218.084 410.855 218.749C398.975 222.927 405.602 246.931 392.337 268.874C387.206 277.352 375.559 291.216 364.565 289.93C351.765 288.523 340.683 266.824 338.843 236.326Z" fill="#066FD1"/>
</svg>
