<svg xmlns="http://www.w3.org/2000/svg" width="800" height="600" fill="none" viewBox="0 0 800 600">
    <path d="M141.958 328.31C141.958 370.016 186.065 400.274 205.559 433.951C225.649 468.697 230.488 521.798 265.164 541.905C298.858 561.382 346.805 539.591 388.51 539.591C430.216 539.591 478.163 561.382 511.839 541.905C546.585 521.798 551.424 468.697 571.444 433.951C590.921 400.274 635.028 370.016 635.028 328.31C635.028 286.605 590.921 256.329 571.444 222.652C551.336 187.906 546.498 134.806 511.839 114.698C478.163 95.2211 430.216 117.012 388.51 117.012C346.805 117.012 298.858 95.2211 265.164 114.698C230.418 134.806 225.579 187.906 205.559 222.652C186.065 256.329 141.958 286.587 141.958 328.31Z" fill="#066FD1" opacity="0.02"/>
    <path d="M399.765 508.474C560.902 508.474 691.53 503.867 691.53 498.184C691.53 492.5 560.902 487.893 399.765 487.893C238.628 487.893 108 492.5 108 498.184C108 503.867 238.628 508.474 399.765 508.474Z" fill="#D6D8E2" opacity="0.5"/>
    <path d="M372.698 397.575C372.698 397.575 403.552 325.365 415.683 320.965C427.814 316.565 519.956 484.65 519.956 484.65H500.059L420.381 418.471L366.684 464.244L340.792 415.158L372.698 397.575Z" fill="#066FD1"/>
    <path d="M372.698 397.575C372.698 397.575 403.552 325.365 415.683 320.965C427.814 316.565 519.956 484.65 519.956 484.65H500.059L420.381 418.471L366.684 464.244L340.792 415.158L372.698 397.575Z" fill="black" opacity="0.15"/>
    <path d="M652.208 449.22L643.53 496.711C643.53 496.711 631.013 497.57 627.174 489.699C623.335 481.827 640.024 456.232 652.208 449.22Z" fill="#232B41"/>
    <path d="M390.824 414.211C397.854 420.023 405.354 425.241 413.246 429.814C437.298 443.751 458.826 448.098 472.71 450.763C524.794 460.808 572.408 468.82 614.534 475.306V492.714C614.534 492.714 390.333 497.675 364.02 494.011C337.706 490.347 315.775 455.268 315.775 455.268L390.824 414.211Z" fill="#066FD1"/>
    <path d="M453.339 319.107L453.146 318.703C452.212 316.934 450.842 315.432 449.167 314.338L448.062 313.76C438.49 306.923 417.331 298.245 389.387 292.144C350.556 282.52 330.466 277.927 308.973 284.922C281.362 293.915 265.672 314.917 236.939 310.482C232.16 309.727 227.495 308.372 223.055 306.449C218.309 307.11 213.86 309.146 210.257 312.305C207.119 314.952 204.84 324.839 203.245 338.741C202.281 346.665 201.492 355.886 200.948 365.844C198.477 408.181 198.932 463.578 199.283 487.157C197.302 487.016 195.233 486.946 193.112 486.946C177.895 486.946 165.554 490.453 165.554 494.853C165.554 499.253 177.825 502.742 193.112 502.742C208.399 502.742 220.688 499.235 220.688 494.853C220.673 494.373 220.527 493.906 220.267 493.503C223.551 466.435 226.818 439.356 230.067 412.265C232.65 391.111 235.209 369.946 237.745 348.769L237.833 348.874L295.492 417.244C317.756 407.801 340.014 398.375 362.267 388.967C348.125 364.108 333.989 339.25 319.86 314.391C329.421 313.002 339.114 312.76 348.733 313.672C355.745 314.338 364.335 315.793 382.041 322.052C393.299 326.869 404.81 331.071 416.524 334.639C414.438 337.356 412.352 340.126 410.283 343.001C406.69 347.945 403.359 352.818 400.238 357.604C399.379 359.094 393.927 368.806 397.959 377.221C402.956 387.599 419.224 389.177 429.374 384.9C436.913 381.709 440.787 371.857 448.658 352.398C454.759 337.181 456.968 326.435 453.339 319.107Z" fill="#FFCB9D"/>
    <path d="M416.524 334.639C417.418 332.798 418.277 330.94 419.242 329.099L381.796 321.964C387.055 324.243 392.718 326.505 398.678 328.678C404.639 330.852 410.809 332.921 416.524 334.639Z" fill="black" opacity="0.1"/>
    <path d="M455.092 229.349C497.034 229.349 531.035 195.348 531.035 153.406C531.035 111.463 497.034 77.4624 455.092 77.4624C413.149 77.4624 379.148 111.463 379.148 153.406C379.148 195.348 413.149 229.349 455.092 229.349Z" fill="#066FD1"/>
    <path d="M512.155 166.291C511.861 165.599 511.305 165.051 510.608 164.769C509.912 164.486 509.131 164.491 508.438 164.783L493.537 171.164C493.835 170.516 494.116 169.85 494.396 169.183C497.859 160.545 498.442 151.019 496.058 142.023C493.674 133.027 488.451 125.04 481.164 119.25C473.878 113.46 464.917 110.176 455.615 109.887C446.312 109.597 437.165 112.317 429.532 117.643C429.226 117.856 428.965 118.127 428.763 118.441C428.562 118.755 428.425 119.105 428.359 119.472C428.293 119.84 428.3 120.216 428.379 120.58C428.459 120.945 428.609 121.29 428.822 121.596C429.035 121.902 429.306 122.164 429.62 122.365C429.934 122.566 430.285 122.704 430.652 122.77C431.019 122.836 431.395 122.829 431.76 122.749C432.124 122.67 432.469 122.519 432.775 122.306C439.403 117.676 447.348 115.309 455.428 115.558C463.509 115.807 471.293 118.658 477.623 123.687C483.952 128.717 488.489 135.655 490.557 143.471C492.625 151.286 492.115 159.56 489.102 167.062C488.592 168.38 488.007 169.668 487.349 170.919L479.933 153.599C479.786 153.253 479.572 152.94 479.304 152.678C479.036 152.415 478.718 152.208 478.37 152.068C478.021 151.928 477.649 151.858 477.273 151.862C476.898 151.866 476.527 151.944 476.182 152.091C475.836 152.238 475.523 152.452 475.261 152.72C474.998 152.989 474.791 153.306 474.651 153.654C474.511 154.003 474.441 154.375 474.445 154.751C474.449 155.126 474.527 155.497 474.674 155.842L482.668 174.53C483.08 175.501 483.717 176.36 484.526 177.037C484.666 177.662 485.016 178.219 485.516 178.618C486.017 179.017 486.639 179.232 487.279 179.229C487.864 179.215 488.432 179.025 488.909 178.685C489.83 178.682 490.742 178.497 491.591 178.142L510.595 170.007C510.942 169.867 511.258 169.659 511.525 169.396C511.791 169.133 512.003 168.819 512.148 168.474C512.293 168.128 512.369 167.758 512.37 167.383C512.371 167.008 512.298 166.637 512.155 166.291ZM474.201 184.909C467.571 189.062 459.809 191.038 452 190.562C444.191 190.086 436.727 187.18 430.651 182.252C424.575 177.324 420.192 170.619 418.115 163.077C416.038 155.535 416.37 147.531 419.066 140.187L426.272 157.017C426.482 157.537 426.843 157.982 427.309 158.294C427.774 158.607 428.323 158.772 428.884 158.77C429.264 158.772 429.64 158.695 429.988 158.542C430.332 158.399 430.645 158.188 430.907 157.923C431.169 157.658 431.377 157.344 431.517 156.998C431.657 156.653 431.727 156.283 431.724 155.91C431.72 155.537 431.643 155.168 431.496 154.826L423.361 135.822C423.013 134.992 422.504 134.24 421.863 133.608C421.222 132.977 420.462 132.478 419.628 132.142C418.793 131.807 417.9 131.64 417 131.651C416.1 131.663 415.211 131.853 414.386 132.211L395.68 140.187C395.335 140.335 395.022 140.549 394.759 140.817C394.497 141.085 394.29 141.403 394.15 141.751C394.01 142.099 393.94 142.472 393.944 142.847C393.947 143.223 394.025 143.594 394.173 143.939C394.32 144.284 394.534 144.597 394.802 144.86C395.071 145.123 395.388 145.33 395.736 145.47C396.085 145.61 396.457 145.68 396.833 145.676C397.208 145.672 397.579 145.594 397.924 145.447L413.527 138.785C410.555 147.236 410.282 156.401 412.746 165.014C415.21 173.627 420.288 181.261 427.279 186.863C434.27 192.464 442.828 195.755 451.771 196.281C460.714 196.807 469.599 194.542 477.198 189.8C477.528 189.609 477.816 189.354 478.045 189.05C478.274 188.746 478.44 188.399 478.533 188.03C478.625 187.661 478.642 187.277 478.583 186.901C478.524 186.525 478.39 186.164 478.189 185.841C477.988 185.518 477.724 185.238 477.413 185.019C477.102 184.8 476.75 184.645 476.378 184.565C476.006 184.484 475.621 184.479 475.247 184.551C474.873 184.622 474.517 184.767 474.201 184.979V184.909Z" fill="white"/>
    <path d="M194.953 221.951C196.565 226.807 199.02 233.907 202.28 242.55C203.034 244.443 203.665 246.056 203.893 246.669C207.794 256.03 212.853 264.864 218.952 272.966C220.197 274.561 221.424 276.051 222.721 277.471C227.542 282.73 252.524 283.537 271.808 275.718C291.091 267.899 292.687 246.389 281.695 240.656C277.712 238.169 274.213 234.979 271.369 231.242C267.401 226.397 263.78 221.277 260.535 215.92C259.477 214.254 258.466 212.559 257.502 210.836L237.956 201.808L200.44 212.362C202.701 218.55 202.298 223.406 200.44 224.37C198.582 225.334 195.636 222.547 194.953 221.951Z" fill="#FFCB9D"/>
    <path d="M194.953 221.951C196.565 226.807 199.02 233.907 202.28 242.55C203.034 244.443 203.665 246.056 203.893 246.67C207.794 256.03 212.853 264.865 218.952 272.966C221.166 271.498 223.081 269.624 224.597 267.443C226.21 265.011 227.341 262.291 227.928 259.432C228.469 256.392 228.528 253.286 228.103 250.228C227.937 248.232 227.65 246.247 227.244 244.285C243.025 244.955 258.574 240.313 271.404 231.102C267.446 226.253 263.832 221.133 260.588 215.78C259.53 214.114 258.519 212.419 257.555 210.696L238.008 201.668L200.44 212.362C202.684 218.55 202.298 223.406 200.44 224.37C198.582 225.335 195.636 222.547 194.953 221.951Z" fill="black" opacity="0.1"/>
    <path d="M278.908 200.09C277.882 206.708 275.371 213.007 271.562 218.515C261.728 232.294 242.076 238.535 221.687 233.995C218.231 233.216 214.842 232.161 211.555 230.839H211.449C211.432 230.896 211.432 230.957 211.449 231.014C211.924 233.093 212.557 235.133 213.343 237.115C213.728 238.027 213.816 238.307 214.044 238.868C214.184 239.149 214.342 239.412 214.359 239.447C214.798 240.516 218.953 247.704 219.987 251.981C220.599 254.827 220.311 257.792 219.163 260.466C217.164 256.616 214.236 253.326 210.643 250.894C209.278 250.088 207.861 249.373 206.401 248.756C199.193 244.698 193.719 238.145 191.009 230.331C189.91 227.123 189.319 223.763 189.255 220.373C189.255 218.164 189.028 210.083 192.551 204.596C199.827 193.323 224.405 191.079 237.009 191.693C239.236 191.816 243.11 192.096 245.775 190.448V190.361C246.296 190.045 246.754 189.635 247.125 189.151C249.561 186.03 248.282 180.736 246.458 177.668C242.952 171.743 234.537 169.043 225.071 170.656C243.513 160.33 264.673 164.801 274.157 177.984C278.606 184.432 280.315 192.383 278.908 200.09Z" fill="#232B41"/>
    <path d="M278.908 200.09C277.882 206.708 275.371 213.007 271.562 218.515C261.728 232.294 242.076 238.535 221.687 233.995C216.603 232.382 212.238 231.032 211.554 230.839H211.449L204.034 227.333C214.947 229.263 226.119 229.198 237.009 227.14C246.651 225.387 260.027 222.775 270.721 211.713C274.015 208.269 276.775 204.352 278.908 200.09Z" fill="black" opacity="0.5"/>
    <path d="M354.956 181.718C354.234 181.717 353.532 181.473 352.966 181.025C352.4 180.576 352.001 179.949 351.836 179.246C348.473 165.324 347.958 150.867 350.321 136.741C352.685 122.616 357.879 109.113 365.59 97.0448C373.302 84.9762 383.373 74.5904 395.198 66.5107C407.023 58.431 420.36 52.8242 434.406 50.0266C435.216 49.9219 436.036 50.1285 436.7 50.6049C437.364 51.0813 437.822 51.7918 437.982 52.5931C438.143 53.3943 437.993 54.2265 437.563 54.9216C437.134 55.6167 436.456 56.1228 435.668 56.3377C422.477 58.9728 409.954 64.244 398.849 71.8355C387.744 79.4269 378.287 89.1823 371.043 100.517C363.799 111.851 358.919 124.532 356.694 137.798C354.469 151.064 354.945 164.643 358.094 177.721C358.295 178.551 358.159 179.426 357.715 180.156C357.271 180.885 356.557 181.409 355.727 181.613C355.476 181.681 355.217 181.716 354.956 181.718ZM553.054 125.689C552.373 125.69 551.71 125.474 551.158 125.074C550.607 124.675 550.197 124.11 549.986 123.463C548.677 119.441 547.114 115.506 545.305 111.682C543.013 106.801 540.334 102.111 537.294 97.6578C536.987 97.3174 536.757 96.9156 536.618 96.4792C536.479 96.0429 536.434 95.5819 536.487 95.1269C536.54 94.672 536.689 94.2336 536.925 93.8408C537.16 93.448 537.477 93.1099 537.853 92.849C538.23 92.588 538.657 92.4102 539.108 92.3273C539.558 92.2445 540.021 92.2585 540.466 92.3685C540.91 92.4785 541.326 92.6818 541.686 92.9651C542.046 93.2484 542.342 93.605 542.553 94.0114C545.784 98.7415 548.639 103.718 551.09 108.895C553.003 112.966 554.66 117.152 556.052 121.43C556.185 121.831 556.237 122.255 556.206 122.677C556.174 123.099 556.058 123.511 555.865 123.888C555.673 124.264 555.407 124.599 555.084 124.872C554.761 125.146 554.387 125.352 553.983 125.479C553.688 125.602 553.373 125.674 553.054 125.689ZM459.282 260.378C458.467 260.336 457.699 259.986 457.132 259.4C456.564 258.814 456.24 258.034 456.225 257.219C456.209 256.403 456.503 255.612 457.048 255.004C457.592 254.397 458.347 254.018 459.159 253.945C473.506 253.342 487.554 249.657 500.35 243.141C513.145 236.625 524.388 227.431 533.314 216.183C533.842 215.514 534.614 215.081 535.461 214.981C536.307 214.881 537.159 215.121 537.828 215.649C538.498 216.176 538.93 216.948 539.031 217.795C539.131 218.642 538.891 219.493 538.363 220.163C528.871 232.136 516.912 241.925 503.3 248.864C489.687 255.804 474.74 259.731 459.475 260.378H459.282Z" fill="#066FD1"/>
    <path d="M237.71 348.734L238.359 339.828L203.122 338.671C202.158 346.595 201.369 355.816 200.843 365.774C207.522 366.843 216.621 368.771 221.547 373.645C225.842 377.957 228.559 396.628 229.944 412.125L237.71 348.734ZM357.095 284.729L358.235 315.057L362.652 316.039V285.746L357.095 284.729Z" fill="black" opacity="0.1"/>
    <path d="M414.228 394.471C410.744 396.786 407.659 399.651 405.094 402.956C399.695 409.969 398.678 416.893 397.661 420.066C392.911 434.705 377.221 441.103 354.746 454.164C342.778 461.052 329.788 465.988 316.266 468.784C286.075 438.685 260.755 404.068 241.217 366.177L188.221 357.201L192.972 339.284C192.972 339.284 197.793 320.211 204.332 308.956C205.565 306.645 207.156 304.545 209.048 302.733C216.919 295.826 224.089 304.486 237.272 305.555C238.828 305.709 240.393 305.738 241.953 305.643C243.614 305.513 245.252 305.171 246.827 304.626C247.265 304.486 247.703 304.346 248.159 304.17C258.8 300.191 273.228 288.989 284.5 280.293C292.915 273.754 297.28 270.686 300.436 269.161C305.182 266.895 310.292 265.489 315.53 265.007L316.862 264.884C325.803 264.218 337.18 265.638 351.678 271.02C353.326 271.616 355.027 272.282 356.745 272.983C357.364 289.859 357.948 306.736 358.498 323.612C349.347 320.421 340.201 317.231 331.062 314.04C340.385 328.06 351.181 341.043 363.266 352.766C366.018 355.43 392.577 381.972 399.134 386.249C403.946 389.375 408.993 392.123 414.228 394.471Z" fill="#DADBE0"/>
    <path d="M269.125 304.17C253.663 311.288 239.323 313.234 237.202 308.536C236.816 307.58 236.816 306.511 237.202 305.555C238.763 305.709 240.334 305.738 241.9 305.643C252.418 305.065 270.808 290.83 284.43 280.294C289.04 279.978 292.231 280.767 293.195 282.8C295.386 287.516 284.605 297.088 269.125 304.17Z" fill="#FFCB9D"/>
    <path d="M269.125 304.17C253.663 311.288 239.323 313.234 237.202 308.536C236.816 307.58 236.816 306.511 237.202 305.555C238.763 305.709 240.334 305.738 241.9 305.643C252.418 305.065 270.808 290.83 284.43 280.294C289.04 279.978 292.231 280.767 293.195 282.8C295.386 287.516 284.605 297.088 269.125 304.17ZM414.227 394.472C410.743 396.786 407.658 399.652 405.094 402.956C399.694 409.969 398.678 416.893 397.661 420.066C392.91 434.705 377.22 441.103 354.746 454.164C342.778 461.052 329.788 465.988 316.265 468.784C286.074 438.685 260.754 404.068 241.216 366.177C241.216 366.177 319.456 431.97 414.227 394.472Z" fill="black" opacity="0.1"/>
</svg>
