<svg xmlns="http://www.w3.org/2000/svg" width="800" height="600" fill="none" viewBox="0 0 800 600">
    <path d="M677.439 299.963C677.439 346.986 627.773 381.137 605.823 419.08C583.191 458.252 577.735 518.136 538.643 540.841C500.71 562.874 446.711 538.232 399.743 538.232C352.775 538.232 298.764 562.816 260.842 540.841C221.704 518.182 216.26 458.299 193.662 419.08C171.644 381.102 122 346.986 122 299.963C122 252.94 171.678 218.789 193.616 180.845C216.26 141.662 221.704 81.7899 260.796 59.0843C298.73 37.2021 352.728 61.7283 399.708 61.7283C446.688 61.7283 500.675 37.2021 538.608 59.1191C577.735 81.7899 583.19 141.662 605.788 180.88C627.773 218.812 677.439 252.893 677.439 299.963Z" fill="#066FD1" opacity="0.02"/>
    <path d="M377.963 538.494C479.845 538.494 562.436 534.182 562.436 528.864C562.436 523.545 479.845 519.233 377.963 519.233C276.081 519.233 193.489 523.545 193.489 528.864C193.489 534.182 276.081 538.494 377.963 538.494Z" fill="#D6D8E2" opacity="0.5"/>
    <path d="M325.685 163.679C326.727 175.258 327.686 186.795 328.686 198.364C330.639 220.682 332.577 243.006 334.502 265.337C336.023 282.659 337.531 299.984 339.025 317.313H427.499C429.223 299.984 430.96 282.659 432.711 265.337C433.701 255.509 434.67 245.712 435.65 235.884C438.068 211.83 440.472 187.761 442.862 163.679H325.685Z" fill="#DADBE0"/>
    <path d="M415.577 216.885C398.276 235.905 395.868 246.067 387.655 249.642C378.109 253.748 361.402 248.599 330.052 205.139C331.546 225.205 333.029 245.271 334.502 265.338C336.024 282.659 337.531 299.985 339.025 317.313H427.5C429.223 299.985 430.96 282.659 432.711 265.338H433.086L439.767 194.571C431.059 201.278 422.964 208.746 415.577 216.885Z" fill="black" opacity="0.1"/>
    <path d="M299.859 255.572C302.022 261.519 304.925 267.171 308.499 272.393C309.541 273.946 310.719 275.416 311.875 276.771C317.071 283.005 323.672 287.916 331.136 291.101C334.942 292.715 338.917 293.9 342.986 294.634C348.664 295.685 354.45 296.035 360.214 295.677C360.693 295.677 361.152 295.677 361.621 295.583C361.801 295.594 361.982 295.594 362.163 295.583L363.205 295.489H364.06C368.461 295.025 372.827 294.27 377.129 293.227H377.192C381.002 292.314 384.756 291.183 388.437 289.84C390.084 289.263 391.675 288.638 393.211 287.964C395.351 287.04 397.362 286.071 399.245 285.056C402.668 283.231 405.969 281.184 409.125 278.928C410.543 277.886 411.845 276.927 412.992 276.01C405.509 272.64 398.012 269.274 390.501 265.911C386.123 263.941 381.756 261.961 377.379 260.012C375.581 261.429 373.618 262.622 371.532 263.566C369.947 264.265 368.275 264.749 366.561 265.004C365.446 265.193 364.313 265.256 363.184 265.192C359.828 265.004 356.67 263.347 353.731 260.7C353.581 260.576 353.438 260.444 353.304 260.304C351.956 259.01 350.709 257.617 349.573 256.135C337.504 240.751 330.146 211.006 330.146 211.006C339.599 200.834 342.652 187.202 337.775 176.509C335.18 171.076 330.914 166.616 325.601 163.783C321.087 164.645 316.796 166.419 312.991 168.994C310.989 170.357 309.146 171.941 307.498 173.716C291.813 190.454 289.395 227.38 299.859 255.572Z" fill="#DADBE0"/>
    <path d="M325.685 163.679C318.749 164.963 312.405 168.432 307.582 173.58C291.813 190.454 289.395 227.38 299.859 255.572C302.022 261.519 304.925 267.171 308.499 272.393C309.541 273.946 310.719 275.416 311.876 276.771C317.071 283.005 323.672 287.916 331.136 291.101C333.026 291.907 334.961 292.603 336.931 293.186L339.015 317.313H427.49C429.213 299.984 430.95 282.659 432.701 265.337C433.691 255.509 434.66 245.712 435.64 235.884C438.058 211.83 440.462 187.761 442.852 163.679H325.685Z" fill="black" opacity="0.05"/>
    <path d="M423.904 77.3828C423.716 82.1666 423.33 89.1808 422.622 97.7999C422.434 99.6968 422.288 101.354 422.247 101.969C421.154 111.396 418.878 120.647 415.472 129.504C414.763 131.255 414.044 132.912 413.242 134.528C410.251 140.489 387.937 147.691 368.551 145.565C349.166 143.439 342.214 124.575 350.594 116.518C353.158 114.007 355.523 109.879 357.472 105.377C359.79 99.9945 361.72 94.4531 363.246 88.7951C364.195 85.5747 364.674 83.4381 364.674 83.4381L379.932 70.2644H416.514C416.087 76.4239 417.692 80.6866 419.641 81.0723C421.59 81.4579 423.476 78.0915 423.904 77.3828Z" fill="#FFCB9D"/>
    <path d="M423.904 77.3827C423.716 82.1666 423.341 89.1807 422.622 97.7999C422.434 99.6968 422.288 101.354 422.247 101.969C421.154 111.395 418.878 120.647 415.472 129.504C413.105 128.75 410.902 127.555 408.979 125.982C406.89 124.221 405.166 122.068 403.904 119.645C402.621 117.024 401.759 114.217 401.35 111.328C400.986 109.486 400.732 107.624 400.589 105.752C386.566 110.437 371.375 110.279 357.452 105.304C359.765 99.9197 361.694 94.3786 363.226 88.7221C364.174 85.5017 364.653 83.3651 364.653 83.3651L379.912 70.1914H416.494C416.066 76.3509 417.671 80.6136 419.62 80.9993C421.569 81.3849 423.477 78.0915 423.904 77.3827Z" fill="black" opacity="0.1"/>
    <path d="M428.448 85.1995C428.239 93.1621 424.79 100.833 419.954 105.523C418.84 106.443 417.795 107.442 416.827 108.514C414.339 111.624 412.66 115.301 411.939 119.218C410.235 117.174 409.185 114.664 408.927 112.016C408.666 107.993 410.407 100.551 410.501 99.5092C410.501 99.5092 410.501 99.2278 410.584 98.8943C410.584 98.3211 410.667 98.0918 410.751 97.1851C410.879 95.2452 410.879 93.2989 410.751 91.359C410.775 91.2668 410.775 91.1699 410.751 91.0776C401.485 96.7161 375.107 110.463 357.347 96.9558C354.574 94.8546 352.117 92.3661 350.052 89.5664C349.846 89.3384 349.674 89.0822 349.541 88.8056C349.044 88.1085 348.592 87.381 348.186 86.6273C348.147 86.5607 348.102 86.4979 348.051 86.4397C347.008 84.4877 346.304 82.3734 345.966 80.1864L345.831 79.3318C345.747 78.3713 345.747 77.4053 345.831 76.4448C346.281 72.6607 348.031 69.1502 350.781 66.5124C355.919 61.3951 363.528 58.3622 367.519 56.7885C383.069 50.5351 406.644 49.0656 420.027 63.0418C423.382 66.7214 425.828 71.1372 427.166 75.9341C428.023 78.9476 428.455 82.0663 428.448 85.1995Z" fill="#232B41"/>
    <path d="M427.5 317.313L419.902 501.443H404.946L384.258 359.19L370.063 501.443H358.984L339.025 317.313H427.5Z" fill="#066FD1"/>
    <path d="M388.197 527.008L421.548 523.298C421.548 523.298 422.757 514.648 417.525 511.604C412.293 508.561 393.659 518.9 388.197 527.008ZM339.025 527.008L372.376 523.298C372.376 523.298 373.585 514.648 368.353 511.604C363.121 508.561 344.486 518.9 339.025 527.008ZM299.858 255.572C302.022 261.519 304.925 267.171 308.498 272.393C314.101 280.664 321.957 287.157 331.136 291.101C332.059 283.107 330.366 275.029 326.31 268.078C319.671 256.478 308.53 251.538 299.858 255.572Z" fill="#232B41"/>
    <path d="M396.222 161.292C387.885 169.547 380.005 172.6 373.971 173.705L372.929 173.882L359.661 163.439L396.222 161.292Z" fill="#E1E1E1"/>
    <path d="M332.574 219.861C336.583 233 339.459 245.275 343.496 258.407C350.364 267.046 358.392 274.695 367.353 281.138C381.631 291.268 405.071 302.607 426.03 301.878C436.9 301.513 447.114 297.896 455.014 289.183C461.549 281.992 464.675 273.446 467.781 261.492C468.542 258.532 469.324 255.374 470.137 251.955C472.377 242.711 479.027 213.893 469.866 188.057C466.541 178.677 462.737 174.205 460.632 172.079C455.893 167.25 449.573 164.29 442.83 163.741C440.494 173.865 439.326 184.223 439.349 194.612C439.293 202.289 438.242 209.926 436.223 217.333C434.359 224.144 431.597 230.677 428.01 236.76C419.604 240.473 410.655 242.806 401.506 243.67C367.999 246.682 343.361 228.918 332.574 219.861Z" fill="#DADBE0"/>
    <path d="M426.03 301.878C436.901 301.513 447.114 297.897 455.015 289.184C461.549 282.003 464.676 273.446 467.782 261.492C460.486 262.69 452.148 266.88 444.321 273.842C434.962 282.159 428.448 292.55 426.03 301.878Z" fill="#232B41"/>
    <path d="M370.063 501.443L384.258 359.19L377.932 317.313H339.025L358.984 501.443H370.063Z" fill="black" opacity="0.22"/>
    <path d="M376.92 171.402L355.336 155.894L350.396 161.126L365.07 183.033L376.92 171.402ZM377.931 171.246L410.636 150.86L418.109 157.728L395.878 186.535L377.931 171.246Z" fill="#066FD1"/>
    <path d="M376.92 171.402L355.336 155.894L350.396 161.126L365.07 183.033L376.92 171.402Z" fill="black" opacity="0.22"/>
    <path d="M410.647 91.0775C401.382 96.7159 375.003 110.463 357.243 96.9557C354.47 94.8544 352.013 92.3659 349.948 89.5663C349.742 89.3382 349.57 89.082 349.437 88.8055C348.94 88.1084 348.488 87.3809 348.082 86.6272C348.043 86.5606 347.998 86.4978 347.947 86.4396C346.905 84.4875 346.2 82.3733 345.862 80.1863C350.008 84.2264 354.789 87.5573 360.016 90.0457C385.915 102.208 413.065 87.0545 417.411 84.6366L417.744 84.449C415.546 86.8309 413.173 89.0465 410.647 91.0775Z" fill="black" opacity="0.3"/>
</svg>
