<svg xmlns="http://www.w3.org/2000/svg" width="800" height="600" fill="none" viewBox="0 0 800 600">
    <path d="M136.302 307.098C136.302 352.829 184.67 385.917 205.996 422.853C228.202 460.998 233.368 519.15 271.513 541.136C308.449 562.462 360.995 538.607 406.725 538.607C452.455 538.607 505.001 562.462 541.937 541.136C579.972 519.15 585.249 460.888 607.344 422.853C628.67 385.917 676.929 352.829 676.929 307.098C676.929 261.368 628.56 228.28 607.234 191.344C585.249 153.309 579.862 95.0468 541.827 73.0612C504.891 51.7351 452.345 75.6995 406.615 75.6995C360.885 75.6995 308.339 51.7351 271.513 73.0612C233.478 95.0468 228.202 153.309 206.106 191.344C184.67 228.17 136.412 261.368 136.302 307.098Z" fill="#066FD1" opacity="0.02"/>
    <path d="M92 493.427C92 495.625 229.85 497.494 399.909 497.494C569.968 497.494 707.708 495.735 707.708 493.427C707.708 491.118 569.858 489.469 399.909 489.469C229.96 489.469 92 491.228 92 493.427Z" fill="#D6D8E2" opacity="0.5"/>
    <path d="M338.57 285.113C333.513 295.776 329.995 302.152 325.378 291.049C323.29 286.102 317.463 266.315 311.637 245.758C308.229 233.556 304.712 221.244 301.963 211.461C298.885 200.468 296.797 192.883 296.797 192.883L311.417 186.067C311.417 186.067 314.605 194.972 318.892 207.393C321.091 213.769 323.509 220.915 325.818 228.39C333.733 252.794 341.208 279.506 338.57 285.113Z" fill="#FFCB9D"/>
    <path d="M350.332 297.425L344.395 295.446L345.934 290.829C346.484 289.07 345.605 287.311 343.846 286.652L329.775 281.925C328.016 281.375 326.257 282.255 325.598 284.013L324.059 288.63L316.364 286.102L317.903 281.485C318.342 280.056 317.793 278.407 316.474 277.638C316.254 277.528 316.034 277.418 315.814 277.308L301.743 272.581C299.984 272.031 298.226 272.911 297.566 274.67L296.027 279.287L288.332 276.648C285.474 275.659 282.506 277.198 281.517 280.056L273.052 305.34C272.063 308.198 273.602 311.166 276.46 312.155L286.134 315.343L338.349 332.822C341.208 333.811 344.176 332.272 345.165 329.414L353.629 304.13C354.619 301.382 353.19 298.414 350.332 297.425Z" fill="#232B41"/>
    <path d="M316.584 277.637C316.254 280.276 315.704 282.914 315.045 285.552C314.715 286.651 314.385 287.751 313.945 288.85C310.538 298.634 302.953 310.286 286.243 315.453L276.57 312.265C273.712 311.275 272.283 308.307 273.162 305.449L281.626 280.166C282.616 277.308 285.584 275.769 288.442 276.758L296.137 279.396L297.676 274.779C298.226 273.02 300.094 272.141 301.853 272.691L315.924 277.308C316.144 277.417 316.364 277.527 316.584 277.637Z" fill="black" opacity="0.1"/>
    <path d="M325.927 228.5C321.42 230.808 313.835 236.085 311.637 245.868C308.229 233.666 304.711 221.354 301.963 211.571L305.481 208.053L318.892 207.503C321.09 213.769 323.509 221.025 325.927 228.5Z" fill="black" opacity="0.1"/>
    <path d="M328.016 215.748C317.572 218.056 307.789 222.673 299.434 229.159C293.828 221.684 289.541 213.22 286.682 204.315C283.824 194.971 280.526 184.528 285.913 178.592C288.661 175.734 292.399 174.415 296.356 174.745C301.962 175.294 305.48 180.021 312.186 190.025C316.583 196.95 322.079 205.525 328.016 215.748Z" fill="#DADBE0"/>
    <path d="M328.016 215.748C317.572 218.056 307.789 222.673 299.434 229.159C293.828 221.684 289.541 213.22 286.682 204.315C283.824 194.971 280.526 184.528 285.913 178.592C288.661 175.734 292.399 174.415 296.356 174.745C301.962 175.294 305.48 180.021 312.186 190.025C316.583 196.95 322.079 205.525 328.016 215.748Z" fill="black" opacity="0.1"/>
    <path d="M229.081 156.606L183.9 146.493L159.716 119.011L154.439 126.156L175.436 165.621L210.503 182.11L195.443 203.986L158.067 207.173L158.177 215.308L194.893 222.563L228.971 204.315C228.971 188.376 229.081 172.436 229.081 156.606Z" fill="#066FD1"/>
    <path d="M314.934 182.22C314.604 183.869 314.275 186.067 313.835 188.266C312.296 196.73 310.317 207.503 310.097 207.613L309.328 211.681L306.689 225.641L289.211 220.805L284.594 219.485C277.888 217.617 271.073 215.748 264.257 213.879L255.353 211.351C252.275 211.021 249.197 211.021 246.119 211.131C239.743 211.351 233.477 212.34 227.321 214.209C227.761 201.127 228.201 188.046 228.531 174.965C228.75 168.149 228.97 161.224 229.19 154.408C238.864 155.837 248.427 157.926 257.881 160.454C265.137 162.433 264.367 162.543 269.973 163.972C294.158 170.348 305.81 167.379 312.076 176.064C313.505 178.043 314.384 180.021 314.934 182.22Z" fill="#DADBE0"/>
    <path d="M138.28 123.628L149.713 110.327C149.713 110.327 153.89 112.306 153.67 115.603C153.45 118.901 143.337 123.628 138.28 123.628Z" fill="#232B41"/>
    <path d="M144.986 224.542L144.546 207.064C144.546 207.064 148.943 205.745 150.922 208.273C152.9 210.801 148.723 221.135 144.986 224.542Z" fill="#232B41"/>
    <path d="M350.002 177.493C347.583 177.823 343.956 178.482 339.559 179.252L337.47 179.691C332.743 180.791 328.126 182.44 323.729 184.748C322.85 185.188 322.08 185.628 321.311 186.177C318.452 188.046 316.034 199.918 318.123 209.702C320.211 219.486 330.325 222.014 334.062 217.287C335.601 215.638 337.36 214.209 339.339 213.11C341.977 211.571 344.725 210.361 347.473 209.152C349.122 208.493 350.112 208.163 350.112 208.163L356.048 199.589L353.959 180.901C350.771 181.45 348.573 180.901 348.243 179.911C347.913 178.922 349.672 177.713 350.002 177.493Z" fill="#FFCB9D"/>
    <path d="M350.002 177.493C347.584 177.823 343.956 178.482 339.559 179.252L337.471 179.691C332.744 180.791 328.127 182.44 323.729 184.748C324.279 185.957 325.049 186.947 325.928 187.936C326.917 188.925 328.127 189.585 329.446 190.135C330.875 190.684 332.304 190.904 333.843 191.014C334.832 191.124 335.822 191.124 336.701 191.124C335.932 194.862 335.712 198.599 336.151 202.447C336.591 206.184 337.69 209.812 339.339 213.22C341.978 211.681 344.726 210.471 347.474 209.262C349.123 208.603 350.112 208.273 350.112 208.273L356.048 199.698L353.96 181.011C350.772 181.56 348.573 181.011 348.243 180.021C347.914 179.032 349.673 177.713 350.002 177.493Z" fill="black" opacity="0.1"/>
    <path d="M353.63 219.156C352.311 218.716 350.992 218.166 349.782 217.397C348.243 216.517 346.704 215.418 345.495 214.099C339.779 208.273 338.35 198.489 342.197 189.145C342.857 187.606 343.626 186.067 344.506 184.638C344.506 184.638 344.506 184.638 344.396 184.638C343.406 184.748 342.307 184.858 341.318 185.078L340.438 185.298L340.109 185.408C338.02 186.177 335.821 186.727 333.733 187.057C332.304 187.166 330.985 186.727 329.775 185.957C331.754 185.298 333.623 184.198 335.052 182.659C335.602 182.11 336.041 181.45 336.371 180.791C338.899 177.713 342.417 175.624 346.375 174.964C348.023 174.745 349.672 174.745 351.211 174.964C352.311 175.074 356.158 175.734 358.467 177.823C363.194 182.22 362.314 194.092 360.995 200.028C360.555 201.457 360.445 202.886 360.885 204.315C360.995 204.645 361.105 204.865 361.325 205.085C362.644 206.514 365.172 206.294 366.821 205.744C369.899 204.535 371.878 200.798 371.878 196.181C375.286 205.744 371.438 215.528 364.403 218.936C360.995 220.255 357.147 220.475 353.63 219.156Z" fill="#232B41"/>
    <path d="M353.629 219.156C352.31 218.716 350.991 218.166 349.782 217.397C348.243 216.518 346.704 215.418 345.495 214.099C339.778 208.273 338.349 198.489 342.197 189.145C343.406 186.837 344.395 184.858 344.505 184.638L346.814 181.45C345.055 186.507 344.175 191.784 344.285 197.17C344.395 201.897 344.505 208.493 348.902 214.429C350.112 216.188 351.76 217.837 353.629 219.156Z" fill="black" opacity="0.5"/>
    <path d="M313.835 188.376C312.296 196.84 310.317 207.613 310.097 207.723L309.328 211.791C307.019 209.702 305.92 204.755 306.799 199.369C307.789 193.653 310.757 189.255 313.835 188.376Z" fill="#FFCB9D"/>
    <path d="M313.835 188.376C312.296 196.84 310.317 207.613 310.097 207.723L309.328 211.791C307.019 209.702 305.92 204.755 306.799 199.369C307.789 193.653 310.757 189.255 313.835 188.376Z" fill="black" opacity="0.1"/>
    <path d="M210.503 182.11L227.982 192.003L227.652 204.975L194.893 222.563L158.177 215.308L158.067 207.174L195.443 203.986L210.503 182.11Z" fill="black" opacity="0.1"/>
    <path d="M284.594 219.485C277.888 217.617 271.073 215.748 264.257 213.879L255.353 211.351C252.275 211.021 249.197 211.021 246.119 211.131C239.743 211.351 233.477 212.34 227.321 214.209C227.761 201.127 228.201 188.046 228.531 175.074C236.335 183.429 255.793 201.677 279.207 204.865L284.594 219.485Z" fill="black" opacity="0.1"/>
    <path d="M305.371 287.861C305.481 291.159 305.481 296.216 302.293 298.414C299.325 300.503 294.269 299.513 291.301 296.875C289.432 295.116 288.223 292.698 288.003 290.169C287.013 284.893 285.694 263.897 284.485 242.461C283.825 230.918 283.276 219.156 282.836 209.592C282.176 197.06 281.847 188.156 281.847 188.156L297.566 184.748C299.105 193.872 300.644 204.425 301.744 216.078C302.513 222.674 302.953 229.379 302.953 236.085C303.063 238.943 303.173 242.351 303.942 248.727C304.382 257.301 305.042 271.592 305.371 287.861Z" fill="#FFCB9D"/>
    <path d="M303.062 236.085C293.828 236.524 288.112 239.382 284.594 242.241C283.935 230.698 283.385 218.936 282.945 209.372L290.86 205.305C290.86 205.305 296.466 210.142 301.963 215.858C302.513 222.673 302.952 229.379 303.062 236.085Z" fill="black" opacity="0.1"/>
    <path d="M307.35 230.588C302.953 230.148 298.556 230.038 294.048 230.148C290.531 230.368 286.903 230.368 283.385 230.258C280.417 230.148 278.109 229.819 276.46 229.489C277.339 219.815 278.329 211.461 279.208 204.755C281.407 187.276 282.616 182.22 286.793 180.021C290.421 178.152 294.928 179.032 297.896 180.791C300.974 182.549 303.942 186.177 306.031 201.237C307.46 210.911 307.899 220.805 307.35 230.588Z" fill="#DADBE0"/>
    <path d="M672.531 402.296C672.751 403.176 672.751 404.165 672.751 405.154C672.751 405.704 672.641 406.253 672.531 406.803C671.541 411.75 667.694 415.048 663.956 414.388C660.549 413.729 658.35 409.991 658.57 405.704C658.57 405.154 658.68 404.715 658.79 404.165C658.9 403.615 659.01 403.176 659.119 402.736C660.439 398.668 663.956 396.03 667.364 396.69C670.002 397.02 671.871 399.328 672.531 402.296Z" fill="#FFCB9D"/>
    <path d="M672.531 402.296C672.751 403.176 672.751 404.165 672.751 405.154C668.024 404.934 663.297 405.154 658.57 405.704C658.57 405.154 658.68 404.715 658.79 404.165C658.9 403.615 659.01 403.176 659.12 402.736C660.439 398.668 663.957 396.03 667.365 396.69C670.003 397.02 671.872 399.328 672.531 402.296Z" fill="black" opacity="0.1"/>
    <path d="M590.964 398.668L553.039 479.686L562.273 479.796L614.269 420.434L634.276 438.133L632.847 475.838L640.982 476.717L652.744 440.991C648.017 428.899 643.4 416.807 638.673 404.715L590.964 398.668Z" fill="#DADBE0"/>
    <path d="M542.596 493.537L560.074 491.228C560.074 491.228 560.624 486.611 557.766 485.072C554.908 483.533 545.344 489.25 542.596 493.537Z" fill="#232B41"/>
    <path d="M648.127 493.207L630.539 491.558C630.539 491.558 629.769 486.941 632.627 485.292C635.485 483.643 645.159 489.03 648.127 493.207Z" fill="#232B41"/>
    <path d="M674.51 359.974C675.059 349.86 677.478 333.261 670.992 330.293C670.552 330.073 670.113 329.963 669.563 329.853L651.975 324.247C651.865 323.917 651.645 323.587 651.535 323.258C650.765 321.609 650.106 319.85 649.666 317.981L634.276 314.244C632.297 315.123 630.319 315.563 628.12 315.673C626.471 315.673 624.822 315.563 623.283 315.123L610.751 311.056C609.652 316.332 608.553 321.609 607.454 326.885C605.915 334.031 604.486 341.286 602.837 348.431L601.847 353.488C601.188 356.896 600.528 360.304 599.759 363.711C599.759 364.041 599.649 364.261 599.539 364.591C599.099 366.569 598.659 368.438 598.33 370.307L590.854 398.668L638.453 404.714L646.368 385.697L648.897 379.321L651.865 372.286C653.514 379.981 655.272 389.544 657.141 400.757C660.659 401.197 664.177 401.637 667.804 402.076C672.531 402.626 677.258 403.066 681.765 403.395C674.95 384.818 674.07 370.197 674.51 359.974Z" fill="#066FD1"/>
    <path d="M669.673 329.854L662.637 346.673C659.229 354.697 656.041 362.722 652.634 370.637L649.006 379.321L646.478 385.697L638.563 404.715L590.964 398.669L598.439 370.307C598.769 368.438 599.318 366.46 599.648 364.591C599.758 364.261 599.758 364.041 599.868 363.711C600.638 360.304 601.297 357.006 601.957 353.488L602.946 348.431C604.485 341.286 606.024 334.031 607.563 326.885L608.113 327.875C615.478 341.176 629.439 348.761 643.51 347.222C659.999 345.353 668.573 331.502 669.673 329.854Z" fill="black" opacity="0.1"/>
    <path d="M702.432 433.186C702.212 429.008 697.595 422.633 690.889 417.466C683.524 411.75 675.499 408.892 670.003 410.101C655.712 413.179 642.961 398.778 642.411 398.119L642.191 397.789C633.507 382.399 624.932 367.009 616.248 351.729L619.436 349.75L645.269 395.7C646.588 397.129 657.801 408.782 669.124 406.363C675.719 404.934 684.733 408.012 693.088 414.498C700.783 420.434 705.84 427.689 706.059 433.076L702.432 433.186Z" fill="#232B41"/>
    <path d="M621.635 381.08C622.404 381.63 623.174 382.179 624.053 382.509C624.493 382.729 625.043 382.949 625.592 383.059C630.429 384.488 635.156 382.619 636.255 378.881C637.245 375.584 634.936 371.846 630.979 370.197C630.539 369.977 629.989 369.757 629.55 369.647C629.11 369.537 628.56 369.428 628.121 369.318C623.833 368.658 619.876 370.527 618.997 373.825C618.007 376.353 619.216 379.101 621.635 381.08Z" fill="#FFCB9D"/>
    <path d="M621.635 381.08C622.404 381.63 623.174 382.179 624.053 382.509C626.032 378.222 628.34 374.045 630.979 370.197C630.539 369.977 629.989 369.757 629.55 369.647C629.11 369.537 628.56 369.428 628.121 369.318C623.833 368.658 619.876 370.527 618.997 373.825C618.007 376.353 619.216 379.101 621.635 381.08Z" fill="black" opacity="0.1"/>
    <path d="M630.538 365.69L614.159 391.193C608.443 385.037 602.617 378.222 596.9 370.967C593.273 366.35 589.755 361.513 586.127 356.456C583.709 353.048 581.4 349.531 579.202 346.233C577.883 344.144 577.003 341.836 576.893 339.307C576.344 331.282 583.379 323.368 592.393 317.981C594.482 316.662 596.68 315.563 598.989 314.573C601.737 313.364 604.595 312.375 607.563 311.715C609.102 311.385 610.312 311.166 610.971 311.056L608.773 327.325L608.113 327.875C607.783 328.095 607.453 328.424 607.014 328.864L606.684 329.194C605.805 329.963 605.035 330.843 604.266 331.722C602.507 333.811 600.748 336.449 600.528 338.977C600.418 341.396 601.298 343.704 602.946 345.463C605.914 349.201 611.191 353.048 617.457 357.445C621.524 360.523 625.921 363.272 630.538 365.69Z" fill="#066FD1"/>
    <path d="M606.574 329.194C605.694 329.963 604.925 330.843 604.155 331.722L592.283 317.981C594.372 316.662 596.57 315.563 598.879 314.573L606.574 329.194Z" fill="black" opacity="0.1"/>
    <path d="M619.546 349.75L471.692 106.589H479.717C482.026 106.589 483.894 104.72 483.894 102.412V97.6851C483.894 95.3766 482.026 93.5078 479.717 93.5078H479.057L248.538 50.1961C241.722 48.9869 235.237 53.4939 234.027 60.3095C233.918 60.7492 233.918 61.079 233.918 61.5187L231.389 93.5078H224.794C222.485 93.5078 220.616 95.3766 220.616 97.6851V102.412C220.616 104.72 222.485 106.589 224.794 106.589H257.882V150.231H257.662C255.354 150.231 253.485 152.1 253.485 154.408V215.198C253.485 217.507 255.354 219.376 257.662 219.376H261.839C264.148 219.376 266.017 217.507 266.017 215.198V154.408C266.017 152.1 264.148 150.231 261.839 150.231H261.619V106.589H347.363H347.583H456.083V490.129C456.083 492.437 458.061 494.416 460.37 494.416H465.536C467.955 494.416 469.824 492.547 469.824 490.129V110.657L616.248 351.729L619.546 349.75ZM384.299 93.5078L387.048 80.2065L457.512 93.5078H384.299ZM316.913 67.125L349.342 73.1711L345.934 93.5078H312.846L316.913 67.125ZM308.779 93.5078H274.041L279.208 59.9797L313.066 66.3555L308.779 93.5078ZM237.875 61.8485C238.315 57.1216 242.382 53.6039 247.109 54.0436C247.329 54.0436 247.659 54.0436 247.878 54.1535L275.36 59.3201L270.084 93.6177H235.457L237.875 61.8485ZM353.08 73.8307L383.64 79.5469L380.782 93.3979H349.782L353.08 73.8307Z" fill="#232B41"/>
    <path d="M614.159 420.434L630.319 403.725L638.563 404.714L652.524 440.991L640.872 476.827L632.737 475.838L634.166 438.133L614.159 420.434Z" fill="black" opacity="0.1"/>
    <path d="M607.014 329.854L606.574 330.733L606.904 329.634L607.014 329.854Z" fill="black" opacity="0.1"/>
    <path d="M295.258 429.009V452.753C295.258 453.633 295.038 454.512 294.488 455.282C293.829 456.381 292.729 457.15 291.41 457.48C291.08 457.59 290.751 457.59 290.421 457.59H232.379C229.741 457.59 227.542 455.391 227.542 452.753V429.009C227.542 426.37 229.631 424.172 232.379 424.172H290.421C293.059 424.282 295.148 426.37 295.258 429.009Z" fill="#066FD1"/>
    <path d="M240.843 417.027H254.035C255.684 417.027 256.893 418.346 256.893 419.885V424.941C256.893 426.59 255.574 427.8 254.035 427.8H240.843C239.195 427.8 237.985 426.48 237.985 424.941V419.885C237.985 418.346 239.304 417.027 240.843 417.027Z" fill="#066FD1"/>
    <path d="M267.116 417.027H280.307C281.956 417.027 283.165 418.346 283.165 419.885V424.941C283.165 426.59 281.846 427.8 280.307 427.8H267.116C265.467 427.8 264.257 426.48 264.257 424.941V419.885C264.147 418.346 265.467 417.027 267.116 417.027Z" fill="#066FD1"/>
    <path d="M361.324 429.009V452.753C361.324 455.391 359.126 457.59 356.487 457.59H298.445C298.006 457.59 297.456 457.48 297.016 457.37C295.037 456.711 293.608 454.842 293.608 452.753V429.009C293.608 426.37 295.807 424.282 298.445 424.172H356.487C359.236 424.282 361.324 426.37 361.324 429.009Z" fill="#DADBE0"/>
    <path d="M307.019 417.027H320.211C321.86 417.027 323.069 418.346 323.069 419.885V424.941C323.069 426.59 321.75 427.8 320.211 427.8H307.019C305.37 427.8 304.161 426.48 304.161 424.941V419.885C304.161 418.346 305.48 417.027 307.019 417.027Z" fill="#DADBE0"/>
    <path d="M333.183 417.027H346.375C348.024 417.027 349.233 418.346 349.233 419.885V424.941C349.233 426.59 347.914 427.8 346.375 427.8H333.183C331.534 427.8 330.325 426.48 330.325 424.941V419.885C330.325 418.346 331.644 417.027 333.183 417.027Z" fill="#DADBE0"/>
    <path d="M356.598 359.754H349.342V355.467C349.342 353.818 348.023 352.609 346.484 352.609H333.293C331.644 352.609 330.435 353.928 330.435 355.467V359.754H323.289V355.467C323.289 353.818 321.97 352.609 320.431 352.609H307.24C305.591 352.609 304.382 353.928 304.382 355.467V359.754H298.775C297.126 359.754 295.587 360.633 294.708 362.062C294.268 362.832 293.938 363.711 293.938 364.591V388.335C293.938 390.974 296.137 393.062 298.775 393.172H356.817C359.456 393.172 361.654 390.974 361.654 388.335V364.591C361.434 361.953 359.236 359.754 356.598 359.754Z" fill="#DADBE0"/>
    <path d="M327.906 395.041C327.136 393.282 325.377 392.183 323.509 392.073H316.253V387.785C316.253 386.136 314.934 384.927 313.395 384.927H300.204C298.555 384.927 297.346 386.246 297.346 387.785V392.073H290.2V387.785C290.2 386.136 288.881 384.927 287.342 384.927H274.151C272.502 384.927 271.293 386.246 271.293 387.785V392.073H265.686C263.048 392.073 260.96 394.161 260.85 396.8V420.544C260.85 423.182 262.938 425.381 265.686 425.381H323.729C325.597 425.381 327.356 424.172 328.126 422.413C328.346 421.863 328.455 421.204 328.455 420.544V396.8C328.236 396.25 328.126 395.7 327.906 395.041Z" fill="#066FD1"/>
    <path d="M390.345 392.183H383.089V387.895C383.089 386.247 381.77 385.037 380.231 385.037H367.04C365.391 385.037 364.182 386.356 364.182 387.895V392.183H357.036V387.895C357.036 386.247 355.717 385.037 354.178 385.037H340.987C339.338 385.037 338.129 386.356 338.129 387.895V392.183H332.522C329.884 392.183 327.795 394.271 327.686 396.91V420.654C327.686 423.292 329.884 425.491 332.522 425.491H390.565C393.203 425.491 395.401 423.292 395.401 420.654V396.91C395.181 394.271 392.983 392.183 390.345 392.183Z" fill="#A7AAB3"/>
    <path d="M261.4 394.381C260.52 392.952 258.981 392.183 257.332 392.183H223.914V387.895C223.914 386.247 222.595 385.037 221.056 385.037H207.865C206.216 385.037 205.007 386.356 205.007 387.895V392.183H199.4C196.762 392.183 194.563 394.271 194.563 397.02V420.764C194.563 423.402 196.652 425.601 199.4 425.601H257.442C259.091 425.601 260.63 424.721 261.51 423.402C261.949 422.633 262.279 421.753 262.279 420.874V397.02C262.169 396.03 261.84 395.151 261.4 394.381Z" fill="#DADBE0"/>
    <path d="M234.028 384.927H247.219C248.868 384.927 250.077 386.246 250.077 387.785V392.842C250.077 394.491 248.758 395.7 247.219 395.7H234.028C232.379 395.7 231.169 394.381 231.169 392.842V387.785C231.06 386.246 232.379 384.927 234.028 384.927Z" fill="#DADBE0"/>
    <path d="M295.258 364.591V388.335C295.258 390.974 293.059 393.172 290.421 393.172H232.379C229.741 393.172 227.542 390.974 227.542 388.335V364.591C227.542 361.953 229.631 359.754 232.269 359.754H237.875V355.467C237.875 353.818 239.194 352.609 240.733 352.609H253.925C255.574 352.609 256.783 353.928 256.783 355.467V359.754H263.928V355.467C263.928 353.818 265.247 352.609 266.786 352.609H279.978C281.627 352.609 282.836 353.928 282.836 355.467V359.754H290.091C293.059 359.754 295.148 361.953 295.258 364.591Z" fill="#066FD1"/>
    <path d="M361.324 438.792V452.863C361.324 454.182 360.775 455.391 359.895 456.271L297.126 457.48C296.027 457.15 295.147 456.381 294.488 455.391C293.828 456.491 292.729 457.26 291.41 457.59L285.144 457.7H232.268C229.63 457.7 227.432 455.501 227.432 452.863V448.026C253.265 448.246 275.14 447.586 293.608 446.487L295.038 446.377C327.906 444.508 349.342 441.211 361.324 438.792Z" fill="black" opacity="0.1"/>
    <path d="M395.183 404.055V420.764C395.183 423.403 392.984 425.601 390.346 425.601H332.304C330.435 425.601 328.676 424.392 327.907 422.633C327.137 424.392 325.378 425.601 323.509 425.601H265.467C263.818 425.601 262.279 424.722 261.4 423.403C260.521 424.832 258.982 425.711 257.333 425.601H199.181C196.542 425.601 194.344 423.403 194.344 420.764V412.41C218.638 414.608 240.624 415.708 260.521 416.147C261.07 416.147 261.51 416.147 261.95 416.147C287.233 416.587 308.999 415.818 327.357 414.388C327.577 414.388 327.907 414.388 328.126 414.279C361.545 411.64 383.53 407.023 395.183 404.055Z" fill="black" opacity="0.1"/>
    <path d="M265.467 392.183H271.073V387.896C271.073 386.247 272.392 385.037 273.931 385.037H287.122C288.771 385.037 289.981 386.357 289.981 387.896V392.183H293.278C293.718 391.853 294.048 391.413 294.378 390.974C294.707 391.413 295.037 391.853 295.477 392.183H297.126V387.896C297.126 386.247 298.445 385.037 299.984 385.037H313.175C314.824 385.037 316.034 386.357 316.034 387.896V392.183H323.289C324.388 392.183 325.377 392.513 326.147 393.172H329.225C330.104 392.513 331.094 392.183 332.083 392.183H337.689V387.896C337.689 386.247 339.009 385.037 340.548 385.037H353.739C355.388 385.037 356.597 386.357 356.597 387.896V392.183H359.125C360.335 391.303 360.994 389.874 360.994 388.335V374.155C340.767 377.452 320.321 379.321 299.764 379.761C297.785 379.761 295.917 379.871 289.981 379.871C272.722 380.091 251.506 380.201 227.102 380.201V388.225C227.102 390.864 229.3 393.062 231.938 393.062H262.498L265.467 392.183Z" fill="black" opacity="0.1"/>
    <path d="M254.584 459.899C253.704 458.47 252.165 457.59 250.517 457.59H244.91V453.303C244.91 451.654 243.591 450.445 242.052 450.445H228.861C227.212 450.445 226.002 451.764 226.002 453.303V457.59H218.857V453.303C218.857 451.654 217.538 450.445 215.999 450.445H202.808C201.159 450.445 199.95 451.764 199.95 453.303V457.59H192.694C190.056 457.59 187.857 459.789 187.857 462.427V486.171C187.857 488.81 189.946 491.008 192.694 491.008H250.736C253.375 491.008 255.573 488.81 255.573 486.171V462.427C255.243 461.548 255.024 460.668 254.584 459.899Z" fill="#A7AAB3"/>
    <path d="M321.42 462.427V486.171C321.42 488.81 319.221 491.008 316.583 491.008H258.541C255.903 491.008 253.814 488.81 253.704 486.171V462.427C253.704 459.789 255.793 457.7 258.541 457.59H265.796V453.303C265.796 451.654 267.115 450.445 268.654 450.445H281.846C283.495 450.445 284.704 451.764 284.704 453.303V457.59H291.849V453.303C291.849 451.654 293.168 450.445 294.707 450.445H307.899C309.548 450.445 310.757 451.764 310.757 453.303V457.59H316.363C318.782 457.59 320.76 459.349 321.09 461.658C321.42 461.987 321.42 462.207 321.42 462.427Z" fill="#066FD1"/>
    <path d="M388.917 461.328C388.367 459.129 386.498 457.59 384.3 457.59H378.694V453.303C378.694 451.654 377.374 450.445 375.835 450.445H362.644C360.995 450.445 359.786 451.764 359.786 453.303V457.59H352.641V453.303C352.641 451.654 351.321 450.445 349.782 450.445H336.591C334.942 450.445 333.733 451.764 333.733 453.303V457.59H326.258C323.619 457.59 321.421 459.789 321.421 462.427V486.171C321.421 488.81 323.51 491.008 326.258 491.008H384.3C386.938 491.008 389.027 488.81 389.027 486.171V462.427C389.027 462.097 389.027 461.657 388.917 461.328Z" fill="#DADBE0"/>
    <path d="M389.026 462.427V486.171C389.026 488.809 386.827 491.008 384.189 491.008H326.147C323.509 491.008 321.31 488.809 321.31 486.171C321.31 488.809 319.111 491.008 316.473 491.008H258.431C256.782 491.008 255.243 490.129 254.364 488.7C253.484 490.129 251.945 491.008 250.296 491.008H192.254C189.616 491.008 187.527 488.809 187.527 486.171V482.104C207.644 482.104 230.289 481.664 253.704 480.455L255.133 480.345C266.236 479.795 277.559 479.026 288.771 478.146C289.541 478.146 290.31 478.036 291.08 477.927C301.193 477.047 311.307 475.948 321.31 474.739C345.824 471.661 369.129 467.373 388.806 461.327C389.026 461.767 389.026 462.097 389.026 462.427Z" fill="black" opacity="0.1"/>
    <path d="M668.793 285.113C668.024 287.201 666.924 290.499 665.605 294.237L664.836 296.106C663.077 300.283 660.878 304.13 658.13 307.868C657.58 308.528 657.031 309.297 656.481 309.847C654.392 312.155 643.18 312.595 634.605 309.077C626.031 305.669 625.261 296.106 630.208 293.467C631.967 292.368 633.396 290.939 634.715 289.29C635.595 288.301 636.364 287.201 637.134 286.102C638.013 284.893 638.783 283.684 639.442 282.475C640.322 281.046 640.761 280.276 640.761 280.276L649.446 276.319L666.155 281.046C666.155 281.046 666.155 281.155 666.045 281.265C665.165 283.684 665.385 285.553 665.935 286.212C666.045 286.322 666.045 286.322 666.155 286.432C667.144 286.762 668.463 285.443 668.793 285.113Z" fill="#FFCB9D"/>
    <path d="M668.794 285.112C668.024 287.201 666.925 290.499 665.606 294.236L664.836 296.105C663.077 300.283 660.879 304.13 658.131 307.868C657.141 307.208 656.262 306.329 655.602 305.449C654.833 304.35 654.393 303.141 654.063 301.931C653.843 300.502 653.843 299.183 654.063 297.864C654.173 296.985 654.173 296.215 654.503 295.226C652.524 295.336 650.106 295.226 647.358 294.786C641.531 293.687 637.244 291.268 634.716 289.4C635.595 288.41 636.365 287.311 637.134 286.212C638.014 285.332 638.563 284.453 639.663 282.804L640.982 280.605L649.666 276.648L666.155 281.375L666.375 281.485C665.606 283.683 665.606 285.552 666.045 286.322C666.155 286.542 666.265 286.651 666.485 286.761C667.255 286.981 668.464 285.442 668.794 285.112Z" fill="black" opacity="0.1"/>
    <path d="M629.769 271.042C630.099 273.24 631.198 274.999 632.737 276.208C633.067 280.496 634.606 283.134 635.705 284.563C640.432 290.939 650.765 292.917 661.208 289.29V289.4C661.208 289.4 661.208 289.4 661.208 289.51C660.988 290.389 660.659 291.269 660.439 292.148C660.329 292.588 660.219 292.698 660.219 292.917L660.109 293.137C659.23 294.896 658.46 296.765 657.8 298.634C657.581 299.843 657.8 301.052 658.35 302.261C659.12 300.503 660.439 299.073 661.978 297.974C662.527 297.644 663.187 297.315 663.737 297.095C666.925 295.226 669.233 292.368 670.222 288.96C670.442 288.41 670.442 288.081 670.552 287.531H670.662C673.96 287.091 676.268 284.123 675.829 280.715C675.499 278.077 673.41 276.208 671.102 275.659C671.761 274.34 672.091 272.691 671.871 271.042C671.322 266.755 667.474 263.896 663.187 264.446C661.648 264.666 660.329 265.216 659.339 266.095C658.46 262.357 654.832 259.829 650.875 260.379C647.467 260.818 644.939 263.347 644.279 266.645C642.85 263.786 639.662 261.918 636.255 262.357C632.187 262.907 629.219 266.755 629.769 271.042Z" fill="#232B41"/>
    <path d="M632.847 276.208C633.176 280.496 634.715 283.134 635.815 284.563C640.542 290.939 650.875 292.918 661.318 289.29V289.4C661.318 289.4 661.318 289.4 661.318 289.51C662.747 288.96 664.066 288.191 665.166 287.531H665.056C662.747 287.971 648.347 291.489 638.123 282.474C636.035 280.825 634.166 278.627 632.847 276.208Z" fill="black" opacity="0.5"/>
</svg>
