<svg xmlns="http://www.w3.org/2000/svg" width="800" height="600" fill="none" viewBox="0 0 800 600">
    <path d="M127.02 299.989C127.02 347.024 176.747 381.134 198.723 419.151C221.387 458.326 226.841 518.217 266.016 540.869C303.999 562.834 358.046 538.268 405.081 538.268C452.116 538.268 506.175 562.8 544.135 540.824C583.31 518.171 588.764 458.326 611.439 419.106C633.404 381.134 683.132 347.023 683.132 299.943C683.132 252.862 633.404 218.809 611.439 180.849C588.764 141.674 583.31 81.7831 544.135 59.1307C506.175 37.1657 452.105 61.7316 405.081 61.7316C358.058 61.7316 303.999 37.2116 266.016 59.1765C226.841 81.8289 221.387 141.674 198.723 180.894C176.747 218.855 127.02 252.977 127.02 299.989Z" fill="#066FD1" opacity="0.02"/>
    <path d="M52.3477 436.762C52.3477 442.491 211.877 447.166 408.69 447.166C605.504 447.166 765.033 442.514 765.033 436.762C765.033 431.01 605.504 426.45 408.69 426.45C211.877 426.45 52.3477 431.114 52.3477 436.762Z" fill="#D6D8E2" opacity="0.5"/>
    <path d="M636.211 435.387L569.365 435.651L579.884 367.934L609.445 177.732L608.494 173.642C615.369 176.323 620.594 182.957 621.923 191.321L655.369 401.632L656.446 408.347C658.68 422.451 648.998 435.387 636.211 435.387Z" fill="#232B41"/>
    <path d="M636.211 435.387L569.365 435.651L579.884 367.934C598.067 359.558 617.695 350.69 617.695 350.69L655.357 401.632L656.434 408.346C658.68 422.451 648.998 435.387 636.211 435.387Z" fill="black" opacity="0.1"/>
    <path d="M689.48 428.226C688.139 430.403 683.304 437.874 676.062 439.524C675.31 439.703 674.543 439.81 673.771 439.845C668.878 440.051 664.008 437.404 655.129 426.874C645.311 415.109 637.347 401.914 631.514 387.745L646.856 369.951C648.208 368.404 649.537 366.846 650.878 365.299C651.198 366.113 651.531 366.938 651.874 367.785C655.243 375.955 659.586 385.66 663.688 392.088C666.575 396.671 669.348 399.547 671.548 399.066C677.414 397.748 678.732 372.495 678.915 368.668C679.11 365.081 679.11 361.793 679.007 358.871C678.927 356.786 678.789 354.288 678.503 351.355C676.131 343.334 681.081 336.013 686.523 335.027C691.966 334.042 699.563 339.473 699.78 348.055C702.278 409.676 689.48 428.226 689.48 428.226Z" fill="#FFCB9D"/>
    <path d="M676.062 439.524C675.31 439.703 674.543 439.81 673.771 439.845C668.878 440.051 664.008 437.404 655.129 426.874C645.311 415.109 637.347 401.914 631.514 387.745L646.856 369.951C649.377 368.805 651.198 368.026 651.874 367.785C655.243 375.955 659.586 385.66 663.688 392.088C661.946 393.405 659.586 396.545 657.18 403.798C653.112 415.806 670.081 433.703 676.062 439.524Z" fill="black" opacity="0.1"/>
    <path d="M655.815 376.688L633.426 389.865C631.455 391.011 629.484 392.156 627.525 393.302L622.209 396.43L612.297 402.285C612.24 402.285 611.977 402.491 611.919 402.514C608.482 404.539 605.045 406.559 601.607 408.576L590.149 415.324C587.33 418.692 584.174 421.764 580.731 424.491C574.713 429.255 567.908 432.927 560.622 435.341C556.16 433.764 551.899 431.669 547.927 429.097C538.141 422.749 534.315 415.107 526.156 406.696L505.658 385.625C516.782 377.126 528.377 369.26 540.387 362.068C544.249 359.776 546.368 358.63 548.053 357.679C549.313 356.992 550.344 356.465 551.673 355.743C552.601 355.147 554.114 354.196 556.05 353.199C557.196 352.603 558.25 352.053 559.259 351.652C559.912 351.377 560.542 351.114 561.161 350.885L561.768 350.667C562.524 350.381 563.257 350.151 563.945 349.945C570.659 347.94 574.67 348.685 578.348 345.878C585.704 340.275 580.433 329.126 584.947 322.962C585.447 322.288 586.046 321.693 586.723 321.197C590.058 318.757 594.744 318.906 599.144 319.902C602.995 320.864 606.724 322.264 610.258 324.073C611.049 324.463 611.874 324.898 612.756 325.437C617.19 328.083 622.908 332.575 632.761 340.252C632.963 340.395 633.154 340.552 633.334 340.722C638.548 345.167 640.083 351.572 640.622 355.25L644.059 360.097L655.815 376.688Z" fill="#066FD1"/>
    <path d="M610.454 393.451C606.089 386.45 619.506 370.134 627.641 362.205C632.121 357.84 637.066 353.978 642.387 350.69C648.116 354.379 658.692 362.377 664.593 376.344C666.106 379.918 667.217 383.65 667.904 387.47C661.58 392.053 655.136 396.938 648.575 402.125C643.487 406.158 638.572 410.161 633.828 414.133C632.167 409.378 628.947 402.743 622.37 398.733C616.309 395.032 612.448 396.659 610.454 393.451Z" fill="#066FD1"/>
    <path d="M626.621 335.531C632.06 339.603 637.277 343.963 642.25 348.593C644.931 351.102 647.452 353.6 649.801 356.052L654.636 360.922C651.651 361.011 648.675 360.565 645.848 359.604C642.085 358.268 638.684 356.075 635.914 353.199C631.119 348.372 627.882 342.217 626.621 335.531Z" fill="#FFCB9D"/>
    <path d="M626.621 335.531C632.06 339.603 637.277 343.963 642.25 348.593C644.931 351.102 647.452 353.6 649.801 356.052L654.636 360.922C651.65 361.034 648.669 360.587 645.848 359.604C643.119 358.619 640.577 357.178 638.331 355.342C637.489 354.67 636.682 353.955 635.914 353.199C631.153 348.347 627.922 342.203 626.621 335.531Z" fill="black" opacity="0.1"/>
    <path d="M605.332 391.698C607.193 395.517 609.534 399.083 612.299 402.308C612.241 402.308 611.978 402.514 611.921 402.537C608.483 404.561 605.046 406.582 601.608 408.599L590.15 415.347C587.4 418.778 584.236 421.857 580.732 424.514C575.193 428.709 568.899 431.802 562.193 433.623C560.681 435.052 558.703 435.887 556.624 435.972C552.946 435.972 549.394 433.29 547.928 429.097C549.245 407.877 550.827 382.268 550.827 380.859C550.827 380.057 549.681 370.317 548.031 357.679C549.291 356.992 550.322 356.465 551.652 355.743C552.58 355.147 554.092 354.196 556.029 353.199C557.174 352.603 558.228 352.053 559.237 351.652C559.89 351.366 560.52 351.114 561.139 350.885L561.746 350.667C562.502 350.381 563.236 350.151 563.923 349.945C574.43 346.806 575.839 347.298 578.326 345.878C585.201 341.959 583.722 330.822 584.926 322.962C585.426 322.288 586.024 321.693 586.702 321.197C590.036 318.757 594.722 318.906 599.122 319.902C602.974 320.864 606.703 322.264 610.236 324.073C611.027 324.463 611.852 324.898 612.734 325.437C609.205 331.876 591.8 363.764 605.332 391.698Z" fill="black" opacity="0.1"/>
    <path d="M676.291 297.239L661.521 300.939C661.521 300.939 660.49 302.234 658.668 304.136C655.681 307.443 652.473 310.544 649.066 313.417C648.448 313.979 647.795 314.563 647.119 315.021C645.145 316.5 642.978 317.703 640.679 318.596C632.235 321.117 630.367 336.276 642.879 344.308C646.075 346.334 649.464 348.038 652.997 349.395C663.309 353.405 673.896 354.391 676.944 352.122C677.918 351.354 678.926 350.403 680.095 349.487C685.456 344.681 690.153 339.183 694.062 333.136C694.291 332.815 694.956 331.647 695.792 330.524C699.126 324.909 701.807 320.28 703.606 317.13C703.022 317.588 700.696 319.261 699.401 318.275C698.107 317.29 698.53 313.749 700.96 309.796L676.291 297.239Z" fill="#FFCB9D"/>
    <path d="M703.596 317.141C701.808 320.281 699.127 324.91 695.804 330.513C694.957 331.658 694.292 332.804 694.074 333.136C690.158 339.18 685.457 344.678 680.096 349.487C678.794 348.145 677.725 346.597 676.933 344.904C676.066 343.032 675.647 340.984 675.707 338.923C675.745 336.74 676.132 334.578 676.853 332.518C677.23 331.132 677.689 329.77 678.228 328.439C667.154 326.782 656.959 321.446 649.285 313.291C652.697 310.428 655.905 307.331 658.887 304.022C660.709 302.12 661.751 300.825 661.751 300.825L676.509 297.124L701.144 309.579C698.726 313.532 698.302 317.015 699.597 318.058C700.892 319.1 703.035 317.588 703.596 317.13" fill="black" opacity="0.1"/>
    <path d="M705.303 323.523C703.367 327.889 705.406 330.077 703.218 332.117C700.823 334.305 695.426 333.652 692.161 334.328C691.418 334.486 690.687 334.693 689.972 334.947C689.641 335.04 689.325 335.179 689.033 335.359C686.219 336.575 683.748 338.464 681.837 340.859C681.397 338.869 681.585 336.791 682.376 334.912C683.996 332.085 685.855 329.402 687.933 326.892C687.961 326.764 688.034 326.65 688.139 326.571C688.357 326.239 688.379 326.067 688.815 325.425C689.649 324.171 690.344 322.831 690.889 321.426V321.255C686.191 320.693 653.536 317.302 650.648 304.583C650.408 303.667 649.503 299.141 651.794 296.23C655.346 291.716 663.252 294.615 665.956 290.158C667.732 287.19 665.04 284.566 667.102 282.137C669.164 279.708 674.309 279.479 677.632 281.289C680.118 282.641 679.58 284.177 681.894 285.506C685.87 287.797 688.964 284.062 693.123 286.159C695.605 287.705 697.555 289.972 698.715 292.656C699.677 294.89 699.551 295.944 700.915 297.869C702.032 299.243 703.387 300.407 704.913 301.306C708.213 303.3 709.359 302.555 710.975 303.804C713.69 306.256 714.171 311.08 712.854 314.643C711.078 319.227 707.434 318.585 705.257 323.443" fill="#232B41"/>
    <path d="M650.464 300.321C650.321 301.704 650.453 303.102 650.854 304.434C653.948 317.038 686.374 320.544 691.094 321.117C693.1 320.791 694.949 319.836 696.376 318.39C663.916 312.019 653.661 304.64 650.464 300.321Z" fill="black" opacity="0.5"/>
    <path d="M197.761 216.231L193.487 239.903L192.25 246.778L179.256 318.619C174.536 313.715 170.197 309.132 166.24 304.87C155.114 292.827 146.819 283.1 140.666 275.343C136.587 270.209 133.436 265.901 130.995 262.315C124.499 252.713 123.101 248.176 122.814 246.377C122.765 246.05 122.765 245.718 122.814 245.391C123.412 242.931 124.555 240.636 126.16 238.677C130.056 233.773 137.435 229.007 150.336 224.928L151.31 224.618C162.39 221.192 177.48 218.293 197.761 216.231Z" fill="#DADBE0"/>
    <path d="M192.248 246.755L179.255 318.596C176.963 316.259 174.699 313.883 172.46 311.47C165.395 303.968 158.608 296.498 152.1 289.058C160.108 285.834 166.967 280.287 171.796 273.131C177.633 264.177 180.008 253.403 178.476 242.825L188.284 237.795L192.248 246.755Z" fill="black" opacity="0.1"/>
    <path d="M197.761 216.242L193.488 239.903C188.068 244.257 181.079 247.374 172.623 246.159C156.685 243.868 151.781 231.642 150.291 224.905C161.497 221.353 176.873 218.362 197.761 216.242Z" fill="#FFCB9D"/>
    <path d="M197.761 216.242L193.488 239.903C188.068 244.257 181.079 247.374 172.623 246.159C156.685 243.868 151.781 231.642 150.291 224.905C161.497 221.353 176.873 218.362 197.761 216.242Z" fill="black" opacity="0.1"/>
    <path d="M180.08 259.851C179.473 259.324 179.622 258.304 180.08 256.345C180.28 255.596 180.403 254.828 180.447 254.053C180.195 252.313 179.669 250.623 178.889 249.046C182.819 251.773 187.952 254.775 190.988 254.638C191.371 254.631 191.748 254.539 192.09 254.369C192.433 254.198 192.734 253.954 192.97 253.652C194.517 251.533 192.97 247.775 191.664 245.105C189.017 239.376 186.038 236.614 183.002 236.66C179.966 236.706 176.975 240.533 175.783 242.848C173.973 240.166 169.951 235.091 165.196 235.514C161.369 235.961 158.058 240.098 155.388 247.809C154.174 251.395 152.81 256.437 154.918 258.728C155.246 259.088 155.655 259.365 156.112 259.534C156.569 259.704 157.059 259.761 157.542 259.702C161.656 259.45 168.382 254.065 172.839 249.929C172.255 251.617 171.211 253.109 169.825 254.237C169.293 254.474 168.83 254.842 168.479 255.307C168.129 255.772 167.902 256.318 167.82 256.895C167.844 259.809 168.904 262.62 170.811 264.824L172.38 263.002C169.963 259.462 169.871 258.075 170.02 257.72C170.054 257.55 170.13 257.391 170.243 257.259C170.355 257.126 170.499 257.025 170.662 256.964C173.228 255.715 175.13 250.994 176.093 248.153C177.049 250.028 177.816 251.993 178.384 254.019C178.319 254.494 178.223 254.965 178.098 255.428C177.663 257.262 176.952 260.344 178.969 262.223C180.115 263.22 181.134 267.253 181.764 272.902L183.861 272.604C183.036 265.718 181.879 261.547 180.08 259.851ZM182.945 239.479C185.236 239.479 187.448 241.839 189.716 246.549C191.721 250.719 191.263 251.67 191.275 251.682C190.255 252.827 183.827 249.699 177.239 244.807C178.304 242.974 180.355 239.685 182.922 239.479H182.945ZM156.282 256.483C156.167 256.379 155.297 255.153 157.428 248.978C159.719 242.263 162.412 238.665 165.448 238.345H165.666C169.356 238.07 172.942 242.767 174.374 244.967C166.846 252.163 158.012 258.35 156.305 256.505L156.282 256.483Z" fill="#066FD1"/>
    <path d="M560.634 435.387H178.671C176.237 435.388 173.832 434.86 171.621 433.841C169.411 432.821 167.448 431.334 165.869 429.482C164.289 427.63 163.13 425.458 162.472 423.114C161.814 420.771 161.672 418.312 162.057 415.909L198.539 186.52C199.169 182.567 201.188 178.968 204.233 176.371C207.279 173.773 211.15 172.346 215.153 172.347H597.15C599.584 172.348 601.988 172.877 604.198 173.897C606.407 174.917 608.369 176.404 609.948 178.256C611.528 180.107 612.686 182.279 613.345 184.622C614.004 186.964 614.147 189.422 613.764 191.825L577.282 421.214C576.649 425.171 574.625 428.774 571.573 431.372C568.521 433.97 564.642 435.394 560.634 435.387Z" fill="white"/>
    <path d="M560.634 438.871H178.672C175.735 438.869 172.834 438.23 170.168 437C167.501 435.769 165.133 433.975 163.227 431.742C161.32 429.509 159.92 426.889 159.123 424.062C158.326 421.236 158.15 418.271 158.609 415.37L195.091 185.982C195.834 181.199 198.266 176.841 201.947 173.698C205.628 170.555 210.314 168.836 215.154 168.852H597.151C600.088 168.854 602.99 169.492 605.657 170.724C608.324 171.955 610.692 173.75 612.598 175.985C614.504 178.22 615.902 180.841 616.697 183.669C617.492 186.497 617.665 189.463 617.202 192.364L580.686 421.752C579.948 426.534 577.518 430.892 573.838 434.034C570.158 437.175 565.473 438.892 560.634 438.871ZM215.154 175.842C211.978 175.826 208.903 176.951 206.487 179.012C204.07 181.073 202.474 183.932 201.989 187.07L165.506 416.47C165.203 418.374 165.316 420.321 165.839 422.177C166.361 424.032 167.279 425.753 168.531 427.219C169.783 428.685 171.337 429.862 173.088 430.669C174.839 431.476 176.744 431.893 178.672 431.893H560.634C563.81 431.903 566.885 430.775 569.3 428.712C571.716 426.65 573.312 423.791 573.8 420.652L610.282 191.264C610.585 189.363 610.472 187.419 609.952 185.566C609.432 183.713 608.516 181.994 607.268 180.528C606.021 179.063 604.47 177.885 602.723 177.076C600.977 176.267 599.076 175.846 597.151 175.842H215.154Z" fill="#232B41"/>
    <path d="M241.186 420.721L194.644 389.957C194.022 389.573 193.497 389.051 193.109 388.432C192.722 387.813 192.482 387.112 192.409 386.385C192.336 385.658 192.431 384.924 192.687 384.24C192.944 383.556 193.355 382.94 193.888 382.44L203.18 372.735C204.342 371.577 205.858 370.842 207.487 370.649C209.116 370.456 210.763 370.815 212.163 371.67L258.694 402.446C259.318 402.825 259.846 403.345 260.237 403.963C260.627 404.58 260.868 405.28 260.943 406.007C261.017 406.734 260.922 407.469 260.665 408.153C260.408 408.837 259.996 409.452 259.462 409.951L250.158 419.656C248.999 420.815 247.484 421.55 245.857 421.743C244.229 421.937 242.584 421.577 241.186 420.721Z" fill="#066FD1"/>
    <path d="M380.32 239.777H332.116C329.595 239.777 327.934 238.104 328.392 236.041L330.581 226.13C331.028 224.068 333.445 222.395 335.955 222.395H384.17C386.679 222.395 388.352 224.068 387.894 226.13L385.705 236.041C385.247 238.104 382.886 239.777 380.32 239.777Z" fill="#066FD1"/>
    <path d="M465.144 239.777H416.94C414.42 239.777 412.758 238.104 413.217 236.041L415.405 226.13C415.863 224.068 418.27 222.395 420.779 222.395H468.994C471.503 222.395 473.176 224.068 472.718 226.13L470.529 236.041C470.071 238.104 467.676 239.777 465.144 239.777Z" fill="#DADBE0"/>
    <path d="M549.977 239.777H501.762C499.253 239.777 497.58 238.104 498.039 236.041L500.227 226.13C500.685 224.068 503.091 222.395 505.601 222.395H553.816C556.325 222.395 557.998 224.068 557.54 226.13L555.351 236.041C554.893 238.104 552.464 239.777 549.977 239.777Z" fill="#DADBE0"/>
    <path d="M277.771 290.558H229.556C227.035 290.558 225.374 288.886 225.832 286.823L228.02 276.923C228.479 274.861 230.885 273.177 233.394 273.177H281.609C284.119 273.177 285.791 274.861 285.333 276.923L283.202 286.823C282.686 288.886 280.28 290.558 277.771 290.558Z" fill="#DADBE0"/>
    <path d="M362.595 290.558H314.38C311.87 290.558 310.197 288.886 310.656 286.823L312.844 276.923C313.302 274.861 315.709 273.177 318.218 273.177H366.433C368.942 273.177 370.615 274.861 370.157 276.923L367.991 286.823C367.51 288.886 365.104 290.558 362.595 290.558Z" fill="#DADBE0"/>
    <path d="M447.419 290.558H399.204C396.694 290.558 395.022 288.886 395.48 286.823L397.668 276.923C398.127 274.861 400.533 273.177 403.042 273.177H451.257C453.767 273.177 455.439 274.861 454.981 276.923L452.781 286.823C452.334 288.886 449.928 290.558 447.419 290.558Z" fill="#DADBE0"/>
    <path d="M532.241 290.558H484.026C481.517 290.558 479.844 288.886 480.302 286.823L482.491 276.923C482.949 274.861 485.355 273.177 487.876 273.177H536.08C538.6 273.177 540.262 274.861 539.803 276.923L537.569 286.823C537.157 288.886 534.75 290.558 532.241 290.558Z" fill="#DADBE0"/>
    <path d="M350.151 344.973H302.761C300.023 344.973 298.178 343.151 298.705 340.894L300.745 331.67C301.237 329.378 303.861 327.591 306.6 327.591H354.001C356.74 327.591 358.585 329.413 358.057 331.67L356.018 340.894C355.525 343.151 352.901 344.973 350.151 344.973Z" fill="#066FD1"/>
    <path d="M434.974 344.973H387.584C384.845 344.973 383 343.151 383.527 340.894L385.567 331.67C386.06 329.378 388.684 327.591 391.433 327.591H438.824C441.562 327.591 443.407 329.413 442.88 331.67L440.84 340.894C440.348 343.151 437.724 344.973 434.974 344.973Z" fill="#DADBE0"/>
    <path d="M519.809 344.973H472.408C469.669 344.973 467.825 343.151 468.352 340.894L470.391 331.67C470.884 329.378 473.519 327.591 476.258 327.591H523.648C526.386 327.591 528.231 329.413 527.704 331.67L525.664 340.894C525.172 343.151 522.548 344.973 519.809 344.973Z" fill="#DADBE0"/>
    <path d="M265.075 344.973H217.685C214.947 344.973 213.102 343.151 213.629 340.894L215.669 331.67C216.161 329.378 218.785 327.591 221.535 327.591H268.925C271.664 327.591 273.508 329.413 272.981 331.67L270.942 340.894C270.449 343.151 267.825 344.973 265.075 344.973Z" fill="#DADBE0"/>
    <path d="M338.132 399.386H290.742C287.992 399.386 286.159 397.553 286.675 395.307L288.714 386.072C289.218 383.781 291.842 382.005 294.581 382.005H341.971C344.709 382.005 346.554 383.826 346.038 386.072L343.988 395.307C343.495 397.553 340.871 399.386 338.132 399.386Z" fill="#DADBE0"/>
    <path d="M422.989 399.386H375.564C372.826 399.386 370.981 397.553 371.497 395.307L373.536 386.072C374.04 383.781 376.664 382.005 379.403 382.005H426.793C429.531 382.005 431.376 383.826 430.86 386.072L428.821 395.307C428.317 397.553 425.693 399.386 422.989 399.386Z" fill="#DADBE0"/>
    <path d="M434.974 344.973H387.584C384.845 344.973 383 343.151 383.527 340.894L385.567 331.67C386.06 329.378 388.684 327.591 391.433 327.591H438.824C441.562 327.591 443.407 329.413 442.88 331.67L440.84 340.894C440.348 343.151 437.724 344.973 434.974 344.973Z" fill="black" opacity="0.1"/>
    <path d="M519.809 344.973H472.408C469.669 344.973 467.825 343.151 468.352 340.894L470.391 331.67C470.884 329.378 473.519 327.591 476.258 327.591H523.648C526.386 327.591 528.231 329.413 527.704 331.67L525.664 340.894C525.172 343.151 522.548 344.973 519.809 344.973Z" fill="black" opacity="0.1"/>
    <path d="M265.075 344.973H217.685C214.947 344.973 213.102 343.151 213.629 340.894L215.669 331.67C216.161 329.378 218.785 327.591 221.535 327.591H268.925C271.664 327.591 273.508 329.413 272.981 331.67L270.942 340.894C270.449 343.151 267.825 344.973 265.075 344.973Z" fill="black" opacity="0.1"/>
    <path d="M338.132 399.386H290.742C287.992 399.386 286.159 397.553 286.675 395.307L288.714 386.072C289.218 383.781 291.842 382.005 294.581 382.005H341.971C344.709 382.005 346.554 383.826 346.038 386.072L343.988 395.307C343.495 397.553 340.871 399.386 338.132 399.386Z" fill="black" opacity="0.1"/>
    <path d="M204.2 367.682C205.66 367.524 207.135 367.554 208.588 367.774C213.767 368.564 217.583 371.841 217.755 376.207C217.949 381.753 212.312 386.92 205.059 387.745C204.257 387.837 203.449 387.871 202.641 387.848C196.511 387.688 191.688 384.136 191.481 379.243C191.287 373.743 196.958 368.53 204.2 367.682Z" fill="#FFCB9D"/>
    <path d="M204.2 367.682C205.661 367.524 207.136 367.554 208.589 367.774C208.589 368.37 208.509 368.92 208.474 369.424C207.752 376.551 204.785 379.289 202.894 386.851C202.803 387.184 202.734 387.516 202.677 387.848C196.547 387.688 191.723 384.136 191.516 379.243C191.287 373.743 196.959 368.53 204.2 367.682Z" fill="black" opacity="0.1"/>
    <path d="M278.081 207.465C282.947 207.465 286.892 203.52 286.892 198.654C286.892 193.788 282.947 189.843 278.081 189.843C273.214 189.843 269.27 193.788 269.27 198.654C269.27 203.52 273.214 207.465 278.081 207.465Z" fill="#DADBE0"/>
    <path d="M396.27 207.465C401.136 207.465 405.081 203.52 405.081 198.654C405.081 193.788 401.136 189.843 396.27 189.843C391.404 189.843 387.459 193.788 387.459 198.654C387.459 203.52 391.404 207.465 396.27 207.465Z" fill="#DADBE0"/>
    <path d="M515.18 207.465C520.047 207.465 523.991 203.52 523.991 198.654C523.991 193.788 520.047 189.843 515.18 189.843C510.314 189.843 506.369 193.788 506.369 198.654C506.369 203.52 510.314 207.465 515.18 207.465Z" fill="#DADBE0"/>
    <path d="M276.775 202.115C269.867 202.117 263.113 200.07 257.368 196.234C251.623 192.397 247.145 186.943 244.5 180.561C241.856 174.179 241.163 167.156 242.51 160.38C243.858 153.605 247.184 147.381 252.069 142.496C256.954 137.611 263.178 134.285 269.953 132.937C276.729 131.59 283.752 132.283 290.134 134.927C296.516 137.572 301.97 142.05 305.807 147.795C309.643 153.54 311.69 160.294 311.688 167.202C311.692 168.816 311.581 170.428 311.355 172.026C311.326 172.59 311.18 173.142 310.925 173.647C310.671 174.152 310.314 174.598 309.878 174.957C309.442 175.316 308.935 175.58 308.391 175.733C307.847 175.885 307.277 175.923 306.718 175.843C306.159 175.763 305.622 175.567 305.142 175.269C304.663 174.97 304.251 174.574 303.932 174.107C303.614 173.641 303.396 173.112 303.294 172.557C303.191 172.001 303.205 171.43 303.335 170.88C304.093 165.478 303.184 159.973 300.728 155.101C298.272 150.23 294.387 146.225 289.592 143.623C284.797 141.02 279.322 139.944 273.9 140.539C268.477 141.133 263.365 143.37 259.248 146.949C255.131 150.529 252.206 155.28 250.864 160.568C249.521 165.856 249.826 171.427 251.737 176.537C253.648 181.647 257.075 186.051 261.557 189.16C266.04 192.269 271.366 193.934 276.821 193.934C277.864 193.989 278.846 194.442 279.565 195.2C280.283 195.958 280.684 196.963 280.684 198.007C280.684 199.051 280.283 200.056 279.565 200.814C278.846 201.572 277.864 202.025 276.821 202.08L276.775 202.115Z" fill="#066FD1"/>
    <path d="M333.525 168.795H290.959V175.818H333.525V168.795Z" fill="#232B41"/>
    <path d="M395.857 202.115C388.95 202.115 382.197 200.066 376.454 196.228C370.71 192.39 366.234 186.935 363.591 180.553C360.948 174.171 360.257 167.148 361.605 160.373C362.954 153.598 366.281 147.376 371.167 142.492C376.052 137.608 382.276 134.283 389.051 132.937C395.827 131.59 402.849 132.284 409.23 134.929C415.612 137.574 421.065 142.052 424.901 147.796C428.737 153.541 430.784 160.294 430.781 167.202C430.78 168.816 430.669 170.427 430.449 172.026C430.42 172.59 430.274 173.142 430.019 173.647C429.765 174.152 429.408 174.598 428.972 174.957C428.536 175.316 428.029 175.58 427.485 175.733C426.941 175.885 426.371 175.923 425.812 175.843C425.252 175.763 424.716 175.567 424.236 175.269C423.756 174.97 423.344 174.574 423.026 174.107C422.708 173.641 422.49 173.112 422.387 172.557C422.284 172.001 422.298 171.43 422.429 170.88C423.187 165.478 422.278 159.974 419.822 155.103C417.367 150.232 413.482 146.227 408.688 143.624C403.894 141.021 398.42 139.945 392.998 140.538C387.575 141.132 382.463 143.367 378.346 146.946C374.229 150.524 371.303 155.274 369.959 160.561C368.616 165.848 368.919 171.419 370.828 176.529C372.737 181.639 376.162 186.044 380.643 189.154C385.124 192.264 390.448 193.932 395.903 193.934C396.456 193.904 397.01 193.988 397.529 194.179C398.049 194.371 398.524 194.666 398.926 195.047C399.328 195.428 399.648 195.887 399.867 196.396C400.086 196.905 400.198 197.453 400.198 198.007C400.198 198.561 400.086 199.109 399.867 199.618C399.648 200.127 399.328 200.586 398.926 200.967C398.524 201.348 398.049 201.643 397.529 201.835C397.01 202.026 396.456 202.11 395.903 202.08L395.857 202.115Z" fill="#066FD1"/>
    <path d="M514.471 202.115C507.562 202.117 500.808 200.07 495.064 196.234C489.319 192.397 484.841 186.943 482.196 180.561C479.551 174.179 478.858 167.156 480.206 160.38C481.553 153.605 484.879 147.381 489.764 142.496C494.649 137.611 500.873 134.285 507.649 132.937C514.424 131.59 521.447 132.283 527.829 134.927C534.211 137.572 539.665 142.05 543.502 147.795C547.339 153.54 549.385 160.294 549.383 167.202C549.383 168.836 549.264 170.467 549.028 172.083C548.999 172.648 548.852 173.2 548.598 173.704C548.344 174.209 547.987 174.655 547.551 175.014C547.114 175.373 546.608 175.637 546.064 175.79C545.52 175.943 544.95 175.98 544.39 175.9C543.831 175.82 543.294 175.625 542.815 175.326C542.335 175.027 541.923 174.632 541.605 174.165C541.286 173.698 541.069 173.17 540.966 172.614C540.863 172.058 540.877 171.487 541.007 170.937C541.766 165.535 540.856 160.03 538.4 155.159C535.944 150.287 532.059 146.282 527.264 143.68C522.47 141.077 516.995 140.001 511.572 140.596C506.149 141.19 501.037 143.427 496.92 147.007C492.803 150.586 489.878 155.338 488.536 160.625C487.194 165.913 487.499 171.485 489.41 176.594C491.321 181.704 494.747 186.108 499.23 189.217C503.713 192.326 509.038 193.992 514.493 193.991C515.536 194.046 516.518 194.5 517.237 195.257C517.956 196.015 518.356 197.02 518.356 198.064C518.356 199.109 517.956 200.113 517.237 200.871C516.518 201.629 515.536 202.082 514.493 202.138L514.471 202.115Z" fill="#066FD1"/>
    <path d="M452.85 168.795H410.283V175.818H452.85V168.795Z" fill="#232B41"/>
    <path d="M563.133 168.795H520.566V175.818H563.133V168.795Z" fill="#232B41"/>
    <path d="M208.977 360.395C202.21 379.224 195.442 398.057 188.674 416.894C187.849 419.186 187.047 421.42 186.233 423.689C174.202 417.444 143.701 399.513 125.403 362.366C117.031 345.327 112.445 326.678 111.963 307.7C111.871 304.492 111.906 302.108 111.963 300C111.994 290.781 112.815 281.581 114.415 272.501C114.633 271.355 114.862 270.106 115.114 268.88C116.789 260.983 119.068 253.226 121.931 245.678C122.882 243.088 123.776 240.843 124.521 239.044L125.059 237.76C125.139 237.898 125.231 238.024 125.323 238.173C125.414 238.322 125.655 238.689 125.827 238.975C127.099 241.037 128.76 243.799 130.593 247.11C132.427 250.422 133.412 252.495 135.051 255.646L135.452 256.403C137.743 260.722 139.978 265.03 142.235 269.362C141.719 271.057 141.181 273.028 140.688 275.262C138.056 286.545 138.419 298.32 141.742 309.419C150.061 336.265 176.414 355.961 208.977 360.395Z" fill="#DADBE0"/>
    <path d="M156.409 237.634C147.13 239.68 138.475 243.915 131.166 249.987C123.857 256.058 118.106 263.789 114.393 272.535C114.61 271.39 114.839 270.141 115.092 268.915C116.766 261.017 119.046 253.26 121.909 245.712C122.86 243.123 123.754 240.877 124.499 239.078C124.751 238.792 125.014 238.494 125.301 238.207C129.804 233.464 137.549 228.88 150.13 224.927L151.196 224.595C151.124 226.828 151.515 229.051 152.341 231.126C152.78 232.154 153.297 233.146 153.888 234.094C154.633 235.339 155.476 236.523 156.409 237.634Z" fill="black" opacity="0.1"/>
    <path d="M193.83 402.515C193.635 403.042 190.633 411.395 187.436 420.286C187.436 420.366 186.29 423.609 186.222 423.723C174.191 417.479 143.69 399.547 125.391 362.4C117.019 345.362 112.434 326.713 111.951 307.734C116.77 324.906 124.666 341.061 135.257 355.411C150.444 375.851 170.607 392.066 193.83 402.515Z" fill="black" opacity="0.1"/>
    <path d="M196.648 214.615C185.454 211.59 174.695 203.845 171.063 198.574C170.403 197.751 169.965 196.773 169.791 195.733C169.653 194.449 169.63 193.155 169.607 191.814C169.607 189.958 169.607 188.056 169.837 186.177C170.158 181.32 170.925 176.502 172.128 171.785C172.231 171.407 172.575 170.262 172.919 168.932C174.683 163.02 176.253 158.334 177.502 154.988C177.571 155.572 178.086 158.254 179.347 158.54C180.607 158.826 182.956 156.34 184.228 152.135L208.565 161.576L215.21 174.352C215.21 174.352 214.97 175.864 214.775 178.271C214.397 182.411 214.305 186.572 214.5 190.725C214.473 193.859 215.041 196.97 216.173 199.892C219.599 207.488 210.043 218.282 196.648 214.615Z" fill="#FFCB9D"/>
    <path d="M214.512 190.737C203.964 190.424 193.821 186.606 185.684 179.886C183.17 179.298 180.543 179.409 178.087 180.207C174.432 181.456 173.676 183.644 170.227 185.936L169.906 186.096C170.233 181.274 171 176.491 172.198 171.808C172.301 171.43 172.645 170.284 172.988 168.955C174.753 163.043 176.323 158.357 177.572 155.011C177.64 155.595 178.156 158.277 179.416 158.563C180.677 158.849 183.026 156.363 184.297 152.158L208.634 161.599L215.28 174.375C215.28 174.375 215.039 175.887 214.844 178.294C214.448 182.429 214.337 186.586 214.512 190.737Z" fill="black" opacity="0.1"/>
    <path d="M228.709 174.226C228.282 175.774 227.419 177.166 226.223 178.236C223.693 180.423 220.662 181.95 217.4 182.682C203.043 185.993 189.374 170.697 185.696 166.182C184.488 167.427 183.101 168.485 181.582 169.322C180.36 169.926 179.272 170.772 178.385 171.808C178.065 172.335 177.721 172.862 177.469 173.389C177.108 174.028 176.783 174.686 176.495 175.36C176.095 176.278 175.762 177.224 175.498 178.19C175.247 179.083 175.048 179.99 174.902 180.906C173.917 186.967 175.04 192.96 174.18 199.376C172.519 211.407 164.063 222.498 154.45 229.614C151.004 232.215 147.218 234.331 143.198 235.904C142.539 236.163 141.866 236.385 141.181 236.569C140.288 236.844 139.394 237.096 138.5 237.336C119.361 242.605 99.1383 242.482 80.0647 236.981C61.9315 230.633 46.2011 218.84 35.0234 203.215C38.0431 199.845 41.4028 196.796 45.0492 194.117C46.7679 192.879 48.1543 191.974 49.1167 191.378C50.2625 190.68 51.4083 189.992 52.6458 189.316C58.1762 186.108 63.844 183.155 69.6494 180.459C75.6763 177.526 82.8032 169.769 87.2374 148.377C91.5501 160.036 98.7064 170.434 108.057 178.626C118.747 187.792 137.469 198.448 144.218 192.513C148.939 188.376 143.072 181.685 147.415 171.785C155.939 152.605 184.664 149.775 186.532 149.626C190.829 149.282 207.305 147.907 219.565 158.528C222.774 161.255 230.359 167.821 228.709 174.226Z" fill="#232B41"/>
    <path d="M175.498 178.248C175.246 179.14 175.047 180.047 174.902 180.963C173.916 187.024 175.039 193.017 174.18 199.433C172.519 211.464 164.063 222.556 154.449 229.671C149.347 232.68 144.005 235.263 138.477 237.394C119.338 242.663 99.1149 242.54 80.0413 237.038C61.9081 230.69 46.1776 218.898 35 203.272C38.0197 199.902 41.3794 196.853 45.0257 194.174C46.7444 192.937 48.1308 192.031 49.0933 191.436C50.2391 190.737 51.3849 190.049 52.6224 189.373C53.8369 199.032 57.7326 213.103 69.8093 221.891C78.3913 228.147 87.3171 228.961 95.0168 229.671C124.555 232.386 146.578 215.921 149.648 213.492C161.354 204.356 170.301 192.157 175.498 178.248Z" fill="black" opacity="0.5"/>
    <path d="M226.223 178.236C223.693 180.423 220.662 181.95 217.4 182.682C203.032 185.993 189.374 170.697 185.696 166.183C184.673 164.064 183.875 161.844 183.312 159.56C188.397 165.94 194.969 170.975 202.452 174.226C209.935 177.476 218.101 178.841 226.234 178.202L226.223 178.236Z" fill="black" opacity="0.5"/>
</svg>
