<svg xmlns="http://www.w3.org/2000/svg" width="800" height="600" fill="none" viewBox="0 0 800 600">
    <path d="M150 299.992C150 342.33 194.758 373.041 214.535 407.217C234.947 442.45 239.844 496.392 275.112 516.78C309.3 536.558 357.957 514.431 400.295 514.431C442.634 514.431 491.29 536.546 525.466 516.78C560.699 496.392 565.632 442.474 586.044 407.217C605.821 373.041 650.579 342.33 650.579 299.992C650.579 257.653 605.88 226.965 586.044 192.789C565.632 157.556 560.735 103.614 525.466 83.2146C491.29 63.4489 442.622 85.5634 400.295 85.5634C357.969 85.5634 309.3 63.4489 275.112 83.2146C239.879 103.614 234.947 157.521 214.535 192.789C194.758 226.965 150 257.677 150 299.992Z" fill="#066FD1" opacity="0.02"/>
    <path d="M309.065 443.601C382.334 443.601 441.729 438.748 441.729 432.761C441.729 426.774 382.334 421.921 309.065 421.921C235.797 421.921 176.401 426.774 176.401 432.761C176.401 438.748 235.797 443.601 309.065 443.601Z" fill="#D6D8E2" opacity="0.5"/>
    <path d="M394.764 424.258H347.787C344.405 424.246 341.165 422.897 338.773 420.505C336.382 418.114 335.033 414.874 335.021 411.492V403.659C336.277 400.676 337.534 397.669 338.767 394.651C345.117 379.195 351.032 363.928 356.513 348.848C356.196 350.833 354.058 366.359 365.556 379.019C377.053 391.679 392.779 391.034 394.776 390.904C398.15 390.949 401.377 392.296 403.784 394.663C404.972 395.843 405.915 397.246 406.56 398.792C407.205 400.338 407.539 401.996 407.542 403.67V411.504C407.526 414.886 406.174 418.125 403.781 420.514C401.387 422.903 398.146 424.249 394.764 424.258Z" fill="#DDDDDD"/>
    <path d="M394.764 424.258H347.787C344.405 424.246 341.165 422.897 338.773 420.505C336.382 418.114 335.033 414.874 335.021 411.492V403.659C336.277 400.676 337.534 397.669 338.767 394.651C345.117 379.195 351.032 363.928 356.513 348.848C356.196 350.833 354.058 366.359 365.556 379.019C377.053 391.679 392.779 391.034 394.776 390.904C398.15 390.949 401.377 392.296 403.784 394.663C404.972 395.843 405.915 397.246 406.56 398.792C407.205 400.338 407.539 401.996 407.542 403.67V411.504C407.526 414.886 406.174 418.125 403.781 420.514C401.387 422.903 398.146 424.249 394.764 424.258Z" fill="black" opacity="0.15"/>
    <path d="M306.329 381.673H257.32C249.283 381.673 242.769 388.188 242.769 396.224V407.37C242.769 415.406 249.283 421.921 257.32 421.921H306.329C314.365 421.921 320.88 415.406 320.88 407.37V396.224C320.88 388.188 314.365 381.673 306.329 381.673Z" fill="#DDDDDD"/>
    <path d="M306.329 381.673H257.32C249.283 381.673 242.769 388.188 242.769 396.224V407.37C242.769 415.406 249.283 421.921 257.32 421.921H306.329C314.365 421.921 320.88 415.406 320.88 407.37V396.224C320.88 388.188 314.365 381.673 306.329 381.673Z" fill="black" opacity="0.15"/>
    <path d="M277.144 360.51C276.545 360.087 250.637 354.109 245.646 335.941C242.921 326.005 249.792 318.876 255.946 303.221C258.741 296.116 269.17 268.622 264.296 246.414C258.576 220.4 232.586 205.18 219.667 198.92C227.83 234.294 221.194 254.647 213.372 266.779C202.133 284.184 187.535 285.675 179.443 307.003C177.482 312.194 169.554 333.251 180.406 351.89C189.402 367.345 205.997 371.855 212.668 373.84C245.74 383.693 273.703 363.129 277.144 360.51Z" fill="#066FD1"/>
    <path d="M309.065 394.381H381.164C385.251 394.381 389.17 396.004 392.059 398.894C394.949 401.783 396.572 405.703 396.572 409.789V419.185C396.572 423.271 394.949 427.19 392.059 430.08C389.17 432.97 385.251 434.593 381.164 434.593H324.474C320.387 434.593 316.468 432.97 313.579 430.08C310.689 427.19 309.065 423.271 309.065 419.185V394.381Z" fill="#DDDDDD"/>
    <path d="M408.939 337.186C408.939 337.186 411.406 302.058 448.365 282.351C448.365 282.351 464.384 333.486 444.055 361.215C423.726 388.943 408.939 337.186 408.939 337.186Z" fill="#066FD1"/>
    <path d="M396.925 328.612C396.925 328.612 394.177 289.41 352.907 267.401C352.907 267.401 335.021 324.49 357.722 355.483C380.424 386.477 396.925 328.612 396.925 328.612Z" fill="#066FD1"/>
    <path d="M461.236 370.998C461.233 386.535 455.548 401.535 445.254 413.172C434.96 424.81 420.766 432.282 405.345 434.182H405.228C392.402 435.736 379.407 433.351 367.969 427.345C356.531 421.338 347.191 411.993 341.19 400.553C335.189 389.112 332.81 376.116 334.37 363.291C335.93 350.466 341.355 338.419 349.924 328.751C358.493 319.082 369.8 312.249 382.345 309.16C394.889 306.07 408.077 306.87 420.156 311.453C432.235 316.036 442.634 324.186 449.972 334.819C457.309 345.453 461.238 358.067 461.236 370.986V370.998Z" fill="#DDDDDD"/>
    <path d="M442.023 386.277C441.36 386.275 440.722 386.024 440.236 385.574C439.749 385.124 439.449 384.508 439.396 383.847C439.343 383.186 439.54 382.529 439.948 382.007C440.357 381.485 440.946 381.135 441.6 381.027L505.454 370.892C506.147 370.781 506.856 370.951 507.424 371.363C507.992 371.774 508.374 372.395 508.484 373.088C508.595 373.781 508.425 374.49 508.014 375.058C507.602 375.626 506.981 376.008 506.288 376.118L442.434 386.277H442.023Z" fill="#066FD1"/>
    <path d="M485.077 407.358C484.928 407.369 484.779 407.369 484.631 407.358L441.576 399.924C440.884 399.806 440.268 399.417 439.863 398.845C439.458 398.272 439.297 397.562 439.415 396.871C439.533 396.179 439.921 395.563 440.494 395.158C441.067 394.752 441.777 394.591 442.468 394.71L485.535 402.144C486.181 402.267 486.758 402.625 487.155 403.149C487.552 403.673 487.74 404.326 487.683 404.981C487.626 405.637 487.328 406.247 486.847 406.695C486.365 407.143 485.734 407.396 485.077 407.405V407.358Z" fill="#066FD1"/>
    <path d="M408.939 395.661C413.719 395.661 417.594 391.786 417.594 387.005C417.594 382.225 413.719 378.35 408.939 378.35C404.158 378.35 400.283 382.225 400.283 387.005C400.283 391.786 404.158 395.661 408.939 395.661Z" fill="#232B41"/>
    <path d="M405.228 434.194C392.168 435.768 378.941 433.263 367.362 427.022C355.782 420.782 346.417 411.111 340.552 399.337C348.779 399.533 357.011 399.305 365.215 398.656C379.214 397.481 385.474 395.731 392.344 399.83C399.544 404.152 402.374 411.915 403.607 415.309C405.782 421.356 406.341 427.865 405.228 434.194Z" fill="black" opacity="0.15"/>
    <path d="M382.032 394.439H382.15C373.048 392.149 360.211 387.393 355.373 376.482C351.074 366.84 355.901 358.948 356.453 350.046C356.584 348.08 356.457 346.106 356.077 344.174C355.607 341.825 354.903 341.402 355.055 340.65C355.467 338.701 377.217 339.417 377.44 337.937C377.699 336.281 351.603 325.641 321.655 329.07C311.111 330.337 300.646 332.192 290.309 334.625C283.877 336.11 277.374 337.267 270.825 338.09C262.29 339.576 253.508 338.62 245.493 335.33C237.083 341.321 230.166 349.17 225.281 358.267C219.095 369.994 216.474 383.274 217.741 396.471V422.168C217.769 426.013 219.312 429.692 222.037 432.406C224.761 435.119 228.447 436.648 232.292 436.66H281.301C285.144 436.642 288.825 435.108 291.545 432.393C294.265 429.678 295.804 425.999 295.829 422.156V411.011C295.824 408.641 295.242 406.309 294.133 404.216C293.024 402.122 291.421 400.331 289.463 398.996C296.064 398.996 302.582 398.891 309.041 398.761V419.243C309.05 423.327 310.677 427.241 313.564 430.129C316.452 433.016 320.366 434.643 324.45 434.652H381.14C385.223 434.643 389.137 433.016 392.025 430.129C394.913 427.241 396.539 423.327 396.548 419.243V409.848C396.544 405.915 395.039 402.131 392.342 399.268C389.645 396.405 385.958 394.678 382.032 394.439Z" fill="#DDDDDD"/>
    <path d="M333.904 412.091C333.288 412.096 332.69 411.885 332.213 411.495C331.736 411.105 331.41 410.561 331.291 409.957C331.173 409.352 331.27 408.725 331.564 408.184C331.859 407.643 332.334 407.222 332.906 406.994L373.424 390.634C373.747 390.497 374.094 390.426 374.444 390.425C374.795 390.423 375.142 390.492 375.466 390.626C375.79 390.76 376.084 390.957 376.33 391.206C376.577 391.454 376.772 391.75 376.904 392.075C377.036 392.4 377.101 392.747 377.097 393.098C377.093 393.448 377.02 393.795 376.88 394.116C376.741 394.438 376.539 394.729 376.287 394.972C376.034 395.215 375.736 395.405 375.409 395.532L334.891 411.903C334.577 412.027 334.242 412.091 333.904 412.091Z" fill="#066FD1"/>
    <path d="M312.389 383.811C311.688 383.823 311.011 383.557 310.507 383.07C310.002 382.583 309.712 381.916 309.7 381.215C309.687 380.514 309.954 379.837 310.44 379.333C310.927 378.829 311.594 378.538 312.295 378.526L376.889 376.118C377.236 376.105 377.582 376.16 377.908 376.281C378.233 376.402 378.532 376.585 378.787 376.822C379.041 377.058 379.247 377.342 379.392 377.657C379.537 377.973 379.618 378.314 379.631 378.661C379.644 379.008 379.589 379.354 379.468 379.68C379.348 380.005 379.164 380.304 378.928 380.559C378.692 380.813 378.408 381.019 378.092 381.164C377.777 381.309 377.436 381.39 377.089 381.403L312.495 383.811H312.389Z" fill="#066FD1"/>
    <path d="M576.002 129.851L602.403 98.5173V89.1571H557.2V100.913H582.931L556.601 132.247V141.619H603.519V129.851H576.002Z" fill="#232B41"/>
    <path d="M524.468 199.049L544.352 175.454V168.396H510.316V177.251H529.695L509.858 200.857V207.916H545.209V199.049H524.468Z" fill="#066FD1"/>
    <path d="M473.404 245.603L486.616 229.925V225.227H463.985V231.123H476.869L463.691 246.801V251.499H487.18V245.603H473.404Z" fill="#A7AAB3"/>
    <path d="M253.55 363.282C253.55 363.282 276.604 373.852 278.33 390.634C278.354 390.634 282.441 362.671 253.55 363.282Z" fill="#A7AAB3"/>
</svg>
