<svg xmlns="http://www.w3.org/2000/svg" width="800" height="600" fill="none" viewBox="0 0 800 600">
    <path d="M119 322.955C119 365.762 164.177 396.722 184.237 431.157C204.772 466.698 209.827 521.195 245.368 541.729C279.961 561.632 329.087 539.36 371.736 539.36C414.385 539.36 463.669 561.632 498.104 541.729C533.645 521.195 538.7 466.698 559.234 431.157C579.137 396.564 624.314 365.604 624.314 322.797C624.314 279.99 579.137 249.03 559.234 214.594C538.7 179.053 533.645 124.557 498.104 104.022C463.511 83.9614 414.385 106.392 371.736 106.392C329.087 106.392 279.803 83.9614 245.368 104.022C209.669 124.557 204.772 179.053 184.237 214.594C164.177 249.188 119 280.148 119 322.955Z" fill="#066FD1" opacity="0.02"/>
    <path d="M448.82 160.256C447.241 205.906 409.014 241.605 363.522 240.026C317.871 238.446 282.173 200.22 283.752 154.727C284.068 145.092 286.122 135.456 289.755 126.611L366.365 157.571L444.871 131.823C447.873 140.985 449.136 150.62 448.82 160.256Z" fill="#DADBE0"/>
    <path d="M448.82 160.256C447.241 205.906 409.014 241.605 363.522 240.026C317.871 238.446 282.173 200.22 283.752 154.727C284.068 145.092 286.122 135.456 289.755 126.611L366.365 157.571L444.871 131.823C447.873 140.985 449.136 150.62 448.82 160.256Z" fill="black" opacity="0.07"/>
    <path d="M343.461 78.1169C319.135 85.2251 299.232 103.075 289.754 126.453L366.365 157.571L343.461 78.1169Z" fill="#066FD1"/>
    <path d="M369.05 74.9578C360.363 74.6419 351.833 75.7476 343.461 78.117L366.365 157.571L444.871 131.823C433.972 98.8097 403.802 76.0635 369.05 74.9578Z" fill="#232B41"/>
    <path d="M484.52 120.924L483.098 116.817L367.787 154.727L337.617 50L333.352 51.2637L362.89 153.78L269.22 115.869L267.641 119.976L365.576 159.624L366.366 159.94L367.155 159.782L484.52 120.924Z" fill="#232B41"/>
    <path d="M634.581 518.193C634.581 522.458 519.428 525.933 377.422 525.933C235.416 525.933 120.264 522.458 120.264 518.193C120.264 513.928 235.416 510.453 377.422 510.453C519.428 510.453 634.581 513.928 634.581 518.193Z" fill="#D6D8E2" opacity="0.5"/>
    <path d="M267.166 226.125C266.376 235.445 265.586 244.607 264.797 253.926C263.217 271.776 261.637 289.625 260.216 307.475C258.952 321.375 257.846 335.276 256.583 349.018H185.817C184.395 335.118 183.131 321.217 181.71 307.475C180.92 299.577 180.13 291.837 179.34 283.939L173.654 226.125H267.166Z" fill="#066FD1"/>
    <path d="M188.502 157.097C188.66 160.888 188.976 166.574 189.45 173.367C189.608 174.946 189.766 176.21 189.766 176.684C190.714 184.266 192.451 191.69 195.137 198.64C195.769 200.062 196.242 201.326 196.874 202.747C198.612 206.222 209.037 210.329 220.568 211.593C224.517 212.067 228.624 212.067 232.573 211.593C245.052 210.329 251.055 200.22 249.475 192.954C249.159 191.216 248.211 189.637 246.948 188.373C244.578 185.688 242.683 182.686 241.419 179.527C239.524 175.262 237.944 170.839 236.838 166.259C236.048 163.731 235.732 161.994 235.732 161.994L223.57 151.41H194.347C194.663 156.307 193.399 159.782 191.82 160.098C190.24 160.414 188.818 157.729 188.502 157.097Z" fill="#FFCB9D"/>
    <path d="M188.502 157.097C188.66 160.888 188.976 166.575 189.45 173.367C189.608 174.946 189.766 176.21 189.766 176.684C190.714 184.266 192.451 191.69 195.137 198.64C197.032 198.009 198.77 197.061 200.349 195.797C202.087 194.375 203.351 192.638 204.456 190.742C205.404 188.689 206.194 186.478 206.51 184.108C206.826 182.686 206.984 181.107 207.142 179.685C218.357 183.476 230.52 183.318 241.577 179.369C239.681 175.104 238.102 170.682 236.996 166.101C236.206 163.573 235.89 161.836 235.89 161.836L223.728 151.252H194.505C194.821 156.149 193.557 159.624 191.978 159.94C190.398 160.256 188.818 157.729 188.502 157.097Z" fill="black" opacity="0.1"/>
    <path d="M184.869 163.415C185.027 169.576 187.396 175.262 191.661 179.685C192.609 180.475 193.399 181.265 194.189 182.054C196.242 184.582 197.506 187.425 198.138 190.584C199.559 189.005 200.349 186.951 200.507 184.898C200.665 181.739 199.243 175.736 199.243 174.946V174.472C199.243 174.314 199.243 173.841 199.086 173.051C198.928 171.471 198.928 169.892 199.086 168.312V168.154C206.51 172.735 227.676 183.634 241.735 172.893C243.946 171.155 245.842 169.26 247.579 167.048C247.737 166.89 247.895 166.732 248.053 166.416C248.527 165.785 248.843 165.311 249.159 164.679L249.317 164.521C250.265 162.941 250.896 161.204 251.212 159.466L251.37 158.834C251.528 158.045 251.528 157.255 251.37 156.465C251.054 153.464 249.475 150.62 247.263 148.567C243.156 144.46 237.154 142.091 233.837 140.827C221.358 135.772 202.561 134.666 191.819 145.882C189.134 148.883 187.239 152.358 186.133 156.149C185.343 158.36 185.027 160.888 184.869 163.415Z" fill="#232B41"/>
    <path d="M199.086 168.154C206.51 172.735 227.676 183.634 241.735 172.893C243.946 171.155 245.842 169.26 247.579 167.048C247.737 166.89 247.895 166.732 248.053 166.417C248.527 165.785 248.843 165.311 249.159 164.679C249.159 164.679 249.159 164.521 249.317 164.521C250.265 162.941 250.897 161.204 251.213 159.466C247.895 162.626 244.104 165.311 239.839 167.364C219.147 177.158 197.348 164.995 193.873 163.099L193.557 162.941C195.295 164.679 197.19 166.417 199.086 168.154Z" fill="black" opacity="0.5"/>
    <path d="M185.659 349.018L191.819 496.237H203.666L220.252 382.506L231.625 496.237H240.471L256.425 349.018H185.659Z" fill="#DADBE0"/>
    <path d="M217.093 516.772L190.398 513.77C190.398 513.77 189.45 506.82 193.557 504.451C197.664 502.081 212.67 510.295 217.093 516.772ZM256.425 516.772L229.73 513.77C229.73 513.77 228.782 506.82 232.889 504.451C236.996 502.081 252.002 510.295 256.425 516.772Z" fill="#232B41"/>
    <path d="M231.625 496.237L220.252 382.506L225.307 349.018H256.425L240.471 496.237H231.625Z" fill="black" opacity="0.15"/>
    <path d="M210.616 224.23C214.565 228.337 219.62 231.022 225.306 232.128L226.096 232.286L239.997 225.967L210.616 224.23Z" fill="#FFCB9D"/>
    <path d="M210.616 224.23C214.565 228.337 219.62 231.022 225.306 232.128L226.096 232.286L239.997 225.967L210.616 224.23Z" fill="black" opacity="0.1"/>
    <path d="M226.096 232.286L243.314 219.965L247.263 224.072L235.574 241.606L226.096 232.286ZM225.307 232.286L199.085 215.858L193.241 221.387L210.932 244.449L225.307 232.286Z" fill="#DADBE0"/>
    <path d="M226.096 232.286L243.314 219.965L247.263 224.072L235.574 241.605L226.096 232.286Z" fill="black" opacity="0.11"/>
    <path d="M195.61 357.232C197.032 357.864 198.138 358.654 199.243 359.759C203.35 363.235 204.772 368.131 202.561 371.922C199.717 376.819 192.135 378.241 185.343 374.924C184.553 374.608 183.921 374.134 183.29 373.66C178.077 370.185 175.865 364.498 178.393 360.233C181.236 355.495 188.976 354.073 195.61 357.232Z" fill="#FFCB9D"/>
    <path d="M195.611 357.232C197.032 357.864 198.138 358.654 199.244 359.759C199.086 359.917 198.928 360.233 198.77 360.391C196.874 363.55 199.718 367.026 198.454 368.447C197.19 369.869 193.557 366.552 189.924 368.447C188.344 369.395 186.923 370.343 185.659 371.606C184.869 372.238 184.08 373.028 184.08 373.028L183.448 373.818C178.235 370.343 176.024 364.656 178.551 360.391C181.236 355.494 188.976 354.073 195.611 357.232Z" fill="black" opacity="0.1"/>
    <path d="M233.047 211.119C233.837 212.383 234.942 213.489 236.048 214.436C241.893 219.017 249.633 219.491 253.424 215.384C256.741 211.751 255.951 205.749 251.686 201.168L249.949 199.43C244.578 195.165 237.786 194.533 233.679 197.535C233.363 197.851 232.889 198.166 232.573 198.482C229.414 201.8 229.888 206.854 233.047 211.119Z" fill="#FFCB9D"/>
    <path d="M233.047 211.119C233.837 212.383 234.942 213.489 236.048 214.436C241.893 219.017 249.633 219.491 253.424 215.384C256.741 211.751 255.951 205.749 251.686 201.168C251.528 201.326 251.212 201.484 250.896 201.8C247.579 203.853 241.735 205.907 237.944 204.011C235.258 202.747 234.311 199.904 233.679 197.693C233.363 198.009 232.889 198.324 232.573 198.64C229.414 201.8 229.888 206.854 233.047 211.119Z" fill="black" opacity="0.1"/>
    <path d="M272.695 297.523C263.059 290.573 255.003 243.501 255.003 243.501L247.421 254.4C245.368 252.663 244.42 252.505 244.104 252.663C241.103 254.558 251.212 288.678 272.695 297.523Z" fill="#066FD1"/>
    <path d="M238.575 219.965L255.003 243.501C255.003 243.501 263.059 290.573 272.695 297.523C274.274 298.155 275.854 298.629 277.433 298.945C280.435 299.577 288.333 301.314 292.755 297.523C300.495 290.889 298.6 267.195 257.846 193.428C251.528 202.431 245.052 211.119 238.575 219.965Z" fill="#066FD1"/>
    <path d="M216.461 247.608C221.042 270.354 225.623 293.1 230.045 315.847C231.467 292.942 233.047 270.038 234.626 247.292C231.625 242.237 228.782 237.341 225.781 232.286L224.991 232.444C222.305 237.499 219.462 242.553 216.461 247.608Z" fill="#DADBE0"/>
    <path d="M272.695 297.523C263.059 290.573 255.003 243.501 255.003 243.501L244.578 228.337C241.576 232.76 238.733 237.183 235.732 241.606L226.254 232.286C229.098 237.183 231.941 242.237 234.784 247.134L234.152 256.454C235.416 255.19 237.154 254.558 238.891 254.242C240.945 254.242 242.998 254.874 244.578 256.138C252.318 261.824 250.264 279.832 261.479 289.941C263.691 291.837 265.902 293.574 268.43 295.154C270.167 296.26 271.589 297.049 272.695 297.523Z" fill="black" opacity="0.1"/>
    <path d="M225.939 232.286L230.204 315.847C231.626 292.942 233.205 270.038 234.785 247.292C231.783 242.237 228.94 237.183 225.939 232.286Z" fill="black" opacity="0.11"/>
    <path d="M256.425 349.018H185.659C184.237 335.118 182.973 321.217 181.552 307.475C206.667 341.594 256.425 349.018 256.425 349.018Z" fill="black" opacity="0.1"/>
    <path d="M190.398 353.915C185.659 362.129 180.762 370.501 176.024 378.715C170.653 373.186 166.072 367.026 162.123 360.391C157.068 351.546 153.277 341.91 150.908 331.959C150.592 330.853 150.118 328.799 149.644 325.798C147.907 314.741 147.275 303.526 148.065 292.469C149.17 277.778 152.803 230.706 171.285 226.441C172.391 226.125 173.18 226.125 173.654 226.125C176.024 237.183 178.235 248.398 180.604 259.455C176.182 268.933 173.812 279.042 173.338 289.467C173.18 292.784 173.338 299.261 176.024 311.74C179.183 326.43 184.08 340.488 190.398 353.915Z" fill="#066FD1"/>
    <path d="M190.398 353.915C185.659 362.129 180.762 370.501 176.023 378.715C170.653 373.186 166.072 367.026 162.123 360.391C157.068 351.546 153.277 341.91 150.908 331.959C150.592 330.853 150.118 328.799 149.644 325.798C156.278 340.172 168.283 353.283 190.398 353.915ZM385.952 252.505C385.952 252.505 385.952 252.347 386.11 252.189C386.11 252.505 385.952 252.505 385.952 252.505ZM432.076 204.643C429.233 209.698 425.916 214.436 421.809 218.543C412.805 227.705 401.274 234.023 388.795 236.867C400.958 225.809 404.433 215.384 405.539 210.329C406.961 204.169 407.593 197.693 407.751 191.374C407.751 183.318 406.487 179.685 407.909 178.895C409.646 177.948 415.175 181.739 432.076 204.643Z" fill="black" opacity="0.1"/>
    <path d="M580.559 357.39C570.923 400.671 561.13 444.11 551.494 487.233C548.493 488.181 545.492 488.971 542.49 489.919L540.595 475.228C537.12 447.269 533.487 419.152 529.854 391.036L516.585 458.485L511.056 486.285L499.841 488.339L497.63 461.96L488.626 355.495L580.559 357.39Z" fill="#066FD1"/>
    <path d="M511.214 486.443C517.375 454.535 523.693 422.47 529.854 390.562C527.484 379.189 525.273 367.657 522.903 356.284L488.626 355.652L499.841 488.497L511.214 486.443Z" fill="black" opacity="0.15"/>
    <path d="M424.336 186.161C423.547 184.74 422.599 183.318 421.493 182.212C417.544 177.947 412.173 176.368 408.067 179.053C402.854 182.37 401.59 190.742 405.381 198.008C405.855 198.798 406.329 199.588 406.803 200.22C410.752 205.748 417.07 207.96 421.809 205.117C426.864 201.799 428.127 193.428 424.336 186.161Z" fill="#FFCB9D"/>
    <path d="M424.336 186.162C423.546 184.74 422.598 183.318 421.493 182.213C421.019 182.528 420.545 183.002 420.071 183.318C413.911 188.373 413.279 192.954 407.434 199.43C407.118 199.746 406.96 200.062 406.645 200.22C410.594 205.749 416.912 207.96 421.651 205.117C426.863 201.8 428.127 193.428 424.336 186.162Z" fill="black" opacity="0.1"/>
    <path d="M488.784 355.653L495.418 355.811L492.101 337.329C490.995 343.332 489.89 349.492 488.784 355.653ZM579.295 299.893C567.606 314.425 519.902 309.528 497.63 306.211C498.104 303.684 498.578 301.314 498.893 298.787C499.999 292.311 501.263 285.834 502.369 279.2C501.105 280.306 499.683 281.253 498.104 282.043C496.524 282.833 494.786 283.465 493.207 283.781C474.884 287.256 454.665 278.568 431.445 266.247C420.545 260.245 408.224 257.559 395.746 258.823C395.746 258.665 395.904 258.507 395.904 258.507C399.063 250.293 402.222 241.921 405.223 233.392C412.331 213.647 418.966 194.218 424.968 175.262C432.076 191.058 439.027 203.853 444.397 213.015C460.193 240.026 467.933 246.502 474.726 250.293C478.99 252.663 490.206 259.139 501.895 255.664C503.316 255.19 504.738 254.716 506.002 253.926L508.371 253.137C510.424 252.505 512.478 251.873 514.531 251.399C522.745 249.504 530.959 248.24 539.331 247.766C548.019 247.292 556.707 247.45 565.395 248.24C569.028 248.556 572.819 249.03 576.61 249.661H576.768C578.347 256.296 578.031 263.404 578.505 270.038C578.505 272.882 578.663 275.567 578.663 278.41C578.663 281.253 578.821 283.623 578.821 286.308C579.137 290.731 579.137 295.312 579.295 299.893ZM552.284 356.758L580.401 357.39C580.401 355.179 580.401 352.967 580.243 350.914C580.243 347.755 580.085 344.595 580.085 341.594C578.031 343.174 575.82 344.595 573.451 346.017C566.816 350.282 559.708 353.915 552.284 356.758Z" fill="#DADBE0"/>
    <path d="M567.764 252.821C567.764 262.614 556.075 270.67 541.701 270.67C527.326 270.67 515.637 262.614 515.637 252.821C515.637 252.347 515.637 251.715 515.795 251.241C524.009 249.345 532.223 248.082 540.595 247.608C549.283 247.134 557.97 247.292 566.658 248.082C567.448 249.503 567.764 251.241 567.764 252.821Z" fill="#FFCB9D"/>
    <path d="M557.338 515.35L556.075 507.768C556.075 507.768 556.075 500.344 551.494 498.764C546.913 497.185 533.644 509.506 530.327 517.404L546.281 511.401L548.65 517.404L557.338 515.35ZM514.531 515.35L513.267 507.768C513.267 507.768 513.267 500.344 508.687 498.764C504.106 497.185 490.837 509.506 487.52 517.404L503.474 511.401L506.001 517.404L514.531 515.35Z" fill="#232B41"/>
    <path d="M579.295 299.893C567.606 314.425 519.902 309.528 497.63 306.211L498.894 298.787C505.37 299.103 533.171 300.209 556.075 279.99C565.395 271.776 572.503 261.35 576.926 249.661C577.874 261.35 578.505 273.513 578.979 286.15C579.137 290.731 579.295 295.312 579.295 299.893ZM488.784 355.652L495.419 355.81L492.101 337.329C490.996 343.332 489.89 349.492 488.784 355.652ZM552.284 356.758L580.401 357.39C580.401 355.179 580.401 352.967 580.243 350.914C580.243 347.754 580.085 344.595 580.085 341.594C578.032 343.174 575.82 344.595 573.451 346.017C566.816 350.282 559.708 353.915 552.284 356.758Z" fill="black" opacity="0.1"/>
    <path d="M550.072 270.512C548.966 263.562 546.755 259.613 543.438 258.823C539.647 257.875 535.698 261.034 533.802 263.246C532.697 259.771 530.011 253.136 524.799 252.189C520.534 251.399 515.795 254.716 510.582 262.298C508.213 265.773 505.054 270.67 506.633 273.829C507.107 274.777 508.055 275.409 509.003 275.567C513.425 276.515 522.429 272.881 528.59 269.88C527.01 271.776 525.115 273.513 523.851 273.671C522.587 273.829 521.481 274.619 520.85 275.883C519.586 278.568 520.534 282.359 521.639 285.36L523.851 283.781C522.271 279.2 522.745 277.778 522.903 277.304C523.061 276.988 523.535 276.83 523.851 276.83C526.852 276.357 530.485 271.776 532.381 269.09C532.855 271.46 533.013 273.671 533.013 276.041C532.855 276.357 532.539 276.988 532.223 277.462C531.275 279.358 529.379 282.359 530.959 285.044C531.749 286.466 531.749 291.205 530.643 297.365L533.013 297.681C534.276 290.099 534.276 285.202 533.013 282.991C532.539 282.201 533.013 281.253 534.118 279.2C534.592 278.41 534.908 277.778 535.224 276.988C535.54 275.093 535.54 273.039 535.066 271.144C538.383 275.251 542.964 280.148 546.281 280.937C547.071 281.253 548.019 281.095 548.651 280.464C551.02 278.41 550.546 273.829 550.072 270.512ZM508.529 271.776C508.529 271.618 507.897 270.038 512.004 264.036C516.585 257.559 520.534 254.558 523.851 255.19H524.009C528.116 256.138 530.485 262.14 531.275 264.983C521.166 270.354 509.792 274.303 508.529 271.776ZM547.703 277.462C546.281 278.568 540.437 273.039 534.75 265.773C536.33 264.036 539.489 261.192 542.332 261.824H542.49C544.86 262.456 546.597 265.773 547.545 271.46C548.493 276.673 547.703 277.462 547.703 277.462Z" fill="#066FD1"/>
    <path d="M501.894 362.761H458.139L445.977 292.627H489.731L501.894 362.761Z" fill="#A7AAB3"/>
    <path d="M489.1 312.056C487.52 311.582 485.941 311.108 484.361 311.108C478.516 310.634 473.62 313.319 472.356 318.058C470.776 324.06 475.673 331.011 483.413 333.696C484.203 334.012 485.151 334.17 485.941 334.328C492.575 335.592 498.735 332.906 500.157 327.694C501.737 321.849 496.84 314.741 489.1 312.056Z" fill="#FFCB9D"/>
    <path d="M489.1 312.056C487.52 311.582 485.941 311.108 484.361 311.108C484.203 311.74 484.203 312.371 484.045 312.845C483.097 320.743 485.625 324.534 485.783 333.222V334.328C492.417 335.592 498.577 332.906 499.999 327.694C501.737 321.849 496.84 314.741 489.1 312.056Z" fill="black" opacity="0.1"/>
    <path d="M621.313 281.885C620.207 277.147 617.837 272.566 617.837 272.566C616.1 269.091 614.046 265.773 611.993 264.352L611.045 263.72C608.676 261.982 605.99 260.403 603.463 258.981C599.83 256.928 596.197 255.348 592.248 253.768C586.403 251.557 580.243 250.135 573.925 249.346C575.978 252.663 577.4 256.138 578.19 259.929C578.821 263.246 578.979 266.721 578.663 270.038L579.611 270.512C585.93 274.145 583.086 291.995 580.875 297.049C580.559 297.839 579.927 298.787 579.137 299.893C570.765 311.266 546.597 307.949 497.946 304.316C492.891 304 488.784 303.684 486.573 303.526L491.785 337.171L495.103 355.653L497.156 367.026C521.798 366.394 541.227 361.971 552.126 357.706C564.289 352.967 573.609 346.649 573.609 346.649C574.241 346.175 577.242 344.279 580.559 341.594C597.303 328.483 624.788 297.523 621.313 281.885Z" fill="#DADBE0"/>
    <path d="M531.591 239.868C544.386 237.972 557.339 230.706 561.92 225.336C562.709 224.546 563.341 223.44 563.815 222.334C564.131 220.913 564.289 219.491 564.447 218.069C564.763 216.016 564.763 213.962 564.921 211.751C565.079 206.38 564.763 200.852 564.131 195.481C564.131 195.007 563.815 193.744 563.657 192.164C562.393 185.372 561.288 180.001 560.498 176.21C560.34 176.842 559.392 179.685 557.971 179.843C556.549 180.001 554.337 177 553.39 172.103L525.273 179.527L516.269 192.796V197.219C516.269 201.957 515.795 206.538 515.163 211.119C514.847 214.594 513.742 217.911 512.162 221.071C507.107 228.969 516.269 242.237 531.591 239.868Z" fill="#FFCB9D"/>
    <path d="M514.848 211.119C526.537 212.067 538.226 209.066 548.177 202.589C551.02 202.273 554.022 202.747 556.549 203.853C560.498 205.749 560.972 208.118 564.605 211.119L564.921 211.435C565.079 206.064 564.763 200.536 564.131 195.165C564.131 194.691 563.815 193.428 563.657 191.848C562.394 185.056 561.288 179.685 560.498 175.894C560.34 176.526 559.392 179.369 557.971 179.527C556.549 179.685 554.338 176.684 553.39 171.787L525.273 179.211L516.269 192.48V196.903C515.953 201.957 515.479 206.538 514.848 211.119Z" fill="black" opacity="0.1"/>
    <path d="M680.231 284.255C660.802 289.309 650.535 297.839 644.848 305.263C638.53 313.161 625.735 334.486 613.414 340.646L611.203 341.752C605.043 344.753 598.566 346.965 591.932 348.702C580.085 333.064 571.397 315.215 566.184 296.26C560.498 275.093 559.392 251.083 559.392 234.971C559.392 227.073 559.708 221.071 559.866 218.227C560.182 213.962 560.182 209.54 559.866 205.275C559.708 203.379 559.55 201.484 559.076 199.746C558.76 198.64 558.444 197.535 557.97 196.587C557.339 195.165 556.391 193.902 555.285 192.638C553.548 190.742 551.81 189.005 549.757 187.583C545.176 192.006 528.116 207.328 512.636 201.958C509.161 200.694 506.002 198.64 503.474 195.955C502.369 194.691 501.579 192.954 501.263 191.216C500.157 184.266 509.951 177.316 513.268 174.946C518.638 171.155 536.172 158.677 556.707 164.205C572.503 168.47 581.033 180.949 587.351 190.426C602.041 212.857 596.829 227.389 604.727 243.817C611.361 258.191 629.21 276.041 680.231 284.255Z" fill="#232B41"/>
    <path d="M503.317 195.797C505.844 198.482 509.003 200.536 512.637 201.8C528.117 207.17 545.176 191.848 549.757 187.425C551.179 185.214 552.284 182.844 553.232 180.475C540.122 193.428 521.482 199.272 503.317 195.797ZM611.046 341.752C604.885 344.753 598.409 346.965 591.774 348.702C579.927 333.064 571.24 315.215 566.027 296.26C560.34 275.093 559.235 251.083 559.235 234.971C559.235 227.073 559.551 221.071 559.709 218.227C560.024 221.071 568.712 310.95 611.046 341.752Z" fill="black" opacity="0.5"/>
    <path d="M201.455 353.599C201.455 353.599 193.399 374.292 188.187 377.609C182.974 380.926 205.246 381.4 205.246 381.4L207.142 355.337L202.403 353.441L201.455 353.599Z" fill="#DADBE0"/>
    <path d="M502.369 279.2L498.104 282.043C496.524 282.833 494.786 283.465 493.207 283.781C474.884 287.256 454.665 278.568 431.445 266.247C420.545 260.245 408.224 257.559 395.746 258.823C395.746 258.665 395.904 258.507 395.904 258.507C402.222 257.244 423.862 253.61 440.29 262.93C459.561 274.145 502.369 279.2 502.369 279.2Z" fill="black" opacity="0.1"/>
</svg>
