<svg xmlns="http://www.w3.org/2000/svg" width="800" height="600" fill="none" viewBox="0 0 800 600">
    <path d="M78.2031 295.1C78.2031 346.948 133.15 384.681 157.494 426.615C182.516 469.918 188.634 535.881 231.882 560.994C273.901 585.289 333.752 558.146 385.703 558.146C437.655 558.146 497.49 585.289 539.524 560.994C582.772 536.022 588.89 469.918 613.912 426.615C638.256 384.681 693.203 347.074 693.203 295.1C693.203 243.127 638.13 205.519 613.912 163.585C588.89 120.281 582.772 54.1935 539.524 29.2059C497.506 4.91068 437.655 32.054 385.703 32.054C333.752 32.054 273.917 4.91068 231.882 29.2059C188.492 54.1777 182.516 120.281 157.494 163.585C133.15 205.661 78.2031 243.252 78.2031 295.1Z" fill="#066FD1" opacity="0.02"/>
    <path d="M691.203 511.6C691.203 514.61 560.684 517.1 400.203 517.1C239.723 517.1 109.203 514.626 109.203 511.6C109.203 508.574 239.723 506.1 400.203 506.1C560.684 506.1 691.203 508.574 691.203 511.6Z" fill="#D6D8E2" opacity="0.5"/>
    <path d="M295.905 449.557L288.129 447.255C284.494 446.179 280.674 448.254 279.598 451.889L264.649 502.39C263.573 506.026 265.647 509.845 269.283 510.921L277.058 513.223C280.693 514.299 284.513 512.224 285.589 508.589L300.539 458.088C301.615 454.452 299.54 450.633 295.905 449.557Z" fill="#232B41"/>
    <path d="M471.447 513.225L479.222 510.923C482.858 509.847 484.932 506.028 483.856 502.392L468.907 451.891C467.83 448.255 464.011 446.181 460.375 447.257L452.6 449.559C448.965 450.635 446.89 454.454 447.966 458.09L462.916 508.591C463.992 512.226 467.812 514.301 471.447 513.225Z" fill="#232B41"/>
    <path d="M508.187 263.707V391.493C508.187 391.73 508.187 391.951 508.172 392.188C507.935 406.537 499.888 418.943 488.117 425.391C482.641 428.393 476.33 430.1 469.639 430.1H277.735C272.481 430.1 267.463 429.041 262.919 427.145C249.712 421.645 240.229 408.971 239.298 393.99C239.235 393.152 239.203 392.33 239.203 391.493V263.707C239.203 260.578 239.582 257.544 240.276 254.636C244.347 237.679 259.59 225.1 277.735 225.1H469.639C475.351 225.1 480.779 226.348 485.671 228.593C496.29 233.46 504.322 243.037 507.13 254.636C507.824 257.56 508.203 260.578 508.203 263.707H508.187Z" fill="#A6A9B3"/>
    <path d="M263.203 255.1H213.203V434.1H263.203V255.1Z" fill="#DADCE0"/>
    <path d="M205.238 255.1H256.203V323.1H205.238C186.452 323.1 171.203 307.867 171.203 289.1C171.203 270.333 186.452 255.1 205.238 255.1Z" fill="#DADCE0"/>
    <path d="M539.203 255.1H488.203V434.1H539.203V255.1Z" fill="#DADCE0"/>
    <path d="M581.203 289.092C581.203 307.863 565.775 323.1 546.752 323.1H495.203V255.1H546.752C556.264 255.1 564.868 258.886 571.119 265.059C574.634 268.53 577.402 272.756 579.135 277.468C580.487 281.112 581.203 285.024 581.203 289.108V289.092Z" fill="#DADCE0"/>
    <path d="M213.203 381.1H539.203V430.253C539.203 446.726 525.752 460.1 509.183 460.1H243.239C226.67 460.1 213.219 446.726 213.219 430.253V381.1H213.203Z" fill="#DADCE0"/>
    <path d="M623.34 437.981C627.694 434.892 650.081 418.707 646.894 409.537C646.815 409.347 645.537 405.751 643.092 405.355C641.183 405.039 639.589 406.797 632.601 411.722C630.613 413.132 629.997 413.433 629.177 413.322C625.754 412.973 623.813 406.417 625.801 402.552C627.899 398.53 637.428 399.084 642.524 392.448C644.591 389.787 645.206 387.649 645.285 386.002C645.316 385.226 645.521 381.599 643.423 380.221C640.394 378.226 631.954 384.165 631.37 384.561C630.786 385.036 630.045 385.258 629.303 385.226C628.53 385.115 627.82 384.751 627.284 384.212C624.712 381.758 631.449 367.425 626.89 359.633C624.444 355.42 618.576 352.997 615.61 354.596C614.6 355.135 612.77 356.513 612.849 361.929C613.085 374.932 619.727 387.57 617.361 389.36C616.698 389.866 615.61 389.391 614.758 389.043C606.317 385.527 608.258 368.834 601.884 367.456C600.606 367.219 599.281 367.535 598.272 368.359C595.085 370.893 596.331 378.226 598.619 383.072C599.281 384.482 601.222 387.047 605.15 392.163C609.078 397.278 609.425 397.468 609.851 398.799C611.949 404.69 608.92 412.15 605.97 412.847C604.298 413.243 602.01 411.247 598.966 406.686C594.801 400.477 587.922 401.301 585.083 405.593C582.905 408.84 585.193 413.322 587.37 418.39C589.389 423.03 592.071 429.666 594.911 438.092C604.472 438.123 613.89 438.06 623.324 437.981H623.34Z" fill="#066FD1"/>
    <path d="M631.997 496.158C630.519 499.09 628.851 501.926 626.885 504.603C618.626 515.932 601.809 515.932 593.551 504.603C581.328 487.793 579.157 464.625 579.204 449.759C579.235 440.964 580.038 435.1 580.038 435.1H640.35C640.35 435.1 645.148 469.74 631.982 496.158H631.997Z" fill="#DADCE0"/>
    <path d="M579.187 277.53C571.961 278.398 563.459 279.801 554.438 282.041C549.305 283.302 544.015 284.848 538.662 286.725C532.695 288.806 526.697 291.282 520.809 294.279C520.368 294.468 519.927 294.689 519.518 294.941C515.912 296.802 512.354 298.852 508.906 301.139C508.277 301.549 507.647 301.974 507.033 302.416C503.239 305.002 499.586 307.825 496.106 310.948C493.587 313.203 491.163 315.616 488.88 318.186C484.487 323.138 481.716 327.238 481.291 327.838C473.703 338.814 404.461 393.363 394.448 382.734C385.316 373.02 429.431 312.998 429.431 312.998C429.431 312.998 462.698 241.685 463.627 237.3C463.91 236.007 473.325 232.853 486.44 229.1C497.035 233.957 505.049 243.514 507.851 255.089H547.148C556.563 255.089 565.081 258.906 571.268 265.088C574.748 268.573 577.487 272.815 579.203 277.546L579.187 277.53Z" fill="black" opacity="0.1"/>
    <path d="M240.508 441.1C237.368 441.1 234.812 438.536 234.812 435.386V291.455C233.976 286.991 232.777 282.433 230.001 279.046C226.624 274.773 221.024 272.351 214.902 272.541C209.033 272.715 204.001 275.2 201.098 279.363L200.972 279.537C198.321 283.019 197.864 288.622 199.851 293.148C200.735 295.174 202.865 298.609 207.219 299.068C209.617 299.131 211.416 298.403 212.489 296.836C213.94 294.715 213.987 291.312 212.615 288.163C211.353 285.282 212.662 281.911 215.533 280.645C218.405 279.379 221.765 280.692 223.027 283.573C225.993 290.363 225.552 297.928 221.86 303.309C218.531 308.168 212.946 310.795 206.541 310.463H206.288C198.81 309.751 192.657 305.129 189.423 297.738C185.747 289.35 186.694 279.537 191.837 272.7C196.838 265.609 205.121 261.383 214.571 261.114C224.258 260.829 233.329 264.849 238.867 271.861C243.332 277.321 245.036 284.048 246.108 289.888L246.203 290.394V435.371C246.203 438.52 243.647 441.084 240.508 441.084V441.1Z" fill="#A6A9B3"/>
    <path d="M512.995 441.068C509.802 441.068 507.203 438.505 507.203 435.355V290.392L507.299 289.885C508.39 284.046 510.123 277.32 514.728 271.781C520.279 264.849 529.52 260.829 539.371 261.114C548.982 261.383 557.405 265.609 562.491 272.699C567.721 279.535 568.684 289.363 564.946 297.735C561.657 305.125 555.399 309.762 547.795 310.443H547.538C541.024 310.775 535.344 308.148 531.959 303.306C528.205 297.925 527.756 290.36 530.772 283.571C532.055 280.691 535.473 279.377 538.393 280.643C541.313 281.909 542.644 285.28 541.361 288.16C539.965 291.31 540.013 294.712 541.489 296.833C542.58 298.4 544.393 299.128 546.848 299.064C551.26 298.605 553.426 295.155 554.34 293.145C556.362 288.603 555.897 283.017 553.201 279.535L553.073 279.361C550.105 275.199 544.987 272.714 539.034 272.54C532.793 272.366 527.114 274.772 523.745 278.966C520.857 282.431 519.637 286.989 518.771 291.468V435.387C518.771 438.536 516.172 441.1 512.979 441.1L512.995 441.068Z" fill="#A6A9B3"/>
    <path d="M632.203 496.517C630.719 499.387 629.045 502.163 627.071 504.783C618.78 515.872 601.898 515.872 593.607 504.783C581.336 488.329 579.156 465.652 579.204 451.1C585.789 462.907 600.934 483.042 632.187 496.517H632.203Z" fill="black" opacity="0.1"/>
    <path d="M336.203 378.077C367.808 393.694 388.048 391.12 400.012 386.794C425.926 377.413 433.035 352.479 491.264 268.769C495.835 262.184 499.665 256.799 502.219 253.199C538.821 258.663 575.407 264.111 612.008 269.575C614.073 265.643 616.138 261.71 618.203 257.778C576.62 244.214 535.038 230.665 493.455 217.1C457.988 244.814 422.537 272.528 387.07 300.241C371.859 319.775 356.632 339.293 341.421 358.827C339.687 365.254 337.953 371.665 336.219 378.092L336.203 378.077Z" fill="#DADCE0"/>
    <path d="M336.203 378.077C367.808 393.694 388.048 391.12 400.012 386.794C425.926 377.413 433.035 352.479 491.264 268.769C495.835 262.184 499.665 256.799 502.219 253.199C538.821 258.663 575.407 264.111 612.008 269.575C614.073 265.643 616.138 261.71 618.203 257.778C576.62 244.214 535.038 230.665 493.455 217.1C457.988 244.814 422.537 272.528 387.07 300.241C371.859 319.775 356.632 339.293 341.421 358.827C339.687 365.254 337.953 371.665 336.219 378.092L336.203 378.077Z" fill="black" opacity="0.1"/>
    <path d="M543.181 275.171C541.38 276.073 532.265 287.354 532.265 287.354L438.14 266.231L378.203 322.1L386.425 260.756L411.343 222.308L414.225 217.846L426.613 198.733L429.588 194.128L433.504 188.1C433.504 188.1 544.998 274.301 543.181 275.171Z" fill="#DADCE0"/>
    <path d="M462.203 236.652C462.203 236.652 437.073 240.403 424.118 226.202C420.661 222.42 416.909 219.905 413.203 218.238L425.519 199.592L428.478 195.1C436.652 197.832 446.15 201.181 447.069 202.108C448.704 203.728 462.203 236.652 462.203 236.652Z" fill="black" opacity="0.1"/>
    <path d="M430.684 178.63C410.629 170.745 389.827 172.417 372.931 176.69C366.865 178.22 361.291 180.065 356.432 181.942C353.526 183.061 350.636 184.26 347.794 185.553C344.888 186.878 342.014 188.297 339.203 189.795C341.871 195.961 344.554 202.127 347.206 208.262C347.572 209.129 347.937 209.997 348.334 210.864C349.858 214.381 351.383 217.913 352.891 221.43C355.464 219.853 357.941 218.386 360.323 217.03C360.878 216.715 361.434 216.399 361.974 216.1C366.341 213.671 370.39 211.653 374.169 209.981C395.194 200.582 407.246 201.859 414.551 205.565C419.934 208.294 433.384 217.693 444.42 232.69C449.406 239.455 452.645 245.669 459.267 246.079C465.857 246.489 474.352 240.89 477.084 234.44C483.912 218.355 458.394 189.559 430.684 178.614V178.63Z" fill="#FFCB9D"/>
    <path d="M373.01 178.1C367.169 179.617 361.801 181.446 357.122 183.307C354.323 184.417 351.54 185.606 348.803 186.888C348.482 194.456 348.084 205.246 348.237 209.406C348.252 210.125 348.298 210.641 348.359 210.907C348.42 211.188 348.757 211.548 349.323 211.986C351.265 213.503 355.914 215.817 360.868 218.1C361.404 217.787 361.939 217.474 362.459 217.177C366.664 214.769 370.564 212.768 374.203 211.11C371.695 202.306 368.881 188.108 372.995 178.1H373.01Z" fill="black" opacity="0.1"/>
    <path d="M648.203 253.1L637.742 283.1C637.742 283.1 629.867 282.32 628.324 276.629C626.796 270.953 640.122 256.296 648.203 253.1Z" fill="#232B41"/>
    <path d="M569.203 283.315L544.961 304.1C544.961 304.1 538.048 299.351 539.371 293.606C540.71 287.861 560.157 281.929 569.203 283.299" fill="#232B41"/>
    <path d="M264.187 271.801C264.187 271.801 264.187 271.88 264.187 271.911C264.187 271.911 264.187 272.021 264.156 272.163C263.717 274.698 244.471 277.894 223.015 274.871C218.955 274.304 212.279 273.391 204.724 271.581C188.189 267.613 167.485 259.41 160.48 241.429C159.069 237.776 157.47 231.856 158.567 221.638C159.727 210.49 163.536 199.438 168.959 189.046C178.582 170.498 193.424 154.108 207.812 143.386C222.435 132.443 236.634 127.326 244.534 131.609C250.928 135.073 253.655 144.929 252.433 152.108C250.427 163.886 238.092 166.184 221.275 180.953C220.914 181.284 220.523 181.599 220.162 181.961C216.604 185.141 213.015 188.778 209.661 192.541C198.659 204.885 190.211 218.93 194.129 225.684C196.935 230.549 205.774 231.038 215.664 231.604H215.977C218.814 231.793 241.101 233.415 245.521 236.296L245.584 236.344L245.646 236.375C245.725 236.438 245.787 236.485 245.834 236.548C245.913 236.611 245.976 236.658 246.054 236.737C246.226 236.879 246.383 237.068 246.524 237.241C246.837 237.572 247.073 237.997 247.308 238.406C247.417 238.595 247.496 238.831 247.621 239.052C248.154 240.453 249.267 243.917 251.398 250.089C252.119 252.183 253.201 254.702 254.925 257.82C255.176 258.323 255.473 258.796 255.724 259.268C256.649 260.858 257.511 262.197 258.341 263.377C258.765 263.992 259.141 264.543 259.533 265.078C259.721 265.33 259.893 265.55 260.065 265.802C263.153 270.022 264.093 271.108 264.203 271.801H264.187Z" fill="#FFCB9D"/>
    <path d="M264.203 271.735C264.203 271.735 264.203 271.83 264.203 271.862C264.203 271.862 264.203 271.973 264.172 272.133C263.721 274.696 244.661 277.897 223.362 274.871C219.32 274.314 212.712 273.375 205.203 271.528C210.955 264.458 217.501 253.36 217.299 239.491C217.252 236.482 216.894 233.664 216.35 231.1C219.195 231.307 241.287 232.915 245.656 235.845C245.702 235.845 245.718 235.893 245.734 235.893C245.734 235.893 245.765 235.909 245.78 235.925C245.842 235.972 245.905 236.036 245.967 236.084C246.029 236.132 246.107 236.211 246.169 236.275C246.34 236.434 246.511 236.609 246.651 236.8C246.946 237.167 247.195 237.533 247.413 237.963C247.521 238.17 247.615 238.408 247.708 238.631C248.237 240.033 249.356 243.552 251.47 249.777C252.185 251.911 253.258 254.443 254.968 257.611C255.233 258.121 255.513 258.614 255.792 259.076C256.694 260.684 257.549 262.038 258.358 263.232C258.777 263.853 259.166 264.426 259.57 264.967C259.757 265.222 259.912 265.445 260.099 265.684C262.617 269.06 264.203 270.429 264.203 271.751V271.735Z" fill="black" opacity="0.1"/>
    <path d="M378.715 318.434C378.29 319.69 377.849 320.945 377.377 322.217C365.096 355.209 343.511 374.797 333.183 383.1C323.942 366.792 312.716 349.088 299.145 330.74C291.32 320.192 283.511 310.477 275.86 301.561C275.828 301.561 275.797 301.561 275.797 301.53C273.451 298.768 271.136 296.131 268.791 293.541C265.642 291.124 262.477 288.754 259.297 286.337C254.306 285.536 249.252 284.673 244.214 283.857C238.216 282.711 232.202 281.581 226.203 280.467C227.258 263.123 228.297 245.764 229.336 228.389C232.942 228.703 235.98 229.001 238.279 229.283C239.837 229.472 240.373 229.566 242.608 229.817C246.245 230.256 248.56 230.492 251.346 230.46C253.519 230.46 255.676 230.319 257.046 228.844C257.187 228.671 257.266 228.561 257.329 228.514C257.471 228.373 257.612 228.232 257.754 228.09C263.233 222.518 271.404 215.094 282.409 207.827C288.187 204.013 293.446 201.141 298.877 198.504C303.49 196.244 308.229 194.188 313.566 191.881C322.887 187.816 335.624 182.809 351.257 178.1C352.202 179.968 353.824 183.06 355.981 186.78C361.286 196.024 363.742 198.771 366.372 204.767C367.537 207.466 369.158 211.72 370.229 217.37C368.135 217.794 366.041 218.202 363.947 218.626C362.105 218.987 360.294 219.348 358.452 219.678C359.539 222.456 365.569 237.853 371.551 247.992C372.842 250.158 374.511 252.78 377.282 255.448C380.384 258.477 383.501 260.298 385.689 261.381C386.728 273.435 386.949 294.389 378.762 318.45L378.715 318.434Z" fill="#066FD1"/>
    <path d="M298.203 198.1C296.948 205.217 292.172 213.572 284.977 220.272C275.287 229.269 264.235 232.386 258.203 228.385C263.53 222.681 271.475 215.082 282.176 207.643C287.794 203.739 292.907 200.799 298.188 198.1H298.203Z" fill="#FFCB9D"/>
    <path d="M379.203 318.846C378.789 320.093 378.328 321.356 377.85 322.619C365.437 355.378 343.619 374.867 333.147 383.1C323.821 366.9 312.474 349.312 298.74 331.085C290.847 320.608 282.937 310.941 275.203 302.1C295.669 314.246 330.887 327.624 379.187 318.846H379.203Z" fill="black" opacity="0.1"/>
    <path d="M298.203 198.1C296.948 205.217 292.172 213.572 284.977 220.272C275.287 229.269 264.235 232.386 258.203 228.385C263.53 222.681 271.475 215.082 282.176 207.643C287.794 203.739 292.907 200.799 298.188 198.1H298.203Z" fill="black" opacity="0.1"/>
    <path d="M221.203 181.553C217.589 184.723 213.943 188.349 210.536 192.1C198.642 177.77 181.431 182.338 169.203 188.616C178.979 170.127 194.057 153.788 208.673 143.1C210.615 148.939 218.337 172.073 221.203 181.537V181.553Z" fill="black" opacity="0.1"/>
    <path d="M197.203 163.892C199.593 167.885 203.154 173.731 207.746 180.782C208.792 182.335 209.698 183.697 209.98 184.141C215.274 191.698 221.491 198.543 228.457 204.548C229.878 205.72 231.237 206.798 232.658 207.812C237.938 211.487 260.148 207.194 275.517 196.261C290.886 185.329 288.059 165.904 277.235 162.941C273.237 161.531 269.535 159.392 266.286 156.636C261.835 153.102 257.633 149.268 253.713 145.133C251.417 142.836 250.027 141.219 250.027 141.219L231.05 137.1L200.155 154.291C203.373 159.361 203.966 163.765 202.498 165.017C201.03 166.269 197.828 164.32 197.203 163.892Z" fill="#FFCB9D"/>
    <path d="M197.203 164.686C199.627 168.655 203.24 174.466 207.898 181.475C208.96 183.019 209.879 184.373 210.164 184.814C215.535 192.327 221.825 199.147 228.908 205.1C230.587 203.352 231.918 201.304 232.821 199.068C233.788 196.595 234.247 193.965 234.184 191.303C234.057 188.5 233.487 185.728 232.472 183.082C231.918 181.349 231.268 179.632 230.508 177.979C244.688 175.411 257.617 168.214 267.203 157.52C262.688 154.007 258.441 150.18 254.464 146.085C252.135 143.801 250.725 142.195 250.725 142.195L231.474 138.1L200.118 155.204C203.382 160.244 204 164.623 202.511 165.867C201.022 167.111 197.837 165.127 197.203 164.702V164.686Z" fill="black" opacity="0.1"/>
    <path d="M267.093 128.553C267.298 131.198 267.219 133.875 266.84 136.504C266.46 139.889 265.591 143.212 264.247 146.361C258.255 160.547 242.035 170.026 222.969 170.089C219.728 170.089 216.503 169.852 213.31 169.349L213.231 169.38C213.231 169.38 213.231 169.49 213.278 169.538C214.116 171.285 215.096 172.954 216.187 174.544C216.725 175.269 216.835 175.505 217.183 175.993L217.562 176.45C218.163 177.316 223.317 182.826 225.103 186.416C226.21 188.81 226.558 191.502 226.068 194.1C223.507 191.093 220.25 188.762 216.551 187.33C215.175 186.889 213.768 186.527 212.345 186.275C205.121 184.118 198.924 179.41 194.924 173.033C193.327 170.403 192.141 167.538 191.414 164.546C190.845 162.625 189.138 155.477 191.177 149.935C195.382 138.472 216.819 131.576 228.17 129.561C230.178 129.23 233.672 128.71 235.775 126.695C236.186 126.317 236.502 125.86 236.739 125.341C238.288 122.082 236.091 117.657 233.846 115.295C229.53 110.729 221.499 110.037 213.373 113.312C227.728 100.463 247.473 100.18 258.492 109.989C263.694 114.807 266.776 121.483 267.061 128.553H267.093Z" fill="#232B41"/>
    <path d="M267.093 129.1C267.298 131.711 267.219 134.353 266.841 136.949C266.464 140.29 265.598 143.57 264.261 146.678C258.298 160.681 242.155 170.038 223.18 170.1C218.365 169.711 214.259 169.385 213.567 169.369L213.488 169.401L206.203 167.753C216.257 167.287 226.154 165.018 235.389 161.054C243.54 157.542 254.899 152.693 262.153 140.881C264.387 137.228 266.055 133.25 267.093 129.1Z" fill="black" opacity="0.5"/>
</svg>
