<svg xmlns="http://www.w3.org/2000/svg" width="800" height="600" fill="none" viewBox="0 0 800 600">
    <path d="M122 300.019C122 347.027 171.8 381.119 193.675 419.167C216.481 458.495 221.833 518.302 261.161 540.875C299.093 562.866 353.198 538.199 400.322 538.199C447.446 538.199 501.435 562.75 539.483 540.875C578.578 518.186 584.047 458.379 606.853 419.167C628.844 381.235 678.527 347.027 678.527 300.019C678.527 253.012 628.844 218.92 606.853 180.871C584.163 141.776 578.695 81.7367 539.483 59.1638C501.435 37.1727 447.446 61.84 400.438 61.84C353.431 61.84 299.209 37.1727 261.277 59.0475C222.182 81.7367 216.713 141.66 193.908 180.755C171.8 218.92 122.116 253.012 122 300.019Z" fill="#066FD1" opacity="0.02"/>
    <path d="M169.008 452.91C169.008 456.052 273.728 458.612 402.649 458.612C531.571 458.612 636.291 456.052 636.291 452.91C636.291 449.769 531.804 447.209 402.649 447.209C273.495 447.209 169.008 449.769 169.008 452.91Z" fill="#D6D8E2" opacity="0.5"/>
    <path d="M504.11 204.608H298.627V445.58H504.11V204.608Z" fill="#232B41"/>
    <path d="M504.11 350.517V445.58H298.627V256.153C315.731 233.929 333.068 212.753 333.068 212.753H358.317C358.317 212.753 363.553 342.489 504.11 350.517Z" fill="black" opacity="0.1"/>
    <path d="M445.001 437.086H375.886C374.374 436.388 357.386 428.592 354.71 411.72C354.012 407.299 354.361 402.877 355.524 398.572C356.688 394.616 358.317 390.776 360.528 387.286C361.807 385.191 364.6 382.05 370.185 375.883C380.308 364.713 381.937 363.433 384.031 360.757C388.453 355.055 392.176 345.165 389.267 326.897C391.362 327.945 409.629 336.788 414.284 357.848C418.589 377.046 408.35 391.707 406.721 393.918C407.884 393.22 409.048 392.289 410.328 391.358C422.08 382.515 431.155 370.647 436.624 357.033C442.791 367.156 446.98 378.326 449.074 389.962C451.634 405.786 450.237 421.96 445.001 437.086Z" fill="#066FD1"/>
    <path d="M311.425 89.2998C310.843 91.2779 309.447 93.0232 307.702 94.0704C305.607 95.0012 303.164 95.1176 300.953 94.3031L300.837 94.1868C299.673 93.7213 298.51 93.1395 297.579 92.3251C295.252 90.8124 294.205 87.9036 294.903 85.2274C295.135 84.5293 295.368 83.8311 295.834 83.133C296.415 82.4349 296.997 81.6204 297.579 81.0386C298.51 79.9914 299.092 79.4096 299.441 79.0606C299.79 78.7115 300.022 78.4788 300.139 78.2461C300.953 77.1989 301.651 75.3372 301.07 71.9629C303.397 73.1264 305.142 75.2208 305.724 77.7807C306.189 80.1078 305.724 82.5512 304.328 84.5293C304.56 84.4129 304.793 84.1802 305.026 84.0638C306.422 83.0166 307.586 81.7367 308.516 80.3405C309.098 79.526 309.564 78.5951 309.913 77.6643C311.193 79.526 312.007 81.6204 312.24 83.8311C312.24 85.4601 312.007 87.4381 311.425 89.2998Z" fill="#A6A9B3"/>
    <path d="M445.001 437.086H375.886C374.374 436.388 357.386 428.592 354.71 411.72C354.012 407.299 354.361 402.877 355.524 398.572C372.047 399.736 395.55 400.201 406.604 393.918C407.884 393.22 409.048 392.289 410.211 391.358C421.963 382.515 431.039 370.647 436.508 357.033C442.674 367.156 446.863 378.326 448.958 389.962C451.634 405.786 450.237 421.96 445.001 437.086Z" fill="black" opacity="0.1"/>
    <path d="M391.944 438.598L391.712 438.482C390.781 438.017 377.749 431.501 374.724 417.422C374.142 414.629 372.978 409.277 375.538 404.041C376.585 401.946 378.098 399.968 379.727 398.339C382.17 395.78 385.079 393.569 388.221 391.94C386.01 400.318 389.268 408.811 395.319 412.186C403.231 416.724 416.03 412.535 420.451 401.132C429.527 413.931 428.014 429.755 419.288 437.202C409.048 445.929 393.224 439.18 391.944 438.598Z" fill="white"/>
    <path d="M541.228 147.128H260.812C252.783 147.128 246.268 153.644 246.268 161.673V205.073C246.268 213.102 252.783 219.618 260.812 219.618H265.001C273.029 219.618 279.545 226.134 279.545 234.046V438.366C279.545 446.394 286.061 452.91 294.09 452.91H511.209C519.237 452.91 525.753 446.394 525.753 438.366V233.929C525.404 232.184 525.404 230.206 526.451 229.392C527.964 228.112 530.407 230.439 534.712 230.439C535.41 230.439 541.112 230.322 542.625 226.948C543.555 224.737 542.508 221.829 540.297 219.501H541.345C549.373 219.501 555.889 212.986 555.889 204.957V161.556C555.773 153.644 549.257 147.128 541.228 147.128ZM482.934 422.541C482.934 430.57 476.418 437.086 468.39 437.086H336.792C328.763 437.086 322.248 430.57 322.248 422.541V248.707C322.248 240.678 328.763 234.162 336.792 234.162H468.39C476.418 234.162 482.934 240.678 482.934 248.59V422.541Z" fill="#A6A9B3"/>
    <path d="M555.772 161.557V163.185C564.033 187.155 560.077 211.124 545.3 224.272C539.715 229.159 532.966 232.417 525.752 233.813V284.079C508.182 292.573 493.754 294.783 482.933 294.667V248.474C482.933 240.445 476.417 233.93 468.389 233.93H406.721C396.249 209.844 390.664 180.057 392.176 146.896H541.227C549.256 147.128 555.772 153.644 555.772 161.557Z" fill="black" opacity="0.1"/>
    <path d="M373.326 207.051C363.203 207.051 356.571 203.793 352.615 200.768C343.306 193.671 341.445 183.199 339.816 173.89C338.419 166.327 337.256 159.811 332.369 157.484C328.645 155.739 325.155 157.484 319.221 160.742C312.356 164.465 303.978 169.12 290.714 168.421C286.059 168.189 271.748 167.374 264.301 156.67C261.392 152.364 259.996 147.245 260.112 142.009C260.112 140.962 260.927 140.147 261.974 140.147C263.021 140.147 263.836 140.962 263.836 142.125C263.719 146.547 264.999 150.968 267.443 154.692C273.726 163.884 286.641 164.582 290.83 164.814C302.931 165.513 310.843 161.207 317.243 157.717C323.06 154.575 328.064 151.783 333.765 154.342C340.63 157.484 341.91 165.28 343.423 173.541C344.935 182.151 346.681 191.925 354.825 198.092C359.014 201.234 366.577 204.724 379.027 203.212C394.735 201.35 403.113 186.457 411.839 170.749C420.217 155.739 428.944 140.263 444.884 137.471C453.262 136.075 462.454 138.402 472.228 144.452C473.159 145.034 473.391 146.198 472.81 147.128C472.228 148.059 471.064 148.292 470.133 147.71C461.29 142.125 452.913 140.031 445.466 141.311C431.387 143.754 423.475 157.833 415.214 172.727C406.371 188.551 397.179 204.957 379.493 207.168C377.515 206.935 375.42 207.051 373.326 207.051Z" fill="#232B41"/>
    <path d="M267.793 186.457C272.292 186.457 275.938 182.81 275.938 178.312C275.938 173.813 272.292 170.167 267.793 170.167C263.295 170.167 259.648 173.813 259.648 178.312C259.648 182.81 263.295 186.457 267.793 186.457Z" fill="white"/>
    <path d="M330.508 217.873C335.006 217.873 338.653 214.226 338.653 209.728C338.653 205.229 335.006 201.583 330.508 201.583C326.01 201.583 322.363 205.229 322.363 209.728C322.363 214.226 326.01 217.873 330.508 217.873Z" fill="#066FD1"/>
    <path d="M416.494 212.753C420.993 212.753 424.639 209.106 424.639 204.608C424.639 200.11 420.993 196.463 416.494 196.463C411.996 196.463 408.35 200.11 408.35 204.608C408.35 209.106 411.996 212.753 416.494 212.753Z" fill="white"/>
    <path d="M525.752 408.23V438.366C525.752 446.394 519.236 452.91 511.208 452.91H293.972C285.944 452.91 279.428 446.394 279.428 438.366V248.939C291.761 271.512 306.073 292.805 322.246 312.818V422.658C322.246 430.686 328.762 437.202 336.791 437.202H468.389C476.417 437.202 482.933 430.686 482.933 422.658V408.928C497.129 410.091 511.557 409.975 525.752 408.23Z" fill="black" opacity="0.1"/>
    <path d="M579.974 225.668C578.694 224.737 581.952 218.571 583.465 215.08C592.541 194.485 587.188 171.33 586.141 171.33C585.443 171.33 585.21 183.315 583.465 183.431C582.185 183.548 580.905 177.73 579.974 172.843C579.742 171.912 579.625 170.981 579.393 170.05C574.855 150.852 564.034 137.238 563.103 137.704C562.172 138.169 567.524 150.27 565.43 151.317C564.15 152.015 561.707 147.128 554.143 142.241C550.885 140.147 547.395 138.285 543.904 136.773C539.134 134.795 534.13 133.282 528.894 132.351C525.171 131.653 521.331 131.42 517.492 131.42C514.35 131.42 511.325 131.653 508.183 132.119C504.809 132.584 501.551 133.282 498.293 134.213C495.849 134.911 493.406 135.726 491.079 136.773C483.05 140.147 475.72 145.034 469.553 151.201C468.506 152.248 467.575 153.179 466.877 154.11C464.55 156.786 462.455 159.578 460.477 162.487C459.081 164.582 457.569 167.025 455.94 169.701C451.285 177.73 446.515 186.806 447.213 187.155C447.678 187.504 450.238 182.849 451.518 183.315C453.031 183.897 450.936 191.343 449.656 199.139C446.98 216.476 449.424 231.602 451.169 231.719C452.333 231.835 452.914 225.668 454.892 225.552C456.87 225.435 458.616 231.37 460.361 235.791C466.877 252.895 480.374 264.182 481.77 263.251C482.585 262.669 479.211 257.433 480.723 256.153C482.236 254.873 487.239 259.062 490.963 261.622C507.02 272.21 526.916 270.116 527.033 269.65C527.149 269.185 517.259 268.138 517.375 266.858C517.492 265.811 524.24 266.16 533.199 264.996C549.14 263.135 561.59 258.248 561.357 257.2C561.241 256.386 554.609 257.782 554.027 256.153C553.445 254.524 559.729 251.15 565.314 247.078C580.323 236.14 588.003 221.363 587.188 220.781C586.723 220.316 581.371 226.599 579.974 225.668ZM510.743 169.469L511.092 165.28H519.237L519.586 168.887C535.061 170.05 547.162 182.849 547.628 198.325C547.628 198.557 547.628 198.906 547.628 199.139C547.628 215.894 534.014 229.624 517.142 229.624C500.387 229.624 486.657 216.011 486.657 199.139C486.774 184.944 496.78 172.494 510.743 169.469Z" fill="#DADBE0"/>
    <path d="M512.72 136.075C512.72 136.075 481.072 106.288 465.364 116.643C449.656 126.999 435.344 158.066 450.354 167.607C465.364 177.148 490.729 156.902 509.463 158.648C528.196 160.393 512.72 136.075 512.72 136.075Z" fill="#066FD1"/>
    <path d="M524.705 136.075C524.705 136.075 556.353 106.288 572.061 116.643C587.769 126.999 602.081 158.066 587.071 167.607C572.061 177.148 546.696 156.902 527.963 158.648C509.229 160.393 524.705 136.075 524.705 136.075Z" fill="#066FD1"/>
    <path d="M512.72 136.075C512.72 136.075 481.072 106.288 465.364 116.643C449.656 126.999 435.344 158.066 450.354 167.607C465.364 177.148 490.729 156.902 509.463 158.648C528.196 160.393 512.72 136.075 512.72 136.075Z" fill="black" opacity="0.25"/>
    <path d="M524.705 136.075C524.705 136.075 556.353 106.288 572.061 116.643C587.769 126.999 602.081 158.066 587.071 167.607C572.061 177.148 546.696 156.902 527.963 158.648C509.229 160.393 524.705 136.075 524.705 136.075Z" fill="black" opacity="0.25"/>
    <path d="M512.14 153.993L511.675 158.648L511.093 165.28L510.744 169.469L505.857 223.108C501.668 222.294 497.596 220.781 493.756 218.687C492.36 217.872 490.963 216.942 489.8 215.778C485.262 211.357 472.579 213.451 468.39 214.265C467.576 214.382 466.994 214.498 466.994 214.498L467.925 212.869L498.643 160.975L499.69 159.229L505.624 149.223L506.788 147.128L506.904 147.012L507.02 147.128L508.184 148.757L512.14 153.993Z" fill="#066FD1"/>
    <path d="M559.96 199.721C555.888 198.79 551.699 198.325 547.627 198.325C543.903 198.325 540.296 199.023 538.318 200.885C533.082 205.888 523.076 207.75 523.076 207.75L519.585 168.771L519.236 165.164L518.305 154.808L517.723 147.71L517.607 145.965V145.5L517.258 141.893L522.028 135.26L523.657 137.936L529.242 147.361L530.406 149.339L535.991 158.764L536.573 159.811L559.96 199.721Z" fill="#066FD1"/>
    <path d="M512.14 153.993L511.675 158.648L511.093 165.28L510.744 169.469L505.857 223.108C501.668 222.294 497.596 220.781 493.756 218.687C492.36 217.872 490.963 216.942 489.8 215.778C485.262 211.357 472.579 213.451 468.39 214.265C467.576 214.382 466.994 214.498 466.994 214.498L467.925 212.869L498.643 160.975L499.69 159.229L505.624 149.223L506.788 147.128L506.904 147.012L507.02 147.128L508.184 148.757L512.14 153.993Z" fill="black" opacity="0.1"/>
    <path d="M559.96 199.721C555.888 198.79 551.699 198.325 547.627 198.325C543.903 198.325 540.296 199.023 538.318 200.885C533.082 205.888 523.076 207.75 523.076 207.75L519.585 168.771L519.236 165.164L518.305 154.808L517.723 147.71L517.607 145.965V145.5L517.258 141.893L522.028 135.26L523.657 137.936L529.242 147.361L530.406 149.339L535.991 158.764L536.573 159.811L559.96 199.721Z" fill="black" opacity="0.1"/>
    <path d="M536.806 136.424V157.484C536.806 157.949 536.806 158.531 536.69 158.997C536.573 159.346 536.573 159.578 536.457 159.928C535.41 163.069 532.501 165.163 529.127 165.163H505.623C502.714 165.163 500.038 163.535 498.758 160.975C498.525 160.509 498.292 160.044 498.176 159.578C497.943 158.88 497.943 158.182 497.943 157.484V136.424C497.943 135.609 498.06 134.795 498.292 134.097C499.107 131.42 501.434 129.326 504.227 128.744C504.692 128.628 505.157 128.628 505.739 128.628H529.243C530.407 128.628 531.57 128.861 532.617 129.442C535.177 130.722 536.806 133.398 536.806 136.424Z" fill="#066FD1"/>
    <path d="M467.11 194.601C470.195 194.601 472.695 192.101 472.695 189.016C472.695 185.932 470.195 183.431 467.11 183.431C464.026 183.431 461.525 185.932 461.525 189.016C461.525 192.101 464.026 194.601 467.11 194.601Z" fill="#066FD1"/>
    <path d="M488.054 246.03C493.067 246.03 497.13 241.967 497.13 236.955C497.13 231.942 493.067 227.879 488.054 227.879C483.042 227.879 478.979 231.942 478.979 236.955C478.979 241.967 483.042 246.03 488.054 246.03Z" fill="white"/>
    <path d="M547.628 245.914C552.641 245.914 556.704 241.851 556.704 236.838C556.704 231.826 552.641 227.763 547.628 227.763C542.616 227.763 538.553 231.826 538.553 236.838C538.553 241.851 542.616 245.914 547.628 245.914Z" fill="#066FD1"/>
    <path d="M567.64 196.23C570.724 196.23 573.225 193.73 573.225 190.645C573.225 187.561 570.724 185.06 567.64 185.06C564.555 185.06 562.055 187.561 562.055 190.645C562.055 193.73 564.555 196.23 567.64 196.23Z" fill="white"/>
    <path d="M316.895 105.357V141.078C316.895 144.336 314.218 147.128 310.96 147.128H296.067C292.809 147.128 290.133 144.452 290.133 141.194V105.473C290.133 104.891 290.133 104.193 290.249 103.612C291.064 101.168 293.391 99.4227 295.951 99.4227H310.844C314.102 99.3064 316.895 101.983 316.895 105.357C316.895 105.24 316.895 105.24 316.895 105.357Z" fill="#066FD1"/>
    <path d="M330.16 114.433H347.031C349.824 114.433 352.034 116.643 352.034 119.436V142.125C352.034 144.918 349.824 147.128 347.031 147.128H330.16C327.367 147.128 325.156 144.918 325.156 142.125V119.436C325.156 116.643 327.483 114.433 330.16 114.433Z" fill="#066FD1"/>
    <path d="M316.895 128.395V140.962C316.895 144.219 314.218 147.012 310.96 147.012H296.067C292.809 147.012 290.133 144.336 290.133 141.078V105.357C290.133 104.775 290.133 104.077 290.249 103.495C297.23 113.618 306.306 122.112 316.895 128.395Z" fill="black" opacity="0.1"/>
    <path d="M352.034 141.892V142.125C352.034 144.918 349.824 147.128 347.031 147.128H330.16C327.367 147.128 325.156 144.918 325.156 142.125V133.049C333.767 137.122 342.726 140.031 352.034 141.892Z" fill="black" opacity="0.1"/>
    <path d="M294.554 87.5545C294.438 86.74 294.554 85.9255 294.67 85.111C294.903 84.4129 295.136 83.7148 295.601 83.0166C296.183 82.3185 296.765 81.504 297.347 80.9223C298.277 79.8751 298.859 79.2933 299.208 78.9442C300.139 82.9003 300.488 88.1363 297.347 92.2087C295.95 91.0452 294.903 89.4162 294.554 87.5545Z" fill="black" opacity="0.1"/>
    <path d="M311.427 89.2999C310.845 91.278 309.449 93.0233 307.704 94.0705C305.609 95.0013 303.166 95.1177 300.955 94.3032C304.329 92.5579 308.402 90.6962 311.427 89.2999Z" fill="black" opacity="0.1"/>
    <path d="M346.681 104.193C346.1 106.171 344.703 107.917 342.842 108.847C340.631 109.778 338.187 109.895 335.977 109.08L335.86 108.964C334.697 108.498 333.533 107.917 332.602 107.102C330.275 105.59 329.228 102.681 329.926 100.004C330.159 99.3064 330.392 98.6082 330.857 97.9101C331.439 97.212 332.021 96.3975 332.602 95.8157L334.464 93.8377C334.697 93.6049 334.929 93.2559 335.162 93.0232C335.977 91.976 336.675 90.1143 336.093 86.74C338.42 87.9035 340.165 89.9979 340.747 92.5578C341.213 94.8849 340.747 97.3283 339.351 99.3063L340.049 98.8409C341.445 97.7937 342.725 96.5138 343.656 95.1176C344.238 94.3031 344.703 93.3722 345.052 92.4414C346.332 94.3031 347.147 96.3975 347.38 98.6082C347.612 100.47 347.379 102.448 346.681 104.193Z" fill="#A6A9B3"/>
    <path d="M329.81 102.564C329.694 101.75 329.81 100.935 329.926 100.121C330.159 99.4228 330.392 98.7247 330.857 98.0265C331.439 97.3284 332.021 96.5139 332.602 95.9321L334.464 93.9541C335.395 97.9102 335.744 103.146 332.602 107.219C331.206 106.055 330.159 104.426 329.81 102.564Z" fill="black" opacity="0.1"/>
    <path d="M346.681 104.193C346.099 106.171 344.703 107.917 342.842 108.847C340.631 109.778 338.187 109.895 335.977 109.08C339.7 107.568 343.656 105.706 346.681 104.193Z" fill="black" opacity="0.1"/>
</svg>
