<svg xmlns="http://www.w3.org/2000/svg" width="800" height="600" fill="none" viewBox="0 0 800 600">
    <path d="M132 308.898C132 354.233 180.018 387.081 201.116 423.815C223.147 461.704 228.27 519.396 266.159 541.194C302.753 562.408 354.972 538.627 400.353 538.627C445.734 538.627 497.918 562.291 534.547 541.194C572.319 519.279 577.559 461.588 599.473 423.815C620.688 387.221 668.589 354.233 668.589 308.898C668.589 263.564 620.746 230.716 599.473 193.97C577.559 156.209 572.319 98.389 534.547 76.5912C497.836 55.3886 445.734 79.1584 400.353 79.1584C354.972 79.1584 302.8 55.3886 266.159 76.4746C228.386 98.389 223.147 156.092 201.232 193.853C180.018 230.681 132.117 263.553 132 308.898Z" fill="#066FD1" opacity="0.02"/>
    <path d="M509.493 290.228C507.351 293.383 505.772 296.885 504.825 300.578L496.12 289.633L490.881 283.051C490.881 283.051 491.161 277.859 497.882 276.797C504.604 275.735 520.427 279.982 521.489 283.53C522.516 287.077 513.122 284.755 509.493 290.228Z" fill="#FFCB9D"/>
    <path d="M274.177 146.874L273.138 148.169L260.232 164.447C259.281 160.752 257.702 157.247 255.565 154.085C254.136 152.196 252.057 150.903 249.73 150.456C246.23 149.546 242.974 149.581 243.604 147.399C244.619 143.898 260.536 139.604 267.222 140.654C268.107 140.794 268.972 141.037 269.801 141.378C271.335 141.989 272.612 143.11 273.418 144.552C273.824 145.267 274.082 146.057 274.177 146.874Z" fill="#FFCB9D"/>
    <path d="M164.172 424.667C164.172 428.343 261.632 431.377 381.473 431.377C501.314 431.377 598.762 428.343 598.762 424.667C598.762 420.991 501.582 417.957 381.473 417.957C261.363 417.957 164.172 420.991 164.172 424.667Z" fill="#D6D8E2" opacity="0.5"/>
    <path d="M235.354 415.472C244.689 423.512 289.58 424.317 328.858 423.36C362.278 422.543 391.637 420.443 391.637 420.443C421.778 372.541 374.017 343.042 332.767 322.306C322.778 317.288 316.43 312.796 312.58 308.875C300.455 296.634 312.486 289.96 312.486 289.96L269.929 288.606C269.929 288.606 277.374 300.275 278.914 313.379C279.807 319.379 278.88 325.508 276.254 330.976C276.067 331.361 275.857 331.735 275.647 332.143C265.122 350.242 218.072 400.594 235.354 415.472Z" fill="#DADBE0"/>
    <path d="M328.857 423.36C362.277 422.543 391.637 420.443 391.637 420.443C421.778 372.541 374.016 343.042 332.766 322.306C322.778 317.288 316.43 312.796 312.579 308.875L278.914 313.379C279.806 319.379 278.879 325.508 276.253 330.976C275.973 372.821 283.978 386.194 292.59 389.438C302.777 393.277 313.594 382.81 322.323 388.166C330.806 393.382 330.701 409.497 328.857 423.36Z" fill="black" opacity="0.1"/>
    <path d="M315.551 302.7L274.764 308.788C272.686 309.099 271.253 311.035 271.564 313.112L271.922 315.513C272.232 317.591 274.168 319.024 276.246 318.714L317.032 312.626C319.11 312.315 320.543 310.379 320.233 308.302L319.875 305.901C319.565 303.823 317.629 302.39 315.551 302.7Z" fill="#066FD1"/>
    <path d="M430.378 174.074C429.118 177.645 427.368 183.094 425.174 189.384L423.867 192.546C420.989 199.565 417.3 206.222 412.875 212.384C411.988 213.551 411.101 214.718 410.203 215.803C406.772 219.735 388.031 220.552 373.585 214.869C359.139 209.186 357.902 193.235 365.93 188.789C368.823 186.895 371.359 184.505 373.422 181.729L373.492 181.636C375.154 179.62 376.712 177.521 378.16 175.346C379.326 173.643 380.353 171.846 381.345 170.13C382.745 167.796 383.551 166.349 383.551 166.349L397.974 159.628L425.979 167.4L425.897 167.645C424.579 171.612 424.731 174.809 425.711 175.918C425.829 176.073 425.986 176.194 426.166 176.268C427.134 176.653 428.745 175.533 429.667 174.751L430.18 174.284L430.378 174.074Z" fill="#FFCB9D"/>
    <path d="M430.25 174.051C430.25 174.109 430.25 174.168 430.192 174.238C429.025 177.832 427.333 183.2 425.058 189.349L423.751 192.511C420.891 199.539 417.201 206.199 412.758 212.349C411.078 211.338 409.643 209.967 408.558 208.335C407.344 206.574 406.487 204.591 406.037 202.5C405.687 200.224 405.664 197.91 405.967 195.627C406.037 194.166 406.232 192.714 406.55 191.286C400.719 191.663 394.867 191.019 389.257 189.384C383.592 187.7 378.254 185.068 373.469 181.601C375.131 179.585 376.689 177.486 378.136 175.311C379.817 173.164 380.797 171.682 381.474 170.644C381.649 170.422 383.679 166.875 383.679 166.875L398.125 160.025L425.758 167.586H425.851L426.131 167.645C424.836 171.472 424.883 174.506 425.664 175.813C425.734 176.093 426.096 176.291 426.318 176.467C427.38 176.968 428.838 175.556 429.655 174.646C429.947 174.389 430.157 174.133 430.25 174.051Z" fill="black" opacity="0.1"/>
    <path d="M368.906 158.905C369.233 159.196 369.583 159.488 369.945 159.756C369.945 160.118 369.945 160.468 370.027 160.83C370.042 161.072 370.069 161.314 370.108 161.554C370.103 161.62 370.103 161.686 370.108 161.752C370.131 161.995 370.166 162.236 370.213 162.475C370.272 162.837 370.33 163.21 370.412 163.584C370.493 163.957 370.563 164.307 370.657 164.669C370.646 164.711 370.646 164.755 370.657 164.797C370.657 165.054 370.785 165.299 370.855 165.556C370.925 165.813 370.96 165.918 371.018 166.104C371.047 166.224 371.086 166.342 371.135 166.454C371.193 166.665 371.263 166.871 371.345 167.073C371.438 167.376 371.555 167.668 371.672 167.948C371.788 168.228 371.882 168.485 371.999 168.753C372.014 168.791 372.033 168.826 372.057 168.858C372.162 169.127 372.29 169.395 372.419 169.652C372.547 169.909 372.792 170.399 373.002 170.819C373.212 171.239 373.294 171.355 373.446 171.612C373.597 171.869 373.807 172.207 374.006 172.499C374.204 172.791 374.554 173.316 374.846 173.666C375.138 174.016 375.278 174.226 375.511 174.494L375.744 174.786C375.908 174.973 376.071 175.16 376.234 175.323C376.318 175.422 376.408 175.515 376.503 175.603C376.69 175.813 376.888 176.011 377.086 176.21L377.273 176.385C377.503 176.619 377.744 176.841 377.996 177.05C378.195 177.237 378.417 177.423 378.627 177.587C378.672 177.636 378.723 177.679 378.778 177.715L379.327 178.147L379.84 178.52L380.132 178.742L380.832 179.209C381.52 179.664 382.256 180.096 383.002 180.492L383.493 180.737C383.693 180.85 383.899 180.951 384.111 181.041L384.613 181.274C385.634 181.727 386.683 182.117 387.752 182.441L388.545 182.698L388.767 182.768L389.689 183.025H389.876C390.144 183.106 390.424 183.165 390.692 183.235C398.627 185.113 408.091 184.518 417.601 181.122L417.706 181.286V181.403C417.274 182.908 416.971 184.425 416.434 185.767C416.329 186.269 416.131 186.63 416.026 187.132L415.921 187.645C414.444 190.656 413.203 193.777 412.21 196.981C411.882 199.061 412.187 201.191 413.085 203.095C414.4 200.204 416.448 197.706 419.025 195.849C419.964 195.267 420.947 194.76 421.965 194.332C422.397 194.087 422.806 193.83 423.202 193.562C423.269 193.526 423.331 193.483 423.389 193.433C426.691 191.209 429.374 188.181 431.184 184.635C431.847 183.335 432.387 181.975 432.794 180.574C433.081 179.799 433.242 178.984 433.273 178.159L433.424 178.054C435.47 177.752 437.377 176.841 438.897 175.44C438.779 174.93 438.533 174.458 438.182 174.07C437.831 173.682 437.386 173.39 436.89 173.223L433.389 172.056C434.889 168.317 437.338 165.035 440.496 162.534C438.991 160.3 436.692 158.722 434.066 158.123C435.569 155.055 435.799 151.518 434.707 148.281C433.614 145.044 431.287 142.37 428.232 140.841C425.888 139.732 423.282 139.296 420.705 139.581C418.354 139.874 416.139 140.847 414.334 142.381C413.9 140.752 413.15 139.225 412.126 137.886C411.102 136.547 409.824 135.423 408.366 134.577C406.907 133.732 405.296 133.182 403.626 132.96C401.955 132.737 400.256 132.846 398.627 133.279C396.291 133.893 394.178 135.16 392.535 136.931C390.892 138.702 389.787 140.904 389.35 143.28C388.264 141.138 386.609 139.338 384.566 138.075C380.778 142.506 377.742 147.528 375.581 152.942L374.227 152.487C373.457 152.242 372.621 152.309 371.899 152.673C371.177 153.037 370.626 153.67 370.365 154.435L368.906 158.905Z" fill="#232B41"/>
    <path d="M369.932 159.78C370.186 164.811 371.914 169.657 374.903 173.713C382.931 184.308 400.213 187.529 417.705 181.297L417.81 181.449V181.578C419.988 180.587 422.107 179.473 424.158 178.24L424.006 178.345C420.027 179.127 396.129 185.113 378.777 170.399C375.319 167.317 372.338 163.738 369.932 159.78Z" fill="black" opacity="0.5"/>
    <path d="M461.288 161.717C461.315 162.088 461.268 162.461 461.151 162.814C461.033 163.167 460.847 163.493 460.603 163.774C460.359 164.054 460.062 164.284 459.729 164.45C459.396 164.616 459.033 164.714 458.662 164.739L457.892 164.797C457.328 164.827 456.767 164.689 456.281 164.401C455.795 164.112 455.405 163.685 455.162 163.175C453.925 160.573 453.645 159.406 451.918 158.169C450.191 156.933 447.343 157.329 445.605 158.286C444.516 158.941 443.606 159.855 442.956 160.947C442.256 161.927 439.198 166.198 440.365 170.574C441.089 173.258 442.874 174.074 442.547 174.774C442.081 175.755 437.88 175.288 423.469 170.235H423.398L422.967 170.177L422.033 169.99L421.555 169.897L419.851 169.523C413.118 168.076 405.977 166.314 398.52 164.132C394.148 162.864 389.951 161.542 385.929 160.165L385.276 159.931L382.709 159.033C380.013 158.088 377.411 157.131 374.879 156.162C374.456 155.997 374.08 155.733 373.781 155.392C373.483 155.051 373.271 154.642 373.163 154.202C373.043 153.704 373.063 153.183 373.222 152.697C373.513 151.81 373.852 150.818 374.26 149.756L374.365 149.476C376.239 144.642 378.875 140.139 382.172 136.138C384.764 133.031 387.813 130.336 391.215 128.145C411.286 115.239 441.135 121.984 454.17 140.631C457.269 145.116 459.422 150.187 460.494 155.532C460.889 157.575 461.154 159.641 461.288 161.717Z" fill="#066FD1"/>
    <path d="M445.605 158.286C444.516 158.941 443.606 159.855 442.956 160.947C442.256 161.927 439.198 166.198 440.365 170.574C441.089 173.258 442.874 174.074 442.547 174.774C442.081 175.755 437.88 175.288 423.469 170.235H423.399L422.967 170.177L422.033 169.99L421.555 169.897L419.851 169.523C413.118 168.076 405.977 166.314 398.52 164.132C394.148 162.864 389.951 161.542 385.929 160.165L385.276 159.931L382.709 159.033L373.163 154.202C373.043 153.704 373.063 153.183 373.222 152.697C373.513 151.81 373.852 150.818 374.26 149.756L374.365 149.476C381.028 149.114 441.556 146.524 445.605 158.286Z" fill="black" opacity="0.1"/>
    <path d="M370.026 160.363L370.493 160.492L374.554 161.659L383.131 164.156L383.574 164.284L420.156 174.95L423.797 176.011L432.327 178.485L436.738 179.769L438.652 180.317C439.426 180.591 440.276 180.563 441.03 180.238C441.785 179.914 442.39 179.317 442.724 178.567L444.615 172.942C444.773 172.457 444.773 171.934 444.615 171.449C444.421 170.942 444.108 170.489 443.702 170.129C443.295 169.77 442.808 169.514 442.281 169.383L438.395 168.217L429.888 165.778L429.608 165.696L399.269 156.886L398.557 156.676L375.219 149.908L373.737 149.476C372.968 149.201 372.124 149.224 371.372 149.542C370.62 149.86 370.015 150.448 369.676 151.191L368.334 155.171L367.786 156.804C367.695 157.185 367.681 157.581 367.744 157.967C367.808 158.354 367.948 158.724 368.157 159.055C368.366 159.387 368.639 159.673 368.96 159.898C369.281 160.123 369.643 160.281 370.026 160.363Z" fill="#DADBE0"/>
    <path d="M461.755 173.631C460.585 174.037 459.346 174.209 458.11 174.135C456.874 174.062 455.664 173.745 454.551 173.203C453.437 172.661 452.442 171.904 451.621 170.976C450.801 170.049 450.172 168.968 449.771 167.796C449.689 167.551 449.607 167.306 449.549 167.061C448.964 164.772 449.261 162.347 450.381 160.267C451.5 158.187 453.361 156.604 455.593 155.831C457.826 155.059 460.267 155.153 462.433 156.097C464.599 157.04 466.331 158.763 467.286 160.923C467.379 161.145 467.473 161.378 467.554 161.612C467.965 162.782 468.141 164.021 468.072 165.259C468.003 166.497 467.69 167.709 467.151 168.826C466.612 169.943 465.858 170.942 464.932 171.767C464.006 172.591 462.926 173.225 461.755 173.631Z" fill="#DADBE0"/>
    <path d="M386.805 391.912L459.479 401.971L461.755 402.274C472.234 428.094 482.681 453.913 493.098 479.733L505.339 477.528C502.095 447.717 498.855 417.907 495.618 388.096L440.389 366.147L417.051 356.135L387.703 390.827C387.435 391.177 387.131 391.527 386.805 391.912Z" fill="#DADBE0"/>
    <path d="M387.762 390.827L458.943 400.687C459.13 401.119 459.293 401.562 459.48 401.994L461.755 402.297C472.234 428.117 482.682 453.937 493.098 479.756L505.339 477.551C502.095 447.74 498.855 417.93 495.619 388.119L440.389 366.147L417.051 356.135L387.762 390.827Z" fill="black" opacity="0.1"/>
    <path d="M484.148 403.313L482.981 408.167C475.63 438.677 468.24 469.18 460.81 499.675L449.386 499.979L445.361 422.742C439.006 423.91 432.567 424.554 426.107 424.667C412.022 424.935 399.373 425.262 387.926 418.342C382.616 415.122 379.629 411.283 373.794 404.211C368.59 397.878 364.087 391 360.363 383.697L415.476 356.123C415.149 360.137 414.834 364.14 414.508 368.119L421.719 375.657L432.338 380.325L484.148 403.313Z" fill="#DADBE0"/>
    <path d="M462.491 532.629L444.416 514.985C444.416 514.985 447.742 508.812 452.269 509.221C456.797 509.629 463.016 524.927 462.491 532.629Z" fill="#232B41"/>
    <path d="M517.254 506.058L495.164 493.818C495.164 493.818 496.728 486.968 501.185 486.163C505.643 485.358 515.678 498.509 517.254 506.058Z" fill="#232B41"/>
    <path d="M521.465 283.53C514.394 281.663 504.324 281.126 496.144 289.633L490.904 283.051C490.904 283.051 491.184 277.859 497.906 276.797C504.627 275.735 520.404 279.971 521.465 283.53Z" fill="black" opacity="0.1"/>
    <path d="M530.171 286.786L529.156 287.229L529.646 286.576C529.817 286.656 529.992 286.726 530.171 286.786Z" fill="black" opacity="0.1"/>
    <path d="M567.722 210.423L564.221 235.605L561.747 252.724L558.165 278.115C558.102 278.54 558 278.958 557.861 279.364C557.344 280.948 556.287 282.3 554.876 283.185C553.464 284.069 551.787 284.431 550.136 284.207L526.121 280.834L509.143 278.501L484.638 275.058C482.767 274.797 481.075 273.807 479.931 272.302C478.788 270.798 478.286 268.903 478.535 267.03L482.118 241.603L484.545 224.391L485.712 216.223L488.045 199.373C488.303 197.501 489.294 195.808 490.799 194.666C492.304 193.524 494.202 193.026 496.074 193.282L520.579 196.782L537.721 199.186L561.607 202.547C563.443 202.822 565.103 203.794 566.241 205.261C567.38 206.727 567.91 208.576 567.722 210.423Z" fill="#DADBE0"/>
    <path d="M564.173 235.629C564.005 235.56 563.828 235.513 563.648 235.489L533.309 231.206L537.743 199.595C537.76 199.42 537.76 199.244 537.743 199.069C537.727 198.64 537.611 198.221 537.405 197.844C566.974 179.769 569.798 173.911 568.293 170.329C567.196 167.715 563.345 166.77 556.845 167.516C542.982 169.115 534.604 182.219 530.765 190.131C528.431 178.964 522.993 160.223 513.39 159.791C508.967 159.558 504.825 163.292 503.366 166.98C500.18 175.043 507.38 186.49 521.091 195.79C520.878 196.069 520.713 196.38 520.601 196.712C520.546 196.871 520.507 197.036 520.485 197.202L516.027 228.837L492.339 225.5L484.532 224.415L483.214 224.228C482.433 224.133 481.647 224.344 481.018 224.816C480.39 225.288 479.968 225.984 479.841 226.76L478.219 237.962C478.116 238.746 478.325 239.539 478.8 240.17C479.276 240.8 479.981 241.219 480.763 241.335L482.093 241.521L509.656 245.407L513.6 245.956L513.191 248.885L509.154 277.532C509.113 277.826 509.113 278.125 509.154 278.419C509.27 279.047 509.578 279.624 510.036 280.069C510.493 280.514 511.078 280.806 511.709 280.904L523.005 282.526C523.643 282.612 524.291 282.49 524.854 282.179C525.417 281.868 525.865 281.385 526.132 280.799C526.254 280.537 526.337 280.258 526.377 279.971L528.863 262.304L530.823 248.464L561.163 252.735H561.723C562.418 252.692 563.076 252.411 563.588 251.939C564.101 251.467 564.435 250.834 564.535 250.145L566.145 238.849C566.252 238.166 566.112 237.467 565.751 236.877C565.39 236.287 564.831 235.844 564.173 235.629ZM557.265 171.215C558.427 171.08 559.596 171.006 560.766 170.994C563.648 170.994 564.687 171.566 564.815 171.764C564.932 172.231 564.979 176.782 533.309 195.965L532.34 195.825C534.417 190.574 542.504 172.907 557.265 171.192V171.215ZM506.832 168.298C507.789 165.859 510.578 163.351 513.191 163.467C519.539 163.782 525.211 179.897 527.941 195.195L526.984 195.067C510.823 185.452 504.568 174.109 506.832 168.275V168.298Z" fill="#232B41"/>
    <path d="M557.874 279.364C557.356 280.948 556.3 282.3 554.888 283.184C553.477 284.069 551.8 284.431 550.149 284.207L526.134 280.834C525.867 281.42 525.419 281.903 524.855 282.214C524.292 282.525 523.644 282.647 523.007 282.561L511.711 280.939C511.079 280.844 510.492 280.553 510.033 280.108C509.575 279.662 509.268 279.083 509.155 278.454L484.65 275.011C482.779 274.751 481.087 273.76 479.944 272.256C478.8 270.752 478.298 268.856 478.548 266.983L482.13 241.556L480.8 241.37C480.017 241.257 479.31 240.839 478.833 240.207C478.357 239.576 478.149 238.781 478.256 237.997L479.866 226.69C479.993 225.914 480.415 225.218 481.043 224.746C481.672 224.274 482.458 224.063 483.239 224.158L484.557 224.345L485.724 216.176C487.603 218.977 489.82 222.116 492.375 225.511C497.722 232.543 503.51 239.227 509.704 245.524C510.871 246.691 512.038 247.858 513.205 249.025C518.16 253.807 523.397 258.288 528.888 262.444C537.821 269.249 547.555 274.932 557.874 279.364Z" fill="black" opacity="0.1"/>
    <path d="M274.175 146.874L273.137 148.169C266.66 147.574 256.928 149.033 249.799 150.421C246.298 149.511 243.042 149.546 243.672 147.364C244.688 143.863 260.604 139.569 267.291 140.619C268.175 140.759 269.041 141.002 269.869 141.343L273.487 144.517C273.873 145.248 274.107 146.05 274.175 146.874Z" fill="black" opacity="0.1"/>
    <path d="M335.275 279.597C336.189 288.856 337.587 298.06 339.465 307.171C340.877 314.383 342.592 321.816 348.485 342.902C351.402 353.346 355.381 367.255 360.364 383.744L434.556 363.685C432.467 356.683 430.215 333.87 428.721 313.088C436.863 321.007 447.382 326.029 458.659 327.38C469.936 328.732 481.345 326.338 491.127 320.567L522.155 300.567L488.373 280.414C484.487 289.75 476.844 295.747 469.458 295.642C465.887 295.492 462.427 294.362 459.457 292.375C457.348 290.813 455.614 288.799 454.381 286.482C446.213 271.803 443.879 240.798 429.083 235.208C426.332 234.189 423.416 233.69 420.483 233.738H402.862C401.537 232.959 400.353 231.961 399.362 230.786C398.803 230.127 398.314 229.411 397.903 228.65L372.978 222.361C370.434 227.565 367.144 231.171 364.483 232.163C363.198 232.611 361.879 232.954 360.539 233.19C359.465 233.363 358.382 233.472 357.295 233.516C357.295 233.516 335.637 234.182 335.357 234.31C336.967 250.798 336.851 281.021 335.275 279.597Z" fill="#066FD1"/>
    <path d="M335.171 278.407C335.171 278.804 335.241 279.212 335.276 279.574C336.188 288.832 337.586 298.036 339.465 307.148C340.877 314.36 342.592 321.793 348.485 342.879C351.402 353.322 355.382 367.232 360.364 383.72L434.556 363.684C419.071 338.806 403.493 311.594 388.382 282.001C379.731 264.972 371.784 248.348 364.542 232.128C363.259 232.582 361.939 232.925 360.598 233.155C359.524 233.328 358.44 233.437 357.354 233.481C357.354 233.481 335.696 234.147 335.416 234.275C333.94 248.945 333.858 263.722 335.171 278.407Z" fill="black" opacity="0.1"/>
    <path d="M340.409 274.475C339.208 277.781 337.551 280.904 335.485 283.752C324.45 274.157 314.549 263.332 305.974 251.487C302.082 246.105 298.468 240.528 295.145 234.777C287.339 221.451 272.869 199.63 243.521 162.977C254.778 154.723 266.027 146.469 277.268 138.215C282.683 145.66 297.106 165.719 312.369 189.314C317.655 197.482 323.034 206.094 328.169 214.741C334.738 226.008 339.243 238.357 341.471 251.207C343.397 263.039 342.16 269.644 340.409 274.475Z" fill="#066FD1"/>
    <path d="M312.369 189.314C285.028 175.778 243.521 162.977 243.521 162.977C254.778 154.723 266.027 146.469 277.268 138.215C282.683 145.66 297.117 165.719 312.369 189.314Z" fill="black" opacity="0.1"/>
    <path d="M289.789 140.117C289.038 140.655 288.17 141.007 287.257 141.144L267.874 143.863L254.513 145.777L235.586 148.426C234.111 148.622 232.618 148.226 231.433 147.326C230.248 146.425 229.467 145.092 229.262 143.618L226.426 123.606L224.512 110.081L222.494 95.7518L221.712 90.244C221.528 88.7694 221.928 87.2813 222.826 86.0974C223.724 84.9136 225.05 84.1278 226.519 83.9077L245.342 81.2589L258.843 79.3685L278.19 76.6496C279.666 76.4503 281.16 76.8445 282.346 77.7458C283.532 78.6471 284.312 79.9818 284.515 81.4572L287.303 101.201L289.217 114.784L292.041 134.808C292.184 135.814 292.049 136.84 291.653 137.776C291.256 138.711 290.611 139.521 289.789 140.117Z" fill="#DADBE0"/>
    <path d="M292.276 111.937L291.027 103.057C290.929 102.444 290.597 101.893 290.1 101.521C289.604 101.149 288.982 100.984 288.367 101.061L287.328 101.201L262.496 104.702L258.996 79.7652C258.979 79.6326 258.943 79.503 258.891 79.3801C258.83 79.2055 258.752 79.0375 258.657 78.8784C269.58 71.4685 275.309 62.32 272.754 55.8437C271.587 52.8681 268.308 49.8108 264.585 50.0092C257.059 50.3826 252.764 64.4671 250.792 73.3472C247.595 67.0226 241.014 57.3023 230.372 56.0771C225.039 55.4703 221.993 56.2404 221.036 58.4109C219.799 61.3515 222.005 66.0891 245.541 80.4653C245.455 80.6895 245.404 80.9257 245.39 81.1655C245.372 81.3049 245.372 81.4461 245.39 81.5856L248.89 106.511L233.639 108.646L224.945 109.871C224.801 109.894 224.66 109.933 224.525 109.988C224.002 110.156 223.555 110.503 223.262 110.968C222.97 111.434 222.851 111.987 222.927 112.532L224.21 121.447C224.286 121.988 224.55 122.486 224.955 122.852C225.36 123.219 225.881 123.432 226.427 123.454C226.571 123.471 226.716 123.471 226.859 123.454L246.778 120.654L250.792 120.093L251.364 124.119L254.305 145.007C254.341 145.233 254.407 145.453 254.503 145.66C254.711 146.123 255.064 146.505 255.508 146.749C255.952 146.993 256.464 147.086 256.965 147.014L265.88 145.73C266.376 145.661 266.837 145.435 267.194 145.084C267.551 144.733 267.786 144.276 267.864 143.782C267.917 143.551 267.917 143.312 267.864 143.081L266.522 133.116L264.445 118.261L289.277 114.761L290.327 114.609C290.631 114.562 290.922 114.456 291.185 114.296C291.447 114.136 291.675 113.926 291.857 113.678C292.038 113.429 292.168 113.148 292.24 112.849C292.312 112.55 292.324 112.24 292.276 111.937ZM264.737 53.4749H264.877C266.779 53.4749 268.774 55.3302 269.475 57.1156C271.26 61.6432 266.231 70.5117 253.395 78.0499C255.612 65.8207 260.116 53.7082 264.737 53.4749ZM224.245 59.8695C224.63 59.6244 226.217 59.1694 229.905 59.5894C241.317 60.908 247.63 74.5842 249.299 78.7383C226.392 64.9222 224.397 60.7563 224.292 59.8695H224.245Z" fill="#066FD1"/>
    <path d="M289.79 140.117C289.039 140.655 288.171 141.007 287.257 141.144L267.875 143.863C267.797 144.358 267.562 144.814 267.205 145.165C266.848 145.516 266.387 145.743 265.891 145.812L256.976 147.096C256.475 147.168 255.963 147.075 255.519 146.831C255.074 146.587 254.722 146.204 254.514 145.742L235.587 148.391C234.111 148.587 232.618 148.191 231.434 147.291C230.249 146.39 229.468 145.057 229.262 143.583L226.427 123.606C225.883 123.581 225.364 123.367 224.962 123C224.559 122.634 224.297 122.138 224.221 121.599L222.938 112.684C222.862 112.139 222.981 111.586 223.273 111.12C223.566 110.655 224.013 110.308 224.536 110.14L222.518 95.8101C225.984 100.343 229.7 104.679 233.65 108.798C237.748 113.094 242.139 117.102 246.789 120.794C248.275 121.984 249.804 123.151 251.375 124.294C256.147 127.687 261.216 130.64 266.521 133.116C273.869 136.639 281.718 139.001 289.79 140.117Z" fill="black" opacity="0.1"/>
    <path d="M461.755 173.631C460.585 174.037 459.346 174.209 458.11 174.135C456.874 174.062 455.664 173.745 454.551 173.203C453.437 172.661 452.442 171.904 451.621 170.976C450.801 170.049 450.172 168.968 449.771 167.796C449.689 167.551 449.607 167.306 449.549 167.061C452.758 163.561 459.362 158.041 467.286 160.923C467.379 161.145 467.472 161.378 467.554 161.612C467.965 162.782 468.141 164.021 468.072 165.259C468.003 166.497 467.69 167.709 467.151 168.826C466.612 169.943 465.858 170.942 464.932 171.767C464.006 172.591 462.926 173.225 461.755 173.631Z" fill="black" opacity="0.1"/>
</svg>
