<svg xmlns="http://www.w3.org/2000/svg" width="800" height="600" fill="none" viewBox="0 0 800 600">
    <path d="M145.504 299.64C145.504 344.483 192.937 377.13 213.952 413.402C235.555 450.852 240.841 507.903 278.173 529.625C314.446 550.639 366.105 527.164 410.949 527.164C455.792 527.164 507.451 550.639 543.724 529.625C581.056 508.021 586.342 450.852 607.945 413.402C628.96 377.13 676.393 344.601 676.393 299.64C676.393 254.679 628.842 222.15 607.945 185.878C586.342 148.428 581.056 91.2588 543.724 69.6555C507.451 48.6408 455.792 72.116 410.949 72.116C366.105 72.116 314.446 48.6408 278.173 69.6555C240.724 91.2588 235.555 148.428 213.952 185.878C192.937 222.268 145.504 254.797 145.504 299.64Z" fill="#066FD1" opacity="0.02"/>
    <path d="M311.571 321.667C259.971 321.667 218 279.685 218 228.096C218 176.507 259.982 134.524 311.571 134.524C363.16 134.524 405.143 176.507 405.143 228.096C405.143 279.685 363.16 321.667 311.571 321.667ZM311.571 145.791C266.198 145.791 229.279 182.711 229.279 228.084C229.279 273.457 266.198 310.377 311.571 310.377C356.944 310.377 393.864 273.457 393.864 228.084C393.864 182.711 356.944 145.791 311.571 145.791Z" fill="#A6A9B3"/>
    <path d="M93.8789 486.371C93.8789 488.572 231.151 490.374 399.94 490.374C568.729 490.374 706.001 488.56 706.001 486.371C706.001 484.181 568.729 482.368 399.94 482.368C231.151 482.368 93.8789 484.181 93.8789 486.371Z" fill="#D6D8E2" opacity="0.5"/>
    <path d="M471.31 473.067C471.31 479.778 465.847 485.252 459.113 485.252H165.908C159.174 485.252 153.711 479.79 153.711 473.067L187.511 244.154C187.511 237.42 192.974 231.946 199.708 231.946H423.441C430.175 231.946 435.638 237.408 435.638 244.154L437.745 257.658L471.31 473.067Z" fill="#DADCE0"/>
    <path d="M437.746 257.658C374.937 275.776 313.906 298.675 315.507 320.572C316.355 332.239 334.379 335.489 336.534 347.521C339.583 364.485 309.927 392.399 187.512 440.986V244.154C187.512 237.42 192.974 231.946 199.708 231.946H423.442C430.176 231.946 435.638 237.408 435.638 244.154L437.746 257.658Z" fill="black" opacity="0.1"/>
    <path d="M277.292 257.387L221.5 439.491C218.804 448.309 212.117 454.796 204.029 457.598C198.649 459.469 192.657 459.693 186.805 457.904L127.105 439.62C112.447 435.123 104.195 419.594 108.692 404.937L122.843 358.764L164.366 223.233C166.262 217.041 170.264 211.708 175.68 208.164L217.851 180.451C232.637 170.738 252.616 177.131 258.997 193.636C264.884 208.847 270.758 224.058 276.645 239.245C278.905 245.06 279.129 251.441 277.304 257.399L277.292 257.387Z" fill="#066FD1"/>
    <path d="M223.17 236.843C231.903 236.843 238.982 229.764 238.982 221.032C238.982 212.3 231.903 205.221 223.17 205.221C214.438 205.221 207.359 212.3 207.359 221.032C207.359 229.764 214.438 236.843 223.17 236.843Z" fill="white"/>
    <path d="M184.074 357.386C183.179 360.318 181.731 362.719 179.741 364.603C177.752 366.487 175.315 367.699 172.442 368.229C169.569 368.771 166.438 368.512 163.071 367.487C159.692 366.451 156.984 364.909 154.924 362.861C152.875 360.812 151.533 358.458 150.909 355.762C150.285 353.077 150.415 350.275 151.321 347.344C152.216 344.413 153.676 342.011 155.701 340.139C157.726 338.267 160.163 337.043 163.012 336.466C165.861 335.889 168.981 336.124 172.36 337.16C175.738 338.196 178.458 339.75 180.53 341.834C182.602 343.918 183.932 346.296 184.533 348.969C185.133 351.641 184.98 354.443 184.085 357.375L184.074 357.386ZM176.056 354.926C176.492 353.513 176.198 352.136 175.197 350.782C174.196 349.428 172.207 348.298 169.216 347.379C166.238 346.461 163.942 346.296 162.364 346.85C160.775 347.415 159.763 348.392 159.339 349.805C158.927 351.158 159.221 352.512 160.222 353.854C161.222 355.208 163.212 356.339 166.202 357.257C169.181 358.175 171.477 358.352 173.054 357.787C174.644 357.233 175.644 356.268 176.056 354.926ZM209.55 371.008L162.812 312.543L166.508 300.464L213.247 358.94L209.55 371.008ZM224.714 324.21C223.831 327.083 222.395 329.473 220.393 331.38C218.392 333.287 215.955 334.511 213.082 335.053C210.21 335.595 207.09 335.336 203.711 334.3C200.332 333.264 197.624 331.721 195.564 329.685C193.504 327.648 192.174 325.258 191.561 322.55C190.949 319.842 191.079 317.04 191.962 314.168C192.856 311.248 194.316 308.823 196.353 306.927C198.378 305.02 200.815 303.819 203.652 303.301C206.489 302.783 209.597 303.042 212.976 304.078C216.355 305.114 219.086 306.645 221.17 308.67C223.266 310.695 224.596 313.061 225.185 315.769C225.773 318.477 225.62 321.29 224.726 324.222L224.714 324.21ZM216.697 321.75C217.132 320.349 216.838 318.959 215.837 317.606C214.836 316.252 212.847 315.121 209.856 314.203C206.878 313.285 204.582 313.108 203.005 313.673C201.415 314.238 200.403 315.216 199.979 316.628C199.567 317.982 199.849 319.348 200.85 320.725C201.839 322.103 203.829 323.257 206.819 324.175C209.798 325.093 212.093 325.246 213.694 324.658C215.296 324.069 216.296 323.104 216.708 321.75H216.697Z" fill="white"/>
    <path d="M204.029 457.598C198.649 459.469 192.657 459.693 186.805 457.904L127.105 439.62C112.447 435.123 104.195 419.594 108.692 404.937L122.843 358.764C131.531 383.946 153.005 418.735 204.029 457.609V457.598Z" fill="black" opacity="0.1"/>
    <path d="M418.023 161.637C424.969 149.923 432.728 128.438 424.157 119.479C420.731 115.888 414.444 114.063 410.936 116.206C407.169 118.513 408.487 124.27 406.921 133.759C406.533 136.126 405.956 138.739 405.085 141.576C404.225 144.367 403.26 146.78 402.306 148.84C401.2 151.254 400.105 153.208 399.198 154.797C396.597 159.412 392.688 166.205 386.342 171.703C383.988 173.752 381.28 175.624 378.172 177.142C379.808 179.874 381.551 182.676 383.411 185.525C384.741 187.55 386.06 189.504 387.39 191.399C387.696 191.835 387.99 192.259 388.297 192.683C388.873 192.2 389.474 191.706 390.074 191.188C394.63 187.314 398.939 183.641 402.907 179.874C408.782 174.317 413.926 168.56 418.023 161.626V161.637Z" fill="#FFCB9D"/>
    <path d="M402.907 179.874C393.159 181.051 388.261 175.012 386.342 171.703C383.988 173.752 381.28 175.624 378.172 177.142C379.808 179.874 381.551 182.676 383.411 185.525C384.741 187.55 386.06 189.504 387.39 191.4C387.696 191.835 387.99 192.259 388.297 192.683C388.873 192.2 389.474 191.706 390.074 191.188C394.63 187.314 398.939 183.641 402.907 179.874Z" fill="black" opacity="0.1"/>
    <path d="M324.324 284.041C322.676 287.796 316.472 289.892 311.598 288.903C299.448 286.454 293.55 264.38 292.537 250.794C291.701 239.551 293.856 229.014 296.787 217.488C297.364 215.228 297.976 212.92 298.589 210.566C300.037 205.056 301.473 200.535 302.533 197.38C304.416 198.593 306.312 199.794 308.195 200.994C312.398 203.679 316.589 206.363 320.769 209.024C319.98 209.942 318.944 211.225 317.861 212.862C317.637 213.203 317.414 213.544 317.19 213.921C315.53 216.617 314.317 219.384 313.446 222.127C310.609 231.074 311.362 239.869 311.904 245.637C312.222 249.028 312.704 253.831 314.623 259.859C319.144 274.022 326.538 278.967 324.324 284.017V284.041Z" fill="#FFCB9D"/>
    <path d="M317.87 212.885C317.647 213.227 317.423 213.568 317.199 213.945C315.539 216.641 314.327 219.407 313.456 222.15C309.041 215.487 301.577 216.111 296.797 217.5C297.374 215.24 297.986 212.932 298.598 210.578C300.046 205.068 301.483 200.547 302.542 197.392C304.426 198.605 306.321 199.805 308.205 201.006L317.87 212.885Z" fill="black" opacity="0.1"/>
    <path d="M392.538 198.652C390.96 198.593 389.053 198.663 386.957 199.075C382.319 199.935 378.869 201.913 376.774 203.373C374.584 213.427 374.29 222.916 375.596 231.91V231.946H319.392C318.651 228.013 317.779 223.163 316.861 217.477C313 215.934 308.126 213.368 303.358 209.13C299.649 205.845 297.059 202.454 295.258 199.688C296.906 197.015 307.137 180.592 317.332 177.92C319.18 177.437 324.714 176.424 328.611 175.836C329.541 175.694 330.388 175.565 331.048 175.482C333.002 175.235 334.662 175.082 335.957 174.965C337.228 174.87 338.147 174.8 338.535 174.776H338.594C344.845 174.411 355.641 174.458 355.641 174.458C365.26 174.494 367.756 174.47 370.946 174.07C372.818 173.846 375.008 173.469 377.504 172.81C379.729 172.233 381.577 171.55 382.966 171.009C386.145 180.227 389.335 189.445 392.526 198.652H392.538Z" fill="#066FD1"/>
    <path d="M355.732 174.812C355.897 177.343 349.94 179.815 342.405 180.333C334.882 180.851 328.631 179.215 328.454 176.683C328.431 176.401 328.49 176.13 328.607 175.848C329.537 175.706 330.385 175.589 331.056 175.506C332.987 175.271 334.67 175.106 335.954 174.988C337.237 174.882 338.143 174.823 338.544 174.788C338.661 174.788 346.761 174.293 355.65 174.458C355.685 174.576 355.709 174.694 355.72 174.812H355.732Z" fill="#FFCB9D"/>
    <path d="M356.508 169.278C345.83 169.796 333.88 165.181 332.421 161.814C332.091 160.99 331.808 160.036 331.42 159.036C329.819 154.091 328.865 148.97 328.606 143.766C328.606 143.507 328.606 142.542 328.477 141.517C328.465 139.175 328.453 137.044 328.453 135.172V135.148C328.453 133.276 328.465 131.652 328.465 130.345H328.477C328.677 130.851 329.536 132.711 330.702 132.535C331.879 132.346 332.892 130.015 332.797 126.672L352.717 127.802L360.511 135.396L360.582 135.466C360.582 135.466 360.77 136.643 361.217 138.492C361.347 139.128 361.5 139.763 361.653 140.387C362.23 142.801 362.936 145.179 363.772 147.51C363.796 147.592 363.819 147.686 363.854 147.769C364.549 150.053 365.703 152.184 367.21 154.044C371.554 158.671 367.186 168.772 356.508 169.278Z" fill="#FFCB9D"/>
    <path d="M363.777 147.51C361.104 148.346 356.972 149.264 351.898 149.052C346.824 148.84 342.797 147.581 340.219 146.556C340.078 147.581 339.866 148.593 339.595 149.594C339.301 151.124 338.747 152.619 337.994 153.997C337.299 155.315 336.287 156.434 335.062 157.281C333.956 158.082 332.731 158.671 331.425 159.036C329.823 154.091 328.87 148.97 328.611 143.766C328.611 143.507 328.611 142.542 328.481 141.517C328.587 139.94 328.646 137.762 328.458 135.172V135.148C328.293 132.758 327.963 130.51 328.47 130.345H328.481C328.999 130.227 329.717 132.405 330.6 132.346C331.201 132.311 331.99 131.228 332.708 126.507L352.628 127.637L360.492 135.301C360.492 135.301 360.504 135.337 360.516 135.396C360.61 135.866 361.081 138.127 361.128 138.315C361.234 138.845 361.398 139.516 361.657 140.387C362.234 142.801 362.941 145.179 363.777 147.51Z" fill="black" opacity="0.1"/>
    <path d="M323.545 125.412C322.98 128.932 325.464 129.91 325.088 133.712C324.711 137.138 322.686 137.75 323.286 139.811C323.993 142.059 327.583 143.601 329.385 145.191C329.809 145.568 330.173 145.956 330.527 146.38C330.68 146.556 330.845 146.745 330.95 146.969C332.269 148.734 333.117 150.818 333.458 153.008C334.447 151.913 335.106 150.512 335.259 149.052C335.259 146.698 335.059 144.355 334.706 142.059C334.753 141.977 334.741 141.859 334.694 141.777C334.694 141.518 334.694 141.388 334.694 140.811C334.612 139.728 334.659 138.645 334.859 137.562L334.918 137.444L335.177 137.574L335.683 137.821C337.131 138.421 339.792 139.575 343.006 140.705C350.823 143.46 361.784 146.239 366.057 141.612C366.399 141.259 366.693 140.87 366.976 140.493C367.246 140.105 367.494 139.716 367.694 139.293L367.717 139.245C368.235 138.257 368.459 137.115 368.33 135.984C367.753 131.899 361.737 130.816 361.69 127.06C361.678 124.588 364.303 123.917 363.891 121.657C363.467 119.42 360.348 117.371 357.628 117.312C355.591 117.312 355.368 118.396 353.449 118.396C350.14 118.372 349.528 114.934 346.208 114.722C344.089 114.805 342.041 115.499 340.357 116.747C338.944 117.807 338.662 118.49 337.119 119.208C335.907 119.679 334.635 119.926 333.364 119.938C330.586 119.973 330.138 119.125 328.667 119.279C326.088 119.82 324.052 122.657 323.569 125.365L323.522 125.412H323.545Z" fill="#232B41"/>
    <path d="M332.52 133.724C332.884 135.148 333.697 136.408 334.827 137.326L335.216 137.55L335.722 137.797C337.17 138.398 339.83 139.551 343.045 140.682C350.862 143.436 361.822 146.215 366.096 141.588C366.437 141.235 366.732 140.846 367.014 140.47C367.285 140.081 367.532 139.693 367.732 139.269C365.131 139.869 362.482 140.246 359.821 140.387C347.612 141.047 337.9 136.714 332.543 133.7H332.52V133.724Z" fill="black" opacity="0.5"/>
    <path d="M375.606 231.91V231.946H319.402C318.661 228.013 317.789 223.163 316.871 217.477C316.871 217.477 343.655 230.497 375.595 231.91H375.606Z" fill="black" opacity="0.1"/>
    <path d="M589.922 321.785C588.98 323.174 588.109 324.622 587.332 326.117C587.956 325.705 588.462 325.14 588.827 324.493C589.263 323.598 589.581 322.727 589.922 321.785Z" fill="black" opacity="0.1"/>
    <path d="M636.964 405.502C636.635 406.209 636.222 406.856 635.716 407.445C633.679 409.858 630.312 411.424 627.522 410.447C623.319 408.952 622.884 402.547 622.766 400.828C622.731 400.063 622.742 399.298 622.801 398.533C622.978 394.918 624.732 388.62 628.005 387.843C631.607 386.972 636.552 393.953 637.482 400.075C637.859 401.9 637.682 403.783 636.976 405.502H636.964Z" fill="#FFCB9D"/>
    <path d="M636.968 405.502C636.638 406.209 636.226 406.856 635.72 407.445C631.399 405.408 628.927 401.605 623.417 398.815L622.793 398.533C622.97 394.918 624.724 388.62 627.997 387.843C631.599 386.972 636.544 393.953 637.474 400.075C637.851 401.9 637.674 403.783 636.968 405.502Z" fill="black" opacity="0.1"/>
    <path d="M521.591 245.037C521.744 243.978 521.744 242.906 521.591 241.847C521.108 238.068 518.801 235.254 515.622 235.03C511.584 234.795 507.758 238.821 507.051 244.06C506.969 244.613 506.922 245.178 506.91 245.743C506.922 250.205 509.43 253.773 512.997 253.985C517.011 254.314 520.826 250.288 521.591 245.025V245.037Z" fill="#FFCB9D"/>
    <path d="M521.591 245.037C521.744 243.978 521.744 242.906 521.591 241.847C521.167 241.847 520.79 241.87 520.39 241.906C515.186 242.306 513.162 244.425 507.652 245.685C507.405 245.744 507.169 245.779 506.922 245.802C506.934 250.264 509.441 253.832 513.008 254.043C517.011 254.302 520.838 250.276 521.591 245.025V245.037Z" fill="black" opacity="0.1"/>
    <path d="M654.424 408.045C650.044 407.751 645.735 406.609 641.791 404.678C636.27 402.065 633.962 399.204 628.559 397.591C625.356 396.673 622.001 396.378 618.681 396.72C622.119 384.947 624.061 372.797 624.485 360.53L624.438 359.564C624.438 356.974 624.297 354.361 624.014 351.771C623.873 350.381 623.673 349.028 623.402 347.709V347.438C622.672 343.73 621.295 340.21 619.293 336.996C617.892 334.723 616.244 332.64 614.384 330.744C614.137 330.497 613.89 330.261 613.642 330.002C612.948 329.378 612.277 328.743 611.559 328.178C608.792 325.87 605.754 323.904 602.54 322.291C601.363 321.679 600.315 321.208 599.491 320.855L597.584 320.125C597.666 321.926 597.749 323.751 597.925 325.552V325.823C599.162 347.827 599.986 356.433 600.904 372.738C600.998 374.846 601.069 376.623 601.128 377.93C590.862 378.024 580.596 378.071 570.318 378.142L541.333 378.283C542.192 371.985 543.075 365.557 543.911 359.211C545.324 348.886 546.713 338.526 548.114 328.213C540.933 328.66 527.57 328.307 515.162 320.219C503.742 312.755 495.807 300.499 492.334 285.983C489.709 275.023 489.626 262.767 492.475 250.323C498.95 251.053 503.883 250.276 507.191 249.44C512.265 248.157 514.314 246.509 519.482 245.19C525.216 243.718 530.196 243.836 533.457 244.142C527.853 261.967 527.088 276.589 527.37 286.16C527.77 300.535 530.561 306.621 534.716 309.694C539.072 312.92 546.03 313.662 547.102 313.026C547.137 313.014 547.325 312.896 547.596 312.755C548.067 312.496 548.82 312.131 549.786 311.79C550.233 311.625 550.739 311.425 551.316 311.213C552.623 310.73 554.012 310.294 555.331 309.906C560.582 308.434 565.938 307.422 571.342 306.857C576.981 306.303 582.656 306.162 588.319 306.421C590.579 306.504 593.004 306.727 595.406 306.975C595.524 306.975 595.594 306.975 595.712 306.963C598.42 306.786 602.317 306.963 605.825 309.2C609.71 311.684 608.98 314.015 612.854 316.228C617.186 318.689 619.988 316.876 624.697 319.984C625.439 320.478 626.392 321.467 628.359 323.362C632.373 327.248 635.964 331.533 639.072 336.136C639.766 337.149 640.414 338.149 641.038 339.185C641.426 339.798 641.791 340.421 642.168 341.069L642.639 341.928C644.217 344.742 645.618 347.662 646.842 350.664C647.313 351.759 647.749 352.865 648.161 353.972C648.808 355.726 649.397 357.504 649.938 359.258C650.327 360.447 650.68 361.66 650.998 362.884C651.669 365.368 652.234 367.782 652.717 370.183C652.988 371.632 653.247 373.068 653.47 374.504C655.224 385.606 655.53 396.873 654.389 408.045H654.424Z" fill="#DADCE0"/>
    <path d="M653.508 374.504C629.503 374.233 618.696 396.72 618.696 396.72C622.133 384.959 624.076 372.797 624.488 360.541L624.441 359.576C624.441 356.974 624.3 354.372 624.029 351.782C623.864 350.393 623.676 349.051 623.417 347.709C623.417 347.627 623.417 347.532 623.417 347.438C622.687 343.741 621.297 340.198 619.308 336.996C617.907 334.735 616.259 332.64 614.398 330.744L639.11 336.16C639.805 337.16 640.452 338.173 641.076 339.197C641.464 339.809 641.829 340.433 642.206 341.081L642.677 341.94C644.255 344.766 645.656 347.685 646.88 350.676C647.351 351.782 647.775 352.889 648.199 353.984C648.846 355.738 649.447 357.504 649.976 359.27C650.353 360.471 650.718 361.683 651.036 362.896C651.707 365.368 652.284 367.794 652.767 370.195C653.049 371.632 653.296 373.068 653.52 374.504H653.508Z" fill="black" opacity="0.1"/>
    <path d="M624.525 359.564C624.525 356.963 624.383 354.361 624.112 351.771C623.959 350.382 623.759 349.039 623.5 347.697V347.426C622.759 343.73 621.369 340.186 619.38 336.984C617.79 334.429 615.895 332.075 613.717 330.003C613.034 329.355 612.351 328.731 611.657 328.166C608.878 325.87 605.853 323.892 602.627 322.291C601.45 321.679 600.39 321.208 599.566 320.855L597.682 320.137C597.753 321.95 597.835 323.751 598.012 325.564V325.847C596.941 325.293 595.94 324.881 595.139 324.54C592.796 321.585 590.265 318.795 587.546 316.181C585.203 313.932 582.731 311.813 580.152 309.835C580.305 309.871 580.47 309.894 580.623 309.894C586.274 310.542 591.843 311.766 597.247 313.567C604.428 315.957 611.292 319.23 617.673 323.304C621.322 325.717 624.807 328.354 628.115 331.215C629.964 332.816 631.989 334.665 634.131 336.76C637.993 340.575 641.619 344.636 644.986 348.91C646.728 351.771 648.247 354.749 649.519 357.846C649.519 357.846 649.695 358.446 649.954 359.235C650.425 360.777 650.778 362.025 651.014 362.861C642.137 363.296 633.237 362.508 624.572 360.506L624.548 359.564H624.525Z" fill="black" opacity="0.1"/>
    <path d="M590.133 309.294C590.403 315.722 583.034 321.22 573.674 321.608C564.315 321.997 556.533 317.135 556.262 310.707C556.25 310.353 556.262 310 556.332 309.659C561.583 308.187 566.94 307.175 572.367 306.633C578.006 306.068 583.693 305.915 589.356 306.197C589.838 307.163 590.109 308.222 590.144 309.306L590.133 309.294Z" fill="#FFCB9D"/>
    <path d="M590.133 309.294C590.403 315.722 583.034 321.22 573.674 321.608C564.315 321.997 556.533 317.135 556.262 310.707C556.25 310.353 556.262 310 556.332 309.659C561.583 308.187 566.94 307.175 572.367 306.633C578.006 306.068 583.693 305.915 589.356 306.197C589.838 307.163 590.109 308.222 590.144 309.306L590.133 309.294Z" fill="black" opacity="0.1"/>
    <path d="M601.259 377.989C599.611 407.174 597.963 436.359 596.327 465.556C593.972 465.415 591.629 465.262 589.286 465.132C584.224 443.694 579.173 422.255 574.123 400.805C571.851 418.806 569.284 437.042 566.376 455.526C565.764 459.434 565.14 463.319 564.504 467.204L558.606 466.474C556.134 451.558 553.391 436.336 550.353 420.772C547.528 406.279 544.585 392.128 541.512 378.342C541.512 378.33 541.5 378.307 541.5 378.295L554.45 378.236L601.271 378.012L601.259 377.989Z" fill="#066FD1"/>
    <path d="M601.26 377.977L571.297 378.142L541.488 378.319C542.336 372.032 543.207 365.604 544.055 359.235C543.996 359.788 563.527 376.447 600.989 372.785C601.012 373.492 601.048 374.186 601.071 374.904C601.165 375.929 601.224 376.965 601.26 377.977Z" fill="black" opacity="0.1"/>
    <path d="M597.737 484.463L597.667 479.436C597.667 479.436 598.361 474.633 595.571 473.256C592.792 471.878 583.009 478.553 580.16 483.298L590.956 480.92L591.945 484.993L597.725 484.463H597.737Z" fill="#232B41"/>
    <path d="M565.55 483.663L564.714 478.707C564.714 478.707 564.655 473.856 561.688 472.914C558.721 471.984 550.092 480.084 547.996 485.217L558.297 481.202L559.91 485.076L565.55 483.663Z" fill="#232B41"/>
    <path d="M569.07 295.684C576.628 299.393 586.235 300.311 590.744 299.181C591.497 299.04 592.204 298.71 592.804 298.227C593.487 297.591 594.146 296.862 594.782 296.167C595.677 295.166 596.548 294.083 597.349 293C599.479 290.163 601.363 287.137 602.952 283.97C603.07 283.723 603.447 282.922 603.882 282.028C605.754 277.954 607.155 274.634 608.109 272.303C607.791 272.586 606.284 273.834 605.401 273.351C604.518 272.868 604.483 270.443 605.813 267.523L587.989 261.036L578.206 264.757C578.206 264.757 577.594 265.71 576.558 267.111C574.803 269.572 572.884 271.915 570.801 274.116C569.305 275.835 567.504 277.26 565.491 278.331C559.946 280.815 560.005 291.281 569.058 295.708L569.07 295.684Z" fill="#FFCB9D"/>
    <path d="M570.805 274.14C576.703 279.014 584.049 281.781 591.702 282.004C593.362 282.875 594.739 284.194 595.704 285.795C597.094 288.22 596.47 289.786 597.247 292.671L597.317 292.953C599.448 290.116 601.332 287.09 602.921 283.923C603.039 283.676 603.416 282.875 603.851 281.981C605.723 277.907 607.124 274.587 608.078 272.256C607.76 272.539 606.253 273.787 605.37 273.304C604.487 272.821 604.452 270.396 605.782 267.476L587.958 260.99L578.175 264.71C578.175 264.71 577.562 265.663 576.526 267.064C574.784 269.56 572.877 271.927 570.805 274.152V274.14Z" fill="black" opacity="0.1"/>
    <path d="M662.843 366.922C657.627 368.123 652.283 368.724 646.938 368.7C638.402 368.7 629.949 367.017 622.061 363.779C622.061 363.779 598.716 356.397 587.378 337.278C586.048 335.135 584.977 332.84 584.164 330.45C580.856 320.666 581.186 305.88 588.638 298.133C591.746 294.895 594.572 291.411 597.079 287.69C598.139 286.042 598.904 284.229 599.34 282.322C599.41 281.91 599.469 281.463 599.54 281.015C599.787 279.473 598.233 277.012 598.221 274.493C594.136 275.176 579.255 277.012 572.98 268.336C571.544 266.381 570.625 264.097 570.296 261.684C570.154 260.53 570.343 259.365 570.826 258.305C573.004 254.02 580.279 254.043 583.328 254.067C595.125 254.137 603.46 262.767 605.638 265.027C606.58 265.981 620.943 281.321 616.387 295.849C613.95 303.607 607.71 305.044 608.193 308.717C608.77 312.884 617.588 317.723 656.898 319.748C653.236 330.238 654.154 337.243 655.803 341.905C657.086 345.46 659.134 348.509 660.688 353.737C661.03 354.796 661.336 355.938 661.607 357.163C662.348 360.365 662.772 363.626 662.866 366.911L662.843 366.922Z" fill="#232B41"/>
    <path d="M662.843 366.922C657.593 367.9 652.271 368.488 646.938 368.7C638.403 368.7 629.95 367.017 622.062 363.779C622.062 363.779 598.716 356.397 587.379 337.278C586.048 335.135 584.977 332.84 584.165 330.45C580.856 320.666 581.186 305.88 588.638 298.133C591.746 294.895 594.572 291.411 597.08 287.69C592.394 300.287 592.676 314.191 597.868 326.588C604.19 339.374 614.998 349.392 628.231 354.726C634.188 357.28 640.698 358.34 647.162 357.798C651.93 357.304 656.545 355.879 660.759 353.607C661.101 354.667 661.407 355.809 661.678 357.033C662.408 360.271 662.796 363.579 662.855 366.911L662.843 366.922Z" fill="black" opacity="0.5"/>
    <path d="M570.356 261.637C570.685 264.038 571.603 266.322 573.04 268.289C579.315 276.965 594.184 275.14 598.281 274.446C599.847 273.787 601.354 272.962 602.743 271.985C590.899 274.104 578.773 270.219 570.367 261.613L570.344 261.637H570.356Z" fill="black" opacity="0.5"/>
    <path d="M582.338 320.219C580.443 316.075 578.371 313.979 576.169 313.979C573.638 313.979 571.731 316.711 570.824 318.371C569.564 316.393 566.715 312.661 563.254 312.908C560.452 313.144 558.015 316.099 556.002 321.644C555.06 324.234 554.012 327.871 555.508 329.567C555.978 330.061 556.649 330.308 557.332 330.238C560.323 330.108 565.279 326.294 568.646 323.398C568.199 324.646 567.41 325.741 566.35 326.541C565.562 326.883 565.008 327.601 564.867 328.448C564.502 330.308 565.785 332.534 566.915 334.252L568.069 332.922C566.397 330.32 566.362 329.308 566.339 329.013C566.421 328.766 566.609 328.578 566.845 328.495C568.705 327.683 570.188 324.234 570.93 322.185C571.601 323.551 572.143 324.987 572.531 326.459C572.484 326.812 572.402 327.153 572.307 327.495C571.966 328.825 571.413 331.038 572.837 332.428C573.638 333.228 574.356 336.136 574.721 340.245L576.275 340.045C575.816 335.088 574.968 331.992 573.744 330.768C573.32 330.367 573.414 329.637 573.791 328.189C573.944 327.671 574.038 327.153 574.085 326.612C573.932 325.34 573.579 324.104 573.026 322.95C575.839 324.975 579.536 327.271 581.738 327.189C582.326 327.224 582.903 326.965 583.268 326.494C584.281 324.964 583.209 322.185 582.314 320.219H582.338ZM556.485 328.013C556.485 327.919 555.79 327.036 557.403 322.562C559.134 317.711 561.158 315.145 563.336 314.957H563.49C566.221 314.839 568.705 318.277 569.729 319.901C564.184 324.975 557.697 329.39 556.485 328.013ZM582.067 324.999C581.384 325.905 576.687 323.445 571.978 319.807C572.684 318.5 574.215 316.099 576.098 316.028H576.204C577.77 316.028 579.407 317.794 581.019 321.267C582.409 324.316 582.067 325.011 582.067 325.011V324.999Z" fill="#066FD1"/>
    <path d="M548.14 328.225C540.958 328.672 527.596 328.319 515.187 320.231C503.767 312.767 495.832 300.511 492.359 285.995C502.849 297.921 523.522 318.536 548.14 328.225Z" fill="black" opacity="0.1"/>
    <path d="M397.602 290.504C405.619 290.504 412.118 284.005 412.118 275.988C412.118 267.971 405.619 261.472 397.602 261.472C389.585 261.472 383.086 267.971 383.086 275.988C383.086 284.005 389.585 290.504 397.602 290.504Z" fill="#232B41"/>
    <path d="M397.903 279.944C397.762 279.944 397.633 279.944 397.491 279.932C394.383 279.708 392.052 277.001 392.276 273.904C392.923 265.004 393.383 256.068 393.63 247.356C393.948 236.49 393.806 231.333 393.677 228.402C393.406 222.445 392.853 216.441 392.029 210.566C391.593 207.481 393.747 204.632 396.832 204.197C399.905 203.761 402.766 205.916 403.201 209C404.072 215.216 404.661 221.574 404.955 227.896C405.097 231.004 405.25 236.443 404.92 247.686C404.661 256.563 404.202 265.663 403.543 274.728C403.331 277.695 400.858 279.956 397.927 279.956L397.903 279.944Z" fill="#A6A9B3"/>
    <path d="M254.39 168.901L246.385 160.955C243.324 164.039 239.085 168.76 234.847 174.835C230.067 181.675 225.299 190.257 222.203 200.253C222.144 200.429 222.097 200.618 222.05 200.794C221.803 201.607 221.567 202.407 221.355 203.208C221.249 203.584 221.155 203.973 221.061 204.361C220.979 204.703 220.884 205.044 220.802 205.386C220.72 205.739 220.637 206.092 220.555 206.445C220.484 206.728 220.425 207.01 220.355 207.293C220.155 208.176 219.99 209.047 219.825 209.907C219.754 210.271 219.684 210.636 219.613 211.001C219.46 211.849 219.33 212.661 219.201 213.474C219.166 213.697 219.119 213.921 219.083 214.157C218.106 220.796 217.977 226.035 217.977 228.072C217.977 230.733 218.094 233.417 218.33 236.078C218.389 236.101 218.459 236.113 218.518 236.137C220.249 236.666 222.003 236.89 223.734 236.831H223.804L225.676 236.643C225.676 236.643 225.7 236.643 225.711 236.631C227.054 236.419 228.36 236.019 229.585 235.466C229.373 233.017 229.255 230.533 229.255 228.072C229.255 226.271 229.361 221.656 230.22 215.805C230.538 213.662 230.927 211.567 231.386 209.53C231.386 209.494 231.41 209.459 231.41 209.424C231.586 208.623 231.786 207.834 231.986 207.057C232.069 206.74 232.151 206.422 232.234 206.104C232.469 205.256 232.705 204.409 232.952 203.573C237.437 189.045 246.055 177.825 252.012 171.338C252.848 170.42 253.637 169.608 254.355 168.89L254.39 168.901Z" fill="#A6A9B3"/>
    <path d="M574.111 400.793C571.839 418.794 569.272 437.03 566.364 455.514C565.752 459.422 565.128 463.307 564.493 467.192L558.594 466.463C556.122 451.546 553.379 436.324 550.341 420.76C547.516 406.267 544.573 392.116 541.5 378.33L570.344 378.154L574.111 400.805V400.793Z" fill="black" opacity="0.1"/>
    <path d="M432.244 486.948C431.609 487.23 390.427 487.054 376.287 486.971C373.745 486.959 371.743 484.793 371.908 482.25L375.145 435.5L378.889 381.403C379.042 379.084 380.973 377.294 383.281 377.294H420.271C422.567 377.294 424.486 379.048 424.686 381.344C425.169 387.384 426.111 399.545 427.182 413.531C429.631 445.389 432.727 486.736 432.268 486.948H432.244Z" fill="#232B41"/>
    <path d="M390.182 393.835C392.835 393.835 394.986 391.685 394.986 389.032C394.986 386.379 392.835 384.229 390.182 384.229C387.529 384.229 385.379 386.379 385.379 389.032C385.379 391.685 387.529 393.835 390.182 393.835Z" fill="#DADCE0"/>
    <path d="M413.811 395.048C416.464 395.048 418.615 392.897 418.615 390.245C418.615 387.592 416.464 385.441 413.811 385.441C411.158 385.441 409.008 387.592 409.008 390.245C409.008 392.897 411.158 395.048 413.811 395.048Z" fill="#DADCE0"/>
    <path d="M432.244 486.948C431.609 487.23 390.427 487.053 376.287 486.971C373.745 486.959 371.743 484.793 371.908 482.25L375.145 435.5C384.74 437.23 399.209 438.678 404.519 432.203C409.052 426.682 418.835 419.288 427.17 413.543C429.619 445.401 432.715 486.747 432.256 486.959L432.244 486.948Z" fill="black" opacity="0.3"/>
    <path d="M503.403 487.689H410.29C408.03 487.689 406.358 485.57 406.864 483.369L408.065 478.271L416.907 440.762C417.283 439.173 418.696 438.043 420.333 438.043H491.995C493.572 438.043 494.973 439.114 495.397 440.656L499.388 455.549L506.805 483.251C507.417 485.488 505.722 487.677 503.403 487.677V487.689Z" fill="#A6A9B3"/>
    <path d="M429.009 455.373C432.403 455.373 435.154 452.621 435.154 449.227C435.154 445.833 432.403 443.082 429.009 443.082C425.615 443.082 422.863 445.833 422.863 449.227C422.863 452.621 425.615 455.373 429.009 455.373Z" fill="#232B41"/>
    <path d="M483.579 455.373C486.973 455.373 489.725 452.621 489.725 449.227C489.725 445.833 486.973 443.082 483.579 443.082C480.185 443.082 477.434 445.833 477.434 449.227C477.434 452.621 480.185 455.373 483.579 455.373Z" fill="#232B41"/>
    <path d="M483.958 451.711C483.828 451.711 483.699 451.711 483.569 451.676C482.215 451.464 481.285 450.192 481.497 448.827C481.532 448.627 484.417 429.201 475.069 418.288C470.831 413.343 464.579 410.824 456.503 410.824C448.427 410.824 442.022 413.343 437.808 418.299C428.766 428.966 431.745 447.661 431.768 447.85C431.992 449.203 431.074 450.487 429.72 450.71C428.354 450.934 427.082 450.028 426.859 448.662C426.717 447.802 423.456 427.529 433.993 415.085C439.185 408.94 446.767 405.832 456.503 405.832C466.239 405.832 473.633 408.928 478.86 415.05C489.703 427.73 486.559 448.697 486.418 449.592C486.23 450.816 485.17 451.699 483.958 451.699V451.711Z" fill="#066FD1"/>
    <path d="M413.871 391.905C413.871 391.905 413.801 391.905 413.765 391.905C412.823 391.846 412.105 391.033 412.164 390.092C412.717 381.026 412.682 355.95 405.948 348.78C404.782 347.544 403.511 346.944 402.051 346.944C400.591 346.944 399.261 347.556 398.084 348.816C391.444 355.903 391.479 380.261 392.056 389.044C392.115 389.986 391.397 390.81 390.455 390.869C389.525 390.927 388.689 390.221 388.63 389.267C388.536 387.914 386.558 356.091 395.576 346.473C397.413 344.519 399.591 343.518 402.051 343.518C404.512 343.518 406.619 344.495 408.444 346.438C417.58 356.15 415.672 388.914 415.59 390.304C415.531 391.21 414.778 391.916 413.883 391.916L413.871 391.905Z" fill="#A6A9B3"/>
    <path d="M503.403 487.689H410.29C408.03 487.689 406.358 485.57 406.864 483.369L408.065 478.271C440.076 479.342 480.893 463.555 499.388 455.549L506.805 483.251C507.417 485.488 505.722 487.678 503.403 487.678V487.689Z" fill="black" opacity="0.1"/>
</svg>
