<svg xmlns="http://www.w3.org/2000/svg" width="800" height="600" fill="none" viewBox="0 0 800 600">
    <path d="M155 299.949C155 341.482 198.899 371.574 218.293 405.089C238.317 439.662 243.124 492.509 277.709 512.558C311.187 531.914 359.012 510.254 400.545 510.254C442.077 510.254 489.789 531.939 523.304 512.558C557.89 492.509 562.697 439.662 582.721 405.089C602.052 371.574 645.963 341.457 645.963 299.949C645.963 258.442 602.065 228.287 582.671 194.797C562.647 160.212 557.839 107.34 523.254 87.3413C489.739 67.9469 442.002 89.6319 400.494 89.6319C358.987 89.6319 311.187 67.9469 277.709 87.3413C243.124 107.34 238.317 160.212 218.293 194.797C198.886 228.287 155 258.43 155 299.949Z" fill="#066FD1" opacity="0.02"/>
    <path d="M462.742 277.56C462.18 276.265 461.128 275.246 459.816 274.727C458.504 274.208 457.039 274.231 455.744 274.791C433.732 284.293 411.015 302.379 387.782 328.808C392.69 320.074 397.712 310.761 402.658 301.045C438.338 231.018 453.479 174.635 447.677 133.43C447.48 132.031 446.735 130.768 445.607 129.918C444.479 129.069 443.059 128.702 441.661 128.899C440.262 129.096 438.999 129.84 438.149 130.969C437.3 132.097 436.933 133.516 437.13 134.915C446.217 199.34 396.63 294.173 364.574 347.435C368.79 321.307 368.778 298.691 364.486 279.75C364.339 279.06 364.057 278.407 363.655 277.827C363.254 277.248 362.742 276.754 362.148 276.374C361.554 275.994 360.89 275.736 360.196 275.615C359.501 275.493 358.79 275.511 358.102 275.667C357.415 275.823 356.765 276.113 356.191 276.522C355.617 276.931 355.129 277.45 354.757 278.049C354.385 278.648 354.136 279.315 354.023 280.01C353.911 280.706 353.938 281.418 354.103 282.103C360.081 308.457 356.394 340.865 348.087 373.751C342.65 382.259 339.114 387.18 338.874 387.495C338.124 388.566 337.796 389.876 337.951 391.174C338.107 392.472 338.736 393.667 339.718 394.53C338.459 396.494 337.263 398.469 336.03 400.458C317.249 431.109 300.434 462.922 285.688 495.706C285.385 496.351 285.215 497.05 285.188 497.762C285.16 498.474 285.276 499.184 285.528 499.851C285.781 500.517 286.164 501.126 286.656 501.642C287.148 502.157 287.738 502.569 288.392 502.852C289.046 503.135 289.75 503.284 290.463 503.29C291.175 503.296 291.882 503.159 292.54 502.887C293.199 502.615 293.796 502.213 294.297 501.706C294.797 501.199 295.191 500.597 295.454 499.934C295.769 499.23 308.04 471.202 328.101 435.282C313.664 472.001 296.657 507.656 277.205 541.983C276.493 543.2 276.291 544.65 276.645 546.016C276.999 547.382 277.879 548.551 279.093 549.27C279.908 549.753 280.839 550.005 281.786 550C282.714 550.003 283.626 549.762 284.432 549.303C285.238 548.844 285.91 548.182 286.38 547.382C304.167 516.135 319.948 483.787 333.626 450.536C341.608 431.231 348.581 411.525 354.518 391.497C383.616 346.781 420.844 301.498 460.023 284.52C461.302 283.951 462.304 282.902 462.813 281.599C463.322 280.295 463.297 278.844 462.742 277.56Z" fill="#232B41"/>
    <path d="M271.541 195.175C275.581 241.741 294.799 276.566 321.04 282.368C326.622 283.601 332.42 283.45 337.93 281.927C386.133 268.649 369.734 175.44 369.734 175.44L271.541 195.175Z" fill="#066FD1"/>
    <path d="M483.546 128.433C500.346 128.433 513.966 114.814 513.966 98.0141C513.966 81.2139 500.346 67.5947 483.546 67.5947C466.746 67.5947 453.127 81.2139 453.127 98.0141C453.127 114.814 466.746 128.433 483.546 128.433Z" fill="#A6A9B3"/>
    <path d="M437.796 110.839C454.596 110.839 468.216 97.2195 468.216 80.4194C468.216 63.6192 454.596 50 437.796 50C420.996 50 407.377 63.6192 407.377 80.4194C407.377 97.2195 420.996 110.839 437.796 110.839Z" fill="#DADBE0"/>
    <path d="M400.468 142.768C417.268 142.768 430.888 129.149 430.888 112.349C430.888 95.5489 417.268 81.9297 400.468 81.9297C383.668 81.9297 370.049 95.5489 370.049 112.349C370.049 129.149 383.668 142.768 400.468 142.768Z" fill="#DADBE0"/>
    <path d="M445.525 165.674C445.458 170.848 444.053 175.916 441.448 180.387C438.772 185.037 434.913 188.897 430.264 191.575C425.614 194.253 420.339 195.654 414.974 195.635C409.608 195.616 404.343 194.178 399.713 191.467C395.082 188.756 391.251 184.869 388.608 180.199C385.965 175.53 384.605 170.244 384.664 164.879C384.723 159.514 386.201 154.259 388.947 149.65C391.692 145.04 395.608 141.238 400.298 138.63C404.987 136.023 410.283 134.702 415.647 134.802C416.465 134.802 417.283 134.877 418.076 134.94C418.869 135.003 419.712 135.129 420.505 135.28C426.023 136.256 431.163 138.742 435.355 142.46C439.547 146.179 442.627 150.986 444.254 156.348C444.483 157.063 444.672 157.79 444.821 158.525C445.359 160.869 445.596 163.271 445.525 165.674Z" fill="#A6A9B3"/>
    <path d="M500.952 171.967C500.952 172.386 500.952 172.806 500.952 173.225C500.554 180.359 497.659 187.124 492.773 192.337C487.886 197.549 481.322 200.875 474.229 201.732C467.136 202.589 459.968 200.923 453.981 197.024C447.994 193.126 443.57 187.245 441.485 180.412C439.265 173.095 439.876 165.211 443.196 158.324C443.511 157.644 443.876 156.99 444.241 156.348C446.574 152.315 449.801 148.871 453.674 146.281C457.547 143.692 461.962 142.025 466.58 141.409C468.064 141.196 469.562 141.103 471.061 141.132C479.107 141.278 486.768 144.603 492.369 150.381C497.97 156.159 501.056 163.92 500.952 171.967Z" fill="#DADBE0"/>
    <path d="M527.318 143.561C527.211 150.856 524.48 157.868 519.627 163.315C514.774 168.762 508.122 172.28 500.889 173.225C499.404 173.426 497.906 173.519 496.408 173.502C489.845 173.391 483.494 171.162 478.3 167.148C473.107 163.133 469.349 157.549 467.587 151.226C466.796 148.422 466.418 145.518 466.467 142.605C466.467 142.202 466.467 141.787 466.467 141.409C466.763 135.906 468.556 130.588 471.652 126.03C473.13 123.833 474.895 121.844 476.901 120.114C481.193 116.391 486.444 113.945 492.057 113.055C497.67 112.165 503.42 112.867 508.654 115.08C511.768 116.361 514.634 118.175 517.124 120.442C520.392 123.331 522.995 126.893 524.755 130.884C526.515 134.875 527.389 139.2 527.318 143.561Z" fill="#A6A9B3"/>
    <path d="M447.677 158.689C464.477 158.689 478.096 145.07 478.096 128.27C478.096 111.47 464.477 97.8503 447.677 97.8503C430.877 97.8503 417.258 111.47 417.258 128.27C417.258 145.07 430.877 158.689 447.677 158.689Z" fill="#066FD1"/>
    <path d="M361.919 298.691C356.403 300.203 350.602 300.35 345.017 299.119C335.527 297.005 326.982 291.14 319.72 282.267C306.87 266.598 298.11 241.666 295.518 211.939C323.13 206.367 350.743 200.817 378.356 195.288C383.482 194.239 388.601 193.207 393.71 192.192C393.71 192.192 410.109 285.401 361.919 298.691Z" fill="#DADBE0"/>
    <path d="M367.011 381.057L342.415 370.914C337.955 369.075 332.849 371.199 331.01 375.659L328.448 381.872C326.609 386.331 328.733 391.437 333.193 393.276L357.789 403.42C362.249 405.259 367.355 403.134 369.194 398.675L371.756 392.461C373.595 388.002 371.471 382.896 367.011 381.057Z" fill="#066FD1"/>
    <path d="M536.946 226.412C536.946 226.412 544.925 236.883 525.48 251.923C506.036 266.963 471.148 267.957 471.148 267.957C471.148 267.957 487.044 236.896 508.981 225.795C530.917 214.695 536.946 226.412 536.946 226.412Z" fill="#066FD1"/>
    <path d="M539.879 337.908C539.879 337.908 531.069 351.525 505.482 335.126C479.896 318.727 464.365 278.604 464.365 278.604C464.365 278.604 507.043 284.23 529.03 305.147C551.017 326.065 539.879 337.908 539.879 337.908Z" fill="#066FD1"/>
    <path d="M429.618 362.903C429.618 362.903 418.593 360.26 423.325 339.632C428.057 319.004 450.862 299.358 450.862 299.358C450.862 299.358 457.155 328.733 448.546 348.077C439.938 367.421 429.618 362.903 429.618 362.903Z" fill="#066FD1"/>
    <path d="M441.7 170.822C441.7 170.822 458.061 166.568 466.217 197.113C474.372 227.658 458.162 269.48 458.162 269.48C458.162 269.48 429.278 235.184 427.05 203.657C424.823 172.13 441.7 170.822 441.7 170.822Z" fill="#066FD1"/>
    <path d="M361.92 298.691C356.404 300.203 350.603 300.35 345.018 299.119C335.528 297.005 326.983 291.14 319.721 282.267C341.116 275.483 356.445 258.077 358.736 237.928C360.901 219.188 351.021 205.067 348.202 201.329L385.959 193.778L393.636 192.242C393.636 192.242 410.11 285.401 361.92 298.691Z" fill="black" opacity="0.1"/>
    <path d="M366.663 252.2C366.663 252.2 368.514 238.268 394.578 241.553C420.643 244.837 447.765 270.386 447.765 270.386C447.765 270.386 412.337 281.902 387.354 273.747C362.372 265.591 366.663 252.2 366.663 252.2Z" fill="#066FD1"/>
    <path d="M456.324 308.86C473.124 308.86 486.743 295.241 486.743 278.441C486.743 261.641 473.124 248.021 456.324 248.021C439.524 248.021 425.904 261.641 425.904 278.441C425.904 295.241 439.524 308.86 456.324 308.86Z" fill="#DADBE0"/>
</svg>
