<svg xmlns="http://www.w3.org/2000/svg" width="800" height="600" fill="none" viewBox="0 0 800 600">
    <path d="M130.804 300.02C130.804 347.03 180.593 381.109 202.466 419.176C225.307 458.451 230.624 518.271 269.899 540.869C307.846 562.864 361.985 538.211 408.995 538.211C456.005 538.211 510.145 562.743 548.091 540.869C587.245 518.15 592.683 458.33 615.403 419.176C637.397 381.23 687.066 347.03 687.066 300.02C687.066 253.01 637.397 218.931 615.403 180.864C592.683 141.71 587.245 81.7691 548.091 59.1706C510.024 37.1764 456.005 61.8293 408.995 61.8293C361.985 61.8293 307.846 37.1764 269.899 59.0498C230.745 81.7691 225.307 141.589 202.587 180.743C180.593 218.931 130.925 253.01 130.804 300.02Z" fill="#066FD1" opacity="0.02"/>
    <path d="M304.221 189.686C300.716 183.402 293.224 181.106 287.785 181.106C272.196 180.864 257.211 198.629 245.489 229.687C245.368 227.632 245.126 225.699 245.005 223.644C242.347 195.728 236.304 181.71 226.153 179.172C220.352 177.964 214.31 180.26 210.805 185.094C202.225 196.695 209.355 221.832 220.111 246.968C223.978 255.911 228.328 264.853 232.679 273.192L241.501 268.6L239.567 264.853H241.742L247.906 271.621C254.552 265.578 260.716 259.899 266.154 254.46C277.997 242.859 287.181 232.708 293.586 224.128C305.187 208.901 308.571 197.662 304.221 189.686ZM230.866 246.847C218.298 218.569 213.706 198.025 218.781 191.015C219.748 189.565 221.319 188.719 223.011 188.719C223.253 188.719 223.494 188.719 223.736 188.84C230.624 190.532 235.7 215.306 236.425 247.089C236.546 250.956 236.546 254.944 236.425 259.053C234.492 254.823 232.679 250.714 230.866 246.847ZM256.244 250.472C253.223 253.373 250.081 256.273 246.697 259.415C247.664 255.79 248.631 252.164 249.598 248.781C259.99 214.097 274.855 191.015 287.544 191.015H287.665C290.686 191.015 294.311 192.345 295.52 194.52C297.212 197.42 298.541 209.626 256.244 250.472Z" fill="#066FD1"/>
    <path d="M266.153 254.581C260.594 260.019 254.552 265.699 247.905 271.742L241.742 264.974H239.567L241.5 268.72L232.679 273.313C228.328 264.974 223.977 256.031 220.11 247.089C223.373 246.847 226.999 246.847 230.866 246.847C232.558 250.714 234.491 254.823 236.546 259.053C236.546 254.944 236.546 251.077 236.546 247.089L239.809 247.33C241.984 247.572 244.159 247.814 246.455 248.176C247.543 248.297 248.63 248.539 249.718 248.781C248.63 252.285 247.664 255.79 246.818 259.415C250.201 256.273 253.343 253.252 256.365 250.472C259.628 251.56 263.011 252.889 266.153 254.581Z" fill="black" opacity="0.1"/>
    <path d="M192.194 373.254L211.047 424.977L211.167 479.962L218.056 478.391L241.621 417.605L206.454 337.724L192.194 373.254Z" fill="#066FD1"/>
    <path d="M192.194 373.254L211.047 424.977L211.167 479.962L218.056 478.391L241.621 417.605L206.454 337.724L192.194 373.254Z" fill="black" opacity="0.25"/>
    <path d="M96 494.222C96 496.277 139.143 497.968 192.195 497.968C245.247 497.968 288.389 496.277 288.389 494.222C288.389 492.168 245.368 490.476 192.195 490.476C139.022 490.476 96 492.168 96 494.222Z" fill="#D6D8E2" opacity="0.5"/>
    <path d="M169.234 369.145L174.189 423.526L159.929 476.941H167.059L205.73 423.043C205.126 394.16 204.401 365.278 203.796 336.395L169.234 369.145Z" fill="#066FD1"/>
    <path d="M107.48 230.533C108.326 233.312 109.535 237.421 111.227 242.376C111.589 243.463 111.952 244.43 112.073 244.793C114.127 250.231 116.786 255.306 120.169 260.019C120.895 260.986 121.499 261.832 122.224 262.678C124.883 265.82 139.143 266.666 150.261 262.557C161.379 258.448 162.708 246.243 156.545 242.738C154.369 241.288 152.436 239.354 150.865 237.179C148.69 234.4 146.756 231.379 144.943 228.236C143.856 226.424 143.251 225.336 143.251 225.336L132.254 219.777L110.622 225.215C111.831 228.72 111.468 231.499 110.381 232.104C109.293 232.708 107.843 230.895 107.48 230.533Z" fill="#FFCB9D"/>
    <path d="M107.48 230.533C108.326 233.312 109.535 237.421 111.227 242.376C111.589 243.463 111.952 244.43 112.073 244.793C114.127 250.231 116.786 255.306 120.169 260.019C121.499 259.173 122.586 258.207 123.432 256.998C124.399 255.669 125.124 254.098 125.487 252.527C125.849 250.835 125.97 249.022 125.728 247.33C125.728 246.243 125.608 245.034 125.366 243.947C134.309 244.672 143.251 242.255 150.744 237.3C148.569 234.521 146.635 231.499 144.822 228.357C143.735 226.545 143.131 225.457 143.131 225.457L132.133 219.898L110.502 225.336C111.71 228.841 111.348 231.62 110.26 232.224C109.172 232.829 107.843 230.895 107.48 230.533Z" fill="black" opacity="0.1"/>
    <path d="M155.82 219.656C155.578 221.348 155.095 222.919 154.37 224.49C153.645 226.424 152.557 228.357 151.228 230.049C145.306 237.663 134.067 240.925 122.466 237.904C120.532 237.421 118.599 236.696 116.786 235.971C116.786 235.971 116.786 235.971 116.786 236.092V236.212C117.028 237.421 117.39 238.629 117.753 239.717C117.995 240.2 117.995 240.442 118.115 240.684L118.236 241.046C119.445 243.342 120.412 245.759 121.257 248.297C121.499 249.989 121.378 251.681 120.653 253.131C119.566 250.956 117.995 249.022 115.94 247.572C115.215 247.089 114.369 246.605 113.523 246.243C109.535 243.826 106.514 239.959 105.064 235.487C104.46 233.675 104.218 231.741 104.339 229.808C104.339 228.478 104.339 223.886 106.514 220.865C110.865 214.581 124.883 213.735 132.134 214.339C133.826 214.702 135.638 214.46 137.209 213.856C137.572 213.735 137.814 213.493 138.055 213.131C139.505 211.439 138.901 208.417 137.934 206.605C136.001 203.1 131.288 201.408 125.85 202.133C136.605 196.574 148.569 199.596 153.645 207.209C155.82 210.834 156.666 215.427 155.82 219.656Z" fill="#232B41"/>
    <path d="M227.603 336.274C224.702 339.175 221.44 341.592 217.935 343.767C216.968 344.371 216.001 344.855 214.914 345.459C207.421 349.205 205.004 347.876 199.445 351.018C191.469 355.489 191.469 360.806 183.614 368.541C178.418 373.495 172.255 377.363 165.366 379.9C161.862 366.607 156.786 353.797 150.26 341.592C149.294 339.779 148.327 338.087 147.36 336.516C142.647 328.298 137.33 320.443 131.287 313.072C129.716 317.422 123.432 281.047 130.079 280.443C130.32 280.443 130.683 280.443 130.925 280.443C131.529 280.564 132.133 280.564 132.737 280.443C138.78 279.959 149.052 271.621 156.665 265.458L157.511 264.732C160.049 262.557 162.708 260.624 165.608 258.811C166.454 258.448 167.179 258.086 168.025 257.723C174.188 255.427 183.493 254.702 197.753 260.261C198.358 269.808 198.841 279.476 199.445 289.144L183.735 284.068C193.403 294.703 203.192 306.062 212.98 318.026C214.793 320.322 216.606 322.498 218.418 324.794C221.681 328.54 224.702 332.407 227.603 336.274Z" fill="#DADBE0"/>
    <path d="M155.819 219.656C155.578 221.348 155.094 222.919 154.369 224.49C153.644 226.424 152.556 228.357 151.227 230.049C145.306 237.663 134.067 240.925 122.465 237.904C119.565 236.938 117.148 236.092 116.786 235.971L112.677 233.795C118.84 235.125 125.245 235.246 131.529 234.279C137.088 233.433 144.701 232.224 150.985 226.182C152.919 224.249 154.49 222.073 155.819 219.656Z" fill="black" opacity="0.5"/>
    <path d="M148.448 279.234C139.747 283.464 131.65 284.793 130.321 282.135C130.079 281.53 130.079 281.047 130.321 280.443C131.167 280.564 132.134 280.564 132.98 280.443C139.022 279.959 149.294 271.621 156.907 265.458C159.566 265.216 161.379 265.578 161.862 266.787C163.191 269.325 157.149 275.005 148.448 279.234Z" fill="#FFCB9D"/>
    <path d="M232.074 496.035L209.596 493.497C209.596 493.497 208.75 487.576 212.376 485.521C216.001 483.467 228.449 490.718 232.074 496.035Z" fill="#232B41"/>
    <path d="M177.451 496.035L154.973 493.497C154.973 493.497 154.127 487.576 157.753 485.521C161.378 483.467 173.826 490.718 177.451 496.035Z" fill="#232B41"/>
    <path d="M315.218 402.62C315.218 404.674 358.24 406.366 411.412 406.366C464.585 406.366 507.607 404.674 507.607 402.62C507.607 400.565 464.585 398.873 411.412 398.873C358.24 398.873 315.218 400.565 315.218 402.62Z" fill="#D6D8E2" opacity="0.5"/>
    <path d="M346.638 236.575C345.429 236.938 344.341 237.3 343.254 237.904C342.65 238.267 342.045 238.629 341.441 238.992C336.366 242.859 334.674 249.143 337.695 253.131C340.353 256.636 345.912 257.119 350.626 254.34C351.23 253.977 351.713 253.615 352.317 253.252C352.801 252.889 353.284 252.527 353.768 252.043C357.635 248.176 358.722 242.738 356.064 239.113C354.13 236.454 350.505 235.608 346.638 236.575Z" fill="#FFCB9D"/>
    <path d="M346.638 236.575C345.429 236.938 344.342 237.3 343.254 237.904C346.154 243.222 348.692 248.781 350.746 254.46C351.351 254.098 351.834 253.735 352.438 253.373C352.922 253.01 353.405 252.648 353.889 252.164C357.756 248.297 358.843 242.859 356.185 239.234C354.13 236.454 350.505 235.608 346.638 236.575Z" fill="black" opacity="0.1"/>
    <path d="M399.811 282.497L349.418 385.218L361.14 385.58L428.936 310.775C437.274 318.51 445.734 326.244 454.072 333.978L451.413 382.196L461.806 383.526L477.637 337.966L460.598 291.198L399.811 282.497Z" fill="#DADBE0"/>
    <path d="M502.169 196.091L492.743 217.481C488.272 227.632 483.921 237.783 479.329 247.935L474.495 258.932L470.991 267.029L460.477 291.198L399.69 282.497C403.074 270.412 406.579 258.448 409.962 246.364C410.446 243.947 411.05 241.53 411.654 238.992L411.896 237.904C412.984 233.554 413.83 229.324 414.796 224.853L416.247 218.448C419.993 202.617 423.497 186.665 427.244 170.713L443.196 176.151C447.788 177.48 452.743 177.239 457.214 175.305L476.791 180.502C477.275 182.798 478.121 185.094 479.087 187.269C479.208 187.632 479.45 188.115 479.692 188.478L502.169 196.091Z" fill="#066FD1"/>
    <path d="M335.762 402.62L358.239 400.082C358.239 400.082 359.085 394.16 355.46 392.106C351.834 390.052 339.387 397.302 335.762 402.62Z" fill="#232B41"/>
    <path d="M470.869 404.674L448.391 402.136C448.391 402.136 447.545 396.215 451.171 394.16C454.796 392.106 467.244 399.357 470.869 404.674Z" fill="#232B41"/>
    <path d="M427.364 170.713C426.639 170.35 425.793 170.109 424.947 169.867C417.092 168.417 409.599 177.601 405.37 182.556C393.647 195.97 381.684 205.034 357.877 223.282C353.284 226.786 349.417 229.566 347.121 231.137C348.45 236.696 350.021 242.497 351.834 248.539C353.889 255.306 356.064 261.711 358.36 267.633C385.067 246.001 408.633 220.744 428.331 192.466C427.847 185.215 427.606 177.964 427.364 170.713Z" fill="#066FD1"/>
    <path d="M502.169 196.091L492.743 217.481C488.272 227.632 483.921 237.784 479.329 247.935L474.495 258.932L470.991 267.029L460.477 291.198L399.69 282.497C403.074 270.412 406.579 258.448 409.962 246.364C410.446 243.947 411.05 241.53 411.654 238.992C441.262 232.829 502.169 196.091 502.169 196.091Z" fill="black" opacity="0.1"/>
    <path d="M430.628 271.137C429.177 272.346 427.485 273.313 425.673 274.038C419.63 276.092 413.467 273.917 411.775 269.325C410.325 265.095 413.105 260.261 417.939 257.844C418.543 257.602 419.147 257.24 419.751 257.119C420.355 256.877 420.96 256.757 421.564 256.636C427.002 255.548 432.078 257.723 433.528 261.953C434.857 264.853 433.528 268.479 430.628 271.137Z" fill="#FFCB9D"/>
    <path d="M430.627 271.137C429.781 271.983 428.693 272.588 427.606 273.192C424.826 267.874 421.684 262.678 418.059 257.844C418.663 257.602 419.267 257.24 419.871 257.119C420.476 256.877 421.08 256.757 421.684 256.636C427.122 255.548 432.198 257.723 433.648 261.953C434.856 264.853 433.527 268.479 430.627 271.137Z" fill="black" opacity="0.1"/>
    <path d="M502.169 196.091C488.875 207.572 474.736 218.085 459.872 227.511C446.941 235.85 433.406 243.343 419.509 249.989C426.518 261.47 430.748 274.4 431.594 287.814L500.96 231.379C508.09 223.403 511.353 214.46 510.024 207.692C509.54 205.396 508.573 200.442 504.465 197.42C503.74 196.937 502.894 196.454 502.169 196.091Z" fill="#066FD1"/>
    <path d="M429.056 310.775L449.358 289.627L460.597 291.198L477.757 337.966L461.805 383.526L451.533 382.196L454.192 333.978L429.056 310.775Z" fill="black" opacity="0.1"/>
    <path d="M511.716 495.914C511.716 497.969 554.858 499.66 607.911 499.66C660.963 499.66 704.105 497.969 704.105 495.914C704.105 493.86 660.963 492.168 607.911 492.168C554.858 492.168 511.716 493.86 511.716 495.914Z" fill="#D6D8E2" opacity="0.5"/>
    <path d="M615.162 243.584C608.394 252.889 598.364 259.415 587.125 261.953L622.413 270.412L615.162 243.584Z" fill="#232B41"/>
    <path d="M622.896 422.56L624.708 443.466L627.246 473.799H629.663L636.068 442.379L638.847 428.844L622.896 422.56Z" fill="#FFCB9D"/>
    <path d="M587.487 422.56L589.058 442.258L591.717 473.799H594.134L600.418 443.345L603.318 428.844L587.487 422.56Z" fill="#FFCB9D"/>
    <path d="M638.848 428.844L623.017 422.56L624.829 443.345C628.817 443.104 632.564 442.741 636.189 442.258L638.848 428.844Z" fill="black" opacity="0.1"/>
    <path d="M587.487 422.56L589.179 442.137C592.805 442.62 596.43 442.983 600.418 443.345L603.439 428.844L587.487 422.56Z" fill="black" opacity="0.1"/>
    <path d="M656.129 234.037C655.525 237.058 654.679 241.409 653.47 246.847C653.229 248.056 652.866 249.022 652.866 249.385C651.778 253.615 650.328 257.723 648.395 261.711C647.791 262.92 647.186 264.128 646.582 265.337L646.099 266.062C645.615 266.908 645.132 267.754 644.648 268.479C644.528 268.6 644.407 268.841 644.286 268.962C643.682 269.687 642.836 270.292 641.99 270.654C638.848 272.225 633.047 273.313 626.642 273.313C622.775 273.313 618.787 272.829 615.041 271.983C605.735 269.687 601.989 261.711 603.56 256.152C603.923 254.46 605.01 253.01 606.34 252.044C608.515 250.231 610.328 248.056 611.657 245.639C613.591 242.497 615.282 239.113 616.733 235.729C617.579 233.796 618.062 232.466 618.062 232.466L628.938 225.457L652.02 228.72C651.174 232.587 651.899 235.487 652.987 235.85C654.075 236.212 655.766 234.4 656.129 234.037Z" fill="#FFCB9D"/>
    <path d="M611.657 245.639C619.996 249.989 629.543 251.439 638.848 249.747C641.023 250.352 643.078 251.681 644.649 253.373C646.945 255.911 646.582 257.965 648.274 261.228L648.395 261.59C650.208 257.602 651.779 253.494 652.866 249.264C652.866 248.901 653.229 247.935 653.47 246.726C654.679 241.409 655.525 236.938 656.129 233.916C655.767 234.279 654.196 236.212 653.108 235.85C652.02 235.487 651.295 232.587 652.141 228.72L629.059 225.336L618.183 232.345C618.183 232.345 617.7 233.675 616.854 235.608C615.283 239.234 613.591 242.497 611.657 245.639Z" fill="black" opacity="0.1"/>
    <path d="M588.212 315.609C589.421 316.093 588.333 321.531 586.037 334.341C585.191 339.175 584.466 343.163 583.983 345.821L583.741 346.909C582.412 354.16 581.082 361.411 579.753 368.782C604.285 369.266 628.696 369.749 653.228 370.233C653.228 368.541 653.228 366.849 653.108 365.157V365.036C653.833 346.426 653.591 327.815 652.262 309.204C652.141 307.875 652.02 306.425 651.899 305.096C653.108 307.996 654.316 310.775 655.525 313.676L670.268 304.975C669.785 302.679 667.851 295.67 662.413 290.836C662.413 290.836 657.579 286.606 652.02 285.76C651.537 285.76 651.053 285.639 650.57 285.518H650.328C647.186 285.035 644.165 284.672 641.265 284.431C634.376 283.826 627.367 283.706 620.358 284.068C613.711 284.431 607.065 285.397 600.539 286.968C598.847 287.331 597.155 287.814 595.584 288.298L594.255 288.781L593.771 288.902L592.925 289.265C582.774 289.023 573.59 295.67 570.689 305.458C572.865 306.908 575.161 308.479 577.457 310.292C580.599 312.709 583.499 315.126 586.158 317.543C587.246 315.73 587.85 315.489 588.212 315.609Z" fill="#066FD1"/>
    <path d="M643.077 287.814C643.077 295.549 633.772 301.833 622.171 301.833C610.569 301.833 601.385 295.549 601.385 287.814C601.385 287.452 601.385 286.968 601.506 286.606C608.031 285.035 614.678 284.189 621.325 283.706C628.334 283.343 635.222 283.464 642.231 284.068C642.835 285.277 643.077 286.606 643.077 287.814Z" fill="#DADBE0"/>
    <path d="M613.107 495.914C615.766 489.872 626.521 480.083 630.147 481.292C633.772 482.5 633.772 488.301 633.772 488.301L634.739 494.343L627.851 495.914L625.917 491.201L613.107 495.914Z" fill="#232B41"/>
    <path d="M578.786 495.914C581.445 489.872 592.2 480.083 595.826 481.292C599.451 482.5 599.451 488.301 599.451 488.301L600.418 494.343L593.53 495.914L591.596 491.201L578.786 495.914Z" fill="#232B41"/>
    <path d="M576.007 428.844H651.416L652.745 386.789L653.229 369.991L579.874 368.661L576.732 417.363L576.007 428.844Z" fill="#DADBE0"/>
    <path d="M576.007 428.844H651.537C651.778 409.025 652.141 389.326 652.383 369.507L615.524 369.266C629.18 396.336 633.289 406.487 632.201 407.333C630.63 408.541 620.358 391.623 615.162 394.523C613.228 395.611 613.107 398.753 612.503 400.807C610.811 407.212 603.077 414.342 576.853 417.363L576.007 428.844Z" fill="black" opacity="0.1"/>
    <path d="M593.65 288.781L594.134 288.66C596.188 297.724 607.91 304.612 622.17 304.612C637.881 304.612 650.57 296.274 650.57 285.881V285.397C651.053 285.518 651.536 285.518 652.02 285.639V285.881C652.02 297.12 638.606 306.304 622.17 306.304C607.306 306.304 594.98 298.812 592.684 289.144L593.65 288.781Z" fill="#DADBE0"/>
    <path d="M617.095 312.709C617.337 313.917 618.545 314.763 619.754 314.643C620.962 314.401 621.808 313.192 621.687 311.984C621.446 310.896 620.479 310.05 619.391 310.05C617.941 310.171 616.974 311.38 617.095 312.709Z" fill="#DADBE0"/>
    <path d="M579.874 368.662C604.406 369.145 628.817 369.628 653.349 370.112C653.349 368.42 653.349 366.728 653.229 365.036V364.915C613.832 366.849 590.629 352.347 583.862 346.788C582.533 354.039 581.203 361.29 579.874 368.662Z" fill="black" opacity="0.1"/>
    <path d="M621.446 283.706C628.455 283.343 635.343 283.464 642.353 284.068C642.836 285.277 643.199 286.606 643.199 287.814C643.199 295.549 633.893 301.833 622.413 301.833C610.932 301.833 601.627 295.549 601.627 287.814C601.627 287.452 601.627 286.968 601.748 286.606C608.153 285.156 614.678 284.189 621.446 283.706Z" fill="#FFCB9D"/>
    <path d="M619.875 303.404C619.271 305.337 618.666 307.15 618.062 309.084C615.766 315.368 612.503 321.168 608.394 326.486C604.769 330.957 596.068 341.229 588.092 339.9C581.083 338.691 574.799 328.419 573.711 313.917C573.59 311.742 573.469 309.567 573.59 307.392C574.799 308.238 576.128 309.204 577.457 310.171C579.391 311.621 581.083 313.072 582.895 314.522L583.258 315.609C583.5 316.093 583.62 316.576 583.862 316.939C585.433 320.685 586.763 321.531 587.729 321.531C593.047 321.531 603.681 294.582 603.198 273.796C603.198 271.258 602.835 264.732 606.702 261.953C609.361 260.261 612.624 259.899 615.524 261.107C616.854 261.832 617.941 262.799 618.787 264.007C619.996 265.699 620.842 267.633 621.325 269.566C623.621 277.905 623.5 290.715 619.875 303.404Z" fill="#FFCB9D"/>
    <path d="M683.078 194.399C682.474 193.916 681.507 194.037 681.024 194.641L665.072 216.031C664.588 216.635 664.709 217.602 665.313 218.085C665.555 218.327 665.918 218.448 666.159 218.327C666.643 218.327 667.126 218.085 667.368 217.723L683.32 196.333C683.803 195.728 683.682 194.883 683.078 194.399Z" fill="#066FD1"/>
    <path d="M692.383 210.955C691.9 210.23 691.054 210.109 690.329 210.472L674.256 220.986C673.531 221.469 673.41 222.315 673.894 223.04C674.135 223.403 674.619 223.644 675.102 223.644C675.344 223.644 675.706 223.523 675.948 223.403L692.021 212.889C692.625 212.647 692.867 211.68 692.383 210.955Z" fill="#066FD1"/>
    <path d="M617.94 309.084C617.095 305.458 616.007 300.624 614.557 293.978C611.294 279.234 614.798 269.566 618.424 264.007C623.983 271.742 624.708 291.198 617.94 309.084Z" fill="black" opacity="0.1"/>
    <path d="M644.649 268.479C644.528 268.6 644.407 268.841 644.286 268.962C643.682 269.687 642.836 270.291 641.99 270.654C638.848 272.225 633.047 273.313 626.642 273.313C625.676 272.225 625.071 270.775 625.071 269.204C625.071 264.974 629.422 261.59 634.86 261.59C639.936 261.711 644.165 264.612 644.649 268.479Z" fill="black" opacity="0.1"/>
    <path d="M668.093 306.062C668.093 307.15 668.093 308.358 668.093 309.446C667.73 328.782 661.083 342.196 652.745 343.767C644.406 345.338 635.947 334.824 632.442 330.353C626.158 322.619 621.808 313.434 619.874 303.645C619.874 303.525 619.874 303.404 619.874 303.404C617.82 293.253 616.853 277.663 621.083 269.566C622.05 267.633 623.5 266.062 625.433 265.095C628.334 263.887 631.597 264.128 634.255 265.941C638.122 268.841 637.881 275.367 637.76 277.905C637.276 298.812 648.032 325.64 653.228 325.64C654.195 325.64 655.645 324.673 657.216 319.718L658.062 315.005L658.546 311.863L668.093 306.062Z" fill="#FFCB9D"/>
    <path d="M608.031 230.774C608.998 233.554 610.69 236.092 612.986 238.146C622.775 246.968 640.177 241.046 644.89 239.113C645.494 242.255 648.032 244.793 648.153 246.726C648.153 247.33 648.153 247.814 648.153 248.297C648.153 249.143 648.032 250.11 647.911 250.956C647.669 252.406 647.307 253.977 646.703 255.306C644.044 261.228 641.023 267.029 637.639 272.467L653.228 275.73L665.797 278.388C668.455 272.588 669.785 266.304 669.664 260.019C669.664 259.415 669.664 258.569 669.543 257.603C669.301 255.427 669.059 253.373 668.576 251.318C668.455 250.956 668.334 250.593 668.334 250.231C667.609 247.572 666.643 244.913 665.313 242.376C662.05 235.85 657.458 230.17 651.657 225.82C649.603 224.369 636.793 215.306 622.05 218.327C618.424 219.052 609.602 220.865 608.152 226.545C607.79 227.874 607.911 229.445 608.394 230.774" fill="#232B41"/>
    <path d="M608.031 230.774C608.998 233.554 610.69 236.092 612.986 238.146C622.654 246.968 640.177 241.046 644.89 239.113C646.582 237.904 648.153 236.575 649.603 235.004C635.826 240.563 620.358 238.992 608.031 230.774Z" fill="black" opacity="0.5"/>
    <path d="M653.107 275.85L665.676 278.509C668.334 272.708 669.664 266.424 669.543 260.14C669.543 259.536 669.543 258.69 669.422 257.723L668.455 251.439C668.334 251.077 668.334 250.714 668.213 250.352C667.488 247.693 666.522 245.034 665.192 242.497C664.709 250.714 663.138 262.074 658.666 268.72C656.854 271.137 655.041 273.554 653.107 275.85Z" fill="black" opacity="0.5"/>
    <path d="M148.448 279.234C139.747 283.464 131.65 284.793 130.321 282.135C130.079 281.53 130.079 281.047 130.321 280.443C131.167 280.564 132.134 280.564 132.98 280.443C139.022 279.959 149.294 271.621 156.907 265.458C159.566 265.216 161.379 265.578 161.862 266.787C163.191 269.325 157.149 275.005 148.448 279.234Z" fill="black" opacity="0.1"/>
    <path d="M218.539 324.794C218.418 331.078 218.177 337.604 217.935 343.767C216.968 344.371 216.001 344.854 214.914 345.459C207.421 349.205 205.004 347.876 199.445 351.018C191.469 355.489 191.469 360.806 183.614 368.541C178.418 373.495 172.255 377.363 165.366 379.9C161.862 366.607 156.786 353.797 150.26 341.592C149.293 339.779 148.327 338.087 147.36 336.516C146.031 318.872 149.898 307.392 153.765 300.141C156.423 295.186 158.72 292.769 161.62 286.606C165.85 277.542 168.025 267.754 168.146 257.844C172.013 256.636 176.001 256.031 179.989 256.152C186.152 256.636 192.194 257.965 197.995 260.382C198.599 269.929 199.083 279.597 199.687 289.265L183.977 284.189C193.645 294.824 203.433 306.183 213.222 318.147C214.914 320.202 216.726 322.498 218.539 324.794Z" fill="black" opacity="0.1"/>
    <path d="M188.569 255.548L291.289 275.971C297.332 277.18 301.32 283.101 300.111 289.265L279.084 395.369C277.875 401.411 271.954 405.399 265.791 404.191L163.07 383.767C157.028 382.559 153.04 376.637 154.248 370.474L175.276 264.37C176.605 258.328 182.527 254.34 188.569 255.548Z" fill="#DADBE0"/>
    <path d="M231.47 257.119L249.96 260.745C252.619 261.228 254.311 263.887 253.827 266.545L227.724 398.027C227.241 400.686 224.582 402.378 221.923 401.895L203.434 398.269C200.775 397.786 199.083 395.127 199.567 392.468L225.67 260.986C226.153 258.328 228.812 256.636 231.47 257.119Z" fill="#066FD1"/>
    <path d="M301.079 334.703L297.453 353.193C296.97 355.852 294.311 357.543 291.652 357.06L160.17 330.957C157.511 330.474 155.82 327.815 156.303 325.156L159.928 306.667C160.412 304.008 163.07 302.316 165.729 302.799L297.211 328.903C299.87 329.507 301.562 332.045 301.079 334.703Z" fill="#066FD1"/>
    <path d="M242.346 345.942C242.346 345.942 233.524 369.145 159.565 344.492L162.224 331.44L242.346 345.942Z" fill="black" opacity="0.1"/>
    <path d="M244.763 342.317C243.918 344.492 242.346 346.305 240.413 347.634C238.359 349.084 232.074 353.314 213.222 350.655C206.576 349.688 199.929 348.359 193.403 346.546C186.273 344.734 177.814 342.317 168.267 339.296C163.07 337.604 157.511 335.67 151.59 333.616C143.251 330.474 134.188 326.969 124.762 322.739C128.266 316.697 131.771 310.655 135.396 304.612C137.088 305.821 139.626 307.513 142.889 309.446C144.218 310.171 145.548 310.896 146.756 311.621C156.786 316.939 167.421 320.685 178.539 322.981C214.068 330.353 239.446 322.498 244.038 332.166C245.489 335.308 245.73 338.933 244.763 342.317Z" fill="#FFCB9D"/>
    <path d="M151.711 333.616C143.373 330.474 134.309 326.969 124.883 322.739C128.387 316.697 131.892 310.655 135.517 304.612C137.209 305.821 139.747 307.513 143.01 309.446C144.339 310.171 145.669 310.896 146.877 311.621C145.548 314.884 145.064 318.389 145.548 321.773C146.152 326.244 148.327 330.474 151.711 333.616Z" fill="black" opacity="0.1"/>
    <path d="M128.87 281.289C120.169 287.089 115.456 297.361 116.665 307.754C118.477 321.531 130.441 327.936 131.529 328.54L148.206 302.437L128.87 281.289Z" fill="#DADBE0"/>
    <path d="M583.62 317.06L573.59 313.917C573.469 311.742 573.348 309.567 573.469 307.392C574.677 308.238 576.007 309.204 577.336 310.171C579.27 311.621 580.962 313.072 582.774 314.522L583.137 315.609C583.258 316.093 583.499 316.576 583.62 317.06Z" fill="black" opacity="0.1"/>
    <path d="M668.093 306.062C668.093 307.15 668.093 308.358 668.093 309.446L658.062 314.884L658.546 311.742L668.093 306.062Z" fill="black" opacity="0.1"/>
    <path d="M480.538 172.767C468.936 170.592 457.214 162.616 456.489 158.628C456.368 157.662 456.247 156.453 456.126 155.365C455.643 149.565 455.885 143.885 456.852 138.205L457.335 135.667C458.423 130.713 459.389 126.483 460.114 123.703C460.114 123.703 460.114 123.703 460.114 123.824C460.356 124.428 460.84 126.483 461.565 126.604C461.565 126.604 461.565 126.604 461.685 126.604C462.894 126.725 464.586 124.67 465.432 121.045C465.432 121.045 465.432 121.045 465.432 120.924L486.701 127.208L493.348 137.359C493.348 137.359 493.348 138.568 493.348 140.622C493.348 142.676 493.348 144.61 493.468 146.544C493.589 148.115 493.71 149.686 493.831 151.257C493.831 151.257 493.831 151.257 493.831 151.377C494.073 154.157 494.798 156.574 495.885 158.991C499.39 165.033 492.139 174.943 480.538 172.767Z" fill="#FFCB9D"/>
    <path d="M493.831 151.257C490.689 151.377 485.976 151.257 480.538 149.686C475.221 148.114 471.233 145.818 468.695 144.006C468.332 145.214 467.849 146.06 467.366 147.148C466.761 148.719 465.674 150.169 464.586 151.498C463.378 152.707 462.169 153.673 460.598 154.278C459.269 154.882 457.698 155.245 456.248 155.245C455.764 149.444 456.006 143.764 456.973 138.084L457.456 135.546C458.544 130.592 459.51 126.362 460.236 123.582C460.236 123.582 460.236 123.582 460.236 123.703C460.356 124.307 460.598 126.604 461.565 126.483H461.686C462.894 126.362 464.465 124.307 465.311 120.803L465.553 120.924L486.58 127.087L493.227 137.238C493.227 138.326 493.227 139.413 493.227 140.501C493.227 142.556 493.348 144.61 493.589 146.423C493.469 148.114 493.71 149.686 493.831 151.257Z" fill="black" opacity="0.1"/>
    <path d="M511.716 135.063C509.903 137.238 507.486 138.447 504.949 138.688C501.686 143.16 498.181 144.972 496.127 145.698C486.7 149.323 474.253 144.489 465.431 133.492L465.31 133.613C465.31 133.613 465.31 133.613 465.31 133.734C464.948 134.942 464.585 136.03 464.344 136.997C464.102 137.48 464.223 137.722 464.102 138.084L463.981 138.447C463.739 140.984 463.256 143.522 462.652 145.939C462.048 147.389 461.081 148.598 459.631 149.565C459.993 147.148 459.51 144.61 458.664 142.435C458.301 141.71 457.818 140.864 457.335 140.259C455.159 136.151 454.676 131.438 455.884 126.966C456.005 126.241 456.247 125.758 456.489 125.153L456.368 125.033C453.105 122.374 452.621 117.54 455.401 114.156C457.576 111.619 461.081 110.893 463.981 111.86C464.102 109.927 464.948 107.993 466.277 106.422C469.782 102.192 475.945 101.709 480.054 105.214C481.504 106.422 482.592 107.993 483.075 109.685C486.58 106.301 492.259 106.06 496.006 109.202C499.389 111.981 500.356 116.452 498.785 120.44C502.29 118.265 507.003 118.507 510.266 121.286C514.737 124.791 515.221 130.833 511.716 135.063Z" fill="#232B41"/>
    <path d="M504.949 138.568C501.686 143.039 498.181 144.852 496.127 145.577C486.701 149.202 474.253 144.368 465.432 133.371L465.311 133.492C465.311 133.492 465.311 133.492 465.311 133.613C464.223 132.042 463.256 130.35 462.531 128.9L462.652 129.021C464.948 131.075 478 144.61 495.16 141.951C498.423 141.347 501.928 140.259 504.949 138.568Z" fill="black" opacity="0.5"/>
</svg>
