<svg xmlns="http://www.w3.org/2000/svg" width="800" height="600" fill="none" viewBox="0 0 800 600">
    <path d="M634.199 293.857C634.199 333.524 592.238 362.308 573.705 394.355C554.578 427.4 549.981 477.92 516.927 497.047C484.89 515.581 439.272 494.843 399.595 494.843C359.917 494.843 314.309 515.601 282.273 497.047C249.218 477.92 244.622 427.4 225.495 394.355C206.961 362.308 165 333.524 165 293.857C165 254.189 206.961 225.395 225.495 193.358C244.622 160.304 249.218 109.783 282.273 90.6559C314.309 72.122 359.927 92.8602 399.595 92.8602C439.262 92.8602 484.89 72.1023 516.927 90.6559C549.981 109.783 554.578 160.304 573.705 193.358C592.238 225.395 634.199 254.179 634.199 293.857Z" fill="#066FD1" opacity="0.02"/>
    <path d="M500.973 445.38L499.727 409.983L537.289 408.658L538.535 444.055L500.973 445.38ZM504.64 414.559L505.549 440.457L533.612 439.469L532.693 413.571L504.64 414.559Z" fill="#DADBE0"/>
    <path d="M500.973 445.38L499.727 409.983L537.289 408.658L538.535 444.055L500.973 445.38ZM504.64 414.559L505.549 440.457L533.612 439.469L532.693 413.571L504.64 414.559Z" fill="black" opacity="0.1"/>
    <path d="M572.924 490.197L571.174 439.785L570.897 431.67L554.963 432.213V432.312L555.25 440.329L555.981 462.935C555.999 463.438 555.916 463.938 555.74 464.409C555.563 464.88 555.296 465.311 554.952 465.678C554.609 466.046 554.197 466.342 553.739 466.549C553.281 466.757 552.787 466.872 552.284 466.889L545.948 467.126C544.946 467.129 543.98 466.75 543.246 466.068C542.512 465.385 542.065 464.449 541.994 463.449L541.263 440.843L540.976 432.826V432.737L534.927 432.905L502.09 434.062L496.574 434.25V434.348L496.861 442.365L497.602 464.922C497.645 465.948 497.279 466.95 496.583 467.706C495.888 468.462 494.922 468.911 493.895 468.955L487.559 469.143C487.052 469.164 486.545 469.085 486.068 468.91C485.591 468.735 485.153 468.468 484.779 468.124C484.405 467.779 484.103 467.365 483.89 466.904C483.677 466.442 483.556 465.944 483.536 465.436L482.795 442.83L482.508 434.813V434.714L463.361 435.367L465.338 493.884L474.363 493.568L572.924 490.197Z" fill="#DADBE0"/>
    <path d="M572.924 490.197L571.174 439.785L570.897 431.67L554.963 432.213V432.312L555.25 440.329L555.981 462.935C555.999 463.438 555.916 463.938 555.74 464.409C555.563 464.88 555.296 465.311 554.952 465.678C554.609 466.046 554.197 466.342 553.739 466.549C553.281 466.757 552.787 466.872 552.284 466.889L545.948 467.126C544.946 467.129 543.98 466.75 543.246 466.068C542.512 465.385 542.065 464.449 541.994 463.449L541.263 440.843L540.976 432.826V432.737L534.927 432.905L502.09 434.062L496.574 434.25V434.348L496.861 442.365L497.602 464.922C497.645 465.948 497.279 466.95 496.583 467.706C495.888 468.462 494.922 468.911 493.895 468.955L487.559 469.143C487.052 469.164 486.545 469.085 486.068 468.91C485.591 468.735 485.153 468.468 484.779 468.124C484.405 467.779 484.103 467.365 483.89 466.904C483.677 466.442 483.556 465.944 483.536 465.436L482.795 442.83L482.508 434.813V434.714L463.361 435.367L465.338 493.884L474.363 493.568L572.924 490.197Z" fill="black" opacity="0.1"/>
    <path d="M572.924 490.197L571.174 439.785L555.289 440.329L556.021 462.935C556.038 463.438 555.956 463.938 555.779 464.409C555.603 464.88 555.335 465.311 554.992 465.678C554.649 466.046 554.236 466.342 553.779 466.549C553.321 466.757 552.826 466.872 552.324 466.889L545.988 467.126C544.979 467.139 544.003 466.765 543.26 466.081C542.518 465.398 542.065 464.456 541.994 463.449L541.263 440.843L535.55 441.011L502.713 442.167L496.91 442.365L497.652 464.922C497.694 465.948 497.328 466.95 496.633 467.706C495.938 468.462 494.971 468.911 493.945 468.955L487.609 469.143C487.101 469.164 486.594 469.085 486.117 468.91C485.64 468.735 485.202 468.468 484.828 468.124C484.455 467.779 484.153 467.365 483.939 466.904C483.726 466.442 483.606 465.944 483.586 465.436L482.844 442.83L472.762 443.166L474.462 493.578L572.924 490.197Z" fill="#A7AAB3"/>
    <path d="M497.611 464.922L496.87 442.365L496.583 434.348V434.25C496.537 433.244 496.096 432.296 495.356 431.614C494.616 430.931 493.636 430.567 492.63 430.602L486.244 430.829C485.243 430.868 484.297 431.296 483.607 432.021C482.916 432.747 482.536 433.713 482.547 434.714V434.813L482.834 442.83L483.575 465.436C483.595 465.944 483.716 466.442 483.929 466.904C484.142 467.365 484.444 467.779 484.818 468.124C485.192 468.468 485.63 468.735 486.107 468.91C486.584 469.085 487.091 469.164 487.598 469.143L493.934 468.955C494.955 468.904 495.915 468.451 496.603 467.696C497.292 466.94 497.654 465.943 497.611 464.922ZM556.02 462.945L555.289 440.339L555.002 432.322V432.223C554.954 431.221 554.51 430.28 553.77 429.604C553.029 428.928 552.05 428.572 551.048 428.615L544.673 428.803C543.662 428.849 542.71 429.289 542.019 430.027C541.329 430.766 540.954 431.746 540.976 432.757V432.806L541.263 440.823L541.994 463.449C542.058 464.468 542.513 465.423 543.265 466.114C544.016 466.805 545.006 467.178 546.027 467.156L552.363 466.919C553.374 466.875 554.327 466.432 555.013 465.687C555.698 464.943 556.061 463.956 556.02 462.945Z" fill="#066FD1"/>
    <path d="M419.562 217.734C432.995 223.151 449.631 223.497 457.222 220.957C458.502 220.62 459.68 219.975 460.652 219.079C461.73 217.882 462.738 216.627 463.776 215.283C465.18 213.434 466.534 211.477 467.789 209.5C471.091 204.357 473.92 198.924 476.241 193.269C476.419 192.805 476.952 191.421 477.585 189.82C480.283 182.584 482.28 176.653 483.615 172.591C483.101 173.095 480.57 175.418 479.087 174.726C477.605 174.034 477.11 169.833 479.028 164.653L447.585 155.757L431.285 163.437C431.285 163.437 430.385 165.147 428.784 167.688C426.08 172.17 423.075 176.463 419.789 180.538C417.051 183.928 414.016 186.904 411.199 188.446C401.996 193.339 403.42 211.309 419.562 217.734Z" fill="#FFCB9D"/>
    <path d="M454.02 261.346C452.296 263.669 450.705 266.088 449.256 268.591C450.396 267.917 451.353 266.974 452.043 265.843C452.775 264.4 453.407 262.917 454.02 261.346ZM419.77 180.538C430.531 188.184 443.541 192.011 456.729 191.411C459.693 192.713 462.241 194.806 464.093 197.461C466.801 201.415 465.931 204.192 467.641 209.075L467.79 209.54C471.092 204.396 473.92 198.964 476.241 193.309C476.419 192.844 476.953 191.461 477.585 189.859C480.284 182.624 482.281 176.693 483.615 172.63C483.101 173.134 480.571 175.457 479.088 174.765C477.605 174.073 477.111 169.872 479.029 164.693L447.585 155.796L431.285 163.437C431.285 163.437 430.386 165.147 428.784 167.688C426.074 172.171 423.062 176.464 419.77 180.538Z" fill="black" opacity="0.1"/>
    <path d="M524.201 400.118C524.179 402.59 523.955 405.056 523.529 407.492C522.106 416.19 518.478 422.319 514.267 422.22C508.929 422.052 504.738 411.999 504.887 399.693C504.887 398.319 504.995 396.945 505.114 395.61C506.102 385.261 510.056 377.452 514.821 377.6C520.149 377.709 524.379 387.811 524.201 400.118Z" fill="#FFCB9D"/>
    <path d="M524.202 400.118C524.18 402.59 523.955 405.056 523.53 407.492C523.006 407.401 522.488 407.282 521.978 407.136C515.236 405.248 513.081 399.969 506.043 396.045C505.744 395.878 505.434 395.733 505.114 395.61C506.103 385.261 510.057 377.452 514.821 377.6C520.149 377.709 524.38 387.811 524.202 400.118Z" fill="black" opacity="0.1"/>
    <path d="M256.167 280.651C254.358 280.961 252.514 281.008 250.691 280.789C244.157 280.156 239.195 276.301 238.681 270.904C238.068 263.985 244.829 257.184 253.825 255.692C254.805 255.532 255.796 255.443 256.79 255.425C264.47 255.237 270.718 259.379 271.261 265.487C271.943 272.328 265.162 279.168 256.167 280.651Z" fill="#FFCB9D"/>
    <path d="M256.167 280.651C254.358 280.961 252.513 281.008 250.691 280.789C250.691 280.067 250.691 279.425 250.74 278.743C251.195 269.777 254.694 266.199 256.671 256.631C256.731 256.206 256.829 255.83 256.859 255.375C264.539 255.188 270.787 259.329 271.33 265.438C271.943 272.328 265.162 279.168 256.167 280.651Z" fill="black" opacity="0.1"/>
    <path d="M558.877 414.362C551.352 413.554 544.059 411.28 537.408 407.67C528.136 402.777 524.35 397.676 515.177 394.503C509.724 392.701 503.975 391.966 498.244 392.338C498.244 392.338 509.622 360.065 510.867 328.809C511.195 321.812 510.864 314.799 509.879 307.863C508.017 296.27 502.565 285.552 494.29 277.221C488.843 271.652 482.609 266.913 475.786 263.155C473.085 261.647 470.292 260.31 467.424 259.151C467.424 262.265 467.562 265.389 467.611 268.502C468.234 295.685 468.758 322.799 469.381 349.913C469.43 352.335 469.48 354.855 469.519 357.238C435.252 356.539 400.952 355.86 366.619 355.201C368.527 344.328 370.494 333.455 372.402 322.582C375.565 304.888 378.669 287.194 381.822 269.56C359.354 288.272 326.309 315.712 287.146 317.234C276.227 317.53 265.338 315.938 254.961 312.529L255.771 304.384L264.579 218.199C264.579 218.199 281.244 246.38 301.795 257.451C325.657 270.499 354.54 260.258 363.723 253.566C369.151 249.391 375.078 245.908 381.367 243.197C381.94 242.94 383.66 242.209 386.052 241.29H386.102C386.912 241.033 387.772 240.716 388.731 240.39C391.024 239.629 393.417 238.996 395.71 238.413C404.841 236.279 414.136 234.917 423.496 234.341C433.247 233.779 443.025 233.928 452.755 234.785C456.778 235.102 461.028 235.675 465.427 236.308C471.325 237.232 477.109 238.773 482.686 240.904C490.14 243.712 497.208 247.456 503.72 252.044C509.782 256.398 515.377 261.366 520.416 266.871C529.163 276.276 536.579 286.836 542.459 298.255C551.157 315.188 555.991 332.852 558.571 349.112C561.863 370.73 561.966 392.714 558.877 414.362Z" fill="#DADBE0"/>
    <path d="M557.078 345.089C547.609 344.378 537.081 342.035 532.1 335.61C526.544 328.404 516.739 325.221 508.376 324.381C508.714 317.245 508.383 310.094 507.388 303.02C505.508 291.172 499.959 280.213 491.523 271.685L491.177 264.865L518.152 261.168C527.08 270.755 534.647 281.525 540.64 293.175C549.516 310.483 554.439 328.473 557.078 345.089Z" fill="black" opacity="0.1"/>
    <path d="M455.295 239.856C455.295 250.917 442.218 259.853 426.086 259.853C409.954 259.853 396.926 250.957 396.926 239.856C396.926 239.252 396.986 238.65 397.104 238.057C406.235 235.886 415.539 234.523 424.909 233.985C434.664 233.416 444.447 233.571 454.178 234.449C454.931 236.152 455.312 237.995 455.295 239.856Z" fill="black" opacity="0.07"/>
    <path d="M417.921 153.226C417.187 155.113 417.002 157.17 417.387 159.157C418.227 164.633 422.329 169.615 422.863 170.238C434.725 184.334 460.059 179.273 466.979 177.582C467.315 182.021 470.27 186.133 470.053 188.732C469.974 189.503 469.905 190.274 469.796 190.996C469.277 194.328 468.194 197.547 466.593 200.515C462.995 207.306 457.381 212.456 453.427 219.523C443.196 237.909 447.328 264.222 456.896 279.356C457.369 280.116 457.88 280.852 458.429 281.56C483.14 316.008 519.279 327.88 519.279 327.88C551.404 338.437 579.26 331.33 589.718 328.058C589.224 322.372 588.138 316.753 586.475 311.293C585.853 309.198 585.171 307.28 584.499 305.491C581.138 296.832 577.214 291.84 574.614 285.919C571.154 278.12 568.683 266.071 573.625 247.734C505.875 249.296 490.089 242.09 488.617 235.023C487.282 228.805 497.839 225.513 501.032 211.882C507.022 186.32 480.363 161.836 478.633 160.314C474.6 156.706 459.17 142.956 438.916 144.35C433.608 144.706 421.114 145.576 417.921 153.226Z" fill="#232B41"/>
    <path d="M469.549 357.198C458.65 405.831 447.776 454.418 436.929 502.958C433.588 503.947 430.237 504.995 426.887 505.924C426.175 500.448 425.503 494.972 424.791 489.505C420.837 458.059 416.85 426.592 412.83 395.106L398.003 470.724L391.885 501.911L379.212 504.204L376.731 474.668L366.649 355.162L469.549 357.198Z" fill="#066FD1"/>
    <path d="M381.861 269.481C359.393 288.193 326.349 315.633 287.185 317.155C276.266 317.451 265.378 315.859 255 312.45L255.811 304.305C267.099 308.12 279.673 311.303 287.61 300.163C297.9 285.712 302.625 286.097 316.276 287.946C329.927 289.794 333.248 279.158 337.696 273.366C342.144 267.573 362.23 268.018 367.538 268.146C372.846 268.275 381.861 269.481 381.861 269.481ZM469.549 357.198C435.282 356.5 400.982 355.821 366.649 355.162C368.556 344.289 370.523 333.415 372.431 322.542C372.293 323.531 404.715 353.541 469.41 349.913C469.46 352.295 469.509 354.776 469.549 357.198Z" fill="black" opacity="0.1"/>
    <path d="M393.476 550C503.648 550 592.96 546.15 592.96 541.4C592.96 536.651 503.648 532.801 393.476 532.801C283.304 532.801 193.992 536.651 193.992 541.4C193.992 546.15 283.304 550 393.476 550Z" fill="#D6D8E2" opacity="0.5"/>
    <path d="M391.845 501.94L420.293 356.2L366.649 355.162L379.183 504.234L391.845 501.94Z" fill="black" opacity="0.1"/>
    <path d="M443.522 534.501L442.158 525.96C442.158 525.96 442.079 517.608 437.067 515.917C432.056 514.227 416.982 528.036 413.245 536.824L431.097 530.122L433.855 536.824L443.522 534.501ZM389.057 515.917C384.046 514.237 368.962 528.036 365.225 536.824L383.077 530.122L385.835 536.824L395.502 534.501L394.138 525.96C394.138 525.96 394.059 517.608 389.057 515.917Z" fill="#232B41"/>
    <path d="M444.886 259.952C441.921 252.697 438.511 248.93 434.715 248.762C430.356 248.575 426.896 253.161 425.206 255.949C423.18 252.469 418.534 245.827 412.573 246.005C407.71 246.222 403.301 251.105 399.466 260.525C397.677 264.904 395.591 271.092 398.053 274.117C398.433 274.554 398.909 274.898 399.444 275.121C399.979 275.344 400.558 275.44 401.137 275.402C406.296 275.402 415.123 269.184 421.114 264.42C419.799 266.94 418.267 269.165 416.913 269.698C416.231 269.956 415.626 270.382 415.155 270.937C414.683 271.492 414.359 272.158 414.214 272.871C413.463 276.044 415.489 279.959 417.338 283.003L419.404 280.789C416.626 276.202 416.626 274.463 416.745 273.929C416.824 273.573 417.14 273.296 417.664 273.089C420.886 271.824 423.694 265.982 425.117 262.492C426.422 265.794 427.558 269.095 427.568 269.995C427.455 270.591 427.303 271.178 427.114 271.754C426.442 274.018 425.305 277.794 427.677 280.295C429.002 281.698 430 286.759 430.356 293.857L432.995 293.619C432.58 285.069 431.344 279.662 429.328 277.527C428.626 276.786 428.834 275.55 429.575 273.069C429.884 272.171 430.099 271.243 430.218 270.301C430.306 269.006 429.575 266.506 428.646 263.936C433.361 267.632 439.519 271.843 443.335 271.843C443.813 271.875 444.293 271.796 444.736 271.61C445.178 271.425 445.572 271.139 445.885 270.776C447.921 268.265 446.29 263.392 444.886 259.952ZM399.861 271.517C399.733 271.369 398.715 269.787 401.838 262.206C405.179 253.972 408.837 249.711 412.712 249.533H412.959C417.694 249.533 421.726 255.632 423.348 258.43C413.334 266.891 401.848 273.959 399.861 271.517ZM444.086 268.156C442.84 269.649 434.952 265.102 427.084 258.499C428.389 256.295 431.216 252.291 434.448 252.291H434.636C437.414 252.42 440.082 255.563 442.544 261.642C444.738 267 444.135 268.146 444.135 268.156H444.086Z" fill="#066FD1"/>
    <path d="M456.887 279.346C457.359 280.107 457.87 280.842 458.419 281.55C483.131 315.998 519.269 327.87 519.269 327.87C551.395 338.427 579.25 331.32 589.708 328.048C589.217 322.366 588.134 316.75 586.476 311.293C585.853 309.198 585.171 307.28 584.499 305.491C577.536 309.899 569.78 312.904 561.665 314.338C547.115 316.878 535.658 313.557 528.768 311.471C490.317 299.797 473.088 267.079 473.088 267.079C458.962 240.351 462.788 214.354 466.584 200.515C462.986 207.306 457.371 212.456 453.417 219.523C443.147 237.899 447.318 264.212 456.887 279.346ZM417.387 159.108C418.227 164.584 422.33 169.566 422.863 170.189C434.725 184.284 460.06 179.223 466.979 177.533C469.59 176.195 472.052 174.585 474.323 172.729C464.441 175.278 454.084 175.366 444.16 172.985C434.235 170.603 425.046 165.825 417.397 159.068L417.387 159.108Z" fill="black" opacity="0.3"/>
    <path d="M299.176 184.393C336.287 184.393 366.372 154.308 366.372 117.196C366.372 80.0849 336.287 50 299.176 50C262.064 50 231.979 80.0849 231.979 117.196C231.979 154.308 262.064 184.393 299.176 184.393Z" fill="#066FD1"/>
    <path d="M353.68 122.07L339.643 130.205C339.871 129.513 340.078 128.831 340.266 128.139C342.663 119.139 342.09 109.606 338.634 100.957C335.178 92.3082 329.023 85.006 321.083 80.1363C313.144 75.2666 303.845 73.0895 294.569 73.9288C285.293 74.768 276.536 78.5787 269.6 84.7943L273.396 89.0349C279.418 83.6326 287.025 80.3194 295.082 79.5882C303.139 78.857 311.218 80.7469 318.115 84.9768C325.011 89.2066 330.358 95.5502 333.359 103.064C336.36 110.577 336.855 118.859 334.77 126.676C334.4 128.05 333.954 129.403 333.436 130.729L323.986 114.409L319.044 117.266L332.684 140.801L356.507 126.963L353.68 122.07ZM288.806 153.315C279.366 150.8 271.277 144.706 266.256 136.326C261.234 127.946 259.675 117.939 261.91 108.429L271.152 124.314L276.094 121.457L262.256 97.6346L238.73 111.276L241.577 116.218L256.285 107.697C254.881 114.012 254.912 120.562 256.377 126.863C257.842 133.164 260.704 139.056 264.75 144.103C268.797 149.151 273.925 153.225 279.757 156.026C285.588 158.826 291.974 160.282 298.444 160.284C308.367 160.285 317.992 156.888 325.716 150.656L322.147 146.238C317.535 149.952 312.114 152.528 306.322 153.757C300.529 154.987 294.529 154.835 288.806 153.315Z" fill="white"/>
</svg>
