<svg xmlns="http://www.w3.org/2000/svg" width="800" height="600" fill="none" viewBox="0 0 800 600">
    <path d="M135 314.989C135 359.809 182.396 392.304 203.335 428.406C224.935 465.708 230.128 522.73 267.464 544.311C303.666 565.22 355.189 541.824 400.006 541.824C444.822 541.824 496.345 565.22 532.536 544.311C569.872 522.73 575.02 465.708 596.665 428.406C617.604 392.259 665 359.775 665 314.989C665 270.202 617.638 237.741 596.665 201.594C575.065 164.292 569.872 107.27 532.536 85.6889C496.345 64.7803 444.811 88.1764 400.062 88.1764C355.313 88.1764 303.666 64.7803 267.464 85.6889C230.128 107.27 224.935 164.292 203.335 201.594C182.396 237.741 135 270.225 135 314.989Z" fill="#066FD1" opacity="0.02"/>
    <path d="M226.862 356.613C226.1 357.058 224.955 357.757 223.582 358.672C215.871 364.056 209.958 371.635 206.611 380.423C203.408 388.979 203.827 396.085 204.285 403.637C204.795 411.703 206.509 419.647 209.37 427.206C212.421 435.024 209.967 443.097 204.539 446.465C202.589 447.622 200.375 448.257 198.108 448.31C195.842 448.364 193.6 447.833 191.598 446.771C189.297 445.544 187.541 443.497 186.678 441.037C180.156 422.4 180.635 402.026 188.025 383.716C192.67 371.955 199.764 361.316 208.836 352.507C211.429 349.979 214.176 347.614 217.061 345.426C217.862 344.828 218.536 344.332 219.108 343.938L226.862 356.613Z" fill="#FFCB9D"/>
    <path d="M355.87 297.919C349.668 313.012 339.445 326.115 326.313 335.802C325.512 336.4 324.826 336.883 324.241 337.264L316.613 324.488C317.376 324.056 318.533 323.382 319.931 322.467C321.999 321.061 323.954 319.497 325.779 317.788C330.786 313.089 334.692 307.341 337.22 300.957C340.538 292.44 340.208 285.333 339.865 277.782C339.484 269.709 337.894 261.738 335.148 254.136C332.199 246.28 334.754 238.246 340.233 234.953C342.194 233.818 344.415 233.21 346.681 233.188C348.946 233.166 351.179 233.73 353.162 234.826C355.452 236.076 357.183 238.147 358.006 240.623C364.27 259.348 363.511 279.712 355.87 297.919Z" fill="#FFCB9D"/>
    <path d="M226.862 356.613C226.1 357.058 224.956 357.757 223.583 358.672C220.055 361.13 216.885 364.065 214.163 367.393C213.205 362.17 211.392 357.14 208.798 352.507C211.391 349.979 214.138 347.614 217.023 345.426C217.824 344.828 218.498 344.332 219.07 343.938L226.862 356.613Z" fill="black" opacity="0.1"/>
    <path d="M341.657 321.361C337.129 326.751 331.979 331.586 326.313 335.764C325.512 336.361 324.826 336.845 324.241 337.226L316.613 324.45C317.376 324.018 318.533 323.344 319.931 322.428C321.999 321.023 323.954 319.459 325.779 317.75C330.747 320.092 336.165 321.324 341.657 321.361Z" fill="black" opacity="0.1"/>
    <path d="M489.39 283.744L478.229 260.861C476.652 264.039 472.355 272.15 468.58 271.527C465.249 270.98 463.749 263.823 462.948 258.281C462.821 257.403 462.719 256.577 462.618 255.814C462.16 252.115 461.346 245.428 460.456 237.152C457.304 206.299 454.1 153.173 470.131 149.054C471.844 148.715 473.61 148.747 475.309 149.149C477.009 149.55 478.602 150.311 479.983 151.38C487.7 157.266 485.424 172.038 484.636 177.988C482.093 197.374 483.721 216.914 485.755 236.466C486.149 240.343 486.568 244.22 487.026 248.11C488.208 260.048 489.301 271.909 489.39 283.744Z" fill="#FFCB9D"/>
    <path d="M619.187 219.304C601.186 233.351 587.151 251.594 572.862 269.595C566.735 277.299 560.569 284.964 553.997 292.236C552.217 294.219 550.412 296.164 548.556 298.084L551.467 289.325L556.552 273.981C553.208 275.138 544.449 277.922 542.199 274.832C539.949 271.743 545.53 263.912 548.95 259.437C550.628 257.213 553.336 253.666 556.755 249.267C574.998 226.003 613.771 179.602 629.065 188.45C630.525 189.41 631.763 190.671 632.695 192.149C633.627 193.627 634.231 195.287 634.467 197.019C635.879 206.655 623.916 215.617 619.187 219.304Z" fill="#FFCB9D"/>
    <path d="M486.976 248.187C480.619 251.123 464.868 258.357 462.949 258.357C462.822 257.48 462.72 256.653 462.618 255.891C462.161 252.191 461.347 245.504 460.457 237.229C468.767 235.366 477.36 235.141 485.755 236.568C486.137 240.419 486.569 244.297 486.976 248.187Z" fill="black" opacity="0.1"/>
    <path d="M572.862 269.595C566.735 277.299 560.569 284.964 553.997 292.236C553.285 291.422 552.42 290.443 551.454 289.325L556.539 273.981C553.196 275.138 544.437 277.922 542.187 274.832C539.936 271.743 545.517 263.912 548.937 259.437C550.615 257.213 553.323 253.666 556.742 249.267C560.544 253.17 568.057 261.357 572.862 269.595Z" fill="black" opacity="0.1"/>
    <path d="M540.521 511.745L539.25 490.782C539.25 490.782 533.86 489.676 531.749 492.93C529.639 496.184 535.716 508.096 540.496 511.745" fill="#232B41"/>
    <path d="M464.436 375.542C461.046 397.187 457.656 418.845 454.266 440.516L525.304 487.171L530.745 480.65L484.611 429.609C494.23 411.582 503.862 393.56 513.506 375.542H464.436Z" fill="#DDDDDD"/>
    <path d="M464.436 375.542C461.046 397.187 457.656 418.845 454.266 440.516L525.304 487.171L530.745 480.65L484.611 429.609C494.23 411.582 503.862 393.56 513.506 375.542H464.436Z" fill="black" opacity="0.1"/>
    <path d="M121.284 566.574C121.284 569.117 250.381 571.265 409.644 571.265C568.908 571.265 697.992 569.168 697.992 566.574C697.992 563.981 568.883 561.947 409.644 561.947C250.406 561.947 121.284 564.044 121.284 566.574Z" fill="#D6D8E2" opacity="0.5"/>
    <path d="M336.242 83.6094C343.201 86.729 349.818 90.5634 355.985 95.0508C363.463 100.192 370.435 106.032 376.808 112.492C384.288 93.6222 395.26 76.3318 409.149 61.5276C428.284 40.9493 451.918 25.0732 478.204 15.1393C437.389 60.9331 408.046 115.775 392.597 175.14C386.469 166.458 378.321 155.537 368.112 142.825C355.896 127.811 346.171 117.056 339.115 109.403C330.75 100.009 319.932 88.7072 307.003 75.9183C317.051 77.1531 326.887 79.7402 336.242 83.6094Z" fill="#066FD1"/>
    <path d="M605.99 479.709L604.719 458.746C604.719 458.746 599.316 457.64 597.206 460.907C595.095 464.174 601.185 476.073 605.952 479.709" fill="#232B41"/>
    <path d="M630.818 283.134C630.626 282.967 630.402 282.84 630.161 282.76C629.919 282.68 629.664 282.648 629.41 282.667C629.156 282.686 628.908 282.755 628.68 282.87C628.453 282.985 628.251 283.144 628.085 283.337L586.668 331.645C586.335 332.037 586.172 332.544 586.212 333.056C586.253 333.568 586.494 334.043 586.884 334.378C587.277 334.707 587.783 334.869 588.294 334.829C588.806 334.788 589.28 334.549 589.617 334.162L631.022 285.854C631.355 285.466 631.52 284.962 631.482 284.452C631.444 283.942 631.205 283.468 630.818 283.134Z" fill="#066FD1"/>
    <path d="M632.712 313.758C632.519 313.592 632.295 313.466 632.053 313.387C631.81 313.308 631.555 313.278 631.301 313.298C631.047 313.318 630.799 313.388 630.572 313.504C630.346 313.62 630.144 313.78 629.979 313.975L600.46 348.388C600.128 348.779 599.965 349.287 600.005 349.799C600.046 350.311 600.287 350.786 600.677 351.121C601.033 351.418 601.483 351.58 601.948 351.578C602.228 351.579 602.504 351.519 602.759 351.403C603.013 351.286 603.24 351.116 603.423 350.905L632.941 316.492C633.107 316.298 633.232 316.073 633.31 315.83C633.388 315.587 633.417 315.331 633.396 315.077C633.375 314.823 633.303 314.576 633.186 314.35C633.069 314.123 632.908 313.922 632.712 313.758Z" fill="#066FD1"/>
    <path d="M204.094 190.319C203.777 189.914 203.313 189.652 202.802 189.59C202.292 189.528 201.778 189.672 201.374 189.989C200.969 190.305 200.707 190.77 200.645 191.28C200.583 191.79 200.726 192.304 201.043 192.709L232.38 232.639C232.697 233.044 233.161 233.306 233.672 233.368C234.182 233.43 234.696 233.287 235.1 232.97C235.505 232.653 235.767 232.188 235.829 231.678C235.891 231.168 235.748 230.654 235.431 230.249L204.094 190.319Z" fill="#066FD1"/>
    <path d="M218.993 241.36L189.843 223.562C189.626 223.43 189.385 223.341 189.134 223.302C188.883 223.262 188.626 223.272 188.379 223.332C188.131 223.392 187.898 223.499 187.693 223.649C187.487 223.799 187.313 223.987 187.18 224.204C187.047 224.422 186.959 224.663 186.919 224.914C186.88 225.165 186.89 225.422 186.949 225.669C187.009 225.916 187.117 226.15 187.267 226.355C187.416 226.561 187.605 226.735 187.822 226.868L216.972 244.665C217.274 244.85 217.622 244.947 217.976 244.945C218.4 244.949 218.812 244.813 219.151 244.559C219.49 244.305 219.736 243.947 219.851 243.54C219.967 243.133 219.945 242.699 219.79 242.305C219.635 241.912 219.355 241.579 218.993 241.36Z" fill="#066FD1"/>
    <path d="M553.869 218.249C552.509 221.223 550.462 225.597 547.92 230.961C547.259 232.042 546.737 233.135 546.572 233.504C543.523 239.247 539.732 244.564 535.296 249.318C534.317 250.234 533.491 251.162 532.677 251.924C529.245 254.988 513.265 253.844 501.417 247.602C489.569 241.36 489.976 227.58 497.387 224.643C500.079 223.332 502.502 221.53 504.532 219.329C507.364 216.475 510.001 213.434 512.426 210.227C513.913 208.371 514.753 207.125 514.753 207.125L527.732 202.574L550.971 211.816C549.102 215.566 549 218.732 550.246 219.558C551.492 220.384 553.45 218.719 553.933 218.287" fill="#FFCB9D"/>
    <path d="M553.869 218.249C552.508 221.223 550.462 225.597 547.919 230.961C547.258 232.042 546.737 233.135 546.572 233.504C543.523 239.247 539.732 244.564 535.296 249.318C534.015 248.204 532.928 246.885 532.079 245.415C531.159 243.795 530.619 241.987 530.503 240.127C530.361 238.163 530.533 236.189 531.011 234.279C531.243 232.991 531.548 231.718 531.927 230.465C521.831 229.845 512.238 225.841 504.696 219.1C507.528 216.246 510.166 213.205 512.591 209.998C514.078 208.142 514.917 206.896 514.917 206.896L527.897 202.396L551.072 211.689C549.203 215.439 549.101 218.605 550.347 219.431C551.593 220.257 553.386 218.744 553.869 218.274" fill="black" opacity="0.1"/>
    <path d="M554.708 231.813C552.75 233.961 547.831 233.809 544.945 234.673C544.29 234.874 543.649 235.116 543.025 235.398C542.736 235.515 542.462 235.669 542.212 235.855C539.778 237.167 537.704 239.057 536.173 241.36C535.627 239.605 535.627 237.725 536.173 235.97C537.416 233.31 538.878 230.758 540.546 228.342C540.565 228.225 540.623 228.117 540.712 228.037C540.877 227.719 540.877 227.554 541.22 226.931C541.875 225.72 542.395 224.441 542.771 223.117V222.965C540.076 222.876 527.173 222.66 517.181 219.66C511.409 217.918 506.591 215.261 505.269 211.142C504.701 209.471 504.531 207.691 504.773 205.943V205.841L504.926 205.205V205.116C505.084 204.567 505.324 204.044 505.638 203.565C508.472 199.205 515.808 201.201 517.905 196.98C519.253 194.171 516.634 192.022 518.287 189.696C519.939 187.369 524.567 186.721 527.694 188.094C530.046 189.124 529.677 190.535 531.864 191.552C535.677 193.255 538.105 189.696 542.034 191.247C544.388 192.448 546.321 194.336 547.576 196.662C548.606 198.582 548.593 199.535 549.966 201.163C551.061 202.321 552.352 203.276 553.78 203.985C556.895 205.51 557.874 204.748 559.425 205.739C562.056 207.735 562.87 212.032 561.967 215.337C560.696 219.571 557.391 219.316 555.827 223.867C554.518 227.999 556.526 229.753 554.708 231.813Z" fill="#232B41"/>
    <path d="M548.174 219.011C547.996 219.24 545.199 223.054 542.771 222.978C540.076 222.889 527.173 222.673 517.181 219.672C511.409 217.931 506.591 215.274 505.269 211.155C504.701 209.484 504.531 207.704 504.773 205.955V205.854L504.926 205.218V205.116C504.926 205.116 520.791 220.994 548.174 219.011Z" fill="black" opacity="0.5"/>
    <path d="M488.119 373.851C491.687 395.039 495.255 416.226 498.823 437.414L586.54 462.267L589.362 455.58L533.351 418.536L530.35 367.965L488.119 373.851Z" fill="#DDDDDD"/>
    <path d="M535.817 337.086C535.253 348.33 535.606 359.601 536.872 370.787C537.571 377.029 538.499 382.763 539.516 387.937L456.49 376.927C461.367 351.634 464.438 326.025 465.681 300.296C465.842 296.813 465.978 293.291 466.088 289.732C466.228 284.888 466.292 280.121 466.304 275.43C466.304 266.099 466.101 257.073 465.694 248.39C474.244 252.39 483.109 255.677 492.2 258.217L492.696 258.344L493.687 258.611C495.276 259.043 496.904 259.463 498.569 259.882L500.006 260.213C500.501 260.34 500.997 260.442 501.506 260.556L503.095 260.887C506.892 261.683 510.858 262.357 514.994 262.908C518.579 263.391 522.062 263.734 525.418 263.976L527.465 264.103C535.977 264.597 544.515 264.444 553.004 263.645C547.068 277.316 542.586 291.574 539.631 306.182C537.59 316.374 536.315 326.704 535.817 337.086Z" fill="#066FD1"/>
    <path d="M492.709 258.332C483.247 265.204 475.669 274.351 470.678 284.926C470.604 285.057 470.54 285.193 470.487 285.333C468.305 290.11 466.697 295.128 465.694 300.283C462.135 282.231 458.571 264.188 455.003 246.153C458.681 244.507 462.514 243.229 466.444 242.339C473.533 240.74 480.847 240.391 488.056 241.309C488.157 241.653 489.861 247.856 489.95 248.2C490.128 248.924 492.492 257.62 492.709 258.332Z" fill="#066FD1"/>
    <path d="M571.005 283.858L539.682 306.131C534.935 292.071 530.185 278.006 525.431 263.938H525.545C531.68 262.677 537.593 260.509 543.089 257.505C545.622 256.13 548.056 254.58 550.373 252.865L571.005 283.858Z" fill="#066FD1"/>
    <path d="M525.546 263.912H525.482C519.494 266.34 506.121 271.108 498.315 268.527C496.586 267.942 493.484 266.925 492.353 264.103C491.718 262.193 491.864 260.109 492.76 258.306L493.751 258.573C495.137 258.942 496.777 259.361 498.633 259.844L500.069 260.175L501.57 260.518L503.159 260.849C507.077 261.779 511.052 262.454 515.058 262.87C518.643 263.353 522.126 263.696 525.482 263.938H525.546V263.912Z" fill="#FFCB9D"/>
    <path d="M280.332 284.036C289.239 293.446 301.31 299.232 314.224 300.283L276.188 314.839L280.357 284.024" fill="#232B41"/>
    <path d="M295.866 489.46L281.933 501.714L279.276 504.054L252.618 527.521L250.622 525.601L269.233 496.223L278.145 482.15L295.866 489.46Z" fill="#FFCB9D"/>
    <path d="M284.565 315.551C273.81 319.873 260.487 320.127 254.411 318.093C253.379 317.828 252.43 317.308 251.652 316.581C250.788 315.627 249.974 314.623 249.109 313.542C247.978 312.068 246.91 310.491 245.893 308.915C243.254 304.789 240.995 300.432 239.143 295.897C239.041 295.516 238.571 294.41 238.075 293.126C235.926 287.329 234.261 282.574 233.257 279.32C233.676 279.727 235.698 281.596 236.88 281.036C238.062 280.477 238.444 277.108 236.88 272.964L262.076 265.908L275.17 272.048C275.17 272.048 275.895 273.409 277.179 275.455C279.326 279.052 281.717 282.497 284.336 285.765C286.216 288.286 288.543 290.441 291.201 292.122C298.562 296.05 297.392 310.453 284.451 315.576" fill="#FFCB9D"/>
    <path d="M284.463 285.803C275.823 291.893 265.402 294.935 254.843 294.448C252.464 295.475 250.417 297.143 248.931 299.266C246.77 302.47 247.457 304.656 246.084 308.597L245.969 308.979C243.335 304.85 241.076 300.493 239.219 295.961C239.117 295.579 238.647 294.473 238.151 293.19C235.99 287.393 234.337 282.638 233.333 279.384C233.753 279.79 235.761 281.659 236.956 281.1C238.151 280.54 238.52 277.172 237.02 273.027L262.216 265.972L275.31 272.112C275.31 272.112 276.035 273.472 277.319 275.519C279.465 279.115 281.857 282.56 284.476 285.829" fill="black" opacity="0.1"/>
    <path d="M309.634 359.753C309.229 368.241 309.569 376.749 310.651 385.178C311.236 389.755 312.011 394.077 312.888 398.018L313.092 399.187C314.554 407.4 316.054 415.536 317.528 423.71C290.044 424.218 262.563 424.748 235.087 425.299C235.087 423.405 235.151 421.485 235.189 419.553V419.464C234.373 398.575 234.695 377.657 236.155 356.803C236.257 355.278 236.371 353.74 236.498 352.201L223.785 361.647L211.365 347.498C213.306 345.44 215.356 343.488 217.505 341.65C219.781 339.713 222.167 337.909 224.65 336.247C224.65 336.247 230.129 331.429 236.358 330.565C236.927 330.509 237.492 330.416 238.049 330.285H238.354C241.888 329.789 245.282 329.331 248.524 329.09C256.324 328.406 264.162 328.287 271.979 328.734C279.471 329.187 286.912 330.263 294.226 331.95C296.082 332.395 298.04 332.878 299.82 333.489L301.371 334.01L301.943 334.2L302.96 334.569C306.458 332.612 309.639 330.135 312.392 327.221C314.867 324.599 316.968 321.647 318.634 318.449C320.566 321.867 322.322 325.38 323.897 328.976C325.619 332.918 327.117 336.954 328.385 341.065L309.634 359.753Z" fill="#066FD1"/>
    <path d="M286.396 268.679C285.7 271.968 284.187 275.028 281.997 277.578C272.437 288.791 252.199 284.774 246.656 283.401C246.389 286.947 244.012 290.253 244.177 292.299C244.241 292.922 244.304 293.571 244.393 294.105C244.534 295.093 244.747 296.071 245.029 297.029C245.522 298.657 246.165 300.235 246.948 301.745C250.745 307.98 254.994 313.929 259.661 319.543L242.842 325.492L229.265 330.297C225.478 324.256 223.085 317.447 222.261 310.364C222.261 309.741 222.108 308.8 222.019 307.58C221.913 305.192 221.985 302.8 222.235 300.423C222.235 299.991 222.311 299.558 222.375 299.152C222.783 296.041 223.503 292.978 224.523 290.011C227.173 282.344 231.544 275.387 237.3 269.671C239.308 267.764 252.25 255.776 269.081 256.958C273.264 257.213 283.268 257.963 285.824 264.103C286.405 265.6 286.551 267.231 286.243 268.807" fill="#232B41"/>
    <path d="M280.192 566.599C277.205 559.76 265.128 548.802 261.123 550.175C257.119 551.548 257.017 558.069 257.017 558.069L255.924 564.782L263.679 566.599L265.878 561.324L280.192 566.599Z" fill="#232B41"/>
    <path d="M244.317 553.442C248.131 547.086 250.05 530.839 246.593 528.36C243.135 525.881 237.77 529.631 237.77 529.631L231.681 532.644L234.694 540.005L240.274 538.734L244.317 553.442Z" fill="#232B41"/>
    <path d="M286.396 268.68C285.7 271.968 284.187 275.028 281.998 277.578C272.476 288.867 252.186 284.786 246.656 283.401C244.57 282.34 242.601 281.062 240.783 279.587C248.696 281.639 256.992 281.72 264.944 279.823C272.896 277.926 280.262 274.109 286.396 268.705" fill="black" opacity="0.5"/>
    <path d="M302.006 334.149L301.434 333.946C299.171 344.116 285.938 351.845 269.945 351.845C252.376 351.845 238.075 342.425 238.075 330.87V330.285C237.528 330.361 236.969 330.45 236.384 330.564V330.857C236.384 343.569 251.448 353.829 269.932 353.829C286.573 353.829 300.443 345.438 302.985 334.505L301.968 334.124" fill="#DDDDDD"/>
    <path d="M275.819 360.986C275.721 361.454 275.493 361.885 275.161 362.229C274.829 362.573 274.407 362.817 273.942 362.932C273.478 363.047 272.991 363.029 272.537 362.879C272.082 362.73 271.679 362.456 271.374 362.088C271.069 361.72 270.873 361.273 270.81 360.799C270.747 360.325 270.819 359.843 271.018 359.408C271.217 358.973 271.534 358.603 271.933 358.34C272.333 358.077 272.798 357.932 273.276 357.922C274.017 357.999 274.697 358.363 275.172 358.936C275.647 359.508 275.88 360.244 275.819 360.986Z" fill="#DDDDDD"/>
    <path d="M242.829 325.479L229.252 330.285C225.465 324.243 223.072 317.434 222.247 310.351C222.184 309.729 222.095 308.788 222.006 307.567L222.222 300.397C222.222 299.978 222.298 299.533 222.374 299.126C222.772 296.014 223.488 292.952 224.51 289.986C226.303 299.037 229.684 311.419 235.659 318.233C237.888 320.807 240.274 323.24 242.804 325.518" fill="black" opacity="0.5"/>
    <path d="M317.58 423.773C290.104 424.282 262.623 424.816 235.139 425.375C235.139 423.468 235.202 421.561 235.253 419.616V419.527C279.506 421.714 305.516 405.429 313.143 399.251C314.605 407.463 316.118 415.599 317.58 423.773Z" fill="black" opacity="0.1"/>
    <path d="M270.899 328.429C263.082 327.992 255.243 328.115 247.444 328.797C246.847 330.137 246.544 331.589 246.554 333.056C246.554 341.752 257.029 348.794 269.958 348.794C282.887 348.794 293.298 341.752 293.298 333.056C293.301 332.6 293.258 332.144 293.171 331.696C285.854 329.973 278.402 328.88 270.899 328.429Z" fill="#FFCB9D"/>
    <path d="M525.546 263.912H525.482C519.494 266.34 506.121 271.108 498.315 268.527C496.586 267.942 493.484 266.925 492.353 264.103C491.718 262.193 491.864 260.109 492.76 258.306L493.751 258.573C495.137 258.942 496.777 259.361 498.633 259.844L500.069 260.175L501.57 260.518L503.159 260.849C507.077 261.779 511.052 262.454 515.058 262.87C518.643 263.353 522.126 263.696 525.482 263.938H525.546V263.912Z" fill="black" opacity="0.1"/>
    <path d="M456.49 376.928C461.367 351.634 464.438 326.025 465.682 300.296C462.122 282.244 458.558 264.201 454.99 246.166C455.168 246.738 458.969 258.7 466.317 275.405C467.588 278.43 469.101 281.608 470.678 284.914C484.153 313.339 506.273 350.371 536.872 370.775C537.571 377.017 538.499 382.75 539.516 387.924L456.49 376.928Z" fill="black" opacity="0.1"/>
    <path d="M295.866 489.46L252.643 527.521L250.647 525.601L278.17 482.15L295.866 489.46Z" fill="black" opacity="0.15"/>
    <path d="M269.221 484.336L267.263 507.74L264.415 541.746H261.644L254.461 506.469L251.385 491.341L269.221 484.336Z" fill="#FFCB9D"/>
    <path d="M251.385 491.341L269.182 484.336L267.237 507.677C262.801 507.397 258.504 506.965 254.423 506.405L251.385 491.341Z" fill="black" opacity="0.15"/>
    <path d="M321.915 491.341H237.185L235.711 444.126L235.139 425.324L317.58 423.723L321.101 478.476L321.915 491.341Z" fill="#DDDDDD"/>
    <path d="M321.914 491.341H237.185C236.871 469.136 235.508 447.552 235.178 425.339L277.624 424.46C272.894 427.422 263.182 434.477 258.923 446.999C256.05 455.479 255.809 466.068 258.923 467.225C263.118 468.814 269.093 452.161 278.094 452.873C284.12 453.356 285.607 461.225 293.641 468.344C302.044 475.781 312.596 477.967 321.113 478.514L321.914 491.341Z" fill="black" opacity="0.1"/>
</svg>
