<svg xmlns="http://www.w3.org/2000/svg" width="800" height="600" fill="none" viewBox="0 0 800 600">
    <path d="M173 295.924C173 334.286 213.567 362.192 231.536 393.226C250.002 425.253 254.538 474.014 286.46 492.629C317.494 510.599 361.673 490.517 400.024 490.517C438.375 490.517 482.566 510.599 513.588 492.629C545.522 474.164 550.035 425.253 568.512 393.226C586.481 362.192 627.048 334.367 627.048 295.924C627.048 257.481 586.389 229.655 568.512 198.633C550.046 166.595 545.522 117.695 513.588 99.2296C482.566 81.2487 438.386 101.33 400.024 101.33C361.662 101.33 317.494 81.2487 286.46 99.2296C254.434 117.695 250.013 166.595 231.536 198.633C213.567 229.794 173 257.573 173 295.924Z" fill="#066FD1" opacity="0.02"/>
    <path d="M262.57 543.826C262.57 547.196 330.951 550 415.27 550C499.589 550 567.981 547.196 567.981 543.826C567.981 540.456 499.589 537.801 415.27 537.801C330.951 537.801 262.57 540.606 262.57 543.826Z" fill="#D6D8E2" opacity="0.5"/>
    <path d="M550.185 145.936L517.085 135.168C515.357 134.627 513.485 134.784 511.872 135.606C510.258 136.428 509.03 137.849 508.452 139.565L495.342 179.959C492.981 177.944 490.231 176.435 487.263 175.527C479.646 173.046 472.352 174.454 470.979 178.678C469.605 182.902 474.672 188.326 482.3 190.796C489.929 193.266 497.223 191.87 498.596 187.645L499.139 187.83L514.142 141.504C514.205 141.311 514.343 141.15 514.525 141.057C514.706 140.964 514.917 140.946 515.111 141.008L548.223 151.776C548.319 151.805 548.408 151.853 548.483 151.919C548.559 151.985 548.62 152.066 548.661 152.157C548.702 152.25 548.722 152.35 548.722 152.451C548.722 152.552 548.702 152.652 548.661 152.745L535.551 193.139C533.191 191.12 530.441 189.607 527.472 188.696C519.855 186.214 512.561 187.622 511.188 191.846C509.814 196.07 514.881 201.495 522.509 203.976C530.138 206.457 537.432 205.038 538.805 200.825L539.348 200.998L554.351 154.673C554.954 152.962 554.854 151.081 554.073 149.444C553.292 147.806 551.894 146.545 550.185 145.936Z" fill="#066FD1"/>
    <path d="M320.68 52.5576C320.477 51.7011 319.942 50.96 319.194 50.497C318.445 50.034 317.543 49.8868 316.686 50.0878L303.379 53.2154C302.277 53.4758 301.236 53.9514 300.317 54.6148C299.399 55.2782 298.62 56.1165 298.026 57.0814C297.432 58.0464 297.034 59.1192 296.856 60.2382C296.677 61.3572 296.721 62.5005 296.986 63.6024L307.546 108.37C303.189 107.461 298.683 107.552 294.366 108.636C284.037 111.071 276.754 117.684 278.105 123.397C279.455 129.109 288.919 131.764 299.248 129.329C308.377 127.17 315.117 121.758 315.625 116.633C315.91 115.98 315.978 115.252 315.821 114.556L303.449 62.0213C303.39 61.7731 303.381 61.5157 303.423 61.2641C303.465 61.0125 303.556 60.7717 303.691 60.5555C303.966 60.1172 304.401 59.8027 304.903 59.6784L318.21 56.5508C319.065 56.3451 319.804 55.8102 320.266 55.0624C320.729 54.3146 320.877 53.4144 320.68 52.5576Z" fill="#232B41"/>
    <path d="M453.24 525.233L442.137 526.387L407.307 454.174C408.207 434.939 409.107 415.704 410.007 396.469L385.217 442.391C386.171 468.443 387.114 494.487 388.044 520.524L374.403 522.059C367.571 496.176 360.735 470.29 353.895 444.399C362.358 414.808 370.856 385.221 379.389 355.637L415.512 358.811L457.729 362.538C452.174 392.453 446.627 422.367 441.087 452.282L453.24 525.233Z" fill="#066FD1"/>
    <path d="M410.007 396.423L385.217 442.345C386.171 468.397 387.114 494.441 388.044 520.478L374.403 522.013C367.571 496.13 360.735 470.243 353.895 444.353C362.358 414.762 370.856 385.174 379.389 355.591L415.512 358.765L410.007 396.423Z" fill="black" opacity="0.1"/>
    <path d="M364.823 271.561L363.53 272.369C359.46 274.872 355.248 277.138 350.916 279.155C336.789 285.675 310.43 297.62 290.221 287.464C289.028 286.874 287.871 286.211 286.759 285.479C270.105 274.55 262.823 248.94 270.601 231.236C275.772 219.395 289.217 207.462 297.365 210.462C298.852 211.099 300.167 212.078 301.204 213.32C302.241 214.561 302.97 216.03 303.332 217.606C305.271 225.812 294.699 230.059 292.426 241.993C291.375 247.532 291.675 257.088 297.134 261.52C301.751 265.248 308.999 264.625 316.408 262.316C327.407 258.912 338.613 251.837 341.417 249.967C342.283 249.39 343.172 248.813 344.06 248.19C345.538 247.174 347.049 246.101 348.596 244.947C350.25 247.663 351.904 250.356 353.559 253.026C357.229 259.066 360.918 265.109 364.626 271.157C364.661 271.295 364.742 271.422 364.823 271.561Z" fill="#FFCB9D"/>
    <path d="M364.593 271.156C364.235 271.549 363.889 271.953 363.531 272.368C359.461 274.872 355.249 277.138 350.917 279.154C336.791 285.675 310.431 297.62 290.223 287.464C310.246 281.578 315.301 269.818 316.375 262.258C327.373 258.854 338.58 251.779 341.384 249.909C342.25 249.332 343.138 248.755 344.027 248.132L353.525 253.025C357.195 259.065 360.885 265.109 364.593 271.156Z" fill="black" opacity="0.1"/>
    <path d="M434.625 157.477C434.971 161.32 435.444 166.964 435.779 173.923C435.836 175.47 435.906 176.831 435.929 177.27C436.056 184.917 435.235 192.55 433.482 199.994C433.101 201.472 432.709 202.868 432.247 204.241C430.493 209.308 413.435 217.502 397.739 217.883C382.044 218.264 374.426 203.976 380.266 196.624C382.256 193.699 383.703 190.438 384.536 186.999C385.804 182.455 386.749 177.827 387.364 173.15C387.779 170.472 387.929 168.718 387.929 168.718L398.709 156.577L427.931 152.63C428.254 157.593 430.008 160.812 431.612 160.916C433.217 161.02 434.405 158.077 434.625 157.477Z" fill="#FFCB9D"/>
    <path d="M434.623 157.477C434.969 161.32 435.442 166.964 435.777 173.923C435.834 175.47 435.904 176.831 435.927 177.27C436.066 184.917 435.244 192.552 433.48 199.994C431.505 199.649 429.614 198.932 427.906 197.882C426.053 196.696 424.447 195.164 423.174 193.37C421.878 191.426 420.893 189.292 420.254 187.045C419.763 185.613 419.358 184.152 419.042 182.671C408.373 187.921 396.252 189.445 384.615 186.999C385.871 182.453 386.808 177.826 387.42 173.15C387.847 170.472 387.985 168.707 387.985 168.707L398.776 156.577L428.01 152.63C428.321 157.593 430.064 160.824 431.668 160.928C433.272 161.032 434.403 158.077 434.623 157.477Z" fill="black" opacity="0.1"/>
    <path d="M370.028 167.83C371.2 169.702 372.574 171.44 374.125 173.011C376.047 175.094 378.263 176.882 380.704 178.32C391.679 184.853 407.144 183.214 419.851 173.9C422.005 172.32 424.028 170.568 425.898 168.661H425.968C425.978 168.68 425.983 168.702 425.983 168.724C425.983 168.746 425.978 168.768 425.968 168.787C426.265 170.364 426.443 171.962 426.499 173.565C426.499 174.316 426.499 174.523 426.556 175.02V175.516C426.556 176.393 425.875 182.602 426.452 185.903C426.889 188.05 427.987 190.008 429.592 191.5C429.799 188.221 430.827 185.046 432.581 182.267C433.289 181.295 434.06 180.37 434.889 179.498C438.635 174.504 440.432 168.317 439.944 162.094C439.712 159.547 439.089 157.052 438.097 154.696C437.532 153.138 435.131 147.529 431.046 144.828C422.598 139.242 404.94 145.151 396.423 149.445C394.922 150.206 392.337 151.591 389.96 151.268C389.482 151.21 389.022 151.052 388.609 150.807C385.966 149.387 385.251 145.359 385.586 142.728C386.209 137.569 391.195 133.149 398.223 131.348C382.343 129.813 369.07 139.323 366.566 151.291C365.507 157.045 366.75 162.984 370.028 167.83Z" fill="#232B41"/>
    <path d="M370.029 167.83C371.201 169.702 372.575 171.44 374.126 173.012C376.048 175.094 378.264 176.882 380.705 178.321C391.68 184.853 407.145 183.214 419.852 173.9C422.876 171.257 425.461 169.007 425.9 168.661H425.969L430.02 163.952C423.061 168.594 415.319 171.938 407.168 173.82C399.967 175.458 389.949 177.79 379.216 173.381C375.892 172.003 372.795 170.132 370.029 167.83Z" fill="black" opacity="0.5"/>
    <path d="M362.977 543.895L389.763 541.967C389.763 541.967 391.091 535.043 386.89 532.411C382.689 529.78 367.604 537.743 363.023 543.952" fill="#232B41"/>
    <path d="M431.83 547.449L458.571 545.51C458.571 545.51 459.886 538.586 455.697 535.954C451.508 533.323 436.4 541.286 431.83 547.495" fill="#232B41"/>
    <path d="M453.897 311.366C456.298 328.639 458.464 345.619 460.395 362.308C443.222 362.469 429.58 361.892 420.001 361.327C415.385 361.038 407.987 360.507 393.214 359.457L374.287 358.118C374.772 354.529 375.187 350.317 375.441 345.573C375.556 343.265 375.649 340.853 375.672 338.314C375.776 326.773 374.518 318.925 373.294 308.826C372.14 299.813 370.663 286.772 369.347 270.499C363.742 275.988 357.366 280.63 350.42 284.279C341.05 274.138 334.953 261.409 332.924 247.751C340.714 240.4 353.582 230.578 371.471 226.608C376.163 225.544 380.949 224.945 385.759 224.819C392.462 224.755 399.165 225.032 405.84 225.65C414.613 226.195 423.305 227.658 431.773 230.013C437.247 231.454 442.481 233.69 447.307 236.649C450.599 238.726 453.69 241.106 456.54 243.758C463.177 250.28 468.138 258.31 471.001 267.163C472.743 272.473 473.904 277.957 474.463 283.517C471.023 283.392 467.577 283.527 464.157 283.921C459.446 284.44 454.804 285.457 450.308 286.956C451.554 295.012 452.751 303.148 453.897 311.366Z" fill="#DADBE0"/>
    <path d="M453.897 311.366C456.298 328.639 458.464 345.619 460.395 362.308C443.222 362.469 429.58 361.892 420.001 361.327C415.385 361.038 407.987 360.507 393.214 359.457L374.287 358.118C374.772 354.529 375.187 350.317 375.441 345.573C388.356 336.548 409.51 318.902 423.625 289.68C428.373 279.852 431.956 269.502 434.301 258.842C434.578 258.288 439.91 248.063 449.881 247.301C459.414 246.586 469.385 254.838 470.978 267.163C472.72 272.473 473.881 277.957 474.44 283.517C471 283.392 467.554 283.527 464.134 283.921C459.423 284.44 454.781 285.457 450.285 286.956C451.547 295.012 452.751 303.148 453.897 311.366Z" fill="black" opacity="0.1"/>
    <path d="M307.672 185.738C308.381 185.136 308.467 184.072 307.865 183.363C307.262 182.654 306.199 182.568 305.489 183.17L293.38 193.462C292.671 194.064 292.584 195.128 293.187 195.837C293.79 196.546 294.853 196.632 295.562 196.03L307.672 185.738Z" fill="#A6A9B3"/>
    <path d="M312.708 181.998L309.951 178.753C309.348 178.044 308.285 177.958 307.575 178.561L302.739 182.671C302.03 183.274 301.943 184.337 302.546 185.046L305.304 188.291C305.906 189.001 306.97 189.087 307.679 188.484L312.516 184.374C313.225 183.771 313.311 182.708 312.708 181.998Z" fill="#066FD1"/>
    <path d="M270.455 210.919C269.746 211.522 269.66 212.585 270.262 213.294C270.865 214.004 271.928 214.09 272.637 213.487L284.747 203.196C285.456 202.593 285.542 201.53 284.94 200.821C284.337 200.111 283.274 200.025 282.565 200.628L270.455 210.919Z" fill="#A6A9B3"/>
    <path d="M265.428 214.669L268.186 217.914C268.789 218.623 269.852 218.709 270.561 218.106L275.398 213.996C276.107 213.393 276.194 212.33 275.591 211.621L272.833 208.376C272.23 207.666 271.167 207.58 270.458 208.183L265.621 212.293C264.912 212.896 264.826 213.959 265.428 214.669Z" fill="#066FD1"/>
    <path d="M322.322 201.322C323.031 200.72 323.118 199.656 322.515 198.947C321.912 198.238 320.849 198.152 320.14 198.755L308.03 209.046C307.321 209.649 307.235 210.712 307.838 211.421C308.44 212.13 309.504 212.217 310.213 211.614L322.322 201.322Z" fill="#A6A9B3"/>
    <path d="M327.345 197.57L324.587 194.325C323.985 193.616 322.921 193.53 322.212 194.132L317.375 198.243C316.666 198.845 316.58 199.909 317.183 200.618L319.94 203.863C320.543 204.572 321.606 204.658 322.316 204.056L327.152 199.945C327.861 199.342 327.948 198.279 327.345 197.57Z" fill="#066FD1"/>
    <path d="M299.857 209.125L295.508 212.557C293.437 214.191 293.083 217.196 294.718 219.267L362.79 305.524C364.425 307.596 367.43 307.95 369.501 306.315L373.85 302.883C375.921 301.248 376.275 298.244 374.64 296.172L306.568 209.915C304.933 207.844 301.929 207.49 299.857 209.125Z" fill="#A6A9B3"/>
    <path d="M445.046 397.785C438.498 402.915 430.694 406.197 422.448 407.289C414.201 408.381 405.813 407.244 398.155 403.996C390.497 400.748 383.849 395.507 378.903 388.819C373.956 382.131 370.892 374.24 370.029 365.966C369.789 363.662 369.185 361.411 368.24 359.296C366.691 355.877 364.387 352.854 361.5 350.455C359.584 348.831 357.832 347.022 356.272 345.054C352.997 340.916 350.641 336.129 349.36 331.01C348.079 325.891 347.903 320.558 348.843 315.365C349.784 310.173 351.819 305.24 354.814 300.896C357.809 296.551 361.695 292.895 366.214 290.169C370.732 287.443 375.779 285.711 381.019 285.087C386.259 284.463 391.571 284.963 396.603 286.552C401.635 288.142 406.27 290.784 410.201 294.305C414.133 297.825 417.269 302.142 419.402 306.968C420.46 309.322 422.006 311.425 423.938 313.136C425.87 314.847 428.143 316.128 430.608 316.894C431.047 317.032 431.485 317.182 431.912 317.344C439.75 320.141 446.695 324.988 452.024 331.38C457.352 337.773 460.87 345.476 462.211 353.69C463.552 361.903 462.667 370.325 459.648 378.081C456.629 385.836 451.587 392.64 445.046 397.785Z" fill="#232B41"/>
    <path d="M445.046 397.785C438.498 402.915 430.694 406.197 422.448 407.289C414.202 408.382 405.813 407.245 398.155 403.996C390.497 400.748 383.849 395.507 378.903 388.819C373.956 382.131 370.892 374.24 370.029 365.966C369.789 363.662 369.185 361.411 368.24 359.296C372.907 360.424 377.666 361.127 382.459 361.396C393.319 361.996 413.793 363.139 425.161 350.109C435.375 338.372 432.697 321.476 431.924 317.309C439.768 320.105 446.72 324.953 452.053 331.348C457.386 337.744 460.907 345.453 462.247 353.673C463.587 361.892 462.698 370.32 459.673 378.079C456.647 385.837 451.596 392.643 445.046 397.785Z" fill="black" opacity="0.15"/>
    <path d="M411.622 377.98C424.21 377.98 434.415 367.775 434.415 355.187C434.415 342.598 424.21 332.393 411.622 332.393C399.033 332.393 388.828 342.598 388.828 355.187C388.828 367.775 399.033 377.98 411.622 377.98Z" fill="#A6A9B3"/>
    <path d="M288.297 185.727L275.441 195.872C273.075 197.74 272.67 201.173 274.538 203.539L299.419 235.067C301.287 237.434 304.72 237.838 307.086 235.97L319.942 225.825C322.308 223.957 322.713 220.524 320.845 218.158L295.964 186.63C294.096 184.264 290.664 183.859 288.297 185.727Z" fill="#232B41"/>
    <path d="M288.709 202.453C288.473 202.197 288.149 202.039 287.801 202.011C287.454 201.984 287.109 202.088 286.835 202.304C286.561 202.519 286.379 202.83 286.324 203.175C286.269 203.519 286.346 203.871 286.54 204.161L428.298 383.763C428.535 384.019 428.859 384.177 429.207 384.204C429.554 384.232 429.899 384.127 430.173 383.912C430.447 383.696 430.629 383.385 430.684 383.041C430.739 382.697 430.662 382.345 430.468 382.055L288.709 202.453Z" fill="#066FD1"/>
    <path d="M435.663 377.946L293.904 198.344C293.678 198.058 293.347 197.873 292.985 197.831C292.622 197.789 292.258 197.893 291.971 198.119C291.685 198.346 291.501 198.677 291.458 199.039C291.416 199.402 291.52 199.766 291.746 200.052L433.505 379.654C433.616 379.797 433.753 379.916 433.911 380.006C434.068 380.095 434.241 380.152 434.42 380.173C434.6 380.195 434.782 380.18 434.955 380.131C435.129 380.081 435.291 379.998 435.432 379.885C435.576 379.773 435.695 379.634 435.785 379.476C435.874 379.318 435.931 379.144 435.952 378.964C435.974 378.783 435.959 378.6 435.91 378.426C435.86 378.251 435.776 378.088 435.663 377.946Z" fill="#066FD1"/>
    <path d="M281.129 231.848C286.314 231.537 291.515 231.625 296.686 232.113C300.333 226.724 304.592 223.007 303.299 217.537C302.938 215.962 302.208 214.495 301.171 213.255C300.134 212.015 298.819 211.039 297.333 210.405C289.185 207.427 275.739 219.36 270.569 231.178C270.315 231.779 270.073 232.39 269.842 233.002C273.571 232.346 277.344 231.96 281.129 231.848Z" fill="#FFCB9D"/>
    <path d="M465.935 296.708C464.92 311.158 460.626 329.023 447.573 343.877C431.07 362.608 401.178 375.995 390.503 367.513C386.233 364.108 384.271 356.537 386.475 351.632C388.679 346.727 394.473 345.527 401.201 343.15C416.124 337.875 427.33 329.635 431.024 326.127C434.982 322.353 438.583 315.982 439.241 304.603C439.511 297.756 439.016 290.9 437.764 284.163C437.694 283.736 437.613 283.309 437.533 282.871C437.14 280.736 436.713 278.52 436.182 276.188L440.153 275.658L454.96 273.673L464.92 272.334C465.485 276.061 465.866 279.824 466.074 283.598C466.074 284.752 466.154 285.848 466.178 286.991C466.258 289.98 466.212 293.246 465.935 296.708Z" fill="#FFCB9D"/>
    <path d="M465.936 296.709C458.342 297.043 446.074 301.752 439.241 304.603C439.512 297.756 439.016 290.9 437.764 284.163C437.695 283.736 437.614 283.309 437.533 282.871L440.153 275.658L441.411 272.195L454.96 273.673L459.692 274.18C459.692 274.18 462.889 278.612 466.063 283.598C466.063 284.752 466.143 285.848 466.167 286.991C466.259 289.98 466.213 293.246 465.936 296.709Z" fill="black" opacity="0.1"/>
    <path d="M423.557 228.039C426.857 227.958 447.447 227.855 463.223 244.451C480.085 262.201 477.707 284.59 477.338 287.591C463.056 291.879 447.809 291.738 433.609 287.187C434.775 280.436 435.548 270.833 423.557 228.039Z" fill="#DADBE0"/>
    <path d="M405.841 225.673C399.047 225.327 392.35 225.05 385.748 224.842C392.12 230.872 400.399 234.485 409.153 235.056C414.488 235.358 419.824 234.496 424.791 232.529C426.788 231.757 428.718 230.823 430.562 229.736L432.224 228.662L405.841 225.673Z" fill="#FFCB9D"/>
    <path d="M405.841 225.673C399.047 225.327 392.35 225.05 385.748 224.842C392.12 230.872 400.399 234.485 409.153 235.056C414.488 235.358 419.824 234.496 424.791 232.529C426.788 231.757 428.718 230.823 430.562 229.736L432.224 228.662L405.841 225.673Z" fill="black" opacity="0.1"/>
</svg>
