<svg xmlns="http://www.w3.org/2000/svg" width="800" height="600" fill="none" viewBox="0 0 800 600">
    <path d="M658.15 321.585C658.15 364.536 612.706 395.759 592.672 430.359C571.995 466.119 567.021 520.799 531.249 541.614C496.511 561.694 447.104 539.317 404.302 539.317C361.5 539.317 311.955 561.74 277.355 541.614C241.594 520.937 236.609 466.268 215.943 430.359C195.863 395.609 150.465 364.536 150.465 321.585C150.465 278.633 195.909 247.411 215.943 212.822C236.62 177.05 241.594 122.37 277.355 101.705C312.104 81.6246 361.35 104.002 404.302 104.002C447.253 104.002 496.649 81.5787 531.249 101.705C567.021 122.382 571.995 177.05 592.672 212.822C612.752 247.56 658.15 278.633 658.15 321.585Z" fill="#066FD1" opacity="0.02"/>
    <path d="M489.79 132.422C489.783 134.594 489.085 136.707 487.796 138.454C486.507 140.202 484.694 141.493 482.622 142.141L473.041 145.139L440.601 155.294C438.174 156.063 436.121 157.711 434.846 159.914C433.571 162.118 433.165 164.719 433.708 167.206L437.637 185.241L441.497 203.07C442.814 209.135 444.131 215.197 445.448 221.254C445.632 222.035 445.793 222.805 445.965 223.552C446.869 227.764 447.784 231.976 448.711 236.188L449.607 240.323C449.941 241.795 449.944 243.322 449.615 244.794C449.287 246.267 448.635 247.648 447.707 248.837C446.779 250.027 445.598 250.995 444.25 251.673C442.902 252.35 441.42 252.719 439.911 252.753L422.003 253.339L407.586 253.798L393.296 254.269C391.74 254.32 390.193 254.013 388.774 253.373C387.355 252.732 386.101 251.775 385.11 250.575C384.118 249.375 383.415 247.964 383.054 246.449C382.692 244.935 382.683 243.358 383.026 241.84C383.37 240.277 383.727 238.727 384.071 237.164L387.035 223.977C387.173 223.368 387.299 222.771 387.437 222.15L391.021 206.206C392.553 199.267 394.111 192.325 395.696 185.379C398.622 172.291 401.563 159.203 404.519 146.115C404.932 144.264 405.855 142.564 407.182 141.208C408.51 139.853 410.189 138.894 412.032 138.442L437.959 132.135L477.154 122.555C478.472 122.23 479.842 122.172 481.183 122.384C482.524 122.597 483.809 123.075 484.963 123.791C486.116 124.507 487.115 125.446 487.901 126.553C488.686 127.661 489.243 128.914 489.537 130.24C489.702 130.956 489.787 131.688 489.79 132.422Z" fill="#232B41"/>
    <path d="M439.911 252.753L422.003 253.339L407.586 253.798L393.296 254.269C391.74 254.32 390.193 254.013 388.774 253.373C387.355 252.732 386.101 251.775 385.11 250.575C384.118 249.375 383.415 247.964 383.054 246.449C382.692 244.935 382.683 243.358 383.026 241.84C383.37 240.277 383.727 238.727 384.071 237.164L387.035 223.977C387.173 223.368 387.299 222.771 387.437 222.15L391.021 206.206C399.248 206.678 407.423 204.63 414.455 200.336C433.226 188.55 433.57 165.069 433.57 163.254C441.232 201.393 444.426 216.946 445.379 221.266C445.379 221.438 445.621 222.334 445.896 223.563C446.8 227.775 447.715 231.987 448.642 236.199L449.538 240.335C449.869 241.8 449.872 243.32 449.546 244.786C449.221 246.252 448.575 247.628 447.655 248.815C446.734 250.002 445.563 250.971 444.224 251.651C442.885 252.332 441.413 252.708 439.911 252.753Z" fill="black" opacity="0.1"/>
    <path d="M679.539 458.032C679.539 461.168 554.327 463.638 399.764 463.638C245.201 463.638 120 461.168 120 458.032C120 454.896 245.213 452.415 399.764 452.415C554.315 452.415 679.539 454.999 679.539 458.032Z" fill="#D6D8E2" opacity="0.5"/>
    <path d="M305.614 50H303.029V150.147H305.614V50Z" fill="#232B41"/>
    <path d="M339.73 127.666C338.852 127.666 338.011 128.015 337.39 128.635C336.77 129.256 336.421 130.097 336.421 130.974V153.157C336.421 158.027 333.929 161.428 331.689 161.428H322.441V154.34C322.441 154.041 322.441 153.754 322.441 153.455H322.648C327.507 153.455 331.321 148.608 331.321 142.416V127.609C331.321 126.731 330.972 125.89 330.352 125.269C329.732 124.649 328.89 124.3 328.013 124.3C327.135 124.3 326.294 124.649 325.673 125.269C325.053 125.89 324.704 126.731 324.704 127.609V142.473C324.704 145.173 323.349 146.896 322.648 146.896H320.764C319.342 143.925 317.111 141.416 314.327 139.656C311.544 137.897 308.32 136.958 305.026 136.948C301.734 136.957 298.512 137.896 295.73 139.656C292.948 141.416 290.719 143.925 289.3 146.896H286.107C285.394 146.896 284.039 145.173 284.039 142.473V127.609C284.039 126.731 283.69 125.89 283.07 125.269C282.45 124.649 281.608 124.3 280.731 124.3C279.853 124.3 279.012 124.649 278.391 125.269C277.771 125.89 277.422 126.731 277.422 127.609V142.473C277.422 148.665 281.236 153.513 286.107 153.513H287.612C287.612 153.811 287.612 154.099 287.612 154.397V161.485H277.055C274.815 161.485 272.322 158.039 272.322 153.214V130.986C272.322 130.109 271.973 129.267 271.353 128.647C270.732 128.026 269.891 127.678 269.013 127.678C268.136 127.678 267.295 128.026 266.674 128.647C266.054 129.267 265.705 130.109 265.705 130.986V153.157C265.705 161.496 270.691 168.09 277.055 168.09H287.612V170.526C287.612 172.263 287.875 173.99 288.393 175.649H286.015C281.121 175.649 277.284 180.52 277.284 186.746V201.679C277.334 202.525 277.705 203.319 278.321 203.9C278.937 204.481 279.752 204.804 280.598 204.804C281.445 204.804 282.26 204.481 282.876 203.9C283.492 203.319 283.863 202.525 283.913 201.679V186.746C283.913 184.012 285.291 182.266 286.015 182.266H292.206C293.831 184.068 295.815 185.51 298.031 186.5C300.247 187.489 302.646 188.003 305.072 188.009C307.501 188.002 309.9 187.487 312.118 186.498C314.335 185.509 316.322 184.067 317.95 182.266H322.832C323.544 182.266 324.934 184.012 324.934 186.746V201.679C324.934 202.557 325.283 203.398 325.903 204.019C326.524 204.639 327.365 204.988 328.242 204.988C329.12 204.988 329.961 204.639 330.582 204.019C331.202 203.398 331.551 202.557 331.551 201.679V186.746C331.551 180.52 327.714 175.649 322.832 175.649H321.764C322.272 173.989 322.531 172.262 322.533 170.526V168.09H331.781C338.145 168.09 343.13 161.542 343.13 153.157V130.986C343.132 130.543 343.044 130.104 342.873 129.695C342.702 129.286 342.45 128.916 342.133 128.606C341.816 128.296 341.44 128.054 341.027 127.892C340.614 127.731 340.173 127.654 339.73 127.666Z" fill="#066FD1"/>
    <path d="M407.173 237.428V454.804C405.09 455.42 402.978 455.93 400.843 456.332C395.766 457.311 390.626 457.929 385.462 458.181C365.663 459.13 345.936 455.184 328.025 446.694C325.566 445.545 323.085 444.281 320.604 442.903C275.16 417.723 239.503 340.332 284.556 267.743C300.639 241.862 320.834 230.57 340.178 226.756C357.214 223.425 373.561 225.872 385.864 229.249C386.622 229.456 387.369 229.663 388.081 229.881C392.308 231.121 395.961 232.454 398.925 233.637C401.739 234.755 404.492 236.021 407.173 237.428Z" fill="#066FD1"/>
    <path d="M509.01 442.949C508.688 443.121 508.378 443.305 508.056 443.466C489.716 453.513 469.082 458.627 448.172 458.308C442.618 458.234 437.077 457.743 431.596 456.837C428.49 456.369 425.42 455.689 422.406 454.804V237.428C425.783 235.678 429.267 234.144 432.837 232.833C436.019 231.685 439.821 230.352 444.106 229.18C445.094 228.905 446.105 228.652 447.139 228.399C460.349 225.16 477.465 223.368 494.88 228.078C512.513 232.856 530.491 244.321 545.034 267.778C590.088 340.378 554.454 417.769 509.01 442.949Z" fill="#066FD1"/>
    <path d="M488.653 344.652C488.653 399.918 464.173 446.062 431.595 456.849C426.879 458.438 421.936 459.249 416.96 459.25C411.47 459.234 406.026 458.25 400.878 456.344C374.951 446.821 354.377 414.805 347.657 373.83C347.347 372.003 347.059 370.142 346.83 368.258C345.787 360.433 345.261 352.547 345.256 344.652C345.256 339.172 345.486 333.785 345.968 328.569C346.571 321.503 347.618 314.482 349.104 307.547C354.905 280.495 366.841 258.014 382.28 244.367C387.191 239.925 392.809 236.333 398.902 233.741C409.697 229.164 421.828 228.864 432.836 232.902C439.338 235.327 445.35 238.903 450.584 243.459C466.517 257.003 478.866 279.886 484.782 307.547C486.271 314.482 487.323 321.503 487.929 328.569C488.412 333.773 488.653 339.161 488.653 344.652Z" fill="#066FD1"/>
    <path d="M340.167 226.802C320.822 230.616 300.616 241.908 284.545 267.789C239.491 340.378 275.148 417.769 320.592 442.949C323.073 444.327 325.555 445.58 328.013 446.74C309.737 419.48 298.663 383.709 298.663 344.651C298.663 297.461 314.768 255.211 340.167 226.802ZM545.044 267.789C530.478 244.332 512.523 232.868 494.89 228.089C519.634 256.474 535.257 298.162 535.257 344.64C535.257 382.192 525.056 416.643 508.055 443.431C508.376 443.271 508.687 443.087 509.008 442.915C554.452 417.769 590.086 340.378 545.044 267.789Z" fill="black" opacity="0.3"/>
    <path d="M494.89 228.089C477.475 223.379 460.359 225.171 447.149 228.411C446.115 228.663 445.104 228.916 444.116 229.192C445.318 229.674 446.513 230.191 447.7 230.743C483.529 247.307 509.203 292.039 509.203 344.64C509.203 396.988 483.759 441.571 448.171 458.308C469.082 458.62 489.717 453.498 508.055 443.443C525.056 416.62 535.257 382.169 535.257 344.652C535.257 298.162 519.634 256.474 494.89 228.089ZM385.461 231.122C386.323 230.697 387.207 230.295 388.092 229.973C387.38 229.755 386.633 229.548 385.875 229.341C373.572 225.964 357.225 223.517 340.189 226.848C314.791 255.257 298.686 297.507 298.686 344.686C298.686 383.743 309.759 419.526 328.036 446.786C345.947 455.276 365.674 459.222 385.473 458.273C350.034 441.433 324.716 396.954 324.716 344.732C324.716 292.51 350.011 247.974 385.461 231.122Z" fill="black" opacity="0.2"/>
    <path d="M397.982 322.412L372.319 279.667L343.865 319.241L397.982 322.412Z" fill="#DADBE0"/>
    <path d="M432.377 322.412L458.04 279.667L486.506 319.241L432.377 322.412Z" fill="#DADBE0"/>
    <path d="M428.207 367.741V379.332H399.798V367.741H350.506C350.506 389.177 379.466 406.557 415.18 406.557C450.894 406.557 479.865 389.177 479.865 367.741H428.207Z" fill="#DADBE0"/>
    <path d="M301.167 456.435L268.29 310.35C268.275 310.284 268.248 310.222 268.21 310.166C268.189 310.093 268.158 310.024 268.118 309.96V309.891L267.991 309.764C267.939 309.708 267.882 309.658 267.819 309.615C267.797 309.59 267.77 309.57 267.739 309.557H267.589L267.44 309.477H266.877C266.814 309.495 266.753 309.518 266.693 309.546L266.487 309.649H266.418C266.373 309.689 266.33 309.731 266.291 309.776C266.236 309.828 266.186 309.886 266.142 309.948L266.084 310.017L185.098 455.815C185.015 455.963 184.961 456.125 184.941 456.294C184.921 456.462 184.934 456.633 184.98 456.796C185.026 456.96 185.103 457.113 185.208 457.246C185.314 457.379 185.444 457.49 185.592 457.572C185.787 457.675 186.004 457.731 186.224 457.733C186.458 457.736 186.688 457.675 186.89 457.558C187.092 457.441 187.259 457.271 187.373 457.067L214.299 408.188C215.356 411.152 217.746 415.827 222.501 417.734C226.924 419.492 232.277 418.435 238.469 414.621L226.981 458.71C226.898 459.042 226.948 459.393 227.123 459.688C227.297 459.983 227.581 460.197 227.912 460.284C228.018 460.3 228.127 460.3 228.234 460.284C228.519 460.283 228.797 460.188 229.023 460.014C229.25 459.839 229.412 459.595 229.486 459.319L241.364 413.92C244.948 416.218 253.85 421.169 264.775 421.169C272.15 421.169 280.421 418.871 288.565 412.094L298.663 456.952C298.728 457.239 298.888 457.495 299.118 457.679C299.347 457.862 299.632 457.963 299.926 457.963H300.214C300.541 457.884 300.824 457.679 301.002 457.394C301.18 457.108 301.24 456.764 301.167 456.435ZM248.991 374.519C244.155 377.574 240.284 378.574 237.791 377.356C234.931 375.978 234.517 372.003 234.506 371.934L263.224 320.298L248.991 374.519ZM266.935 316.14L279.777 373.37C278.998 374.783 277.943 376.025 276.674 377.021C275.405 378.018 273.948 378.749 272.391 379.171C264.557 381.296 254.574 376.426 251.541 374.794L266.935 316.14ZM223.489 415.333C217.746 413.036 216.137 405.201 216.114 405.121C216.119 405.087 216.119 405.052 216.114 405.018L232.725 375.15C233.423 377.104 234.835 378.721 236.677 379.676C239.595 381.112 243.431 380.561 248.095 378.068L239.503 410.899C233.001 415.46 227.625 417.022 223.489 415.333ZM242.03 411.336L250.921 377.356C254 378.987 261.122 382.284 268.152 382.284C269.815 382.297 271.472 382.088 273.08 381.664C276.034 380.891 278.66 379.187 280.57 376.805L287.876 409.257C267.44 427.453 246.384 414.414 242.03 411.336Z" fill="#232B41"/>
    <path d="M552.546 279.059L474.627 135.363L474.558 135.248L474.42 135.122C474.38 135.074 474.334 135.031 474.282 134.995C474.257 134.966 474.226 134.943 474.19 134.926L474.018 134.846H473.846H473.719H473.651C473.651 134.846 473.57 134.846 473.536 134.846H473.26C473.193 134.862 473.127 134.885 473.065 134.915H472.961H472.869L472.709 135.064L472.594 135.202L472.536 135.282C472.505 135.342 472.478 135.403 472.456 135.466C472.426 135.525 472.403 135.586 472.387 135.65C472.387 135.65 472.387 135.73 472.387 135.765C472.388 135.784 472.388 135.803 472.387 135.822L460.417 260.277C460.4 260.445 460.415 260.615 460.464 260.777C460.512 260.939 460.592 261.09 460.698 261.221C460.805 261.353 460.937 261.462 461.086 261.542C461.234 261.622 461.398 261.673 461.566 261.69H461.692C462.009 261.687 462.315 261.568 462.551 261.357C462.788 261.146 462.94 260.856 462.979 260.541L465.207 236.946C466.233 234.244 467.965 231.866 470.221 230.06C472.478 228.254 475.177 227.085 478.039 226.676C486.149 225.527 491.525 231.11 492.582 232.305L510.066 314.738C510.128 315.03 510.289 315.292 510.521 315.48C510.753 315.668 511.042 315.771 511.341 315.772H511.605C511.771 315.738 511.929 315.671 512.069 315.576C512.21 315.481 512.33 315.358 512.422 315.216C512.515 315.074 512.579 314.915 512.61 314.749C512.642 314.582 512.64 314.411 512.604 314.245L504.644 276.704C506.677 263.229 514.89 252.81 524.678 251.328C528.371 250.855 532.123 251.465 535.476 253.086L550.271 280.322C550.383 280.529 550.549 280.702 550.751 280.822C550.954 280.941 551.185 281.003 551.42 281C551.638 281.003 551.852 280.947 552.04 280.839C552.194 280.759 552.329 280.648 552.439 280.514C552.548 280.379 552.629 280.224 552.676 280.058C552.723 279.891 552.736 279.716 552.714 279.545C552.691 279.373 552.634 279.208 552.546 279.059ZM486.941 193.19C487.355 188.745 490.169 185.092 493.708 184.471C495.531 184.212 497.388 184.62 498.934 185.62L515.442 216.05C514.427 215.608 513.356 215.311 512.26 215.166C505.62 214.304 498.475 219.347 494.224 227.492L486.941 193.19ZM497.004 182.059C495.775 181.755 494.496 181.708 493.248 181.921C491.632 182.26 490.118 182.971 488.826 183.998C487.533 185.025 486.499 186.34 485.804 187.837L480.681 163.714C481.025 163.004 481.567 162.41 482.242 162.002C482.916 161.594 483.695 161.391 484.483 161.416C485.171 161.531 485.801 161.87 486.275 162.381L497.004 182.059ZM479.992 160.417L476.545 144.449L484.288 158.728C482.691 158.713 481.15 159.318 479.992 160.417ZM473.972 144.53L477.418 160.911C475.92 160.403 474.289 160.452 472.823 161.049L472.307 161.301L473.972 144.53ZM472.019 165.207C472.423 164.414 473.089 163.785 473.903 163.427C474.612 163.162 475.379 163.092 476.124 163.224C476.869 163.355 477.566 163.683 478.142 164.173L483.691 190.296C482.273 189.538 480.702 189.114 479.096 189.055C477.186 189.062 475.303 189.51 473.595 190.365C471.888 191.22 470.401 192.458 469.251 193.983L472.019 165.207ZM477.694 224.08C473.023 224.732 468.773 227.134 465.805 230.8L468.676 200.473C470.4 195.097 474.627 191.467 479.015 191.64C481.026 191.774 482.932 192.584 484.426 193.937L491.64 227.963C489.689 226.423 487.451 225.287 485.057 224.622C482.662 223.958 480.159 223.777 477.694 224.091V224.08ZM524.298 248.697C514.718 250.145 506.769 258.634 503.345 270.524L495.132 231.811C498.578 222.839 505.585 216.946 511.938 217.75C514.259 218.137 516.401 219.242 518.061 220.909L533.649 249.536C530.636 248.55 527.438 248.267 524.298 248.709V248.697Z" fill="#A6A9B3"/>
    <path d="M468.814 389.452C457.178 399.791 437.5 406.546 415.18 406.546C379.465 406.546 350.494 389.177 350.494 367.73H378.948C385.505 371.592 392.506 374.643 399.798 376.816C402.478 377.682 405.396 378.532 408.551 379.366C422.899 383.146 442.37 386.73 468.814 389.452Z" fill="black" opacity="0.1"/>
    <path d="M397.982 322.401L343.865 319.241L362.188 293.762C366.346 302.987 376.064 313.957 397.982 322.401Z" fill="black" opacity="0.1"/>
    <path d="M486.55 319.241L432.422 322.401L444.736 301.896C455.443 310.189 469.48 317.484 486.55 319.241Z" fill="black" opacity="0.1"/>
</svg>
