<svg xmlns="http://www.w3.org/2000/svg" width="800" height="600" fill="none" viewBox="0 0 800 600">
    <path d="M107.068 300C107.068 347.067 156.846 381.197 178.778 419.147C201.449 458.328 206.871 518.21 246.052 540.881C284.002 562.813 338.092 538.293 385.16 538.293C432.227 538.293 486.317 562.813 524.267 540.881C563.448 518.21 568.87 458.328 591.541 419.147C613.473 381.197 663.251 347.067 663.251 300C663.251 252.933 613.473 218.926 591.541 180.853C568.87 141.672 563.448 81.7902 524.267 59.1191C486.317 37.1872 432.227 61.7066 385.16 61.7066C338.092 61.7066 284.125 37.1872 246.052 59.1191C206.871 81.7902 201.449 141.672 178.778 180.853C156.846 218.926 107.068 253.056 107.068 300Z" fill="#066FD1" opacity="0.02"/>
    <path d="M104.234 492.951C104.234 496.771 224.367 499.974 372.715 499.974C521.063 499.974 641.195 496.771 641.195 492.951C641.195 489.132 521.063 486.051 372.715 486.051C224.367 486.051 104.234 489.255 104.234 492.951Z" fill="#D6D8E2" opacity="0.5"/>
    <path d="M469.438 322.425C469.068 323.534 468.575 324.643 467.959 325.505C465.372 329.448 460.566 332.405 456.254 331.419C449.724 329.941 447.876 320.453 447.383 317.866C447.259 316.757 447.013 315.525 447.013 314.416C446.643 308.995 448.122 299.261 452.927 297.536C458.102 295.564 466.85 305.175 469.315 314.17C470.177 316.88 470.177 319.837 469.438 322.425Z" fill="#FFCB9D"/>
    <path d="M469.438 322.425C469.068 323.534 468.575 324.643 467.959 325.505C461.182 323.164 456.747 317.989 447.999 314.786L447.013 314.416C446.643 308.995 448.122 299.261 452.927 297.536C458.102 295.564 466.85 305.175 469.315 314.17C470.177 316.88 470.177 319.837 469.438 322.425Z" fill="black" opacity="0.1"/>
    <path d="M258.004 255.767C256.402 255.274 254.8 255.027 253.198 255.027C247.407 254.904 242.725 257.615 241.616 262.42C240.384 268.334 245.436 274.988 253.075 277.206C253.938 277.452 254.677 277.699 255.54 277.822C262.193 278.808 268.107 275.974 269.216 270.675C270.818 264.761 265.643 258.108 258.004 255.767Z" fill="#FFCB9D"/>
    <path d="M258.005 255.767C256.404 255.274 254.802 255.027 253.2 255.027C253.077 255.643 253.077 256.259 253.077 256.876C252.461 264.761 255.171 268.211 255.787 276.713C255.787 277.082 255.787 277.452 255.787 277.822C262.441 278.807 268.355 275.85 269.464 270.675C270.819 264.761 265.644 258.108 258.005 255.767Z" fill="black" opacity="0.1"/>
    <path d="M496.052 323.164C489.398 323.534 482.745 322.671 476.461 320.453C467.713 317.496 463.77 313.677 455.392 312.198C450.463 311.459 445.288 311.582 440.483 312.691C443.563 294.455 444.302 275.85 442.701 257.492L442.454 256.013C441.961 252.07 441.345 248.251 440.483 244.431C439.99 242.336 439.497 240.365 438.881 238.394C438.881 238.27 438.881 238.147 438.881 238.024C437.156 232.603 434.445 227.551 430.872 223.115C428.038 219.542 424.712 216.339 421.138 213.628C420.03 212.765 418.921 211.903 417.689 211.287C413.13 208.33 408.201 205.989 403.149 204.14C401.301 203.401 399.576 202.908 398.344 202.539L395.387 201.799C395.88 204.51 396.249 207.221 396.866 209.808V210.178C402.657 242.952 405.49 255.643 409.803 279.916C410.296 282.997 410.789 285.707 411.035 287.679C395.633 289.65 380.355 291.622 364.953 293.593L321.583 299.014C320.967 291.621 320.843 284.106 321.336 276.713C313.574 281.025 305.565 284.845 297.433 288.172C284.372 293.716 273.406 297.659 265.767 300.123C264.412 283.736 263.057 267.225 261.701 250.838C269.956 254.042 278.828 255.027 287.576 253.795C294.845 252.686 300.02 251.947 304.21 248.004C316.9 236.299 313.327 203.648 318.379 200.198C320.227 198.966 322.199 197.857 322.199 197.857C322.815 197.487 323.554 197.117 324.416 196.748C325.279 196.378 325.772 196.008 326.388 195.762C327.62 195.146 328.852 194.653 330.084 194.037C337.723 190.957 345.486 188.492 353.495 186.644C361.873 184.796 370.252 183.564 378.753 182.948C382.203 182.701 385.9 182.578 389.473 182.455C389.596 182.455 389.719 182.455 389.966 182.332C395.141 182.332 400.439 182.825 405.49 183.81C412.267 185.166 418.921 187.507 425.204 190.464C428.778 192.312 432.228 194.283 435.554 196.501C437.403 197.733 439.497 199.212 441.715 200.937C449.847 207.098 457.117 214.367 463.524 222.376C464.14 223.238 464.879 224.101 465.495 224.963L466.358 226.196C469.191 230.138 471.902 234.204 474.243 238.517C475.106 240.119 475.968 241.72 476.831 243.199C478.063 245.663 479.295 248.251 480.404 250.838C481.143 252.563 481.882 254.288 482.622 256.136C484.1 259.709 485.332 263.283 486.564 266.733C492.602 285.091 495.682 304.066 496.052 323.164Z" fill="#DADBE0"/>
    <path d="M469.807 231.001C459.95 237.038 447.26 237.778 438.511 237.531C436.786 232.356 434.076 227.428 430.626 223.115C427.792 219.542 424.588 216.339 420.892 213.628C419.783 212.765 418.551 212.026 417.442 211.287C414.115 209.192 410.542 207.221 406.846 205.742L405.367 203.524L430.133 193.175C431.981 194.283 433.829 195.392 435.678 196.625C437.526 197.857 439.62 199.335 441.838 201.06C449.97 207.221 457.363 214.49 463.647 222.499C464.386 223.362 465.002 224.224 465.618 225.087L466.481 226.319C467.713 227.797 468.822 229.399 469.807 231.001Z" fill="black" opacity="0.1"/>
    <path d="M382.08 181.593C383.682 191.203 373.578 200.691 359.655 203.032C345.732 205.373 333.164 199.458 331.563 189.848C331.439 189.355 331.439 188.739 331.439 188.246C338.955 185.166 346.841 182.578 354.85 180.853C363.228 179.005 371.73 177.773 380.232 177.157C381.217 178.512 381.833 179.991 382.08 181.593Z" fill="#FFCB9D"/>
    <path d="M382.08 181.593C383.682 191.203 373.578 200.691 359.655 203.032C345.732 205.373 333.164 199.458 331.563 189.848C331.439 189.355 331.439 188.739 331.439 188.246C338.955 185.166 346.841 182.578 354.85 180.853C363.228 179.005 371.73 177.773 380.232 177.157C381.217 178.512 381.833 179.991 382.08 181.593Z" fill="black" opacity="0.1"/>
    <path d="M366.186 482.971C365.816 482.478 365.077 482.355 364.461 482.725C362.366 484.203 360.148 485.558 357.93 486.667L353.988 479.767L357.314 479.151C356.329 477.057 355.589 474.962 354.973 472.744C354.111 469.664 353.618 466.46 353.495 463.38L338.093 464.735C338.463 466.214 338.34 467.816 337.6 469.171C336.615 470.896 335.013 470.773 332.056 472.744C330.454 473.607 328.975 474.962 327.867 476.441C327.374 477.303 325.772 480.014 327.127 484.819L330.824 484.203L329.345 491.349C327.497 490.98 325.525 490.61 323.8 489.994C323.061 489.994 322.568 490.487 322.568 491.226C322.568 491.596 322.815 492.089 323.184 492.335C325.402 493.074 327.743 493.567 330.084 493.937C330.208 493.937 330.208 493.937 330.331 493.937C332.179 494.183 334.15 494.43 335.999 494.43H336.861C347.211 494.307 357.438 490.98 365.816 484.942C366.309 484.203 366.432 483.464 366.186 482.971ZM336.122 491.842C334.643 491.842 333.165 491.719 331.809 491.473L333.411 483.587L351.647 480.137L355.959 487.53C349.675 490.487 342.898 491.842 336.122 491.842Z" fill="#232B41"/>
    <path d="M498.27 387.358C497.9 386.742 497.161 386.619 496.545 386.988C496.175 387.235 495.929 387.604 495.929 388.097C496.668 390.562 497.284 393.026 497.654 395.49L489.891 397.092L490.384 393.765C488.166 394.012 485.825 394.012 483.607 393.888C480.404 393.765 477.323 393.149 474.243 392.287L470.67 407.319C472.148 407.442 473.627 408.058 474.736 409.167C475.968 410.645 475.475 412.124 476.338 415.574C476.707 417.422 477.447 419.147 478.556 420.749C479.172 421.488 481.266 423.829 486.318 424.075C486.441 422.843 486.688 421.611 486.811 420.379L493.095 423.952C492.232 425.677 491.246 427.279 490.138 428.881C489.768 429.374 489.891 430.113 490.384 430.483C490.63 430.606 490.877 430.729 491.123 430.729C491.493 430.729 491.863 430.483 492.109 430.236C493.464 428.265 494.696 426.293 495.682 424.075V423.952C496.545 422.227 497.284 420.379 498.023 418.531C501.473 408.551 501.596 397.585 498.27 387.358ZM487.18 418.038C488.043 411.877 488.782 405.84 489.645 399.679L498.023 397.954C498.762 404.731 498.023 411.508 495.805 417.915C495.312 419.27 494.82 420.626 494.08 421.981L487.18 418.038Z" fill="#232B41"/>
    <path d="M321.459 298.891C327.496 350.641 333.411 402.267 339.448 453.893H350.168L368.157 343.741L394.031 382.183L464.139 402.144C465.125 399.802 465.988 397.585 466.973 395.244C450.093 381.813 433.09 368.506 416.086 355.199C414.361 332.652 412.636 310.104 410.911 287.556L321.459 298.891Z" fill="#066FD1"/>
    <path d="M375.056 179.128C376.417 179.128 377.52 178.025 377.52 176.664C377.52 175.303 376.417 174.2 375.056 174.2C373.695 174.2 372.592 175.303 372.592 176.664C372.592 178.025 373.695 179.128 375.056 179.128Z" fill="#DADBE0"/>
    <path d="M584.025 259.094H710.565C712.043 259.094 713.152 260.326 713.152 261.681C713.152 263.159 711.92 264.268 710.565 264.268H584.025C582.547 264.268 581.438 263.159 581.314 261.681C581.438 260.202 582.547 259.094 584.025 259.094Z" fill="#066FD1"/>
    <path d="M546.076 280.779H672.615C674.094 280.779 675.203 282.011 675.203 283.366C675.203 284.845 673.971 285.954 672.615 285.954H546.076C544.597 285.954 543.488 284.722 543.488 283.366C543.488 281.888 544.72 280.656 546.076 280.779Z" fill="#066FD1"/>
    <path d="M126.414 158.921H252.953C254.432 158.921 255.541 160.154 255.541 161.509C255.541 162.987 254.308 164.096 252.953 164.096H126.414C124.935 164.096 123.826 162.864 123.826 161.509C123.826 160.154 124.935 158.921 126.414 158.921Z" fill="#066FD1"/>
    <path d="M88.5875 180.607H215.004C216.482 180.607 217.591 181.839 217.591 183.194C217.591 184.673 216.359 185.782 215.004 185.782H88.5875C87.1089 185.782 86 184.673 86 183.194C86 181.839 87.1089 180.607 88.5875 180.607Z" fill="#066FD1"/>
    <path d="M331.563 197.364L323.554 259.586L321.336 276.59C313.574 280.902 305.565 284.722 297.433 288.048C284.372 293.593 273.406 297.536 265.767 300C264.412 283.613 263.057 267.102 261.701 250.715C269.956 253.919 278.828 254.904 287.576 253.672C294.845 252.563 300.02 251.824 304.21 247.881C316.9 236.176 313.327 203.525 318.379 200.075C320.227 198.842 322.199 197.734 322.199 197.734C322.815 197.364 323.554 196.994 324.416 196.625C325.279 196.255 325.772 195.885 326.388 195.639L331.563 197.364Z" fill="black" opacity="0.1"/>
    <path d="M419.29 225.826C418.797 225.703 418.304 225.58 417.812 225.58C409.926 226.196 402.04 224.594 394.894 221.144C381.957 214.737 375.55 203.278 373.209 197.61C376.782 195.516 380.108 193.175 383.189 190.218C384.791 188.616 385.53 186.275 384.79 184.18L383.435 179.498L382.449 176.295L380.971 171.243C380.848 170.627 380.601 170.134 380.232 169.641C378.383 166.807 374.687 166.068 371.976 167.916C365.076 172.475 352.386 178.02 333.164 176.911C330.207 176.787 327.497 178.882 327.004 181.839L326.264 185.905L325.772 188.739L324.786 194.284C324.293 197.118 325.895 199.951 328.605 200.937C330.823 201.8 333.041 202.416 335.382 203.032L325.895 229.03C325.279 230.878 326.141 232.849 327.989 233.465L345.486 239.749C347.334 240.365 349.305 239.503 349.921 237.655C350.168 237.162 350.168 236.546 350.168 236.053C349.305 227.674 348.073 212.026 350.291 204.264C353.618 204.141 356.821 203.648 360.025 202.909C370.251 224.224 388.857 240.365 411.528 247.512C413.253 248.128 415.224 247.142 415.84 245.417L421.385 230.385C422.124 228.414 421.138 226.442 419.29 225.826Z" fill="#066FD1"/>
    <path d="M382.573 176.294L377.151 185.289C376.782 185.905 376.042 186.275 375.303 185.905L360.641 179.498C358.916 178.759 356.944 179.252 355.835 180.853L348.196 192.189C347.95 192.559 347.457 192.805 346.964 192.805C346.471 192.805 345.978 192.559 345.732 192.189L339.818 183.687C338.832 182.209 336.984 181.593 335.259 182.209L326.264 185.659L325.771 188.492L336.121 184.55C336.737 184.303 337.477 184.55 337.846 185.043L343.761 193.544C344.5 194.653 345.732 195.269 346.964 195.269C348.196 195.269 349.428 194.653 350.168 193.544L357.807 182.209C358.176 181.593 359.039 181.469 359.655 181.716L374.317 188.123C376.165 188.862 378.26 188.246 379.246 186.521L383.558 179.375L382.573 176.294Z" fill="#DADBE0"/>
    <path d="M334.397 189.355C333.288 189.355 332.426 190.217 332.426 191.326C332.426 192.435 333.288 193.298 334.397 193.298C335.506 193.298 336.369 192.435 336.369 191.326C336.369 190.217 335.506 189.355 334.397 189.355Z" fill="#DADBE0"/>
    <path d="M346.718 185.535C347.943 185.535 348.936 184.542 348.936 183.317C348.936 182.093 347.943 181.1 346.718 181.1C345.493 181.1 344.5 182.093 344.5 183.317C344.5 184.542 345.493 185.535 346.718 185.535Z" fill="#DADBE0"/>
    <path d="M361.134 193.914C363.039 193.914 364.584 192.369 364.584 190.464C364.584 188.558 363.039 187.014 361.134 187.014C359.228 187.014 357.684 188.558 357.684 190.464C357.684 192.369 359.228 193.914 361.134 193.914Z" fill="#DADBE0"/>
    <path d="M341.419 168.656C354.109 168.163 367.54 162.372 372.591 157.69C373.454 156.95 374.193 155.965 374.686 154.979C375.179 153.624 375.425 152.268 375.795 150.79C376.288 148.818 376.657 146.724 376.904 144.752C377.643 139.454 378.013 134.033 377.766 128.735C377.766 128.365 377.643 127.01 377.643 125.531C377.15 118.754 376.657 113.333 376.288 109.637C376.041 110.253 374.932 112.963 373.454 112.963C371.975 112.963 370.127 109.76 369.758 104.955L341.419 109.144L331.192 121.095C331.192 121.095 331.069 122.82 330.699 125.408C330.206 129.967 329.344 134.402 328.112 138.838C327.372 142.165 326.017 145.368 324.169 148.202C318.624 155.472 326.263 169.272 341.419 168.656Z" fill="#FFCB9D"/>
    <path d="M328.236 138.838C339.572 141.056 351.277 139.454 361.627 134.156C364.461 134.156 367.172 134.895 369.636 136.25C373.209 138.468 373.579 140.932 376.659 144.259L376.905 144.629C377.645 139.331 378.014 133.909 377.768 128.611C377.768 128.241 377.645 126.886 377.645 125.408C377.152 118.631 376.659 113.21 376.289 109.513C376.043 110.129 374.934 112.84 373.455 112.84C371.977 112.84 370.129 109.636 369.759 104.831L341.42 109.144L331.193 121.095C331.193 121.095 331.07 122.82 330.701 125.408C330.085 129.843 329.345 134.402 328.236 138.838Z" fill="black" opacity="0.1"/>
    <path d="M516.997 195.393C510.959 200.691 504.306 205.373 497.159 209.192C485.824 215.353 473.503 219.296 460.688 220.651C460.688 220.651 424.464 227.674 395.632 210.548C392.305 208.7 389.225 206.359 386.391 203.771C374.932 193.175 364.706 173.338 369.018 157.813C370.866 151.283 372.098 144.629 372.715 137.852C372.961 134.895 372.591 131.938 371.852 129.104C371.606 128.488 371.359 127.872 371.236 127.256C370.497 125.038 366.677 122.944 364.829 119.617C360.886 122.697 348.442 131.692 336.244 131.692C333.04 131.692 329.96 131.076 327.003 129.72C323.676 128.119 320.842 125.777 318.624 122.82C318.131 122.081 317.638 121.342 317.392 120.479C317.146 119.74 316.899 118.878 316.899 118.015C316.653 110.746 326.387 105.571 330.453 103.353C346.101 94.9743 363.35 100.396 367.909 101.751C369.881 102.367 399.945 112.347 404.38 134.772C406.721 146.847 399.452 153.254 402.778 157.69C406.598 162.741 421.753 162.865 475.227 137.236C477.938 153.747 484.222 162.372 489.767 167.423C494.079 171.243 498.884 173.707 504.799 179.621C506.031 180.73 507.263 182.086 508.495 183.441C511.698 187.137 514.532 191.08 516.997 195.393Z" fill="#232B41"/>
    <path d="M516.998 195.393C510.714 200.444 504.184 205.126 497.161 209.192C485.825 215.353 473.504 219.296 460.69 220.651C460.69 220.651 424.465 227.674 395.634 210.548C392.307 208.7 389.226 206.359 386.393 203.771C374.934 193.175 364.707 173.338 369.02 157.813C370.868 151.282 372.1 144.629 372.716 137.852C375.55 157.936 386.023 176.171 401.794 188.739C419.414 201.06 440.976 206.605 462.292 204.141C472.025 203.278 481.39 199.952 489.522 194.53C495.436 190.464 500.611 185.166 504.554 179.129C505.786 180.237 507.018 181.593 508.25 182.948C511.7 186.891 514.534 191.08 516.998 195.393Z" fill="black" opacity="0.5"/>
    <path d="M368.157 343.864L348.935 295.441L321.459 298.891L339.448 454.016H350.168L368.157 343.864Z" fill="black" opacity="0.1"/>
    <path d="M369.758 114.196C368.156 116.167 366.431 118.015 364.583 119.74C360.394 122.944 348.196 131.569 336.121 131.569C333.041 131.322 329.96 130.706 327.003 129.597H326.88C326.51 129.351 326.018 129.228 325.648 128.981C324.909 128.611 324.046 128.119 323.307 127.503C322.568 127.01 321.828 126.394 321.212 125.778C320.843 125.531 320.596 125.161 320.227 124.792C319.611 124.176 318.995 123.437 318.502 122.697C318.378 122.574 318.255 122.328 318.132 122.204C318.009 121.958 317.886 121.835 317.762 121.588C317.639 121.342 317.516 121.219 317.516 120.972C317.393 120.726 317.393 120.603 317.27 120.356C335.012 125.408 353.864 123.19 369.758 114.196Z" fill="black" opacity="0.5"/>
</svg>
