<svg xmlns="http://www.w3.org/2000/svg" width="800" height="600" fill="none" viewBox="0 0 800 600">
    <path d="M114.973 300C114.973 347.018 164.627 381.182 186.598 419.082C209.228 458.3 214.721 518.061 253.829 540.801C291.838 562.772 345.887 538.274 392.795 538.274C439.703 538.274 493.861 562.882 531.761 540.801C570.869 518.171 576.362 458.3 598.992 419.082C620.963 381.073 670.617 347.018 670.617 300C670.617 252.982 620.853 218.927 598.992 180.918C576.362 141.7 570.869 81.8289 531.761 59.1989C493.751 37.228 439.703 61.7255 392.795 61.7255C345.887 61.7255 291.729 37.1181 253.829 59.1989C214.611 81.8289 209.228 141.7 186.598 180.918C164.627 218.927 114.973 252.982 114.973 300Z" fill="#066FD1" opacity="0.02"/>
    <path d="M232.297 331.309C232.846 332.187 233.506 332.956 234.275 333.615C234.714 333.945 235.153 334.384 235.593 334.714C239.987 337.68 245.37 337.351 247.677 333.945C249.764 330.869 248.556 326.475 245.26 323.509C244.821 323.179 244.491 322.85 244.052 322.52L242.733 321.751C238.669 319.774 234.055 320.323 231.968 323.399C230.1 325.376 230.54 328.562 232.297 331.309Z" fill="#FFCB9D"/>
    <path d="M232.297 331.309C232.846 332.187 233.506 332.956 234.275 333.615C237.68 329.88 241.305 326.475 245.26 323.399C244.821 323.069 244.491 322.74 244.052 322.41L242.733 321.641C238.669 319.664 234.055 320.213 231.968 323.289C230.1 325.376 230.54 328.562 232.297 331.309Z" fill="black" opacity="0.1"/>
    <path d="M216.807 286.708C206.81 269.68 204.942 253.092 196.044 251.884C195.385 251.774 194.726 251.774 194.067 251.884L130.461 251.774C131.779 265.286 133.207 278.798 134.526 292.31L136.173 308.898C137.052 318.675 138.041 328.343 139.03 338.12H188.684C189.563 328.343 190.332 318.675 191.21 308.898C191.76 301.977 192.419 295.057 193.078 288.136C194.067 290.662 194.946 293.189 195.824 295.496C197.472 299.671 199.12 303.735 201.097 308.129C201.757 309.557 202.526 311.205 203.294 312.743C208.128 322.52 213.95 331.858 220.432 340.646C229.33 333.066 238.228 325.486 247.017 317.906C230.868 307.141 221.97 295.496 216.807 286.708Z" fill="#DADBE0"/>
    <path d="M64 455.774C64 458.3 214.501 460.278 399.935 460.278C585.37 460.278 735.87 458.19 735.87 455.774C735.87 453.357 585.37 451.38 399.935 451.38C214.501 451.38 64 453.467 64 455.774Z" fill="#D6D8E2" opacity="0.5"/>
    <path d="M280.414 344.93L241.526 380.853C240.207 382.061 241.636 383.709 244.052 383.709H260.421C261.409 383.709 262.288 383.489 263.057 382.83L300.188 346.908C301.506 345.699 299.968 344.052 297.551 344.052H282.941C282.062 344.052 281.183 344.381 280.414 344.93Z" fill="#DADBE0"/>
    <path d="M328.75 344.93L289.862 380.853C288.543 382.061 289.971 383.709 292.388 383.709H308.757C309.745 383.709 310.624 383.489 311.393 382.83L348.524 346.908C349.842 345.699 348.304 344.052 345.887 344.052H331.277C330.398 344.052 329.409 344.381 328.75 344.93Z" fill="#A6A9B3"/>
    <path d="M242.071 388.762H262.394C263.493 388.762 264.372 389.641 264.372 390.74V393.376C264.372 394.475 263.493 395.354 262.394 395.354H242.071C240.973 395.354 240.094 394.475 240.094 393.376V390.74C240.094 389.641 240.973 388.762 242.071 388.762Z" fill="#066FD1"/>
    <path d="M289.97 388.762H310.293C311.391 388.762 312.27 389.641 312.27 390.74V393.376C312.27 394.475 311.391 395.354 310.293 395.354H289.97C288.871 395.354 287.992 394.475 287.992 393.376V390.74C287.992 389.641 288.871 388.762 289.97 388.762Z" fill="#066FD1"/>
    <path d="M377.852 344.93L338.963 380.853C337.645 382.061 339.073 383.709 341.49 383.709H357.858C358.847 383.709 359.726 383.489 360.495 382.83L397.625 346.908C398.944 345.699 397.406 344.052 394.989 344.052H380.378C379.499 344.052 378.621 344.381 377.852 344.93Z" fill="#DADBE0"/>
    <path d="M339.075 388.762H359.398C360.497 388.762 361.376 389.641 361.376 390.74V393.376C361.376 394.475 360.497 395.354 359.398 395.354H339.075C337.977 395.354 337.098 394.475 337.098 393.376V390.74C337.098 389.641 337.977 388.762 339.075 388.762Z" fill="#066FD1"/>
    <path d="M427.07 344.93L388.182 380.853C386.864 382.061 388.292 383.709 390.709 383.709H407.077C408.066 383.709 408.944 383.489 409.713 382.83L446.844 346.908C448.162 345.699 446.624 344.052 444.208 344.052H429.597C428.608 344.052 427.729 344.381 427.07 344.93Z" fill="#A6A9B3"/>
    <path d="M388.29 388.762H408.613C409.712 388.762 410.59 389.641 410.59 390.74V393.376C410.59 394.475 409.712 395.354 408.613 395.354H388.29C387.191 395.354 386.312 394.475 386.312 393.376V390.74C386.312 389.641 387.191 388.762 388.29 388.762Z" fill="#066FD1"/>
    <path d="M476.172 344.93L437.283 380.853C435.965 382.061 437.393 383.709 439.81 383.709H456.178C457.167 383.709 458.046 383.489 458.815 382.83L495.946 346.908C497.264 345.699 495.726 344.052 493.309 344.052H478.699C477.82 344.052 476.941 344.381 476.172 344.93Z" fill="#DADBE0"/>
    <path d="M437.395 388.762H457.718C458.817 388.762 459.696 389.641 459.696 390.74V393.376C459.696 394.475 458.817 395.354 457.718 395.354H437.395C436.297 395.354 435.418 394.475 435.418 393.376V390.74C435.418 389.641 436.297 388.762 437.395 388.762Z" fill="#066FD1"/>
    <path d="M525.387 344.93L486.498 380.853C485.18 382.061 486.608 383.709 489.025 383.709H505.393C506.382 383.709 507.261 383.489 508.03 382.83L545.161 346.908C546.479 345.699 544.941 344.052 542.524 344.052H527.913C526.925 344.052 526.046 344.381 525.387 344.93Z" fill="#A6A9B3"/>
    <path d="M486.61 388.762H506.933C508.032 388.762 508.911 389.641 508.911 390.74V393.376C508.911 394.475 508.032 395.354 506.933 395.354H486.61C485.512 395.354 484.633 394.475 484.633 393.376V390.74C484.633 389.641 485.512 388.762 486.61 388.762Z" fill="#066FD1"/>
    <path d="M527.255 277.919C529.452 281.435 540.987 299.121 561.859 302.527C569.439 303.735 577.129 302.966 584.269 300.22C588.224 298.682 591.959 296.704 595.474 294.288C593.827 290.223 592.069 286.158 590.421 281.984C589.872 282.423 588.993 283.192 587.894 284.071C583.94 286.927 577.019 290.772 569.878 288.355C565.814 287.037 563.067 284.401 557.684 279.128C552.961 274.514 548.676 269.46 544.941 263.968C541.646 257.816 534.615 256.278 529.891 260.452C525.167 264.297 523.959 272.097 527.255 277.919Z" fill="#FFCB9D"/>
    <path d="M584.16 300.11C588.115 298.572 591.85 296.595 595.365 294.178C593.718 290.113 591.96 286.048 590.312 281.874C589.763 282.313 588.884 283.082 587.785 283.961C588.115 286.598 588.225 290.992 586.907 294.397C586.138 296.375 585.259 298.352 584.16 300.11Z" fill="black" opacity="0.15"/>
    <path d="M619.642 231.011C614.808 240.239 606.679 247.27 597.012 250.895L629.529 253.861L619.642 231.011Z" fill="#232B41"/>
    <path d="M632.715 389.422L634.363 408.207L636.67 435.451H638.867L644.579 407.218L647.106 395.024L632.715 389.422Z" fill="#FFCB9D"/>
    <path d="M600.859 389.422L602.287 407.108L604.704 435.451H606.901L612.504 408.097L615.14 395.024L600.859 389.422Z" fill="#FFCB9D"/>
    <path d="M647.105 395.024L632.824 389.422L634.362 408.207C637.878 407.987 641.393 407.657 644.579 407.218L647.105 395.024Z" fill="black" opacity="0.15"/>
    <path d="M600.859 389.422L602.287 407.108C605.473 407.548 608.879 407.877 612.504 408.207L615.14 395.134L600.859 389.422Z" fill="black" opacity="0.15"/>
    <path d="M623.271 256.278C632.498 257.267 642.825 254.63 647.109 251.664C647.878 251.225 648.427 250.565 648.867 249.906C649.306 249.028 649.745 248.039 650.185 247.05C650.734 245.622 651.283 244.194 651.613 242.766C652.712 239.031 653.59 235.186 654.03 231.231C654.03 230.902 654.14 229.913 654.249 228.814C654.689 223.871 654.909 219.806 655.018 217.06C654.799 217.499 653.59 219.367 652.602 219.147C651.613 218.927 650.514 216.511 650.844 212.885H629.862L621.073 220.465C621.073 220.465 620.854 221.674 620.304 223.541C619.426 226.837 618.327 230.023 617.009 233.099C616.13 235.406 614.812 237.603 613.054 239.47C608.111 244.304 612.175 255.179 623.271 256.278Z" fill="#FFCB9D"/>
    <path d="M616.898 233.318C624.918 236.175 633.596 236.284 641.616 233.538C643.703 233.868 645.571 234.637 647.218 235.955C649.635 237.932 649.525 239.8 651.393 242.546L651.613 242.766C652.711 239.031 653.59 235.186 654.029 231.231C654.029 230.902 654.139 229.913 654.249 228.814C654.688 223.871 654.908 219.806 655.018 217.06C654.798 217.499 653.59 219.367 652.601 219.147C651.612 218.927 650.514 216.511 650.844 212.885H629.861L621.073 220.465C621.073 220.465 620.853 221.674 620.304 223.541C619.315 227.057 618.217 230.242 616.898 233.318Z" fill="black" opacity="0.1"/>
    <path d="M602.178 295.606C600.2 306.481 598.772 314.501 597.783 320.213L597.564 321.202C596.355 327.793 595.147 334.384 594.048 340.866C616.129 341.305 638.21 341.745 660.181 342.184C660.181 340.646 660.181 339.108 660.071 337.57V337.46C660.73 320.653 660.51 303.955 659.302 287.147C659.192 285.939 659.082 284.73 659.082 283.412L662.378 291.102L675.56 283.302C675.121 281.215 673.363 274.953 668.53 270.559C668.53 270.559 664.135 266.714 659.082 266.055C658.643 266.055 658.203 265.945 657.764 265.835H657.434C654.578 265.396 651.832 265.066 649.305 264.846C643.043 264.297 636.782 264.187 630.52 264.517C624.478 264.846 618.546 265.725 612.724 267.153C611.295 267.483 609.648 267.922 608.22 268.362L607.011 268.801L606.572 268.911L605.803 269.241C604.924 269.57 595.586 272.317 593.609 272.866C591.302 273.635 589.215 274.843 587.457 276.491C590.313 284.291 593.169 292.09 595.916 299.78L602.178 295.606Z" fill="#066FD1"/>
    <path d="M650.953 267.922C650.953 274.953 642.494 280.556 632.167 280.556C621.841 280.556 613.492 274.953 613.492 267.922C613.492 267.593 613.492 267.153 613.602 266.824C619.424 265.506 625.466 264.627 631.508 264.297C637.77 263.968 644.032 264.077 650.293 264.627C650.843 265.615 651.062 266.824 650.953 267.922Z" fill="#DADBE0"/>
    <path d="M669.189 255.729L657.654 254.96L643.373 253.971C645.79 248.588 647.768 243.095 649.305 237.493C649.525 236.175 649.745 234.856 649.745 233.428C649.745 232.659 649.745 231.78 649.635 231.011C649.635 230.572 649.525 230.023 649.415 229.583C649.086 228.595 648.537 227.606 647.768 226.837C646.889 225.738 646.12 224.53 645.57 223.212C641.616 225.519 626.785 232.989 617.008 226.398C614.811 224.86 612.944 222.882 611.735 220.465H611.845C611.296 219.367 610.966 218.049 611.186 216.73C611.845 211.457 619.425 208.711 622.611 207.612C635.464 203.108 647.987 209.59 649.965 210.578C655.677 213.764 660.511 218.158 664.246 223.541V223.651C665.674 225.738 666.882 227.935 667.871 230.133C667.981 230.462 668.091 230.792 668.31 231.121C668.969 232.879 669.629 234.746 670.068 236.614C670.288 237.603 670.398 238.372 670.507 238.811C671.167 244.524 670.727 250.236 669.189 255.729Z" fill="#232B41"/>
    <path d="M623.926 455.444C626.343 449.951 636.01 441.163 639.305 442.262C642.601 443.36 642.601 448.633 642.601 448.633L643.48 454.016L637.218 455.444L635.351 451.27L623.926 455.444Z" fill="#232B41"/>
    <path d="M593.059 455.444C595.475 449.951 605.143 441.163 608.438 442.262C611.734 443.36 611.734 448.633 611.734 448.633L612.613 454.016L606.351 455.444L604.593 451.16L593.059 455.444Z" fill="#232B41"/>
    <path d="M611.625 220.465C612.833 222.882 614.701 224.86 616.898 226.397C626.675 233.099 641.505 225.519 645.46 223.212C646.888 221.893 648.097 220.465 649.195 218.927C637.77 225.628 623.599 226.178 611.625 220.465Z" fill="black" opacity="0.5"/>
    <path d="M590.422 395.024H658.532L659.63 357.124L660.179 342.074L593.937 340.756L591.191 384.698L590.422 395.024Z" fill="#DADBE0"/>
    <path d="M590.422 395.024H658.532C658.751 377.228 659.081 359.321 659.301 341.525L626.125 341.305C638.428 365.693 642.053 374.811 641.065 375.58C639.747 376.678 630.409 361.409 625.685 364.045C624.037 365.034 623.818 367.78 623.268 369.648C621.73 375.47 614.81 381.842 591.081 384.588L590.422 395.024Z" fill="black" opacity="0.1"/>
    <path d="M606.461 268.801L606.9 268.691C608.768 276.821 619.314 283.082 632.167 283.082C646.228 283.082 657.763 275.502 657.763 266.275V265.835C658.202 265.945 658.642 265.945 659.081 266.055V266.275C659.081 276.491 646.997 284.73 632.167 284.73C618.765 284.73 607.669 278.029 605.582 269.241L606.461 268.801Z" fill="#DADBE0"/>
    <path d="M627.442 290.443C627.662 291.541 628.76 292.31 629.859 292.091C630.957 291.871 631.726 290.772 631.507 289.674C631.287 288.685 630.518 287.916 629.419 287.916C628.321 288.026 627.332 289.124 627.442 290.443Z" fill="#DADBE0"/>
    <path d="M669.191 255.729L657.656 254.96C656.887 253.202 659.743 250.675 661.611 247.819C664.577 243.535 666.884 236.284 664.137 223.541H664.247C665.675 225.628 666.884 227.825 667.872 230.023C667.982 230.352 668.092 230.682 668.312 231.011C668.971 232.769 669.63 234.636 670.069 236.504C670.289 237.493 670.399 238.262 670.509 238.701C671.168 244.413 670.838 250.236 669.191 255.729Z" fill="black" opacity="0.5"/>
    <path d="M593.938 340.756C616.018 341.195 637.989 341.635 660.07 342.074C660.07 340.536 660.07 338.998 659.96 337.46V337.35C624.367 339.108 603.495 326.035 597.453 321.092C596.354 327.683 595.146 334.165 593.938 340.756Z" fill="black" opacity="0.1"/>
    <path d="M645.898 362.068C647.765 365.253 651.281 367.121 654.906 367.121C656.993 367.121 658.97 366.352 660.618 364.924C672.263 354.158 679.623 339.548 681.271 323.728C682.809 310.766 680.612 297.583 675.229 285.609C674.899 284.84 674.57 284.291 674.35 283.741L664.024 289.783C664.353 290.333 664.903 291.321 665.562 292.53C668.967 299.231 670.285 306.811 669.407 314.391C668.418 321.641 665.452 326.475 662.266 331.748C658.861 337.241 654.686 342.294 649.743 346.578C644.689 350.972 643.371 357.674 645.898 362.068Z" fill="#FFCB9D"/>
    <path d="M664.023 290.003C664.353 290.552 664.902 291.541 665.561 292.75C668.418 290.772 672.922 287.586 675.229 285.829C674.899 285.06 674.569 284.51 674.35 283.961L664.023 290.003Z" fill="black" opacity="0.15"/>
    <path d="M631.398 264.187C637.66 263.858 643.922 263.968 650.184 264.517C650.623 265.616 650.953 266.714 650.953 267.923C650.953 274.953 642.494 280.556 632.167 280.556C621.841 280.556 613.492 274.953 613.492 267.923C613.492 267.593 613.492 267.154 613.602 266.824C619.534 265.506 625.466 264.627 631.398 264.187Z" fill="#FFCB9D"/>
    <path d="M441.461 339.438C441.461 355.037 454.094 367.78 469.803 367.78C485.513 367.78 498.146 355.147 498.146 339.438C498.146 323.729 485.513 311.095 469.803 311.095C454.094 311.095 441.461 323.838 441.461 339.438Z" fill="#232B41"/>
    <path d="M460.465 333.066C459.476 332.078 457.938 332.078 457.059 333.066L452.335 337.79C451.347 338.779 451.347 340.317 452.335 341.195L457.059 345.919C458.048 346.908 459.586 346.908 460.465 345.919C461.453 344.931 461.453 343.393 460.465 342.514L457.498 339.548L460.465 336.582C461.453 335.483 461.453 333.945 460.465 333.066Z" fill="white"/>
    <path d="M487.16 337.68L482.436 332.956C481.447 332.078 479.909 332.187 479.03 333.176C478.261 334.055 478.261 335.483 479.03 336.362L481.997 339.328L479.03 342.294C478.042 343.173 477.932 344.711 478.811 345.7C479.69 346.688 481.228 346.798 482.216 345.919C482.326 345.809 482.326 345.809 482.436 345.7L487.16 340.976C488.148 340.207 488.148 338.669 487.16 337.68Z" fill="white"/>
    <path d="M473.755 329.331C472.547 328.892 471.119 329.551 470.68 330.759L464.418 348.006C463.978 349.215 464.638 350.643 465.846 351.082C466.066 351.192 466.395 351.192 466.725 351.192C467.713 351.192 468.702 350.533 469.032 349.544L475.293 332.297C475.623 331.089 474.964 329.771 473.755 329.331Z" fill="white"/>
    <path d="M538.02 237.493L543.184 238.921C544.282 239.251 544.831 240.349 544.502 241.448L543.074 246.501C542.854 247.38 542.085 247.929 541.206 247.929C541.096 247.929 541.014 247.902 540.932 247.874C540.849 247.847 540.767 247.819 540.657 247.819C539.668 247.49 539.009 246.391 539.339 245.402L540.217 242.107L536.922 241.228C535.933 240.898 535.274 239.8 535.604 238.811C535.933 237.822 537.032 237.163 538.02 237.493Z" fill="#232B41"/>
    <path d="M523.3 251.774L526.596 252.653C527.475 252.872 528.024 253.641 527.914 254.52C527.914 255.509 527.035 256.388 525.937 256.388C525.827 256.388 525.745 256.36 525.662 256.333C525.58 256.305 525.497 256.278 525.387 256.278L520.334 254.85C519.345 254.63 518.686 253.532 519.016 252.543L520.444 247.49V247.38C520.774 246.281 521.872 245.732 522.861 246.061C523.959 246.391 524.509 247.49 524.179 248.478L523.3 251.774Z" fill="#232B41"/>
    <path d="M530.661 238.482C531.65 238.262 532.638 238.921 532.858 240.019L535.275 254.52C535.495 255.509 534.726 256.498 533.737 256.717H533.407C532.529 256.717 531.65 255.948 531.54 255.07L529.123 240.679C528.903 239.69 529.672 238.701 530.661 238.482Z" fill="#232B41"/>
    <path d="M553.071 234.966C546.48 223.212 531.54 219.147 519.895 225.738C508.141 232.33 504.076 247.27 510.667 258.914C517.259 270.669 532.199 274.733 543.843 268.142C549.446 264.956 553.62 259.683 555.268 253.422C557.136 247.16 556.257 240.569 553.071 234.966ZM551.643 252.433C550.215 257.706 546.7 262.1 541.976 264.847C532.089 270.449 519.566 267.044 513.963 257.157C511.217 252.433 510.557 246.83 511.986 241.557C514.952 230.682 526.267 224.2 537.252 227.276C548.238 230.242 554.609 241.557 551.643 252.433Z" fill="#232B41"/>
    <path d="M191.101 308.898C190.223 318.675 189.344 328.342 188.575 338.119H138.921C138.371 333.286 137.932 328.452 137.492 323.509C135.845 305.053 134.966 287.257 134.746 270.229C136.943 275.502 144.303 291.541 162.429 301.428C171.108 306.152 180.995 308.788 191.101 308.898Z" fill="black" opacity="0.1"/>
    <path d="M149.795 200.472C149.356 203.108 148.916 206.953 148.257 211.897C148.147 212.885 148.037 213.874 148.037 214.204C147.708 219.477 147.928 224.86 148.916 230.133L149.685 233.208C150.674 236.834 162.209 243.205 173.194 244.084C184.18 244.963 189.892 235.296 186.157 229.913C184.949 227.826 184.07 225.409 183.63 222.992C182.971 219.806 182.422 216.511 182.202 213.215C181.982 211.347 181.982 210.139 181.982 210.139L174.952 201.351L154.848 197.506C154.409 200.911 153.091 203.108 151.992 203.108C150.894 203.108 149.905 200.911 149.795 200.472Z" fill="#FFCB9D"/>
    <path d="M149.795 200.472C149.356 203.108 148.916 206.953 148.257 211.897C148.147 212.885 148.037 213.874 148.037 214.204C147.708 219.477 147.928 224.859 148.916 230.133C151.882 229.803 154.519 228.265 156.276 225.848C157.265 224.53 158.034 223.102 158.474 221.564C158.913 220.575 159.243 219.586 159.462 218.488C166.713 222.553 175.062 224.091 183.301 222.772C182.642 219.586 182.092 216.291 181.873 212.995C181.653 211.128 181.653 209.919 181.653 209.919L174.622 201.131L154.519 197.286C154.079 200.692 152.761 202.889 151.663 202.889C150.564 202.889 149.905 200.911 149.795 200.472Z" fill="black" opacity="0.1"/>
    <path d="M146.389 204.317C145.73 208.491 146.608 212.885 148.915 216.401C149.465 217.06 149.904 217.719 150.343 218.378C151.442 220.355 151.991 222.552 151.881 224.859C153.09 223.871 153.859 222.552 154.298 221.124C154.628 218.817 154.848 216.401 154.738 214.094C154.738 213.984 154.738 213.874 154.738 213.764C154.738 213.435 154.738 213.105 154.848 212.775C154.957 211.677 155.287 210.578 155.397 209.59V209.48C159.901 213.544 173.083 223.981 184.289 218.378C186.046 217.499 187.584 216.401 189.122 215.082C189.232 214.973 189.342 214.863 189.452 214.753C189.781 214.423 190.111 214.094 190.44 213.654L190.55 213.544C191.319 212.556 191.978 211.457 192.418 210.359L192.528 209.919C193.297 207.283 192.747 204.536 191.1 202.339C188.793 199.483 186.046 197.066 182.97 195.199C175.061 190.145 162.208 186.74 153.31 193.111C151.003 194.759 149.245 196.956 148.037 199.483C147.268 200.911 146.608 202.559 146.389 204.317Z" fill="#232B41"/>
    <path d="M155.619 209.37C160.123 213.435 173.305 223.871 184.511 218.268C186.268 217.389 187.806 216.291 189.344 214.973C189.454 214.863 189.564 214.753 189.674 214.643C190.003 214.313 190.333 213.984 190.662 213.545L190.772 213.435C191.541 212.446 192.2 211.347 192.64 210.249C189.894 212.116 186.927 213.435 183.742 214.204C168.142 218.158 154.74 206.953 152.763 205.196L152.543 205.086C153.422 206.624 154.41 208.052 155.619 209.37Z" fill="black" opacity="0.5"/>
    <path d="M138.809 338.12L143.093 441.493H151.552L163.086 361.628L171.106 441.493H177.258L188.463 338.12H138.809Z" fill="#066FD1"/>
    <path d="M160.89 455.884L142.105 453.796C142.105 453.796 141.446 448.963 144.412 447.205C147.378 445.447 157.815 451.27 160.89 455.884Z" fill="#232B41"/>
    <path d="M188.465 455.884L169.68 453.796C169.68 453.796 169.02 448.963 171.987 447.205C174.953 445.447 185.499 451.27 188.465 455.884Z" fill="#232B41"/>
    <path d="M156.387 250.566C159.792 254.191 164.077 256.608 168.91 257.596L169.459 257.706L176.93 251.884L156.387 250.566Z" fill="#FFCB9D"/>
    <path d="M171.109 441.493L163.09 361.628L166.605 338.12H188.466L177.261 441.493H171.109Z" fill="black" opacity="0.1"/>
    <path d="M167.262 256.168L179.346 247.49L182.092 250.456L173.853 262.759L167.262 256.168Z" fill="#066FD1"/>
    <path d="M166.602 256.058L148.257 244.633L144.082 248.478L156.605 264.737L166.602 256.058Z" fill="#066FD1"/>
    <path d="M167.262 256.168L179.346 247.49L182.092 250.456L173.853 262.759L167.262 256.168Z" fill="black" opacity="0.1"/>
    <path d="M251.083 324.498L240.977 332.078L248.557 342.184C249.545 343.502 251.413 343.722 252.841 342.733C254.159 341.745 254.379 339.877 253.39 338.449L249.435 333.176L254.708 329.221C256.136 328.342 256.466 326.475 255.587 325.047C254.708 323.619 252.841 323.289 251.413 324.168C251.193 324.278 251.083 324.388 251.083 324.498Z" fill="#232B41"/>
    <path d="M279.315 353.17C279.096 351.741 277.667 350.753 276.239 350.972C274.811 351.192 273.823 352.62 274.042 354.048C274.042 354.158 274.042 354.158 274.042 354.268L275.251 359.981L269.648 361.189C268.22 361.518 267.341 362.947 267.671 364.375C267.89 365.583 268.989 366.462 270.197 366.462C270.417 366.462 270.527 366.462 270.747 366.462L281.622 364.155L279.315 353.17Z" fill="#232B41"/>
    <path d="M160.891 338.779C160.891 351.082 170.887 360.969 183.081 360.969C195.275 360.969 205.272 350.973 205.272 338.779C205.272 326.585 195.275 316.588 183.081 316.588C170.887 316.478 160.891 326.475 160.891 338.779C160.891 338.669 160.891 338.669 160.891 338.779Z" fill="#232B41"/>
    <path d="M165.835 352.73C158.146 343.173 159.574 329.221 169.131 321.422C173.086 318.236 178.029 316.478 183.083 316.478H183.412C183.632 325.267 182.423 347.457 165.835 352.73Z" fill="black" opacity="0.15"/>
    <path d="M162.868 316.698C163.857 316.918 164.736 317.247 165.724 317.687C166.274 318.016 166.713 318.236 167.152 318.565C171.437 321.641 172.975 326.914 170.558 330.21C168.361 333.176 163.857 333.615 159.902 331.528C159.463 331.309 158.913 330.979 158.584 330.649L157.375 329.661C154.08 326.475 152.981 321.971 155.178 319.005C156.606 316.808 159.792 316.039 162.868 316.698Z" fill="#FFCB9D"/>
    <path d="M162.868 316.698C163.857 316.918 164.736 317.247 165.724 317.687C163.417 322.081 161.44 326.805 159.902 331.528C159.463 331.309 158.913 330.979 158.584 330.649L157.375 329.661C154.08 326.475 152.981 321.971 155.178 319.005C156.606 316.808 159.792 316.039 162.868 316.698Z" fill="black" opacity="0.1"/>
    <path d="M167.262 313.512C158.913 322.96 150.564 332.407 142.325 341.964C133.207 334.824 125.847 325.816 120.684 315.489C118.597 311.095 116.949 306.481 115.85 301.648C115.411 299.451 114.862 297.034 114.532 294.397C112.664 279.787 113.763 259.683 125.408 253.531C129.033 251.774 133.097 251.225 137.052 251.884C135.185 259.244 134.306 266.824 134.416 274.514C134.526 281.654 134.635 288.136 137.492 294.288C144.303 308.788 162.978 312.743 167.262 313.512Z" fill="#DADBE0"/>
    <path d="M362.691 191.464H416.52C430.801 191.464 442.335 202.998 442.335 217.28V271.108C442.335 285.389 430.801 296.924 416.52 296.924H362.691C348.41 296.924 336.875 285.389 336.875 271.108V217.28C336.985 202.998 348.52 191.464 362.691 191.464Z" fill="#066FD1"/>
    <path d="M404.658 262.43L407.514 237.713L399.385 229.583L395.65 225.848L370.932 228.704C368.845 237.493 364.671 255.729 364.011 258.365C363.352 260.892 363.572 263.528 364.671 265.835L381.368 249.137C379.721 245.732 381.259 241.557 384.664 240.019C388.07 238.372 392.244 239.91 393.782 243.315C395.43 246.721 393.892 250.895 390.486 252.433C388.619 253.312 386.422 253.312 384.554 252.433L367.966 268.911C370.163 269.79 372.58 269.9 374.887 269.351C377.633 268.692 395.869 264.407 404.658 262.43Z" fill="white"/>
    <path d="M421.684 233.208L413.555 238.042L406.634 231.121L395.648 220.136L399.713 211.238L408.282 219.806L421.684 233.208Z" fill="white"/>
    <path d="M323.696 156.86H315.347C314.688 154.443 313.699 152.246 312.381 150.158L318.093 144.446C318.643 143.897 318.643 143.018 318.093 142.469L310.184 134.559C309.635 134.01 308.756 134.01 308.207 134.559L302.274 140.381C300.077 139.173 297.77 138.294 295.463 137.745V129.725C295.463 128.956 294.804 128.297 294.035 128.297H282.94C282.171 128.297 281.512 128.956 281.512 129.725V138.074C279.095 138.734 276.898 139.722 274.811 141.04L269.098 135.328C268.549 134.779 267.67 134.779 267.121 135.328L259.211 143.238C258.662 143.787 258.662 144.666 259.211 145.325L265.144 151.257C263.935 153.454 263.056 155.761 262.507 158.068H254.268C253.499 158.068 252.84 158.727 252.84 159.496V170.591C252.84 171.36 253.499 172.019 254.268 172.019H262.617C263.276 174.436 264.265 176.633 265.583 178.721L259.871 184.433C259.321 184.982 259.321 185.861 259.871 186.52L267.78 194.43C268.329 194.979 269.208 194.979 269.867 194.43L275.799 188.498C277.997 189.706 280.303 190.585 282.61 191.244V199.263C282.61 200.032 283.27 200.691 284.039 200.691H295.134C295.903 200.691 296.562 200.032 296.562 199.263V190.914C298.979 190.255 301.176 189.267 303.263 187.948L308.975 193.661C309.525 194.21 310.404 194.21 311.063 193.661L318.972 185.751C319.522 185.202 319.522 184.323 318.972 183.664L313.04 177.842C314.249 175.645 315.127 173.338 315.677 171.031H323.696C324.465 171.031 325.124 170.372 325.124 169.603V158.507C325.124 157.519 324.465 156.86 323.696 156.86ZM288.982 183.444C278.546 183.444 269.977 174.986 269.977 164.439C269.977 154.003 278.436 145.435 288.982 145.435C299.528 145.435 307.987 153.893 307.987 164.439C307.987 174.876 299.528 183.444 288.982 183.444Z" fill="#066FD1"/>
    <path d="M500.341 168.504H497.924C497.485 166.747 496.826 165.099 495.837 163.671L497.485 162.023C497.815 161.803 497.815 161.254 497.595 161.034C497.595 161.034 497.595 161.034 497.485 160.924L493.42 156.86C493.091 156.53 492.651 156.53 492.322 156.86L490.564 158.617C489.026 157.738 487.378 157.079 485.621 156.64V154.333C485.621 153.894 485.291 153.564 484.852 153.564H479.03C478.59 153.564 478.261 153.894 478.261 154.333V156.86C476.503 157.299 474.855 158.068 473.427 158.947L471.779 157.299C471.45 156.969 471.01 156.969 470.681 157.299L466.616 161.473C466.286 161.693 466.286 162.242 466.506 162.462C466.506 162.462 466.506 162.462 466.616 162.572L468.374 164.33C467.495 165.868 466.836 167.515 466.396 169.273H464.089C463.65 169.273 463.32 169.603 463.32 170.042V175.864C463.32 176.304 463.65 176.633 464.089 176.633H466.506C466.946 178.391 467.605 180.039 468.593 181.467L466.946 183.115C466.616 183.444 466.616 183.884 466.946 184.213L471.01 188.278C471.34 188.608 471.779 188.608 472.109 188.278L473.866 186.52C475.404 187.399 477.052 188.058 478.81 188.498V190.805C478.81 191.244 479.139 191.574 479.579 191.574H485.401C485.84 191.574 486.17 191.244 486.17 190.805V188.388C487.928 187.948 489.576 187.289 491.004 186.301L492.651 187.948C492.981 188.278 493.42 188.278 493.75 187.948L497.815 183.774C498.144 183.554 498.144 183.005 497.924 182.785C497.924 182.785 497.925 182.785 497.815 182.675L496.057 180.918C496.936 179.38 497.595 177.732 498.034 175.974H500.341C500.781 175.974 501.11 175.645 501.11 175.205V169.383C501.22 168.944 500.891 168.614 500.341 168.504ZM482.215 180.588C477.711 180.588 474.086 176.963 474.086 172.459C474.086 167.955 477.711 164.44 482.215 164.44C486.719 164.44 490.345 168.065 490.345 172.459C490.345 176.963 486.719 180.588 482.215 180.588Z" fill="#A6A9B3"/>
    <path d="M304.472 256.827H302.714C302.384 255.619 301.835 254.41 301.176 253.312L302.384 252.103C302.604 251.884 302.604 251.554 302.384 251.334L299.418 248.368C299.199 248.149 298.869 248.149 298.649 248.368L297.441 249.577C296.342 248.918 295.134 248.478 293.925 248.149V246.501C293.925 246.171 293.706 245.952 293.376 245.952H289.202C288.872 245.952 288.652 246.171 288.652 246.501V248.258C287.444 248.588 286.236 249.137 285.137 249.796L283.929 248.588C283.709 248.368 283.379 248.368 283.16 248.588L280.194 251.554C279.974 251.774 279.974 252.103 280.194 252.323L281.402 253.531C280.743 254.63 280.304 255.838 279.974 257.047H278.436C278.106 257.047 277.887 257.267 277.887 257.596V261.771C277.887 262.1 278.106 262.32 278.436 262.32H280.194C280.523 263.528 280.963 264.737 281.732 265.835L280.523 267.044C280.304 267.263 280.304 267.593 280.523 267.813L283.489 270.779C283.709 270.998 284.039 270.998 284.258 270.779L285.467 269.57C286.565 270.229 287.774 270.669 288.982 270.998V272.646C288.982 272.976 289.202 273.195 289.531 273.195H293.706C294.035 273.195 294.255 272.976 294.255 272.646V270.889C295.463 270.559 296.672 270.01 297.77 269.351L298.979 270.559C299.199 270.779 299.528 270.779 299.748 270.559L302.714 267.593C302.934 267.373 302.934 267.044 302.714 266.824L301.505 265.615C302.165 264.517 302.604 263.309 302.934 262.1H304.581C304.911 262.1 305.131 261.88 305.131 261.551V257.267C305.131 257.047 304.911 256.717 304.472 256.827ZM291.509 265.506C288.323 265.506 285.686 262.869 285.686 259.683C285.686 256.498 288.323 253.861 291.509 253.861C294.694 253.861 297.331 256.498 297.331 259.683C297.221 262.869 294.694 265.506 291.509 265.506Z" fill="#A6A9B3"/>
    <path d="M120.683 315.38C118.596 310.985 116.948 306.371 115.85 301.538C115.41 299.341 114.861 296.924 114.531 294.287C116.838 296.594 118.816 300.659 120.024 305.493C120.903 308.788 121.013 312.084 120.683 315.38Z" fill="#232B41"/>
    <path d="M203.185 312.853C202.416 311.205 201.647 309.667 200.988 308.239C198.901 303.845 197.253 299.78 195.715 295.606C201.647 299.121 204.723 306.042 203.185 312.853Z" fill="#232B41"/>
</svg>
