<svg xmlns="http://www.w3.org/2000/svg" width="800" height="600" fill="none" viewBox="0 0 800 600">
    <path d="M154.543 310.368C154.543 355.377 202.195 388.144 223.242 424.552C244.924 462.152 250.234 519.426 287.709 541.222C324.118 562.325 375.968 538.748 420.988 538.748C466.009 538.748 517.859 562.325 554.279 541.222C591.721 519.54 597.053 462.152 618.735 424.552C639.861 388.189 687.445 355.502 687.445 310.368C687.445 265.234 639.713 232.581 618.735 196.172C597.053 158.572 591.755 101.139 554.279 79.503C517.859 58.4111 466.009 81.9764 420.988 81.9764C375.968 81.9764 324.118 58.4111 287.709 79.503C250.109 101.139 244.924 158.572 223.242 196.172C202.15 232.706 154.543 265.382 154.543 310.368Z" fill="#066FD1" opacity="0.02"/>
    <path d="M600.152 379.033L586.276 490.302L577.312 487.772C572.018 457.826 566.723 427.892 561.428 397.969C558.251 427.219 555.067 456.476 551.875 485.741H542.912C538.374 447.551 533.835 409.372 529.297 371.204C538.474 370.958 547.658 371.192 556.811 371.908L560.43 372.214C573.824 373.476 587.103 375.756 600.152 379.033Z" fill="#066FD1"/>
    <path d="M443.996 509.794C443.996 512.267 494.235 514.332 556.172 514.332C618.109 514.332 668.349 512.267 668.349 509.794C668.349 507.32 618.109 505.369 556.172 505.369C494.235 505.369 443.996 507.434 443.996 509.794Z" fill="#D6D8E2" opacity="0.5"/>
    <path d="M553.542 506.356L552.499 500.513C552.499 500.513 552.397 494.726 548.868 493.626C545.339 492.525 535.071 502.226 532.609 508.375L544.874 503.542L546.803 508.149L553.542 506.356Z" fill="#232B41"/>
    <path d="M588.09 509.283L587.057 503.383C587.057 503.383 586.966 497.597 583.427 496.497C579.887 495.396 569.641 505.097 567.168 511.246L579.433 506.413L581.373 511.019L588.09 509.283Z" fill="#232B41"/>
    <path d="M561.391 397.992C558.214 427.242 555.03 456.499 551.838 485.763H542.875C538.336 447.573 533.798 409.395 529.26 371.227C538.437 370.98 547.621 371.215 556.773 371.931L561.391 397.992Z" fill="black" opacity="0.1"/>
    <path d="M109 459.259C109 461.733 194.695 463.798 300.347 463.798C406 463.798 491.695 461.744 491.695 459.259C491.695 456.775 406 454.834 300.347 454.834C194.695 454.834 109 456.888 109 459.259Z" fill="#D6D8E2" opacity="0.5"/>
    <path d="M282.217 140.351L276.544 169.419H210.886L216.389 141.451L210.886 141.293C190.04 246.937 169.194 352.578 148.348 458.216L153.85 459.35L159.659 429.647H225.34L219.668 458.25L225.17 459.384L287.709 141.361L282.217 140.351ZM275.466 174.888L263.996 233.024H198.315L209.785 174.888H275.466ZM185.744 296.685L197.214 238.549H262.895L251.425 296.685H185.744ZM250.483 302.358L239.012 360.483H173.331L184.802 302.347L250.483 302.358ZM160.76 424.121L172.231 365.985H237.912L226.441 424.121H160.76Z" fill="#232B41"/>
    <path d="M333.445 372.112L324.017 323.711L287.88 140.192L282.207 141.327L287.71 169.135H222.199L216.526 140.226L210.854 141.361L273.392 459.316L279.065 458.182L273.392 429.738H338.903L344.723 459.237L350.396 458.102L333.445 372.112ZM223.3 175.069H288.822L300.168 233.058H234.612L223.3 175.069ZM235.871 238.708H301.393L312.739 296.685H247.183L235.871 238.708ZM248.431 302.506H313.953L319.91 332.674L325.401 360.324H259.777L248.431 302.506ZM272.314 424.122L260.968 366.133H326.479L326.797 367.71L327.432 371.012L337.802 424.122H272.314Z" fill="#A6A9B3"/>
    <path d="M484.046 196.547V200.166L483.944 203.649C483.944 204.228 483.944 204.784 483.864 205.34L483.672 208.619L483.411 211.75C480.79 238.81 469.796 249.815 442.724 252.448L439.593 252.709L436.325 252.901L434.635 252.969L431.152 253.06H427.521H423.89L420.407 252.969L418.717 252.901L415.438 252.709L412.318 252.448C385.258 249.815 374.241 238.833 371.62 211.75L371.359 208.619L371.166 205.34L371.098 203.649L370.996 200.166C370.996 199.031 370.996 197.772 370.996 196.547V194.72V192.916L371.098 189.433C371.098 188.854 371.098 188.298 371.166 187.742L371.359 184.463L371.62 181.332C374.241 154.272 385.235 143.267 412.318 140.646L415.438 140.385L418.717 140.192L420.407 140.112L423.89 140.022H427.521H429.348H431.152L434.635 140.112L436.325 140.192L439.593 140.385L442.724 140.646C469.773 143.267 480.79 154.261 483.411 181.332L483.672 184.463L483.864 187.742L483.944 189.433L484.046 192.916V196.547Z" fill="#066FD1"/>
    <path d="M362.647 232.025C348.828 249.611 335.001 267.193 321.167 284.772L313.1 282.673C317.109 269.353 321.118 256.029 325.127 242.701L294.697 246.582C293.941 264.614 293.185 282.635 292.428 300.645C286.982 317.754 281.529 334.86 276.067 351.962L270.281 349.511L271.223 298.092C266.2 270.862 261.17 243.662 256.133 216.493L297.091 213.395L306.168 212.714L362.647 232.025Z" fill="#DADBE0"/>
    <path d="M285.872 369.321L267.23 362.979C267.23 362.979 267.571 357.828 271.043 356.727C274.514 355.627 283.773 364.091 285.872 369.321Z" fill="#232B41"/>
    <path d="M322.689 308.031L306.918 296.288C306.918 296.288 308.835 291.489 312.466 291.523C316.097 291.557 322.303 302.46 322.677 308.076" fill="#232B41"/>
    <path d="M403.992 231.151C401.255 231.147 398.628 230.079 396.663 228.174C394.699 226.269 393.551 223.675 393.463 220.94L393.213 214.019C393.196 213.545 393.273 213.073 393.438 212.628C393.603 212.184 393.855 211.777 394.178 211.43C394.501 211.083 394.889 210.802 395.32 210.605C395.751 210.408 396.217 210.298 396.691 210.281C397.165 210.264 397.637 210.34 398.081 210.505C398.526 210.671 398.933 210.922 399.28 211.245C399.627 211.568 399.908 211.956 400.105 212.387C400.302 212.819 400.412 213.284 400.429 213.758L400.679 220.679C400.714 221.552 401.091 222.376 401.727 222.974C402.364 223.572 403.209 223.897 404.083 223.879L445.654 222.358C446.529 222.329 447.356 221.954 447.956 221.316C448.555 220.679 448.878 219.829 448.853 218.955L448.604 212.022C448.61 211.092 448.975 210.2 449.623 209.533C450.271 208.866 451.151 208.474 452.081 208.441C453.01 208.407 453.917 208.734 454.612 209.352C455.306 209.971 455.735 210.834 455.808 211.761L456.069 218.694C456.119 220.082 455.894 221.466 455.408 222.767C454.921 224.068 454.182 225.26 453.233 226.274C452.284 227.288 451.144 228.105 449.878 228.677C448.613 229.249 447.246 229.566 445.858 229.608L404.298 231.129L403.992 231.151Z" fill="white"/>
    <path d="M608.457 299.578C607.127 301.165 605.892 302.828 604.758 304.559C605.58 304.114 606.281 303.475 606.8 302.698C607.401 301.677 607.912 300.645 608.457 299.578Z" fill="black" opacity="0.1"/>
    <path d="M442.862 232.649C442.13 231.559 441.546 230.376 441.126 229.132C439.617 224.684 440.661 220.294 444.02 218.342C448.342 215.891 454.764 218.24 458.361 223.675C458.783 224.271 459.162 224.897 459.495 225.547C461.901 230.471 461.061 235.758 457.226 237.959C452.983 240.41 446.55 238.038 442.862 232.649Z" fill="#FFCB9D"/>
    <path d="M442.863 232.649C442.13 231.559 441.546 230.376 441.127 229.132C441.603 228.894 442.023 228.723 442.477 228.53C448.434 226.193 451.826 227.396 458.622 225.762C458.919 225.709 459.211 225.633 459.496 225.535C461.901 230.471 461.062 235.746 457.227 237.947C452.983 240.41 446.55 238.038 442.863 232.649Z" fill="black" opacity="0.1"/>
    <path d="M605.336 297.491C605.052 305.592 604.201 317.981 603.271 330.677C602.499 341.297 601.66 352.132 601.16 360.812C600.831 365.702 600.57 369.888 600.457 373.054C600.355 374.869 600.264 376.685 600.23 378.511H600.071C588.271 376.779 575.969 375.266 563.163 373.973C551.469 372.8 540.15 371.897 529.205 371.261C533.834 349.485 534.464 327.049 531.066 305.047C516.977 307.622 502.507 307.236 488.576 303.912C442.977 292.805 420.909 253.106 416.598 244.914C420.433 241.136 426.389 236.529 434.399 235.304C439.698 234.499 442.341 235.701 447.844 235.304C452.984 234.93 460.245 233.171 468.811 226.693C474.484 244.993 477.979 251.801 480.157 254.047L482.006 255.942C485.546 259.562 488.122 262.239 488.36 262.477C492.898 267.175 501.975 273.744 503.348 274.765C503.348 274.765 524.009 289.696 528.309 286.496C528.309 286.496 528.524 286.338 528.797 286.145C529.624 285.565 530.51 285.075 531.44 284.681C532.019 284.432 532.575 284.091 533.233 283.774C534.787 283.002 536.421 282.321 537.964 281.697C544.222 279.266 550.674 277.368 557.252 276.024C562.18 274.997 567.161 274.24 572.172 273.755H572.614C574.327 273.608 576.165 273.449 577.992 273.369C580.477 273.135 582.974 273.048 585.469 273.108L586.819 273.165H587.126C590.023 273.658 592.831 274.583 595.453 275.911L595.612 275.968C595.847 276.125 596.057 276.316 596.236 276.535C597.076 277.465 598.505 279.36 600.014 281.368C602.408 284.59 604.893 288.085 605.075 288.278C605.483 288.834 605.528 292.272 605.336 297.491Z" fill="#DADBE0"/>
    <path d="M600.854 360.778C600.408 364.843 600.177 368.93 600.162 373.02C600.071 375.289 600.162 377.104 600.162 378.489H600.071C588.272 376.756 575.969 375.244 563.163 373.95C551.469 372.778 540.15 371.874 529.205 371.239C554.041 366.7 573.76 348.944 579.331 326.014C585.662 300.021 570.924 279.224 568.643 276.092L572.138 273.744L572.229 273.676C573.976 273.528 575.78 273.392 577.64 273.301C580.229 273.031 582.834 272.948 585.435 273.052L586.751 273.108C589.632 273.618 592.426 274.539 595.045 275.843L595.192 275.956C595.522 276.126 595.851 276.297 596.168 276.489C597.957 277.504 599.631 278.71 601.16 280.086L601.024 280.29L599.946 281.323L599.527 281.72L596.282 284.658L604.7 288.21C606.414 290.479 602.42 335.102 600.854 360.778Z" fill="black" opacity="0.1"/>
    <path d="M579.979 276.58C581.114 284.398 572.729 292.056 561.292 293.667C549.856 295.278 539.735 290.263 538.601 282.389C538.55 281.971 538.55 281.548 538.601 281.13C544.85 278.673 551.304 276.774 557.889 275.457C564.715 274.059 571.636 273.172 578.595 272.802C579.318 273.95 579.79 275.237 579.979 276.58Z" fill="#FFCB9D"/>
    <path d="M568.745 301.337C568.155 300.917 568.212 299.998 568.462 298.217C568.581 297.55 568.638 296.874 568.632 296.197C568.286 294.659 567.692 293.188 566.873 291.84C570.583 293.996 575.383 296.379 578.06 295.97C578.402 295.935 578.731 295.826 579.025 295.649C579.319 295.473 579.571 295.234 579.762 294.949C580.999 292.952 579.331 289.696 577.981 287.415C575.213 282.503 572.308 280.245 569.653 280.506C566.998 280.767 564.559 284.375 563.662 286.542C561.87 284.273 557.899 280.029 553.689 280.755C550.286 281.414 547.642 285.294 545.827 292.419C544.987 295.698 544.136 300.293 546.178 302.199C546.489 302.501 546.868 302.724 547.282 302.851C547.696 302.977 548.135 303.002 548.561 302.925C552.226 302.403 557.842 297.059 561.541 293.122C561.139 294.671 560.314 296.078 559.158 297.184C558.701 297.435 558.315 297.798 558.035 298.238C557.755 298.679 557.591 299.182 557.558 299.703C557.8 302.285 558.95 304.697 560.803 306.511L562.074 304.775C559.657 301.791 559.476 300.565 559.567 300.236C559.587 300.081 559.645 299.934 559.736 299.807C559.827 299.681 559.948 299.578 560.089 299.51C562.278 298.217 563.662 293.837 564.298 291.273C565.298 292.867 566.135 294.559 566.794 296.322C566.794 296.753 566.714 297.184 566.646 297.615C566.374 299.272 565.966 302.074 567.883 303.606C569.018 304.423 570.152 307.951 571.139 312.944L573 312.512C571.786 306.363 570.493 302.721 568.745 301.337ZM569.88 282.979C571.877 282.786 574.078 284.749 576.449 288.732C578.537 292.317 578.185 293.202 578.208 293.27C577.38 294.404 571.4 292.033 565.194 288.13C566.011 286.462 567.599 283.331 569.891 283.025L569.88 282.979ZM547.313 300.055C547.188 300.055 546.337 298.92 547.767 293.247C549.355 287.098 551.477 283.705 554.166 283.195H554.359C557.649 282.684 561.166 286.599 562.607 288.482C556.401 295.448 548.992 301.586 547.313 300.077V300.055Z" fill="#066FD1"/>
    <path d="M647.134 407.556C647.599 408.783 648.25 409.931 649.063 410.96C651.854 414.727 656.064 416.315 659.581 414.659C664.119 412.469 665.742 405.832 663.2 399.784C662.951 399.119 662.635 398.481 662.258 397.878C659.524 393.056 654.668 390.81 650.754 392.693C646.374 394.792 644.684 401.475 647.134 407.556Z" fill="#FFCB9D"/>
    <path d="M647.133 407.557C647.598 408.783 648.249 409.931 649.062 410.96L650.299 410.177C655.643 406.604 656.505 403.109 661.645 398.423C661.883 398.242 662.076 398.037 662.348 397.845C659.602 393.034 654.769 390.799 650.855 392.671C646.373 394.793 644.683 401.475 647.133 407.557Z" fill="black" opacity="0.1"/>
    <path d="M691.883 380.122C688.18 385.931 682.747 390.431 676.35 392.988C675.034 393.515 673.68 393.943 672.3 394.27C668.261 395.246 664.812 395.167 659.683 396.313L658.276 396.63C650.766 398.605 643.756 402.143 637.706 407.012C632.476 395.394 626.588 383.447 619.939 371.272L618.804 369.253C616.955 365.929 615.106 362.65 613.234 359.45C611.101 354.912 609.168 350.336 607.436 345.722C603.885 336.208 601.175 326.402 599.335 316.415C598.234 310.471 597.45 304.472 596.986 298.444C601.328 296.764 605.707 295.115 610.125 293.497C610.896 296.39 611.793 299.238 612.757 302.052C616.263 312.192 621.024 321.854 626.928 330.813C631.692 338.171 637.293 344.951 643.618 351.02C651.025 357.607 659.032 363.487 667.535 368.584C672.362 371.472 677.356 374.075 682.489 376.378C686.165 377.978 689.466 379.249 691.883 380.122Z" fill="#DADBE0"/>
    <path d="M691.882 380.122C688.179 385.931 682.746 390.431 676.349 392.988C675.032 393.515 673.679 393.944 672.299 394.271C662.655 373.848 626.609 354.73 607.423 345.722C603.872 336.208 601.162 326.402 599.322 316.415L600.162 311.548L617.816 314.555C620.443 320.187 623.477 325.621 626.893 330.813C631.657 338.171 637.258 344.952 643.582 351.02C650.99 357.607 658.997 363.487 667.499 368.584C672.327 371.472 677.32 374.075 682.453 376.378C686.163 377.978 689.465 379.249 691.882 380.122Z" fill="black" opacity="0.1"/>
    <path d="M552.497 260.719C562.459 264.803 574.667 265.155 580.272 263.328C581.223 263.098 582.099 262.625 582.813 261.955C583.642 261.093 584.379 260.151 585.151 259.176C586.217 257.807 587.216 256.385 588.146 254.91C590.618 251.158 592.737 247.185 594.477 243.042C594.59 242.702 595.01 241.68 595.509 240.512C597.529 235.168 599.004 230.857 600.048 227.714C599.662 228.099 597.779 229.79 596.644 229.279C595.509 228.769 595.271 225.66 596.644 221.814L573.476 215.074L561.415 220.747C561.415 220.747 560.746 221.984 559.532 223.902C557.482 227.157 555.207 230.266 552.724 233.205C550.976 235.512 548.814 237.475 546.348 238.991C539.631 242.588 540.584 255.885 552.497 260.719Z" fill="#FFCB9D"/>
    <path d="M552.781 233.171C560.696 238.853 570.275 241.743 580.011 241.385C582.19 242.38 584.057 243.949 585.412 245.924C587.386 248.896 586.717 250.927 587.965 254.535L588.112 254.842C590.585 251.126 592.712 247.192 594.466 243.087C594.568 242.747 594.999 241.726 595.498 240.557C597.507 235.225 598.993 230.902 600.037 227.759C599.662 228.156 597.768 229.847 596.633 229.336C595.498 228.826 595.26 225.706 596.633 221.871L573.465 215.12L561.393 220.793C561.393 220.793 560.735 222.041 559.521 223.958C557.486 227.179 555.234 230.257 552.781 233.171Z" fill="black" opacity="0.1"/>
    <path d="M691.882 345.767C683.157 348.218 655.575 354.764 625.418 342.647C607.684 335.393 592.275 323.422 580.863 308.031C580.25 307.191 579.933 306.692 579.728 306.454C571.423 293.44 571.786 274.595 579.32 262.568C579.615 262.092 579.899 261.649 580.148 261.229C583.37 255.988 584.755 253.287 587.353 248.284C588.453 246.065 589.244 243.706 589.701 241.272C589.803 240.739 589.86 240.137 589.917 239.604C590.11 237.664 587.943 234.623 587.648 231.356C582.429 232.604 563.753 236.132 555.119 225.683C553.133 223.318 551.768 220.494 551.148 217.468C550.864 216.017 551.014 214.513 551.579 213.146C553.962 207.473 563.209 206.951 567.112 206.713C582.066 205.816 593.4 216.05 596.35 218.751C601.581 223.626 605.733 229.543 608.537 236.121C611.341 242.698 612.736 249.791 612.631 256.941C612.37 264.883 609.999 267.957 612.393 272.825C615.797 279.723 624.771 282.004 637.672 284.08C654.377 286.756 671.265 288.132 688.183 288.198C679.402 297.661 678.392 304.162 679.209 308.394C680.026 312.626 682.612 314.702 682.215 319.524C681.648 325.413 677.314 327.024 677.064 331.12C677.015 331.963 677.135 332.808 677.416 333.604C678.517 336.77 682.283 340.82 691.882 345.767Z" fill="#232B41"/>
    <path d="M551.203 217.412C551.828 220.436 553.192 223.258 555.174 225.626C563.854 236.121 582.472 232.57 587.703 231.299C589.647 230.321 591.483 229.142 593.183 227.782C585.866 229.613 578.213 229.62 570.893 227.802C563.573 225.984 556.812 222.397 551.203 217.355V217.412Z" fill="black" opacity="0.5"/>
    <path d="M691.883 345.767C683.158 348.218 655.577 354.764 625.419 342.647C607.685 335.393 592.276 323.421 580.864 308.031C580.252 307.191 579.934 306.692 579.73 306.454C571.425 293.44 571.788 274.595 579.321 262.568C579.616 262.092 579.9 261.649 580.149 261.229C582.192 288.017 593.662 302.074 598.189 306.976C620.7 331.346 659.888 333.196 677.417 333.627C678.518 336.77 682.285 340.82 691.883 345.767Z" fill="black" opacity="0.5"/>
    <path d="M276.883 65.6953C276.622 68.6111 276.225 72.8999 275.828 78.1757C275.828 79.3103 275.76 80.4448 275.749 80.7058C275.532 86.5212 276.089 92.3396 277.405 98.0082C277.746 99.1428 277.972 100.277 278.256 101.208C279.538 105.111 292.427 111.419 304.352 111.861C316.276 112.304 322.153 101.48 317.751 95.8979C316.253 93.6723 315.183 91.1866 314.597 88.5685C313.676 85.0911 312.997 81.5541 312.566 77.9828C312.248 75.8838 312.157 74.579 312.157 74.579L304.125 65.2755L282.023 62.0986C281.796 65.8314 280.457 68.3275 279.118 68.4183C277.78 68.509 277.019 66.3306 276.849 65.752" fill="#FFCB9D"/>
    <path d="M276.883 65.6952C276.622 68.6111 276.225 72.8999 275.828 78.1757C275.828 79.3102 275.76 80.4448 275.749 80.7058C275.532 86.5212 276.089 92.3395 277.405 98.0082C278.892 97.7212 280.319 97.1841 281.626 96.4198C283.074 95.5854 284.303 94.4188 285.211 93.016C286.223 91.5666 286.99 89.9605 287.48 88.2621C287.869 87.1697 288.195 86.056 288.456 84.9264C296.544 88.9662 305.756 90.1652 314.608 88.3302C313.69 84.8516 313.008 81.315 312.566 77.7445C312.248 75.6455 312.157 74.3408 312.157 74.3408L304.125 65.0485L282.023 61.8604C281.785 65.6045 280.446 68.1006 279.107 68.1913C277.768 68.2821 277.076 66.2966 276.906 65.7179" fill="black" opacity="0.1"/>
    <path d="M272.79 69.1103C272.053 72.8885 269.727 73.3991 270.192 75.7477C270.759 78.3005 274.617 80.3881 276.466 82.3396C276.872 82.7936 277.251 83.271 277.601 83.7692C277.771 83.9882 277.912 84.2285 278.02 84.4839C279.318 86.589 280.074 88.9822 280.222 91.4503C281.444 90.3292 282.286 88.8532 282.627 87.2296C282.848 84.6134 282.848 81.9832 282.627 79.367C282.661 79.2638 282.661 79.1525 282.627 79.0493L282.718 77.9828C282.748 76.7689 282.915 75.5623 283.217 74.3861L283.274 74.2613L284.125 74.7038C285.679 75.5434 288.527 77.0638 291.987 78.6295C300.417 82.4757 312.41 86.5716 317.606 81.8857C318.421 81.1699 319.125 80.3362 319.694 79.4124C320.374 78.3503 320.725 77.1109 320.703 75.8498C320.465 71.2093 313.896 69.4394 314.168 65.2641C314.373 62.473 317.368 61.9965 317.13 59.455C316.891 56.9136 313.601 54.3381 310.572 53.9977C308.302 53.7935 307.928 54.9961 305.795 54.8146C302.119 54.4742 301.79 50.5713 298.069 50.0153C295.709 49.8948 293.369 50.4879 291.352 51.7172C289.684 52.761 289.287 53.4985 287.483 54.1452C286.1 54.5512 284.655 54.7049 283.217 54.599C280.119 54.3721 279.711 53.385 278.054 53.4644C275.139 53.8275 272.574 56.7888 271.792 59.75C270.929 63.5963 273.607 64.901 272.79 69.1103Z" fill="#232B41"/>
    <path d="M281.07 69.8704C281.35 71.4954 282.146 72.9872 283.339 74.125L284.236 74.7604C285.79 75.6 288.649 77.1203 292.098 78.6974C300.54 82.5323 312.521 86.6395 317.729 81.9423C318.546 81.229 319.251 80.3949 319.816 79.4689C316.856 79.8864 313.864 80.0496 310.876 79.9568C300.186 79.4872 289.849 75.9892 281.07 69.8704Z" fill="black" opacity="0.5"/>
    <path d="M362.647 232.025C348.828 249.611 335.001 267.193 321.167 284.772L313.1 282.673C317.109 269.353 321.118 256.029 325.127 242.701L294.697 246.582L297.057 213.395L306.134 212.714L362.647 232.025Z" fill="black" opacity="0.1"/>
    <path d="M531.066 305.002C516.977 307.577 502.507 307.191 488.576 303.867C442.977 292.759 420.909 253.06 416.598 244.869C417.562 245.822 481.303 308.212 531.066 305.002Z" fill="black" opacity="0.1"/>
    <path d="M426.638 417.548V395.609C426.596 394.999 426.324 394.426 425.876 394.009C425.429 393.591 424.839 393.358 424.227 393.358C423.615 393.358 423.025 393.591 422.578 394.009C422.13 394.426 421.858 394.999 421.816 395.609V417.546L414.374 410.089C413.436 409.149 411.913 409.148 410.973 410.086C410.032 411.025 410.031 412.548 410.969 413.488L424.219 426.764L437.483 413.513C438.423 412.574 438.424 411.051 437.485 410.111C436.546 409.172 435.023 409.171 434.083 410.11L426.638 417.548Z" fill="#066FD1"/>
    <path d="M464.362 410.246L464.543 413.649L464.623 418.562L464.532 423.35V424.553L464.214 428.898C462.342 448.277 454.048 456.616 434.658 458.488L429.122 458.851L424.277 458.942L418.286 458.806L413.895 458.499C411.489 458.266 409.253 457.933 407.179 457.492C404.661 459.54 401.15 460.66 396.378 461.12L395.141 461.234L393.848 461.302H386.881L385.577 461.234L384.34 461.12C373.629 460.088 369.273 455.731 368.24 445.02L368.127 443.784L368.059 442.479V435.513L368.127 434.219L368.24 432.983C369.258 422.422 373.508 418.028 383.894 416.917L383.954 413.717V412.515L384.26 408.169C386.144 388.779 394.437 380.451 413.827 378.568L419.364 378.205L421.735 378.148H426.694L430.188 378.262L434.59 378.568C453.969 380.451 462.308 388.734 464.18 408.135L464.362 410.246ZM389.295 416.69H393.848L395.141 416.769L396.378 416.871C407.088 417.904 411.445 422.272 412.489 432.983L412.561 433.856H438.098C438.68 433.842 439.234 433.604 439.646 433.192C440.058 432.78 440.296 432.226 440.31 431.644V427.026C440.309 426.709 440.37 426.395 440.49 426.102C440.61 425.809 440.787 425.542 441.01 425.318C441.234 425.093 441.5 424.915 441.792 424.793C442.085 424.672 442.398 424.609 442.715 424.609C443.345 424.624 443.944 424.886 444.384 425.338C444.823 425.79 445.067 426.396 445.064 427.026V431.644C445.064 433.507 444.324 435.295 443.008 436.614C441.691 437.933 439.905 438.675 438.041 438.678H412.67V442.479L412.591 443.784L412.489 445.02C412.194 448.047 411.634 450.566 410.742 452.646C411.897 452.825 413.11 452.975 414.383 453.099L419.614 453.439L424.277 453.519L430.018 453.394L434.17 453.087C450.974 451.465 457.214 445.225 458.836 428.388L459.143 424.224V423.202L459.211 418.539L459.075 412.776L458.78 408.623C457.157 391.809 450.917 385.58 434.08 383.946L428.849 383.606L425.377 383.526H421.872L418.468 383.628L414.315 383.923C397.512 385.557 391.272 391.786 389.638 408.634L389.343 412.798V413.819L389.295 416.69Z" fill="#066FD1"/>
    <path d="M401.257 442.649C400.878 442.649 400.514 442.8 400.246 443.068C399.978 443.336 399.827 443.7 399.827 444.079V446.813C399.827 447.162 399.689 447.497 399.442 447.744C399.195 447.991 398.86 448.129 398.511 448.129H382.048C381.699 448.129 381.365 447.991 381.118 447.744C380.871 447.497 380.732 447.162 380.732 446.813V444.079C380.732 443.7 380.582 443.336 380.314 443.068C380.045 442.8 379.682 442.649 379.303 442.649C378.923 442.649 378.56 442.8 378.292 443.068C378.024 443.336 377.873 443.7 377.873 444.079V446.813C377.873 447.921 378.313 448.982 379.096 449.765C379.879 450.549 380.941 450.988 382.048 450.988H398.511C399.618 450.988 400.68 450.549 401.463 449.765C402.246 448.982 402.686 447.921 402.686 446.813V444.079C402.688 443.891 402.652 443.704 402.581 443.53C402.509 443.356 402.404 443.198 402.271 443.065C402.138 442.932 401.98 442.826 401.806 442.755C401.632 442.684 401.445 442.648 401.257 442.649Z" fill="white"/>
    <path d="M390.251 443.886L398.125 436.012C398.258 435.879 398.363 435.721 398.434 435.547C398.506 435.373 398.542 435.186 398.542 434.998C398.541 434.81 398.503 434.624 398.431 434.451C398.359 434.277 398.253 434.119 398.119 433.987C397.986 433.854 397.828 433.749 397.654 433.678C397.48 433.606 397.294 433.57 397.105 433.57C396.917 433.571 396.731 433.608 396.558 433.681C396.384 433.753 396.227 433.859 396.094 433.992L391.681 438.417V425.404C391.681 425.025 391.53 424.661 391.262 424.393C390.994 424.125 390.63 423.974 390.251 423.974C389.872 423.974 389.508 424.125 389.24 424.393C388.972 424.661 388.821 425.025 388.821 425.404V438.417L384.396 433.992C384.125 433.745 383.768 433.611 383.4 433.62C383.033 433.628 382.683 433.778 382.423 434.038C382.163 434.298 382.013 434.648 382.004 435.016C381.996 435.384 382.129 435.74 382.377 436.012L390.251 443.886Z" fill="white"/>
    <path d="M245.47 148.792C243.379 146.676 241.062 144.796 238.56 143.187C236.993 144.988 235.538 146.882 234.203 148.86C237.868 150.717 240.891 153.629 242.883 157.222C245.092 161.272 245.89 165.943 245.152 170.497C247.361 166.631 250.129 163.114 253.366 160.059C251.389 155.884 248.719 152.075 245.47 148.792Z" fill="black" opacity="0.1"/>
    <path d="M346.367 138.853C340.755 147.261 333.466 154.419 324.958 159.877C323.962 158.703 323.127 157.402 322.473 156.008C322.19 155.4 321.944 154.774 321.736 154.136C319.632 162.123 318.044 170.237 316.982 178.428C315.923 185.608 315.457 192.864 315.586 200.121C315.707 204.967 316.12 209.802 316.823 214.598L302.89 215.857C292.055 216.799 286.632 217.276 283.239 217.537C276.227 218.07 266.22 218.671 253.592 218.739C256.029 206.398 257.422 193.873 257.756 181.298C258.004 172.386 257.713 163.467 256.883 154.59L256.996 154.964C257.376 156.173 257.435 157.459 257.166 158.697C256.783 160.354 255.851 161.833 254.523 162.895C252.488 157.643 249.399 152.862 245.446 148.849C242.636 146.002 239.42 143.586 235.904 141.678C236.642 140.782 247.67 127.689 257.7 123.854C262.626 122.131 267.679 120.792 272.812 119.849C273.289 119.758 273.777 119.668 274.242 119.599C280.145 118.662 286.095 118.056 292.066 117.784C295.685 117.569 299.52 117.5 299.52 117.5C301.449 117.5 303.412 117.5 305.432 117.5H307.701C307.701 117.5 309.698 117.5 311.207 117.625C315.235 117.991 319.222 118.72 323.12 119.804C328.838 121.562 338.062 127.927 346.367 138.853Z" fill="#066FD1"/>
    <path d="M307.86 118.158C307.723 121.562 298.057 124.728 290.841 124.728C282.672 124.728 275.853 122.459 274.23 119.52C280.026 118.361 285.894 117.603 291.794 117.251C296.071 117.001 300.076 116.979 303.786 117.103L307.723 117.444C307.813 117.671 307.859 117.914 307.86 118.158Z" fill="#FFCB9D"/>
    <path d="M316.822 214.598L302.946 215.823C292.099 216.765 286.676 217.23 283.283 217.503C276.272 218.036 266.265 218.637 253.637 218.705C256.076 206.345 257.469 193.801 257.801 181.207C258.049 172.299 257.757 163.384 256.927 154.51C256.927 154.51 272.607 208.517 316.822 214.598Z" fill="black" opacity="0.1"/>
    <path d="M270.112 232.536C269.668 233.723 269.053 234.84 268.285 235.849C267.257 237.354 265.82 238.535 264.144 239.253L258.857 239.718C252.832 240.206 221.053 212.488 224.593 176.102C225.196 169 227.119 162.074 230.266 155.679C230.753 154.692 231.287 153.671 231.865 152.672C232.637 151.334 233.431 150.063 234.237 148.872C235.574 146.895 237.029 145.001 238.593 143.199C241.098 144.8 243.416 146.676 245.503 148.792C248.749 152.075 251.416 155.884 253.388 160.059C252.64 160.785 251.879 161.556 251.119 162.385C248.824 164.844 246.828 167.567 245.174 170.497C242.987 174.312 241.724 178.586 241.487 182.977C241.425 184.295 241.47 185.615 241.623 186.926C242.644 196.399 248.703 204.466 255.011 211.319L262.079 218.637C268.172 223.278 271.292 229.098 270.112 232.536Z" fill="#FFCB9D"/>
    <path d="M253.355 160.07C252.606 160.796 251.846 161.568 251.086 162.396C248.057 159.264 240.035 152.445 230.232 155.668C230.72 154.681 231.254 153.659 231.832 152.661C232.604 151.322 233.398 150.051 234.203 148.86C235.541 146.884 236.996 144.989 238.56 143.187C241.065 144.788 243.382 146.664 245.47 148.781C248.718 152.07 251.385 155.888 253.355 160.07Z" fill="black" opacity="0.1"/>
    <path d="M440.276 176.862C439.429 176.413 438.438 176.318 437.521 176.599C436.604 176.88 435.836 177.513 435.386 178.359L427.932 192.371L415.939 153.943C415.655 153.028 415.019 152.264 414.171 151.818C413.323 151.372 412.333 151.282 411.418 151.566C410.503 151.85 409.739 152.487 409.293 153.335C408.847 154.182 408.756 155.173 409.041 156.087L420.999 194.368L407.123 186.993C406.705 186.77 406.248 186.631 405.776 186.584C405.304 186.538 404.828 186.585 404.375 186.722C403.921 186.86 403.499 187.085 403.132 187.386C402.766 187.686 402.462 188.056 402.239 188.474C402.015 188.892 401.876 189.35 401.83 189.822C401.783 190.293 401.83 190.769 401.968 191.223C402.105 191.677 402.331 192.099 402.631 192.465C402.932 192.831 403.302 193.135 403.72 193.358L428.544 206.565L441.762 181.695C442.2 180.856 442.29 179.878 442.012 178.973C441.734 178.068 441.11 177.31 440.276 176.862Z" fill="white"/>
    <path d="M423.087 172.142C422.287 173.96 421.07 175.565 419.536 176.828C417.594 178.416 415.4 179.67 413.046 180.538C401.905 184.917 384.977 184.52 375.514 183.465C370.564 183.023 365.676 182.049 360.935 180.56C358.615 179.771 356.342 178.851 354.127 177.803C349.977 175.877 346.028 173.543 342.339 170.837C337.151 167.025 332.469 162.568 328.406 157.574C330.732 155.878 332.959 154.053 335.078 152.105C338.363 149.082 341.367 145.767 344.052 142.2C344.971 143.562 345.89 144.821 346.809 146.001C355.443 157.154 363.567 160.751 369.592 161.885C381.028 163.996 403.323 160.751 409.461 159.752L410.176 159.639C412.207 159.221 414.274 159.008 416.348 159.003C417.45 158.958 418.549 159.135 419.581 159.525C420.612 159.915 421.554 160.509 422.35 161.273C424.71 163.927 424.528 168.795 423.087 172.142Z" fill="#FFCB9D"/>
    <path d="M342.317 170.803C337.13 166.99 332.448 162.534 328.385 157.54C330.71 155.844 332.937 154.018 335.056 152.071C338.342 149.048 341.346 145.733 344.031 142.166C344.95 143.528 345.869 144.787 346.788 145.967C343.656 150.925 338.902 160.773 342.317 170.803Z" fill="black" opacity="0.1"/>
    <path d="M307.86 118.158C307.723 121.562 298.057 124.728 290.841 124.728C282.672 124.728 275.853 122.459 274.23 119.52C280.026 118.361 285.894 117.603 291.794 117.251C296.071 117.001 300.076 116.979 303.786 117.103L307.723 117.444C307.813 117.671 307.859 117.914 307.86 118.158Z" fill="black" opacity="0.1"/>
</svg>
