<svg xmlns="http://www.w3.org/2000/svg" width="800" height="600" fill="none" viewBox="0 0 800 600">
    <path d="M146.096 308.287C146.096 353.698 194.162 386.744 215.396 423.467C237.278 461.391 242.626 519.155 280.418 541.146C317.153 562.428 369.45 538.659 414.861 538.659C460.272 538.659 512.605 562.428 549.292 541.146C587.096 519.276 592.444 461.391 614.314 423.467C635.595 386.744 683.614 353.77 683.614 308.287C683.614 262.803 635.475 229.83 614.314 193.143C592.444 155.182 587.108 97.2977 549.292 75.3792C512.557 54.0977 460.26 77.8667 414.849 77.8667C369.438 77.8667 317.141 54.1457 280.406 75.3792C242.494 97.2496 237.266 155.134 215.384 193.059C194.162 229.95 146.096 262.84 146.096 308.287Z" fill="#066FD1" opacity="0.02"/>
    <path d="M182.469 511.717C182.469 514.781 282.207 517.317 405.294 517.317C528.381 517.317 628.12 514.781 628.12 511.717C628.12 508.653 528.381 506.249 405.294 506.249C282.207 506.249 182.469 508.797 182.469 511.717Z" fill="#D6D8E2" opacity="0.5"/>
    <path d="M569.227 264.762H447.27V196.423H489.773C490.104 196.423 490.422 196.292 490.657 196.057C490.891 195.823 491.023 195.505 491.023 195.174C491.023 194.842 490.891 194.524 490.657 194.29C490.422 194.055 490.104 193.924 489.773 193.924H447.27V126.835H489.773C490.436 126.835 491.072 126.571 491.54 126.103C492.009 125.634 492.272 124.998 492.272 124.335C492.272 123.672 492.009 123.037 491.54 122.568C491.072 122.099 490.436 121.836 489.773 121.836H447.27V98.5955C447.27 98.264 447.138 97.9462 446.904 97.7118C446.67 97.4774 446.352 97.3457 446.02 97.3457C445.689 97.3457 445.371 97.4774 445.137 97.7118C444.902 97.9462 444.77 98.264 444.77 98.5955V121.836H377.681V98.5955C377.637 97.961 377.354 97.3668 376.889 96.9328C376.424 96.4989 375.812 96.2576 375.176 96.2576C374.54 96.2576 373.927 96.4989 373.462 96.9328C372.997 97.3668 372.714 97.961 372.67 98.5955V121.836H305.581V51.2497C305.581 50.9183 305.45 50.6004 305.215 50.366C304.981 50.1317 304.663 50 304.331 50C304 50 303.682 50.1317 303.448 50.366C303.213 50.6004 303.082 50.9183 303.082 51.2497V121.836H235.993V98.5955C235.993 97.9326 235.729 97.2968 235.261 96.8281C234.792 96.3593 234.156 96.096 233.493 96.096C232.83 96.096 232.194 96.3593 231.726 96.8281C231.257 97.2968 230.994 97.9326 230.994 98.5955V121.836H196.758C196.095 121.836 195.459 122.099 194.991 122.568C194.522 123.037 194.259 123.672 194.259 124.335C194.259 124.998 194.522 125.634 194.991 126.103C195.459 126.571 196.095 126.835 196.758 126.835H230.994V193.924H196.758C196.427 193.924 196.109 194.055 195.874 194.29C195.64 194.524 195.508 194.842 195.508 195.174C195.508 195.505 195.64 195.823 195.874 196.057C196.109 196.292 196.427 196.423 196.758 196.423H230.994V264.762H117.256C116.923 264.762 116.603 264.894 116.368 265.13C116.132 265.365 116 265.685 116 266.018C116 266.351 116.132 266.67 116.368 266.906C116.603 267.141 116.923 267.274 117.256 267.274H230.97V335.613H196.758C196.427 335.613 196.109 335.744 195.874 335.979C195.64 336.213 195.508 336.531 195.508 336.862C195.508 337.194 195.64 337.512 195.874 337.746C196.109 337.98 196.427 338.112 196.758 338.112H230.994V366.82C230.994 367.483 231.257 368.119 231.726 368.587C232.194 369.056 232.83 369.319 233.493 369.319C234.156 369.319 234.792 369.056 235.261 368.587C235.729 368.119 235.993 367.483 235.993 366.82V338.112H303.082V460.033C303.082 460.365 303.213 460.683 303.448 460.917C303.682 461.151 304 461.283 304.331 461.283C304.663 461.283 304.981 461.151 305.215 460.917C305.45 460.683 305.581 460.365 305.581 460.033V338.112H372.67V366.82C372.647 367.164 372.694 367.508 372.809 367.833C372.924 368.158 373.105 368.455 373.34 368.707C373.575 368.959 373.859 369.16 374.175 369.297C374.491 369.434 374.831 369.505 375.176 369.505C375.52 369.505 375.861 369.434 376.177 369.297C376.493 369.16 376.777 368.959 377.012 368.707C377.247 368.455 377.428 368.158 377.543 367.833C377.658 367.508 377.705 367.164 377.681 366.82V338.112H444.77V366.82C444.77 367.151 444.902 367.469 445.137 367.704C445.371 367.938 445.689 368.07 446.02 368.07C446.352 368.07 446.67 367.938 446.904 367.704C447.138 367.469 447.27 367.151 447.27 366.82V338.112H489.773C490.104 338.112 490.422 337.98 490.657 337.746C490.891 337.512 491.023 337.194 491.023 336.862C491.023 336.531 490.891 336.213 490.657 335.979C490.422 335.744 490.104 335.613 489.773 335.613H447.27V267.274H569.227C569.56 267.274 569.88 267.141 570.115 266.906C570.351 266.67 570.483 266.351 570.483 266.018C570.483 265.685 570.351 265.365 570.115 265.13C569.88 264.894 569.56 264.762 569.227 264.762ZM444.77 264.762H377.681V196.423H444.77V264.762ZM372.67 264.762H305.581V196.423H372.67V264.762ZM444.77 126.835V193.924H377.681V126.835H444.77ZM372.67 126.835V193.924H305.581V126.835H372.67ZM235.993 126.835H303.082V193.924H235.993V126.835ZM235.993 196.423H303.082V264.762H235.993V196.423ZM235.993 335.613V267.274H303.082V335.613H235.993ZM305.581 335.613V267.274H372.67V335.613H305.581ZM444.77 335.613H377.681V267.274H444.77V335.613Z" fill="#A6A9B3"/>
    <path d="M410.871 177.521C410.554 171.893 408.093 166.601 403.994 162.732C399.895 158.863 394.469 156.711 388.832 156.72H285.969H284.684C279.078 157.06 273.813 159.526 269.963 163.614C266.113 167.703 263.969 173.107 263.967 178.723V281.598V282.883C264.28 288.513 266.74 293.809 270.84 297.681C274.939 301.552 280.367 303.705 286.005 303.696H388.832H390.13C395.74 303.368 401.012 300.908 404.868 296.82C408.724 292.732 410.871 287.325 410.871 281.706V178.723V177.521ZM330.083 200.857L330.143 199.992C330.349 198.202 331.206 196.55 332.551 195.351C333.896 194.152 335.635 193.489 337.437 193.489C339.239 193.489 340.978 194.152 342.323 195.351C343.668 196.55 344.525 198.202 344.731 199.992L344.791 200.857V230.238L344.731 231.103C344.525 232.894 343.668 234.546 342.323 235.745C340.978 236.944 339.239 237.607 337.437 237.607C335.635 237.607 333.896 236.944 332.551 235.745C331.206 234.546 330.349 232.894 330.143 231.103L330.083 230.238V200.857ZM338.374 266.949H337.437H336.584C334.793 266.743 333.141 265.886 331.942 264.541C330.743 263.196 330.08 261.457 330.08 259.655C330.08 257.853 330.743 256.114 331.942 254.769C333.141 253.424 334.793 252.567 336.584 252.361H337.521H338.374C340.164 252.567 341.816 253.424 343.016 254.769C344.215 256.114 344.878 257.853 344.878 259.655C344.878 261.457 344.215 263.196 343.016 264.541C341.816 265.886 340.164 266.743 338.374 266.949Z" fill="#066FD1"/>
    <path d="M338.362 266.865H337.425H336.572C334.782 266.659 333.13 265.802 331.93 264.457C330.731 263.112 330.068 261.373 330.068 259.571C330.068 257.769 330.731 256.03 331.93 254.685C333.13 253.34 334.782 252.483 336.572 252.277H337.509H338.362C340.153 252.483 341.805 253.34 343.004 254.685C344.203 256.03 344.866 257.769 344.866 259.571C344.866 261.373 344.203 263.112 343.004 264.457C341.805 265.802 340.153 266.659 338.362 266.865Z" fill="white"/>
    <path d="M344.79 200.797V230.178L344.73 231.043C344.525 232.834 343.667 234.486 342.322 235.685C340.977 236.884 339.238 237.547 337.436 237.547C335.634 237.547 333.895 236.884 332.55 235.685C331.205 234.486 330.348 232.834 330.142 231.043L330.082 230.178V200.797L330.142 199.932C330.348 198.142 331.205 196.49 332.55 195.291C333.895 194.091 335.634 193.429 337.436 193.429C339.238 193.429 340.977 194.091 342.322 195.291C343.667 196.49 344.525 198.142 344.73 199.932L344.79 200.797Z" fill="white"/>
    <path d="M410.162 173.231V257.108C401.005 240.801 387.078 212.466 386.297 189.814C385.756 174.457 378.978 164.267 371.732 157.73H394.708C396.742 157.73 398.755 158.131 400.633 158.911C402.511 159.69 404.217 160.833 405.653 162.273C407.088 163.713 408.226 165.422 408.999 167.303C409.773 169.183 410.168 171.198 410.162 173.231Z" fill="black" opacity="0.1"/>
    <path d="M591.194 490.808L579.874 491.301C576.67 473.556 572.929 455.131 568.651 436.024C564.373 416.917 559.802 398.72 554.94 381.432C550.085 417.827 545.226 454.221 540.363 490.616L529.885 489.294C526.969 440.33 524.053 391.358 521.137 342.378H588.767C589.576 391.895 590.385 441.371 591.194 490.808Z" fill="#066FD1"/>
    <path d="M554.94 381.468C550.085 417.863 545.226 454.257 540.363 490.652L529.885 489.33C526.969 440.366 524.053 391.394 521.137 342.414H546.083L554.94 381.468Z" fill="black" opacity="0.1"/>
    <path d="M516.018 512.222L540.135 508.905C540.135 508.905 540.928 502.56 536.975 500.421C533.021 498.282 519.803 506.43 516.018 512.222Z" fill="#232B41"/>
    <path d="M570.945 515.19L595.063 511.885C595.063 511.885 595.856 505.541 591.902 503.39C587.949 501.239 574.731 509.338 570.945 515.19Z" fill="#232B41"/>
    <path d="M500.827 227.222L499.265 230.479L488.835 252.265C488.835 252.265 482.766 248.275 474.138 242.495C457.086 231.043 430.001 212.61 420.063 204.258C412.853 198.25 403.48 193.215 400.836 182.748C398.433 173.135 401.677 161.575 405.643 161.118C409.248 160.686 413.766 168.905 417.299 180.069L471.603 210.759L499.241 226.381L500.827 227.222Z" fill="#FFCB9D"/>
    <path d="M499.265 226.333V230.479L488.835 252.265C488.835 252.265 482.766 248.275 474.138 242.495C470.87 230.995 471.134 217.861 471.639 210.711L499.265 226.333Z" fill="black" opacity="0.1"/>
    <path d="M569.372 161.058C569.372 164.567 569.372 169.698 569.167 176.031C569.107 177.425 569.059 178.663 569.047 179.059C568.583 186.008 567.247 192.872 565.07 199.488C564.613 200.785 564.156 202.023 563.628 203.237C561.645 207.671 545.603 213.775 531.351 212.85C517.099 211.925 511.331 198.43 517.183 192.266C519.215 189.763 520.779 186.913 521.798 183.854C523.293 179.832 524.498 175.707 525.403 171.513C525.991 169.109 526.256 167.547 526.256 167.547L536.939 157.369L563.676 156.059C563.58 160.578 564.877 163.63 566.367 163.846C567.858 164.062 569.083 161.587 569.372 161.058Z" fill="#FFCB9D"/>
    <path d="M569.373 161.058C569.373 164.567 569.373 169.698 569.169 176.031C569.109 177.425 569.061 178.663 569.049 179.059C568.586 186.009 567.25 192.872 565.071 199.488C563.306 199.005 561.65 198.189 560.192 197.084C558.602 195.876 557.267 194.365 556.263 192.638C555.243 190.783 554.517 188.78 554.112 186.702C553.776 185.369 553.523 184.016 553.355 182.652C543.289 186.556 532.206 186.979 521.871 183.854C523.359 179.829 524.564 175.706 525.476 171.513C526.065 169.109 526.329 167.547 526.329 167.547L537 157.369L563.761 156.059C563.665 160.566 564.963 163.63 566.429 163.846C567.895 164.062 569.085 161.587 569.373 161.058Z" fill="black" opacity="0.1"/>
    <path d="M510.202 165.432C511.115 167.213 512.219 168.889 513.494 170.431C515.075 172.459 516.941 174.248 519.034 175.743C528.467 182.508 542.587 182.22 554.796 174.769C556.872 173.506 558.841 172.075 560.684 170.491C560.695 170.531 560.695 170.572 560.684 170.612C560.828 172.061 560.864 173.519 560.792 174.974C560.792 175.659 560.792 175.851 560.792 176.295L560.732 176.74C560.732 177.545 559.53 183.109 559.831 186.113C560.067 188.088 560.906 189.943 562.234 191.424C562.68 188.486 563.853 185.706 565.647 183.337C566.354 182.513 567.113 181.735 567.918 181.006C571.69 176.781 573.792 171.325 573.83 165.661C573.817 163.339 573.448 161.033 572.737 158.823C572.34 157.357 570.61 152.106 567.113 149.342C559.903 143.634 543.476 147.624 535.425 150.796C534.007 151.373 531.567 152.418 529.416 151.998C528.987 151.914 528.579 151.747 528.215 151.505C525.932 150.015 525.595 146.314 526.1 143.922C527.061 139.296 531.928 135.691 538.417 134.597C524.165 131.99 511.428 139.56 508.243 150.219C506.873 155.351 507.577 160.815 510.202 165.432Z" fill="#232B41"/>
    <path d="M510.201 165.432C511.114 167.213 512.218 168.889 513.494 170.431C515.075 172.459 516.941 174.248 519.033 175.743C528.467 182.508 542.586 182.22 554.795 174.769C557.739 172.618 560.251 170.78 560.683 170.491L564.709 166.55C558.063 170.232 550.803 172.675 543.283 173.76C536.626 174.685 527.397 176.019 518.048 171.2C515.159 169.681 512.514 167.737 510.201 165.432Z" fill="black" opacity="0.5"/>
    <path d="M583.082 264.173C582.796 275.857 584.037 287.527 586.771 298.89C591.095 316.706 598.975 333.464 609.939 348.158C584.86 346.596 569.022 346.211 559.024 346.175C556.801 346.175 547.801 346.175 534.643 346.067L517.411 345.875C517.411 345.022 517.519 344.144 517.555 343.207C517.798 338.094 517.778 332.972 517.495 327.862C516.846 316.278 514.959 308.936 513.613 301.269C511.572 289.464 510.73 277.482 511.102 265.507C503.892 264.762 496.722 264.033 489.592 263.32C487.668 258.937 486.121 254.398 484.966 249.753C482.057 238.017 481.647 225.8 483.764 213.896C489.473 217.607 495.647 220.548 502.125 222.644C507.229 224.521 512.601 225.567 518.035 225.744C519.165 225.744 520.343 225.696 521.568 225.6L522.313 225.528C523.987 225.349 525.649 225.068 527.288 224.687C530.923 224.226 534.584 224.005 538.248 224.026C545.134 223.17 552.077 222.861 559.012 223.1C559.998 223.1 560.959 223.172 561.908 223.233C570.006 223.576 578.039 224.826 585.858 226.958C597.984 230.801 609.163 237.16 618.663 245.62C613.166 249.18 608.372 253.722 604.52 259.018C601.253 263.53 598.704 268.52 596.961 273.811L583.082 264.173Z" fill="#DADBE0"/>
    <path d="M609.939 348.158C584.86 346.596 569.022 346.211 559.024 346.175C556.801 346.175 547.8 346.175 534.642 346.067L517.41 345.875C517.41 345.022 517.518 344.144 517.554 343.207C566.522 320.075 583.105 264.173 583.105 264.173C582.812 275.856 584.044 287.526 586.77 298.89C591.094 316.706 598.975 333.464 609.939 348.158Z" fill="black" opacity="0.1"/>
    <path d="M638.659 384.977L627.147 367.865C626.694 367.198 625.995 366.737 625.203 366.581C624.411 366.426 623.59 366.59 622.918 367.036L619.733 369.175L612.451 374.066C611.785 374.524 611.326 375.226 611.173 376.019C611.02 376.813 611.185 377.635 611.634 378.308L623.158 395.396C618.904 396.029 614.559 395.383 610.673 393.541C606.787 391.699 603.537 388.743 601.334 385.05C599.132 381.356 598.077 377.091 598.305 372.797C598.532 368.503 600.03 364.373 602.609 360.932L600.206 357.327L597.803 353.722L586.663 337.151L585.69 335.721L557.811 294.395C553.65 295.483 549.259 295.311 545.195 293.899C541.132 292.488 537.579 289.902 534.988 286.469C532.397 283.035 530.884 278.91 530.64 274.615C530.397 270.321 531.435 266.051 533.622 262.347L545.134 279.471C545.355 279.803 545.64 280.089 545.972 280.311C546.305 280.532 546.678 280.686 547.07 280.763C547.462 280.84 547.865 280.839 548.257 280.76C548.649 280.68 549.021 280.524 549.351 280.3L559.794 273.282C560.464 272.83 560.927 272.131 561.083 271.338C561.238 270.546 561.073 269.723 560.623 269.052L549.123 251.94C553.377 251.315 557.721 251.966 561.604 253.812C565.488 255.658 568.736 258.615 570.937 262.309C573.137 266.003 574.192 270.267 573.967 274.561C573.742 278.855 572.247 282.985 569.672 286.428L597.574 327.814L601.528 333.738L609.423 345.49L614.434 352.941C618.594 351.859 622.982 352.036 627.042 353.449C631.102 354.862 634.651 357.448 637.241 360.879C639.831 364.31 641.345 368.433 641.591 372.724C641.837 377.016 640.804 381.285 638.623 384.989L638.659 384.977Z" fill="#A6A9B3"/>
    <path d="M638.66 384.977L627.147 367.865C626.694 367.198 625.995 366.737 625.203 366.581C624.411 366.426 623.59 366.59 622.918 367.036L619.733 369.175C613.725 363.936 606.935 359.249 600.158 357.279L597.755 353.674L586.615 337.103C591.688 336.495 596.686 335.368 601.528 333.738L609.423 345.49L614.434 352.941C618.594 351.859 622.982 352.036 627.042 353.449C631.102 354.862 634.651 357.448 637.241 360.879C639.831 364.31 641.345 368.433 641.591 372.724C641.837 377.016 640.804 381.284 638.623 384.989L638.66 384.977Z" fill="black" opacity="0.1"/>
    <path d="M642.386 289.048C643.587 319.955 601.697 339.35 586.7 339.061C584.405 339.061 579.346 338.905 576.318 335.288C575.163 333.91 574.405 332.243 574.128 330.466C573.851 328.689 574.063 326.871 574.744 325.206C576.847 320.844 582.843 320.099 587.001 319.078C601.721 315.473 617.367 302.254 617.751 291.235C617.992 284.53 612.512 278.654 607.285 274.592C604.57 272.498 601.688 270.629 598.669 269.004C602.166 261.304 607.363 254.496 613.87 249.092C616.024 250.072 618.1 251.213 620.083 252.505C624.502 255.344 628.437 258.874 631.739 262.96C634.142 265.916 641.893 276.238 642.386 289.048Z" fill="#FFCB9D"/>
    <path d="M620.107 252.505C615.3 258.201 609.52 266.445 607.309 274.592C604.594 272.498 601.713 270.629 598.693 269.004C602.191 261.304 607.388 254.496 613.894 249.092C616.048 250.072 618.125 251.213 620.107 252.505Z" fill="black" opacity="0.1"/>
    <path d="M559.002 223.1C557.741 227.126 549.629 230.238 539.776 230.238C532.061 230.238 525.356 228.316 522.279 225.528C527.915 224.675 534.068 223.966 540.653 223.533C547.238 223.1 553.342 222.992 559.002 223.1Z" fill="#FFCB9D"/>
    <path d="M401.282 430.785C390.807 430.775 380.743 434.855 373.232 442.157C365.722 449.458 361.359 459.404 361.074 469.875V471.005V472.302C361.329 480.198 363.903 487.843 368.476 494.285C373.049 500.727 379.417 505.679 386.786 508.525C394.156 511.37 402.2 511.982 409.915 510.285C417.63 508.588 424.674 504.656 430.169 498.981C435.664 493.305 439.366 486.137 440.813 478.371C442.259 470.605 441.387 462.585 438.305 455.312C435.223 448.038 430.067 441.833 423.481 437.472C416.895 433.11 409.17 430.784 401.27 430.785H401.282ZM401.787 491.084H401.282H400.813C399.831 490.976 398.923 490.51 398.263 489.773C397.603 489.037 397.238 488.083 397.238 487.095C397.238 486.106 397.603 485.153 398.263 484.416C398.923 483.68 399.831 483.213 400.813 483.105H401.33H401.787C402.769 483.213 403.678 483.68 404.337 484.416C404.997 485.153 405.362 486.106 405.362 487.095C405.362 488.083 404.997 489.037 404.337 489.773C403.678 490.51 402.769 490.976 401.787 491.084ZM401.787 474.994C400.727 475.119 399.661 474.819 398.823 474.159C397.985 473.499 397.443 472.533 397.317 471.473V471.005V454.914V454.446C397.425 453.46 397.893 452.549 398.631 451.887C399.37 451.225 400.327 450.859 401.318 450.859C402.31 450.859 403.266 451.225 404.005 451.887C404.743 452.549 405.211 453.46 405.32 454.446V454.914V471.005V471.473C405.31 471.62 405.282 471.766 405.236 471.906C405.045 472.717 404.607 473.45 403.983 474.003C403.359 474.556 402.579 474.902 401.751 474.994H401.787Z" fill="#232B41"/>
    <path d="M439.122 484.668C435.949 493.47 429.806 500.891 421.751 505.652C413.696 510.414 404.233 512.217 394.991 510.753C385.749 509.288 377.307 504.648 371.119 497.629C364.93 490.611 361.382 481.655 361.086 472.302V471.005V469.875C361.326 461.411 364.229 453.237 369.384 446.519C374.538 439.8 381.68 434.879 389.794 432.455C387.716 438.093 387.313 444.212 388.635 450.073C389.957 455.935 392.947 461.289 397.244 465.489C399.651 467.91 402.315 470.061 405.187 471.906C412.866 476.941 423.813 481.423 439.122 484.668Z" fill="black" opacity="0.3"/>
    <path d="M401.785 491.084H401.28H400.811C399.829 490.976 398.921 490.51 398.261 489.773C397.601 489.037 397.236 488.083 397.236 487.095C397.236 486.106 397.601 485.153 398.261 484.416C398.921 483.68 399.829 483.213 400.811 483.105H401.328H401.785C402.767 483.213 403.675 483.68 404.335 484.416C404.995 485.153 405.36 486.106 405.36 487.095C405.36 488.083 404.995 489.037 404.335 489.773C403.675 490.51 402.767 490.976 401.785 491.084Z" fill="white"/>
    <path d="M405.308 454.914V471.005V471.473C405.2 472.459 404.731 473.37 403.993 474.032C403.255 474.694 402.298 475.06 401.306 475.06C400.315 475.06 399.358 474.694 398.62 474.032C397.881 473.37 397.413 472.459 397.305 471.473V471.005V454.914V454.446C397.413 453.46 397.881 452.549 398.62 451.887C399.358 451.225 400.315 450.859 401.306 450.859C402.298 450.859 403.255 451.225 403.993 451.887C404.731 452.549 405.2 453.46 405.308 454.446V454.914Z" fill="white"/>
    <path d="M367.983 432.455L357 414.971L342.579 392.031L341.846 390.913L341.041 389.856C339.247 387.644 337.022 385.819 334.502 384.491C331.983 383.163 329.22 382.36 326.381 382.129H325.528L324.759 382.033H323.99L272.462 383.499L271.068 383.619C267.645 384.037 264.369 385.259 261.509 387.187C258.65 389.115 256.288 391.693 254.617 394.711L230.332 441.696C228.828 444.889 228.15 448.408 228.36 451.931C228.57 455.454 229.661 458.868 231.533 461.86L245.521 484.115L249.51 490.472L256.949 502.296L257.706 503.414C259.793 506.301 262.577 508.613 265.797 510.136C269.018 511.659 272.571 512.344 276.127 512.126L328.063 512.294L329.493 512.162C332.898 511.799 336.167 510.628 339.029 508.747C341.89 506.866 344.261 504.329 345.944 501.347L368.68 453.749L369.281 452.547C370.762 449.357 371.419 445.846 371.192 442.336C370.966 438.825 369.862 435.428 367.983 432.455ZM282.821 420.162C284.178 419.307 285.802 418.979 287.386 419.24C288.969 419.501 290.401 420.334 291.412 421.58L291.857 422.205L305.808 444.412L306.181 445.097C306.878 446.548 307.017 448.206 306.569 449.753C306.121 451.3 305.119 452.628 303.754 453.483C302.389 454.338 300.757 454.66 299.17 454.388C297.583 454.115 296.151 453.267 295.15 452.006L294.717 451.381L280.766 429.186L280.393 428.514C279.7 427.067 279.565 425.415 280.013 423.874C280.46 422.334 281.46 421.012 282.821 420.162ZM318.39 475.174L317.705 475.655L317.02 476.016C315.571 476.701 313.921 476.831 312.382 476.381C310.844 475.931 309.524 474.932 308.672 473.574C307.821 472.216 307.497 470.593 307.762 469.012C308.027 467.431 308.862 466.002 310.11 464.996L310.783 464.528L311.456 464.143C312.786 463.516 314.288 463.353 315.721 463.68C317.154 464.006 318.437 464.804 319.363 465.946C319.571 466.202 319.755 466.475 319.916 466.763C320.709 468.116 320.991 469.708 320.711 471.251C320.431 472.794 319.608 474.186 318.39 475.174Z" fill="#DADBE0"/>
    <path d="M304.379 453.004C303.708 453.544 302.936 453.948 302.109 454.19C301.282 454.433 300.415 454.51 299.558 454.417C298.701 454.325 297.871 454.064 297.114 453.65C296.358 453.237 295.691 452.678 295.15 452.006L294.718 451.381L280.766 429.187L280.394 428.514C279.719 427.065 279.595 425.42 280.047 423.887C280.498 422.354 281.494 421.039 282.846 420.188C284.199 419.337 285.815 419.009 287.393 419.265C288.97 419.521 290.4 420.344 291.413 421.58L291.858 422.205L305.809 444.412L306.182 445.097C306.811 446.426 306.975 447.928 306.648 449.362C306.321 450.796 305.522 452.078 304.379 453.004Z" fill="white"/>
    <path d="M369.305 452.475L368.705 453.676L345.969 501.275C344.286 504.257 341.915 506.794 339.054 508.675C336.192 510.556 332.923 511.727 329.518 512.09L328.088 512.222L276.152 512.054C272.596 512.272 269.043 511.587 265.822 510.064C262.602 508.541 259.818 506.228 257.731 503.341L256.973 502.224L249.535 490.399C270.512 490.637 291.141 485.032 309.114 474.213C312.868 471.953 316.479 469.465 319.929 466.763C336.938 453.352 349.797 435.394 357.012 414.971L367.996 432.455C369.864 435.419 370.963 438.802 371.192 442.299C371.421 445.795 370.772 449.293 369.305 452.475Z" fill="black" opacity="0.1"/>
    <path d="M318.392 475.174L317.707 475.655L317.022 476.016C315.573 476.701 313.923 476.831 312.384 476.381C310.846 475.931 309.526 474.932 308.674 473.574C307.823 472.216 307.499 470.593 307.764 469.012C308.029 467.431 308.865 466.002 310.113 464.996L310.785 464.528L311.458 464.143C312.909 463.456 314.562 463.325 316.103 463.775C317.644 464.224 318.966 465.223 319.821 466.582C320.675 467.941 321.001 469.566 320.738 471.149C320.475 472.733 319.64 474.165 318.392 475.174Z" fill="white"/>
    <path d="M559.002 223.1C557.741 227.126 549.629 230.238 539.776 230.238C532.061 230.238 525.356 228.316 522.279 225.528C527.915 224.675 534.068 223.966 540.653 223.533C547.238 223.1 553.342 222.992 559.002 223.1Z" fill="black" opacity="0.1"/>
</svg>
