<svg xmlns="http://www.w3.org/2000/svg" width="800" height="600" fill="none" viewBox="0 0 800 600">
    <path d="M555.405 546.334C555.405 548.36 484.979 550 398.098 550C311.218 550 240.813 548.36 240.813 546.334C240.813 544.308 311.218 542.668 398.098 542.668C484.979 542.668 555.405 544.276 555.405 546.334Z" fill="#D6D8E2" opacity="0.5"/>
    <path d="M388.901 546.334C391.367 540.01 401.936 529.633 405.645 530.737C409.354 531.841 409.654 537.758 409.654 537.758L410.887 543.815L403.919 545.744L401.775 541.039L388.901 546.334Z" fill="#232B41"/>
    <path d="M160 312.738C160 353.343 202.942 382.821 221.915 415.644C241.542 449.41 246.205 501.109 280.046 520.693C312.826 539.656 359.519 518.421 400.103 518.421C440.686 518.421 487.433 539.666 520.245 520.693C554.075 501.098 558.835 449.399 578.355 415.558C597.328 382.789 640.302 353.311 640.302 312.738C640.302 272.165 597.371 242.676 578.387 209.832C558.813 175.991 554.108 124.292 520.277 104.697C487.433 85.702 440.74 106.926 400.188 106.926C359.637 106.926 312.879 85.6913 280.132 104.654C246.291 124.249 241.542 175.948 222.001 209.789C203.027 242.58 160.086 272.047 160.086 312.695L160 312.738Z" fill="#066FD1" opacity="0.02"/>
    <path d="M257.407 73.0747L293.37 91.0617C293.595 91.1739 293.839 91.2408 294.089 91.2584C294.34 91.276 294.591 91.2441 294.829 91.1644C295.067 91.0848 295.287 90.959 295.476 90.7942C295.665 90.6294 295.82 90.4289 295.932 90.2042L314.637 52.8151C314.818 52.4728 314.891 52.0838 314.847 51.6992C314.803 51.3146 314.643 50.9524 314.389 50.6601C314.135 50.3679 313.799 50.1594 313.424 50.0619C313.049 49.9643 312.654 49.9825 312.29 50.1138L257.621 69.5158C257.256 69.6362 256.936 69.8632 256.702 70.1674C256.468 70.4717 256.33 70.8393 256.307 71.2226C256.284 71.6058 256.377 71.9873 256.573 72.3174C256.769 72.6476 257.059 72.9114 257.407 73.0747Z" fill="#DDDDDD"/>
    <path d="M386.993 145.173L372.093 153.974C371.636 154.237 371.257 154.616 370.994 155.072C370.731 155.529 370.592 156.046 370.592 156.573C370.592 157.1 370.731 157.618 370.994 158.074C371.257 158.53 371.636 158.909 372.093 159.173L387.175 167.673C387.633 167.93 388.151 168.062 388.676 168.057C389.201 168.051 389.716 167.907 390.169 167.64C390.621 167.374 390.996 166.993 391.255 166.535C391.514 166.078 391.648 165.561 391.645 165.036L391.473 147.724C391.463 147.205 391.318 146.697 391.052 146.25C390.786 145.803 390.409 145.433 389.958 145.176C389.506 144.919 388.995 144.783 388.476 144.783C387.956 144.782 387.445 144.917 386.993 145.173Z" fill="#066FD1"/>
    <path d="M391.463 137.251L391.291 119.94C391.288 119.414 391.422 118.897 391.681 118.44C391.94 117.983 392.315 117.602 392.767 117.335C393.22 117.068 393.735 116.925 394.26 116.919C394.785 116.913 395.303 117.046 395.761 117.303L410.843 125.803C411.3 126.064 411.68 126.44 411.946 126.893C412.212 127.346 412.355 127.862 412.36 128.387C412.366 128.913 412.234 129.431 411.977 129.89C411.72 130.348 411.348 130.732 410.897 131.002L395.986 139.803C395.533 140.069 395.017 140.212 394.491 140.217C393.965 140.222 393.448 140.089 392.989 139.83C392.531 139.572 392.149 139.198 391.881 138.745C391.613 138.292 391.469 137.777 391.463 137.251Z" fill="#066FD1"/>
    <path d="M570.476 322.074C570.032 322.076 569.6 321.933 569.244 321.667C568.801 321.34 568.506 320.85 568.423 320.306C568.341 319.761 568.478 319.206 568.804 318.762C573.316 312.666 577.262 306.172 580.596 299.36C580.715 299.115 580.882 298.895 581.087 298.714C581.291 298.533 581.529 298.393 581.788 298.304C582.046 298.215 582.319 298.178 582.592 298.195C582.865 298.211 583.132 298.281 583.377 298.401C583.623 298.52 583.843 298.687 584.024 298.892C584.205 299.096 584.344 299.335 584.433 299.593C584.522 299.851 584.559 300.125 584.543 300.397C584.526 300.67 584.456 300.937 584.337 301.182C580.885 308.219 576.802 314.929 572.138 321.228C571.947 321.489 571.697 321.702 571.408 321.849C571.119 321.996 570.8 322.073 570.476 322.074ZM590.372 280.666C590.219 280.655 590.067 280.626 589.921 280.58C589.386 280.45 588.923 280.113 588.636 279.643C588.348 279.173 588.259 278.607 588.388 278.072C590.106 271.036 590.98 263.821 590.993 256.579V255.722C590.993 255.17 591.212 254.641 591.602 254.251C591.992 253.861 592.521 253.642 593.073 253.642C593.624 253.642 594.153 253.861 594.543 254.251C594.933 254.641 595.152 255.17 595.152 255.722V256.622C595.138 264.208 594.22 271.764 592.419 279.133C592.299 279.581 592.032 279.976 591.661 280.253C591.289 280.531 590.835 280.677 590.372 280.666ZM589.921 234.937C589.462 234.937 589.016 234.784 588.653 234.503C588.29 234.222 588.031 233.827 587.917 233.383C585.986 226.066 583.306 218.968 579.92 212.201C579.675 211.708 579.635 211.137 579.81 210.615C579.985 210.092 580.36 209.66 580.853 209.414C581.35 209.182 581.917 209.149 582.438 209.323C582.958 209.496 583.392 209.863 583.651 210.347C587.167 217.373 589.948 224.744 591.947 232.343C592.017 232.607 592.033 232.883 591.996 233.154C591.958 233.425 591.868 233.686 591.73 233.922C591.591 234.158 591.407 234.365 591.189 234.53C590.971 234.694 590.722 234.815 590.457 234.883C590.282 234.923 590.102 234.941 589.921 234.937ZM513.535 220.348C510.989 220.35 508.459 219.959 506.032 219.19C502.418 218.01 499.099 216.069 496.299 213.498C495.889 213.129 495.643 212.612 495.615 212.061C495.587 211.51 495.779 210.97 496.148 210.561C496.518 210.152 497.035 209.906 497.586 209.878C498.137 209.85 498.676 210.041 499.086 210.411C501.442 212.572 504.235 214.203 507.275 215.192C510.975 216.332 514.911 216.469 518.681 215.588C518.951 215.52 519.233 215.507 519.509 215.55C519.784 215.592 520.049 215.69 520.286 215.837C520.523 215.984 520.728 216.178 520.889 216.406C521.05 216.634 521.164 216.892 521.223 217.165C521.282 217.438 521.285 217.72 521.233 217.994C521.181 218.268 521.074 218.529 520.919 218.761C520.763 218.993 520.563 219.191 520.33 219.344C520.096 219.497 519.834 219.602 519.56 219.651C517.585 220.096 515.57 220.33 513.546 220.348H513.535ZM539.262 208.771C538.834 208.773 538.416 208.642 538.064 208.397C537.713 208.153 537.446 207.806 537.3 207.403C537.153 207.001 537.134 206.564 537.246 206.15C537.357 205.737 537.593 205.368 537.922 205.094C538.629 204.505 539.23 204.022 539.723 203.551C544.739 199.112 549.019 193.905 552.404 188.125C552.544 187.891 552.73 187.687 552.95 187.524C553.169 187.361 553.419 187.244 553.684 187.177C553.95 187.111 554.225 187.098 554.496 187.138C554.766 187.179 555.026 187.272 555.26 187.413C555.495 187.553 555.699 187.739 555.862 187.959C556.024 188.178 556.142 188.428 556.208 188.693C556.275 188.959 556.288 189.234 556.248 189.505C556.207 189.775 556.114 190.035 555.973 190.269C552.364 196.424 547.802 201.967 542.456 206.691C541.942 207.142 541.384 207.678 540.602 208.289C540.214 208.61 539.722 208.777 539.219 208.76L539.262 208.771ZM569.662 193.764C569.341 193.766 569.024 193.693 568.735 193.551C568.447 193.41 568.196 193.204 568 192.949C563.438 186.897 558.301 181.301 552.661 176.238C552.249 175.871 551.999 175.355 551.967 174.805C551.935 174.254 552.123 173.713 552.489 173.301C552.856 172.888 553.372 172.639 553.922 172.607C554.473 172.574 555.014 172.762 555.426 173.129C561.269 178.372 566.592 184.166 571.323 190.43C571.64 190.876 571.775 191.427 571.699 191.969C571.623 192.511 571.343 193.004 570.916 193.346C570.543 193.627 570.085 193.771 569.619 193.753L569.662 193.764ZM487.862 193.764C487.332 193.765 486.822 193.564 486.436 193.201C486.049 192.838 485.816 192.342 485.783 191.813C485.783 191.234 485.783 190.645 485.783 190.066C485.935 182.429 488.381 175.015 492.804 168.788C492.952 168.548 493.148 168.341 493.378 168.179C493.609 168.017 493.87 167.903 494.146 167.845C494.422 167.787 494.707 167.786 494.983 167.842C495.26 167.897 495.522 168.009 495.754 168.169C495.986 168.329 496.183 168.534 496.333 168.773C496.484 169.011 496.584 169.278 496.627 169.557C496.671 169.835 496.658 170.12 496.589 170.393C496.519 170.666 496.395 170.922 496.224 171.146C492.283 176.682 490.095 183.272 489.942 190.066C489.942 190.559 489.942 191.063 489.942 191.566C489.958 192.114 489.763 192.647 489.398 193.055C489.034 193.464 488.526 193.718 487.98 193.764H487.862ZM563.102 170.042C562.917 170.043 562.732 170.018 562.555 169.967C562.291 169.896 562.043 169.774 561.827 169.607C561.61 169.441 561.428 169.233 561.292 168.996C561.155 168.759 561.067 168.497 561.032 168.226C560.996 167.955 561.015 167.68 561.086 167.416C563.057 160.133 564.102 152.631 564.195 145.087C564.22 144.536 564.457 144.015 564.856 143.633C565.255 143.252 565.787 143.039 566.339 143.04C566.615 143.043 566.888 143.101 567.142 143.21C567.395 143.32 567.624 143.48 567.815 143.68C568.006 143.88 568.155 144.116 568.253 144.374C568.351 144.632 568.396 144.908 568.386 145.184C568.275 153.073 567.169 160.917 565.095 168.531C564.966 168.968 564.697 169.351 564.329 169.62C563.961 169.889 563.515 170.03 563.059 170.02L563.102 170.042ZM535.092 163.61C534.771 163.609 534.455 163.531 534.17 163.385C526.398 159.537 519.034 158.026 513.171 158.947C512.626 159.037 512.069 158.907 511.62 158.585C511.172 158.263 510.87 157.777 510.78 157.232C510.691 156.688 510.821 156.13 511.143 155.682C511.465 155.234 511.951 154.931 512.496 154.842C513.913 154.612 515.347 154.498 516.783 154.499C522.615 154.499 529.089 156.235 535.992 159.666C536.414 159.873 536.752 160.217 536.953 160.642C537.153 161.067 537.205 161.547 537.098 162.004C536.991 162.461 536.732 162.869 536.364 163.161C535.996 163.452 535.54 163.611 535.07 163.61H535.092ZM563.466 124.324C563.011 124.324 562.569 124.175 562.207 123.901C561.845 123.626 561.583 123.24 561.462 122.802C560.655 119.931 559.652 117.12 558.46 114.387C556.659 110.284 554.423 106.385 551.793 102.757C551.633 102.535 551.518 102.284 551.456 102.018C551.393 101.752 551.383 101.476 551.427 101.206C551.471 100.937 551.567 100.678 551.711 100.446C551.855 100.213 552.043 100.011 552.264 99.8516C552.486 99.6919 552.737 99.5773 553.003 99.5145C553.269 99.4518 553.545 99.442 553.814 99.4858C554.084 99.5296 554.343 99.6261 554.575 99.7698C554.808 99.9135 555.009 100.102 555.169 100.323C559.851 106.767 563.337 113.999 565.46 121.676C565.535 121.939 565.557 122.215 565.526 122.487C565.494 122.759 565.409 123.022 565.276 123.261C565.142 123.5 564.963 123.71 564.748 123.88C564.533 124.049 564.287 124.175 564.023 124.249C563.829 124.312 563.627 124.344 563.423 124.345L563.466 124.324ZM537.3 87.2457C536.848 87.2419 536.409 87.0956 536.046 86.8276C530.01 82.3041 523.449 78.5284 516.505 75.583C516.216 75.5075 515.948 75.371 515.717 75.1826C515.486 74.9942 515.298 74.7583 515.166 74.4911C515.034 74.2238 514.962 73.9313 514.953 73.6334C514.944 73.3355 514.999 73.0392 515.115 72.7646C515.23 72.4899 515.404 72.2433 515.623 72.0414C515.842 71.8396 516.102 71.6872 516.385 71.5946C516.669 71.5021 516.968 71.4714 517.265 71.5049C517.561 71.5383 517.846 71.635 518.102 71.7884C525.343 74.8798 532.182 78.8392 538.468 83.5797C538.817 83.8421 539.075 84.2077 539.204 84.6245C539.333 85.0413 539.328 85.4883 539.19 85.9022C539.051 86.316 538.785 86.6757 538.431 86.9303C538.076 87.1849 537.651 87.3215 537.214 87.3207L537.3 87.2457ZM426.891 73.4499C426.39 73.4607 425.902 73.2893 425.518 72.9676C425.134 72.6459 424.879 72.1956 424.802 71.7006C424.725 71.2055 424.83 70.6992 425.098 70.2757C425.366 69.8522 425.778 69.5403 426.258 69.398C433.699 67.0188 441.316 65.2267 449.037 64.0383C449.583 63.9544 450.14 64.0908 450.585 64.4175C451.03 64.7442 451.327 65.2343 451.411 65.7802C451.495 66.326 451.359 66.8828 451.032 67.3281C450.705 67.7734 450.215 68.0707 449.669 68.1545C442.162 69.3198 434.757 71.0725 427.523 73.3963C427.29 73.4605 427.047 73.4859 426.805 73.4713L426.891 73.4499ZM495.323 68.9477H494.916C487.483 67.4662 479.93 66.6625 472.352 66.5466C472.078 66.5431 471.809 66.4858 471.558 66.3781C471.307 66.2703 471.08 66.1142 470.889 65.9186C470.504 65.5236 470.292 64.9918 470.299 64.4403C470.306 63.8887 470.532 63.3626 470.927 62.9776C471.322 62.5927 471.854 62.3804 472.405 62.3875C480.243 62.5067 488.053 63.3354 495.741 64.8637C496.245 64.9677 496.693 65.255 496.998 65.67C497.302 66.0851 497.442 66.5983 497.39 67.1105C497.338 67.6226 497.098 68.0973 496.716 68.4426C496.334 68.788 495.838 68.9794 495.323 68.9799V68.9477Z" fill="#066FD1"/>
    <path d="M186.97 258.68C186.517 258.689 186.074 258.55 185.708 258.285C185.341 258.019 185.071 257.641 184.939 257.208C184.807 256.775 184.82 256.311 184.975 255.886C185.131 255.461 185.421 255.099 185.801 254.853C192.034 250.601 197.753 245.64 202.845 240.071C203.021 239.852 203.239 239.67 203.487 239.537C203.735 239.405 204.007 239.324 204.287 239.299C204.568 239.275 204.85 239.307 205.117 239.395C205.384 239.483 205.631 239.624 205.842 239.809C206.053 239.995 206.225 240.222 206.346 240.476C206.467 240.73 206.535 241.005 206.546 241.286C206.558 241.567 206.512 241.848 206.412 242.111C206.312 242.373 206.16 242.613 205.964 242.816C200.663 248.633 194.702 253.813 188.202 258.251C187.848 258.523 187.416 258.673 186.97 258.68ZM213.671 222.995C213.125 222.979 212.605 222.755 212.219 222.368C211.832 221.982 211.608 221.462 211.592 220.916C211.592 220.509 211.592 220.101 211.592 219.715C211.27 214.849 209.159 211.043 206.908 207.002C205.66 204.862 204.547 202.646 203.574 200.367C203.368 199.855 203.373 199.283 203.589 198.775C203.806 198.267 204.214 197.866 204.726 197.66C205.238 197.454 205.811 197.46 206.318 197.676C206.826 197.892 207.227 198.301 207.433 198.813C208.343 200.933 209.385 202.996 210.552 204.987C212.91 209.275 215.365 213.648 215.74 219.437C215.74 219.919 215.74 220.412 215.794 220.916C215.794 221.467 215.575 221.996 215.185 222.386C214.795 222.776 214.266 222.995 213.714 222.995H213.671ZM207.851 179.614C207.472 179.612 207.101 179.504 206.779 179.303C206.32 179.002 205.994 178.536 205.868 178.002C205.743 177.467 205.827 176.905 206.104 176.431C209.662 170.717 215.44 165.154 223.255 159.912C223.712 159.629 224.262 159.534 224.788 159.648C225.314 159.762 225.776 160.075 226.076 160.522C226.376 160.969 226.49 161.515 226.396 162.045C226.302 162.575 226.006 163.048 225.57 163.364C218.238 168.284 212.878 173.418 209.63 178.639C209.444 178.937 209.184 179.183 208.877 179.353C208.57 179.524 208.224 179.614 207.872 179.614H207.851Z" fill="#066FD1"/>
    <path d="M378.921 133.853L301.056 94.8993C300.831 94.7876 300.631 94.6327 300.466 94.4434C300.301 94.2542 300.175 94.0342 300.096 93.7963C300.016 93.5583 299.984 93.3069 300.002 93.0566C300.019 92.8063 300.086 92.5619 300.198 92.3374L319.633 53.469C319.779 53.1819 319.996 52.9366 320.264 52.7561C320.531 52.5756 320.839 52.4658 321.161 52.4369C321.482 52.408 321.805 52.4609 322.1 52.5908C322.395 52.7207 322.653 52.9233 322.848 53.1796L381.28 130.991C381.536 131.334 381.671 131.752 381.661 132.18C381.651 132.607 381.498 133.019 381.226 133.35C380.954 133.68 380.579 133.909 380.161 134C379.743 134.092 379.306 134.04 378.921 133.853Z" fill="#066FD1"/>
    <path d="M377.024 137.637L299.159 98.694C298.707 98.4666 298.183 98.428 297.702 98.5868C297.222 98.7456 296.824 99.0888 296.597 99.5408L277.152 138.409C277.005 138.701 276.936 139.025 276.95 139.352C276.965 139.678 277.063 139.995 277.235 140.272C277.407 140.55 277.647 140.779 277.933 140.937C278.219 141.095 278.54 141.177 278.867 141.175L376.166 141.261C376.6 141.265 377.022 141.123 377.363 140.856C377.705 140.589 377.945 140.214 378.045 139.792C378.145 139.37 378.098 138.927 377.912 138.536C377.727 138.144 377.414 137.827 377.024 137.637Z" fill="#DDDDDD"/>
    <path d="M255.477 76.9122L291.43 94.8992C291.655 95.0109 291.855 95.1658 292.02 95.3551C292.185 95.5444 292.31 95.7643 292.39 96.0023C292.47 96.2403 292.502 96.4916 292.484 96.742C292.466 96.9923 292.4 97.2367 292.287 97.4612L273.625 134.797C273.454 135.136 273.186 135.417 272.854 135.604C272.523 135.79 272.143 135.873 271.764 135.842C271.385 135.81 271.024 135.667 270.727 135.429C270.43 135.191 270.211 134.87 270.098 134.507L252.84 79.1418C252.751 78.7927 252.762 78.4255 252.871 78.0822C252.981 77.739 253.185 77.4335 253.46 77.2009C253.735 76.9682 254.07 76.8177 254.427 76.7667C254.784 76.7156 255.148 76.766 255.477 76.9122Z" fill="#066FD1"/>
    <path d="M257.407 73.0747L293.37 91.0617C293.595 91.1739 293.839 91.2408 294.089 91.2584C294.34 91.276 294.591 91.2441 294.829 91.1644C295.067 91.0848 295.287 90.959 295.476 90.7942C295.665 90.6294 295.82 90.4289 295.932 90.2042L314.637 52.8151C314.818 52.4728 314.891 52.0838 314.847 51.6992C314.803 51.3146 314.643 50.9524 314.389 50.6601C314.135 50.3679 313.799 50.1594 313.424 50.0619C313.049 49.9643 312.654 49.9825 312.29 50.1138L257.621 69.5158C257.256 69.6362 256.936 69.8632 256.702 70.1674C256.468 70.4717 256.33 70.8393 256.307 71.2226C256.284 71.6058 256.377 71.9873 256.573 72.3174C256.769 72.6476 257.059 72.9114 257.407 73.0747Z" fill="black" opacity="0.1"/>
    <path d="M297.176 106.262C302.699 106.262 307.177 101.784 307.177 96.2606C307.177 90.7371 302.699 86.2595 297.176 86.2595C291.652 86.2595 287.175 90.7371 287.175 96.2606C287.175 101.784 291.652 106.262 297.176 106.262Z" fill="white"/>
    <path d="M320.694 337.832H320.576C319.097 337.693 284.13 315.879 277.581 286.851C274.837 274.845 276.005 263.911 280.936 255.229C288.654 241.658 303.136 238.506 315.903 235.73C325.732 233.586 335.026 231.571 340.471 225.332C354.835 208.889 339.914 165.861 296.125 97.4398C295.989 97.1738 295.956 96.8663 296.034 96.5775C296.112 96.2887 296.295 96.0395 296.547 95.8785C296.799 95.7176 297.102 95.6566 297.397 95.7074C297.692 95.7583 297.957 95.9173 298.141 96.1534C343.162 166.558 357.633 209.328 342.272 226.93C336.301 233.758 326.643 235.859 316.417 238.088C303.554 240.897 290.208 243.791 283.026 256.429C278.385 264.587 277.313 274.931 279.907 286.347C286.339 314.442 319.333 334.509 321.101 335.527C321.248 335.585 321.382 335.668 321.498 335.774C321.699 335.931 321.844 336.149 321.913 336.394C321.982 336.64 321.971 336.901 321.882 337.14C321.792 337.379 321.629 337.583 321.415 337.723C321.202 337.863 320.949 337.931 320.694 337.918V337.832Z" fill="#232B41"/>
    <path d="M424.554 163.9H424.382C423.889 163.835 412.248 162.142 411.187 155.399C410.383 150.308 403.362 148.26 403.297 148.239C402.993 148.154 402.735 147.951 402.581 147.675C402.426 147.4 402.387 147.074 402.472 146.77C402.557 146.466 402.76 146.208 403.035 146.053C403.311 145.899 403.636 145.86 403.941 145.945C404.294 146.041 412.516 148.41 413.588 155.024C414.242 159.173 421.874 161.123 424.758 161.531C425.047 161.584 425.307 161.743 425.487 161.975C425.668 162.208 425.757 162.498 425.737 162.792C425.717 163.086 425.59 163.362 425.38 163.568C425.169 163.775 424.891 163.896 424.597 163.911L424.554 163.9Z" fill="#232B41"/>
    <path d="M549.369 412.889C547.965 414.797 545.895 416.109 543.57 416.565C525.955 419.967 507.705 416.843 492.225 407.776C479.364 400.394 468.78 389.617 461.632 376.625C461.192 375.821 460.838 375.146 460.56 374.589L472.983 369.229C473.283 369.979 473.755 371.094 474.409 372.445C474.58 372.788 474.752 373.131 474.934 373.463C478.762 380.659 484.588 386.597 491.71 390.56C498.988 394.569 505.42 395.138 512.27 395.716C519.601 396.362 526.988 395.896 534.18 394.334C541.609 392.629 548.544 395.888 550.849 401.226C551.626 403.133 551.898 405.208 551.639 407.251C551.38 409.294 550.598 411.236 549.369 412.889Z" fill="#FFCB9D"/>
    <path d="M471.483 390.732C467.71 386.391 464.408 381.662 461.632 376.625C461.192 375.821 460.838 375.146 460.56 374.589L472.983 369.229C473.283 369.979 473.755 371.094 474.409 372.445C474.58 372.788 474.752 373.131 474.934 373.463C472.705 375.736 470.336 380.516 471.483 390.732Z" fill="black" opacity="0.15"/>
    <path d="M310.8 342.141C312.718 346.429 322.913 368.039 345.734 375.092C353.994 377.614 362.776 377.899 371.182 375.918C375.871 374.849 380.4 373.173 384.656 370.933C383.391 366.088 382.13 361.243 380.872 356.398C380.186 356.848 379.082 357.555 377.656 358.317C372.811 360.9 364.407 364.148 356.764 360.353C352.477 358.209 349.7 354.897 344.48 348.144C339.95 342.225 335.991 335.89 332.656 329.224C329.912 321.817 322.28 318.998 316.32 322.9C310.66 326.566 308.109 335.152 310.843 342.141" fill="#FFCB9D"/>
    <path d="M371.182 375.918C375.87 374.849 380.4 373.173 384.656 370.933C383.391 366.088 382.13 361.243 380.872 356.398C380.186 356.848 379.082 357.555 377.656 358.317C377.592 361.329 377.12 366.217 375.094 369.926C373.939 372.024 372.62 374.027 371.149 375.918" fill="black" opacity="0.15"/>
    <path d="M418.09 499.448L439.217 502.449L469.918 506.822L470.475 504.378L438.253 491.751L412.901 470.312C414.638 480.06 416.367 489.772 418.09 499.448Z" fill="#FFCB9D"/>
    <path d="M394.411 485.073L398.956 504.625L406.256 536.065L408.743 535.7L410.512 504.153L411.369 489.039L394.411 485.073Z" fill="#FFCB9D"/>
    <path d="M394.411 485.073L398.956 504.614C402.654 504.614 406.46 504.453 410.522 504.185L411.369 489.082L394.411 485.073Z" fill="black" opacity="0.15"/>
    <path d="M476.296 371.083L460.217 377.815C459.381 374.785 458.545 371.737 457.709 368.671C457.633 370.076 457.537 371.469 457.441 372.863C456.17 391.81 453.876 410.675 450.569 429.375V429.461C450.473 430.34 450.376 431.24 450.269 432.141C450.162 433.041 450.076 433.813 449.969 434.638C437.713 433.788 425.297 432.823 412.719 431.744C400.735 430.715 388.919 429.604 377.271 428.41C377.424 422.951 378.164 417.525 379.479 412.224C380.399 408.551 381.589 404.95 383.038 401.451L383.37 400.379C384.313 397.421 385.256 394.441 386.221 391.461C386.468 390.668 386.725 389.885 386.982 389.092C388.676 383.861 390.384 378.669 392.106 373.517L384.399 374.342C383.506 370.769 382.544 367.167 381.515 363.537C380.386 359.685 379.264 355.973 378.15 352.399C384.976 348.496 392.436 345.826 400.188 344.51L401.143 344.306L401.689 344.21L403.136 343.931C404.851 343.62 406.642 343.406 408.357 343.245C415.152 342.634 421.986 342.591 428.788 343.117C435.877 343.678 442.917 344.753 449.851 346.332C452.724 346.954 455.715 347.79 458.834 348.669H459.113C459.596 348.865 460.095 349.023 460.603 349.141C466.091 350.695 470.432 355.712 470.432 355.712C475.224 361.372 476.124 368.671 476.296 371.083Z" fill="#066FD1"/>
    <path d="M487.133 525.881C481.677 521.851 474.42 508.934 476.414 505.643C478.408 502.352 484.25 503.607 484.25 503.607L490.413 503.993V511.228L485.3 512.118L487.133 525.881Z" fill="#232B41"/>
    <path d="M401.046 344.274L401.593 344.167C402.364 353.557 413.32 362.208 427.716 364.191C443.527 366.335 457.558 359.667 458.995 349.269L459.07 348.733C459.552 348.883 460.045 349.023 460.56 349.205V349.462C458.984 360.868 444.148 368.275 427.512 365.981C412.505 363.912 401.11 354.64 400.156 344.467L401.121 344.263" fill="#DDDDDD"/>
    <path d="M421.295 371.694C421.314 372.142 421.46 372.575 421.715 372.942C421.971 373.31 422.327 373.597 422.74 373.77C423.153 373.944 423.607 373.995 424.048 373.92C424.49 373.845 424.901 373.645 425.233 373.345C425.565 373.044 425.805 372.655 425.924 372.223C426.043 371.792 426.037 371.335 425.906 370.906C425.776 370.478 425.525 370.096 425.185 369.804C424.845 369.513 424.429 369.325 423.985 369.261C423.307 369.229 422.642 369.467 422.138 369.923C421.634 370.379 421.331 371.016 421.295 371.694Z" fill="#DDDDDD"/>
    <path d="M433.418 301.15C423.615 307.666 411.753 310.337 400.103 308.654L430.856 329.224L433.418 301.14" fill="#232B41"/>
    <path d="M423.31 328.206C431.971 334.209 443.676 337.124 449.518 336.546C450.483 336.514 451.426 336.245 452.263 335.763C453.217 335.098 454.138 334.359 455.082 333.619C456.39 332.547 457.654 331.357 458.866 330.168C462.026 327.047 464.896 323.645 467.441 320.006C467.613 319.684 468.245 318.794 468.953 317.765C472.029 313.059 474.409 309.19 476.006 306.499C475.556 306.778 473.39 308.032 472.447 307.293C471.504 306.553 471.858 303.498 474.023 300.132L453.131 288.791L440.268 291.578C440.268 291.578 439.356 292.65 437.802 294.193C435.174 296.943 432.363 299.511 429.387 301.879C427.204 303.723 424.705 305.157 422.013 306.113C414.702 308.107 412.826 321.12 423.256 328.249" fill="#FFCB9D"/>
    <path d="M429.409 301.879C435.83 309.021 444.449 313.819 453.903 315.514C455.808 316.912 457.291 318.807 458.19 320.992C459.466 324.208 458.416 326.062 458.834 329.825V330.189C461.985 327.06 464.855 323.66 467.409 320.027C467.581 319.705 468.213 318.816 468.921 317.787C471.997 313.092 474.377 309.211 475.963 306.521C475.524 306.799 473.358 308.054 472.415 307.314C471.472 306.574 471.826 303.519 473.991 300.153L453.099 288.812L440.236 291.599C440.236 291.599 439.314 292.671 437.77 294.215C435.141 296.967 432.326 299.535 429.345 301.901" fill="black" opacity="0.1"/>
    <path d="M431.168 286.283C431.139 289.332 431.876 292.339 433.312 295.03C439.475 306.885 458.213 307.378 463.433 307.378C462.961 310.594 464.398 313.981 463.83 315.793C463.647 316.329 463.465 316.865 463.272 317.347C462.941 318.194 462.554 319.017 462.115 319.813C461.348 321.155 460.462 322.425 459.467 323.607C454.856 328.357 449.905 332.763 444.653 336.792L458.341 345.453L469.361 352.399C473.939 347.815 477.436 342.267 479.598 336.16C479.78 335.613 480.048 334.798 480.37 333.748C480.953 331.639 481.376 329.489 481.634 327.316C481.634 326.941 481.731 326.534 481.763 326.148C482.038 323.295 482.02 320.422 481.71 317.572C480.918 310.235 478.458 303.177 474.517 296.938C473.113 294.847 464.076 281.609 448.876 279.208C445.124 278.586 436.109 277.225 432.604 282.145C431.788 283.354 431.331 284.77 431.286 286.229" fill="#232B41"/>
    <path d="M431.168 286.283C431.139 289.332 431.876 292.339 433.312 295.03C439.465 306.949 458.256 307.432 463.433 307.325C465.501 306.798 467.506 306.051 469.414 305.095C461.991 305.315 454.628 303.712 447.967 300.427C441.307 297.142 435.554 292.274 431.211 286.25" fill="black" opacity="0.5"/>
    <path d="M458.276 345.443L469.328 352.399C473.907 347.816 477.404 342.267 479.565 336.16C479.747 335.624 480.015 334.809 480.337 333.748L481.602 327.316C481.655 326.93 481.698 326.534 481.73 326.137C481.997 323.302 481.979 320.447 481.677 317.615C478.257 325.28 472.769 335.559 466.091 340.383C463.599 342.216 460.992 343.889 458.287 345.389" fill="black" opacity="0.5"/>
    <path d="M429.763 342.956C436.852 343.523 443.891 344.598 450.826 346.172C451.204 347.451 451.295 348.798 451.094 350.116C450.022 357.941 439.721 362.98 428.08 361.372C416.439 359.764 407.949 352.132 409.021 344.306C409.084 343.894 409.185 343.489 409.321 343.095C416.116 342.472 422.951 342.432 429.752 342.977" fill="#FFCB9D"/>
    <path d="M418.09 499.448L438.253 491.794L435.455 489.436L416.332 489.575L418.09 499.448Z" fill="black" opacity="0.15"/>
    <path d="M450.269 432.141C450.173 432.977 450.076 433.813 449.969 434.638C437.713 433.788 425.297 432.823 412.719 431.744C400.735 430.715 388.919 429.604 377.271 428.41C377.424 422.951 378.164 417.525 379.479 412.224C380.399 408.551 381.589 404.95 383.038 401.451L383.37 400.379C384.313 397.421 385.256 394.441 386.221 391.461C388.258 406.489 400.06 428.421 450.269 432.141Z" fill="black" opacity="0.15"/>
    <path d="M453.936 489.307C428.295 489.486 402.651 489.668 377.003 489.854C376.467 485.866 376.017 481.739 375.684 477.484C374.423 461.117 374.955 444.661 377.271 428.41L450.27 432.141C449.173 439.628 448.682 447.192 448.801 454.759C448.881 460.174 449.289 465.579 450.023 470.945C450.878 477.153 452.186 483.29 453.936 489.307Z" fill="#DDDDDD"/>
    <path d="M453.936 489.307C428.295 489.486 402.651 489.668 377.003 489.854C376.467 485.866 376.017 481.739 375.684 477.484C374.423 461.117 374.955 444.661 377.271 428.41C381.226 442.828 387.508 451.918 391.742 456.977C398.174 464.728 401.625 465.146 403.48 464.803C407.135 464.127 407.767 459.925 412.913 458.242C416.066 457.253 419.472 457.443 422.496 458.778C429.731 462.091 428.456 470.763 434.287 473.839C437.02 475.265 441.651 475.683 449.98 470.945C450.409 474.043 450.977 477.376 451.738 480.817C452.435 483.829 453.164 486.659 453.936 489.307Z" fill="black" opacity="0.15"/>
</svg>
