<svg xmlns="http://www.w3.org/2000/svg" width="800" height="600" fill="none" viewBox="0 0 800 600">
    <path d="M144.448 316.376C144.448 360.253 190.912 392.192 211.443 427.687C232.625 464.301 237.723 520.251 274.338 541.433C309.817 561.964 360.351 538.997 404.288 538.997C448.225 538.997 498.759 562.04 534.193 541.433C570.807 520.251 575.906 464.271 597.088 427.687C617.619 392.192 664.098 360.313 664.098 316.376C664.098 272.439 617.619 240.545 597.088 205.066C575.906 168.452 570.807 112.486 534.193 91.3045C498.713 70.7733 448.195 93.7404 404.243 93.7404C360.29 93.7404 309.817 70.7733 274.338 91.3045C237.723 112.486 232.625 168.467 211.443 205.066C190.912 240.545 144.448 272.424 144.448 316.376Z" fill="#066FD1" opacity="0.02"/>
    <path d="M612.308 539.421C661.274 539.421 700.969 537.416 700.969 534.942C700.969 532.469 661.274 530.464 612.308 530.464C563.342 530.464 523.647 532.469 523.647 534.942C523.647 537.416 563.342 539.421 612.308 539.421Z" fill="#D6D8E2" opacity="0.5"/>
    <path d="M605.893 442.771C605.893 448.278 487.275 452.727 340.954 452.727C194.633 452.727 76 448.278 76 442.771C76 437.264 194.618 432.831 340.954 432.831C487.29 432.831 605.893 437.279 605.893 442.771Z" fill="#D6D8E2" opacity="0.5"/>
    <path d="M129.953 413.117L395.845 413.117C404.368 413.117 411.278 406.207 411.278 397.684V245.644C411.278 237.121 404.368 230.212 395.845 230.212L129.953 230.212C121.43 230.212 114.521 237.121 114.521 245.644V397.684C114.521 406.207 121.43 413.117 129.953 413.117Z" fill="white"/>
    <path d="M407.631 305.634H414.894V343.973H407.631V305.634Z" fill="#232B41"/>
    <path d="M395.83 226.565H129.938C124.887 226.577 120.046 228.59 116.476 232.163C112.906 235.736 110.897 240.578 110.889 245.629V397.684C110.885 400.19 111.375 402.671 112.33 404.988C113.285 407.304 114.687 409.409 116.456 411.184C118.225 412.958 120.326 414.367 122.639 415.329C124.952 416.292 127.432 416.789 129.938 416.793H227.056V423.269C226.043 430.319 221.292 432.347 217.978 432.816H180.925C180.586 432.816 180.251 432.883 179.938 433.013C179.624 433.143 179.34 433.334 179.101 433.574C178.862 433.815 178.673 434.1 178.545 434.414C178.416 434.728 178.351 435.064 178.353 435.403V439.155C178.353 439.837 178.624 440.491 179.107 440.974C179.589 441.456 180.243 441.727 180.925 441.727H344.842C345.526 441.727 346.182 441.457 346.666 440.975C347.151 440.493 347.425 439.839 347.429 439.155V435.403C347.429 434.717 347.157 434.059 346.672 433.573C346.186 433.088 345.528 432.816 344.842 432.816H307.729C304.43 432.301 299.649 430.304 298.651 423.223V416.793H395.83C400.882 416.789 405.726 414.781 409.3 411.21C412.874 407.639 414.885 402.797 414.893 397.745V369.028H407.631V397.684C407.627 400.813 406.382 403.812 404.17 406.024C401.958 408.237 398.958 409.481 395.83 409.485H129.938C126.809 409.481 123.81 408.237 121.597 406.024C119.385 403.812 118.14 400.813 118.136 397.684V245.629C118.14 242.5 119.385 239.501 121.597 237.289C123.81 235.076 126.809 233.832 129.938 233.828H395.83C398.958 233.832 401.958 235.076 404.17 237.289C406.382 239.501 407.627 242.5 407.631 245.629V267.825H414.893V245.629C414.885 240.576 412.874 235.731 409.301 232.158C405.728 228.584 400.883 226.573 395.83 226.565Z" fill="#232B41"/>
    <path d="M211.17 269.065H140.211C139.158 269.065 138.305 269.919 138.305 270.972V275.495C138.305 276.548 139.158 277.402 140.211 277.402H211.17C212.223 277.402 213.076 276.548 213.076 275.495V270.972C213.076 269.919 212.223 269.065 211.17 269.065Z" fill="#DADBE0"/>
    <path d="M266.545 314.591H142.496C140.189 314.591 138.32 316.461 138.32 318.767V376.714C138.32 379.02 140.189 380.89 142.496 380.89H266.545C268.852 380.89 270.721 379.02 270.721 376.714V318.767C270.721 316.461 268.852 314.591 266.545 314.591Z" fill="#DADBE0"/>
    <path d="M197.977 292.653H140.105C139.111 292.653 138.305 293.459 138.305 294.453V297.54C138.305 298.534 139.111 299.34 140.105 299.34H197.977C198.971 299.34 199.777 298.534 199.777 297.54V294.453C199.777 293.459 198.971 292.653 197.977 292.653Z" fill="#066FD1"/>
    <path d="M454.964 440.365L556.652 440.312C562.534 440.309 567.301 435.537 567.298 429.655L567.199 240.713C567.196 234.83 562.424 230.064 556.542 230.067L454.854 230.12C448.971 230.123 444.205 234.895 444.208 240.777L444.307 429.719C444.31 435.602 449.081 440.368 454.964 440.365Z" fill="white"/>
    <path d="M446.682 305.634H441.765L441.795 343.973H446.697L446.682 305.634Z" fill="#232B41"/>
    <path d="M573.439 258.278C573.439 257.893 573.363 257.512 573.216 257.157C573.068 256.801 572.851 256.479 572.579 256.207C572.306 255.936 571.982 255.721 571.626 255.575C571.27 255.43 570.889 255.356 570.504 255.358H570.096C569.944 255.349 569.793 255.349 569.642 255.358V240.697C569.63 237.223 568.243 233.895 565.785 231.44C563.328 228.985 559.998 227.602 556.524 227.594H454.836C451.361 227.602 448.031 228.987 445.575 231.446C443.119 233.905 441.738 237.237 441.734 240.712V267.719H446.636V240.818C446.636 239.741 446.848 238.675 447.26 237.68C447.672 236.685 448.276 235.781 449.038 235.019C449.799 234.258 450.703 233.654 451.698 233.242C452.693 232.829 453.759 232.617 454.836 232.617H473.945C472.888 233.829 472.302 235.381 472.296 236.99V237.928C472.296 239.714 473.006 241.426 474.268 242.689C475.531 243.951 477.243 244.661 479.029 244.661H531.166C532.05 244.661 532.925 244.486 533.741 244.148C534.557 243.809 535.298 243.313 535.922 242.688C536.546 242.062 537.04 241.32 537.377 240.503C537.714 239.687 537.886 238.811 537.884 237.928V236.975C537.876 235.371 537.29 233.824 536.235 232.617H556.524C558.699 232.617 560.785 233.481 562.323 235.019C563.861 236.557 564.724 238.643 564.724 240.818L564.83 429.744C564.832 430.82 564.622 431.886 564.212 432.881C563.801 433.876 563.199 434.78 562.438 435.542C561.678 436.304 560.775 436.908 559.781 437.32C558.787 437.732 557.721 437.945 556.645 437.945H454.957C453.882 437.945 452.818 437.733 451.825 437.322C450.832 436.91 449.93 436.307 449.17 435.547C448.409 434.787 447.807 433.885 447.395 432.892C446.984 431.899 446.772 430.834 446.772 429.759V369.028H441.87V429.759C441.874 433.233 443.256 436.564 445.712 439.02C448.168 441.476 451.499 442.858 454.973 442.862H556.66C560.137 442.858 563.469 441.474 565.926 439.014C568.383 436.555 569.763 433.221 569.763 429.744L569.687 283.832H570.504C570.888 283.834 571.269 283.76 571.624 283.614C571.979 283.468 572.302 283.253 572.573 282.981C572.845 282.71 573.06 282.387 573.206 282.032C573.352 281.677 573.426 281.296 573.424 280.912L573.439 258.278Z" fill="#232B41"/>
    <path d="M507.11 427.717C515.174 427.717 521.71 421.18 521.71 413.117C521.71 405.053 515.174 398.516 507.11 398.516C499.047 398.516 492.51 405.053 492.51 413.117C492.51 421.18 499.047 427.717 507.11 427.717Z" fill="#066FD1"/>
    <path d="M527.929 277.311H308.939C306.617 277.311 304.733 279.194 304.733 281.517V289.838C304.733 292.161 306.617 294.045 308.939 294.045H527.929C530.252 294.045 532.135 292.161 532.135 289.838V281.517C532.135 279.194 530.252 277.311 527.929 277.311Z" fill="#066FD1"/>
    <path d="M449.889 353.399H321.391C320.813 353.399 320.259 353.629 319.851 354.037C319.442 354.446 319.212 355 319.212 355.578V357.091C319.21 357.377 319.265 357.662 319.374 357.927C319.483 358.192 319.643 358.433 319.846 358.636C320.049 358.839 320.29 358.999 320.555 359.108C320.82 359.216 321.104 359.271 321.391 359.269H449.889C450.468 359.269 451.024 359.04 451.435 358.632C451.846 358.224 452.079 357.67 452.083 357.091V355.578C452.079 354.999 451.846 354.444 451.435 354.036C451.024 353.628 450.468 353.399 449.889 353.399Z" fill="#A7AAB3"/>
    <path d="M545.056 318.071H469.149C467.536 318.071 466.229 319.378 466.229 320.991V326.695C466.229 328.308 467.536 329.615 469.149 329.615H545.056C546.668 329.615 547.976 328.308 547.976 326.695V320.991C547.976 319.378 546.668 318.071 545.056 318.071Z" fill="#DADBE0"/>
    <path d="M279.663 250.365L234.274 241.362C235.282 241.6 236.219 242.074 237.008 242.744C237.797 243.415 238.416 244.264 238.813 245.221C239.116 246.09 239.227 247.016 239.138 247.932C239.049 248.849 238.763 249.736 238.298 250.531C236.973 249.289 235.579 248.122 234.122 247.036C230.405 244.26 226.335 241.991 222.019 240.288C214.029 237.139 205.679 234.994 197.16 233.903H242.807L279.663 250.365Z" fill="black" opacity="0.1"/>
    <path d="M285.2 243.284L222.23 209.302L176.523 198.923L218.19 180.767L181.879 176.228L142.632 189.512C142.738 201.268 145.174 218.38 158.004 226.596C167.233 232.496 181.652 231.725 194.936 231.135C196.252 231.135 201.759 230.832 209.37 230.741H218.856L279.633 250.41C280.389 249.669 281.146 248.897 281.993 247.868C283.179 246.425 284.252 244.893 285.2 243.284Z" fill="#066FD1"/>
    <path d="M246.997 251.772L236.573 254.692C234.162 247.066 231.746 239.431 229.326 231.785L222.517 210.089L219.764 201.359L199.232 204.975L176.538 198.923L218.205 180.767L240.325 183.536L243.593 216.822C244.188 222.975 244.788 229.127 245.394 235.28L246.997 251.772Z" fill="#066FD1"/>
    <path d="M246.997 251.772L236.573 254.692C234.162 247.066 231.746 239.431 229.326 231.785L222.517 210.089L219.764 201.359L199.232 204.975L176.538 198.923L218.205 180.767L240.325 183.536L243.593 216.822C244.188 222.975 244.788 229.127 245.394 235.28L246.997 251.772Z" fill="black" opacity="0.21"/>
    <path d="M301.541 241.287L294.264 260.653C294.264 260.653 288.529 260.184 287.349 256.659C286.169 253.133 295.55 243.435 301.541 241.287ZM259.359 262.469L237.814 267.008C237.814 267.008 235.197 262.257 237.814 259.443C240.432 256.628 254.291 258.868 259.359 262.469Z" fill="#232B41"/>
    <path d="M193.453 110.656H193.362C192.953 110.503 192.534 110.381 192.106 110.292C192.574 110.326 193.031 110.45 193.453 110.656Z" fill="#DDDDDD"/>
    <path d="M169.019 204.627L161.197 199.332C160.831 199.081 160.547 198.728 160.381 198.317C160.215 197.906 160.174 197.455 160.262 197.021C160.351 196.586 160.566 196.188 160.88 195.875C161.195 195.562 161.594 195.349 162.029 195.262L226.739 182.81C227.041 182.756 227.35 182.763 227.649 182.831C227.948 182.899 228.23 183.025 228.479 183.203L235.923 188.574C236.281 188.83 236.555 189.185 236.713 189.595C236.87 190.005 236.904 190.453 236.808 190.882C236.713 191.311 236.494 191.703 236.178 192.008C235.861 192.313 235.462 192.519 235.03 192.599L170.698 204.975C170.114 205.085 169.511 204.96 169.019 204.627Z" fill="#232B41"/>
    <path d="M222.109 167.967L200.458 173.687L197.432 165.789L189.595 144.91L192.364 119.885L193.589 108.719C193.589 108.719 194.83 113.137 196.615 119.143C197.735 122.971 199.067 127.465 200.398 131.868C202.092 137.375 203.802 142.746 205.164 146.513C209.325 157.952 222.109 167.967 222.109 167.967ZM146.475 63.5412C145.87 65.962 144.962 69.5931 144.16 73.9354C143.979 74.9188 143.812 75.7661 143.767 76.0536C142.966 80.9199 142.834 85.8728 143.373 90.7749C143.495 91.7432 143.646 92.6813 143.843 93.5891C144.569 96.9933 155.553 103.635 166.325 105.209C177.098 106.782 183.619 98.2945 180.275 93.1049C179.177 91.0823 178.474 88.8694 178.202 86.584C177.745 83.5797 177.518 80.5449 177.522 77.5061V74.6314L171.228 65.9468L151.559 60.9691C150.878 64.101 149.38 66.0225 148.276 65.9468C147.171 65.8712 146.596 63.9497 146.475 63.5412Z" fill="#FFCB9D"/>
    <path d="M146.475 63.5412C145.87 65.962 144.962 69.5931 144.16 73.9354C143.979 74.9188 143.812 75.7661 143.767 76.0536C142.966 80.9199 142.834 85.8728 143.373 90.7749C144.757 90.7254 146.12 90.4282 147.398 89.8974C148.765 89.3097 150.007 88.4677 151.059 87.4161C152.114 86.3015 152.983 85.0243 153.632 83.6337C154.102 82.7635 154.517 81.8639 154.872 80.9405C158.336 83.0723 162.115 84.6449 166.068 85.6005C170.029 86.5437 174.11 86.8804 178.172 86.5991C177.715 83.5948 177.487 80.5601 177.491 77.5212V74.6465L171.197 65.962L151.528 60.9843C150.848 64.1161 149.35 66.0376 148.245 65.962C147.141 65.8863 146.596 63.9497 146.475 63.5412Z" fill="black" opacity="0.1"/>
    <path d="M189.974 75.6149C188.99 76.7373 187.889 77.7517 186.69 78.6408C185.148 79.7849 183.458 80.7162 181.667 81.4096C173.527 84.6625 163.042 82.3022 155.145 75.3576C153.817 74.1729 152.587 72.8826 151.468 71.4995C151.116 72.4839 150.848 73.4962 150.666 74.5255C150.666 74.9945 150.545 75.1307 150.5 75.4333C150.454 75.7359 150.5 75.7208 150.5 75.751C150.408 77.9829 150.109 80.2014 149.607 82.3779C149.082 83.7525 148.12 84.9166 146.869 85.6913C147 83.6013 146.577 81.5136 145.643 79.6394C145.252 78.9578 144.812 78.3055 144.327 77.6876C142.798 75.2814 141.986 72.4895 141.986 69.6386C141.986 66.7877 142.798 63.9957 144.327 61.5895C145.682 59.1953 147.671 57.2216 150.076 55.8855C156.385 53.026 167.99 58.2912 173.482 61.7105C174.726 62.6618 176.207 63.2532 177.764 63.4202C178.084 63.4251 178.403 63.3686 178.702 63.2538C180.653 62.5729 181.501 60.0614 181.516 58.3214C181.516 54.9777 178.49 51.7399 173.86 50C184.92 50.3631 193.181 57.5649 193.816 65.4022C193.907 67.2766 193.612 69.1496 192.951 70.906C192.29 72.6623 191.277 74.2648 189.974 75.6149Z" fill="#232B41"/>
    <path d="M189.973 75.6148C188.989 76.7373 187.889 77.7517 186.69 78.6408C185.147 79.7849 183.458 80.7161 181.667 81.4096C173.527 84.6625 163.042 82.3022 155.144 75.3576L151.468 71.4995L149.123 68.1407C153.543 71.7253 158.556 74.5107 163.935 76.3713C168.746 78.0356 175.403 80.3505 183.195 78.4441C185.577 77.8278 187.86 76.8751 189.973 75.6148Z" fill="black" opacity="0.5"/>
    <path d="M196.797 161.416C197.242 162.832 197.477 164.305 197.493 165.789L189.656 144.91L192.425 119.885L196.616 119.143C197.735 122.971 199.067 127.465 200.398 131.868C197.871 136.309 196.251 141.208 195.633 146.281C195.015 151.353 195.411 156.498 196.797 161.416Z" fill="black" opacity="0.1"/>
    <path d="M202.97 124.636L191.244 134.667C189.489 146.513 187.205 159.994 185.51 169.632L185.374 170.434C184.103 177.696 183.226 182.538 183.226 182.538L137.639 196.154C138.044 193.223 138.201 190.262 138.108 187.303C138.064 185.065 137.842 182.834 137.443 180.631C136.919 178.181 136.227 175.769 135.37 173.414C134.115 167.545 133.236 161.602 132.737 155.622C132.495 153.428 132.238 151.355 131.981 149.433C128.955 126.602 125.838 121.761 130.362 117.222C131.875 115.709 136.989 114.665 147.171 112.683C157.473 110.642 167.893 109.252 178.369 108.522C182.463 108.073 186.583 107.902 190.7 108.008C191.214 108.008 191.668 108.008 192.046 108.144C192.473 108.233 192.893 108.354 193.302 108.507H193.393C194.83 109.037 196.737 110.262 199.188 114.68C200.936 117.792 202.211 121.148 202.97 124.636Z" fill="#DDDDDD"/>
    <path d="M192.106 110.262C191.728 110.262 191.274 110.156 190.76 110.126C191.213 110.104 191.667 110.15 192.106 110.262Z" fill="#DDDDDD"/>
    <path d="M144.236 124.62C145.688 129.616 147.719 134.424 150.288 138.948C152.377 142.638 154.808 146.123 157.55 149.358C165.143 158.21 174.71 165.155 185.48 169.632L185.343 170.434C184.073 177.696 183.195 182.538 183.195 182.538L137.609 196.154C138.014 193.223 138.171 190.262 138.078 187.303C138.034 185.065 137.811 182.834 137.412 180.631C136.889 178.181 136.196 175.769 135.339 173.414C134.084 167.545 133.205 161.602 132.707 155.622C132.465 153.428 132.207 151.355 131.95 149.433C132.071 148.98 132.207 148.541 132.359 148.072C133.004 145.893 133.781 143.629 134.689 141.278C137.024 135.274 139.97 129.525 143.479 124.121L144.236 124.62Z" fill="black" opacity="0.1"/>
    <path d="M128.939 118.523C128.939 118.523 121.571 141.505 124.779 163.141C127.986 184.777 182.832 198.757 182.832 198.757L187.704 189.376C187.704 189.376 144.462 168.633 145.189 154.941C145.464 147.227 146.95 139.604 149.591 132.352L128.939 118.523Z" fill="#FFCB9D"/>
    <path d="M131.572 116.435C130.974 116.74 130.402 117.094 129.863 117.494C125.142 121.02 125.324 126.814 123.054 139.72C122.706 141.672 122.343 143.457 122.01 145.061L148.578 152.823L151.513 129.326C144.856 125.039 138.209 120.742 131.572 116.435Z" fill="#DDDDDD"/>
    <path d="M238.132 191.994L172.846 204.552C172.475 204.626 172.092 204.617 171.726 204.524C171.359 204.431 171.018 204.257 170.727 204.014C170.437 203.772 170.204 203.467 170.047 203.123C169.89 202.778 169.813 202.403 169.82 202.025L170.577 166.757C170.587 166.179 170.795 165.621 171.167 165.178C171.539 164.734 172.051 164.432 172.619 164.321L237.905 151.763C238.277 151.688 238.661 151.698 239.029 151.792C239.397 151.886 239.739 152.061 240.03 152.305C240.321 152.55 240.553 152.856 240.709 153.203C240.865 153.549 240.94 153.926 240.931 154.305L240.174 189.573C240.163 190.15 239.955 190.705 239.583 191.146C239.211 191.587 238.698 191.886 238.132 191.994Z" fill="#232B41"/>
    <path d="M544.087 406.202C546.515 407.549 549.132 408.523 551.849 409.092C551.849 409.092 551.849 409.016 551.667 408.941C554.581 410.701 557.146 412.984 559.232 415.674C562.455 419.919 564.402 424.993 564.846 430.304V406.202H544.087ZM644.232 379.937C643.261 381.245 642.367 382.609 641.554 384.022C642.172 383.645 642.69 383.127 643.067 382.509C643.521 381.662 643.869 380.829 644.232 379.937Z" fill="black" opacity="0.1"/>
    <path d="M686.414 462.879C686.07 463.544 685.637 464.16 685.128 464.709C683.055 466.964 679.742 468.341 677.079 467.282C673.07 465.663 672.903 459.444 672.858 457.78C672.858 457.037 672.899 456.295 672.979 455.556C673.297 452.061 675.248 446.039 678.441 445.419C681.966 444.723 686.475 451.683 687.125 457.644C687.413 459.421 687.165 461.243 686.414 462.879Z" fill="#FFCB9D"/>
    <path d="M686.414 462.879C686.069 463.544 685.637 464.16 685.128 464.709C681.028 462.561 678.788 458.779 673.569 455.858L672.979 455.556C673.296 452.061 675.248 446.039 678.44 445.419C681.966 444.723 686.474 451.683 687.125 457.644C687.412 459.421 687.165 461.243 686.414 462.879Z" fill="black" opacity="0.1"/>
    <path d="M534.858 360.056C533.93 359.601 532.942 359.28 531.923 359.103C528.292 358.422 525.009 359.708 523.859 362.568C522.437 366.214 525.009 370.95 529.623 373.159C530.113 373.403 530.619 373.615 531.136 373.794C535.252 375.11 539.291 373.87 540.547 370.647C542.045 367.046 539.473 362.326 534.858 360.056Z" fill="#FFCB9D"/>
    <path d="M534.858 360.056C533.93 359.601 532.942 359.28 531.923 359.103C531.802 359.496 531.711 359.844 531.62 360.223C530.44 365.14 531.787 367.636 531.302 373.098C531.281 373.337 531.246 373.574 531.197 373.809C535.312 375.125 539.352 373.885 540.607 370.662C542.045 367.046 539.473 362.326 534.858 360.056Z" fill="black" opacity="0.1"/>
    <path d="M703.223 466.041C698.982 465.583 694.871 464.303 691.119 462.274C685.884 459.52 683.766 456.66 678.607 454.875C675.537 453.862 672.302 453.441 669.075 453.634C672.875 442.376 675.248 430.685 676.141 418.836V417.898C676.24 415.376 676.209 412.851 676.05 410.333C675.959 408.986 675.823 407.67 675.626 406.369V406.112C675.071 402.501 673.866 399.02 672.071 395.838C670.64 393.297 668.891 390.948 666.866 388.848C666.231 388.198 665.595 387.562 664.945 386.987C662.35 384.653 659.497 382.622 656.442 380.935C655.322 380.3 654.323 379.801 653.537 379.422L651.736 378.651C651.736 380.406 651.736 382.161 651.842 383.916V384.188C652.145 405.537 652.599 413.903 652.841 429.729V434.752C642.9 434.435 632.96 434.071 623.005 433.724L594.954 432.695C596.028 426.643 597.133 420.455 598.207 414.342C599.992 404.387 601.747 394.416 603.517 384.491C590.869 395.082 572.274 410.469 550.23 411.301C544.071 411.49 537.926 410.599 532.074 408.668L532.528 404.13L537.491 355.638C537.491 355.638 546.856 371.525 558.415 377.773C571.835 385.126 588.085 379.286 593.214 375.564C596.278 373.23 599.616 371.279 603.154 369.754C603.472 369.603 604.44 369.164 605.802 368.665C606.256 368.529 606.74 368.347 607.315 368.166C608.601 367.742 609.948 367.379 611.249 367.061C616.386 365.862 621.613 365.093 626.878 364.762C632.359 364.451 637.855 364.537 643.324 365.019C645.518 365.185 647.863 365.503 650.178 365.836C650.274 365.843 650.37 365.843 650.465 365.836C653.785 366.349 657.04 367.211 660.179 368.408C664.373 369.995 668.352 372.099 672.025 374.672C674.125 376.181 676.121 377.829 678.002 379.604C679.046 380.587 680.211 381.722 681.421 383.023C685.947 387.79 689.856 393.107 693.056 398.849C693.404 399.454 693.737 400.075 694.07 400.71L694.493 401.557C695.898 404.359 697.141 407.238 698.215 410.181C698.624 411.271 698.987 412.36 699.35 413.434C699.91 415.159 700.424 416.899 700.863 418.624C701.181 419.804 701.483 420.984 701.74 422.179C702.3 424.6 702.754 426.976 703.117 429.321C704.953 441.489 704.989 453.862 703.223 466.041Z" fill="#DADBE0"/>
    <path d="M676.217 417.898C676.316 415.376 676.285 412.851 676.126 410.333C676.035 408.986 675.899 407.67 675.702 406.369V406.111C675.147 402.501 673.942 399.02 672.147 395.838C670.716 393.297 668.967 390.948 666.942 388.848C666.307 388.198 665.671 387.562 665.021 386.987C662.426 384.653 659.573 382.622 656.518 380.935C655.398 380.3 654.4 379.801 653.613 379.422L651.812 378.651C651.812 380.406 651.812 382.161 651.918 383.916V384.188C650.889 383.613 649.936 383.175 649.18 382.812C647.033 379.857 644.687 377.051 642.159 374.414C639.981 372.14 637.678 369.988 635.26 367.969C635.409 368.008 635.561 368.033 635.714 368.045C641.161 368.897 646.506 370.312 651.661 372.266C658.52 374.867 665.03 378.307 671.042 382.509C674.478 384.986 677.748 387.685 680.831 390.588C682.556 392.207 684.447 394.083 686.429 396.201C690.019 400.054 693.364 404.126 696.445 408.396C698.017 411.231 699.363 414.185 700.47 417.232C700.47 417.232 700.621 417.822 700.833 418.594C701.226 420.107 701.514 421.332 701.711 422.149C693.094 422.218 684.509 421.093 676.202 418.805L676.217 417.898Z" fill="black" opacity="0.1"/>
    <path d="M644.943 367.848C644.943 374.082 637.59 379.105 628.512 379.105C619.434 379.105 612.096 374.082 612.096 367.848C612.094 367.507 612.13 367.167 612.202 366.834C617.34 365.621 622.575 364.856 627.846 364.55C633.332 364.224 638.834 364.31 644.307 364.807C644.736 365.763 644.953 366.8 644.943 367.848Z" fill="#FFCB9D"/>
    <path d="M595.075 432.68C599.654 460.357 604.234 487.999 608.813 515.606C610.659 516.287 612.505 516.953 614.366 517.603C614.941 514.577 615.485 511.551 616.06 508.45C619.278 490.899 622.511 473.349 625.759 455.798L631.705 498.736L634.156 516.454L641.191 518.148L643.536 501.626L652.947 434.798L595.075 432.68Z" fill="#066FD1"/>
    <path d="M603.624 384.521C590.975 395.112 572.381 410.484 550.352 411.346C544.193 411.514 538.051 410.618 532.196 408.699L532.65 404.16C539.004 406.308 546.07 408.093 550.548 401.83C556.328 393.705 558.991 393.917 566.692 394.961C574.393 396.005 576.239 390.013 578.796 386.745C581.353 383.477 592.609 383.719 595.59 383.81C598.57 383.901 603.624 384.521 603.624 384.521ZM652.947 434.798L623.928 433.754L595.06 432.725C596.135 426.673 597.239 420.485 598.313 414.357C598.238 414.887 616.469 431.802 652.887 429.759V431.817C652.932 432.816 652.947 433.814 652.947 434.798Z" fill="black" opacity="0.1"/>
    <path d="M634.156 516.454L622.778 433.678L652.947 434.798L641.191 518.148L634.156 516.454Z" fill="black" opacity="0.1"/>
    <path d="M643.309 533.641L642.553 528.83C642.553 528.83 642.553 524.124 639.693 523.186C636.834 522.248 628.376 529.995 626.288 534.942L636.319 531.175L637.832 534.942L643.309 533.641ZM616.287 533.641L615.531 528.83C615.531 528.83 615.531 524.124 612.671 523.186C609.812 522.248 601.354 529.995 599.266 534.942L609.297 531.175L610.81 534.942L616.287 533.641Z" fill="#232B41"/>
    <path d="M624.563 355.199C632.355 357.62 641.69 357.06 645.836 355.305C646.537 355.053 647.166 354.633 647.666 354.08C648.226 353.369 648.74 352.567 649.255 351.81C649.966 350.721 650.632 349.556 651.237 348.391C652.857 345.356 654.199 342.181 655.246 338.905C655.322 338.647 655.564 337.83 655.852 336.907C657.032 332.732 657.879 329.343 658.439 326.967C658.182 327.285 656.926 328.707 656.003 328.374C655.08 328.041 654.687 325.727 655.519 322.731L637.484 319.19L628.678 324.214C628.678 324.214 628.24 325.212 627.453 326.71C626.145 329.333 624.653 331.861 622.99 334.275C621.818 336.145 620.31 337.782 618.541 339.101C613.609 342.309 615.228 352.325 624.563 355.199Z" fill="#FFCB9D"/>
    <path d="M622.99 334.32C629.367 338.097 636.818 339.646 644.172 338.723C645.886 339.314 647.408 340.36 648.574 341.749C650.269 343.867 649.906 345.456 651.086 348.104L651.192 348.361C652.811 345.326 654.153 342.151 655.201 338.874C655.277 338.617 655.519 337.8 655.806 336.877C656.987 332.701 657.834 329.312 658.394 326.937C658.136 327.255 656.881 328.677 655.958 328.344C655.035 328.011 654.641 325.696 655.474 322.701L637.439 319.16L628.633 324.183C628.633 324.183 628.194 325.182 627.408 326.68C626.117 329.328 624.641 331.881 622.99 334.32Z" fill="black" opacity="0.1"/>
    <path d="M724.995 409.349C720.182 411.283 715.16 412.654 710.032 413.434C701.86 414.702 693.52 414.368 685.476 412.451C685.476 412.451 662.025 408.88 648.302 392.283C646.711 390.427 645.336 388.397 644.202 386.231C639.572 377.365 637.666 363.158 643.642 354.625C646.133 351.065 648.314 347.299 650.163 343.368C650.927 341.634 651.388 339.781 651.525 337.891V336.605C651.525 335.092 649.679 332.974 649.286 330.553C645.473 331.824 631.508 335.803 624.2 328.435C622.535 326.774 621.308 324.726 620.63 322.474C620.321 321.391 620.321 320.243 620.63 319.16C622.067 314.727 629.042 313.668 631.962 313.229C643.264 311.535 652.538 318.54 654.959 320.386C656.003 321.157 672.056 333.685 669.862 348.285C668.697 356.077 662.933 358.392 663.946 361.826C665.127 365.73 674.295 369.043 712.226 365.094C710.289 375.685 712.226 382.252 714.495 386.473C716.25 389.68 718.671 392.298 720.941 397.064C721.425 398.032 721.894 399.076 722.333 400.211C723.525 403.16 724.417 406.221 724.995 409.349Z" fill="#232B41"/>
    <path d="M724.995 409.349C720.112 411.069 715.111 412.434 710.032 413.434C701.86 414.702 693.52 414.368 685.476 412.451C685.476 412.451 662.025 408.88 648.302 392.283C646.711 390.427 645.335 388.396 644.202 386.231C639.572 377.365 637.666 363.158 643.642 354.625C646.132 351.065 648.314 347.299 650.163 343.368C647.559 356.126 649.912 369.397 656.744 380.481C664.716 391.777 676.563 399.747 690.03 402.874C696.121 404.428 702.501 404.464 708.61 402.98C713.095 401.79 717.305 399.734 721.001 396.928C721.485 397.896 721.954 398.94 722.393 400.075C723.574 403.069 724.446 406.177 724.995 409.349ZM620.69 322.413C621.364 324.667 622.591 326.717 624.261 328.374C631.568 335.742 645.533 331.763 649.346 330.492C650.751 329.626 652.06 328.611 653.249 327.466C647.822 329.341 642.018 329.857 636.345 328.971C630.672 328.085 625.302 325.823 620.705 322.383L620.69 322.413Z" fill="black" opacity="0.5"/>
    <path d="M644.943 367.848C644.943 374.082 637.59 379.105 628.512 379.105C619.434 379.105 612.096 374.082 612.096 367.848C612.094 367.507 612.13 367.167 612.202 366.834C617.34 365.621 622.575 364.856 627.846 364.55C633.332 364.224 638.834 364.31 644.307 364.807C644.736 365.763 644.953 366.8 644.943 367.848Z" fill="black" opacity="0.1"/>
    <path d="M636.954 378.121C635.29 374.036 633.369 371.918 631.235 371.827C628.784 371.721 626.833 374.293 625.879 375.867C624.745 373.9 622.127 370.178 618.768 370.269C616.045 370.39 613.564 373.144 611.4 378.439C610.386 380.905 609.221 384.385 610.598 386.095C610.815 386.339 611.084 386.532 611.385 386.657C611.686 386.783 612.012 386.839 612.338 386.821C615.243 386.821 620.191 383.326 623.564 380.648C623.085 381.838 622.27 382.863 621.219 383.598C620.839 383.747 620.502 383.988 620.238 384.3C619.974 384.612 619.791 384.984 619.706 385.384C619.283 387.169 620.433 389.378 621.461 391.088L622.626 389.847C621.113 387.26 621.113 386.276 621.113 385.989C621.156 385.874 621.224 385.77 621.313 385.686C621.403 385.602 621.51 385.54 621.628 385.505C623.459 384.794 625.032 381.51 625.834 379.559C626.43 380.912 626.891 382.321 627.211 383.765C627.146 384.103 627.06 384.436 626.954 384.763C626.575 386.034 625.94 388.152 627.271 389.559C628.013 390.361 628.588 393.206 628.784 397.2L630.297 397.064C630.055 392.253 629.359 389.211 628.224 387.986C627.831 387.577 627.952 386.881 628.376 385.489C628.545 384.999 628.662 384.492 628.724 383.976C628.626 382.742 628.33 381.531 627.846 380.391C630.494 382.464 633.974 384.839 636.107 384.839C636.389 384.865 636.674 384.824 636.937 384.719C637.2 384.614 637.434 384.447 637.62 384.234C638.664 382.796 637.741 380.058 636.954 378.121ZM611.612 384.627C611.612 384.536 610.976 383.659 612.716 379.392C614.592 374.762 616.65 372.357 618.768 372.266H618.92C621.567 372.266 623.837 375.7 624.76 377.304C619.192 381.994 612.732 386.004 611.612 384.627ZM636.501 382.736C635.805 383.583 631.356 381.011 626.938 377.304C627.68 376.064 629.253 373.809 631.084 373.809H631.19C632.703 373.885 634.216 375.655 635.638 379.074C636.864 382.085 636.501 382.736 636.501 382.736Z" fill="#066FD1"/>
    <path d="M179.7 109.657C179.972 111.548 172.801 113.999 163.678 115.134C154.554 116.269 146.944 115.618 146.672 113.712C146.667 113.515 146.711 113.32 146.798 113.144C146.884 112.968 147.013 112.815 147.171 112.698C157.959 110.883 169.488 109.324 178.369 108.537C179.171 108.795 179.64 109.173 179.7 109.657Z" fill="#FFCB9D"/>
    <path d="M179.7 109.657C179.972 111.548 172.801 113.999 163.678 115.134C154.554 116.269 146.944 115.618 146.672 113.712C146.667 113.515 146.711 113.32 146.798 113.144C146.884 112.968 147.013 112.815 147.171 112.698C157.959 110.883 169.488 109.324 178.369 108.537C179.171 108.795 179.64 109.173 179.7 109.657Z" fill="black" opacity="0.1"/>
</svg>
