<svg xmlns="http://www.w3.org/2000/svg" width="800" height="600" fill="none" viewBox="0 0 800 600">
    <path d="M118 309.709C118 354.919 165.799 387.706 186.915 424.209C208.719 461.85 213.948 519.393 251.614 541.223C288.129 562.339 340.094 538.721 385.303 538.721C430.512 538.721 482.477 562.339 518.98 541.223C556.646 519.393 561.875 461.85 583.679 424.209C604.795 387.706 652.594 354.919 652.594 309.709C652.594 264.5 604.795 231.675 583.679 195.21C561.875 157.556 556.646 99.975 518.98 78.1959C482.477 57.0799 430.5 80.6978 385.303 80.6978C340.106 80.6978 288.129 57.0799 251.614 78.1959C213.948 99.975 208.719 157.556 186.915 195.21C165.786 231.675 118 264.5 118 309.709Z" fill="#066FD1" opacity="0.02"/>
    <path d="M407.206 444.537C558.578 444.537 681.289 441.064 681.289 436.781C681.289 432.497 558.578 429.025 407.206 429.025C255.834 429.025 133.123 432.497 133.123 436.781C133.123 441.064 255.834 444.537 407.206 444.537Z" fill="#D6D8E2" opacity="0.5"/>
    <path d="M238.342 123.681V429.25C238.267 431.016 237.512 432.684 236.236 433.907C234.96 435.13 233.261 435.813 231.493 435.813C229.726 435.813 228.027 435.13 226.751 433.907C225.475 432.684 224.72 431.016 224.645 429.25V123.681C224.648 121.867 225.37 120.128 226.652 118.846C227.935 117.563 229.673 116.841 231.487 116.838C233.301 116.844 235.039 117.567 236.323 118.849C237.607 120.13 238.333 121.867 238.342 123.681Z" fill="#232B41"/>
    <path d="M238.342 212.385V429.25C238.267 431.016 237.512 432.684 236.236 433.907C234.96 435.13 233.261 435.812 231.493 435.812C229.726 435.812 228.027 435.13 226.751 433.907C225.475 432.684 224.72 431.016 224.645 429.25V220.154C228.96 215.125 233.564 212.385 238.342 212.385Z" fill="black" opacity="0.3"/>
    <path d="M374.833 227.922C374.758 228.773 374.695 229.511 374.645 230.149C374.301 233.816 373.754 237.462 373.007 241.07C370.98 251.94 368.003 267.139 358.758 283.602C353.295 293.22 346.525 302.036 338.643 309.797L323.819 267.077C325.208 263.749 344.81 216.376 334.127 209.533C331.037 207.557 324.257 208.282 317.865 208.945C313.201 209.462 308.595 210.409 304.104 211.772L278.96 219.278L275.858 220.254C275.522 217.952 275.003 215.681 274.307 213.461C273.753 211.685 273.084 209.947 272.305 208.257C270.021 203.258 266.798 198.743 262.811 194.96C264.637 193.859 267.201 192.458 270.316 190.831C270.316 190.831 273.406 189.268 278.097 187.304C280.912 186.128 284.352 184.802 287.942 183.551C290.244 182.788 292.658 182.062 295.085 181.449C303.842 179.235 338.681 172.843 358.883 183.476C363.277 185.656 366.999 188.984 369.654 193.108C370.219 194.023 370.729 194.971 371.18 195.948C371.343 196.286 371.481 196.623 371.618 196.961C371.756 197.299 371.856 197.524 371.956 197.799C372.927 200.337 373.648 202.964 374.108 205.643C375.275 213.01 375.519 220.494 374.833 227.922Z" fill="#DADBE0"/>
    <path d="M419.079 357.27L419.004 357.445L385.304 435.918C372.581 431.939 359.909 427.836 347.3 423.846L337.167 420.656C314.187 413.488 311.81 412.75 309.871 412.049C305.446 410.438 301.317 408.11 297.649 405.157C285.528 395.599 272.443 376.51 260.696 339.157C257.919 330.312 255.217 320.455 252.615 309.459L332.226 260.509C337.376 289.043 352.412 314.851 374.695 333.402C387.725 344.276 402.824 352.396 419.079 357.27Z" fill="#DADBE0"/>
    <path d="M385.303 435.917L614.151 433.753L614.227 421.519L458.258 389.982L481.301 370.843C494.411 398.597 507.525 426.356 520.643 454.119L532.89 452.868C528.578 407.984 524.258 363.133 519.93 318.315L419.003 357.445L385.303 435.917Z" fill="#066FD1"/>
    <path d="M641.31 401.241L637.019 437.519C637.019 437.519 627.574 438.77 624.384 433.153C621.195 427.536 632.478 407.246 641.31 401.279" fill="#232B41"/>
    <path d="M551.967 485.267L517.266 474.009C517.266 474.009 517.904 464.502 524.021 462.463C530.138 460.424 547.789 475.46 551.967 485.28" fill="#232B41"/>
    <path d="M419.004 357.446L385.303 435.918C372.581 431.94 359.909 427.837 347.299 423.846C324.632 416.266 309.045 410.786 297.649 405.157C292.785 402.826 288.174 400.001 283.889 396.726C274.331 389.22 255.317 370.656 248.512 327.736C252.366 331.767 256.442 335.58 260.721 339.157C270.258 347.141 280.823 353.809 292.132 358.985C349.588 385.192 406.169 362.875 419.004 357.446Z" fill="black" opacity="0.1"/>
    <path d="M357.056 430.576C355.372 431.25 353.597 431.672 351.789 431.827C342.833 432.377 334.789 427.536 333.826 420.843C333.025 414.951 337.929 409.51 345.309 407.871L348.237 407.333C356.518 406.77 363.711 410.798 365.75 416.603C365.85 417.141 366.1 417.779 366.2 418.317C367.076 423.833 363.135 428.549 357.056 430.576Z" fill="#FFCB9D"/>
    <path d="M357.056 430.576C355.372 431.25 353.597 431.672 351.789 431.827C342.833 432.377 334.789 427.536 333.826 420.843C333.025 414.951 337.929 409.51 345.309 407.871C345.309 408.146 345.572 408.509 345.672 409.047C347.561 413.363 351.927 419.417 357.056 420.13C360.596 420.718 363.498 418.529 365.637 416.765C365.737 417.303 365.988 417.941 366.088 418.467C367.076 423.833 363.135 428.549 357.056 430.576Z" fill="black" opacity="0.1"/>
    <path d="M347.436 398.302C346.936 412.979 346.431 427.653 345.923 442.322C328.176 442.393 310.45 441.079 292.907 438.394C286.403 437.406 281.186 436.606 276.933 435.818C270.541 434.642 266.3 433.478 263.035 431.714C252.214 425.86 245.071 415.852 240.38 404.456C239.767 402.955 239.192 401.441 238.654 399.903C229.634 373.921 231.924 342.897 232.399 336.967C234.701 305.844 245.672 292.208 250.313 291.433C253.466 290.961 256.678 291.033 259.807 291.646C260.803 291.875 261.785 292.163 262.747 292.509C263.448 292.759 263.848 292.947 263.848 292.947L270.766 298.313C274.093 300.965 277.346 309.171 276.82 333.828C274.519 338.681 266.888 356.245 274.068 373.132C283.375 395.049 314.361 408.134 347.436 398.302Z" fill="#DADBE0"/>
    <path d="M282.912 290.27C289.614 291.872 296.649 291.347 303.04 288.768L303.941 288.418C305.817 283.765 307.689 279.107 309.557 274.445L282.912 290.27Z" fill="#FFCB9D"/>
    <path d="M282.912 290.27C289.614 291.872 296.649 291.347 303.04 288.768L303.941 288.418C305.817 283.765 307.689 279.107 309.557 274.445L282.912 290.27Z" fill="black" opacity="0.1"/>
    <path d="M303.941 288.418L313.499 264.662L320.191 266.276L319.666 291.758L303.941 288.418Z" fill="#066FD1"/>
    <path d="M303.941 288.418L313.499 264.662L320.191 266.276L319.666 291.758L303.941 288.418Z" fill="black" opacity="0.11"/>
    <path d="M303.14 288.931L265.712 289.219L263.348 298.663L296.385 310.685L303.14 288.931Z" fill="#066FD1"/>
    <path d="M345.923 442.322C328.176 442.392 310.451 441.079 292.908 438.394C276.646 435.892 268.477 434.641 263.035 431.714C250.801 425.084 243.258 413.15 238.654 399.903C252.953 417.654 282.413 439.057 345.923 442.322Z" fill="black" opacity="0.1"/>
    <path d="M458.258 389.982L408.471 381.976L419.016 357.445L519.943 318.315C524.271 363.166 528.591 408.013 532.903 452.855L520.656 454.106C507.538 426.343 494.423 398.585 481.314 370.83L458.258 389.982Z" fill="black" opacity="0.1"/>
    <path d="M304.079 211.722L278.935 219.228L274.282 213.411L270.904 209.195C268.244 205.86 265.583 202.524 262.923 199.188C261.096 196.924 259.283 194.647 257.469 192.383C258.657 191.632 259.971 190.807 261.534 189.956C265.725 187.614 270.101 185.623 274.619 184.001C275.56 184.491 276.407 185.143 277.121 185.928C277.505 186.35 277.845 186.812 278.134 187.304C280.949 186.128 284.389 184.802 287.979 183.551C292.775 186.55 296.757 190.685 299.574 195.59C302.391 200.495 303.956 206.019 304.129 211.672L304.079 211.722Z" fill="black" opacity="0.1"/>
    <path d="M221.115 223.294C223.154 227.409 226.294 233.539 230.16 240.807C231.11 242.471 231.911 243.784 232.136 244.31C236.811 252.176 242.432 259.439 248.874 265.939C250.262 267.19 251.376 268.366 252.802 269.692C256.442 272.669 269.977 272.093 283.337 267.815C287.98 266.381 292.436 264.399 296.61 261.911C309.783 254.405 311.446 240.257 306.13 233.001C304.884 231.255 303.14 229.925 301.126 229.186C297.263 227.449 293.725 225.062 290.668 222.13C286.433 218.351 282.551 214.193 279.072 209.708C277.89 208.383 276.783 206.992 275.757 205.543L257.105 199.776L224.781 214.162C227.533 219.416 227.845 223.882 226.257 225.008C224.668 226.133 221.778 223.844 221.115 223.294Z" fill="#FFCB9D"/>
    <path d="M221.115 223.294C223.154 227.409 226.294 233.539 230.16 240.807C231.11 242.471 231.911 243.784 232.136 244.309C236.811 252.175 242.432 259.439 248.874 265.938C250.652 264.31 252.126 262.379 253.227 260.234C254.367 257.844 255.067 255.267 255.291 252.628C255.377 249.813 255.039 247 254.29 244.284C253.891 242.529 253.399 240.796 252.814 239.093C267.034 237.758 280.388 231.667 290.718 221.805C286.49 218.027 282.613 213.873 279.134 209.395C277.952 208.07 276.846 206.679 275.819 205.23L257.168 199.513L224.868 213.874C227.633 219.128 227.945 223.594 226.357 224.72C224.768 225.845 221.778 223.831 221.115 223.281" fill="black" opacity="0.1"/>
    <path d="M220.203 232.063C223.34 238.722 228.882 243.947 235.715 246.686C237.141 247.087 238.405 247.574 239.668 248.062C243.097 249.818 246.037 252.397 248.224 255.568C249.002 253.116 248.94 250.475 248.049 248.062C246.673 244.485 242.145 238.555 241.795 237.679L241.569 237.154C241.323 236.632 241.03 236.134 240.694 235.665C239.744 234.001 238.964 232.245 238.367 230.424L238.279 230.249C248.737 231.662 277.497 233.301 287.755 214.524C289.325 211.572 290.527 208.438 291.332 205.192C291.464 204.901 291.536 204.586 291.545 204.266C291.751 203.447 291.877 202.609 291.92 201.765L292.02 201.502C292.278 199.323 292.142 197.115 291.62 194.984L291.495 194.209C291.274 193.27 290.875 192.382 290.319 191.594C288.406 188.423 285.419 186.044 281.9 184.889C275.345 182.387 267.552 182.7 263.261 182.925C246.999 183.476 225.657 191.494 219.303 209.195C217.831 213.758 217.403 218.593 218.052 223.343C218.378 226.311 219.11 229.219 220.228 231.988" fill="#232B41"/>
    <path d="M238.241 230.312C248.699 231.725 277.459 233.364 287.716 214.587C289.287 211.635 290.489 208.501 291.294 205.255C291.426 204.964 291.498 204.649 291.507 204.329C291.713 203.51 291.839 202.672 291.882 201.828C291.861 201.779 291.86 201.725 291.878 201.676C291.897 201.626 291.934 201.587 291.982 201.565C292.24 199.386 292.104 197.178 291.582 195.047C289.461 200.249 286.531 205.083 282.9 209.371C264.849 230.374 234.776 227.647 229.998 227.259H229.572C232.349 228.323 235.302 229.311 238.241 230.299" fill="black" opacity="0.5"/>
    <path d="M374.833 227.922C374.758 228.773 374.695 229.511 374.645 230.149C374.301 233.817 373.754 237.463 373.007 241.07C370.98 251.941 368.003 267.14 358.758 283.602C355.335 289.634 351.392 295.356 346.974 300.703C346.972 300.665 346.972 300.627 346.974 300.59C360.402 270.41 369.531 238.496 374.095 205.781C375.255 213.102 375.503 220.54 374.833 227.922Z" fill="black" opacity="0.1"/>
    <path d="M276.934 435.817C270.541 434.641 266.301 433.478 263.036 431.714C252.215 425.86 245.072 415.852 240.381 404.456C246.498 404.519 255.242 408.609 263.236 415.715C270.716 422.307 275.67 429.9 276.934 435.817Z" fill="#232B41"/>
    <path d="M374.832 227.922C370.411 222.664 366.825 216.757 364.199 210.409C359.996 200.527 358.245 190.807 358.92 183.564C363.314 185.744 367.035 189.072 369.691 193.196C370.256 194.111 370.766 195.059 371.217 196.036C371.38 196.373 371.517 196.711 371.655 197.049C371.793 197.387 371.893 197.612 371.993 197.887C375.946 207.907 375.358 221.017 374.832 227.922Z" fill="#232B41"/>
    <path d="M456.494 133.325C457.138 129.593 458.543 126.033 460.622 122.867C462.539 120.027 464.842 117.467 467.465 115.262C469.996 113.116 472.694 111.175 475.533 109.457C478.336 107.756 480.963 106.117 483.44 104.553C485.77 103.085 487.912 101.337 489.819 99.3495C491.62 97.4147 492.82 94.9982 493.272 92.3942C493.688 90.3877 493.601 88.3094 493.018 86.3448C492.435 84.3802 491.375 82.5906 489.932 81.1356C486.905 77.8415 482.522 75.6481 476.784 74.5556C471.491 73.4135 465.995 73.6113 460.797 75.1311C455.998 76.6168 451.635 79.2537 448.088 82.8119L428.811 65.9491C435.25 59.3942 443.3 54.6485 452.153 52.1887C461.394 49.4866 472.052 49.2865 484.128 51.5882C492.296 52.9823 500.145 55.843 507.295 60.0321C513.115 63.4131 517.879 68.3465 521.056 74.2804C523.98 80.1667 524.801 86.877 523.382 93.2949C522.659 97.628 521.109 101.781 518.816 105.529C516.843 108.639 514.37 111.403 511.498 113.71C508.748 115.888 505.856 117.882 502.842 119.677C499.839 121.454 496.987 123.205 494.31 124.919C491.777 126.52 489.471 128.456 487.455 130.673C485.506 132.893 484.208 135.607 483.702 138.517L456.494 133.325ZM461.498 181.112C459.232 180.746 457.065 179.922 455.129 178.69C453.193 177.457 451.529 175.842 450.239 173.944C448.973 172.169 448.083 170.153 447.624 168.021C447.166 165.889 447.149 163.685 447.575 161.547C447.934 159.403 448.745 157.361 449.955 155.555C451.165 153.75 452.746 152.223 454.593 151.076C458.586 148.784 463.269 147.998 467.792 148.861C472.315 149.724 476.379 152.178 479.249 155.78C480.513 157.533 481.396 159.533 481.84 161.649C482.284 163.765 482.279 165.95 481.826 168.064C481.443 170.204 480.631 172.244 479.438 174.061C478.244 175.878 476.695 177.434 474.883 178.635C472.947 179.946 470.761 180.843 468.462 181.269C466.163 181.695 463.8 181.642 461.523 181.112H461.498Z" fill="#066FD1"/>
</svg>
