<svg xmlns="http://www.w3.org/2000/svg" width="800" height="600" fill="none" viewBox="0 0 800 600">
    <path d="M153.012 315.03C153.012 357.38 197.802 388.2 217.642 422.45C238.042 457.81 243.032 511.69 278.282 532.2C312.542 552.04 361.312 529.87 403.662 529.87C446.012 529.87 494.792 552.04 529.042 532.2C564.292 511.8 569.282 457.81 589.682 422.45C609.522 388.19 654.312 357.49 654.312 315.03C654.312 272.57 609.412 241.86 589.682 207.61C569.282 172.25 564.292 118.26 529.042 97.8599C494.792 78.0199 446.012 100.19 403.662 100.19C361.312 100.19 312.532 78.0199 278.282 97.8599C242.922 118.26 238.042 172.25 217.642 207.61C197.802 241.98 153.012 272.68 153.012 315.03Z" fill="#066FD1" opacity="0.02"/>
    <path d="M436.851 493.38C521.742 493.38 590.561 491.643 590.561 489.5C590.561 487.357 521.742 485.62 436.851 485.62C351.959 485.62 283.141 487.357 283.141 489.5C283.141 491.643 351.959 493.38 436.851 493.38Z" fill="#D6D8E2" opacity="0.5"/>
    <path d="M558.641 516.43C558.641 517.87 587.911 519.06 623.991 519.06C660.071 519.06 689.341 517.86 689.341 516.43C689.341 515 660.071 513.86 623.991 513.86C587.911 513.86 558.641 515.06 558.641 516.43Z" fill="#D6D8E2" opacity="0.5"/>
    <path d="M641.46 349.55L638.5 364.76H604.13L607.01 350.12L604.13 350.04C593.22 405.32 582.31 460.6 571.41 515.88L574.29 516.46L577.33 500.92H611.7L608.74 515.88L611.62 516.46L644.34 350.04L641.46 349.55ZM637.93 367.64L631.93 398.06H597.56L603.56 367.64H637.93ZM590.98 431.36L596.98 400.94H631.35L625.35 431.36H590.98ZM624.85 434.32L618.85 464.74H584.48L590.48 434.32H624.85ZM577.91 498.04L583.91 467.62H618.28L612.28 498.04H577.91Z" fill="#232B41"/>
    <path d="M668.271 470.82L663.341 445.5L644.431 349.47L641.471 350.05L644.351 364.6H610.061L607.101 349.47L604.141 350.05L636.861 516.47L639.821 515.89L636.861 501.01H671.151L674.191 516.47L677.151 515.89L668.271 470.83V470.82ZM610.631 367.72H644.921L650.841 398.06H616.551L610.631 367.72ZM617.211 401.02H651.501L657.421 431.36H623.131L617.211 401.02ZM623.791 434.4H658.081L661.201 450.19L664.081 464.66H629.711L623.791 434.4ZM636.281 498.04L630.361 467.7H664.651L664.811 468.52L665.141 470.25L670.571 498.04H636.281Z" fill="#A6A9B3"/>
    <path d="M574.61 201.62C573.93 199.87 573.2 198.18 572.41 196.52C566.86 184.99 559.15 176.23 549.31 170.25C539.46 164.28 528.28 161.29 515.76 161.29C503.24 161.29 491.88 164.28 482.11 170.25C472.34 176.23 464.64 184.99 459.01 196.52C453.38 208.05 450.57 221.9 450.57 238.08C450.57 254.26 453.39 268.1 459.01 279.63C459.68 281 460.37 282.33 461.1 283.62C466.5 293.2 473.5 300.62 482.11 305.89C491.88 311.87 503.11 314.85 515.76 314.85C528.41 314.85 539.46 311.87 549.31 305.89C559.15 299.91 566.85 291.15 572.41 279.62C577.96 268.09 580.75 254.24 580.75 238.07C580.75 224.21 578.7 212.05 574.61 201.6V201.62ZM535.8 262.87C533.83 269.13 531.13 273.66 527.68 276.48C524.24 279.3 520.27 280.7 515.76 280.7C511.25 280.7 507.28 279.3 503.84 276.48C502.63 275.5 501.51 274.31 500.47 272.89C498.56 270.28 496.93 266.93 495.61 262.87C493.56 256.62 492.55 248.35 492.55 238.09C492.55 227.83 493.56 219.38 495.61 213.2C497.65 207.01 500.38 202.51 503.84 199.69C507.28 196.88 511.25 195.48 515.76 195.48C520.27 195.48 524.24 196.88 527.68 199.69C531.13 202.51 533.84 207.01 535.8 213.2C537.78 219.39 538.75 227.69 538.75 238.09C538.75 242.94 538.53 247.36 538.08 251.31C537.6 255.73 536.83 259.58 535.79 262.87H535.8Z" fill="#232B41"/>
    <path d="M442.082 280.28V313.4H327.102V287.03L335.922 278.78L382.162 235.55C386.252 231.9 389.202 228.62 391.032 225.74C392.852 222.86 394.092 220.29 394.722 218.03C395.342 215.78 395.672 213.6 395.672 211.49C395.672 206.85 394.092 203.19 390.922 200.52C387.762 197.86 383.022 196.52 376.682 196.52C371.332 196.52 366.372 197.72 361.812 200.11C357.232 202.5 353.472 206.02 350.522 210.65L319.512 193.56C324.862 184.27 332.732 176.83 343.142 171.2C353.552 165.57 366.002 162.76 380.482 162.76C391.882 162.76 401.862 164.62 410.442 168.35C419.022 172.07 425.742 177.24 430.582 183.85C435.442 190.46 437.862 198.41 437.862 207.68C437.862 212.32 437.232 217.04 435.972 221.81C435.182 224.78 433.942 227.85 432.272 231.02C431.242 232.94 430.062 234.91 428.692 236.9C425.102 242.17 419.792 248.05 412.762 254.52L385.022 280.26H442.092L442.082 280.28Z" fill="#DADCE0"/>
    <path d="M570.13 439.87C570.13 448.45 567.84 456.57 563.28 464.23C558.7 471.89 551.71 478.12 542.29 482.9C532.86 487.68 520.76 490.08 506 490.08C495.59 490.08 485.29 488.85 475.09 486.39C464.89 483.94 456 480.31 448.41 475.52L463.81 444.3C469.72 448.1 476.22 451.05 483.32 453.16C490.42 455.27 497.42 456.32 504.32 456.32C511.22 456.32 517.26 454.99 521.61 452.32C525.97 449.65 528.15 445.78 528.15 440.71C528.15 437.76 527.34 435.16 525.73 432.9C524.11 430.65 521.2 428.9 516.97 427.63C512.75 426.36 506.91 425.73 499.46 425.73H459.38L466.76 339.45H560.85V371.94H501.3L499.52 393.25H509.38C524 393.25 535.75 395.33 544.61 399.48C552.94 403.38 559.16 408.55 563.26 415.01C563.52 415.42 563.77 415.83 564.02 416.26C568.1 423.29 570.13 431.16 570.13 439.89V439.87Z" fill="#066FD1"/>
    <path d="M406.971 432.23C406.971 432.23 400.121 435.49 395.581 434.6C391.041 433.71 399.171 429.11 399.171 429.11L406.781 428.63L406.971 432.23Z" fill="#DADCE0"/>
    <path d="M406.971 432.23C406.971 432.23 400.121 435.49 395.581 434.6C391.041 433.71 399.171 429.11 399.171 429.11L406.781 428.63L406.971 432.23Z" fill="black" opacity="0.1"/>
    <path d="M252.672 528.85C252.672 530.29 302.242 531.48 363.362 531.48C424.482 531.48 474.052 530.28 474.052 528.85C474.052 527.42 424.482 526.28 363.362 526.28C302.242 526.28 252.672 527.48 252.672 528.85Z" fill="#D6D8E2" opacity="0.5"/>
    <path d="M358.311 529.69L345.811 528.93C345.811 528.93 345.201 525.72 347.051 524.51C348.901 523.31 356.091 526.78 358.301 529.69H358.311Z" fill="#232B41"/>
    <path d="M293.062 522.11L288.512 510.44C288.512 510.44 291.172 508.54 293.042 509.72C294.912 510.9 294.772 518.88 293.052 522.11H293.062Z" fill="#232B41"/>
    <path d="M362.991 479.07L351.851 519.59C350.111 519.71 348.381 519.86 346.641 519.99C347.381 507.9 348.121 495.79 348.841 483.7C344.791 479.02 340.751 474.34 336.701 469.66C336.411 470.04 336.111 470.43 335.821 470.81C334.541 472.49 333.251 474.17 331.961 475.85C329.001 479.73 326.031 483.61 323.071 487.49C314.141 494.61 305.201 501.73 296.271 508.84C295.301 508.24 294.341 507.63 293.371 507.03C299.651 498.58 305.931 490.12 312.221 481.67C312.431 480.2 312.651 478.75 312.851 477.28L315.141 461.54C316.021 455.42 316.921 449.29 317.801 443.17L323.211 443.37L324.711 443.42L333.891 443.76L335.411 443.81L336.811 443.86C337.921 443.9 338.871 443.93 339.591 443.96C339.741 443.96 339.871 443.97 340.001 443.97C343.601 444.11 347.191 444.24 350.781 444.38C354.851 455.94 358.911 467.51 362.981 479.07H362.991Z" fill="#066FD1"/>
    <path d="M362.989 479.07L351.849 519.59C350.109 519.71 348.379 519.86 346.639 519.99C347.379 507.9 348.119 495.79 348.839 483.7C344.789 479.02 340.749 474.34 336.699 469.66C337.799 461.1 338.889 452.53 339.999 443.97C343.599 444.11 347.189 444.24 350.779 444.38C354.849 455.94 358.909 467.51 362.979 479.07H362.989Z" fill="black" opacity="0.1"/>
    <path d="M402.08 392.22C402.3 391.56 402.64 390.95 403.09 390.42C404.51 388.36 406.71 387.48 408.58 388.33C410.98 389.42 411.99 392.88 410.76 396.18C410.64 396.54 410.48 396.87 410.27 397.19C408.89 399.77 406.36 401.06 404.26 400.08C401.93 398.98 400.92 395.45 402.08 392.23V392.22Z" fill="#FFCB9D"/>
    <path d="M402.081 392.22C402.301 391.56 402.641 390.95 403.091 390.42C403.971 391.18 404.651 391.8 405.141 392.21C406.491 393.38 407.011 393.81 407.791 394.58C408.421 395.2 408.901 395.73 409.211 396.09L409.931 396.84L410.331 397.1C408.951 399.68 406.421 400.97 404.331 399.99C401.941 398.97 400.921 395.44 402.091 392.22H402.081Z" fill="black" opacity="0.1"/>
    <path d="M399.76 391.01C397.12 393.68 393.04 397.41 387.48 401.1C382.68 404.28 380.28 405.87 378.43 405.63C371.26 404.68 370.22 390.23 359.98 387.66C359.04 387.43 358.25 387.35 357.84 387.33L314.27 385.72L315.93 412.75C316.16 416.44 316.39 420.06 316.63 423.76C317.05 430.18 317.4 436.68 317.83 443.18L350.8 444.4C351.63 438.03 352.38 431.57 353.21 425.12C353.83 419.84 354.48 414.56 355.14 409.28L355.16 409.31C356.86 410.82 358.64 412.18 360.03 413.25C363.18 415.65 368.07 419.37 371.28 420.84C371.28 420.84 385.16 427.24 409.56 407.37C410.04 406.97 410.53 406.57 411.02 406.15C411.32 405.9 411.61 405.64 411.9 405.39C412.18 405.14 412.45 404.9 412.69 404.68C413.1 404.3 413.45 403.97 413.7 403.74L413.83 403.61C413.99 403.46 414.08 403.37 414.08 403.37C415.06 402.4 416.01 401.4 416.91 400.35C410.4 399.01 404.43 395.77 399.76 391.05V391.01Z" fill="#DADCE0"/>
    <path d="M331.53 385.46C333.3 387.44 335.64 388.81 338.23 389.4L338.59 389.48L345.18 386.78L331.52 385.46H331.53Z" fill="#FFCB9D"/>
    <path d="M331.53 385.46C333.3 387.44 335.64 388.81 338.23 389.4L338.59 389.48L345.18 386.78L331.52 385.46H331.53Z" fill="black" opacity="0.1"/>
    <path d="M338.609 389.48L346.839 384.04L348.599 386.02L342.859 393.99L338.609 389.48Z" fill="#066FD1"/>
    <path d="M338.238 389.47L326.308 381.36L323.488 383.84L331.328 394.89L338.238 389.47Z" fill="#066FD1"/>
    <path d="M338.609 389.48L346.839 384.04L348.599 386.02L342.859 393.99L338.609 389.48Z" fill="black" opacity="0.1"/>
    <path d="M317.821 443.16L350.791 444.38C345.271 441.14 337.371 435.65 329.861 426.9C321.901 417.61 317.601 408.41 315.281 402.26C315.281 402.37 315.511 405.96 315.511 406.07C315.511 406.18 315.741 409.76 315.741 409.87L317.811 443.17L317.821 443.16Z" fill="black" opacity="0.1"/>
    <path d="M416.911 400.31C416.011 401.35 415.051 402.36 414.081 403.33C414.081 403.33 413.991 403.42 413.831 403.57C413.791 403.61 413.741 403.65 413.701 403.7C413.451 403.93 413.101 404.27 412.691 404.64C412.451 404.86 412.181 405.1 411.901 405.35C411.621 405.6 411.321 405.86 411.021 406.11C410.531 406.53 410.041 406.93 409.561 407.33C385.161 427.2 371.281 420.8 371.281 420.8C368.071 419.33 363.181 415.61 360.031 413.21C358.631 412.15 356.851 410.79 355.161 409.27L355.141 409.24C355.141 409.24 381.801 425.35 416.921 400.29L416.911 400.31Z" fill="black" opacity="0.1"/>
    <path d="M335.831 470.81C334.551 472.49 333.261 474.17 331.971 475.85C326.651 476.14 318.181 476.83 312.871 477.27L315.161 461.53C321.431 462.04 333.871 463.07 334.171 463.14C334.411 463.2 335.201 467.3 335.831 470.8V470.81Z" fill="black" opacity="0.1"/>
    <path d="M429.712 460.2L422.412 492.51L310.262 467.16L316.072 441.45L381.122 403.38C385.902 400.71 389.502 398.17 391.922 395.76C394.342 393.36 396.112 391.12 397.222 389.06C398.332 387.01 399.122 384.95 399.582 382.89C400.612 378.37 399.872 374.45 397.382 371.14C394.872 367.84 390.552 365.49 384.372 364.09C379.152 362.92 374.052 362.99 369.072 364.32C367.832 364.66 366.532 365.09 365.192 365.65C358.872 368.29 354.602 372.47 351.992 375.67C348.002 371.57 343.792 366.84 339.572 361.44C336.262 357.18 333.362 353.05 330.832 349.12C334.422 345.09 343.072 336.47 357.222 332.01C369.892 328.02 380.712 329.33 385.982 330.33C389.092 330.71 392.291 331.26 395.541 331.99C406.651 334.5 415.971 338.52 423.521 344.04C431.071 349.57 436.481 356.09 439.751 363.61C443.031 371.13 443.641 379.42 441.601 388.46V388.48C440.571 393.01 438.921 397.46 436.631 401.85C434.341 406.24 430.871 410.61 426.201 414.95C421.541 419.31 415.061 423.86 406.791 428.62L374.022 447.63L429.692 460.21L429.712 460.2Z" fill="#066FD1"/>
    <path d="M356.791 360.61C355.981 362.18 354.731 364.53 353.201 367.3C352.831 367.94 352.511 368.44 352.421 368.64C350.571 371.64 348.361 374.41 345.851 376.88C345.311 377.36 344.861 377.8 344.311 378.27C342.901 379.41 337.681 379.1 332.551 377.38C330.771 376.8 329.061 376.01 327.471 375.03C322.441 372.05 321.881 366.6 323.971 363.84C324.461 363.17 325.151 362.67 325.931 362.4C327.431 361.75 328.801 360.85 330.001 359.74C331.651 358.31 333.171 356.73 334.531 355.02C334.991 354.52 335.431 353.98 335.831 353.43L343.051 351.33L355.411 357.04C354.321 359.05 354.201 360.78 354.781 361.21C355.371 361.65 356.511 360.8 356.771 360.59L356.791 360.61Z" fill="#FFCB9D"/>
    <path d="M356.791 360.61C355.981 362.18 354.731 364.53 353.201 367.3C352.831 367.94 352.511 368.44 352.421 368.64C350.571 371.64 348.361 374.41 345.851 376.88C345.181 376.24 344.621 375.49 344.201 374.66C343.771 373.73 343.521 372.74 343.451 371.72C343.421 370.64 343.551 369.55 343.841 368.51C343.991 367.84 344.231 367.14 344.441 366.52C338.971 365.92 333.861 363.5 329.941 359.64C331.591 358.21 333.111 356.63 334.471 354.92C334.941 354.42 335.371 353.89 335.771 353.34L342.991 351.26L355.351 356.98C354.251 358.99 354.141 360.71 354.721 361.15C355.301 361.59 356.481 360.83 356.741 360.64L356.771 360.61H356.791Z" fill="black" opacity="0.1"/>
    <path d="M357.899 360.72C357.789 361.57 357.569 362.71 357.089 364C355.839 366.56 353.679 368.54 351.029 369.56C350.469 369.71 349.989 369.89 349.499 370.07C348.169 370.73 347.029 371.7 346.159 372.9C345.879 371.97 345.919 370.95 346.259 370.04C346.819 368.67 348.589 366.41 348.739 366.07L348.839 365.87C348.929 365.68 349.039 365.48 349.169 365.3C349.549 364.67 349.859 363.99 350.099 363.29V363.23C349.999 363.26 349.889 363.28 349.779 363.31C349.119 363.47 348.029 363.71 346.649 363.82C346.509 363.83 346.369 363.84 346.219 363.86C343.389 364.04 339.519 363.72 335.909 361.44C334.469 360.52 330.929 358.28 329.839 353.96C329.359 352.06 329.529 350.4 329.719 349.35C329.719 349.35 329.999 348.35 330.229 348.05C330.979 346.83 332.149 345.94 333.509 345.51C336.059 344.57 339.059 344.75 340.709 344.86C346.979 345.16 355.139 348.38 357.489 355.26C357.649 355.77 357.759 356.27 357.859 356.78C358.159 358.55 357.989 359.94 357.889 360.73L357.899 360.72Z" fill="#232B41"/>
    <path d="M353.48 362.12C352.95 362.31 352.39 362.51 351.83 362.69C351.26 362.88 350.7 363.06 350.16 363.22H350.14C350.03 363.25 349.92 363.27 349.81 363.3C348.75 363.52 347.7 363.7 346.68 363.81C346.54 363.82 346.4 363.83 346.25 363.85C343.42 364.03 339.55 363.71 335.94 361.43C334.5 360.51 330.96 358.27 329.87 353.95C329.39 352.05 329.56 350.39 329.75 349.34C330.77 352.02 332.1 353.82 333.05 354.92C339.57 362.5 350.36 362.22 352 362.17C352.61 362.15 353.06 362.12 353.33 362.11L353.49 362.13L353.48 362.12Z" fill="black" opacity="0.5"/>
    <path d="M331.529 446.71C331.529 446.71 322.299 454.55 312.039 459.22L316.059 441.44L318.779 439.85C322.439 439.11 325.619 438.55 325.619 438.55L331.519 446.71H331.529Z" fill="black" opacity="0.1"/>
    <path d="M328.329 438.52C329.019 438.61 329.679 438.83 330.289 439.18C332.579 440.19 333.849 442.2 333.359 444.19C332.729 446.75 329.519 448.38 326.049 447.78C325.679 447.73 325.319 447.63 324.969 447.49C322.179 446.61 320.449 444.36 321.019 442.12C321.669 439.63 324.949 437.98 328.329 438.53V438.52Z" fill="#FFCB9D"/>
    <path d="M328.328 438.52C329.018 438.61 329.678 438.83 330.288 439.18C329.708 440.18 329.218 440.97 328.908 441.52C328.008 443.06 327.678 443.65 327.068 444.57C326.578 445.3 326.138 445.87 325.848 446.25L325.238 447.1L325.058 447.54C322.268 446.66 320.538 444.41 321.108 442.18C321.668 439.64 324.948 437.99 328.328 438.54V438.52Z" fill="black" opacity="0.1"/>
    <path d="M331.09 435.96C329.98 436.65 328.76 437.47 327.48 438.43C327.07 438.73 326.67 439.05 326.25 439.39C325.13 440.3 323.97 441.32 322.81 442.47C322.52 442.75 322.24 443.04 321.97 443.32C321.7 443.6 321.44 443.87 321.19 444.14C321.17 444.16 321.15 444.18 321.14 444.2C319.4 446.07 318.01 447.89 316.91 449.5C316.84 449.59 316.77 449.69 316.71 449.78C316.1 449.23 315.39 448.58 314.63 447.81C311.69 444.92 307.85 440.48 304.74 434.54C302.88 430.97 301.28 426.88 300.3 422.24C299.99 420.74 299.5 418.38 299.29 415.46C298.99 411.31 299.23 406.02 301.25 400.4C302.41 397.17 305.67 388.11 313.01 385.98C313.53 385.83 313.98 385.75 314.27 385.7C315.03 387.7 315.87 390.58 316.13 394.12C316.38 397.63 315.96 400.6 315.47 402.74C315.44 402.94 315.39 403.12 315.35 403.3C314.61 405.33 312.24 412.61 315.35 420.88C315.72 421.88 316.15 422.81 316.62 423.69C316.62 423.69 316.623 423.697 316.63 423.71C319.73 429.54 324.59 432.85 327.85 434.54C329.44 435.36 330.66 435.8 331.09 435.94V435.96Z" fill="#DADCE0"/>
    <path d="M304.739 434.55C302.879 430.98 301.279 426.89 300.299 422.25C299.989 420.75 299.499 418.39 299.289 415.47C301.319 416.78 303.249 418.95 304.669 421.71C307.259 426.75 307.199 432.11 304.739 434.55Z" fill="#232B41"/>
    <path d="M442.082 280.28V313.4H327.102V287.03L335.922 278.78C386.802 266.59 417.792 244.05 432.272 231.05C431.242 232.97 430.062 234.94 428.692 236.93C425.102 242.2 419.792 248.08 412.762 254.55L385.022 280.29H442.092L442.082 280.28Z" fill="black" opacity="0.1"/>
    <path d="M580.752 238.09C580.752 254.26 577.962 268.11 572.412 279.64C566.862 291.17 559.152 299.93 549.312 305.91C539.462 311.89 528.282 314.87 515.762 314.87C503.242 314.87 491.882 311.89 482.112 305.91C473.502 300.64 466.502 293.21 461.102 283.64C476.022 281.12 489.062 277.41 500.472 272.9C501.512 274.31 502.632 275.51 503.842 276.49C507.282 279.31 511.252 280.71 515.762 280.71C520.272 280.71 524.242 279.31 527.682 276.49C531.132 273.67 533.842 269.14 535.802 262.88C536.842 259.58 537.612 255.74 538.092 251.32C559.282 234.25 569.662 214.75 574.612 201.63C578.702 212.08 580.752 224.24 580.752 238.1V238.09Z" fill="black" opacity="0.3"/>
    <path d="M560.851 339.45V371.94H501.301C558.841 363.65 559.731 342.39 560.851 339.45Z" fill="black" opacity="0.1"/>
    <path d="M570.13 439.87C570.13 448.45 567.84 456.57 563.28 464.23C558.7 471.89 551.71 478.12 542.29 482.9C532.86 487.68 520.76 490.08 506 490.08C495.59 490.08 485.29 488.85 475.09 486.39C464.89 483.94 456 480.31 448.41 475.52C448.41 475.52 552.19 490.93 563.26 415C563.52 415.41 563.77 415.82 564.02 416.25C568.1 423.28 570.13 431.15 570.13 439.88V439.87Z" fill="black" opacity="0.1"/>
    <path d="M441.601 388.48C440.571 393.01 438.921 397.46 436.631 401.85C434.341 406.24 430.871 410.61 426.201 414.95C421.541 419.31 415.061 423.86 406.791 428.62L374.051 447.61C441.371 398.02 401.161 346.13 386.011 330.31C389.121 330.69 392.291 331.26 395.541 331.99C406.651 334.5 415.971 338.52 423.521 344.04C431.071 349.57 436.481 356.09 439.751 363.61C443.031 371.13 443.641 379.42 441.601 388.46V388.48Z" fill="black" opacity="0.1"/>
    <path d="M415.57 427.21C415.35 429.95 412.61 432.34 409.13 432.97C408.61 433.07 408.06 433.12 407.51 433.14C406.67 433.18 405.81 433.05 405.01 432.76C402.02 432.03 400.06 429.89 400.22 427.37C400.42 424.14 403.96 421.49 408.27 421.46C408.73 421.43 409.19 421.49 409.64 421.57C411.04 421.75 412.31 422.23 413.29 422.91C414.81 423.96 415.7 425.5 415.57 427.21Z" fill="#FFCB9D"/>
    <path d="M415.569 427.21C415.349 429.95 412.609 432.34 409.129 432.97C409.549 431.8 409.919 430.86 410.159 430.2C410.909 428.16 411.179 427.37 411.729 426.13C412.159 425.13 412.559 424.36 412.839 423.85L413.289 422.92C414.809 423.97 415.699 425.51 415.569 427.22V427.21Z" fill="black"/>
    <path d="M332.259 195.64C324.559 195.64 319.409 195.32 318.649 195.27C317.799 195.21 317.159 194.48 317.219 193.63C317.279 192.78 318.009 192.13 318.859 192.2C319.579 192.25 391.469 196.71 417.849 170.12C418.449 169.52 419.429 169.51 420.029 170.12C420.629 170.72 420.639 171.69 420.029 172.3C399.599 192.88 354.889 195.66 332.259 195.66V195.64Z" fill="#A6A9B3"/>
    <path d="M332.071 208.11C334.993 208.11 337.361 205.742 337.361 202.82C337.361 199.898 334.993 197.53 332.071 197.53C329.15 197.53 326.781 199.898 326.781 202.82C326.781 205.742 329.15 208.11 332.071 208.11Z" fill="#066FD1"/>
    <path d="M385.959 255.94C388.814 255.94 391.129 253.625 391.129 250.77C391.129 247.915 388.814 245.6 385.959 245.6C383.104 245.6 380.789 247.915 380.789 250.77C380.789 253.625 383.104 255.94 385.959 255.94Z" fill="white"/>
    <path d="M418.288 188.12C420.575 188.12 422.428 186.266 422.428 183.98C422.428 181.693 420.575 179.84 418.288 179.84C416.002 179.84 414.148 181.693 414.148 183.98C414.148 186.266 416.002 188.12 418.288 188.12Z" fill="white"/>
    <path d="M469.489 261.55C411.729 261.55 376.669 237.17 376.269 236.89C375.579 236.4 375.409 235.44 375.909 234.74C376.399 234.05 377.359 233.88 378.059 234.38C378.509 234.7 423.789 266.12 496.329 256.72C497.179 256.61 497.949 257.21 498.059 258.05C498.169 258.89 497.569 259.67 496.729 259.78C487.179 261.02 478.079 261.56 469.499 261.56L469.489 261.55Z" fill="#A6A9B3"/>
    <path d="M197.78 355.67C196.91 355.67 196.2 354.98 196.17 354.11L192.45 225.59C192.42 224.7 193.12 223.96 194.01 223.94C194.91 223.93 195.64 224.61 195.66 225.5L199.38 354.02C199.41 354.91 198.71 355.65 197.82 355.67C197.8 355.67 197.79 355.67 197.77 355.67H197.78Z" fill="#A6A9B3"/>
    <path d="M194.061 356.71C193.861 356.71 193.661 356.67 193.471 356.6C192.781 356.33 192.381 355.63 192.471 354.92C192.321 350.17 176.391 252 170.231 214.39C170.091 213.51 170.681 212.69 171.561 212.54C172.441 212.4 173.261 212.99 173.411 213.87C196.321 353.81 195.771 355.18 195.571 355.7C195.321 356.33 194.721 356.72 194.081 356.72L194.061 356.71Z" fill="#A6A9B3"/>
    <path d="M151.409 307.25L151.439 311.42L155.419 312.68C156.209 312.93 156.219 314.05 155.429 314.32L151.469 315.64L151.499 319.81C151.499 320.64 150.439 321 149.949 320.33L147.479 316.97L143.519 318.29C142.729 318.55 142.059 317.65 142.549 316.97L144.979 313.58L142.509 310.22C142.019 309.55 142.669 308.64 143.459 308.89L147.439 310.15L149.869 306.76C150.359 306.08 151.429 306.42 151.429 307.26L151.409 307.25Z" fill="#066FD1"/>
    <path d="M149.469 312.723L148.211 312.324L136.796 348.286L138.054 348.685L149.469 312.723Z" fill="#066FD1"/>
    <path d="M156.618 288.451L156.37 288.372C156.133 288.297 155.88 288.428 155.805 288.665L152.196 300.036C152.121 300.273 152.252 300.526 152.489 300.601L152.737 300.679C152.973 300.755 153.226 300.623 153.302 300.387L156.911 289.016C156.986 288.779 156.855 288.526 156.618 288.451Z" fill="#066FD1"/>
    <path d="M167.511 302.991L167.327 302.636C167.231 302.45 167.001 302.377 166.815 302.473L160.094 305.956C159.907 306.052 159.834 306.282 159.931 306.468L160.115 306.823C160.212 307.01 160.441 307.082 160.627 306.986L167.349 303.503C167.535 303.407 167.608 303.177 167.511 302.991Z" fill="#066FD1"/>
    <path d="M173.195 320.139L173.274 319.891C173.349 319.654 173.218 319.401 172.981 319.326L161.61 315.717C161.373 315.641 161.12 315.772 161.045 316.009L160.967 316.257C160.891 316.494 161.022 316.747 161.259 316.822L172.63 320.431C172.867 320.507 173.12 320.376 173.195 320.139Z" fill="#066FD1"/>
    <path d="M158.427 330.616L158.8 330.423C158.982 330.329 159.053 330.106 158.959 329.924L155.688 323.611C155.594 323.43 155.37 323.359 155.189 323.453L154.816 323.646C154.635 323.74 154.564 323.963 154.658 324.145L157.929 330.458C158.023 330.639 158.246 330.71 158.427 330.616Z" fill="#066FD1"/>
    <path d="M126.638 324.312L126.758 324.543C126.872 324.764 127.144 324.85 127.364 324.736L137.957 319.248C138.178 319.133 138.264 318.862 138.15 318.641L138.03 318.41C137.916 318.189 137.644 318.103 137.423 318.218L126.831 323.706C126.61 323.82 126.524 324.092 126.638 324.312Z" fill="#066FD1"/>
    <path d="M130.186 306.588L130.04 307.045C129.984 307.224 130.083 307.415 130.262 307.472L136.6 309.484C136.779 309.541 136.97 309.442 137.027 309.263L137.172 308.805C137.229 308.626 137.13 308.435 136.951 308.378L130.613 306.366C130.434 306.31 130.242 306.409 130.186 306.588Z" fill="#066FD1"/>
    <path d="M137.33 290.174L137.099 290.294C136.878 290.408 136.792 290.68 136.906 290.901L142.395 301.493C142.509 301.714 142.78 301.8 143.001 301.686L143.232 301.566C143.453 301.452 143.539 301.18 143.425 300.959L137.936 290.367C137.822 290.146 137.55 290.06 137.33 290.174Z" fill="#066FD1"/>
    <path d="M158.109 478.79C158.109 480.29 179.139 481.54 205.069 481.54C230.999 481.54 252.029 480.29 252.029 478.79C252.029 477.29 230.999 476.11 205.069 476.11C179.139 476.11 158.109 477.36 158.109 478.79Z" fill="#D6D8E2" opacity="0.5"/>
    <path d="M280.95 367L279.58 367.44L279.35 366.76L271.53 342.75L270.52 339.65L271.9 339.2L272.85 342.12L280.72 366.31L280.95 367Z" fill="#066FD1"/>
    <path d="M284.5 366.79L276.77 369.31L276.27 367.77L279.35 366.76L280.72 366.31L283.99 365.24L284.5 366.79Z" fill="#066FD1"/>
    <path d="M272.848 342.12C272.518 342.36 272.148 342.55 271.748 342.68C271.678 342.7 271.598 342.72 271.528 342.74C269.458 343.28 267.298 342.13 266.628 340.07L264.028 332.09L260.238 320.51L267.968 317.99L273.928 336.28L274.348 337.55C274.908 339.28 274.258 341.12 272.848 342.11V342.12Z" fill="#066FD1"/>
    <path d="M265.172 315.15C265.862 315.15 266.422 314.59 266.422 313.9C266.422 313.21 265.862 312.65 265.172 312.65C264.482 312.65 263.922 313.21 263.922 313.9C263.922 314.59 264.482 315.15 265.172 315.15Z" fill="#066FD1"/>
    <path d="M268.828 309.44C270.259 309.44 271.418 308.28 271.418 306.85C271.418 305.42 270.259 304.26 268.828 304.26C267.398 304.26 266.238 305.42 266.238 306.85C266.238 308.28 267.398 309.44 268.828 309.44Z" fill="#066FD1"/>
    <path d="M263.922 298.44C264.888 298.44 265.672 297.656 265.672 296.69C265.672 295.723 264.888 294.94 263.922 294.94C262.955 294.94 262.172 295.723 262.172 296.69C262.172 297.656 262.955 298.44 263.922 298.44Z" fill="#066FD1"/>
    <path d="M284.501 366.79L276.771 369.31L276.271 367.77L279.351 366.76L271.531 342.75C269.461 343.29 267.301 342.14 266.631 340.08L264.031 332.1C266.231 333.81 269.411 335.4 273.931 336.29L274.351 337.56C274.911 339.29 274.261 341.13 272.851 342.12L280.721 366.31L283.991 365.24L284.501 366.79Z" fill="black" opacity="0.1"/>
    <path d="M187.869 344.31C187.729 344.77 187.539 345.31 187.299 345.9C187.239 346.06 187.189 346.21 187.119 346.37C186.929 346.84 186.709 347.34 186.459 347.86C185.459 349.96 183.919 352.44 181.629 354.81C181.419 355.03 181.129 355.32 180.769 355.66C178.679 357.64 174.189 361.31 168.349 362.27C151.859 365 138.659 343.82 137.819 335.75C137.689 334.52 137.409 331.8 139.139 329.94C140.429 328.54 142.679 327.83 144.439 328.42C146.929 329.27 147.729 332.42 148.549 334.58C151.489 342.24 159.629 349.73 165.539 349.21C169.039 348.9 171.759 345.75 173.599 342.76C173.659 342.66 173.709 342.58 173.769 342.48C174.409 341.39 174.939 340.34 175.349 339.46C175.699 338.69 175.949 338.06 176.119 337.65C176.139 337.59 176.169 337.54 176.179 337.49C177.869 338.02 179.969 338.84 182.219 340.12C184.649 341.51 186.519 343.03 187.869 344.31Z" fill="#FFCB9D"/>
    <path d="M187.872 344.31C187.692 344.84 187.502 345.37 187.302 345.9C187.242 346.06 187.192 346.21 187.122 346.37C186.932 346.84 186.712 347.34 186.462 347.86C185.462 349.96 183.922 352.44 181.632 354.81C181.422 355.03 181.132 355.32 180.772 355.66C180.082 353.86 179.222 351.9 178.142 349.86C176.652 347.05 175.062 344.68 173.602 342.76C173.662 342.66 173.712 342.58 173.772 342.48C174.412 341.39 174.942 340.34 175.352 339.46C175.702 338.81 175.952 338.19 176.122 337.65C176.142 337.59 176.172 337.54 176.182 337.49C177.872 338.02 179.972 338.84 182.222 340.12C184.652 341.51 186.522 343.03 187.872 344.31Z" fill="black" opacity="0.1"/>
    <path d="M229.281 349.81C229.281 350.29 229.311 350.86 229.371 351.5C229.381 351.67 229.391 351.83 229.411 352C229.461 352.51 229.531 353.04 229.631 353.61C230.001 355.91 230.771 358.72 232.301 361.64C232.441 361.91 232.631 362.27 232.881 362.69C234.321 365.18 237.601 369.98 242.931 372.54C257.981 379.82 276.621 363.24 279.711 355.73C280.191 354.59 281.221 352.06 280.091 349.78C279.251 348.07 277.291 346.75 275.431 346.82C272.801 346.93 271.151 349.73 269.751 351.57C264.771 358.09 254.841 362.97 249.321 360.8C246.051 359.51 244.331 355.73 243.411 352.33C243.381 352.22 243.361 352.13 243.331 352.02C243.021 350.8 242.811 349.64 242.671 348.68C242.551 347.84 242.491 347.16 242.441 346.72C242.441 346.66 242.421 346.6 242.431 346.55C240.661 346.58 238.411 346.78 235.891 347.37C233.171 348.02 230.941 348.95 229.281 349.79V349.81Z" fill="#FFCB9D"/>
    <path d="M229.281 349.81C229.301 350.37 229.341 350.94 229.371 351.5C229.381 351.67 229.391 351.83 229.411 352C229.461 352.51 229.531 353.04 229.631 353.61C230.001 355.91 230.771 358.72 232.301 361.64C232.441 361.91 232.631 362.27 232.881 362.69C234.051 361.16 235.431 359.52 237.051 357.87C239.271 355.59 241.471 353.77 243.421 352.34C243.391 352.23 243.371 352.14 243.341 352.03C243.031 350.81 242.821 349.65 242.681 348.69C242.531 347.97 242.461 347.3 242.451 346.73C242.451 346.67 242.431 346.61 242.441 346.56C240.671 346.59 238.421 346.79 235.901 347.38C233.181 348.03 230.951 348.96 229.291 349.8L229.281 349.81Z" fill="black" opacity="0.1"/>
    <path d="M185.48 467.82C187.52 467.91 189.56 468 191.6 468.09C193.32 458.49 195.33 448.53 197.66 438.24C199.99 427.96 202.48 418.13 205.07 408.74C207.69 428.41 210.32 448.07 212.95 467.74C214.84 467.5 216.73 467.27 218.62 467.03C220.2 440.57 221.77 414.1 223.35 387.64H186.81C186.37 414.37 185.93 441.1 185.49 467.83L185.48 467.82Z" fill="#066FD1"/>
    <path d="M205.07 408.74C207.69 428.41 210.32 448.07 212.95 467.74C214.84 467.5 216.73 467.27 218.62 467.03C220.2 440.57 221.77 414.1 223.35 387.64H209.87L205.08 408.75L205.07 408.74Z" fill="black" opacity="0.1"/>
    <path d="M226.108 479.39L213.078 477.6C213.078 477.6 212.648 474.17 214.788 473.01C216.918 471.85 224.068 476.23 226.118 479.39" fill="#232B41"/>
    <path d="M196.94 480.35L183.91 478.56C183.91 478.56 183.48 475.13 185.62 473.97C187.75 472.81 194.9 477.19 196.95 480.35" fill="#232B41"/>
    <path d="M197.28 289.63C197.27 291.52 197.28 294.3 197.39 297.72C197.43 298.48 197.45 299.15 197.46 299.36C197.71 303.1 198.43 306.8 199.61 310.37C199.86 311.08 200.11 311.74 200.39 312.4C201.46 314.8 210.14 318.1 217.83 317.63C225.52 317.16 228.65 309.85 225.49 306.51C224.39 305.16 223.55 303.63 223 301.98C222.19 299.81 221.53 297.58 221.04 295.31C220.72 294.02 220.58 293.16 220.58 293.16L214.81 287.66L200.36 286.95C200.41 289.39 199.69 291.04 198.91 291.15C198.13 291.26 197.43 289.91 197.3 289.63H197.28Z" fill="#FFCB9D"/>
    <path d="M197.28 289.63C197.27 291.52 197.28 294.3 197.39 297.72C197.43 298.48 197.45 299.15 197.46 299.36C197.71 303.1 198.43 306.8 199.61 310.37C200.56 310.12 201.46 309.69 202.25 309.1C203.11 308.45 203.83 307.63 204.37 306.7C204.92 305.7 205.32 304.61 205.53 303.49C205.71 302.77 205.85 302.04 205.94 301.3C211.38 303.42 217.37 303.65 222.96 301.98C222.15 299.81 221.5 297.58 221 295.31C220.68 294.02 220.54 293.16 220.54 293.16L214.77 287.66L200.31 286.95C200.36 289.39 199.64 291.04 198.87 291.16C198.09 291.28 197.42 289.91 197.29 289.63H197.28Z" fill="black" opacity="0.1"/>
    <path d="M229.279 291.99C228.789 292.95 228.189 293.86 227.499 294.7C226.649 295.8 225.639 296.76 224.509 297.57C219.419 301.22 211.789 301.07 205.189 297.04C204.069 296.36 203.009 295.58 202.009 294.73H201.979C201.979 294.73 201.959 294.76 201.959 294.79C201.879 295.57 201.859 296.36 201.899 297.15C201.929 297.52 201.919 297.62 201.929 297.86L201.959 298.1C201.989 298.53 202.589 301.54 202.439 303.16C202.309 304.23 201.859 305.23 201.139 306.03C200.899 304.44 200.259 302.94 199.289 301.66C198.909 301.21 198.499 300.79 198.059 300.4C196.019 298.12 194.889 295.17 194.859 292.1C194.859 290.85 195.069 289.6 195.449 288.41C195.659 287.62 196.599 284.78 198.479 283.29C202.379 280.21 211.259 282.36 215.609 284.07C216.369 284.38 217.689 284.95 218.849 284.69C219.069 284.64 219.279 284.55 219.469 284.43C220.699 283.63 220.879 281.62 220.609 280.33C220.089 277.83 217.459 275.88 213.959 275.29C221.659 273.88 228.539 277.97 230.269 283.72C231.039 286.5 230.679 289.47 229.279 291.99Z" fill="#232B41"/>
    <path d="M229.281 291.99C228.791 292.95 228.191 293.86 227.501 294.7C226.651 295.8 225.641 296.76 224.511 297.57C219.421 301.22 211.791 301.07 205.191 297.04C203.601 295.87 202.241 294.88 202.011 294.73H201.981L199.801 292.59C203.391 294.57 207.321 295.88 211.381 296.46C214.971 296.96 219.961 297.68 225.031 295.08C226.601 294.27 228.031 293.23 229.291 291.99H229.281Z" fill="black" opacity="0.5"/>
    <path d="M245.419 345.05C242.069 348.52 239.279 350.4 237.469 351.43C236.559 351.95 234.789 352.88 233.279 353.65C231.559 354.53 230.109 355.24 229.089 355.72C228.579 354.87 227.849 353.4 227.699 351.46C227.639 352.98 227.539 354.55 227.409 356.16C227.179 359.04 226.849 361.78 226.479 364.35C226.479 364.35 225.749 371.31 225.319 379.76C225.229 381.57 225.139 384.42 225.289 388.06C225.309 388.5 225.339 388.91 225.359 389.31C225.359 389.38 225.369 389.44 225.369 389.51C223.179 389.52 219.949 389.54 216.059 389.57C209.429 389.62 205.799 389.62 202.889 389.63C198.169 389.66 191.379 389.73 182.739 390C184.729 382.17 186.519 373.51 187.869 364.1C188.829 357.53 189.459 351.25 189.869 345.35C189.589 346.23 189.239 347.18 188.769 348.19C188.169 349.52 187.499 350.65 186.879 351.58C184.019 349.74 180.679 347.21 177.419 343.7C175.999 342.17 174.779 340.65 173.719 339.21C175.019 336.69 177.419 332.86 181.599 329.44C184.039 327.44 186.429 326.12 188.369 325.24C188.369 325.24 193.439 323.67 201.319 323.22C201.829 323.2 202.349 323.18 202.879 323.16C204.739 323.12 206.699 323.13 208.739 323.2H208.839C210.529 323.29 212.289 323.44 214.099 323.66C215.039 323.66 215.889 323.68 216.669 323.72H216.719C218.209 323.87 219.659 324.04 221.049 324.23C221.539 324.32 222.099 324.4 222.719 324.47C222.849 324.48 222.979 324.5 223.119 324.51C223.969 324.6 224.619 324.59 224.899 324.59H225.029C227.119 324.52 234.109 329.72 234.149 329.74C234.149 329.75 234.149 329.75 234.149 329.75C235.709 331.7 237.299 333.72 238.879 335.82C241.229 338.96 243.409 342.04 245.409 345.05H245.419Z" fill="#DADCE0"/>
    <path d="M225.37 389.51C223.18 389.52 219.95 389.54 216.06 389.58C209.43 389.62 205.8 389.62 202.9 389.63C198.18 389.66 191.39 389.74 182.75 390C184.74 382.18 186.53 373.52 187.88 364.11C188.83 357.53 189.46 351.26 189.88 345.36C194.29 372.28 214.89 383.65 225.37 389.32C225.37 389.39 225.38 389.45 225.38 389.52L225.37 389.51Z" fill="black" opacity="0.1"/>
    <path d="M222.719 324.47C221.039 325.98 217.429 327.01 213.259 327.01C207.949 327.01 203.559 325.34 202.879 323.16C204.739 323.12 206.699 323.13 208.739 323.2H208.839C210.119 323.24 211.439 323.3 212.789 323.39C214.119 323.48 215.409 323.59 216.669 323.72H216.719C218.209 323.87 219.659 324.04 221.049 324.23C221.619 324.31 222.169 324.39 222.719 324.47Z" fill="#FFCB9D"/>
    <path d="M202.879 323.16C203.559 325.34 207.939 327.01 213.259 327.01C217.429 327.01 221.029 325.98 222.719 324.47C219.669 324.01 216.349 323.63 212.789 323.39C209.259 323.16 205.939 323.1 202.889 323.16H202.879Z" fill="black" opacity="0.1"/>
    <path d="M214.991 283.11L210.611 285.71L198.731 292.75L194.131 295.47C193.501 295.85 192.681 295.56 192.481 294.89L192.321 294.37L191.181 290.63L189.661 285.7L188.521 281.96L187.011 277.02L185.861 273.29L184.801 269.82L184.351 268.35L183.211 264.61L181.791 259.98C181.481 258.96 182.701 258.11 183.581 258.72L189.561 263L193.731 265.97L199.221 269.9L203.381 272.87L208.871 276.79L210.521 277.98L213.041 279.78L215.131 281.28C215.771 281.74 215.701 282.69 214.991 283.11Z" fill="#066FD1"/>
    <path d="M193.721 265.97L184.351 268.34L183.211 264.6L189.561 262.99L193.721 265.97Z" fill="#DADCE0"/>
    <path d="M203.379 272.88L192.999 275.51L187.019 277.02L185.859 273.28L188.149 272.7L199.219 269.9L203.379 272.88Z" fill="#DADCE0"/>
    <path d="M213.041 279.78L189.671 285.7L188.531 281.95L203.811 278.08L208.871 276.8L210.521 277.98L213.041 279.78Z" fill="#DADCE0"/>
    <path d="M210.611 285.71L198.741 292.75L192.331 294.37L191.191 290.63L210.611 285.71Z" fill="#DADCE0"/>
    <path d="M214.991 283.11L210.611 285.71L198.731 292.75L194.131 295.47C193.501 295.85 192.681 295.56 192.481 294.89L192.321 294.37L191.181 290.63L189.661 285.7L188.521 281.96L187.011 277.02L185.861 273.29L184.801 269.82C185.761 270.81 186.871 271.79 188.151 272.71C189.551 273.74 191.171 274.7 193.001 275.52C195.971 276.85 199.551 277.81 203.811 278.09C205.881 278.24 208.121 278.21 210.521 278L213.041 279.8L215.131 281.3C215.771 281.76 215.701 282.71 214.991 283.13V283.11Z" fill="black" opacity="0.1"/>
    <path d="M170.549 207.61C163.929 208.78 157.379 207.02 151.939 203.16C145.499 198.62 140.629 191.15 139.029 182.13C136.079 165.49 145.399 149.92 159.859 147.36C162.759 146.85 165.629 146.89 168.409 147.44C179.519 149.57 189.029 159.53 191.379 172.83C194.339 189.48 185.009 205.04 170.549 207.61Z" fill="#A6A9B3"/>
    <path d="M169.631 206.44C168.171 209.41 166.721 212.37 165.261 215.34C164.941 215.98 165.491 216.71 166.201 216.59L177.741 214.54C178.451 214.41 178.711 213.54 178.191 213.05C175.801 210.77 173.411 208.48 171.021 206.2C170.591 205.79 169.891 205.92 169.631 206.45V206.44Z" fill="#A6A9B3"/>
    <path d="M170.551 207.61C163.931 208.78 157.381 207.02 151.941 203.16C158.541 200.29 167.631 194.87 173.421 185.25C180.991 172.68 173.281 155.46 168.411 147.43C179.521 149.56 189.031 159.52 191.381 172.82C194.341 189.47 185.011 205.03 170.551 207.6V207.61Z" fill="black" opacity="0.1"/>
    <path d="M226.49 141.93C226.49 147.71 225.09 153.14 222.65 157.75C218.01 166.61 209.55 172.52 199.9 172.52C193.05 172.52 186.81 169.55 182.1 164.64C176.71 159.05 173.32 150.94 173.32 141.93C173.32 125.02 185.21 111.33 199.9 111.33C214.59 111.33 226.49 125.03 226.49 141.93Z" fill="#DADCE0"/>
    <path d="M199.201 171.22C197.251 173.89 195.291 176.55 193.341 179.22C192.921 179.8 193.331 180.61 194.051 180.61H205.771C206.491 180.61 206.901 179.8 206.481 179.22C204.531 176.55 202.571 173.89 200.621 171.22C200.271 170.74 199.561 170.74 199.211 171.22H199.201Z" fill="#DADCE0"/>
    <path d="M228.94 199.12C224.68 214.81 210.52 224.76 196.84 222.04C196.32 221.93 195.79 221.81 195.27 221.67C194.75 221.53 194.23 221.37 193.72 221.18C190.68 220.14 187.97 218.49 185.64 216.38C177.85 209.36 174.36 197.26 177.64 185.17C182.07 168.86 197.15 158.77 211.31 162.62C221.27 165.32 228.13 174.2 229.78 184.91C230.49 189.44 230.26 194.28 228.94 199.12Z" fill="#066FD1"/>
    <path d="M198.789 231L187.479 227.93C186.799 227.75 186.599 226.84 187.169 226.4C189.349 224.66 191.529 222.93 193.709 221.18C194.109 220.87 194.509 220.55 194.909 220.23C195.379 219.86 196.059 220.05 196.279 220.6C196.459 221.08 196.649 221.57 196.829 222.04C197.829 224.64 198.829 227.24 199.839 229.85C200.089 230.51 199.479 231.2 198.789 231Z" fill="#066FD1"/>
    <path d="M228.941 199.12C224.681 214.81 210.521 224.76 196.841 222.04C197.841 224.64 198.841 227.24 199.851 229.85C200.101 230.51 199.491 231.2 198.801 231L187.491 227.93C186.811 227.75 186.611 226.84 187.181 226.4C189.361 224.66 191.541 222.93 193.721 221.18C190.681 220.14 187.971 218.49 185.641 216.38C213.031 211.34 224.871 195.27 229.791 184.91C230.501 189.44 230.271 194.28 228.951 199.12H228.941Z" fill="black" opacity="0.1"/>
    <path d="M182.171 383.03C181.361 383.03 180.671 382.43 180.581 381.61C180.481 380.73 181.111 379.93 181.991 379.83C189.191 379 225.191 374.86 226.701 374.86C227.591 374.86 228.311 375.58 228.311 376.47C228.311 377.36 227.601 378.07 226.711 378.08C225.261 378.13 199.401 381.06 182.361 383.02C182.301 383.02 182.241 383.03 182.171 383.03Z" fill="#A6A9B3"/>
    <path d="M228.32 382.97C223.8 382.97 190.26 376.73 183.45 375.45C182.58 375.29 182 374.45 182.17 373.57C182.33 372.7 183.17 372.13 184.05 372.29C199.93 375.27 226.02 379.94 228.3 379.75C229.19 379.69 229.96 380.34 230.03 381.22C230.1 382.1 229.46 382.87 228.58 382.95C228.51 382.95 228.42 382.95 228.32 382.95V382.97Z" fill="#A6A9B3"/>
    <path d="M210.599 296.99L211.869 299.97C211.949 300.17 212.159 300.29 212.369 300.27L215.599 299.99C216.079 299.95 216.339 300.55 215.969 300.87L213.529 303C213.369 303.14 213.309 303.37 213.399 303.57L214.669 306.55C214.859 307 214.369 307.42 213.949 307.17L211.169 305.5C210.979 305.39 210.749 305.41 210.579 305.55L208.139 307.68C207.769 308 207.219 307.66 207.319 307.19L208.049 304.03C208.099 303.82 208.009 303.6 207.819 303.49L205.039 301.82C204.619 301.57 204.769 300.94 205.249 300.89L208.479 300.61C208.699 300.59 208.869 300.44 208.919 300.22L209.649 297.06C209.759 296.59 210.409 296.53 210.599 296.98V296.99Z" fill="#DADCE0"/>
    <path d="M207.819 308.2C207.659 308.2 207.499 308.16 207.359 308.07C207.019 307.87 206.859 307.49 206.949 307.1L207.679 303.94C207.679 303.94 207.679 303.85 207.629 303.83L204.849 302.16C204.509 301.96 204.349 301.58 204.439 301.19C204.529 300.81 204.839 300.53 205.229 300.5L208.459 300.22C208.459 300.22 208.539 300.18 208.549 300.14L209.279 296.98C209.369 296.6 209.679 296.32 210.069 296.29C210.469 296.26 210.819 296.47 210.969 296.83L212.239 299.81C212.259 299.85 212.289 299.87 212.339 299.87L215.569 299.59C215.959 299.56 216.319 299.77 216.469 300.13C216.619 300.49 216.529 300.9 216.229 301.16L213.789 303.29C213.789 303.29 213.739 303.37 213.759 303.41L215.029 306.39C215.179 306.75 215.089 307.16 214.789 307.42C214.489 307.68 214.079 307.72 213.739 307.51L210.959 305.84C210.959 305.84 210.869 305.82 210.839 305.85L208.399 307.98C208.229 308.13 208.019 308.2 207.809 308.2H207.819ZM210.149 297.09C210.149 297.09 210.149 297.09 210.139 297.09C210.089 297.09 210.059 297.12 210.049 297.17L209.319 300.33C209.229 300.71 208.909 300.99 208.529 301.02L205.299 301.3C205.299 301.3 205.219 301.33 205.209 301.38C205.199 301.43 205.209 301.47 205.259 301.49L208.039 303.16C208.369 303.36 208.539 303.75 208.449 304.13L207.719 307.29C207.719 307.29 207.719 307.38 207.769 307.4C207.809 307.43 207.859 307.42 207.889 307.39L210.329 305.26C210.619 305.01 211.049 304.97 211.379 305.17L214.159 306.84C214.159 306.84 214.239 306.86 214.279 306.83C214.319 306.8 214.329 306.76 214.309 306.71L213.039 303.73C212.889 303.37 212.979 302.96 213.279 302.7L215.719 300.57C215.719 300.57 215.769 300.5 215.749 300.45C215.729 300.4 215.699 300.38 215.639 300.39L212.409 300.67C212.019 300.71 211.659 300.49 211.509 300.13L210.239 297.15C210.239 297.15 210.189 297.09 210.149 297.09Z" fill="#066FD1"/>
    <path d="M223.982 295.82L225.252 298.8C225.332 299 225.542 299.12 225.752 299.1L228.982 298.82C229.462 298.78 229.722 299.38 229.352 299.7L226.912 301.83C226.752 301.97 226.692 302.2 226.782 302.4L228.052 305.38C228.242 305.83 227.752 306.25 227.332 306L224.552 304.33C224.362 304.22 224.132 304.24 223.962 304.38L221.522 306.51C221.152 306.83 220.602 306.49 220.702 306.02L221.432 302.86C221.482 302.65 221.392 302.43 221.202 302.32L218.422 300.65C218.002 300.4 218.152 299.77 218.632 299.72L221.862 299.44C222.082 299.42 222.252 299.27 222.302 299.05L223.032 295.89C223.142 295.42 223.792 295.36 223.982 295.81V295.82Z" fill="#DADCE0"/>
    <path d="M221.19 307.02C221.03 307.02 220.87 306.98 220.73 306.89C220.39 306.69 220.23 306.31 220.32 305.92L221.05 302.76C221.05 302.76 221.05 302.67 221 302.65L218.22 300.98C217.88 300.78 217.72 300.4 217.81 300.01C217.9 299.63 218.21 299.35 218.6 299.32L221.83 299.04C221.83 299.04 221.91 299 221.92 298.96L222.65 295.8C222.74 295.42 223.05 295.14 223.44 295.11C223.83 295.08 224.19 295.29 224.34 295.65L225.61 298.63C225.63 298.67 225.66 298.69 225.71 298.69L228.94 298.41C229.34 298.38 229.69 298.59 229.84 298.95C229.99 299.31 229.9 299.72 229.6 299.98L227.16 302.11C227.16 302.11 227.11 302.19 227.13 302.23L228.4 305.21C228.55 305.57 228.46 305.98 228.16 306.24C227.86 306.5 227.45 306.54 227.11 306.33L224.33 304.66C224.33 304.66 224.24 304.64 224.21 304.67L221.77 306.8C221.6 306.95 221.39 307.02 221.18 307.02H221.19ZM223.52 295.91C223.52 295.91 223.52 295.91 223.51 295.91C223.46 295.91 223.43 295.94 223.42 295.99L222.69 299.15C222.6 299.53 222.28 299.81 221.9 299.84L218.67 300.12C218.67 300.12 218.59 300.15 218.58 300.2C218.57 300.25 218.58 300.29 218.63 300.31L221.41 301.98C221.74 302.18 221.91 302.57 221.82 302.95L221.09 306.11C221.09 306.11 221.09 306.2 221.14 306.22C221.18 306.25 221.23 306.24 221.26 306.21L223.7 304.08C223.99 303.82 224.42 303.79 224.75 303.99L227.53 305.66C227.53 305.66 227.61 305.68 227.65 305.65C227.69 305.62 227.7 305.58 227.68 305.53L226.41 302.55C226.26 302.19 226.35 301.78 226.65 301.52L229.09 299.39C229.09 299.39 229.14 299.32 229.12 299.27C229.1 299.22 229.07 299.2 229.01 299.21L225.78 299.49C225.39 299.52 225.03 299.31 224.88 298.95L223.61 295.97C223.61 295.97 223.56 295.91 223.52 295.91Z" fill="#066FD1"/>
    <path d="M219.791 299.213L215.328 299.606L215.397 300.393L219.86 300L219.791 299.213Z" fill="#066FD1"/>
    <path d="M273.848 203.6H272.868C272.244 203.6 271.738 204.106 271.738 204.73V220.92C271.738 221.544 272.244 222.05 272.868 222.05H273.848C274.472 222.05 274.978 221.544 274.978 220.92V204.73C274.978 204.106 274.472 203.6 273.848 203.6Z" fill="#066FD1"/>
    <path d="M278.75 224.6L278.01 223.83C277.58 223.38 277.58 222.65 278.01 222.2L288.91 210.78C289.34 210.33 290.04 210.33 290.47 210.78L291.21 211.55C291.64 212 291.64 212.73 291.21 213.18L280.31 224.6C279.88 225.05 279.18 225.05 278.75 224.6Z" fill="#066FD1"/>
    <path d="M298.078 230.02V228.88C298.078 228.256 297.572 227.75 296.948 227.75H281.598C280.974 227.75 280.468 228.256 280.468 228.88V230.02C280.468 230.644 280.974 231.15 281.598 231.15H296.948C297.572 231.15 298.078 230.644 298.078 230.02Z" fill="#066FD1"/>
    <path d="M278.041 235.1L278.781 234.33C279.211 233.88 279.911 233.88 280.341 234.33L291.241 245.75C291.671 246.2 291.671 246.93 291.241 247.38L290.501 248.15C290.071 248.6 289.371 248.6 288.941 248.15L278.041 236.73C277.611 236.28 277.611 235.55 278.041 235.1Z" fill="#066FD1"/>
    <path d="M272.91 255.35H273.89C274.514 255.35 275.02 254.844 275.02 254.22V238.03C275.02 237.406 274.514 236.9 273.89 236.9H272.91C272.285 236.9 271.78 237.406 271.78 238.03V254.22C271.78 254.844 272.285 255.35 272.91 255.35Z" fill="#066FD1"/>
    <path d="M268.009 234.35L268.749 235.12C269.179 235.57 269.179 236.3 268.749 236.75L257.849 248.17C257.419 248.62 256.719 248.62 256.289 248.17L255.549 247.4C255.119 246.95 255.119 246.22 255.549 245.77L266.449 234.35C266.879 233.9 267.579 233.9 268.009 234.35Z" fill="#066FD1"/>
    <path d="M248.68 228.92V230.06C248.68 230.684 249.186 231.19 249.81 231.19H265.16C265.784 231.19 266.29 230.684 266.29 230.06V228.92C266.29 228.296 265.784 227.79 265.16 227.79H249.81C249.186 227.79 248.68 228.296 248.68 228.92Z" fill="#066FD1"/>
    <path d="M268.722 223.85L267.982 224.62C267.552 225.07 266.852 225.07 266.422 224.62L255.522 213.2C255.092 212.75 255.092 212.02 255.522 211.57L256.262 210.8C256.692 210.35 257.392 210.35 257.822 210.8L268.722 222.22C269.152 222.67 269.152 223.4 268.722 223.85Z" fill="#066FD1"/>
    <path d="M304.359 81.8C304.359 81.0654 303.764 80.47 303.029 80.47C302.295 80.47 301.699 81.0654 301.699 81.8V100.44C301.699 101.175 302.295 101.77 303.029 101.77C303.764 101.77 304.359 101.175 304.359 100.44V81.8Z" fill="#DADCE0"/>
    <path d="M303.289 60H302.769C302.178 60 301.699 60.4791 301.699 61.07V71.11C301.699 71.7009 302.178 72.18 302.769 72.18H303.289C303.88 72.18 304.359 71.7009 304.359 71.11V61.07C304.359 60.4791 303.88 60 303.289 60Z" fill="#066FD1"/>
    <path d="M303.029 77.5699C303.764 77.5699 304.359 76.9745 304.359 76.2399C304.359 75.5054 303.764 74.9099 303.029 74.9099C302.295 74.9099 301.699 75.5054 301.699 76.2399C301.699 76.9745 302.295 77.5699 303.029 77.5699Z" fill="#A6A9B3"/>
    <path d="M314.611 85.0227C314.951 84.3713 314.698 83.568 314.047 83.2285C313.395 82.889 312.592 83.1418 312.252 83.7932L303.637 100.323C303.297 100.974 303.55 101.777 304.201 102.117C304.853 102.456 305.656 102.203 305.996 101.552L314.611 85.0227Z" fill="#DADCE0"/>
    <path d="M323.742 65.1939L323.281 64.9536C322.757 64.6804 322.111 64.8838 321.837 65.4078L317.197 74.311C316.924 74.835 317.127 75.4813 317.651 75.7544L318.112 75.9947C318.636 76.2679 319.283 76.0645 319.556 75.5405L324.196 66.6373C324.469 66.1133 324.266 65.467 323.742 65.1939Z" fill="#066FD1"/>
    <path d="M315.99 80.8299C316.725 80.8299 317.32 80.2345 317.32 79.4999C317.32 78.7654 316.725 78.1699 315.99 78.1699C315.256 78.1699 314.66 78.7654 314.66 79.4999C314.66 80.2345 315.256 80.8299 315.99 80.8299Z" fill="#A6A9B3"/>
    <path d="M322.159 92.6491C322.761 92.2285 322.909 91.3994 322.488 90.7972C322.068 90.195 321.238 90.0477 320.636 90.4683L305.354 101.141C304.752 101.562 304.605 102.391 305.025 102.993C305.446 103.595 306.275 103.743 306.877 103.322L322.159 92.6491Z" fill="#DADCE0"/>
    <path d="M339.414 79.2896L339.117 78.8633C338.778 78.3788 338.111 78.2604 337.627 78.5987L329.395 84.3474C328.911 84.6858 328.792 85.3528 329.131 85.8373L329.428 86.2636C329.767 86.7481 330.434 86.8666 330.918 86.5282L339.15 80.7795C339.634 80.4412 339.753 79.7741 339.414 79.2896Z" fill="#066FD1"/>
    <path d="M325.971 89.6998C326.705 89.6998 327.301 89.1043 327.301 88.3698C327.301 87.6353 326.705 87.0398 325.971 87.0398C325.236 87.0398 324.641 87.6353 324.641 88.3698C324.641 89.1043 325.236 89.6998 325.971 89.6998Z" fill="#A6A9B3"/>
    <path d="M325.379 102.885C326.108 102.791 326.621 102.124 326.527 101.395C326.432 100.667 325.765 100.153 325.037 100.247L306.552 102.648C305.823 102.743 305.31 103.41 305.404 104.138C305.499 104.867 306.166 105.381 306.894 105.286L325.379 102.885Z" fill="#DADCE0"/>
    <path d="M346.869 99.0287L346.802 98.513C346.726 97.927 346.189 97.5136 345.603 97.5897L335.647 98.8828C335.061 98.9589 334.647 99.4957 334.723 100.082L334.79 100.597C334.866 101.183 335.403 101.597 335.989 101.521L345.946 100.228C346.532 100.151 346.945 99.6147 346.869 99.0287Z" fill="#066FD1"/>
    <path d="M330.721 102.19C331.455 102.19 332.051 101.595 332.051 100.86C332.051 100.125 331.455 99.53 330.721 99.53C329.986 99.53 329.391 100.125 329.391 100.86C329.391 101.595 329.986 102.19 330.721 102.19Z" fill="#A6A9B3"/>
    <path d="M323.5 113.476C324.19 113.729 324.954 113.374 325.206 112.685C325.459 111.995 325.105 111.231 324.415 110.978L306.914 104.563C306.224 104.311 305.46 104.665 305.207 105.354C304.955 106.044 305.309 106.808 305.999 107.061L323.5 113.476Z" fill="#DADCE0"/>
    <path d="M344.343 119.978L344.522 119.489C344.726 118.934 344.441 118.32 343.886 118.116L334.459 114.661C333.904 114.458 333.29 114.743 333.086 115.298L332.907 115.786C332.704 116.341 332.989 116.955 333.544 117.159L342.971 120.614C343.525 120.817 344.14 120.532 344.343 119.978Z" fill="#066FD1"/>
    <path d="M329.158 115.45C329.893 115.45 330.488 114.854 330.488 114.12C330.488 113.385 329.893 112.79 329.158 112.79C328.424 112.79 327.828 113.385 327.828 114.12C327.828 114.854 328.424 115.45 329.158 115.45Z" fill="#A6A9B3"/>
    <path d="M316.911 121.939C317.406 122.482 318.247 122.521 318.79 122.027C319.333 121.532 319.372 120.691 318.878 120.148L306.326 106.368C305.831 105.825 304.99 105.785 304.447 106.28C303.904 106.775 303.865 107.616 304.359 108.159L316.911 121.939Z" fill="#DADCE0"/>
    <path d="M332.383 137.338L332.768 136.987C333.204 136.589 333.236 135.913 332.838 135.476L326.077 128.053C325.679 127.617 325.002 127.585 324.566 127.983L324.181 128.333C323.744 128.731 323.713 129.408 324.111 129.845L330.872 137.267C331.27 137.704 331.946 137.735 332.383 137.338Z" fill="#066FD1"/>
    <path d="M321.639 126.49C322.373 126.49 322.969 125.894 322.969 125.16C322.969 124.425 322.373 123.83 321.639 123.83C320.904 123.83 320.309 124.425 320.309 125.16C320.309 125.894 320.904 126.49 321.639 126.49Z" fill="#A6A9B3"/>
    <path d="M307.167 126.45C307.354 127.161 308.082 127.584 308.792 127.397C309.502 127.209 309.926 126.481 309.738 125.771L304.977 107.749C304.789 107.039 304.061 106.616 303.351 106.803C302.641 106.991 302.217 107.719 302.405 108.429L307.167 126.45Z" fill="#DADCE0"/>
    <path d="M313.775 147.259L314.278 147.127C314.849 146.976 315.19 146.39 315.039 145.819L312.474 136.112C312.324 135.541 311.738 135.2 311.167 135.351L310.664 135.484C310.093 135.634 309.752 136.22 309.903 136.791L312.467 146.498C312.618 147.07 313.204 147.41 313.775 147.259Z" fill="#066FD1"/>
    <path d="M309.869 132.81C310.604 132.81 311.199 132.214 311.199 131.48C311.199 130.745 310.604 130.15 309.869 130.15C309.135 130.15 308.539 130.745 308.539 131.48C308.539 132.214 309.135 132.81 309.869 132.81Z" fill="#A6A9B3"/>
    <path d="M296.464 125.905C296.302 126.622 296.752 127.334 297.468 127.496C298.185 127.658 298.897 127.209 299.059 126.492L303.17 108.311C303.332 107.594 302.882 106.882 302.166 106.72C301.449 106.558 300.737 107.008 300.575 107.724L296.464 125.905Z" fill="#DADCE0"/>
    <path d="M292.691 147.407L293.199 147.522C293.775 147.652 294.348 147.291 294.478 146.714L296.692 136.921C296.823 136.345 296.461 135.772 295.885 135.642L295.377 135.527C294.801 135.397 294.228 135.758 294.098 136.335L291.884 146.128C291.753 146.704 292.115 147.277 292.691 147.407Z" fill="#066FD1"/>
    <path d="M296.521 132.97C297.256 132.97 297.851 132.374 297.851 131.64C297.851 130.905 297.256 130.31 296.521 130.31C295.787 130.31 295.191 130.905 295.191 131.64C295.191 132.374 295.787 132.97 296.521 132.97Z" fill="#A6A9B3"/>
    <path d="M287.189 120.505C286.715 121.066 286.784 121.905 287.345 122.38C287.905 122.855 288.744 122.785 289.219 122.225L301.268 108.002C301.743 107.442 301.673 106.603 301.113 106.128C300.552 105.653 299.713 105.722 299.238 106.283L287.189 120.505Z" fill="#DADCE0"/>
    <path d="M273.904 137.837L274.301 138.174C274.752 138.556 275.427 138.5 275.809 138.049L282.299 130.388C282.681 129.937 282.625 129.262 282.174 128.88L281.777 128.544C281.326 128.162 280.651 128.218 280.269 128.669L273.779 136.329C273.397 136.78 273.453 137.455 273.904 137.837Z" fill="#066FD1"/>
    <path d="M284.6 126.94C285.334 126.94 285.93 126.345 285.93 125.61C285.93 124.875 285.334 124.28 284.6 124.28C283.865 124.28 283.27 124.875 283.27 125.61C283.27 126.345 283.865 126.94 284.6 126.94Z" fill="#A6A9B3"/>
    <path d="M281.449 111.432C280.769 111.709 280.443 112.486 280.72 113.166C280.998 113.846 281.774 114.172 282.454 113.895L299.712 106.852C300.392 106.574 300.719 105.798 300.441 105.118C300.164 104.438 299.387 104.111 298.707 104.389L281.449 111.432Z" fill="#DADCE0"/>
    <path d="M261.669 120.659L261.865 121.141C262.089 121.688 262.713 121.951 263.26 121.727L272.556 117.934C273.103 117.71 273.366 117.086 273.142 116.539L272.946 116.057C272.723 115.51 272.098 115.248 271.551 115.471L262.255 119.264C261.708 119.488 261.445 120.112 261.669 120.659Z" fill="#066FD1"/>
    <path d="M276.818 116.08C277.553 116.08 278.148 115.484 278.148 114.75C278.148 114.015 277.553 113.42 276.818 113.42C276.084 113.42 275.488 114.015 275.488 114.75C275.488 115.484 276.084 116.08 276.818 116.08Z" fill="#A6A9B3"/>
    <path d="M280.615 100.732C279.883 100.664 279.235 101.201 279.167 101.933C279.098 102.664 279.636 103.312 280.367 103.381L298.926 105.115C299.658 105.184 300.306 104.646 300.374 103.915C300.443 103.184 299.905 102.535 299.174 102.467L280.615 100.732Z" fill="#DADCE0"/>
    <path d="M258.812 99.7641L258.764 100.282C258.709 100.87 259.141 101.392 259.729 101.447L269.726 102.381C270.314 102.436 270.836 102.004 270.891 101.415L270.939 100.898C270.994 100.309 270.562 99.7877 269.973 99.7327L259.977 98.7983C259.389 98.7433 258.867 99.1757 258.812 99.7641Z" fill="#066FD1"/>
    <path d="M274.939 102.86C275.674 102.86 276.269 102.264 276.269 101.53C276.269 100.795 275.674 100.2 274.939 100.2C274.205 100.2 273.609 100.795 273.609 101.53C273.609 102.264 274.205 102.86 274.939 102.86Z" fill="#A6A9B3"/>
    <path d="M284.78 90.8405C284.163 90.4418 283.339 90.6188 282.941 91.2357C282.542 91.8526 282.719 92.676 283.336 93.0746L298.992 103.191C299.609 103.59 300.432 103.413 300.831 102.796C301.229 102.179 301.052 101.356 300.435 100.957L284.78 90.8405Z" fill="#DADCE0"/>
    <path d="M265.875 79.8997L265.592 80.3364C265.272 80.8327 265.414 81.4951 265.91 81.8158L274.343 87.2649C274.839 87.5856 275.502 87.4433 275.822 86.9469L276.105 86.5102C276.425 86.0138 276.283 85.3515 275.787 85.0307L267.354 79.5817C266.858 79.261 266.195 79.4033 265.875 79.8997Z" fill="#066FD1"/>
    <path d="M279.389 90.2598C280.123 90.2598 280.719 89.6644 280.719 88.9298C280.719 88.1953 280.123 87.5999 279.389 87.5999C278.654 87.5999 278.059 88.1953 278.059 88.9298C278.059 89.6644 278.654 90.2598 279.389 90.2598Z" fill="#A6A9B3"/>
    <path d="M293.052 83.9783C292.689 83.3396 291.877 83.116 291.238 83.4788C290.6 83.8416 290.376 84.6535 290.739 85.2922L299.946 101.5C300.309 102.138 301.121 102.362 301.759 101.999C302.398 101.636 302.622 100.824 302.259 100.186L293.052 83.9783Z" fill="#DADCE0"/>
    <path d="M281.347 65.5464L280.895 65.8033C280.381 66.0952 280.201 66.7483 280.493 67.2621L285.453 75.9919C285.744 76.5057 286.398 76.6856 286.911 76.3937L287.364 76.1369C287.877 75.845 288.057 75.1918 287.765 74.678L282.806 65.9483C282.514 65.4344 281.861 65.2545 281.347 65.5464Z" fill="#066FD1"/>
    <path d="M289.15 81.15C289.885 81.15 290.48 80.5545 290.48 79.82C290.48 79.0855 289.885 78.49 289.15 78.49C288.416 78.49 287.82 79.0855 287.82 79.82C287.82 80.5545 288.416 81.15 289.15 81.15Z" fill="#A6A9B3"/>
    <path d="M449.319 71.01H448.899C448.435 71.01 448.059 71.3861 448.059 71.85V79.78C448.059 80.2439 448.435 80.62 448.899 80.62H449.319C449.783 80.62 450.159 80.2439 450.159 79.78V71.85C450.159 71.3861 449.783 71.01 449.319 71.01Z" fill="#DADCE0"/>
    <path d="M449.109 84.88C449.688 84.88 450.159 84.4099 450.159 83.83C450.159 83.2501 449.688 82.78 449.109 82.78C448.529 82.78 448.059 83.2501 448.059 83.83C448.059 84.4099 448.529 84.88 449.109 84.88Z" fill="#A6A9B3"/>
    <path d="M465.465 75.109L465.093 74.9149C464.681 74.7004 464.174 74.8601 463.959 75.2715L460.294 82.3036C460.08 82.715 460.239 83.2223 460.651 83.4367L461.023 83.6309C461.435 83.8453 461.942 83.6856 462.156 83.2742L465.822 76.2421C466.036 75.8308 465.876 75.3234 465.465 75.109Z" fill="#DADCE0"/>
    <path d="M459.339 87.4499C459.919 87.4499 460.389 86.9797 460.389 86.3998C460.389 85.8199 459.919 85.3499 459.339 85.3499C458.759 85.3499 458.289 85.8199 458.289 86.3998C458.289 86.9797 458.759 87.4499 459.339 87.4499Z" fill="#A6A9B3"/>
    <path d="M477.823 86.2369L477.583 85.8925C477.317 85.5122 476.793 85.4192 476.413 85.6848L469.911 90.2253C469.531 90.491 469.438 91.0146 469.704 91.395L469.944 91.7393C470.21 92.1196 470.734 92.2126 471.114 91.947L477.615 87.4065C477.996 87.1409 478.089 86.6172 477.823 86.2369Z" fill="#DADCE0"/>
    <path d="M467.21 94.4499C467.79 94.4499 468.26 93.9797 468.26 93.3998C468.26 92.8199 467.79 92.3499 467.21 92.3499C466.63 92.3499 466.16 92.8199 466.16 93.3998C466.16 93.9797 466.63 94.4499 467.21 94.4499Z" fill="#A6A9B3"/>
    <path d="M483.705 101.809L483.651 101.392C483.591 100.932 483.17 100.608 482.71 100.668L474.846 101.689C474.386 101.749 474.061 102.17 474.121 102.63L474.175 103.047C474.235 103.507 474.656 103.831 475.116 103.771L482.98 102.75C483.44 102.69 483.765 102.269 483.705 101.809Z" fill="#DADCE0"/>
    <path d="M470.96 104.3C471.54 104.3 472.01 103.83 472.01 103.25C472.01 102.67 471.54 102.2 470.96 102.2C470.38 102.2 469.91 102.67 469.91 103.25C469.91 103.83 470.38 104.3 470.96 104.3Z" fill="#A6A9B3"/>
    <path d="M481.727 118.345L481.871 117.951C482.031 117.515 481.807 117.032 481.371 116.873L473.926 114.144C473.49 113.984 473.008 114.208 472.848 114.643L472.704 115.038C472.544 115.473 472.768 115.956 473.203 116.115L480.649 118.844C481.084 119.004 481.567 118.78 481.727 118.345Z" fill="#DADCE0"/>
    <path d="M469.73 114.77C470.31 114.77 470.78 114.3 470.78 113.72C470.78 113.14 470.31 112.67 469.73 112.67C469.15 112.67 468.68 113.14 468.68 113.72C468.68 114.3 469.15 114.77 469.73 114.77Z" fill="#A6A9B3"/>
    <path d="M472.264 132.037L472.574 131.754C472.917 131.442 472.942 130.911 472.63 130.568L467.29 124.705C466.977 124.362 466.446 124.338 466.103 124.65L465.792 124.933C465.449 125.245 465.425 125.776 465.737 126.119L471.077 131.982C471.39 132.325 471.921 132.35 472.264 132.037Z" fill="#DADCE0"/>
    <path d="M463.8 123.49C464.38 123.49 464.85 123.02 464.85 122.44C464.85 121.86 464.38 121.39 463.8 121.39C463.22 121.39 462.75 121.86 462.75 122.44C462.75 123.02 463.22 123.49 463.8 123.49Z" fill="#A6A9B3"/>
    <path d="M457.583 139.886L457.989 139.778C458.437 139.66 458.705 139.2 458.586 138.752L456.561 131.085C456.442 130.636 455.982 130.369 455.534 130.487L455.128 130.594C454.679 130.713 454.412 131.173 454.53 131.621L456.556 139.288C456.674 139.737 457.134 140.004 457.583 139.886Z" fill="#DADCE0"/>
    <path d="M454.511 128.47C455.091 128.47 455.561 128 455.561 127.42C455.561 126.84 455.091 126.37 454.511 126.37C453.931 126.37 453.461 126.84 453.461 127.42C453.461 128 453.931 128.47 454.511 128.47Z" fill="#A6A9B3"/>
    <path d="M440.959 139.967L441.368 140.06C441.821 140.162 442.27 139.878 442.373 139.426L444.122 131.691C444.224 131.239 443.94 130.789 443.487 130.686L443.078 130.594C442.625 130.492 442.176 130.775 442.073 131.228L440.324 138.963C440.222 139.415 440.506 139.865 440.959 139.967Z" fill="#DADCE0"/>
    <path d="M443.972 128.6C444.552 128.6 445.022 128.13 445.022 127.55C445.022 126.97 444.552 126.5 443.972 126.5C443.392 126.5 442.922 126.97 442.922 127.55C442.922 128.13 443.392 128.6 443.972 128.6Z" fill="#A6A9B3"/>
    <path d="M426.125 132.421L426.445 132.692C426.799 132.992 427.329 132.948 427.629 132.594L432.755 126.544C433.055 126.19 433.011 125.66 432.657 125.36L432.336 125.088C431.982 124.789 431.452 124.832 431.152 125.186L426.027 131.237C425.727 131.591 425.771 132.121 426.125 132.421Z" fill="#DADCE0"/>
    <path d="M434.57 123.84C435.149 123.84 435.62 123.37 435.62 122.79C435.62 122.21 435.149 121.74 434.57 121.74C433.99 121.74 433.52 122.21 433.52 122.79C433.52 123.37 433.99 123.84 434.57 123.84Z" fill="#A6A9B3"/>
    <path d="M416.458 118.875L416.616 119.264C416.791 119.693 417.282 119.899 417.711 119.724L425.053 116.728C425.483 116.553 425.689 116.062 425.514 115.633L425.355 115.244C425.18 114.814 424.69 114.608 424.26 114.784L416.918 117.78C416.488 117.955 416.282 118.445 416.458 118.875Z" fill="#DADCE0"/>
    <path d="M428.429 115.27C429.009 115.27 429.479 114.8 429.479 114.22C429.479 113.64 429.009 113.17 428.429 113.17C427.849 113.17 427.379 113.64 427.379 114.22C427.379 114.8 427.849 115.27 428.429 115.27Z" fill="#A6A9B3"/>
    <path d="M414.227 102.4L414.188 102.818C414.144 103.28 414.484 103.69 414.946 103.733L422.841 104.471C423.303 104.514 423.713 104.174 423.756 103.713L423.795 103.294C423.838 102.832 423.499 102.423 423.037 102.38L415.141 101.642C414.679 101.599 414.27 101.938 414.227 102.4Z" fill="#DADCE0"/>
    <path d="M426.948 104.83C427.528 104.83 427.998 104.36 427.998 103.78C427.998 103.2 427.528 102.73 426.948 102.73C426.369 102.73 425.898 103.2 425.898 103.78C425.898 104.36 426.369 104.83 426.948 104.83Z" fill="#A6A9B3"/>
    <path d="M419.797 86.71L419.569 87.0628C419.317 87.4524 419.429 87.9724 419.819 88.2242L426.479 92.5281C426.869 92.7799 427.389 92.6681 427.641 92.2785L427.869 91.9257C428.12 91.5361 428.009 91.0161 427.619 90.7643L420.959 86.4604C420.569 86.2086 420.049 86.3204 419.797 86.71Z" fill="#DADCE0"/>
    <path d="M430.448 94.8898C431.028 94.8898 431.498 94.4197 431.498 93.8398C431.498 93.2599 431.028 92.7898 430.448 92.7898C429.869 92.7898 429.398 93.2599 429.398 93.8398C429.398 94.4197 429.869 94.8898 430.448 94.8898Z" fill="#A6A9B3"/>
    <path d="M431.998 75.3727L431.633 75.5802C431.229 75.8094 431.088 76.3221 431.317 76.7255L435.234 83.6206C435.463 84.024 435.976 84.1652 436.379 83.9361L436.745 83.7286C437.148 83.4994 437.289 82.9867 437.06 82.5833L433.143 75.6882C432.914 75.2848 432.401 75.1436 431.998 75.3727Z" fill="#DADCE0"/>
    <path d="M438.159 87.6999C438.739 87.6999 439.209 87.2297 439.209 86.6498C439.209 86.0699 438.739 85.5999 438.159 85.5999C437.579 85.5999 437.109 86.0699 437.109 86.6498C437.109 87.2297 437.579 87.6999 438.159 87.6999Z" fill="#A6A9B3"/>
    <path d="M388.991 204.07L394.231 184.68C394.471 183.79 393.661 182.97 392.761 183.21L373.351 188.37C372.461 188.61 372.161 189.72 372.811 190.38L386.981 204.61C387.631 205.26 388.751 204.97 388.991 204.08V204.07Z" fill="#066FD1"/>
    <path d="M455.131 275.86L466.011 258.98C466.511 258.2 465.981 257.18 465.061 257.13L445.001 256.15C444.081 256.1 443.451 257.08 443.871 257.9L453.051 275.76C453.471 276.58 454.631 276.64 455.131 275.86Z" fill="#DADCE0"/>
    <path d="M560.159 301.37C562.309 303.14 573.449 312 587.489 309.75C592.559 308.92 597.329 306.76 601.289 303.48C603.509 301.67 605.489 299.59 607.169 297.27C605.219 295.02 603.269 292.76 601.319 290.51C601.069 290.94 600.669 291.6 600.119 292.38C598.219 295.03 594.579 298.98 589.509 298.97C586.649 298.95 584.309 297.92 579.739 295.69C575.749 293.73 571.949 291.4 568.399 288.73C564.979 285.5 560.169 286.01 558.019 289.66C555.969 293.11 556.869 298.36 560.159 301.37Z" fill="#FFCB9D"/>
    <path d="M601.291 303.49C603.511 301.68 605.491 299.6 607.171 297.28C605.221 295.03 603.271 292.77 601.321 290.52C601.071 290.95 600.671 291.61 600.121 292.39C600.881 294.02 601.911 296.75 601.821 299.26C601.761 300.68 601.581 302.1 601.291 303.49Z" fill="black" opacity="0.15"/>
    <path d="M610.93 249.8C608.6 256.41 603.92 261.93 597.77 265.29L619.76 264.1L610.919 249.8" fill="#232B41"/>
    <path d="M645.371 355.11L646.431 367.77L647.971 386.16H649.461L653.351 367.08L655.011 358.91L645.371 355.11Z" fill="#FFCB9D"/>
    <path d="M623.84 355.11L624.84 367.02L626.44 386.16H627.93L631.69 367.73L633.49 358.91L623.84 355.11Z" fill="#FFCB9D"/>
    <path d="M655.009 358.91L645.379 355.12L646.439 367.77C648.839 367.62 651.159 367.38 653.359 367.08L654.999 358.91H655.009Z" fill="black" opacity="0.15"/>
    <path d="M623.838 355.11C624.108 358.6 624.378 362.09 624.638 365.58C625.778 365.78 627.048 365.95 628.448 366.04C629.738 366.12 630.938 366.12 632.018 366.07C632.508 363.69 632.988 361.31 633.478 358.93L623.828 355.11H623.838Z" fill="black" opacity="0.15"/>
    <path d="M615.778 266.3C622.048 266.06 628.678 263.25 631.228 260.91C631.678 260.55 632.028 260.08 632.258 259.55C632.478 258.89 632.648 258.21 632.818 257.5C633.058 256.52 633.238 255.51 633.388 254.5C633.778 251.88 633.938 249.23 633.858 246.59C633.828 246.38 633.818 245.73 633.778 244.98C633.568 241.64 633.308 238.94 633.108 237.1C632.998 237.39 632.408 238.76 631.698 238.75C630.988 238.74 630.068 237.16 629.888 234.78L615.888 236.84L610.768 242.76C610.768 242.76 610.708 243.59 610.528 244.88C610.258 247.13 609.838 249.36 609.268 251.55C608.888 253.21 608.218 254.78 607.278 256.2C604.508 259.76 608.258 266.62 615.778 266.29" fill="#FFCB9D"/>
    <path d="M609.28 251.59C614.89 252.7 620.7 251.9 625.81 249.33C627.21 249.32 628.589 249.69 629.789 250.41C631.559 251.51 631.71 252.75 633.25 254.39L633.39 254.55C633.78 251.93 633.939 249.28 633.859 246.64C633.829 246.43 633.82 245.78 633.78 245.03C633.57 241.69 633.309 238.99 633.109 237.15C632.999 237.44 632.41 238.81 631.7 238.8C630.99 238.79 630.07 237.21 629.89 234.83L615.89 236.89L610.77 242.81C610.77 242.81 610.71 243.64 610.53 244.93C610.26 247.18 609.84 249.41 609.27 251.6" fill="black" opacity="0.1"/>
    <path d="M657.77 311.15C658.11 312.12 658.479 313.1 658.799 314.07C644.61 318.49 630.419 322.91 616.229 327.34C615.589 322.9 614.97 318.47 614.32 314L614.229 313.37C613.869 311.06 613.52 308.73 613.18 306.4C612.7 303.15 612.25 299.93 611.81 296.73C610.46 297.78 609.11 298.82 607.75 299.87C606.41 298.01 605 296.11 603.52 294.19C602.1 292.34 600.68 290.55 599.27 288.83C600.39 287.49 601.58 286.11 602.87 284.71C604.78 282.65 606.66 280.78 608.49 279.09L608.94 278.73L609.21 278.53L609.909 278C610.739 277.38 611.64 276.8 612.52 276.26C612.68 276.16 612.84 276.06 613.01 275.97C616.32 273.97 619.8 272.25 623.38 270.81C627.32 269.24 631.359 267.96 635.479 266.98C635.689 266.93 635.9 266.88 636.12 266.83C637.63 266.47 639.23 266.17 640.89 265.86L641.039 265.81C641.349 265.78 641.66 265.74 641.96 265.67C645.31 265.05 648.94 266.58 648.94 266.58C650.32 267.31 652.06 268.41 653.78 270.08C656.85 273.08 658.29 276.36 658.95 278.29C655.02 279.05 651.08 279.8 647.14 280.55C651.2 290.55 654.74 300.74 657.75 311.1L657.77 311.15Z" fill="#066FD1"/>
    <path d="M646.35 261.37L638.581 261.99H638.571L628.961 262.76C630.021 258.96 630.81 255.09 631.3 251.19C631.35 250.27 631.321 249.35 631.211 248.44C631.141 247.9 631.031 247.36 630.891 246.85C630.811 246.56 630.7 246.23 630.6 245.92C630.42 245.38 629.841 244.83 629.211 244.22C628.571 243.6 627.861 242.9 627.401 242.05C624.971 243.96 615.86 250.4 608.67 246.97C607.03 246.19 605.62 245.01 604.54 243.55L604.61 243.52C604.1 242.81 603.821 241.97 603.771 241.11C603.691 237.52 608.461 234.94 610.461 233.9C618.561 229.61 627.591 232.68 629.001 233.18C633.111 234.73 636.8 237.22 639.8 240.43C639.82 240.44 639.83 240.46 639.85 240.47C640.99 241.71 642.001 243.05 642.871 244.47C643.001 244.67 643.11 244.88 643.22 245.08C643.87 246.2 644.431 247.37 644.901 248.58C645.131 249.19 645.291 249.68 645.401 250C646.561 253.68 646.871 257.57 646.331 261.39L646.35 261.37Z" fill="#232B41"/>
    <path d="M639.422 399.6C641.032 395.9 647.572 389.97 649.742 390.71C651.922 391.45 651.962 394.98 651.962 394.98L652.552 398.61L648.362 399.59L647.172 396.74L639.422 399.59V399.6Z" fill="#232B41"/>
    <path d="M618.609 399.6C620.219 395.9 626.759 389.97 628.929 390.71C631.109 391.45 631.149 394.98 631.149 394.98L631.739 398.61L627.549 399.59L626.359 396.74L618.609 399.59V399.6Z" fill="#232B41"/>
    <path d="M629.449 238.84C628.879 239.98 628.199 241.05 627.399 242.03C624.969 243.94 615.859 250.38 608.669 246.95C607.029 246.17 605.619 244.99 604.539 243.53C606.389 244.37 608.849 245.19 611.809 245.42C621.039 246.1 627.759 240.36 629.449 238.84Z" fill="black" opacity="0.5"/>
    <path d="M616.87 358.91H662.69C661.39 343.97 660.1 329.02 658.8 314.08C644.61 318.5 630.42 322.93 616.23 327.35C616.59 335.55 616.95 343.75 617.31 351.95L616.87 358.91Z" fill="#DADCE0"/>
    <path d="M616.871 358.91H662.691C661.391 343.97 660.101 329.02 658.801 314.08C652.001 316.19 645.201 318.3 638.401 320.41C643.481 328.71 646.961 335.49 649.241 340.26C649.471 340.74 651.611 345.31 650.921 345.86C649.991 346.6 643.741 336.34 640.551 338.1C639.401 338.74 639.281 340.64 638.951 341.91C637.931 345.83 633.231 350.12 617.281 351.95L616.871 358.91Z" fill="black" opacity="0.1"/>
    <path d="M608.891 278.73L609.151 278.53C612.041 283.34 620.161 285.06 628.371 282.33C637.381 279.33 643.111 272.05 641.141 266.12L641.041 265.82C641.341 265.77 641.641 265.71 641.961 265.68L642.011 265.83C644.171 272.33 638.211 280.19 628.721 283.35C620.181 286.19 611.641 284.25 608.461 279.08L608.921 278.72" fill="#DADCE0"/>
    <path d="M626.912 288.03C627.282 288.71 628.132 288.97 628.822 288.6C629.502 288.23 629.762 287.38 629.392 286.69C629.072 286.09 628.362 285.81 627.712 286.02C626.942 286.36 626.582 287.25 626.912 288.03Z" fill="#DADCE0"/>
    <path d="M646.349 261.37L638.589 261.99H638.579C637.889 260.89 639.529 258.9 640.539 256.85C642.079 253.68 642.909 248.64 639.819 240.44L639.869 240.46C641.009 241.69 642.019 243.03 642.899 244.46C643.029 244.66 643.149 244.87 643.259 245.07C643.899 246.19 644.469 247.36 644.939 248.56C645.169 249.18 645.329 249.66 645.429 249.98C646.589 253.66 646.899 257.55 646.359 261.37H646.349Z" fill="black" opacity="0.5"/>
    <path d="M627.832 280.75C621.202 282.96 614.652 281.13 613.172 276.67C613.092 276.44 613.032 276.21 613.012 275.97C616.322 273.97 619.802 272.25 623.382 270.81C627.322 269.24 631.362 267.96 635.482 266.98C635.692 266.93 635.902 266.88 636.122 266.83C636.582 267.37 636.932 268.01 637.152 268.68C638.642 273.14 634.462 278.54 627.832 280.75Z" fill="#FFCB9D"/>
    <path d="M686.691 483.9C686.121 483.9 685.571 483.58 685.311 483.04C681.421 475.08 678.641 466.73 677.041 458.23C674.631 445.36 675.621 435.69 676.501 427.16C676.771 424.55 677.021 422.08 677.181 419.6C678.721 394.99 669.771 374.81 664.961 363.96L664.121 362.06C657.461 346.87 639.161 311.34 613.271 309.6C603.611 308.95 594.321 313.15 586.121 316.85C576.591 321.15 568.371 324.87 562.211 319.78C559.431 317.48 558.401 314.34 558.061 313.31C555.731 306.17 560.021 300.5 564.171 295.02C567.711 290.35 571.381 285.51 570.861 279.78C569.831 268.44 553.351 259.01 542.541 256.21C540.401 255.66 538.201 255.28 535.991 255.08C535.141 255 534.521 254.25 534.591 253.41C534.671 252.56 535.421 251.94 536.261 252.01C538.641 252.22 541.011 252.63 543.311 253.23C555.321 256.34 572.751 266.55 573.931 279.51C574.561 286.43 570.531 291.74 566.631 296.89C562.621 302.18 559.161 306.75 560.991 312.36C561.291 313.27 562.071 315.68 564.171 317.42C568.841 321.29 575.901 318.1 584.841 314.06C593.371 310.21 603.031 305.83 613.471 306.54C641.041 308.4 660.041 345.13 666.931 360.84L667.761 362.73C672.671 373.81 681.821 394.45 680.231 419.81C680.071 422.35 679.811 424.85 679.541 427.49C678.641 436.22 677.711 445.25 680.041 457.68C681.581 465.91 684.281 473.99 688.051 481.7C688.421 482.46 688.111 483.39 687.341 483.76C687.121 483.87 686.891 483.92 686.661 483.92L686.691 483.9Z" fill="#A6A9B3"/>
    <path d="M537.189 240.57C536.549 240.57 535.949 240.17 535.729 239.53C535.459 238.73 535.889 237.85 536.689 237.58C542.809 235.49 549.099 233.63 555.379 232.05C564.149 229.84 573.149 228.12 582.129 226.94C582.969 226.82 583.749 227.42 583.859 228.27C583.969 229.11 583.379 229.89 582.529 230C573.679 231.17 564.789 232.87 556.129 235.05C549.939 236.61 543.729 238.44 537.689 240.51C537.529 240.57 537.359 240.59 537.189 240.59V240.57Z" fill="#A6A9B3"/>
    <path d="M656.76 278.71C656.68 279.43 656.59 280.15 656.49 280.85C655.1 290.68 651.72 297.77 649.39 301.86C640.55 317.39 628.38 321.37 626.03 322.25C624.71 322.74 623.24 322.72 621.94 322.18C619.63 321.25 617.98 319.16 617.6 316.7C617.11 313.28 619.63 309.47 623.93 308.04C629.86 306.06 630.76 305.45 635.48 301.98C639.87 298.74 642.16 294.87 643.15 293.15C644.49 290.82 645.4 288.57 646 286.52C646.7 284.15 647.01 282.09 647.15 280.56C650.35 279.95 653.56 279.34 656.76 278.73V278.71Z" fill="#FFCB9D"/>
    <path d="M694.141 404.24L675.781 396.1C674.941 395.73 674.001 396.41 674.101 397.32L676.231 417.29C676.331 418.21 677.381 418.68 678.131 418.13L694.361 406.3C695.111 405.76 694.981 404.61 694.141 404.23V404.24Z" fill="#DADCE0"/>
    <path d="M565.189 248.33L571.649 229.32C571.949 228.45 571.189 227.58 570.279 227.76L550.579 231.67C549.669 231.85 549.299 232.94 549.909 233.64L563.149 248.74C563.759 249.43 564.889 249.21 565.189 248.34V248.33Z" fill="white"/>
    <path d="M588.979 330.87L592.689 311.13C592.859 310.22 591.979 309.47 591.109 309.78L572.159 316.43C571.289 316.74 571.069 317.87 571.779 318.47L587.009 331.55C587.709 332.15 588.799 331.77 588.969 330.86L588.979 330.87Z" fill="#232B41"/>
    <path d="M656.76 278.71C656.68 279.43 656.59 280.15 656.49 280.85C653.72 282.7 649.38 285.39 646 286.51C646.7 284.14 647.01 282.08 647.15 280.55C650.35 279.94 653.56 279.33 656.76 278.72V278.71Z" fill="black" opacity="0.15"/>
</svg>
