<svg xmlns="http://www.w3.org/2000/svg" width="800" height="600" fill="none" viewBox="0 0 800 600">
    <path d="M135.941 299.64C135.941 342.749 181.509 374.131 201.696 409.002C222.452 445.001 227.528 499.86 263.382 520.738C298.228 540.94 347.852 518.364 390.941 518.364C434.03 518.364 483.643 540.94 518.501 520.738C554.367 499.967 559.443 445.013 580.187 409.002C600.374 374.131 645.941 342.867 645.941 299.64C645.941 256.413 600.267 225.149 580.187 190.278C559.431 154.279 554.355 99.3127 518.501 78.5417C483.655 58.3404 434.03 80.9155 390.941 80.9155C347.852 80.9155 298.24 58.3404 263.382 78.5417C227.409 99.3127 222.44 154.267 201.696 190.278C181.509 225.268 135.941 256.531 135.941 299.64Z" fill="#066FD1" opacity="0.02"/>
    <path d="M559.744 90.3792L505.679 276.092L492.997 319.661L472.282 390.816C471.567 393.257 469.004 394.667 466.549 393.956L465.285 393.588C462.83 392.877 461.412 390.342 462.127 387.901L479.838 327.043L494.451 276.886L549.601 87.4643C550.316 85.0233 552.879 83.6133 555.334 84.3242L556.598 84.6916C559.053 85.4025 560.471 87.9382 559.756 90.3792H559.744Z" fill="#A6A9B3"/>
    <path d="M505.929 276.14L493.175 319.761L479.941 327.14L494.638 276.923C498.929 276.615 502.945 276.342 505.941 276.14H505.929Z" fill="black" opacity="0.1"/>
    <path d="M612.941 392.318V387.962C612.941 386.403 611.727 385.14 610.23 385.14H416.653C415.156 385.14 413.941 386.403 413.941 387.962V392.318C413.941 393.877 415.156 395.14 416.653 395.14H610.23C611.727 395.14 612.941 393.877 612.941 392.318Z" fill="#A6A9B3"/>
    <path d="M122.941 458.081C122.941 460.836 247 463.14 399.941 463.14C552.883 463.14 676.941 460.836 676.941 458.081C676.941 455.325 552.883 453.14 399.941 453.14C247 453.14 122.941 455.444 122.941 458.081Z" fill="#D6D8E2" opacity="0.5"/>
    <path d="M502.751 456.932C499.937 456.126 498.327 453.198 499.162 450.4L590.154 146.14C594.507 147.717 596.88 152.376 595.592 156.799L509.273 453.352C508.463 456.126 505.541 457.738 502.751 456.932Z" fill="#232B41"/>
    <path d="M627.833 457.266L630.078 456.616C632.248 455.988 633.499 453.719 632.87 451.549L545.569 149.878C544.941 147.707 542.672 146.457 540.502 147.085L538.258 147.734C536.087 148.362 534.837 150.631 535.465 152.802L622.766 454.473C623.394 456.643 625.663 457.894 627.833 457.266Z" fill="#232B41"/>
    <path d="M488.37 147.751L486.126 147.101C483.955 146.473 481.686 147.724 481.058 149.894L393.757 451.565C393.129 453.736 394.379 456.005 396.55 456.633L398.794 457.282C400.965 457.91 403.233 456.66 403.862 454.489L491.163 152.818C491.791 150.648 490.54 148.379 488.37 147.751Z" fill="#232B41"/>
    <path d="M547.359 290.14C508.882 290.069 470.418 289.998 431.941 289.915L476.459 146.14H589.941C575.747 194.136 561.553 242.132 547.359 290.14Z" fill="#DADCE0"/>
    <path d="M562.941 292.473V287.807C562.941 285.229 560.802 283.14 558.163 283.14H425.72C423.081 283.14 420.941 285.229 420.941 287.807V292.473C420.941 295.051 423.081 297.14 425.72 297.14H558.163C560.802 297.14 562.941 295.051 562.941 292.473Z" fill="#232B41"/>
    <path d="M510.513 197.14H484.526C481.786 197.14 480.308 194.918 481.202 192.17L489.781 166.11C490.686 163.362 493.629 161.14 496.37 161.14H522.357C525.097 161.14 526.574 163.362 525.681 166.11L517.102 192.17C516.196 194.918 513.253 197.14 510.513 197.14Z" fill="#232B41"/>
    <path d="M535.775 242.071C534.305 254.891 523.656 263.167 512.724 260.708C502.533 258.417 495.798 247.512 497.103 236.207C498.396 224.902 507.353 216.371 517.72 217.195C528.828 218.08 537.244 229.252 535.775 242.071Z" fill="#A6A9B3"/>
    <path d="M547.833 221.101C546.853 229.737 539.435 235.96 531.625 235.052C524.183 234.18 519.137 227.097 520.047 219.178C520.946 211.27 527.524 204.988 535.034 205.143C542.925 205.31 548.823 212.465 547.833 221.101Z" fill="#066FD1"/>
    <path d="M331.308 269.14C326.994 265.451 323.178 261.206 319.941 256.512C323.85 252.055 327.748 247.597 331.645 243.14C332.12 244.003 332.897 245.351 333.941 246.912C332.399 250.151 330.276 255.59 330.404 260.627C330.485 263.477 330.786 266.326 331.308 269.128" fill="black" opacity="0.15"/>
    <path d="M318.4 159.14C323.875 172.3 334.039 182.979 346.941 189.14L301.941 189.116L318.437 159.14" fill="#232B41"/>
    <path d="M222.941 365.106L202.979 380.613L173.964 403.14L171.941 400.96L194.632 369.572L204.354 356.14L222.941 365.106Z" fill="#FFCB9D"/>
    <path d="M278.941 370.14L272.879 393.535L263.161 431.14L260.105 430.652L258.638 392.701L257.941 374.524L278.941 370.14Z" fill="#FFCB9D"/>
    <path d="M204.573 356.152L222.941 364.93L203.201 380.14C200.211 376.504 197.454 372.869 194.941 369.302L204.573 356.14V356.152Z" fill="black" opacity="0.15"/>
    <path d="M278.941 370.14L272.894 394.14C268.338 394.042 263.634 393.761 258.65 393.346L257.941 374.698L278.941 370.14Z" fill="black" opacity="0.15"/>
    <path d="M310.656 193.134C297.947 193.336 284.209 188.383 278.792 183.929C277.848 183.25 277.083 182.345 276.569 181.309C276.054 179.999 275.624 178.654 275.218 177.237C274.632 175.296 274.153 173.271 273.747 171.259C272.671 166.019 272.061 160.708 271.953 155.361C271.989 154.933 271.953 153.623 271.941 152.122C272.013 145.37 272.24 139.904 272.444 136.165C272.707 136.749 274.034 139.44 275.481 139.333C276.927 139.226 278.613 135.951 278.709 131.14L307.261 133.784L318.249 145.156C318.249 145.156 318.452 146.823 318.966 149.407C319.755 153.908 320.843 158.362 322.242 162.709C323.187 166.007 324.729 169.115 326.786 171.866C332.776 178.737 325.925 192.967 310.668 193.134" fill="#FFCB9D"/>
    <path d="M321.941 162.591C310.781 165.417 298.992 164.456 288.45 159.837C285.633 159.968 282.899 160.858 280.546 162.437C277.099 164.835 276.945 167.341 274.009 170.808L273.736 171.14C272.666 165.916 272.072 160.621 271.953 155.29C271.989 154.862 271.953 153.556 271.941 152.06C272.013 145.328 272.239 139.879 272.441 136.15C272.702 136.732 274.021 139.415 275.459 139.309C276.897 139.202 278.573 135.937 278.668 131.14L307.05 133.776L317.972 145.114C317.972 145.114 318.174 146.777 318.685 149.353C319.469 153.841 320.551 158.282 321.941 162.615" fill="black" opacity="0.1"/>
    <path d="M310.409 255.309C308.109 270.25 306.333 281.214 305.01 288.918L304.808 290.196C303.354 299.213 301.971 308.159 300.529 317.14C272.008 307.729 243.486 298.329 214.941 288.953C215.621 287.007 216.395 285.012 217.123 283.065L217.158 282.97C223.857 261.089 231.747 239.591 240.769 218.571C241.436 217.03 242.104 215.477 242.783 213.936C240.209 216.755 237.646 219.562 235.084 222.357L221.592 206.317C223.153 203.844 228.111 196.499 236.347 193.131C236.347 193.131 243.737 190.133 250.471 191.495C251.079 191.638 251.698 191.745 252.33 191.817L252.64 191.925C256.466 192.689 260.125 193.453 263.534 194.361C271.817 196.475 279.945 199.186 287.848 202.483C295.416 205.66 302.698 209.47 309.635 213.853C311.387 214.976 313.186 216.182 314.843 217.46L316.25 218.559L316.774 218.965L317.68 219.717C318.717 220.601 329.384 228.233 331.696 229.941C334.282 231.923 336.416 234.443 337.941 237.322C330.802 246.064 323.663 254.807 316.524 263.562L310.302 255.309" fill="#066FD1"/>
    <path d="M248.919 186.222L264.526 186.634H264.561L283.856 187.14C281.326 179.682 279.352 172.083 277.933 164.342C277.732 162.519 277.697 160.684 277.815 158.861C277.898 157.79 278.075 156.708 278.311 155.661C278.441 155.061 278.619 154.414 278.796 153.767C279.104 152.685 280.191 151.544 281.385 150.238C282.591 148.932 283.939 147.462 284.755 145.721C289.827 149.262 308.756 161.107 322.778 153.508C325.982 151.791 328.69 149.297 330.664 146.262L330.534 146.203C331.456 144.744 331.953 143.039 331.941 141.31C331.728 134.146 321.903 129.534 317.765 127.664C301.095 119.994 283.36 127.064 280.593 128.205C272.542 131.746 265.412 137.086 259.749 143.792C259.714 143.815 259.702 143.862 259.666 143.886C257.514 146.462 255.635 149.238 254.038 152.167C253.802 152.579 253.589 153.002 253.388 153.414C252.218 155.708 251.225 158.108 250.397 160.543C250.007 161.802 249.735 162.778 249.557 163.425C247.642 170.883 247.429 178.659 248.919 186.211V186.222Z" fill="#232B41"/>
    <path d="M165.617 434.14C168.933 426.689 168.777 408.936 164.656 406.726C160.535 404.516 155.189 409.269 155.189 409.269L148.941 413.345L153.255 420.891L159.166 418.764L165.605 434.128L165.617 434.14Z" fill="#232B41"/>
    <path d="M273.93 460.14C271.994 452.278 261.292 438.412 256.868 439.17C252.432 439.928 251.234 446.902 251.234 446.902L248.941 453.9L256.706 457.215L259.909 451.958L273.941 460.14H273.93Z" fill="#232B41"/>
    <path d="M330.917 146.054C328.907 149.177 326.166 151.754 322.934 153.528C308.751 161.463 289.565 149.129 284.442 145.495C282.718 143.551 281.21 141.412 279.941 139.14C294.771 149.882 313.874 152.458 330.941 146.018" fill="black" opacity="0.5"/>
    <path d="M280.246 388.14L193.941 357.672L209.281 308.653L215.391 289.14L299.941 317.127L283.99 374.621L280.246 388.14Z" fill="#DADCE0"/>
    <path d="M280.143 388.14L193.941 357.438C201.514 334.343 209.098 311.235 216.682 288.14L258.896 302.875C232.404 328.769 223.785 338.864 224.678 340.359C225.936 342.392 244.468 326.951 249.289 332.453C251.029 334.45 249.994 338.158 249.795 340.813C249.136 348.994 255.145 360.356 283.941 374.541L280.132 388.14H280.143Z" fill="black" opacity="0.1"/>
    <path d="M317.087 219.529L316.566 219.124C310.612 228.742 294.234 231.984 277.82 226.203C259.793 219.862 248.514 204.988 252.665 193.07L252.878 192.462C252.286 192.355 251.681 192.235 251.028 192.14L250.922 192.438C246.367 205.501 258.121 221.567 277.084 228.241C294.174 234.248 311.383 230.601 317.941 220.244L317.04 219.493" fill="#DADCE0"/>
    <path d="M279.702 237.609C279.02 239.054 277.465 239.568 276.24 238.752C275.015 237.948 274.578 236.115 275.27 234.67C275.867 233.402 277.156 232.837 278.317 233.301C279.702 234.042 280.32 235.964 279.702 237.597" fill="#DADCE0"/>
    <path d="M248.915 186.716L264.639 187.14H264.675C265.938 184.804 262.423 180.92 260.172 176.818C256.729 170.489 254.502 160.251 259.85 143.14L259.755 143.176C257.587 145.826 255.693 148.682 254.085 151.696C253.846 152.119 253.632 152.555 253.429 152.978C252.25 155.338 251.249 157.807 250.416 160.312C250.022 161.606 249.748 162.611 249.57 163.276C247.64 170.949 247.425 178.947 248.926 186.716H248.915Z" fill="black" opacity="0.5"/>
    <path d="M300.645 317.14C272.085 307.775 243.525 298.435 214.941 289.106C215.634 287.145 216.397 285.172 217.137 283.235L217.173 283.14C262.072 301.322 294.833 293.943 304.941 290.33C303.485 299.302 302.101 308.203 300.657 317.14" fill="black" opacity="0.1"/>
    <path d="M286.695 202.284C278.988 198.985 271.062 196.263 262.984 194.14C261.903 195.315 261.089 196.707 260.589 198.23C257.532 207.249 265.587 218.355 278.582 223.056C291.576 227.758 304.536 224.232 307.593 215.213C307.755 214.733 307.872 214.241 307.941 213.737C301.188 209.312 294.075 205.498 286.683 202.32" fill="#FFCB9D"/>
    <path d="M461.316 227.838C459.029 233.791 456.031 237.948 455.746 238.338C449.536 246.712 441.43 250.35 437.354 251.791C428.276 255.039 420.584 254.26 416.14 253.327C386.299 247.09 402.144 241.645 402.144 241.645C402.038 241.185 401.611 240.122 401.232 238.692C399.952 233.98 398.921 225.027 409.907 218.708C421.9 211.822 431.404 217.243 439.214 214.231C440.731 213.641 442.165 212.743 443.563 211.385C452.144 202.951 452.689 194.14 452.689 194.14C455.154 195.853 458.709 198.782 461.186 203.471C462.11 205.207 462.762 206.943 463.189 208.703C464.907 215.53 463.426 222.428 461.328 227.838H461.316Z" fill="#A6A9B3"/>
    <path d="M402.143 241.765C402.143 241.765 386.295 247.146 416.154 253.334C420.599 254.259 428.292 255.031 437.372 251.814C441.45 250.387 449.557 246.795 455.769 238.49C456.314 237.776 466.792 223.329 463.189 209.14C463.438 220.218 459.171 238.279 433.887 242.748C416.379 245.871 406.612 242.771 401.231 238.817C401.622 240.245 402.037 241.297 402.143 241.742V241.765Z" fill="black" opacity="0.1"/>
    <path d="M399.167 236.804C398.918 235.693 398.763 234.173 399.322 232.641C401.058 227.922 408.17 226.995 410.549 226.699C419.041 225.599 421.871 229.207 428.947 229.33C433.122 229.404 439.282 228.268 446.941 222.14C446.121 223.437 444.729 225.241 442.696 226.946C441.15 228.243 438.604 229.935 435.144 230.85C431.897 231.702 429.316 231.48 427.199 231.27C422.549 230.813 421.586 229.651 417.827 228.898C416.329 228.589 405.911 226.501 401.475 232.221C400.761 233.148 399.227 235.532 399.524 240.14L399.179 236.792L399.167 236.804Z" fill="black" opacity="0.1"/>
    <path d="M390.93 256.024C359.633 264.045 322.163 271.251 279.54 274.807C231.087 278.853 188.191 277.141 152.941 273.442C156.491 272.425 160.053 271.395 163.651 270.377C199.292 260.31 237.356 250.769 277.688 242.222C304.176 236.607 329.916 231.807 354.813 227.689C362.257 226.444 369.618 225.271 376.896 224.17C379.176 223.81 381.443 223.463 383.711 223.14C384.958 228.814 386.192 234.477 387.451 240.139C388.602 245.43 389.766 250.733 390.941 256.024H390.93Z" fill="#DADCE0"/>
    <path d="M376.895 224.14L387.451 240.11C388.602 245.405 389.766 250.712 390.941 256.008C359.643 264.035 322.171 271.247 279.546 274.805C231.091 278.854 188.193 277.141 152.941 273.439C156.492 272.421 160.054 271.391 163.651 270.372C259.231 276.231 325.543 245.19 354.823 227.662L376.907 224.14H376.895Z" fill="black" opacity="0.1"/>
    <path d="M399.601 262.422L397.4 262.789L392.262 263.653L390.061 264.02C385.256 264.813 380.724 261.594 379.927 256.837L375.062 227.94C374.265 223.159 377.5 218.65 382.282 217.858L384.495 217.491L389.621 216.627L391.833 216.26C396.615 215.467 401.159 218.686 401.956 223.443L406.821 252.364C407.618 257.121 404.382 261.641 399.601 262.434V262.422Z" fill="#066FD1"/>
    <path d="M397.941 262.288L392.761 263.14L384.941 217.003L390.11 216.14L397.941 262.288Z" fill="#DADCE0"/>
    <path d="M461.299 228.14C460.197 227.02 459.394 224.864 457.513 225.293C454.925 225.877 454.446 223.256 453.871 221.826C453.296 220.397 454.218 219.777 453.439 218.645C452.66 217.514 451.067 218.812 449.473 219.181C447.88 219.551 447.88 218.61 447.964 214.583C448.024 210.556 446.071 213.713 441.05 214.809C439.96 215.048 439.301 214.857 438.941 214.404C440.475 213.809 441.925 212.903 443.339 211.533C452.013 203.027 452.565 194.14 452.565 194.14C455.057 195.867 458.651 198.822 461.156 203.551C462.09 205.303 462.749 207.054 463.18 208.829C464.918 215.715 463.42 222.672 461.299 228.128V228.14Z" fill="#066FD1"/>
    <path d="M297.903 286.409C295.738 288.25 292.951 289.218 290.093 289.135C255.539 287.955 232.073 265.26 232.073 265.26C226.153 258.64 211.812 242.601 215.556 223.447C216.058 220.874 216.824 218.549 217.721 216.472C219.204 212.991 221.07 210.194 222.66 208.14C226.153 212.235 229.645 216.33 233.138 220.426C232.791 221.204 232.42 222.172 232.073 223.341C231.834 224.19 231.595 225.134 231.439 226.161C230.243 233.573 232.791 240.666 236.104 245.186C241.33 252.314 249.451 253.647 258.9 256.645C267.344 259.312 276.135 260.728 284.997 260.823C294.195 260.823 301.467 266.452 302.747 273.262C303.572 278.183 301.742 283.175 297.903 286.409Z" fill="#FFCB9D"/>
    <path d="M399.191 272.159C394.825 275.667 372.14 293.243 343.975 288.256C335.527 286.728 327.531 283.352 320.567 278.376C319.143 277.374 317.767 276.288 316.426 275.142C314.872 273.83 313.377 272.446 311.941 270.99C322.287 269.642 332.265 268.055 341.851 266.349C342.468 266.313 343.097 266.241 343.714 266.146L344.39 266.038C345.315 265.883 346.241 265.669 347.214 265.394C350.642 264.38 354.534 262.614 359.991 260.049C368.095 256.218 375.795 251.625 383.02 246.327C384.622 244.859 386.354 243.762 388.157 243.081C394.137 240.767 400.603 242.771 403.853 248.534C407.899 255.562 405.918 266.158 399.191 272.159Z" fill="#FFCB9D"/>
    <path d="M232.941 220.263C232.604 221.032 232.244 221.987 231.907 223.14C229.744 221.533 223.941 217.562 217.941 216.362C219.383 212.927 221.197 210.166 222.744 208.14C226.139 212.181 229.534 216.222 232.93 220.263H232.941Z" fill="black" opacity="0.1"/>
    <path d="M343.941 266.14L320.629 278.14C319.195 277.157 317.808 276.091 316.458 274.967C314.893 273.68 313.387 272.321 311.941 270.893C322.361 269.57 332.41 268.013 342.065 266.339C342.687 266.304 343.32 266.234 343.941 266.14Z" fill="black" opacity="0.1"/>
</svg>
