<svg xmlns="http://www.w3.org/2000/svg" width="800" height="600" fill="none" viewBox="0 0 800 600">
    <path d="M99.3203 286.37C99.3203 335.169 150.934 370.682 173.793 410.163C197.299 450.911 203.043 512.997 243.677 536.63C283.158 559.502 339.361 533.942 388.16 533.942C436.96 533.942 493.176 559.489 532.644 536.63C573.266 513.124 579.022 450.911 602.527 410.163C625.399 370.682 677.001 335.296 677.001 286.37C677.001 237.444 625.26 202.059 602.527 162.578C579.022 121.829 573.278 59.6163 532.644 36.1105C493.163 13.2386 436.96 38.7983 388.16 38.7983C339.361 38.7983 283.145 13.2513 243.677 36.1105C202.929 59.6163 197.299 121.829 173.793 162.578C150.922 202.185 99.3203 237.571 99.3203 286.37Z" fill="#066FD1" opacity="0.02"/>
    <path d="M662.813 271.194V469.32C662.826 473.187 661.279 476.864 658.604 479.551C658.579 479.577 658.452 479.704 658.236 479.957C655.117 483.254 633.742 506.075 630.838 509.168L630.826 509.194L630.623 509.396C630.623 509.396 630.572 509.46 630.559 509.485C630.534 509.485 630.521 509.511 630.521 509.511C629.608 510.576 628.315 511.222 626.908 511.298H271.164C268.894 511.298 268.438 508.965 270.327 506.924L299.779 474.429C299.956 474.239 300.134 474.074 300.337 473.922C299.83 472.413 299.563 470.854 299.563 469.269L299.259 359.651V322.643L306.245 325.115V469.269C306.245 470.423 306.473 471.577 306.968 472.654H655.46C655.954 471.577 656.208 470.423 656.208 469.269V271.194C656.157 266.769 652.569 263.181 648.132 263.143H286.416C287.012 261.039 286.72 258.579 285.592 256.588H648.17C656.246 256.563 662.801 263.105 662.813 271.194Z" fill="#232B41"/>
    <path d="M299.258 322.643L306.231 325.115V374.194C303.873 374.016 301.515 373.826 299.296 373.585L299.258 359.651V322.643Z" fill="black" opacity="0.3"/>
    <path d="M343.379 263.143H303.328C304.14 260.709 304.875 258.465 305.471 256.588H332.463L343.379 263.143Z" fill="black" opacity="0.3"/>
    <path d="M425.488 263.143H392.854C391.092 260.734 389.469 258.477 388.176 256.588H425.425C425.425 258.706 425.45 260.924 425.488 263.143Z" fill="black" opacity="0.3"/>
    <path d="M315.614 352.539C314.93 351.36 314.195 350.27 313.244 349.306C312.711 348.723 312.115 348.228 311.519 347.747C306.017 343.373 298.689 343.258 295.304 347.569C292.197 351.423 293.351 357.471 297.586 361.832C298.118 362.416 298.625 362.847 299.221 363.341C299.817 363.835 300.375 364.165 301.022 364.571C306.232 367.74 312.42 367.424 315.526 363.582C317.732 360.59 317.643 356.33 315.614 352.539Z" fill="#FFCB9D"/>
    <path d="M315.615 352.539C314.93 351.36 314.195 350.269 313.244 349.306C308.325 353.832 303.088 358.041 297.586 361.832C298.118 362.415 298.626 362.846 299.221 363.341C299.817 363.835 300.375 364.165 301.022 364.571C306.233 367.74 312.42 367.423 315.526 363.582C317.732 360.59 317.643 356.33 315.615 352.539Z" fill="black" opacity="0.1"/>
    <path d="M401.497 323.696C402.309 325.255 403.323 327.499 404.084 330.326C409.333 349.839 396.337 375.297 376.356 384.02C370.029 386.783 364.895 386.948 354.752 387.341C337.801 388.001 323.994 385.034 315.056 382.46C313.23 377.934 311.392 372.279 310.187 365.636C308.45 356.051 308.64 347.734 309.274 341.572C314.904 344.894 322.942 349.192 333.021 353.211C347.931 359.157 355.538 362.061 363.069 358.916C365.452 357.915 372.324 354.441 376.546 342.307L401.497 323.696Z" fill="#066FD1"/>
    <path d="M503.737 472.655H471.547C467.249 463.589 462.951 454.524 458.653 445.459L441.423 472.655H403.172C409.448 458.67 415.711 444.699 421.987 430.714C422.063 430.549 422.126 430.397 422.202 430.233C426.221 428.42 430.24 426.606 434.272 424.793L446.329 419.354L484.073 402.061C489.702 424.857 495.331 447.653 500.961 470.449C501.886 471.184 502.812 471.919 503.737 472.655Z" fill="#DADCE0"/>
    <path d="M373.086 356.634C376.522 336.298 383.634 322.415 387.653 320.843C387.793 320.792 387.932 320.741 388.072 320.691V320.652C388.148 320.64 388.224 320.614 388.3 320.602C391.381 319.486 394.741 318.852 394.741 318.852C396.338 318.548 397.657 318.396 398.532 318.32C402.5 317.432 406.481 316.545 410.449 315.67C411.311 315.15 413.251 313.806 414.43 311.27C416.269 307.327 414.811 303.6 414.532 302.941C417.524 303.27 420.795 303.499 424.32 303.549C428.63 303.613 432.586 303.41 436.149 303.055C436.694 303.663 437.581 304.487 438.862 305.096C441.473 306.364 443.958 305.945 444.846 305.743L465.22 302.231C467.718 314.985 470.215 327.752 472.7 340.52C477.151 363.315 481.613 386.111 486.064 408.92C464.624 416.223 443.185 423.525 421.758 430.815L410.158 392.932L405.606 378.035L373.086 356.647V356.634Z" fill="#066FD1"/>
    <path d="M410.158 392.907L421.758 430.79C443.185 423.5 464.624 416.197 486.064 408.895C481.613 386.099 477.151 363.303 472.7 340.494L466.944 333.293C464.865 332.558 459.908 330.948 453.911 330.542C444.694 329.908 437.86 333.623 434.665 334.979C427.007 338.238 414.95 340.761 395.844 337.122C400.624 355.721 405.391 374.308 410.17 392.907H410.158Z" fill="black" opacity="0.1"/>
    <path d="M458.652 445.459L441.422 472.655H403.133L421.757 430.79L421.986 430.714L445.796 422.613L458.652 445.459Z" fill="black" opacity="0.1"/>
    <path d="M383.914 347.265C382.608 346.859 381.327 346.555 379.983 346.491C379.197 346.428 378.424 346.466 377.651 346.504C370.639 346.998 365.162 351.854 365.568 357.319C365.872 362.25 370.817 365.94 376.89 366.295C377.676 366.358 378.348 366.346 379.109 366.295C379.869 366.244 380.516 366.13 381.264 365.978C387.248 364.799 391.597 360.387 391.293 355.455C390.9 351.753 387.958 348.672 383.901 347.252L383.914 347.265Z" fill="#FFCB9D"/>
    <path d="M383.914 347.265C382.608 346.859 381.327 346.555 379.983 346.491C379.413 353.16 378.386 359.791 376.902 366.308C377.688 366.371 378.36 366.358 379.121 366.308C379.894 366.27 380.528 366.143 381.276 365.991C387.261 364.812 391.609 360.399 391.305 355.468C390.912 351.765 387.971 348.685 383.914 347.265Z" fill="black" opacity="0.1"/>
    <path d="M465.217 302.218C465.94 302.104 467.081 301.977 468.45 302.104C468.45 302.104 474.358 302.649 479.1 308.291C486.352 316.925 477.503 348.241 454.872 364.482C447.67 369.655 440.862 372.013 435.765 373.75C419.41 379.303 404.881 378.897 395.993 377.908C393.191 373.915 390.136 368.818 387.46 362.606C383.619 353.655 381.933 345.515 381.172 339.366C387.41 341.331 396.196 343.715 406.934 345.376C422.795 347.823 430.871 348.938 437.49 344.184C439.594 342.675 445.502 337.756 446.884 324.963C452.995 317.382 459.106 309.8 465.217 302.218Z" fill="#066FD1"/>
    <path d="M440.204 298.364C427.196 299.505 412.235 294.332 410.41 290.338C409.979 289.235 409.535 288.12 409.104 287.004C409.091 286.979 409.091 286.966 409.078 286.941C406.986 280.855 405.579 274.706 404.945 268.316L404.704 265.996L404.654 265.438C404.387 259.847 404.273 255.016 404.121 251.834C404.146 251.872 404.172 251.923 404.223 252.012C404.286 252.113 404.375 252.252 404.476 252.405C404.489 252.417 404.501 252.43 404.501 252.455C405.072 253.317 406.15 254.699 407.037 254.611C407.177 254.598 407.329 254.547 407.468 254.459C407.468 254.459 407.468 254.446 407.494 254.433C408.521 253.787 409.433 251.238 409.319 247.701V247.485L433.776 247.929L443.805 256.804C443.805 256.804 444.134 258.148 444.692 260.379C445.085 262.091 445.529 263.803 446.061 265.501C446.683 267.555 447.418 269.571 448.242 271.549C448.255 271.574 448.267 271.612 448.28 271.638C449.244 274.351 450.765 276.887 452.641 279.131C458.055 284.646 453.212 297.236 440.204 298.364Z" fill="#FFCB9D"/>
    <path d="M448.242 271.549C444.971 272.677 439.95 274.072 433.624 274.047C427.399 274.034 422.391 272.601 419.209 271.448C419.094 272.754 418.98 273.945 418.663 275.112C418.372 277.064 417.776 278.864 416.965 280.652C416.432 281.641 415.392 283.264 413.541 284.722C411.842 286.066 410.182 286.7 409.104 287.004C409.091 286.979 409.091 286.966 409.079 286.941C406.987 280.855 405.579 274.706 404.945 268.316L404.704 265.996C404.73 265.818 404.742 265.628 404.755 265.451C404.387 259.936 404.273 255.181 404.223 252.012V251.847C404.261 251.923 404.349 252.126 404.476 252.405C404.489 252.417 404.502 252.43 404.502 252.455C404.945 253.381 405.795 254.966 406.809 254.814C407.025 254.712 407.329 254.649 407.468 254.459C407.468 254.459 407.468 254.446 407.494 254.433C408.457 253.533 409.218 251.086 409.079 247.688H409.319L409.408 247.714L433.535 248.233L443.551 257.222C443.551 257.222 444.35 260.57 444.439 260.798C444.743 261.825 445.187 263.283 446.062 265.501C446.683 267.555 447.418 269.571 448.242 271.549Z" fill="black" opacity="0.1"/>
    <path d="M462.558 248.956C461.328 251.695 459.185 253.685 456.358 254.75C454.9 258.782 452.402 262.268 449.005 264.804C439.99 271.435 425.258 269.901 412.63 260.671L412.516 260.772V260.886C412.503 262.192 412.377 263.498 412.491 264.715C412.453 265.146 412.529 265.489 412.491 265.92L412.453 266.351C412.972 269.127 413.15 271.993 413.239 274.731C412.972 276.456 412.275 278.142 411.071 279.46C410.652 276.798 409.676 274.3 408.002 272.183C407.407 271.473 406.697 270.864 405.987 270.256C402.487 266.554 400.522 261.673 400.548 256.538C400.497 255.879 400.56 255.118 400.738 254.471L400.636 254.357C396.338 252.329 394.487 247.359 396.402 243.048C397.999 239.802 401.346 237.913 404.934 238.129C403.933 232.246 407.939 226.591 413.822 225.577C415.926 225.222 418.196 225.526 420.199 226.363C422.088 227.187 423.61 228.531 424.675 230.154C427.755 225.07 434.462 223.485 439.546 226.566C443.071 228.734 445.112 232.753 444.643 236.861C447.901 233.438 452.909 232.461 457.119 234.363C462.672 237.051 465.055 243.39 462.596 248.956H462.558Z" fill="#232B41"/>
    <path d="M456.358 254.75C454.9 258.782 452.402 262.268 449.004 264.804C439.99 271.435 425.258 269.901 412.63 260.671L412.516 260.772V260.886C410.982 259.542 409.473 258.097 408.18 256.677L408.281 256.791C411.311 258.376 429.175 268.937 446.709 261.216C450.247 259.568 453.505 257.336 456.37 254.75H456.358Z" fill="black" opacity="0.5"/>
    <path d="M392.167 172.074C380.237 197.57 361.219 191.307 344.065 193.462C337.891 194.236 331.957 196.087 326.696 200.905C320.407 190.267 314.36 180.759 308.68 172.797C324.908 138.121 354.271 162.172 374.151 143.966C377.143 149.025 380.059 153.804 382.925 158.318C386.094 163.288 389.188 167.89 392.18 172.074H392.167Z" fill="#066FD1"/>
    <path d="M360.036 176.397C360.746 175.028 361.05 173.71 360.936 172.442C360.835 171.174 360.391 170.058 359.618 169.082C358.92 168.207 358.16 167.611 357.336 167.307C356.524 167.003 355.687 166.901 354.825 166.99C353.976 167.079 353.126 167.294 352.277 167.611C351.427 167.928 350.616 168.283 349.817 168.689C349.019 169.082 348.296 169.437 347.624 169.754C346.952 170.071 346.356 170.248 345.836 170.312C345.316 170.375 344.898 170.223 344.594 169.83C344.391 169.576 344.289 169.259 344.289 168.904C344.289 168.537 344.429 168.131 344.708 167.662C344.987 167.206 345.469 166.711 346.115 166.179C346.85 165.595 347.687 165.088 348.638 164.67C349.589 164.251 350.641 163.947 351.795 163.757L350.438 159.104C349.234 159.256 347.992 159.637 346.736 160.232C345.95 160.613 345.202 161.057 344.467 161.551L342.388 158.939L339.51 161.234L341.627 163.884C340.79 164.746 340.118 165.608 339.662 166.483C338.952 167.852 338.648 169.171 338.762 170.413C338.863 171.656 339.32 172.784 340.106 173.773C340.816 174.673 341.589 175.269 342.4 175.586C343.212 175.903 344.049 176.017 344.898 175.941C345.747 175.865 346.61 175.662 347.472 175.332C348.334 175.003 349.158 174.648 349.931 174.255C350.705 173.862 351.427 173.519 352.125 173.215C352.809 172.911 353.418 172.733 353.938 172.67C354.458 172.607 354.876 172.759 355.168 173.126C355.396 173.418 355.497 173.735 355.485 174.09C355.472 174.445 355.307 174.838 355.003 175.256C354.698 175.675 354.217 176.157 353.545 176.702C352.568 177.475 351.465 178.109 350.236 178.578C349.006 179.047 347.827 179.351 346.686 179.466L347.941 184.233C349.145 184.131 350.515 183.751 352.061 183.079C353.228 182.572 354.356 181.938 355.434 181.177L357.488 183.751L360.366 181.456L358.236 178.781C358.996 177.982 359.605 177.171 360.023 176.359L360.036 176.397Z" fill="#DADCE0"/>
    <path d="M596.265 121.728C585.843 142.457 574.762 163.934 562.717 186.413C555.808 176.423 545.589 169.995 533.798 165.278C528.333 163.098 522.514 161.272 516.555 159.636C501.151 155.427 484.644 152.422 469.975 147.414C462.228 144.777 454.976 141.557 448.688 137.335C451.756 131.186 454.9 124.974 458.133 118.685C459.933 115.173 461.759 111.636 463.585 108.086C465.36 104.65 467.16 101.176 468.986 97.6896C473.284 89.4739 477.683 81.1315 482.222 72.637C505.018 105.563 563.478 99.6801 596.277 121.728H596.265Z" fill="#DADCE0"/>
    <path d="M224.837 63.8626L117.391 84.5924C111.024 85.8207 106.859 91.9775 108.087 98.3441L148.423 307.41C149.651 313.777 155.808 317.942 162.175 316.714L269.621 295.984C275.987 294.756 280.153 288.599 278.924 282.232L238.589 73.1662C237.36 66.7997 231.204 62.6343 224.837 63.8626Z" fill="white"/>
    <path d="M281.611 281.692L241.268 72.6368C239.76 64.8015 232.178 59.6668 224.33 61.1882L116.893 81.9174C109.045 83.4262 103.923 91.0079 105.431 98.8432L109.704 120.992C109.552 120.992 109.413 121.043 109.26 121.081L108.829 121.157C107.118 121.5 106.002 123.148 106.332 124.847L110.959 148.86C111.289 150.571 112.95 151.687 114.649 151.357L115.092 151.268C115.245 151.268 115.384 151.218 115.536 151.18L140.018 278.066L145.774 307.898C147.283 315.746 154.865 320.868 162.713 319.359L233.991 305.603L270.15 298.617C277.998 297.109 283.12 289.527 281.611 281.692ZM269.123 293.305L222.58 302.281L161.686 314.034C156.779 314.972 152.05 311.778 151.099 306.871L145.876 279.828L110.756 97.8162C109.818 92.9223 113.013 88.1806 117.92 87.2297L139.093 83.1472C138.307 84.6053 138.053 86.3042 138.37 87.927L138.573 88.9286C139.321 92.8716 143.124 95.4453 147.067 94.6973L202.409 84.0094C206.352 83.2487 208.926 79.4451 208.165 75.5021L207.975 74.5005C207.658 72.865 206.796 71.3943 205.528 70.3293L225.395 66.4878C230.301 65.5496 235.031 68.7572 235.981 73.6638L276.286 282.719C277.224 287.612 274.029 292.354 269.123 293.305Z" fill="#A6A9B3"/>
    <path d="M209.659 289.705C218.369 289.705 225.431 282.643 225.431 273.933C225.431 265.222 218.369 258.161 209.659 258.161C200.948 258.161 193.887 265.222 193.887 273.933C193.887 282.643 200.948 289.705 209.659 289.705Z" fill="#066FD1"/>
    <path d="M233.993 305.603L177.929 316.418C175.672 315.036 173.479 313.527 171.539 312.133L222.582 302.281C226.665 303.461 230.506 304.576 233.993 305.603Z" fill="black" opacity="0.15"/>
    <path d="M239.987 218.807C238.58 219.098 237.16 219.39 235.753 219.681C228.767 221.152 221.781 222.598 214.808 224.043C214.592 224.842 214.352 225.653 214.123 226.464C213.172 229.761 212.221 233.07 211.245 236.392C209.977 240.702 208.71 244.975 207.429 249.235L207.087 250.401C207.087 250.401 207.074 250.427 207.074 250.439C204.665 258.655 202.345 266.82 199.961 275.01L162.839 257.438C162.446 257.248 162.053 257.07 161.673 256.88C154.256 253.368 146.839 249.869 139.422 246.37C139.397 246.217 139.371 246.078 139.333 245.926C138.915 243.732 138.509 241.602 138.103 239.549C135.986 228.544 134.3 219.821 133.78 217.095C139.815 204.645 146.294 192.41 153.216 180.442C146.649 179.022 140.081 177.614 133.501 176.194C133.438 174.572 133.159 163.427 141.704 155.972C142.883 154.945 147.714 150.939 154.535 150.305C159.707 149.823 165.121 151.345 167.847 152.118C168.557 152.321 169.14 152.498 169.546 152.625L169.812 152.765C172.855 153.779 175.784 154.768 178.522 155.846C178.535 155.846 178.548 155.858 178.56 155.858C178.941 156.01 179.321 156.162 179.701 156.315C187.194 159.243 194.472 162.717 201.458 166.711C207.835 170.375 213.908 174.534 219.626 179.148C219.917 179.377 220.196 179.605 220.475 179.833C221.971 181.088 223.505 182.42 224.913 183.801L226.168 185.057L226.535 185.424C226.764 185.741 226.992 186.071 227.22 186.401C229.287 189.393 231.417 192.93 233.369 197.025C237.312 205.304 239.125 212.962 240 218.807H239.987Z" fill="#066FD1"/>
    <path d="M176.088 159.066C172.107 167.066 178.547 178.35 190.453 184.258C202.358 190.166 215.175 188.455 219.144 180.454C219.347 180.023 219.512 179.58 219.626 179.123C213.667 174.217 207.302 169.817 200.595 166.001C193.597 162.02 186.332 158.546 178.839 155.617C177.673 156.568 176.722 157.773 176.062 159.129L176.088 159.079V159.066Z" fill="#DADCE0"/>
    <path d="M200.013 275.036C199.785 276.126 199.557 277.229 199.328 278.319C198.251 283.53 197.16 288.741 196.083 293.952C195.107 298.668 194.118 303.385 193.141 308.101C183.759 309.914 174.39 311.727 165.008 313.527C164.006 313.73 163.017 313.92 162.016 314.111C161.331 314.263 160.317 314.389 159.112 314.275C158.364 314.212 156.247 313.971 154.295 312.437C151.759 310.446 151.214 307.632 151.087 306.871C150.276 302.649 144.177 271.093 139.41 246.382L162.726 257.413H162.738L199.962 275.01C199.962 275.01 200 275.023 200.013 275.036Z" fill="#A6A9B3"/>
    <path d="M139.409 246.382C139.384 246.217 139.358 246.078 139.32 245.926L162.89 257.45C162.89 257.45 162.864 257.438 162.839 257.438C162.839 257.438 162.775 257.425 162.75 257.412H162.737C161.736 257.21 159.061 256.867 156.271 258.313C155.739 258.579 152.962 260.024 151.986 262.725C150.351 267.276 155.675 270.522 156.905 277.66C157.844 283.01 155.815 286.763 155.092 289.502C153.786 294.408 155.181 301.838 165.02 313.527C164.018 313.73 163.029 313.92 162.027 314.11C161.343 314.263 160.328 314.389 159.124 314.275C158.376 314.212 156.259 313.971 154.306 312.437C151.771 310.446 151.225 307.632 151.099 306.871C150.287 302.649 144.189 271.092 139.422 246.382H139.409Z" fill="black" opacity="0.1"/>
    <path d="M226.637 185.45L226.193 185.006C219.486 193.285 203.74 194.401 189.02 187.085C172.842 179.06 163.993 163.846 169.28 153.209L169.546 152.663C169.001 152.486 168.456 152.308 167.847 152.156L167.72 152.423C161.926 164.087 171.08 180.455 188.095 188.911C203.423 196.518 220.006 195.123 227.36 186.223L226.599 185.424L226.624 185.45H226.637Z" fill="#DADCE0"/>
    <path d="M190.249 198.179C189.374 199.371 187.701 199.624 186.509 198.75C185.317 197.875 185.063 196.201 185.938 195.009C186.712 193.97 188.106 193.627 189.273 194.198C190.642 195.035 191.073 196.81 190.249 198.192V198.179Z" fill="#DADCE0"/>
    <path d="M239.66 141.062C238.823 154.35 242.931 167.484 251.197 177.931L213.605 159.535L239.685 141.062H239.66Z" fill="#232B41"/>
    <path d="M218.941 166.343C208.152 161.285 198.617 151.434 195.892 145.449C195.384 144.486 195.105 143.408 195.105 142.318C195.22 140.999 195.41 139.681 195.651 138.311C195.955 136.422 196.399 134.52 196.88 132.644C198.136 127.776 199.822 123.021 201.939 118.457C202.155 118.115 202.662 116.986 203.27 115.706C206.123 110.026 208.57 105.487 210.282 102.406C210.269 103.002 210.282 105.829 211.537 106.336C212.792 106.843 215.581 104.764 217.635 100.732L240.608 114.729L245.173 128.879C245.173 128.879 244.653 130.375 244.019 132.771C242.814 136.904 241.902 141.113 241.28 145.373C240.71 148.556 240.722 151.814 241.318 154.983C243.524 163.262 231.873 172.48 218.954 166.343H218.941Z" fill="#FFCB9D"/>
    <path d="M241.229 145.424C230.592 143.205 221.007 137.5 213.97 129.208C211.523 128.143 208.836 127.776 206.198 128.143C202.281 128.752 201.114 130.806 197.184 132.543L196.816 132.72C198.072 127.852 199.771 123.097 201.875 118.533C202.091 118.191 202.598 117.062 203.206 115.782C206.059 110.102 208.506 105.563 210.218 102.482C210.205 103.078 210.218 105.905 211.473 106.412C212.728 106.92 215.517 104.84 217.571 100.809L240.544 114.806L245.109 128.955C245.109 128.955 244.589 130.451 243.955 132.847C242.75 136.98 241.838 141.189 241.216 145.449V145.424H241.229Z" fill="black" opacity="0.1"/>
    <path d="M255.492 134.837C252.538 136.6 249.179 137.601 245.743 137.741C230.617 138.413 219.448 120.384 216.595 115.249C213.742 117.531 209.596 118.051 208.151 119.649C207.72 120.13 207.302 120.612 206.934 121.069C206.287 121.88 205.704 122.717 205.172 123.604C204.297 125.113 203.562 126.698 202.978 128.346C200.95 135.56 199.454 142.901 198.49 150.331L182.224 141.861L169.102 135.015C170.991 127.928 174.427 121.36 179.181 115.769C179.612 115.287 180.246 114.552 181.108 113.639C182.832 111.877 184.683 110.254 186.649 108.771C186.991 108.504 187.359 108.225 187.726 107.972C190.351 106.095 193.153 104.498 196.094 103.179C203.726 99.7816 212.031 98.1714 220.373 98.4884C223.213 98.6659 241.293 99.9971 252.285 113.5C255.023 116.821 261.477 124.872 258.649 131.097C257.927 132.581 255.48 134.799 255.48 134.799L255.492 134.837Z" fill="#232B41"/>
    <path d="M255.493 134.837C252.539 136.6 249.18 137.601 245.744 137.741C230.58 138.489 219.436 120.384 216.596 115.249C215.937 112.929 215.531 110.546 215.379 108.124C223.506 123.123 238.542 133.113 255.519 134.799L255.481 134.825L255.493 134.837Z" fill="black" opacity="0.5"/>
    <path d="M207.136 250.427C204.727 258.655 202.394 266.833 200.01 275.036C200.01 275.023 199.972 275.023 199.96 275.01L162.837 257.438C162.444 257.248 162.051 257.07 161.671 256.88C154.254 253.381 146.837 249.882 139.42 246.382C139.395 246.217 139.369 246.078 139.331 245.926C138.913 243.732 138.507 241.602 138.102 239.549C172.042 255.067 198.197 252.405 207.085 250.439C207.11 250.439 207.123 250.427 207.148 250.427H207.136Z" fill="black" opacity="0.1"/>
    <path d="M239.746 264.753C234.409 284.722 218.003 294.903 210.573 297.641C206.846 298.985 204.234 298.63 202.839 298.288C198.25 297.121 194.129 292.874 193.584 288.728C192.937 283.771 197.476 279.346 206.985 272.056C223.759 259.226 223.543 251.682 223.961 248.094C224.063 247.206 224.456 243.428 223.036 238.839C222.897 238.332 222.719 237.799 222.516 237.267C219.537 229.545 213.299 225.742 211.169 224.575C219.372 222.927 227.575 221.292 235.765 219.656C237.261 223.815 239.023 229.685 240.076 236.861C240.177 237.507 240.266 238.154 240.367 238.839C241.432 246.256 242.371 254.966 239.759 264.766L239.746 264.753Z" fill="#FFCB9D"/>
    <path d="M200.621 165.938C193.622 161.957 186.358 158.483 178.865 155.554C177.698 156.518 176.76 157.709 176.101 159.066C172.12 167.066 178.548 178.337 190.453 184.245C202.358 190.153 215.163 188.442 219.132 180.429C219.334 180.011 219.512 179.567 219.626 179.11C213.667 174.204 207.303 169.805 200.596 165.988L200.621 165.938Z" fill="#FFCB9D"/>
    <path d="M240.355 238.826H223.023C222.884 238.319 222.706 237.786 222.503 237.254C219.524 229.533 213.286 225.729 211.156 224.563C219.359 222.915 227.562 221.279 235.752 219.644C237.249 223.802 239.011 229.672 240.063 236.848C240.165 237.495 240.253 238.141 240.355 238.826Z" fill="black" opacity="0.1"/>
    <path d="M371.614 290.795C367.227 299.378 362.828 307.974 358.429 316.57C349.135 334.776 339.817 352.983 330.511 371.176C300.729 338.694 255.898 333.306 216.202 318.637C197.717 311.816 180.322 302.992 166.109 288.487C179.802 261.698 193.482 234.908 207.2 208.081C250.852 255.676 326.859 245.127 371.602 290.795H371.614Z" fill="#232B41"/>
    <path d="M358.442 316.557C349.148 334.764 339.83 352.97 330.524 371.163C300.742 338.681 255.911 333.293 216.215 318.624C286.289 325.394 336.001 320.044 358.442 316.545V316.557Z" fill="black" opacity="0.3"/>
    <path d="M280.23 290.059C279.063 288.639 277.707 287.372 276.16 286.231C274.6 285.102 273.015 284.05 271.38 283.099C269.744 282.148 268.261 281.248 266.93 280.424C265.599 279.587 264.572 278.75 263.836 277.888C263.114 277.026 262.911 276.101 263.24 275.112C263.456 274.452 263.887 273.907 264.534 273.476C265.18 273.045 266.08 272.817 267.247 272.791C268.401 272.766 269.833 273.032 271.532 273.59C273.434 274.224 275.31 275.137 277.161 276.354C279.012 277.559 280.775 279.093 282.461 280.931L289.181 273.096C287.494 271.118 285.377 269.343 282.841 267.796C281.244 266.82 279.583 265.983 277.859 265.248L280.09 258.516L272.635 256.056L270.378 262.89C267.855 262.382 265.535 262.23 263.431 262.446C260.147 262.788 257.459 263.777 255.354 265.425C253.25 267.073 251.766 269.178 250.93 271.739C250.169 274.059 249.966 276.126 250.359 277.952C250.739 279.777 251.5 281.4 252.641 282.833C253.77 284.265 255.139 285.559 256.724 286.738C258.308 287.904 259.906 288.944 261.503 289.869C263.101 290.795 264.572 291.695 265.916 292.57C267.259 293.445 268.286 294.319 269.009 295.182C269.732 296.044 269.935 296.944 269.63 297.895C269.389 298.643 268.933 299.201 268.274 299.581C267.614 299.961 266.74 300.126 265.624 300.088C264.508 300.037 263.088 299.733 261.351 299.163C258.828 298.326 256.419 297.083 254.15 295.435C251.868 293.787 249.966 292.025 248.432 290.136L241.383 297.933C242.955 299.974 245.25 301.977 248.242 303.955C250.511 305.451 252.946 306.719 255.557 307.759L253.351 314.427L260.806 316.887L263.088 309.99C265.408 310.421 267.564 310.535 269.516 310.332C272.8 309.99 275.5 308.988 277.63 307.34C279.76 305.679 281.244 303.587 282.081 301.064C282.829 298.795 283.006 296.741 282.588 294.928C282.182 293.115 281.383 291.505 280.23 290.085V290.059Z" fill="#DADCE0"/>
    <path d="M206.67 258.439C206.67 263.853 201.865 269.634 196.388 270.928C192.914 271.752 189.377 270.813 188.654 270.471C183.38 268.062 160.47 257.869 147.208 228.582C139.221 210.997 137.889 193.855 137.534 184.537C137.496 183.459 137.471 182.495 137.446 181.659C137.395 179.719 137.408 178.121 137.408 177.044C143.24 178.185 149.059 179.339 154.891 180.48C154.777 180.923 154.65 181.468 154.498 182.128C154.498 182.128 154.486 182.191 154.447 182.318C154.384 182.673 154.194 183.548 154.054 184.372C152.178 195.098 162.156 212.974 162.156 212.974C166.708 221.114 169.18 225.551 174.378 230.28C181.123 236.43 184.445 235.808 194.587 243.821C202.562 250.11 206.657 253.431 206.657 258.439H206.67Z" fill="#FFCB9D"/>
    <path d="M613.305 298.529H535.079C529.569 298.529 525.102 302.996 525.102 308.507V393.452C525.102 398.963 529.569 403.43 535.079 403.43H613.305C618.816 403.43 623.283 398.963 623.283 393.452V308.507C623.283 302.996 618.816 298.529 613.305 298.529Z" fill="#DADCE0"/>
    <path d="M562.134 420.724H532.314C529.878 420.724 527.902 422.699 527.902 425.136V431.069C527.902 433.506 529.878 435.481 532.314 435.481H562.134C564.571 435.481 566.546 433.506 566.546 431.069V425.136C566.546 422.699 564.571 420.724 562.134 420.724Z" fill="#DADCE0"/>
    <path d="M615.626 420.724H585.807C583.37 420.724 581.395 422.699 581.395 425.136V431.069C581.395 433.506 583.37 435.481 585.807 435.481H615.626C618.063 435.481 620.038 433.506 620.038 431.069V425.136C620.038 422.699 618.063 420.724 615.626 420.724Z" fill="#DADCE0"/>
    <path d="M575.218 385.389C594.222 385.389 609.627 369.983 609.627 350.979C609.627 331.976 594.222 316.57 575.218 316.57C556.214 316.57 540.809 331.976 540.809 350.979C540.809 369.983 556.214 385.389 575.218 385.389Z" fill="white"/>
    <path d="M575.228 388.127C572.921 388.127 570.575 387.912 568.217 387.455C548.096 383.601 534.86 364.089 538.714 343.981C540.578 334.231 546.131 325.8 554.347 320.222C562.562 314.656 572.452 312.615 582.201 314.478C591.951 316.342 600.382 321.895 605.961 330.111C611.527 338.326 613.568 348.216 611.704 357.965C608.293 375.728 592.686 388.127 575.228 388.127ZM575.139 319.296C568.864 319.296 562.74 321.16 557.428 324.76C550.429 329.502 545.7 336.704 544.103 345.008C540.819 362.149 552.09 378.783 569.244 382.067C586.398 385.351 603.019 374.08 606.303 356.926C607.9 348.621 606.151 340.19 601.409 333.192C596.667 326.193 589.466 321.464 581.162 319.867C579.158 319.486 577.143 319.296 575.139 319.296Z" fill="#A6A9B3"/>
    <path d="M587.809 351.474C587.125 350.409 586.237 349.547 585.16 348.9C584.082 348.253 582.903 347.759 581.648 347.391C580.38 347.024 579.112 346.719 577.831 346.491C576.551 346.263 575.384 346.035 574.345 345.806C573.293 345.578 572.43 345.274 571.758 344.894C571.086 344.513 570.744 343.955 570.731 343.245C570.719 342.764 570.871 342.32 571.188 341.889C571.505 341.458 572.037 341.103 572.773 340.811C573.508 340.52 574.497 340.355 575.714 340.329C577.083 340.291 578.516 340.443 579.987 340.786C581.457 341.128 582.954 341.699 584.475 342.497L586.973 335.879C585.426 334.992 583.651 334.358 581.648 333.952C580.392 333.699 579.125 333.546 577.844 333.47L577.705 328.615L572.329 328.767L572.468 333.711C570.732 333.977 569.197 334.396 567.892 335.03C565.863 336.019 564.354 337.287 563.378 338.833C562.402 340.38 561.945 342.092 561.996 343.93C562.047 345.604 562.402 346.986 563.074 348.063C563.746 349.154 564.62 350.016 565.685 350.675C566.75 351.334 567.93 351.854 569.223 352.234C570.516 352.615 571.784 352.919 573.039 353.135C574.281 353.35 575.448 353.591 576.513 353.845C577.578 354.098 578.453 354.415 579.112 354.795C579.784 355.176 580.126 355.721 580.139 356.406C580.152 356.938 579.999 357.407 579.657 357.813C579.327 358.206 578.795 358.523 578.072 358.751C577.35 358.979 576.361 359.119 575.106 359.144C573.28 359.195 571.454 358.954 569.59 358.422C567.739 357.889 566.091 357.204 564.671 356.342L561.945 363.011C563.441 363.949 565.381 364.71 567.765 365.293C569.578 365.724 571.441 365.978 573.369 366.041L573.508 370.846L578.884 370.694L578.744 365.699C580.329 365.433 581.762 365.027 582.966 364.444C584.995 363.455 586.503 362.187 587.492 360.615C588.481 359.043 588.95 357.357 588.9 355.531C588.849 353.895 588.481 352.539 587.797 351.461L587.809 351.474Z" fill="#066FD1"/>
    <path d="M662.812 271.207V469.32C662.825 473.2 661.278 476.876 658.603 479.551C658.59 479.589 658.451 479.704 658.235 479.957C655.116 483.266 633.74 506.087 630.85 509.168C630.85 509.181 630.837 509.206 630.837 509.206L630.634 509.409C630.634 509.409 630.583 509.473 630.571 509.498C630.558 509.511 630.533 509.536 630.533 509.536C629.62 510.601 628.327 511.235 626.932 511.324H437.973C469.187 499.926 495.685 486.829 518.138 472.68H655.497C655.991 471.602 656.232 470.461 656.232 469.295V271.232C656.181 266.795 652.593 263.207 648.156 263.181H640.295C640.257 260.886 640.206 258.693 640.105 256.626H648.181C656.257 256.614 662.812 263.156 662.825 271.245L662.812 271.207Z" fill="black" opacity="0.3"/>
    <path d="M112.887 411.367C112.887 411.367 113.28 412.305 113.952 413.978C113.267 413.535 112.887 413.306 112.887 413.306V411.367Z" fill="black" opacity="0.1"/>
    <path d="M469.963 147.415C462.216 144.777 454.964 141.557 448.676 137.335C451.744 131.186 454.888 124.974 458.121 118.685C459.922 115.173 461.747 111.636 463.573 108.086C465.348 104.65 467.148 101.176 468.974 97.6897C463.979 114.818 463.066 131.313 469.075 145.247C469.38 145.957 469.684 146.666 469.963 147.402V147.415Z" fill="black" opacity="0.1"/>
    <path d="M531.859 130.197C530.857 129.17 529.716 128.257 528.436 127.471C527.155 126.685 525.837 125.975 524.505 125.341C523.161 124.707 521.957 124.099 520.854 123.541C519.764 122.983 518.901 122.387 518.28 121.766C517.659 121.145 517.443 120.435 517.634 119.636C517.76 119.103 518.065 118.647 518.546 118.279C519.028 117.899 519.713 117.671 520.613 117.569C521.513 117.468 522.642 117.582 524.011 117.912C525.532 118.279 527.066 118.875 528.588 119.699C530.109 120.523 531.593 121.601 533.025 122.932L537.767 116.39C536.322 114.958 534.559 113.715 532.48 112.663C531.174 112.004 529.818 111.458 528.436 111.002L529.729 105.614L523.757 104.181L522.439 109.683C520.448 109.455 518.623 109.468 517 109.772C514.464 110.254 512.423 111.192 510.889 112.612C509.355 114.032 508.34 115.769 507.846 117.823C507.402 119.687 507.377 121.309 507.795 122.704C508.214 124.099 508.911 125.329 509.887 126.368C510.863 127.408 512.004 128.333 513.323 129.145C514.642 129.956 515.947 130.666 517.253 131.275C518.559 131.883 519.764 132.492 520.867 133.088C521.97 133.684 522.832 134.292 523.453 134.926C524.074 135.547 524.29 136.245 524.112 137.005C523.973 137.601 523.656 138.07 523.174 138.413C522.692 138.755 522.008 138.945 521.146 138.971C520.271 139.009 519.142 138.856 517.748 138.527C515.719 138.045 513.767 137.221 511.89 136.093C510.001 134.951 508.404 133.696 507.085 132.327L502.09 138.856C503.446 140.34 505.361 141.76 507.833 143.104C509.697 144.118 511.687 144.955 513.792 145.601L512.512 150.939L518.483 152.372L519.814 146.819C521.653 146.996 523.339 146.971 524.848 146.692C527.383 146.21 529.425 145.259 530.984 143.826C532.543 142.394 533.558 140.669 534.052 138.641C534.496 136.815 534.496 135.205 534.052 133.823C533.608 132.441 532.899 131.224 531.897 130.197H531.859Z" fill="#A6A9B3"/>
    <path d="M392.164 172.074C380.234 197.571 361.216 191.307 344.062 193.463C349.159 189.9 355.79 186.35 363.815 184.448C377.204 181.253 381.515 167.231 382.909 158.318C386.079 163.288 389.172 167.89 392.164 172.074Z" fill="black" opacity="0.1"/>
    <path d="M154.888 180.492C154.774 180.936 154.647 181.481 154.495 182.14C154.495 182.14 154.483 182.204 154.445 182.331L137.519 184.549C137.481 183.472 137.455 182.508 137.43 181.671C137.379 179.732 137.392 178.134 137.392 177.056C143.224 178.197 149.044 179.351 154.876 180.492H154.888Z" fill="black" opacity="0.1"/>
    <path d="M195.324 103.572C189.529 111.648 182.518 123.173 181.555 132.733C181.25 135.56 181.086 138.4 181.06 141.253L169.117 135.027C171.006 127.953 174.442 121.373 179.197 115.794C179.615 115.312 180.262 114.577 181.111 113.664C182.835 111.902 184.686 110.279 186.651 108.796C186.994 108.53 187.361 108.263 187.729 108.01C190.113 106.298 192.661 104.802 195.324 103.572Z" fill="black" opacity="0.5"/>
</svg>
