<svg xmlns="http://www.w3.org/2000/svg" width="800" height="600" fill="none" viewBox="0 0 800 600">
    <path d="M150.18 282.24C150.18 323.95 194.306 354.294 213.871 388.03C233.974 422.856 238.884 475.92 273.63 496.112C307.385 515.653 355.445 493.821 397.18 493.821C438.914 493.821 486.974 515.653 520.73 496.112C555.463 476.02 560.385 422.856 580.488 388.03C600.04 354.294 644.18 324.05 644.18 282.24C644.18 240.43 599.94 210.186 580.488 176.45C560.385 141.624 555.475 88.4598 520.73 68.3682C486.974 48.8274 438.914 70.659 397.18 70.659C355.445 70.659 307.385 48.8274 273.63 68.3682C238.784 88.4598 233.974 141.624 213.871 176.45C194.319 210.298 150.192 240.53 150.192 282.24" fill="#066FD1" opacity="0.02"/>
    <path d="M557.18 530.18C557.18 532.932 485.528 535.24 397.18 535.24C308.832 535.24 237.18 532.944 237.18 530.18C237.18 527.415 308.832 525.24 397.18 525.24C485.528 525.24 557.18 527.536 557.18 530.18Z" fill="#D6D8E2" opacity="0.5"/>
    <path d="M557.18 530.18C557.18 532.932 485.528 535.24 397.18 535.24C308.832 535.24 237.18 532.944 237.18 530.18C237.18 527.415 308.832 525.24 397.18 525.24C485.528 525.24 557.18 527.536 557.18 530.18Z" fill="black" opacity="0.2"/>
    <path d="M440.168 367.24H431.191C428.976 367.24 427.18 368.98 427.18 371.126V525.354C427.18 527.5 428.976 529.24 431.191 529.24H440.168C442.384 529.24 444.18 527.5 444.18 525.354V371.126C444.18 368.98 442.384 367.24 440.168 367.24Z" fill="#232B41"/>
    <path d="M491.168 367.24H482.191C479.976 367.24 478.18 368.98 478.18 371.126V525.354C478.18 527.5 479.976 529.24 482.191 529.24H491.168C493.384 529.24 495.18 527.5 495.18 525.354V371.126C495.18 368.98 493.384 367.24 491.168 367.24Z" fill="#232B41"/>
    <path d="M461.18 391.24C498.183 391.24 528.18 380.271 528.18 366.74C528.18 353.209 498.183 342.24 461.18 342.24C424.177 342.24 394.18 353.209 394.18 366.74C394.18 380.271 424.177 391.24 461.18 391.24Z" fill="#232B41"/>
    <path d="M377.348 177.252C377.348 177.252 362.363 191.254 363.215 224.24L380.18 208.884L379.804 189.092L377.335 177.24L377.348 177.252Z" fill="#A6A9B3"/>
    <path d="M447.877 425.809C453.21 449.802 458.53 473.807 463.875 497.776C460.695 499.26 457.528 500.756 454.349 502.24C445.786 487.525 437.211 472.797 428.649 458.057C424.993 451.797 421.326 445.512 417.683 439.227C415.955 436.246 414.203 433.254 412.475 430.273C417.37 410.258 422.252 390.243 427.147 370.215C407.443 376.825 387.739 383.422 368.023 390.019C349.408 411.542 330.768 433.066 312.141 454.578C309.5 452.82 306.846 451.061 304.18 449.303C316.135 419.736 328.115 390.193 340.07 360.626C361.538 349.814 383.02 339.027 404.488 328.24C409.646 329.599 414.816 330.946 419.999 332.318L435.484 336.396L454.311 341.209L459.431 342.519L484.18 348.866C472.087 374.53 459.969 400.169 447.864 425.809H447.877Z" fill="#DADCE0"/>
    <path d="M453.267 530.24L471.18 511.279C471.18 511.279 467.565 505.432 462.828 506.335C458.091 507.237 452.407 522.762 453.267 530.228" fill="#232B41"/>
    <path d="M281.18 456.056L303.43 470.24C303.43 470.24 308.587 465.558 306.805 461.027C305.023 456.497 288.471 453.791 281.18 456.056Z" fill="#232B41"/>
    <path d="M496.18 144.589C494.855 148.249 492.982 153.829 490.658 160.266L489.284 163.51C486.248 170.743 482.4 177.382 477.803 183.731L475.03 187.215C471.482 191.204 452.356 191.772 437.752 185.713C423.148 179.654 422.098 163.22 430.331 158.764C433.304 156.833 435.978 154.422 438.064 151.607C441.15 147.921 443.898 143.895 446.259 139.792C447.721 137.394 448.57 135.943 448.57 135.943L463.349 129.24L491.732 137.634C490.033 142.43 490.433 146.205 491.795 146.773C493.157 147.341 495.83 144.93 496.167 144.602L496.18 144.589Z" fill="#FFCB9D"/>
    <path d="M438.18 151.633C441.555 154.097 446.869 157.501 454.208 159.742C461.41 161.958 467.711 162.107 471.799 161.921C471.462 163.456 471.162 164.855 471.112 166.316C470.737 168.644 470.774 170.922 471.074 173.249C471.562 175.354 472.325 177.396 473.562 179.13C474.675 180.838 476.125 182.212 477.788 183.24C482.364 177.149 486.24 170.501 489.278 163.407L490.653 160.225C493.104 153.936 494.979 148.464 496.18 144.849C495.842 145.171 493.592 148.03 492.129 147.312C491.904 147.127 491.541 146.916 491.466 146.631C490.691 145.257 490.691 142.187 492.066 138.349L491.679 138.262L463.635 130.24L448.819 136.938C448.819 136.938 446.694 140.491 446.506 140.714C445.706 141.877 444.519 143.623 442.331 146.223L442.306 146.347L438.192 151.608L438.18 151.633Z" fill="black" opacity="0.1"/>
    <path d="M429.283 120.252C429.722 123.866 431.479 126.952 434.376 129.211C434.602 134.405 436.232 139.361 439.255 143.526C447.296 154.479 464.932 158.03 482.894 151.907L482.995 152.07L482.97 152.196C482.505 153.714 482.167 155.27 481.602 156.637C481.489 157.152 481.276 157.516 481.163 158.03L481.05 158.544C479.445 161.581 478.203 164.83 477.112 167.979C476.798 170.075 476.986 172.283 477.915 174.24C479.357 171.304 481.402 168.77 484.098 166.925C485.039 166.323 486.093 165.871 487.134 165.42C492.528 162.396 496.579 157.453 498.411 151.493C498.712 150.74 498.9 149.837 498.937 149.034L499.101 148.934C504.82 148.143 508.772 143.049 508.107 137.353C507.429 133.012 504.243 129.612 500.004 128.558C503.303 122.097 500.706 114.092 494.246 110.792C491.926 109.613 489.191 109.149 486.57 109.4C484.073 109.676 481.828 110.667 480.009 112.172C478.278 105.172 471.091 100.893 464.079 102.625C459.212 103.867 455.386 107.781 454.446 112.712C451.912 107.555 446.455 104.619 440.899 105.31C433.485 106.414 428.43 112.888 429.271 120.24L429.283 120.252Z" fill="#232B41"/>
    <path d="M434.18 129.253C434.409 134.509 436.065 139.524 439.136 143.74C447.304 154.824 465.219 158.418 483.465 152.221L483.567 152.386L483.541 152.513C485.822 151.498 488.128 150.355 490.18 149.149L490.014 149.25C485.86 149.999 460.95 155.84 443.163 140.362C439.608 137.125 436.588 133.328 434.18 129.24V129.253Z" fill="black" opacity="0.5"/>
    <path d="M407.078 216.669C405.172 208.669 404.834 204.418 406.025 203.917C406.175 203.854 406.363 203.854 406.564 203.917V203.879C406.664 203.892 406.764 203.904 406.865 203.917C410.839 203.917 414.938 204.607 414.938 204.607C416.881 204.933 418.448 205.309 419.476 205.572C424.378 206.211 429.267 206.851 434.169 207.503C434.696 207.478 438.294 207.215 440.538 204.143C441.992 202.136 442.092 200.042 442.092 199.24C450.893 199.955 459.693 200.669 468.469 201.384C468.632 202.375 469.146 204.832 471.177 207.064C473.596 209.722 476.568 210.337 477.495 210.487L502.18 214.963C499.723 230.536 497.253 246.135 494.783 261.708C490.383 289.556 485.982 317.392 481.582 345.24C454.115 344.651 426.635 344.061 399.18 343.459L401.712 295.449L402.715 276.578C404.169 256.617 405.623 236.643 407.078 216.681V216.669Z" fill="#066FD1"/>
    <path d="M401.732 295.397L399.18 343.458C426.848 344.06 454.528 344.65 482.221 345.24C486.656 317.363 491.09 289.498 495.525 261.62C496.081 258.156 496.624 254.704 497.18 251.24C493.68 257.968 482.802 276.682 459.582 288.343C433.303 301.547 408.693 296.941 401.719 295.384L401.732 295.397Z" fill="black" opacity="0.1"/>
    <path d="M426.835 370.318L432.18 338.923L403.386 328.24L339.979 360.652L304.18 449.93L312.121 455.24L367.861 390.252L426.835 370.318Z" fill="black" opacity="0.1"/>
    <path d="M463.18 351.741L459.79 362.118L428.385 458.24C424.65 451.972 420.902 445.678 417.18 439.385C427.669 423.015 440.934 395.944 438.734 363.004C438.427 358.397 437.839 354.014 437.046 349.831C443.915 346.472 448.456 344.137 450.209 342.951C450.209 342.951 452.486 341.415 454.622 341.252C454.865 341.24 455.082 341.24 455.313 341.24C456.131 341.24 457.001 341.352 457.833 341.627C457.833 341.627 458.907 341.964 459.854 342.576C461.44 343.6 463.09 347.084 463.167 351.754L463.18 351.741Z" fill="black" opacity="0.1"/>
    <path d="M316.877 269.285C315.23 269.462 313.645 269.74 312.111 270.322C311.193 270.639 310.363 271.056 309.52 271.474C301.937 275.434 298.164 283.569 301.27 289.503C303.999 294.893 311.306 296.639 318.26 294.083C319.179 293.767 319.908 293.425 320.751 293.008C321.593 292.59 322.247 292.135 323.014 291.603C329.126 287.365 331.855 280.292 329.114 274.903C326.888 270.942 322.109 268.905 316.89 269.285H316.877Z" fill="#FFCB9D"/>
    <path d="M316.931 269.285C315.289 269.463 313.709 269.744 312.18 270.329C314.75 278.147 316.818 286.155 318.298 294.24C319.213 293.922 319.94 293.578 320.78 293.158C321.62 292.738 322.272 292.279 323.037 291.745C329.13 287.479 331.85 280.362 329.117 274.938C326.898 270.953 322.134 268.903 316.931 269.285Z" fill="black" opacity="0.1"/>
    <path d="M429.497 207.117C436.063 214.333 436.603 219.26 435.988 222.375C433.765 233.493 414.569 231.442 405.944 247.463C404.563 250.027 400.897 257.806 396.189 263.872C393.653 267.148 390.753 270 390.753 270C389.522 271.263 387.991 272.639 385.668 274.49C369.56 287.309 353.929 294.338 343.321 298.24C338.274 295.151 332.385 290.961 326.422 285.346C317.822 277.254 312.009 269.024 308.18 262.559C316.089 261.746 327.037 260.17 339.805 256.843C356.503 252.491 365.216 248.989 373.301 240.822C383.998 230.029 384.124 218.948 399.252 208.53C402.24 206.479 404.877 205.078 406.622 204.24C414.243 205.19 421.863 206.153 429.484 207.104L429.497 207.117Z" fill="#066FD1"/>
    <path d="M317.18 192.24H304.18V333.24H317.18V192.24Z" fill="#DADCE0"/>
    <path d="M317.18 311.536V333.24H304.18V292.24C306.866 298.172 310.962 305.078 317.18 311.536Z" fill="black" opacity="0.1"/>
    <path d="M339.866 200.105L338.303 204.209C337.389 206.648 334.687 207.855 332.31 206.928L307.403 197.195L290.164 190.461C287.762 189.508 286.574 186.789 287.487 184.375L289.051 180.246C289.964 177.832 292.641 176.625 295.043 177.553L337.189 194.019C337.977 194.324 338.628 194.845 339.141 195.455C340.154 196.712 340.479 198.466 339.879 200.105H339.866Z" fill="#A6A9B3"/>
    <path d="M339.874 199.975L338.347 204.154C337.456 206.637 334.817 207.866 332.497 206.922L308.18 197.012C318.109 198.345 329.138 198.422 339.165 195.24C340.155 196.521 340.472 198.306 339.886 199.975H339.874Z" fill="black" opacity="0.1"/>
    <path d="M341.18 215.24C348.359 215.24 354.18 209.196 354.18 201.74C354.18 194.284 348.359 188.24 341.18 188.24C334 188.24 328.18 194.284 328.18 201.74C328.18 209.196 334 215.24 341.18 215.24Z" fill="#232B41"/>
    <path d="M373.18 220.058L370.27 218.24L357.975 238.837C357.974 238.837 357.974 238.838 357.974 238.838C356.152 241.871 352.926 243.708 349.45 243.676C344.069 243.625 336.248 243.644 329.78 243.676C326.544 243.691 323.645 243.711 321.554 243.726C320.508 243.733 319.665 243.74 319.083 243.744L318.18 243.752C318.18 243.752 318.179 243.752 318.194 245.496C318.208 247.24 318.209 247.24 318.209 247.24L319.109 247.233C319.691 247.228 320.533 247.221 321.578 247.214C323.667 247.199 326.564 247.18 329.797 247.164C336.265 247.132 344.064 247.113 349.419 247.164C354.1 247.208 358.436 244.732 360.879 240.663L373.18 220.058Z" fill="#A6A9B3"/>
    <path d="M368.815 226.036L363.18 224.331C366.615 219.128 371.016 211.186 373.925 200.717C376.517 191.356 377.043 183.153 376.969 177.24L382.605 178.945C384.879 179.642 386.358 181.858 386.162 184.273C385.722 189.663 384.781 195.987 382.874 202.908C380.588 211.223 377.544 218.144 374.647 223.571C373.51 225.688 371.089 226.721 368.815 226.024V226.036Z" fill="#DADCE0"/>
    <path d="M488.052 148.24L484.02 146.797C490.909 128.96 489.748 116.86 485.051 114.111C483.798 113.383 482.076 113.195 479.923 113.559L479.18 109.479C482.389 108.94 485.103 109.316 487.269 110.571C494.862 115.002 495.162 129.789 488.038 148.24H488.052Z" fill="#A6A9B3"/>
    <path d="M469.642 157.036C467.957 164.454 471.01 171.723 476.628 174.765C477.569 175.264 478.57 175.663 479.633 175.912C482.491 176.586 485.373 176.199 487.95 174.952C492.127 172.97 495.51 168.781 496.719 163.432C498.026 157.647 496.475 151.961 493.067 148.308C491.382 146.476 489.22 145.154 486.741 144.568C479.254 142.798 471.609 148.371 469.642 157.036Z" fill="#DADCE0"/>
    <path d="M491.942 162.401C493.192 157.007 490.351 151.741 485.597 150.64C480.843 149.539 475.976 153.02 474.727 158.414C473.478 163.809 476.319 169.074 481.072 170.175C485.826 171.276 490.693 167.796 491.942 162.401Z" fill="#A6A9B3"/>
    <path d="M211.942 59.2525H370.714C374.434 59.2525 377.476 61.8771 377.476 65.0892V113.92C377.476 119.169 378.979 124.343 381.847 128.968C385.629 135.054 389.398 141.141 393.18 147.24C382.786 145.028 372.38 142.816 361.986 140.591C359.081 139.966 356.101 139.654 353.108 139.654H211.942C208.223 139.654 205.18 137.029 205.18 133.817V65.0767C205.18 61.8646 208.223 59.24 211.942 59.24V59.2525Z" fill="white"/>
    <path d="M400.18 152.24L361.309 143.883C358.648 143.304 355.899 143.014 353.15 143.014H212.3C206.715 143.014 202.18 138.861 202.18 133.739V64.5158C202.18 59.4059 206.715 55.24 212.3 55.24H370.718C376.303 55.24 380.838 59.3934 380.838 64.5158V113.689C380.838 118.321 382.175 122.94 384.699 127.055L400.167 152.227L400.18 152.24ZM212.313 62.0616C210.513 62.0616 208.939 63.2195 208.939 64.5284V133.751C208.939 135.073 210.513 136.231 212.313 136.231H353.163C356.387 136.231 359.598 136.57 362.734 137.25L386.123 142.272L378.977 130.655C375.79 125.47 374.104 119.617 374.104 113.714V64.541C374.104 63.2195 372.529 62.0616 370.73 62.0616H212.313Z" fill="#A6A9B3"/>
    <path d="M267.018 90.24L355.341 90.24C356.909 90.24 358.18 89.0355 358.18 87.5496V84.9304C358.18 83.4445 356.909 82.24 355.341 82.24L267.018 82.24C265.451 82.24 264.18 83.4445 264.18 84.9304V87.5496C264.18 89.0355 265.451 90.24 267.018 90.24Z" fill="#066FD1"/>
    <path d="M232.746 116.24L354.613 116.24C356.583 116.24 358.18 114.732 358.18 112.872V107.608C358.18 105.748 356.583 104.24 354.613 104.24L232.746 104.24C230.776 104.24 229.18 105.748 229.18 107.608V112.872C229.18 114.732 230.776 116.24 232.746 116.24Z" fill="#DADCE0"/>
    <path d="M319.339 242.24H302.021C300.452 242.24 299.18 243.414 299.18 244.863V245.617C299.18 247.066 300.452 248.24 302.021 248.24H319.339C320.908 248.24 322.18 247.066 322.18 245.617V244.863C322.18 243.414 320.908 242.24 319.339 242.24Z" fill="#066FD1"/>
    <path d="M300.192 392.56V393.932C300.192 397.976 303.294 401.24 307.109 401.24H447.288C450.152 401.24 452.591 399.398 453.642 396.776C453.642 396.764 453.642 396.727 453.654 396.702C454.005 395.849 454.18 394.909 454.18 393.92V392.548C454.18 388.517 451.09 385.24 447.276 385.24H307.096C303.281 385.24 300.18 388.517 300.18 392.548L300.192 392.56Z" fill="#A6A9B3"/>
    <path d="M408.885 529.857C413.18 531.209 417.767 528.868 419.131 524.626L471.436 362.177L474.784 351.777C476.173 347.522 473.786 342.979 469.503 341.628C468.681 341.365 467.835 341.24 467.014 341.24C463.552 341.24 460.343 343.43 459.231 346.884L454.721 360.85L403.566 519.72C402.202 523.975 404.564 528.518 408.872 529.87L408.885 529.857Z" fill="#DADCE0"/>
    <path d="M347.474 529.857C343.179 531.209 338.593 528.868 337.228 524.626L284.924 362.177L281.576 351.777C280.186 347.522 282.574 342.979 286.857 341.628C287.678 341.365 288.524 341.24 289.346 341.24C292.807 341.24 296.016 343.43 297.128 346.884L301.638 360.85L352.793 519.72C354.158 523.975 351.795 528.518 347.487 529.87L347.474 529.857Z" fill="#DADCE0"/>
    <path d="M296.785 346.805C299.912 356.608 303.052 366.424 306.18 376.24C304.4 373.594 300.889 369.144 294.967 365.732C291.098 363.506 287.464 362.456 284.843 361.924L281.567 351.651C280.207 347.447 282.544 342.96 286.734 341.625C287.056 341.526 288.045 341.217 289.17 341.241C293.62 341.328 296.55 346.384 296.785 346.817V346.805Z" fill="black" opacity="0.1"/>
    <path d="M248.18 334.779V347.701C248.18 352.418 250.898 356.24 254.254 356.24H507.105C510.449 356.24 513.18 352.431 513.18 347.701V334.779C513.18 330.062 510.449 326.24 507.105 326.24H254.254C250.898 326.24 248.18 330.049 248.18 334.779Z" fill="#A6A9B3"/>
    <path d="M460.899 321.405C459.376 322.073 457.953 322.828 456.669 323.835C455.889 324.402 455.221 325.057 454.542 325.711C448.511 331.781 447.365 340.632 452.137 345.329C456.38 349.61 463.871 349.031 469.725 344.498C470.505 343.931 471.097 343.377 471.764 342.723C472.432 342.068 472.923 341.438 473.489 340.708C478.034 334.828 478.487 327.298 474.257 323.004C470.933 319.932 465.759 319.453 460.899 321.405Z" fill="#FFCB9D"/>
    <path d="M460.511 321.393C458.951 322.053 457.494 322.8 456.18 323.797C461.104 330.3 465.602 337.139 469.547 344.24C470.346 343.679 470.952 343.131 471.635 342.483C472.318 341.836 472.821 341.213 473.401 340.49C478.054 334.673 478.518 327.223 474.187 322.975C470.784 319.935 465.486 319.462 460.511 321.393Z" fill="black" opacity="0.1"/>
    <path d="M497.204 214.253C499.405 214.378 503.189 214.791 507.515 216.331C530.537 224.494 545.864 256.331 539.879 282.184C537.967 290.447 534.422 295.768 527.745 305.747C516.291 322.849 503.529 334.304 494.614 341.24C488.843 339.825 481.953 337.609 474.547 334.066C463.86 328.971 455.8 322.874 450.18 317.866C457.472 314.686 467.43 309.866 478.596 302.817C495.318 292.263 503.68 286.729 505.654 277.377C508.181 265.433 499.103 254.153 494.903 249.571C495.67 237.79 496.437 226.021 497.192 214.24L497.204 214.253Z" fill="#066FD1"/>
    <path d="M302.588 465.24C298.502 465.24 295.18 468.519 295.18 472.553V473.927C295.18 477.961 298.502 481.24 302.588 481.24H452.771C456.858 481.24 460.18 477.961 460.18 473.927V472.553C460.18 468.519 456.858 465.24 452.771 465.24" fill="#A6A9B3"/>
</svg>
