<svg xmlns="http://www.w3.org/2000/svg" width="800" height="600" fill="none" viewBox="0 0 800 600">
    <path d="M135.842 305.899C135.842 351.818 184.36 385.134 205.746 422.223C227.98 460.538 233.221 518.954 271.482 541.082C308.531 562.538 361.265 538.536 407.146 538.536C453.027 538.536 505.761 562.538 542.786 541.082C581.001 518.954 586.288 460.479 608.44 422.223C629.873 385.134 678.344 351.818 678.344 305.899C678.344 259.98 629.849 226.664 608.44 189.61C586.335 151.354 581.001 92.88 542.786 70.7399C505.714 49.2953 452.968 73.3571 407.099 73.3571C361.23 73.3571 308.484 49.2953 271.482 70.7399C233.268 92.88 227.98 151.354 205.829 189.61C184.408 226.711 135.924 260.016 135.924 305.946" fill="#066FD1" opacity="0.02"/>
    <path d="M304.963 438.537V439.55C305.008 440.935 304.501 442.281 303.554 443.293C302.607 444.305 301.297 444.899 299.912 444.946H197.612C196.597 444.927 195.612 444.602 194.784 444.015C193.956 443.427 193.325 442.604 192.972 441.652C192.712 441 192.582 440.303 192.588 439.601V438.588C192.543 437.206 193.048 435.861 193.992 434.85C194.936 433.838 196.242 433.242 197.625 433.192H299.964C301.329 433.255 302.616 433.85 303.55 434.848C304.484 435.847 304.991 437.17 304.963 438.537Z" fill="#A7AAB3"/>
    <path d="M192.383 432.897C192.383 428.655 183.41 424.925 169.708 422.643C169.454 422.598 169.225 422.466 169.058 422.269C168.892 422.072 168.8 421.824 168.798 421.566V419.644C168.798 419.355 168.683 419.078 168.479 418.873C168.274 418.669 167.997 418.554 167.708 418.554H165.273C164.984 418.554 164.707 418.669 164.503 418.873C164.298 419.078 164.183 419.355 164.183 419.644V420.579C164.185 420.733 164.153 420.886 164.09 421.027C164.028 421.167 163.935 421.293 163.82 421.395C163.705 421.497 163.569 421.573 163.421 421.618C163.274 421.663 163.118 421.676 162.966 421.656C154.049 420.552 145.072 420.005 136.087 420.015C117.206 420.015 100.53 422.117 90.3393 425.373C90.1758 425.426 90.0022 425.439 89.8327 425.412C89.6632 425.384 89.5025 425.317 89.3638 425.216C89.2251 425.115 89.1123 424.982 89.0345 424.829C88.9568 424.676 88.9164 424.507 88.9165 424.335V396.443C88.9165 396.154 89.0313 395.877 89.2356 395.673C89.44 395.468 89.7171 395.354 90.0061 395.354H159.813C159.956 395.354 160.097 395.325 160.229 395.271C160.362 395.216 160.482 395.136 160.583 395.034C160.684 394.933 160.764 394.813 160.819 394.681C160.874 394.549 160.902 394.407 160.902 394.264V391.829C160.902 391.54 160.787 391.263 160.583 391.058C160.379 390.854 160.101 390.739 159.813 390.739H89.942C89.653 390.739 89.3759 390.624 89.1715 390.42C88.9672 390.216 88.8524 389.939 88.8524 389.65V361.604C88.8524 361.317 88.7394 361.042 88.5379 360.838C88.3363 360.634 88.0625 360.518 87.7757 360.514H85.3403C85.0514 360.514 84.7742 360.629 84.5699 360.834C84.3656 361.038 84.2508 361.315 84.2508 361.604V427.104C84.2514 427.293 84.2019 427.48 84.1074 427.644C84.0128 427.808 83.8766 427.945 83.7124 428.039C81.1489 429.462 79.7773 431.116 79.7773 432.769C79.7773 434.423 81.2001 436.063 83.7124 437.486C83.8766 437.581 84.0128 437.717 84.1074 437.882C84.2019 438.046 84.2514 438.232 84.2508 438.422V535.236C84.2508 535.525 84.3656 535.802 84.5699 536.006C84.7742 536.21 85.0514 536.325 85.3403 536.325H87.7757C88.0625 536.322 88.3363 536.206 88.5379 536.002C88.7394 535.798 88.8524 535.522 88.8524 535.236V441.293C88.8543 441.122 88.8962 440.955 88.9748 440.803C89.0534 440.652 89.1664 440.521 89.3049 440.421C89.4433 440.321 89.6032 440.255 89.7718 440.229C89.9403 440.202 90.1128 440.215 90.2752 440.268C96.2111 442.11 102.311 443.376 108.49 444.049C108.756 444.077 109.002 444.203 109.182 444.401C109.362 444.6 109.462 444.858 109.464 445.126V538.081C109.464 538.224 109.492 538.366 109.547 538.498C109.601 538.63 109.682 538.751 109.783 538.852C109.884 538.953 110.004 539.033 110.136 539.088C110.268 539.143 110.41 539.171 110.553 539.171H113.014C113.301 539.167 113.575 539.051 113.776 538.847C113.978 538.643 114.091 538.368 114.091 538.081V445.895C114.09 445.743 114.121 445.592 114.183 445.453C114.244 445.313 114.333 445.188 114.445 445.086C114.558 444.983 114.69 444.905 114.835 444.857C114.979 444.808 115.132 444.791 115.283 444.805C121.692 445.42 128.78 445.779 136.061 445.779C145.028 445.797 153.988 445.258 162.889 444.164C163.046 444.136 163.208 444.143 163.362 444.184C163.516 444.225 163.66 444.3 163.782 444.402C163.904 444.505 164.002 444.634 164.07 444.778C164.137 444.923 164.171 445.081 164.171 445.241V538.081C164.171 538.37 164.285 538.647 164.49 538.852C164.694 539.056 164.971 539.171 165.26 539.171H167.696C167.982 539.167 168.256 539.051 168.458 538.847C168.659 538.643 168.772 538.368 168.772 538.081V444.254C168.778 443.997 168.873 443.75 169.042 443.555C169.21 443.361 169.441 443.232 169.695 443.19C183.423 440.87 192.383 437.102 192.383 432.897Z" fill="#232B41"/>
    <path d="M209.059 433.141C209.926 437.339 211.56 441.341 213.878 444.946H197.612C196.597 444.927 195.612 444.602 194.784 444.015C193.956 443.427 193.325 442.604 192.972 441.652C192.844 440.678 192.716 439.704 192.588 438.755V438.588C192.543 437.206 193.048 435.861 193.992 434.85C194.936 433.838 196.242 433.242 197.625 433.192L209.059 433.141Z" fill="black" opacity="0.1"/>
    <path d="M304.963 438.537V439.55C305.008 440.935 304.501 442.281 303.554 443.293C302.608 444.305 301.298 444.899 299.913 444.946H282.391C285.105 441.264 287.424 437.307 289.312 433.141H299.913C301.297 433.191 302.604 433.787 303.551 434.798C304.497 435.809 305.005 437.153 304.963 438.537Z" fill="black" opacity="0.1"/>
    <path d="M56 538.363C56 541.017 188.268 543.157 351.441 543.157C514.613 543.157 646.855 541.017 646.855 538.363C646.855 535.71 514.587 533.646 351.428 533.646C188.268 533.646 56 535.8 56 538.363Z" fill="#D6D8E2" opacity="0.5"/>
    <path d="M534.263 479.696C534.263 481.567 581.24 483.079 639.203 483.079C697.166 483.079 744.131 481.567 744.131 479.696C744.131 477.824 697.153 476.35 639.203 476.35C581.253 476.35 534.263 477.863 534.263 479.696Z" fill="#D6D8E2" opacity="0.5"/>
    <path d="M391.33 346.094C389.298 349.053 386.865 351.714 384.101 354.003C380.25 357.268 375.928 359.934 371.283 361.912C356.888 368.256 337.956 369.923 319.729 365.936C310.781 364.019 302.194 360.696 294.285 356.092C290.705 353.997 287.302 351.613 284.108 348.965C271.687 338.647 262.728 324.368 265.445 321.086C267.214 318.92 273.7 321.022 295.567 329.046L314.474 335.994C319.345 337.771 324.711 339.728 330.573 341.864C339.546 345.12 353.735 350.042 366.553 343.787C367.527 343.313 368.473 342.782 369.386 342.198C371.185 341.049 372.86 339.717 374.385 338.224C382.896 336.724 389.625 337.211 391.907 339.788C392.14 340.047 392.33 340.341 392.471 340.659C393.176 342.249 392.535 344.133 391.33 346.094Z" fill="#FFCB9D"/>
    <path d="M388.497 272.865C386.651 285.063 380.36 296.148 370.834 303.987L408.48 294.694L388.471 272.904" fill="#232B41"/>
    <path d="M450.729 459.315L453.459 481.516L457.445 513.766L460.073 513.663L465.597 479.824L467.943 465.327L450.729 459.315Z" fill="#FFCB9D"/>
    <path d="M412.839 460.815L415.428 481.682L419.555 515.253L422.183 515.15L427.528 482.464L430.079 466.814L412.839 460.815Z" fill="#FFCB9D"/>
    <path d="M467.943 465.301L450.754 459.289L453.484 481.477C457.701 481.041 461.752 480.465 465.623 479.785L467.943 465.301Z" fill="black" opacity="0.15"/>
    <path d="M412.839 460.802L415.402 481.682C419.248 482.08 423.247 482.349 427.503 482.516L430.066 466.865L412.839 460.802Z" fill="black" opacity="0.15"/>
    <path d="M402.314 299.809C413.082 297.335 423.631 290.285 427.271 285.389C427.902 284.608 428.341 283.691 428.553 282.71C428.707 281.492 428.796 280.261 428.835 278.98C428.925 277.211 428.912 275.391 428.835 273.609C428.654 268.95 428.053 264.317 427.04 259.765C426.912 259.407 426.681 258.291 426.374 257.022C424.9 251.318 423.567 246.768 422.631 243.615C422.528 244.153 421.964 246.704 420.721 246.922C419.478 247.14 417.376 244.704 416.299 240.641L392.765 248.819L385.856 260.74C385.856 260.74 386.036 262.201 386.138 264.495C386.414 268.473 386.414 272.464 386.138 276.442C386.034 279.434 385.387 282.383 384.228 285.145C380.601 292.208 389.356 302.834 402.25 299.809" fill="#FFCB9D"/>
    <path d="M386.228 276.493C396.29 276.566 406.089 273.277 414.069 267.149C416.493 266.66 419.005 266.855 421.324 267.713C424.746 268.994 425.4 271.122 428.617 273.455L428.912 273.686C428.732 269.027 428.132 264.393 427.118 259.842C426.989 259.483 426.759 258.368 426.451 257.099C424.977 251.395 423.644 246.845 422.708 243.679C422.606 244.23 422.042 246.781 420.798 246.999C419.555 247.217 417.453 244.781 416.376 240.718L392.842 248.896L385.934 260.817C385.934 260.817 386.113 262.278 386.216 264.572C386.491 268.55 386.491 272.541 386.216 276.519" fill="black" opacity="0.1"/>
    <path d="M453.317 278.326C449.645 281.559 445.46 284.158 440.935 286.017C440.371 286.26 439.82 286.465 439.269 286.67C434.357 288.441 429.172 289.331 423.951 289.298C424.539 282.387 424.62 275.443 424.195 268.52C423.98 266.915 423.624 265.332 423.131 263.79C422.817 262.889 422.449 262.007 422.028 261.15C421.798 260.676 421.503 260.137 421.221 259.637C420.221 257.92 416.568 256.612 414.427 253.997C401.917 264.969 389.753 270.058 383.664 268.661C380.532 268.013 377.666 266.441 375.435 264.149C374.413 263.019 373.655 261.674 373.218 260.214C371.718 253.882 380.768 246.806 382.421 245.525C394.598 236.052 409.813 237.565 413.735 238.103C413.908 238.12 414.08 238.15 414.248 238.193C421.865 239.536 429.073 242.605 435.321 247.165C437.732 248.93 439.956 250.935 441.96 253.151C442.242 253.446 442.524 253.767 442.781 254.074C444.269 255.8 445.627 257.633 446.844 259.56C447.434 260.547 447.869 261.342 448.126 261.855C450.504 266.127 452.135 270.774 452.945 275.596C453.048 276.262 453.15 276.877 453.202 277.339C453.202 277.467 453.202 277.621 453.266 277.762C453.33 277.903 453.291 278.159 453.317 278.326Z" fill="#232B41"/>
    <path d="M443.319 538.004C445.883 531.378 456.983 520.495 460.867 521.649C464.751 522.802 465.071 529.019 465.071 529.019L466.353 535.428L459.047 537.44L456.753 532.518L443.319 538.004Z" fill="#232B41"/>
    <path d="M406.711 539.44C409.275 532.813 420.375 521.943 424.259 523.084C428.143 524.225 428.463 530.455 428.463 530.455L429.745 536.799L422.439 538.812L420.144 533.89L406.711 539.44Z" fill="#232B41"/>
    <path d="M416.928 247.806C416.293 249.958 415.434 252.038 414.364 254.01C401.854 264.982 389.69 270.071 383.601 268.674C380.528 267.873 377.7 266.323 375.372 264.162C383.108 265.038 390.941 264.006 398.185 261.155C405.429 258.303 411.865 253.72 416.928 247.806Z" fill="black" opacity="0.5"/>
    <path d="M400.841 467.954L481.453 464.801L481.107 419.81L480.94 401.904L402.456 403.455L401.148 455.688L400.841 467.954Z" fill="#DADBE0"/>
    <path d="M400.841 467.954L481.453 464.801C480.94 443.652 480.419 422.506 479.889 401.365L440.487 402.647C456.266 431 460.995 441.613 459.842 442.626C458.265 443.998 446.55 426.373 441.064 429.693C439.09 430.911 439.013 434.243 438.5 436.499C436.975 443.459 429.015 451.342 401.084 455.662L400.841 467.954Z" fill="black" opacity="0.1"/>
    <path d="M453.33 278.313C449.658 281.553 445.468 284.153 440.935 286.004C440.371 286.234 439.82 286.452 439.269 286.645C440.688 282.995 441.606 279.171 441.999 275.275C442.845 265.432 440.519 255.577 435.359 247.153C437.77 248.912 439.995 250.914 441.999 253.126C442.281 253.421 442.55 253.728 442.819 254.036L446.883 259.535C447.472 260.535 447.908 261.316 448.164 261.829C450.748 266.663 452.445 271.92 453.176 277.352C453.176 277.493 453.176 277.634 453.176 277.775C453.176 277.916 453.304 278.159 453.33 278.313Z" fill="black" opacity="0.5"/>
    <path d="M391.945 339.749L391.33 346.069C389.291 349.021 386.859 351.682 384.101 353.977C380.246 357.238 375.926 359.904 371.283 361.886C374.244 354.644 371.283 346.235 369.386 342.172C371.185 341.023 372.86 339.692 374.385 338.198C382.921 336.686 389.664 337.186 391.945 339.749Z" fill="black" opacity="0.15"/>
    <path d="M394.534 351.644C395.047 357.207 395.714 362.988 396.585 368.974C397.188 373.191 397.867 377.28 398.585 381.228L398.764 382.343C399.277 386.189 399.88 390.034 400.597 394.072C401.187 397.302 401.807 400.43 402.456 403.455C415.129 403.19 427.806 402.929 440.487 402.673L480.94 401.904C480.404 394.03 478.791 386.267 476.146 378.831C475.839 377.96 475.518 377.101 475.185 376.268V376.178C469.394 357.136 462.569 338.424 454.74 320.125C454.164 318.779 453.587 317.433 452.997 316.088C455.227 318.549 457.458 320.997 459.688 323.432L471.481 309.499C470.122 307.359 465.815 300.95 458.663 297.963C458.663 297.963 452.254 295.399 446.357 296.515C445.826 296.644 445.287 296.734 444.742 296.784L444.473 296.886C441.14 297.54 437.949 298.168 434.975 298.976C427.749 300.802 420.664 303.145 413.774 305.987C407.178 308.741 400.821 312.034 394.765 315.831C393.24 316.805 391.663 317.844 390.215 318.959L388.933 319.907L388.484 320.266L387.69 320.907C381.157 325.299 375.418 330.769 370.719 337.083L379.294 347.607C380.358 348.889 385.216 354.9 386.293 356.208L394.534 351.644Z" fill="#066FD1"/>
    <path d="M437.936 302.026C440.653 309.845 433.424 319.459 421.798 323.496C410.172 327.534 398.584 324.47 395.867 316.651C395.731 316.234 395.632 315.805 395.572 315.37C401.621 311.552 407.984 308.259 414.594 305.525C421.489 302.689 428.579 300.351 435.808 298.527C436.769 299.542 437.499 300.753 437.948 302.077" fill="#DADBE0"/>
    <path d="M388.395 320.369L388.856 320.023C394.048 328.418 408.391 331.277 422.773 326.278C438.577 320.792 448.485 307.846 444.871 297.45L444.691 296.925C445.204 296.822 445.742 296.72 446.306 296.656L446.396 296.912C450.357 308.307 439.987 322.279 423.401 328.059C408.429 333.264 393.355 330.033 387.639 320.997L388.433 320.343" fill="#DADBE0"/>
    <path d="M420.338 336.327C420.566 336.742 420.908 337.083 421.323 337.31C421.739 337.537 422.211 337.641 422.683 337.609C423.156 337.578 423.609 337.412 423.991 337.131C424.372 336.85 424.665 336.466 424.836 336.024C425.007 335.583 425.048 335.101 424.954 334.637C424.86 334.173 424.636 333.745 424.308 333.404C423.979 333.063 423.56 332.822 423.1 332.711C422.64 332.6 422.157 332.623 421.709 332.776C421.059 333.068 420.55 333.605 420.293 334.27C420.036 334.934 420.052 335.674 420.338 336.327Z" fill="#DADBE0"/>
    <path d="M468.93 409.466C470.588 410.846 472.575 411.774 474.697 412.16C476.819 412.546 479.005 412.378 481.043 411.671C483.388 410.852 485.344 409.189 486.529 407.005C495.412 390.436 497.964 371.2 493.707 352.888C490.307 337.726 482.815 323.788 472.045 312.588C471.378 311.896 470.763 311.306 470.34 310.883L461.137 321.65C461.79 322.189 462.765 323.009 463.931 324.086C470.394 330.275 474.835 338.273 476.672 347.03C478.428 355.567 476.98 362.181 475.39 369.218C473.738 376.734 470.964 383.959 467.161 390.649C463.2 397.545 464.303 405.505 468.93 409.466Z" fill="#FFCB9D"/>
    <path d="M461.11 321.663C461.764 322.202 462.738 323.022 463.879 324.086C466.314 320.728 470.083 315.472 472.031 312.55C471.365 311.87 470.749 311.268 470.314 310.845L461.11 321.612" fill="black" opacity="0.15"/>
    <path d="M414.581 305.474C421.475 302.637 428.564 300.302 435.795 298.488C436.755 299.502 437.481 300.714 437.923 302.039C440.64 309.858 433.424 319.459 421.798 323.496C410.172 327.534 398.597 324.458 395.88 316.639C395.738 316.222 395.635 315.793 395.572 315.357C401.621 311.539 407.984 308.246 414.594 305.513" fill="#FFCB9D"/>
    <path d="M195.254 437.807C192.904 449.65 190.657 461.763 188.512 474.145C185.692 490.467 183.201 506.412 181.039 521.982L176.591 521.213L166.786 449.432L144.687 430.693L157.787 461.456C153.344 483.579 148.892 505.699 144.431 527.814L137.33 527.506L127.447 460.174C124.743 453.232 120.521 446.983 115.091 441.883C108.554 435.845 103.978 435.025 100.107 429.526C97.3636 425.617 94.7744 418.862 97.1329 406.646H155.698L195.254 437.807Z" fill="#066FD1"/>
    <path d="M195.254 437.807C192.904 449.65 190.657 461.763 188.512 474.145C185.692 490.467 183.201 506.412 181.039 521.982L176.591 521.213L166.786 449.432L144.687 430.693L135.715 406.685H155.698L195.254 437.807Z" fill="black" opacity="0.1"/>
    <path d="M167.887 435.82C168.973 435.224 169.963 434.468 170.823 433.577C174.989 429.078 175.95 422.746 172.771 419.349C170.002 416.375 165.016 416.619 160.966 419.823L159.415 421.105C155.569 425.245 154.57 430.782 156.762 434.359C156.992 434.641 157.223 435.051 157.466 435.333C159.979 438.178 164.17 438.127 167.887 435.82Z" fill="#FFCB9D"/>
    <path d="M167.887 435.82C168.973 435.224 169.963 434.468 170.823 433.577C174.989 429.078 175.95 422.746 172.771 419.349C170.002 416.375 165.016 416.619 160.966 419.823C161.107 420.062 161.261 420.293 161.427 420.515C162.888 423.386 164.183 428.321 162.376 431.321C161.158 433.436 158.748 434.025 156.89 434.397C157.133 434.679 157.351 435.089 157.595 435.371C159.979 438.178 164.17 438.127 167.887 435.82Z" fill="black" opacity="0.1"/>
    <path d="M165.644 288.414C165.029 291.503 164.26 296.104 163.324 301.808C163.157 303 162.978 304.18 162.965 304.59C162.277 310.835 162.346 317.14 163.17 323.368L163.888 326.97C164.901 331.238 178.18 339.326 191.024 340.89C203.867 342.454 211.148 331.341 206.944 324.893C205.568 322.331 204.657 319.545 204.252 316.664C203.568 312.855 203.178 308.998 203.085 305.128C202.97 302.872 202.944 301.475 202.944 301.475L195.113 290.734L171.553 285.248C170.861 289.272 169.195 291.836 167.849 291.733C166.503 291.631 165.708 288.978 165.644 288.401" fill="#FFCB9D"/>
    <path d="M165.644 288.414C165.029 291.503 164.26 296.104 163.324 301.808C163.157 303 162.978 304.18 162.965 304.59C162.277 310.835 162.346 317.14 163.17 323.368C164.793 323.266 166.377 322.83 167.823 322.086C169.456 321.286 170.888 320.13 172.015 318.702C173.228 317.241 174.186 315.586 174.847 313.806C175.391 312.681 175.82 311.504 176.129 310.294C184.473 315.424 194.281 317.646 204.021 316.613C203.343 312.802 202.954 308.946 202.855 305.077C202.739 302.808 202.726 301.424 202.726 301.424L194.882 290.682L171.323 285.196C170.63 289.221 168.964 291.785 167.618 291.682C166.272 291.58 165.721 289.016 165.657 288.439" fill="black" opacity="0.1"/>
    <path d="M161.492 292.81C160.441 297.735 161.313 302.875 163.928 307.179C164.5 307.951 165.026 308.755 165.504 309.589C166.673 311.976 167.203 314.626 167.042 317.279C168.455 316.202 169.502 314.716 170.042 313.024C170.555 310.3 170.859 307.54 170.952 304.769C170.982 304.638 170.982 304.503 170.952 304.372C170.967 303.97 171.023 303.57 171.118 303.18C171.336 301.898 171.682 300.616 171.977 299.488V299.373C177.104 304.372 192.063 317.254 205.56 311.294C207.64 310.337 209.59 309.122 211.367 307.679C211.543 307.597 211.691 307.462 211.79 307.294C212.22 306.907 212.611 306.478 212.956 306.013L213.123 305.936C214.065 304.821 214.857 303.589 215.481 302.27L215.674 301.783C216.173 300.29 216.317 298.702 216.094 297.145C215.872 295.587 215.289 294.103 214.392 292.81C211.885 289.32 208.741 286.337 205.124 284.017C196.036 277.608 181.014 273.058 170.311 280.069C167.573 281.898 165.342 284.389 163.825 287.311C162.687 288.963 161.886 290.823 161.467 292.784" fill="#232B41"/>
    <path d="M172.041 299.322C177.168 304.321 192.126 317.203 205.624 311.242C207.703 310.285 209.654 309.071 211.43 307.628C211.607 307.545 211.754 307.411 211.853 307.243C212.284 306.856 212.674 306.426 213.02 305.961L213.186 305.884C214.128 304.77 214.921 303.538 215.545 302.218C212.266 304.224 208.674 305.667 204.919 306.487C186.384 310.396 171.131 296.566 168.798 294.297L168.605 294.079C169.602 295.904 170.751 297.64 172.041 299.27" fill="black" opacity="0.5"/>
    <path d="M195.933 537.402L173.771 534.941C173.771 534.941 173.002 529.237 176.501 527.173C180 525.11 192.306 531.967 195.933 537.428" fill="#232B41"/>
    <path d="M157.543 544.952L135.394 542.491C135.394 542.491 134.612 536.787 138.111 534.71C141.611 532.634 154.044 539.504 157.543 544.964" fill="#232B41"/>
    <path d="M177.616 350.978C187.612 379.241 189.652 409.707 183.513 439.05L156.172 422.566C160.707 412.906 163.077 402.371 163.114 391.699C163.152 381.027 160.857 370.476 156.39 360.784L177.616 350.978Z" fill="#DADBE0"/>
    <path d="M160.864 378.319C157.048 387.27 155.296 396.964 155.737 406.685H97.1329C96.4792 393.175 95.8511 354.388 114.975 333.725C118.898 329.495 129.383 318.164 137.83 320.804C140.04 321.649 141.938 323.152 143.265 325.111C145.561 327.971 148.138 330.595 150.955 332.943C162.633 342.723 173.733 344.069 175.117 352.644C176.373 360.54 167.58 363.001 160.864 378.319Z" fill="#DADBE0"/>
    <path d="M186.603 394.802C185.628 379.853 182.61 365.107 177.63 350.978L175.284 353.157C175.315 353.826 175.277 354.496 175.169 355.157C175.295 354.307 175.295 353.443 175.169 352.593C173.785 344.018 162.684 342.672 151.007 332.892C148.189 330.544 145.613 327.92 143.316 325.06C141.989 323.101 140.092 321.598 137.882 320.753C129.435 318.113 118.95 329.444 115.027 333.674C95.9157 354.336 96.5309 393.123 97.1846 406.633H155.737C155.304 396.914 157.056 387.22 160.864 378.267C162.62 374.259 164.844 370.472 167.491 366.988C166.414 375.563 164.927 384.715 163.005 394.341C160.954 404.442 158.608 413.85 156.122 422.54L183.513 439.05C186.544 424.509 187.583 409.623 186.603 394.802Z" fill="black" opacity="0.1"/>
    <path d="M157.453 335.225C158.993 340.796 162.222 345.753 166.695 349.414L167.208 349.837L178.193 347.837L157.453 335.225Z" fill="#FFCB9D"/>
    <path d="M165.747 347.03L183.115 344.556L184.372 349.158L169.041 357.515L165.747 347.03Z" fill="#066FD1"/>
    <path d="M165.747 347.03L183.115 344.556L184.372 349.158L169.041 357.515L165.747 347.03Z" fill="black" opacity="0.1"/>
    <path d="M165.119 346.556L152.199 324.586L145.738 326.316L149.93 350.158L165.119 346.556Z" fill="#066FD1"/>
    <path d="M225.658 538.632C224.919 538.867 224.141 538.954 223.369 538.888C222.596 538.822 221.844 538.604 221.156 538.246C220.468 537.889 219.857 537.4 219.358 536.806C218.859 536.213 218.483 535.527 218.249 534.787L180.449 416.26L178.027 408.671C177.792 407.933 177.705 407.156 177.77 406.384C177.836 405.613 178.053 404.861 178.408 404.173C178.764 403.485 179.252 402.874 179.844 402.375C180.436 401.875 181.121 401.498 181.859 401.263C182.597 401.028 183.374 400.941 184.146 401.006C184.918 401.072 185.669 401.289 186.357 401.645C187.045 402 187.656 402.488 188.156 403.08C188.655 403.673 189.033 404.357 189.268 405.095L192.485 415.311L229.452 531.224C229.929 532.709 229.797 534.323 229.086 535.712C228.375 537.101 227.142 538.151 225.658 538.632Z" fill="#DADBE0"/>
    <path d="M317.421 408.697L310.73 429.654L277.186 534.761C276.95 535.5 276.571 536.184 276.071 536.776C275.571 537.368 274.959 537.855 274.271 538.21C273.582 538.566 272.83 538.782 272.058 538.846C271.286 538.911 270.509 538.823 269.771 538.588C269.033 538.352 268.348 537.973 267.756 537.473C267.165 536.973 266.677 536.361 266.322 535.672C265.967 534.984 265.75 534.232 265.686 533.46C265.621 532.688 265.709 531.911 265.945 531.172L299.861 424.886L306.18 405.07C306.558 403.877 307.306 402.835 308.315 402.095C309.325 401.356 310.543 400.956 311.794 400.955C312.404 400.955 313.009 401.05 313.589 401.237C314.333 401.471 315.023 401.851 315.619 402.354C316.216 402.857 316.706 403.473 317.063 404.167C317.419 404.861 317.635 405.618 317.696 406.396C317.758 407.174 317.664 407.956 317.421 408.697Z" fill="#DADBE0"/>
    <path d="M303.437 491.796C304.146 491.794 304.849 491.932 305.504 492.203C306.16 492.474 306.755 492.871 307.257 493.373C307.758 493.874 308.155 494.469 308.426 495.125C308.697 495.78 308.835 496.483 308.833 497.192V498.205C308.833 498.913 308.694 499.614 308.422 500.268C308.151 500.922 307.753 501.516 307.252 502.016C306.751 502.516 306.156 502.912 305.501 503.182C304.846 503.452 304.145 503.59 303.437 503.588H194.049C193.341 503.59 192.639 503.452 191.985 503.182C191.33 502.912 190.735 502.516 190.234 502.016C189.732 501.516 189.335 500.922 189.063 500.268C188.792 499.614 188.652 498.913 188.652 498.205V497.192C188.651 496.483 188.789 495.78 189.06 495.125C189.33 494.469 189.728 493.874 190.229 493.373C190.731 492.871 191.326 492.474 191.982 492.203C192.637 491.932 193.34 491.794 194.049 491.796" fill="#A7AAB3"/>
    <path d="M566.243 53.1019H322.434C313.358 53.1019 306.001 60.4591 306.001 69.5345V160.567C306.001 169.643 313.358 177 322.434 177H566.243C575.319 177 582.676 169.643 582.676 160.567V69.5345C582.676 60.4591 575.319 53.1019 566.243 53.1019Z" fill="white"/>
    <path d="M566.243 180.14H322.433C317.246 180.13 312.275 178.064 308.609 174.396C304.942 170.727 302.88 165.754 302.873 160.567V69.5602C302.88 64.3746 304.943 59.4033 308.61 55.7365C312.276 52.0698 317.248 50.0068 322.433 50H566.243C571.429 50.0068 576.4 52.0698 580.067 55.7365C583.734 59.4033 585.797 64.3746 585.803 69.5602V160.567C585.8 165.755 583.738 170.73 580.071 174.399C576.404 178.069 571.431 180.134 566.243 180.14ZM322.433 56.2295C318.907 56.2363 315.526 57.6402 313.033 60.1339C310.539 62.6277 309.135 66.0079 309.128 69.5345V160.542C309.132 164.07 310.534 167.452 313.029 169.946C315.523 172.441 318.906 173.843 322.433 173.847H566.243C569.773 173.854 573.161 172.459 575.663 169.969C578.165 167.479 579.576 164.097 579.587 160.567V69.5602C579.58 66.0335 578.176 62.6533 575.682 60.1596C573.188 57.6659 569.808 56.2619 566.282 56.2551L322.433 56.2295Z" fill="#232B41"/>
    <path d="M356.273 112.564H346.749C344.307 112.564 342.327 114.544 342.327 116.987V150.223C342.327 152.666 344.307 154.646 346.749 154.646H356.273C358.715 154.646 360.695 152.666 360.695 150.223V116.987C360.695 114.544 358.715 112.564 356.273 112.564Z" fill="#066FD1"/>
    <path d="M397.393 87.3258H390.202C387.115 87.3258 384.613 89.8279 384.613 92.9144V149.044C384.613 152.131 387.115 154.633 390.202 154.633H397.393C400.479 154.633 402.981 152.131 402.981 149.044V92.9144C402.981 89.8279 400.479 87.3258 397.393 87.3258Z" fill="#DADBE0"/>
    <path d="M443.652 78.4943H437.179C433.894 78.4943 431.231 81.1571 431.231 84.4418V148.685C431.231 151.97 433.894 154.633 437.179 154.633H443.652C446.937 154.633 449.6 151.97 449.6 148.685V84.4418C449.6 81.1571 446.937 78.4943 443.652 78.4943Z" fill="#066FD1"/>
    <path d="M495.066 112.564H485.542C483.1 112.564 481.12 114.544 481.12 116.987V150.223C481.12 152.666 483.1 154.646 485.542 154.646H495.066C497.508 154.646 499.488 152.666 499.488 150.223V116.987C499.488 114.544 497.508 112.564 495.066 112.564Z" fill="#DADBE0"/>
    <path d="M534.071 75.4692H527.828C524.48 75.4692 521.766 78.1836 521.766 81.5321V148.57C521.766 151.918 524.48 154.633 527.828 154.633H534.071C537.419 154.633 540.134 151.918 540.134 148.57V81.5321C540.134 78.1836 537.419 75.4692 534.071 75.4692Z" fill="#A7AAB3"/>
    <path d="M358.106 279.172L332.073 272.763C330.332 272.33 328.546 272.111 326.753 272.109H232.939C231.121 272.099 229.38 271.372 228.096 270.085C226.812 268.798 226.088 267.057 226.081 265.239V212.16C226.088 210.342 226.812 208.6 228.096 207.314C229.38 206.027 231.121 205.299 232.939 205.289H338.392C340.21 205.299 341.95 206.027 343.234 207.314C344.518 208.6 345.243 210.342 345.249 212.16V249.819C345.242 253.458 346.159 257.04 347.916 260.227L358.106 279.172Z" fill="#A7AAB3"/>
    <path d="M348.698 271.75L333.188 267.982C331.095 267.441 328.941 267.178 326.779 267.2H232.939C232.382 267.2 231.847 266.978 231.453 266.584C231.058 266.19 230.837 265.655 230.837 265.098V212.16C230.837 211.601 231.058 211.065 231.452 210.669C231.846 210.272 232.38 210.048 232.939 210.045L338.392 209.942C338.95 209.942 339.484 210.164 339.879 210.558C340.273 210.952 340.494 211.487 340.494 212.044V249.703C340.491 254.152 341.597 258.531 343.712 262.444L348.698 271.75Z" fill="white"/>
    <path d="M151.878 264.239C155.028 264.239 157.582 261.685 157.582 258.535C157.582 255.385 155.028 252.831 151.878 252.831C148.728 252.831 146.174 255.385 146.174 258.535C146.174 261.685 148.728 264.239 151.878 264.239Z" fill="#066FD1"/>
    <path d="M123.358 264.239C126.509 264.239 129.062 261.685 129.062 258.535C129.062 255.385 126.509 252.831 123.358 252.831C120.208 252.831 117.654 255.385 117.654 258.535C117.654 261.685 120.208 264.239 123.358 264.239Z" fill="#066FD1"/>
    <path d="M94.8505 264.239C98.0007 264.239 100.554 261.685 100.554 258.535C100.554 255.385 98.0007 252.831 94.8505 252.831C91.7002 252.831 89.1465 255.385 89.1465 258.535C89.1465 261.685 91.7002 264.239 94.8505 264.239Z" fill="#066FD1"/>
    <path d="M535.453 266.23L535.647 265.123V265.175C535.693 264.898 535.681 264.615 535.614 264.342C535.547 264.07 535.425 263.814 535.256 263.59C535.087 263.366 534.875 263.178 534.631 263.039C534.388 262.899 534.119 262.81 533.84 262.778L518.894 260.073C518.627 260.023 518.353 260.028 518.087 260.086C517.822 260.144 517.571 260.254 517.349 260.411C517.127 260.567 516.938 260.766 516.794 260.997C516.65 261.227 516.554 261.484 516.51 261.752L512.793 283.043C512.743 283.31 512.748 283.584 512.806 283.85C512.864 284.115 512.974 284.366 513.131 284.588C513.287 284.811 513.486 284.999 513.717 285.143C513.947 285.287 514.204 285.384 514.472 285.427L529.418 288.067C529.692 288.131 529.976 288.137 530.253 288.087C530.53 288.036 530.793 287.93 531.027 287.774C531.261 287.618 531.461 287.416 531.614 287.179C531.767 286.943 531.87 286.678 531.917 286.401L532.269 284.398L537.891 285.363C538.276 285.431 538.67 285.422 539.052 285.337C539.433 285.252 539.794 285.092 540.113 284.867C540.432 284.642 540.704 284.356 540.912 284.025C541.12 283.694 541.261 283.326 541.326 282.94L543.454 270.507C543.489 270.221 543.48 269.931 543.428 269.648C543.312 269.047 543.021 268.493 542.593 268.056C542.164 267.618 541.617 267.316 541.018 267.187L535.453 266.23ZM532.542 282.837L535.11 268.191L540.685 269.148C540.974 269.207 541.23 269.37 541.405 269.607C541.58 269.844 541.662 270.137 541.634 270.43L539.506 282.863C539.447 283.152 539.284 283.408 539.047 283.583C538.81 283.759 538.517 283.84 538.224 283.812L532.542 282.837Z" fill="#DADBE0"/>
    <path d="M534.724 270.379L531.956 286.401C531.909 286.679 531.805 286.943 531.652 287.179C531.499 287.416 531.3 287.618 531.065 287.774C530.831 287.93 530.568 288.036 530.291 288.087C530.014 288.137 529.73 288.131 529.456 288.067L514.51 285.427C514.242 285.384 513.985 285.287 513.755 285.143C513.524 284.999 513.325 284.811 513.169 284.589C513.012 284.366 512.902 284.115 512.844 283.85C512.786 283.584 512.782 283.31 512.831 283.043L513.216 280.646C520.77 278.097 527.991 274.649 534.724 270.379Z" fill="black" opacity="0.1"/>
    <path d="M524.354 253.728C522.867 251.857 521.201 249.242 521.791 246.499C522.162 244.345 523.713 243.538 524.816 241.372C525.751 239.526 526.585 236.45 525.29 231.669C528.161 234.309 528.648 236.437 528.738 237.911C528.828 241.449 525.598 243.038 524.559 247.922C524.137 249.828 524.067 251.796 524.354 253.728Z" fill="#066FD1"/>
    <path d="M534.006 233.963C534.876 233.414 535.616 232.682 536.176 231.819C536.736 230.956 537.102 229.982 537.249 228.964C537.326 227.272 536.313 226.4 535.8 224.542C535.352 223.029 535.39 220.594 537.082 217.12C536.208 217.493 535.428 218.056 534.799 218.768C534.169 219.479 533.706 220.322 533.442 221.235C532.788 223.798 534.903 225.657 534.839 229.438C534.929 230.992 534.643 232.544 534.006 233.963Z" fill="#066FD1"/>
    <path d="M549.503 273.429C548.814 272.474 547.942 271.664 546.94 271.045C543.569 268.482 539.531 268.161 536.967 270.52C533.66 273.532 533.827 279.646 537.544 284.337C537.905 284.856 538.336 285.322 538.826 285.722C542.389 289.17 547.158 289.926 550.042 287.26C553.272 284.261 553.067 278.031 549.503 273.429Z" fill="#FFCB9D"/>
    <path d="M549.503 273.429C548.813 272.474 547.942 271.664 546.939 271.045C545.952 272.724 545.132 274.083 544.568 275.006C543.004 277.57 542.376 278.557 541.504 280.223C540.812 281.505 540.312 282.671 539.992 283.402L539.223 285.004L538.71 285.619C542.273 289.08 547.054 289.836 549.926 287.157C553.271 284.261 553.066 278.031 549.503 273.429Z" fill="black" opacity="0.1"/>
    <path d="M593.392 259.496C594.404 266.828 595.417 274.045 596.429 281.376C598.429 295.476 600.429 309.473 602.3 323.535C603.889 334.468 605.351 345.415 606.927 356.22L662.903 353.247C663.442 342.198 663.865 331.149 664.403 320.228C664.698 313.947 665.005 307.794 665.287 301.513L667.364 255.561L593.392 259.496Z" fill="#066FD1"/>
    <path d="M657.315 211.634C656.277 214.454 654.649 218.658 652.636 223.657C652.136 224.811 651.713 225.721 651.598 226.08C649.096 231.523 645.941 236.64 642.202 241.32C641.382 242.243 640.716 243.077 639.895 243.987C637.742 246.191 628.885 246.742 619.886 244.897C616.765 244.283 613.728 243.302 610.837 241.974C601.749 237.975 599.685 228.9 602.646 223.811C603.338 222.582 604.389 221.594 605.659 220.978C608.05 219.575 610.187 217.776 611.978 215.659C614.469 212.907 616.704 209.934 618.656 206.776C619.336 205.83 619.961 204.846 620.527 203.828L632.269 198.816L654.29 205.917C652.867 209.532 653.008 212.467 654.085 213.083C655.161 213.698 656.917 212.032 657.315 211.634Z" fill="#FFCB9D"/>
    <path d="M657.315 211.634C656.277 214.454 654.649 218.658 652.636 223.657C652.137 224.811 651.714 225.721 651.598 226.08C649.096 231.522 645.941 236.64 642.203 241.32C640.934 240.383 639.84 239.229 638.973 237.911C638.065 236.434 637.431 234.806 637.101 233.104C636.826 231.282 636.826 229.428 637.101 227.605C637.216 226.452 637.486 225.221 637.704 224.119C628.357 224.232 619.244 221.193 611.837 215.492C614.33 212.742 616.565 209.768 618.515 206.609C619.197 205.669 619.822 204.689 620.387 203.674L632.141 198.688L654.162 205.802C652.726 209.417 652.88 212.339 653.957 212.967C655.033 213.595 656.866 212.07 657.264 211.685" fill="black" opacity="0.1"/>
    <path d="M658.52 217.274C656.938 221.831 653.691 225.622 649.432 227.887C648.535 228.246 647.74 228.656 646.958 229.054C644.851 230.43 643.116 232.306 641.908 234.514C641.248 232.982 641.104 231.277 641.498 229.656C642.151 227.234 644.689 223.068 644.882 222.465L644.997 222.106C645.116 221.75 645.271 221.406 645.458 221.081C645.958 219.929 646.344 218.731 646.612 217.505V217.389C639.895 219.03 621.297 222.094 613.285 210.583C612.056 208.768 611.053 206.809 610.299 204.751C610.193 204.569 610.124 204.369 610.094 204.161C609.908 203.65 609.771 203.122 609.684 202.585L609.607 202.431C609.284 201.027 609.214 199.578 609.402 198.15V197.637C609.477 197.011 609.672 196.406 609.978 195.855C611.003 193.659 612.781 191.904 614.99 190.908C619.092 188.805 624.193 188.485 627.001 188.344C637.627 187.575 652.06 191.318 657.43 202.444C658.703 205.313 659.312 208.433 659.212 211.57C659.209 213.525 658.938 215.47 658.405 217.351" fill="#232B41"/>
    <path d="M646.65 217.389C639.934 219.03 621.335 222.094 613.324 210.583C612.094 208.768 611.091 206.809 610.337 204.751C610.231 204.569 610.162 204.369 610.132 204.161C609.946 203.65 609.809 203.122 609.722 202.585C609.728 202.57 609.73 202.553 609.73 202.537C609.729 202.521 609.725 202.505 609.718 202.491C609.71 202.476 609.7 202.463 609.688 202.453C609.675 202.443 609.66 202.435 609.645 202.431C609.322 201.027 609.252 199.578 609.44 198.15C611.186 201.39 613.431 204.336 616.092 206.879C629.307 219.286 648.688 215.428 651.765 214.851H652.047C650.316 215.736 648.457 216.595 646.612 217.415" fill="black" opacity="0.5"/>
    <path d="M663.006 353.247L669.312 415.08L692.539 455.803L688.693 458.738L686.732 460.251L645.394 422.745L628.974 382.151L614.195 410.774C610.384 428.966 606.586 447.159 602.8 465.352L595.225 464.532C591.807 445.587 588.363 426.642 584.894 407.697L607.081 356.22L663.006 353.247Z" fill="#DADBE0"/>
    <path d="M683.989 478.388L702.28 467.531C702.28 467.531 700.704 462.199 696.961 461.827C693.218 461.456 685.079 472.274 683.989 478.388Z" fill="#232B41"/>
    <path d="M581.126 482.964L602.109 479.465C602.109 479.465 602.57 473.928 599.225 472.223C595.879 470.518 584.356 477.658 581.126 482.964Z" fill="#232B41"/>
    <path d="M638.024 255.612C635.072 259.022 631.128 261.423 626.744 262.483L626.129 262.637L614.862 258.227L638.024 255.612Z" fill="#FFCB9D"/>
    <path d="M638.024 255.612C635.072 259.022 631.128 261.423 626.744 262.483L626.129 262.637L614.862 258.227L638.024 255.612Z" fill="black" opacity="0.1"/>
    <path d="M626.116 262.637L611.991 253.626L609.043 257.035L619.015 270.404L626.116 262.637Z" fill="#DADBE0"/>
    <path d="M626.744 262.611L646.791 248.511L651.649 252.639L638.626 271.622L626.744 262.611Z" fill="#DADBE0"/>
    <path d="M626.116 262.637L611.991 253.626L609.043 257.035L619.015 270.404L626.116 262.637Z" fill="black" opacity="0.11"/>
    <path d="M634.384 274.314C631.717 292.49 629.051 310.666 626.513 328.841C624.424 310.794 622.219 292.746 620.015 274.827C622.168 270.699 624.206 266.713 626.424 262.585L627.052 262.675C629.346 266.623 631.794 270.468 634.384 274.314Z" fill="#DADBE0"/>
    <path d="M626.244 262.637L626.385 328.893C624.296 310.832 622.091 292.784 619.887 274.865C622.04 270.75 624.078 266.623 626.244 262.637Z" fill="black" opacity="0.11"/>
    <path d="M607.043 356.22L663.006 353.247C663.544 342.198 663.967 331.149 664.506 320.215C646.086 348.26 607.043 356.22 607.043 356.22Z" fill="black" opacity="0.1"/>
    <path d="M659.469 357.31C663.558 363.616 667.788 370.025 671.877 376.319C675.878 371.717 679.32 366.657 682.131 361.245C685.771 353.997 688.361 346.267 689.822 338.288C690.161 336.663 690.409 335.019 690.565 333.366C685.874 345.018 676.927 355.887 659.469 357.31Z" fill="black" opacity="0.1"/>
    <path d="M611.631 288.708C611.067 307.32 610.734 326.034 603.248 334.186C602.032 335.551 600.531 336.631 598.851 337.352C591.417 340.518 583.367 337.019 573.792 332.379L571.959 331.495C557.085 324.123 544.22 313.255 534.467 299.821L553.309 271.225C574.805 302.629 582.15 308.038 584.713 306.743C586.213 305.974 586.238 303.09 586.661 277.262C586.815 267.648 586.956 262.79 589.827 259.958C595.249 254.574 606.029 257.394 610.246 258.676C611.475 268.637 611.938 278.677 611.631 288.708Z" fill="#066FD1"/>
    <path d="M724.429 305L717.495 352.144C717.308 353.415 716.873 354.636 716.214 355.738C715.555 356.84 714.685 357.802 713.654 358.567C712.623 359.333 711.451 359.887 710.205 360.2C708.96 360.512 707.665 360.575 706.395 360.386L675.901 355.9L636.806 350.145L615.708 347.043C614.438 346.856 613.218 346.421 612.117 345.763C611.016 345.105 610.055 344.236 609.29 343.206C608.524 342.177 607.969 341.006 607.656 339.762C607.343 338.518 607.279 337.224 607.466 335.955L614.4 288.811C614.78 286.246 616.163 283.936 618.244 282.388C620.325 280.841 622.934 280.182 625.501 280.556L664.3 286.273L675.003 287.85L716.175 293.912C717.445 294.098 718.667 294.531 719.769 295.189C720.872 295.847 721.834 296.715 722.601 297.745C723.367 298.775 723.923 299.945 724.237 301.19C724.551 302.435 724.616 303.73 724.429 305Z" fill="#A7AAB3"/>
    <path d="M710.59 308.9L627.768 296.714C626.913 296.588 626.119 297.179 625.993 298.034L625.383 302.18C625.257 303.035 625.848 303.829 626.702 303.955L709.525 316.141C710.379 316.267 711.174 315.676 711.299 314.822L711.91 310.675C712.035 309.82 711.445 309.026 710.59 308.9Z" fill="#DADBE0"/>
    <path d="M681.048 326.493L626.607 318.483C625.914 318.381 625.269 318.86 625.167 319.554L624.471 324.284C624.369 324.977 624.848 325.622 625.542 325.724L679.983 333.734C680.676 333.836 681.321 333.357 681.423 332.663L682.119 327.933C682.221 327.24 681.742 326.595 681.048 326.493Z" fill="#066FD1"/>
    <path d="M628.975 382.151L619.72 355.541L607.056 356.22L584.868 407.697C588.286 426.642 591.73 445.587 595.199 464.532L602.775 465.352L614.196 410.774L628.975 382.151Z" fill="black" opacity="0.1"/>
    <path d="M675.888 355.9L636.793 350.145C657.609 331.789 664.287 286.273 664.287 286.273L674.99 287.85L675.888 355.9Z" fill="black" opacity="0.1"/>
    <path d="M665.672 379.126C665.102 379.189 664.528 379.219 663.955 379.216C657.764 379.216 652.765 375.627 652.765 371.217C652.765 366.808 657.764 363.232 663.955 363.232H664.044C664.134 364.206 664.237 365.167 664.339 366.142C664.775 370.448 665.224 374.794 665.672 379.126Z" fill="black" opacity="0.1"/>
    <path d="M657.213 359.822C656.16 360.355 655.22 361.087 654.444 361.976C651.342 364.885 650.432 368.82 652.342 371.73C654.79 375.486 660.853 376.281 666.082 373.371C666.649 373.083 667.175 372.721 667.646 372.294C671.62 369.32 673.132 364.732 670.953 361.463C668.505 357.836 662.327 357.041 657.213 359.822Z" fill="#FFCB9D"/>
    <path d="M657.212 359.822C656.159 360.355 655.219 361.087 654.443 361.976C655.943 363.258 657.161 364.244 657.981 364.949C660.288 366.911 661.147 367.68 662.647 368.795C663.852 369.692 664.864 370.359 665.544 370.794L666.992 371.807L667.53 372.41C671.504 369.436 673.017 364.847 670.837 361.591C668.505 357.836 662.326 357.041 657.212 359.822Z" fill="black" opacity="0.1"/>
    <path d="M654.598 356.246C663.731 362.882 670.701 372.068 674.632 382.651C677.661 379.068 680.412 375.258 682.861 371.256C691.347 356.921 696.167 340.715 696.897 324.073C698.179 301.411 693.218 262.265 673.825 256.305C671.711 255.671 669.502 255.419 667.3 255.561C665.924 264.44 664.557 273.323 663.198 282.21C665.502 290.09 666.697 298.252 666.749 306.461C666.743 313.227 666.043 319.975 664.66 326.598C662.613 336.877 659.23 346.844 654.598 356.246Z" fill="#066FD1"/>
    <path d="M603.595 332.648L603.236 334.186C602.02 335.55 600.519 336.631 598.839 337.352C591.405 340.518 583.355 337.019 573.78 332.379C599.775 319.638 597.25 288.208 596.853 284.235L603.595 332.648Z" fill="black" opacity="0.1"/>
    <path d="M326.831 222.465H276.174C275.034 222.465 274.11 223.389 274.11 224.529V227.182C274.11 228.322 275.034 229.246 276.174 229.246H326.831C327.97 229.246 328.894 228.322 328.894 227.182V224.529C328.894 223.389 327.97 222.465 326.831 222.465Z" fill="#232B41"/>
    <path d="M326.83 240.846H243.36C242.22 240.846 241.296 241.77 241.296 242.91V249.511C241.296 250.651 242.22 251.575 243.36 251.575H326.83C327.97 251.575 328.894 250.651 328.894 249.511V242.91C328.894 241.77 327.97 240.846 326.83 240.846Z" fill="#066FD1"/>
    <path d="M189.268 405.121C191.575 412.376 193.886 419.639 196.202 426.911C192.557 421.441 186.892 417.638 180.449 416.336L178.026 408.748C177.79 408.009 177.702 407.231 177.767 406.458C177.832 405.685 178.05 404.932 178.408 404.244C178.765 403.555 179.255 402.944 179.85 402.446C180.444 401.947 181.131 401.571 181.872 401.34C182.451 401.151 183.057 401.056 183.666 401.058C186.922 401.07 189.088 404.8 189.268 405.121Z" fill="black" opacity="0.1"/>
    <path d="M317.422 408.697L310.731 429.654C307.209 427.858 303.579 426.282 299.861 424.937L306.181 405.121C306.559 403.928 307.306 402.886 308.316 402.147C309.325 401.407 310.544 401.008 311.795 401.006C312.404 401.006 313.01 401.101 313.589 401.288C314.328 401.523 315.012 401.901 315.605 402.4C316.197 402.899 316.685 403.511 317.041 404.199C317.397 404.887 317.614 405.638 317.679 406.41C317.744 407.182 317.657 407.959 317.422 408.697Z" fill="black" opacity="0.1"/>
    <path d="M356.67 395.302V404.775C356.67 408.236 354.389 411.03 351.543 411.03H139.509C136.702 411.03 134.382 408.236 134.382 404.775V395.302C134.382 391.829 136.663 389.034 139.509 389.034H351.582C354.389 389.034 356.67 391.829 356.67 395.302Z" fill="#A7AAB3"/>
    <path d="M198.549 389.034C197.973 391.174 197.008 393.19 195.703 394.982C182.181 413.286 136.305 397.815 134.421 397.161V394.123C134.421 392.763 134.961 391.459 135.923 390.498C136.884 389.536 138.188 388.996 139.548 388.996L198.549 389.034Z" fill="black" opacity="0.1"/>
    <path d="M186.641 331.559C186.349 332.762 186.241 334.002 186.32 335.237C186.82 341.339 190.883 346.287 195.498 346.274C199.561 346.274 202.74 342.428 203.124 337.301L203.201 335.263C202.766 329.623 199.356 325.163 195.216 324.368C194.844 324.368 194.383 324.24 194.011 324.227C190.242 324.124 187.448 327.252 186.641 331.559Z" fill="#FFCB9D"/>
    <path d="M186.641 331.559C186.349 332.762 186.241 334.002 186.32 335.237C186.82 341.339 190.883 346.287 195.498 346.274C199.561 346.274 202.74 342.428 203.124 337.301C202.932 337.301 202.663 337.186 202.291 337.173C199.189 336.314 194.665 333.93 193.691 330.572C192.947 328.239 194.126 326.073 195.113 324.445C194.742 324.445 194.293 324.329 193.921 324.317C190.242 324.124 187.448 327.252 186.641 331.559Z" fill="black" opacity="0.1"/>
    <path d="M183.257 333.725L212.994 337.852C211.905 346.889 207.867 374.332 192.986 390.534C189.691 394.123 184.154 399.263 176.092 400.289C169.375 401.135 164.094 398.622 155.583 394.418C147.206 390.64 139.47 385.581 132.652 379.421C121.859 369.487 105.734 354.657 109.579 339.442C112.143 329.277 123.474 319.805 134.395 320.292C137.551 320.259 140.642 321.194 143.252 322.971C151.494 328.982 146.341 340.352 152.571 352.657C157.531 362.45 168.734 370.935 175.643 368.769C182.308 366.603 184.859 351.978 183.257 333.725Z" fill="#DADBE0"/>
    <path d="M323.561 389.047C324.689 389.791 325.292 390.572 325.292 391.38C325.292 396.251 303.155 400.199 275.853 400.199C248.551 400.199 226.401 396.251 226.401 391.38C226.401 390.572 227.004 389.791 228.132 389.047H323.561Z" fill="black" opacity="0.1"/>
    <path d="M322.728 366.218L317.204 317.626C317.103 316.754 316.686 315.95 316.031 315.367C315.376 314.783 314.53 314.46 313.653 314.46H229.978C229.474 314.458 228.976 314.563 228.516 314.768C228.056 314.973 227.645 315.273 227.31 315.649C226.974 316.024 226.722 316.466 226.57 316.946C226.418 317.426 226.369 317.933 226.427 318.433L231.964 367.026C232.062 367.9 232.478 368.707 233.133 369.293C233.788 369.879 234.636 370.204 235.515 370.205H265.317V387.932H256.575C255.854 387.932 255.163 388.218 254.653 388.728C254.144 389.238 253.857 389.929 253.857 390.649V392.944C253.856 393.302 253.925 393.656 254.061 393.988C254.196 394.319 254.396 394.62 254.649 394.874C254.901 395.127 255.201 395.329 255.532 395.466C255.862 395.603 256.217 395.674 256.575 395.674H288.966C289.69 395.674 290.384 395.386 290.896 394.874C291.408 394.362 291.696 393.668 291.696 392.944V390.649C291.696 390.291 291.625 389.937 291.488 389.607C291.35 389.276 291.149 388.976 290.895 388.723C290.642 388.471 290.341 388.271 290.01 388.135C289.678 387.999 289.324 387.93 288.966 387.932H280.224V370.205H319.19C319.693 370.203 320.19 370.095 320.649 369.887C321.107 369.68 321.516 369.379 321.85 369.002C322.184 368.626 322.435 368.184 322.586 367.704C322.737 367.224 322.786 366.718 322.728 366.218Z" fill="#232B41"/>
</svg>
