<svg xmlns="http://www.w3.org/2000/svg" width="800" height="600" fill="none" viewBox="0 0 800 600">
    <path d="M140 316.133C140 360.071 186.455 392.043 207.041 427.578C228.207 464.264 233.377 520.157 269.948 541.437C305.494 562.023 356.094 539.023 400.021 539.023C443.948 539.023 494.558 562.023 530.104 541.437C566.675 520.271 571.845 464.264 593.011 427.578C613.597 392.043 660.052 360.185 660.052 316.133C660.052 272.082 613.462 240.234 592.97 204.699C571.804 168.013 566.634 111.996 530.062 90.8193C494.517 70.2335 443.917 93.2332 399.979 93.2332C356.042 93.2332 305.453 70.2542 269.907 90.8193C233.221 111.975 228.166 167.993 207 204.678C186.414 240.348 140 272.206 140 316.133Z" fill="#066FD1" opacity="0.02"/>
    <path d="M184.809 506.389C184.809 507.891 269.275 509.134 373.416 509.134C477.557 509.134 562.035 507.891 562.035 506.389C562.035 504.886 477.557 503.695 373.416 503.695C269.275 503.695 184.86 504.949 184.86 506.389" fill="#D6D8E2" opacity="0.5"/>
    <path d="M380.171 394.239C380.817 393.557 381.396 392.815 381.901 392.022C382.159 391.552 382.391 391.068 382.595 390.572C384.429 386.003 383.041 381.082 379.487 379.673C376.286 378.398 372.463 380.346 370.38 383.983C370.113 384.409 369.887 384.86 369.707 385.329L369.251 386.728C368.215 390.872 369.614 394.944 372.815 396.228C375.177 397.326 378.016 396.384 380.171 394.239Z" fill="#FFCB9D"/>
    <path d="M380.171 394.239C380.817 393.557 381.396 392.815 381.901 392.022C377.853 389.664 374.001 386.986 370.38 384.014C370.113 384.44 369.887 384.891 369.707 385.36L369.251 386.759C368.215 390.903 369.614 394.975 372.815 396.259C375.177 397.327 378.016 396.384 380.171 394.239Z" fill="black" opacity="0.1"/>
    <path d="M382.161 396.166C376.836 391.524 370.478 388.224 363.616 386.542C355.401 406.278 350.956 412.256 348.584 411.665C344.087 410.546 348.584 386.189 342.419 378.906C342.502 378.761 342.596 378.626 342.678 378.492L288.235 349.98C283.49 361.76 278.828 373.581 274.073 385.36L268.261 399.865C266.5 403.947 264.773 408.188 263.081 412.587C259.205 422.767 255.862 433.141 253.062 443.668L299.165 446.838C304.128 439.109 308.946 431.422 313.898 423.693L327.78 401.937C328.133 406.35 328.692 411.106 329.552 416.161C331.883 429.764 333.043 436.571 337.301 439.171C350.656 447.325 385.373 411.738 390.605 406.299C388.324 402.51 385.476 399.093 382.161 396.166Z" fill="#DADBE0"/>
    <path d="M313.906 423.641C308.953 431.37 304.043 439.006 299.173 446.786L253.07 443.616C254.932 435.221 257.415 426.975 260.499 418.948C261.535 416.172 262.457 414.089 263.089 412.556C269.698 396.518 276.671 381.382 283.809 367.116C283.333 372.41 282.524 388.966 293.227 404.972C298.494 412.789 305.593 419.198 313.906 423.641Z" fill="black" opacity="0.1"/>
    <path d="M323.761 317.138C322.57 319.335 320.912 322.619 318.861 326.753C318.457 327.602 318.042 328.462 317.939 328.763C315.95 333.336 314.52 338.133 313.681 343.049L313.38 345.94C313.142 349.41 321.306 358.662 330.682 362.858C340.058 367.054 348.159 360.351 346.491 354.477C346.055 352.211 346.016 349.887 346.377 347.608C346.761 344.562 347.371 341.55 348.201 338.594C348.646 336.864 348.957 335.797 348.957 335.797L345.538 325.82L328.962 316.133C327.48 319.024 325.626 320.568 324.621 320.184C323.616 319.801 323.647 317.594 323.74 317.138" fill="#FFCB9D"/>
    <path d="M323.76 317.138C322.569 319.335 320.911 322.619 318.86 326.753C318.456 327.602 318.041 328.462 317.938 328.763C315.949 333.336 314.52 338.133 313.68 343.049C315.011 343.351 316.391 343.376 317.733 343.123C319.075 342.87 320.35 342.344 321.481 341.578C322.742 340.758 323.855 339.732 324.775 338.543C325.463 337.821 326.077 337.033 326.609 336.191C331.723 342.013 338.618 345.983 346.221 347.483C346.6 344.437 347.21 341.424 348.045 338.47C348.49 336.73 348.801 335.673 348.801 335.673L345.382 325.696L328.806 316.009C327.334 318.9 325.47 320.443 324.475 320.06C323.48 319.677 323.657 317.594 323.75 317.138" fill="black" opacity="0.1"/>
    <path d="M319.582 319.49C317.628 322.974 317.083 327.075 318.059 330.949C318.287 331.653 318.515 332.358 318.691 333.135C318.999 335.207 318.778 337.324 318.049 339.288C319.363 338.797 320.497 337.92 321.302 336.771C322.324 334.825 323.2 332.806 323.923 330.731C323.982 330.64 324.021 330.538 324.037 330.431C324.135 330.128 324.27 329.839 324.441 329.571C324.918 328.638 325.477 327.768 325.954 326.97L326.016 326.887C328.751 331.902 337.039 345.163 348.663 343.806C350.464 343.57 352.229 343.11 353.916 342.438C354.068 342.407 354.21 342.339 354.331 342.241C354.739 342.045 355.128 341.809 355.491 341.537H355.636C356.612 340.907 357.503 340.155 358.288 339.299L358.547 338.978C359.267 337.963 359.742 336.794 359.934 335.565C360.127 334.335 360.031 333.078 359.656 331.891C358.566 328.66 356.879 325.663 354.683 323.054C349.295 316.102 338.997 309.088 329.238 311.896C326.734 312.638 324.457 313.999 322.618 315.854C321.355 316.839 320.298 318.064 319.51 319.459" fill="#232B41"/>
    <path d="M326.048 326.887C328.783 331.902 337.072 345.163 348.696 343.806C350.497 343.57 352.261 343.11 353.948 342.438C354.1 342.407 354.242 342.339 354.363 342.241C354.761 342.043 355.139 341.807 355.492 341.537H355.637C356.613 340.907 357.504 340.155 358.289 339.299C355.334 340.055 352.273 340.307 349.234 340.045C334.274 338.657 325.965 324.598 324.733 322.329L324.629 322.122C324.956 323.736 325.421 325.32 326.017 326.856" fill="black" opacity="0.5"/>
    <path d="M344.002 435.266C341.771 454.605 339.54 473.975 337.309 493.376L329.208 493.739C326.272 483.51 323.337 473.295 320.402 463.093C309.254 465.559 298.103 468.025 286.948 470.49C281.188 482.453 275.431 494.426 269.678 506.409L215.09 497.251V489.854L255.951 482.809C254.984 469.755 254.02 456.691 253.06 443.616L300.717 443.015L344.002 435.266Z" fill="#066FD1"/>
    <path d="M344.003 435.266C341.772 454.605 339.541 473.975 337.31 493.376L329.209 493.739C326.273 483.51 323.338 473.295 320.402 463.093C309.255 465.559 298.104 468.025 286.949 470.49L300.677 443.067L344.003 435.266Z" fill="black" opacity="0.1"/>
    <path d="M199.469 506.264L203.312 489.014C203.312 489.014 207.881 488.89 209.207 491.822C210.533 494.754 204.027 503.871 199.469 506.264Z" fill="#232B41"/>
    <path d="M346.167 508.025L328.627 505.767C328.627 505.767 328.089 501.229 330.896 499.634C333.704 498.038 343.463 503.664 346.167 508.025Z" fill="#232B41"/>
    <path d="M310.352 360.247C311.582 364.665 314.148 368.594 317.697 371.498L318.111 371.82L326.824 370.224L310.352 360.247Z" fill="#FFCB9D"/>
    <path d="M316.953 369.592L330.732 367.624L331.727 371.271L319.564 377.911L316.953 369.592Z" fill="#066FD1"/>
    <path d="M316.456 369.219L306.179 351.804L301.051 353.192L304.407 372.089L316.456 369.219Z" fill="#066FD1"/>
    <path d="M316.953 369.592L330.732 367.624L331.727 371.271L319.564 377.911L316.953 369.592Z" fill="black" opacity="0.1"/>
    <path d="M274.008 442.425C274.548 443.193 275.02 444.008 275.417 444.859C275.61 445.36 275.772 445.872 275.904 446.393C277.095 451.179 275.044 455.851 271.324 456.753C267.978 457.571 264.456 455.116 262.891 451.231C262.689 450.77 262.53 450.291 262.415 449.801L262.156 448.361C261.7 444.124 263.647 440.27 266.994 439.441C269.501 438.685 272.164 440.011 274.008 442.425Z" fill="#FFCB9D"/>
    <path d="M274.008 442.425C274.548 443.193 275.02 444.008 275.417 444.859C271.077 446.647 266.888 448.781 262.891 451.241C262.689 450.78 262.53 450.301 262.415 449.811L262.156 448.371C261.7 444.134 263.647 440.28 266.994 439.451C269.501 438.685 272.164 440.011 274.008 442.425Z" fill="black" opacity="0.1"/>
    <path d="M274.798 400.393C274.44 408.183 275.637 415.967 278.32 423.289C280.029 428.301 282.332 433.09 285.179 437.555C280.941 439.627 277.326 441.347 274.653 442.528C269.673 444.9 264.544 446.946 259.299 448.651C255.932 449.687 252.689 450.495 249.612 451.117C246.566 440.301 243.779 424.232 247.115 406.226C247.178 405.843 247.25 405.449 247.333 405.066C247.966 401.83 248.786 398.634 249.788 395.493C250.989 391.759 252.383 388.09 253.963 384.501C254.316 383.703 254.678 382.895 255.051 382.087C262.386 366.329 274.508 349.027 288.204 349.97C293.902 350.374 298.471 353.782 301.672 357.046C293.757 361.249 287.095 367.472 282.363 375.084C277.632 382.696 275.001 391.424 274.736 400.383L274.798 400.393Z" fill="#DADBE0"/>
    <path d="M255.526 396.301C254.044 402.258 250.346 406.537 247.113 406.226C247.175 405.843 247.248 405.449 247.331 405.066C247.964 401.83 248.784 398.634 249.786 395.493C250.987 391.759 252.381 388.09 253.961 384.501C256.033 386.593 256.759 391.266 255.526 396.301Z" fill="#232B41"/>
    <path d="M514.482 265.109L487.39 289.3C472.927 302.209 458.468 315.132 444.012 328.068L413.76 355.088L383.467 382.138C381.67 383.741 379.329 384.597 376.922 384.531C374.515 384.466 372.224 383.484 370.517 381.786L359.804 371.146C358.123 369.474 357.134 367.23 357.032 364.861C356.93 362.492 357.724 360.172 359.255 358.362L368.134 347.856L385.642 327.136C394.386 316.776 403.137 306.416 411.895 296.055L449.555 251.506L472.772 223.948C473.613 222.953 474.652 222.142 475.822 221.568C476.992 220.994 478.269 220.668 479.571 220.612C480.874 220.555 482.174 220.769 483.389 221.24C484.605 221.711 485.709 222.428 486.634 223.347L514.845 251.403L515.021 251.589C515.889 252.504 516.566 253.584 517.01 254.764C517.454 255.945 517.657 257.203 517.607 258.463C517.556 259.723 517.254 260.961 516.717 262.103C516.181 263.244 515.421 264.267 514.482 265.109Z" fill="#DADBE0"/>
    <path d="M526.965 265.161L497.77 289.736C496.302 290.973 494.425 291.615 492.507 291.537C490.589 291.458 488.771 290.664 487.409 289.311L479.308 281.261L450.392 252.522C450.072 252.206 449.784 251.859 449.532 251.486C448.609 250.181 448.118 248.619 448.129 247.021C448.14 245.422 448.653 243.868 449.595 242.576L472.273 211.495C472.923 210.603 473.758 209.863 474.721 209.324C475.684 208.785 476.752 208.46 477.853 208.373C478.953 208.285 480.059 208.437 481.095 208.816C482.131 209.196 483.073 209.795 483.856 210.573L520.344 246.834L527.452 253.889C528.202 254.639 528.787 255.537 529.172 256.526C529.557 257.515 529.731 258.572 529.686 259.632C529.64 260.692 529.374 261.731 528.906 262.683C528.438 263.634 527.777 264.478 526.965 265.161Z" fill="#066FD1"/>
    <path d="M443.337 336.274L421.145 354.922C420.116 355.792 418.816 356.276 417.468 356.293C416.121 356.31 414.809 355.859 413.758 355.015C413.603 354.891 413.448 354.746 413.292 354.601L394.426 335.859L385.599 327.084L385.123 326.618C384.137 325.636 383.535 324.334 383.425 322.948C383.314 321.561 383.704 320.18 384.522 319.055L401.751 295.434C402.245 294.756 402.88 294.192 403.612 293.782C404.344 293.373 405.156 293.126 405.992 293.059C406.828 292.992 407.669 293.107 408.457 293.395C409.245 293.683 409.961 294.138 410.557 294.729L411.852 296.014L431.039 315.077L443.689 327.644C443.803 327.758 443.907 327.872 444.01 327.996C444.514 328.581 444.897 329.261 445.137 329.996C445.376 330.731 445.467 331.505 445.404 332.276C445.342 333.046 445.127 333.796 444.772 334.482C444.417 335.169 443.929 335.777 443.337 336.274Z" fill="#232B41"/>
    <path d="M488.798 508.761C488.295 508.761 487.804 508.607 487.391 508.32C486.978 508.033 486.663 507.627 486.487 507.155L428.118 351.027C409.024 412.432 382.429 498.909 380.968 506.099C380.997 506.467 380.942 506.838 380.808 507.182C380.673 507.526 380.462 507.836 380.191 508.088C379.787 508.458 379.273 508.686 378.727 508.738C378.182 508.79 377.634 508.664 377.166 508.378C375.415 507.28 375.56 506.772 377.933 498.432C379.145 494.153 380.979 487.906 383.393 479.856C387.444 466.315 393.183 447.48 400.435 423.911C412.785 383.744 425.424 343.101 425.548 342.728L427.693 335.859L491.098 505.467C491.326 506.078 491.303 506.755 491.033 507.349C490.763 507.944 490.268 508.407 489.658 508.637C489.38 508.727 489.089 508.769 488.798 508.761Z" fill="#232B41"/>
    <path d="M526.966 265.161L497.771 289.736C496.304 290.973 494.426 291.615 492.508 291.537C490.591 291.458 488.772 290.664 487.411 289.311C472.934 302.213 458.468 315.132 444.012 328.068C444.51 328.653 444.887 329.33 445.123 330.06C445.359 330.791 445.448 331.561 445.385 332.326C445.323 333.092 445.11 333.837 444.759 334.52C444.407 335.202 443.925 335.809 443.339 336.305L421.147 354.953C420.117 355.823 418.818 356.307 417.47 356.324C416.123 356.341 414.811 355.89 413.76 355.046L383.467 382.138C381.67 383.741 379.329 384.597 376.922 384.531C374.515 384.466 372.224 383.484 370.517 381.786L359.804 371.146C358.123 369.474 357.134 367.23 357.032 364.861C356.93 362.492 357.724 360.172 359.255 358.362L368.134 347.856C374.474 345.349 383.394 341.506 394.469 335.901C404.881 330.638 417.189 323.821 431.082 315.118C445.587 306.022 461.78 294.874 479.33 281.251C490.705 272.403 502.609 262.505 515.042 251.558C516.803 250.004 518.571 248.422 520.346 246.813L527.453 253.868C528.206 254.619 528.795 255.518 529.182 256.509C529.568 257.499 529.744 258.56 529.699 259.622C529.653 260.685 529.386 261.726 528.916 262.679C528.445 263.633 527.781 264.478 526.966 265.161Z" fill="black" opacity="0.1"/>
    <path d="M376.194 362.544C380.086 357.586 381.474 352.18 379.296 350.47C377.117 348.76 372.196 351.394 368.304 356.352C364.413 361.311 363.024 366.717 365.203 368.427C367.382 370.137 372.303 367.503 376.194 362.544Z" fill="#232B41"/>
    <path d="M511.312 50L522.408 72.4817L547.21 76.087L529.266 93.5751L533.504 118.284L511.312 106.619L489.131 118.284L493.358 93.5751L475.414 76.087L500.216 72.4817L511.312 50Z" fill="#232B41"/>
    <path d="M603.993 135.265L610.312 148.08L624.454 150.132L614.218 160.108L616.632 174.188L603.993 167.537L591.343 174.188L593.757 160.108L583.531 150.132L597.663 148.08L603.993 135.265Z" fill="#066FD1"/>
    <path d="M389.192 160.367L395.512 173.183L409.653 175.234L399.417 185.201L401.831 199.28L389.192 192.64L376.542 199.28L378.956 185.201L368.73 175.234L382.862 173.183L389.192 160.367Z" fill="#A6A9B3"/>
    <path d="M254.677 209.672L259.319 219.058L269.689 220.571L262.178 227.875L263.95 238.204L254.677 233.334L245.415 238.204L247.177 227.875L239.676 220.571L250.046 219.058L254.677 209.672Z" fill="#DADBE0"/>
    <path d="M337.392 99.2007L342.034 108.597L352.394 110.1L344.893 117.414L346.665 127.743L337.392 122.863L328.12 127.743L329.891 117.414L322.391 110.1L332.761 108.597L337.392 99.2007Z" fill="#066FD1"/>
    <path d="M348.457 437.648C348.456 438.136 348.408 438.621 348.312 439.099C344.002 440.632 340.169 440.881 337.31 439.099C334.72 437.514 333.28 434.385 332.016 429.101C333.439 428.684 334.915 428.475 336.398 428.48C343.06 428.563 348.457 432.613 348.457 437.648Z" fill="#232B41"/>
    <path d="M530.541 264.471C534.681 260.253 525.195 244.226 509.352 228.674C493.509 213.122 477.31 203.933 473.169 208.151C469.028 212.369 478.515 228.396 494.358 243.948C510.2 259.501 526.4 268.689 530.541 264.471Z" fill="#232B41"/>
</svg>
