<svg xmlns="http://www.w3.org/2000/svg" width="800" height="600" fill="none" viewBox="0 0 800 600">
    <path d="M156 330.308C156 371.58 199.646 401.608 218.987 434.984C238.863 469.452 243.72 521.955 278.081 541.96C311.457 561.29 358.986 539.692 400.257 539.692C441.529 539.692 489.047 561.29 522.434 541.96C556.784 522.084 561.652 469.473 581.528 434.984C600.858 401.608 644.504 371.654 644.504 330.308C644.504 288.962 600.751 259.009 581.528 225.633C561.652 191.165 556.784 138.565 522.434 118.657C489.058 99.3265 441.518 120.936 400.257 120.936C358.997 120.936 311.468 99.3265 278.081 118.657C243.613 138.544 238.863 191.144 218.987 225.633C199.646 259.116 156 289.048 156 330.308Z" fill="#066FD1" opacity="0.02"/>
    <path d="M349.71 242.813H288.456C287.993 242.811 287.534 242.901 287.106 243.078C286.678 243.254 286.288 243.513 285.96 243.84C285.632 244.167 285.372 244.555 285.195 244.983C285.017 245.411 284.926 245.869 284.926 246.332V365.321C284.926 365.784 285.017 366.243 285.195 366.671C285.372 367.098 285.632 367.487 285.96 367.814C286.288 368.141 286.678 368.4 287.106 368.576C287.534 368.752 287.993 368.842 288.456 368.841C288.918 368.841 289.376 368.75 289.803 368.573C290.23 368.396 290.618 368.137 290.945 367.81C291.271 367.483 291.531 367.095 291.708 366.668C291.884 366.241 291.975 365.784 291.975 365.321V253.393C291.975 252.457 292.347 251.559 293.009 250.897C293.671 250.235 294.569 249.863 295.506 249.863H346.18C347.116 249.863 348.014 250.235 348.676 250.897C349.338 251.559 349.71 252.457 349.71 253.393V365.321C349.71 366.255 350.081 367.15 350.741 367.81C351.401 368.47 352.296 368.841 353.23 368.841C353.693 368.842 354.152 368.752 354.58 368.576C355.008 368.4 355.397 368.141 355.725 367.814C356.053 367.487 356.313 367.098 356.491 366.671C356.669 366.243 356.76 365.784 356.76 365.321V246.332C356.76 245.869 356.669 245.411 356.491 244.983C356.313 244.555 356.053 244.167 355.725 243.84C355.397 243.513 355.008 243.254 354.58 243.078C354.152 242.901 353.693 242.811 353.23 242.813H349.71Z" fill="#232B41"/>
    <path d="M163.115 517.687C163.115 519.58 269.331 521.153 400.28 521.153C531.229 521.153 637.435 519.58 637.435 517.687C637.435 515.793 531.218 514.306 400.28 514.306C269.342 514.306 163.115 515.879 163.115 517.687Z" fill="#D6D8E2" opacity="0.5"/>
    <path d="M362.048 487.691C362.048 481.789 357.263 477.004 351.361 477.004C345.458 477.004 340.674 481.789 340.674 487.691V507.043C340.674 512.945 345.458 517.73 351.361 517.73C357.263 517.73 362.048 512.945 362.048 507.043V487.691Z" fill="#066FD1"/>
    <path d="M301.712 487.691C301.712 481.789 296.927 477.004 291.025 477.004C285.123 477.004 280.338 481.789 280.338 487.691V507.043C280.338 512.945 285.123 517.73 291.025 517.73C296.927 517.73 301.712 512.945 301.712 507.043V487.691Z" fill="#066FD1"/>
    <path d="M363.169 350.109H278.519C271.229 350.109 265.318 356.02 265.318 363.31V489.531C265.318 496.821 271.229 502.732 278.519 502.732H363.169C370.46 502.732 376.37 496.821 376.37 489.531V363.31C376.37 356.02 370.46 350.109 363.169 350.109Z" fill="#A6A9B3"/>
    <path d="M402.216 230.746C399.791 240.017 397.38 249.235 394.984 258.399C392.545 257.501 389.999 256.656 387.367 255.885C384.736 255.115 382.094 254.473 379.494 253.928C377.675 253.553 376.146 253.286 374.83 253.072L372.156 252.665C364.667 251.596 360.559 250.611 357.917 250.184L357.211 250.077C352.119 249.328 344.524 249.125 333.527 251.499C325.161 264.946 322.444 276.296 321.535 284.255C320.465 293.38 321.535 300.986 316.603 304.26C312.634 306.902 305.67 306.143 301.573 302.516C290.875 293.059 301.573 265.759 306.868 252.398C308.861 247.183 311.643 242.306 315.116 237.935C316.796 235.813 318.646 233.831 320.647 232.008C323.033 229.941 325.948 228.581 329.066 228.082C335.26 226.777 345.658 226.403 365.855 226.499H370.037C376.055 226.474 382.065 226.896 388.02 227.761C392.806 228.477 397.547 229.473 402.216 230.746Z" fill="#FFCB9D"/>
    <path d="M513.234 475.324L505.746 483.294L464.368 427.966C462.528 411.014 460.691 394.059 458.859 377.099C456.341 390.849 453.824 404.592 451.306 418.328C445.915 444.836 440.519 471.356 435.121 497.886L425.065 496.955C421.499 469.605 417.955 442.248 414.432 414.883C419.032 393.688 423.628 372.492 428.221 351.297L456.773 342.739L498.333 330.33L494.289 418.499C500.601 437.441 506.916 456.383 513.234 475.324Z" fill="#066FD1"/>
    <path d="M458.869 377.099C456.352 390.849 453.834 404.592 451.317 418.328C445.918 444.836 440.519 471.356 435.121 497.886L425.065 496.955C421.499 469.605 417.955 442.248 414.432 414.883C419.032 393.688 423.628 372.492 428.221 351.297L456.773 342.739L458.869 377.099Z" fill="black" opacity="0.1"/>
    <path d="M410.592 518.478L435.025 516.157C435.025 516.157 436.095 509.803 432.201 507.471C428.307 505.139 414.657 512.745 410.592 518.478Z" fill="#232B41"/>
    <path d="M516.625 515.601L521.439 491.542C521.439 491.542 515.662 488.686 512.314 491.745C508.965 494.805 512.314 510.07 516.593 515.601" fill="#232B41"/>
    <path d="M484.064 77.7709L502.089 56.3864V50H471.227V58.0232H488.803L470.82 79.4183V85.8047H502.849V77.7709H484.064Z" fill="#232B41"/>
    <path d="M448.878 125.001L462.454 108.901V104.087H439.229V110.131H452.451L438.908 126.242V131.055H463.031V125.001H448.878Z" fill="#066FD1"/>
    <path d="M414.025 156.794L423.043 146.086V142.887H407.607V146.899H416.389L407.393 157.607V160.805H423.428V156.794H414.025Z" fill="#A6A9B3"/>
    <path d="M356.407 432.288H285.279C280.7 432.288 276.988 436 276.988 440.579V478.405C276.988 482.984 280.7 486.696 285.279 486.696H356.407C360.986 486.696 364.698 482.984 364.698 478.405V440.579C364.698 436 360.986 432.288 356.407 432.288Z" fill="black" opacity="0.1"/>
    <path d="M374.926 253.703C369.366 252.737 363.748 252.148 358.109 251.938C357.831 251.339 357.532 250.718 357.189 250.077C353.734 243.354 348.568 237.661 342.213 233.57C338.174 230.978 333.714 229.11 329.033 228.05C335.227 226.745 345.625 226.371 365.822 226.467H370.005L374.797 253.04L374.926 253.703Z" fill="black" opacity="0.1"/>
    <path d="M500.569 329.335C485.817 334.737 473.879 338.438 465.449 340.867C461.373 342.044 454.837 343.862 441.775 347.489L427.868 351.34L425.001 352.131C424.862 351.479 424.713 350.815 424.552 350.12C423.346 344.885 421.861 339.717 420.102 334.641C416.668 324.703 413.191 318.252 408.998 309.94C405.254 302.505 399.969 291.754 393.829 278.083L386.094 266.037L371.118 265.385C371.079 249.953 367.102 234.787 359.564 221.321L397.295 226.339C398.365 225.74 399.68 224.98 401.349 224.199C410.027 219.853 419.481 217.272 429.163 216.604C433.261 216.344 437.374 216.448 441.454 216.914C473.194 220.562 490.396 244.824 493.049 248.697C488.702 253.131 483.785 256.966 478.425 260.1C477.131 260.849 475.783 261.576 474.36 262.24C472.777 263.021 471.226 263.716 469.728 264.379C472.581 271.846 475.79 279.541 479.356 287.465C486.181 302.805 493.423 316.787 500.569 329.335Z" fill="#DADBE0"/>
    <path d="M429.183 216.54C428.38 218.487 427.375 220.69 426.145 223.151C419.416 236.608 402.214 236.106 402.214 236.106L401.348 224.135C410.032 219.787 419.493 217.205 429.183 216.54Z" fill="#FFCB9D"/>
    <path d="M429.183 216.54C428.38 218.487 427.375 220.69 426.145 223.151C419.416 236.608 402.214 236.106 402.214 236.106L401.348 224.135C410.032 219.787 419.493 217.205 429.183 216.54Z" fill="black" opacity="0.1"/>
    <path d="M383.806 177.782C386.769 179.697 391.091 182.564 396.301 186.255L398.782 188.041C404.367 192.274 409.398 197.191 413.759 202.676C414.604 203.745 415.385 204.815 416.113 205.971C418.755 210.1 414.989 227.002 406.367 238.513C397.745 250.023 383.153 247.392 381.174 239.026C380.211 235.923 378.689 233.023 376.681 230.468C374.124 226.974 371.325 223.664 368.305 220.562C366.615 218.754 365.427 217.642 365.427 217.642L362.785 203.018L376.51 179.772C380.254 182.35 383.571 182.917 384.544 181.826C385.517 180.735 384.116 178.275 383.806 177.782Z" fill="#FFCB9D"/>
    <path d="M383.804 177.782C386.767 179.697 391.089 182.564 396.299 186.255L398.781 188.041C404.37 192.269 409.402 197.186 413.757 202.676C412.389 203.896 410.803 204.847 409.082 205.478C407.182 206.147 405.168 206.435 403.156 206.324C401.023 206.161 398.929 205.663 396.951 204.847C395.646 204.389 394.37 203.85 393.132 203.232C390.845 213.883 385.061 223.463 376.701 230.447C374.144 226.96 371.345 223.657 368.325 220.562C366.634 218.743 365.447 217.642 365.447 217.642L362.805 203.007L376.53 179.751C380.274 182.34 383.59 182.96 384.564 181.815C385.537 180.671 384.114 178.275 383.804 177.782Z" fill="black" opacity="0.1"/>
    <path d="M354.6 230.072C356.609 230.292 358.636 230.292 360.645 230.072C363.229 229.862 365.769 229.278 368.186 228.339C379.109 224.156 386.693 212.111 387.196 197.691C387.28 195.246 387.165 192.799 386.854 190.374V190.309C386.874 190.3 386.896 190.295 386.918 190.295C386.94 190.295 386.962 190.3 386.982 190.309C388.283 190.989 389.531 191.765 390.715 192.631C391.261 193.048 391.421 193.144 391.785 193.422L392.117 193.722C392.769 194.203 396.834 198.226 399.509 199.659C401.304 200.557 403.333 200.878 405.318 200.579C403.093 198.573 401.405 196.043 400.407 193.219C400.107 192.165 399.872 191.093 399.701 190.01C398.236 184.491 394.814 179.693 390.074 176.509C388.093 175.233 385.929 174.27 383.655 173.653C382.211 173.172 376.819 171.717 372.572 173.129C363.768 176.039 358.013 192.074 356.216 200.622C355.916 202.119 355.446 204.762 353.862 206.302C353.556 206.603 353.192 206.84 352.793 206.998C350.279 208.067 346.973 206.324 345.24 204.569C341.881 201.189 341.539 195.091 344.224 189.026C334.125 199.573 333.43 214.507 340.619 223.087C344.169 227.176 349.198 229.689 354.6 230.072Z" fill="#232B41"/>
    <path d="M354.602 230.072C356.61 230.292 358.637 230.292 360.646 230.072C363.23 229.862 365.77 229.278 368.187 228.339C379.11 224.156 386.694 212.111 387.197 197.691C387.015 194.021 386.865 190.898 386.855 190.374V190.309L385.785 184.736C385.186 192.369 383.203 199.829 379.933 206.751C377.034 212.86 373.033 221.375 363.78 226.595C360.915 228.213 357.82 229.386 354.602 230.072Z" fill="black" opacity="0.5"/>
    <path d="M500.57 329.335C485.818 334.737 473.879 338.438 465.45 340.867C461.374 342.044 454.838 343.862 441.776 347.489L427.869 351.34L424.553 350.12C424.553 350.12 468.103 300.419 467.707 265.075C467.709 261.581 467.179 258.107 466.134 254.773C462.497 243.519 468.541 248.354 478.404 260.047C477.11 260.796 475.762 261.523 474.339 262.186C472.756 262.967 471.205 263.662 469.707 264.326C472.56 271.793 475.769 279.488 479.335 287.411C486.181 302.805 493.424 316.787 500.57 329.335Z" fill="black" opacity="0.1"/>
    <path d="M496.577 368.67C491.528 371.013 484.671 368.52 481.109 364.926C473.674 357.437 478.156 342.76 479.986 333.143C482.285 321.119 482.852 304.442 476.338 282.49C474.486 276.306 472.279 270.234 469.727 264.304L488.105 251.842C489.239 254.848 490.555 258.528 491.935 262.807C493.582 267.835 495.304 273.697 496.93 280.233C503.21 305.458 512.977 361.053 496.577 368.67Z" fill="#FFCB9D"/>
    <path d="M491.935 262.817C486.928 267.096 480.424 273.782 476.338 282.49C474.486 276.306 472.279 270.234 469.727 264.304L488.105 251.842C489.239 254.858 490.555 258.538 491.935 262.817Z" fill="black" opacity="0.1"/>
    <path d="M448.738 230.447L461.073 270.327C461.073 270.327 483.131 261.224 493.786 248.386L453.969 228.639L448.738 230.447Z" fill="#DADBE0"/>
    <path d="M363.063 502.732H278.552C275.053 502.732 271.697 501.342 269.222 498.869C266.746 496.396 265.354 493.041 265.352 489.542V363.31C265.35 361.088 265.912 358.901 266.984 356.954C268.056 355.006 269.603 353.362 271.481 352.174C277.247 377.688 298.6 449.554 363.063 502.732Z" fill="black" opacity="0.1"/>
</svg>
