<svg xmlns="http://www.w3.org/2000/svg" width="800" height="600" fill="none" viewBox="0 0 800 600">
    <path d="M130 307.012C130 352.731 178.34 385.883 199.694 422.794C221.74 460.863 227.025 519.05 265.118 541.129C302.039 562.472 354.583 538.597 400.302 538.597C446.021 538.597 498.565 562.472 535.475 541.129C573.567 519.05 578.853 460.841 600.899 422.794C622.253 385.883 670.582 352.731 670.582 307.012C670.582 261.293 622.253 228.107 600.899 191.23C578.853 153.161 573.567 94.885 535.475 72.9063C498.565 51.552 445.988 75.4376 400.269 75.4376C354.549 75.4376 302.039 51.552 265.118 72.9063C227.025 94.9296 221.74 153.194 199.694 191.23C178.329 228.107 130 261.304 130 307.012Z" fill="#066FD1" opacity="0.02"/>
    <path d="M613.164 455.977C613.164 459.322 524.524 461.954 415.077 461.954C305.629 461.954 217 459.322 217 455.977C217 452.632 305.64 450 415.088 450C524.535 450 613.175 452.743 613.175 455.977" fill="#D6D8E2" opacity="0.5"/>
    <path d="M598.446 274.506C598.449 274.048 598.361 273.593 598.188 273.168C598.014 272.743 597.758 272.357 597.435 272.032C597.111 271.706 596.727 271.448 596.303 271.272C595.88 271.096 595.426 271.005 594.967 271.005H205.616C204.693 271.005 203.808 271.371 203.156 272.024C202.503 272.676 202.137 273.561 202.137 274.484V275.532C202.14 276.453 202.508 277.335 203.16 277.985C203.812 278.635 204.695 279 205.616 279H224.477V303.02H205.616C204.695 303.02 203.812 303.385 203.16 304.035C202.508 304.685 202.14 305.567 202.137 306.488V307.536C202.137 308.459 202.503 309.344 203.156 309.996C203.808 310.648 204.693 311.015 205.616 311.015H224.477V349.815C224.228 350.274 224.087 350.8 224.087 351.36L209.34 351.36C207.904 351.358 206.5 351.788 205.31 352.593C204.12 353.398 203.199 354.542 202.666 355.876C202.133 357.21 202.012 358.673 202.319 360.077C202.626 361.48 203.348 362.759 204.389 363.748L224.087 382.479V440.222C224.087 442.018 225.542 443.473 227.338 443.473C229.133 443.473 230.588 442.018 230.588 440.222V388.661L232.089 390.087C233.427 391.361 235.204 392.071 237.051 392.072H255.758L256.637 393.109V464.755C256.637 466.335 257.917 467.615 259.497 467.615C261.077 467.615 262.357 466.335 262.357 464.755V392.072H563.024V440.222C563.024 442.018 564.48 443.473 566.275 443.473C568.07 443.473 569.525 442.018 569.525 440.222V392.072H594.706L595.585 393.11V464.755C595.585 466.335 596.865 467.615 598.445 467.615C600.025 467.615 601.305 466.335 601.305 464.755V392.072H621.573C623.015 392.066 624.422 391.627 625.611 390.812C626.801 389.997 627.717 388.843 628.243 387.5C628.768 386.158 628.878 384.688 628.557 383.282C628.237 381.876 627.502 380.599 626.446 379.616L598.078 353.278C596.747 352.043 594.998 351.358 593.183 351.36L569.525 351.36C569.525 350.8 569.384 350.273 569.135 349.813V311.015H594.967C595.889 311.015 596.774 310.648 597.427 309.996C598.079 309.344 598.446 308.459 598.446 307.536V306.488C598.443 305.567 598.075 304.685 597.423 304.035C596.771 303.385 595.888 303.02 594.967 303.02H569.135V279H594.967C595.888 279 596.771 278.635 597.423 277.985C598.075 277.335 598.443 276.453 598.446 275.532V274.506ZM230.588 351.36C230.588 350.8 230.447 350.273 230.197 349.813V311.015H563.414V349.815C563.165 350.274 563.024 350.8 563.024 351.36H230.588ZM563.414 303.02H230.197V279H563.414V303.02Z" fill="#232B41"/>
    <path d="M358.865 279.023H263.568C261.962 276.201 260.379 273.525 258.84 271.027H357.137L358.865 279.023Z" fill="black" opacity="0.15"/>
    <path d="M365.766 311.015H279.468C278.286 308.272 277.093 305.607 275.889 303.02H364.049L365.766 311.015Z" fill="black" opacity="0.15"/>
    <path d="M383.275 392.072H303.166C296.711 385.112 291.572 377.038 288 368.242C285.81 362.809 284.243 357.146 283.328 351.36H374.488L383.275 392.072Z" fill="black" opacity="0.1"/>
    <path d="M398.885 210.198C398.083 219.647 397.283 229.088 396.488 238.522C396.302 240.633 396.116 242.741 395.93 244.845C395.514 249.573 395.098 254.301 394.681 259.029L393.477 272.789C392.875 279.614 392.277 286.434 391.682 293.251C391.236 298.225 390.801 303.165 390.377 308.105C390.232 309.889 390.076 311.662 389.931 313.446C389.307 320.88 388.664 328.34 388.002 335.826H315.654C314.215 321.586 312.777 307.503 311.495 293.251L309.097 269.087C308.302 261.036 307.495 252.978 306.677 244.912C305.506 233.281 304.313 221.662 303.176 210.031L368.633 210.131L398.885 210.198Z" fill="#DADBE0"/>
    <path d="M498.4 283.438C496.883 287.274 489.088 305.807 470.21 312.598C448.822 320.293 421.747 309.833 406.816 285.579L406.637 285.312C405.756 284.007 402.032 277.863 394.695 259.073C394.193 257.78 393.669 256.43 393.133 255.025C391.483 250.676 389.654 245.725 387.658 240.105L398.898 210.243C400.475 210.586 402.006 211.114 403.459 211.815C411.41 215.684 414.755 223.836 415.413 225.196C418.413 231.552 436.255 246.539 498.4 283.438Z" fill="#DADBE0"/>
    <path d="M498.398 283.439C496.882 287.274 489.087 305.808 470.208 312.599C448.821 320.293 421.746 309.833 406.815 285.58L406.636 285.312C405.755 284.007 402.031 277.863 394.693 259.073C394.192 257.78 393.668 256.431 393.132 255.026C392.185 249.945 392.072 244.743 392.798 239.626C394.314 229.434 400.603 211.325 403.414 211.748C411.364 215.618 414.71 223.769 415.367 225.13C418.412 231.553 436.253 246.54 498.398 283.439Z" fill="black" opacity="0.1"/>
    <path d="M423.386 96.5353L418.412 84.9716C417.932 83.4814 418.058 81.8621 418.763 80.464C419.467 79.066 420.695 78.0019 422.178 77.5019C423.662 77.002 425.283 77.1065 426.69 77.7928C428.097 78.4792 429.178 79.6921 429.697 81.1691C430.948 80.5324 432.38 80.3435 433.753 80.6336C435.127 80.9237 436.359 81.6754 437.246 82.7637C437.698 83.4835 437.998 84.2883 438.127 85.1285C438.256 85.9686 438.212 86.8263 437.997 87.6486C437.781 88.4709 437.4 89.2404 436.876 89.9096C436.352 90.5788 435.696 91.1335 434.949 91.5396L423.386 96.5353Z" fill="#066FD1"/>
    <path d="M381.913 98.4979L353.935 84.8489C346.742 79.9982 345.014 70.2745 349.675 63.7623C351.846 60.8568 354.989 58.829 358.53 58.049C362.072 57.269 365.776 57.7888 368.966 59.5137C372.055 52.522 379.359 48.8421 385.693 50.3252C393.421 52.1429 398.784 61.4763 395.584 70.531C391.027 79.8533 386.47 89.1756 381.913 98.4979Z" fill="#A6A9B3"/>
    <path d="M316.635 144.741C317.27 148.589 318.397 154.186 319.835 161.223C320.147 162.672 320.471 164.111 320.638 164.568C322.581 172.083 325.427 179.336 329.113 186.168L331.521 190.015C334.555 194.475 353.444 198.021 368.967 194.174C384.489 190.327 388.013 174.325 380.33 168.727C377.631 166.366 375.367 163.551 373.639 160.409C371.189 156.303 369.05 152.02 367.238 147.596C366.123 145.042 365.476 143.437 365.476 143.437L351.716 134.516L322.11 138.508C323.069 143.47 322.266 147.15 320.671 147.63C319.077 148.109 316.98 145.399 316.668 144.753" fill="#FFCB9D"/>
    <path d="M316.636 144.741C317.272 148.589 318.398 154.186 319.837 161.223C320.149 162.672 320.472 164.111 320.639 164.568C322.583 172.083 325.428 179.336 329.114 186.168C331.041 185.268 332.761 183.979 334.166 182.383C335.571 180.786 336.63 178.916 337.277 176.89C338.037 174.677 338.414 172.35 338.392 170.01C338.548 168.467 338.548 166.913 338.392 165.371C350.252 167.605 362.517 165.861 373.284 160.409C370.826 156.306 368.683 152.023 366.872 147.596C365.757 145.042 365.121 143.437 365.121 143.437L351.349 134.516L321.743 138.508C322.702 143.47 321.899 147.15 320.305 147.63C318.71 148.109 316.96 145.399 316.625 144.753" fill="#606060" opacity="0.1"/>
    <path d="M313.737 151.622C314.691 157.768 317.953 163.32 322.859 167.144C323.86 167.785 324.824 168.481 325.747 169.229C328.122 171.468 329.884 174.279 330.865 177.392C332.028 175.524 332.589 173.344 332.471 171.147C331.855 167.782 330.998 164.465 329.906 161.223C329.886 161.054 329.833 160.891 329.75 160.743C329.581 160.28 329.473 159.796 329.427 159.305C329.103 157.71 328.947 156.105 328.791 154.666V154.51C336.954 158.022 359.836 166.352 372.804 153.551C374.778 151.539 376.497 149.292 377.923 146.86C378.091 146.681 378.203 146.456 378.246 146.214C378.576 145.603 378.841 144.961 379.038 144.296L379.205 144.139C379.805 142.433 380.18 140.657 380.32 138.854V138.218C380.233 136.279 379.696 134.388 378.751 132.692C377.807 130.997 376.481 129.544 374.878 128.45C370.083 124.926 363.672 123.164 360.315 122.372C347.034 119.027 327.665 120.287 318.387 133.089C316.022 136.399 314.533 140.255 314.06 144.296C313.481 146.705 313.371 149.204 313.737 151.655" fill="#232B41"/>
    <path d="M328.79 154.51C336.952 158.022 359.834 166.352 372.803 153.551C374.777 151.539 376.496 149.292 377.921 146.86C378.089 146.68 378.202 146.456 378.245 146.213C378.574 145.603 378.84 144.96 379.036 144.295L379.204 144.139C379.803 142.433 380.178 140.656 380.319 138.854C377.415 142.616 373.898 145.862 369.915 148.455C350.233 161.1 326.548 151.8 322.857 150.216L322.545 150.06C324.494 151.724 326.584 153.216 328.79 154.521" fill="black" opacity="0.5"/>
    <path d="M341.168 208.28C346.048 213.494 352.419 217.073 359.411 218.528L360.214 218.684L371.097 210.198L341.168 208.28Z" fill="#FFCB9D"/>
    <path d="M356.959 216.443L374.555 203.798L378.559 208.124L366.56 226.044L356.959 216.443Z" fill="#066FD1"/>
    <path d="M355.999 216.287L329.27 199.638L323.182 205.236L341.425 228.932L355.999 216.287Z" fill="#066FD1"/>
    <path d="M356.959 216.443L374.555 203.798L378.559 208.124L366.56 226.044L356.959 216.443Z" fill="black" opacity="0.11"/>
    <path d="M435.952 167.367C426.955 179.662 413.806 188.279 398.941 191.621L445.519 202.772L435.952 167.367Z" fill="#232B41"/>
    <path d="M451.229 392.752L444.829 419.705L435.662 458.823L432.507 458.354L430.21 416.092L429.184 397.882L451.229 392.752Z" fill="#FFCB9D"/>
    <path d="M495.099 392.73L489.244 418.144L479.699 458.823L476.532 458.354L474.201 417.374L473.209 397.882L495.099 392.73Z" fill="#FFCB9D"/>
    <path d="M429.184 397.882L451.073 392.719L444.695 419.482C439.532 418.366 434.715 417.251 430.076 415.88L429.184 397.882Z" fill="black" opacity="0.1"/>
    <path d="M495.053 392.719L489.065 417.965C484.237 417.898 479.442 417.675 474.156 417.374L473.041 397.86L495.053 392.719Z" fill="black" opacity="0.1"/>
    <path d="M489.98 154.777C489.177 158.769 488.062 164.512 486.467 171.682C486.155 173.277 485.675 174.559 485.675 175.028C484.255 180.635 482.275 186.085 479.765 191.297L477.379 196.081L476.732 197.04C476.097 198.155 475.461 199.27 474.825 200.229C474.658 200.385 474.502 200.709 474.346 200.865C473.516 201.828 472.479 202.59 471.313 203.095C467.165 205.169 459.504 206.596 451.051 206.596C445.899 206.574 440.765 205.987 435.741 204.846C423.475 201.813 418.512 191.286 420.587 183.949C421.106 181.754 422.411 179.826 424.255 178.529C427.098 176.167 429.477 173.297 431.269 170.065C433.814 165.873 436.05 161.502 437.96 156.985C439.075 154.432 439.711 152.681 439.711 152.681L454.073 143.426L484.538 147.73C483.423 152.837 484.382 156.651 485.82 157.141C487.259 157.632 489.478 155.257 489.98 154.777Z" fill="#FFCB9D"/>
    <path d="M431.268 170.088C442.299 175.842 454.934 177.753 467.174 175.518C470.116 176.386 472.765 178.04 474.835 180.302C477.868 183.647 477.388 186.368 479.619 190.673L479.775 191.152C482.217 185.908 484.194 180.461 485.685 174.872C485.685 174.403 486.164 173.121 486.477 171.526C488.071 164.512 489.186 158.602 489.989 154.621C489.51 155.101 487.436 157.643 485.997 157.164C484.559 156.684 483.611 152.859 484.726 147.752L454.25 143.292L439.899 152.547C439.899 152.547 439.252 154.298 438.137 156.851C436.173 161.423 433.881 165.847 431.279 170.088" fill="black" opacity="0.1"/>
    <path d="M487.246 255.851C485.415 252.045 485.084 247.69 486.321 243.652C486.477 245.402 486.633 247.32 486.8 249.071C488.526 273.598 488.898 298.201 487.915 322.768V322.936C488.071 325.166 488.071 327.396 488.071 329.626L448.786 328.846L391.079 327.731C392.83 317.996 394.592 308.428 396.343 298.861L396.666 297.422C397.302 293.909 398.261 288.646 399.376 282.268C401.796 268.373 401.227 257.568 402.242 257.535C402.509 257.535 402.911 258.237 403.457 261.571C398.75 258.74 394.207 255.642 389.853 252.294C387.623 250.576 385.493 248.848 383.508 247.142C388.658 236.304 397.508 227.66 408.464 222.766L409.579 222.286L410.215 222.119L411.977 221.483C414.039 220.848 416.258 220.212 418.478 219.732C427.063 217.664 435.82 216.38 444.638 215.897C452.31 215.504 459.998 215.553 467.665 216.041C469.193 216.131 470.709 216.253 472.237 216.376C473.107 216.454 473.976 216.532 474.869 216.632C477.879 216.922 480.99 217.324 484.202 217.814H484.525C484.835 217.912 485.152 217.987 485.473 218.038C485.707 218.038 485.93 218.104 486.142 218.127C486.838 218.284 487.523 218.486 488.194 218.729C493 220.468 496.323 224.304 502.512 235.455C504.33 238.734 506.538 242.904 508.913 247.844L487.246 255.851Z" fill="#066FD1"/>
    <path d="M474.712 220.892C474.712 231.107 462.446 239.392 447.113 239.392C431.781 239.392 419.682 231.107 419.682 220.892C419.657 220.356 419.709 219.819 419.838 219.298C428.434 217.291 437.179 215.993 445.987 215.417C455.187 214.937 464.408 215.094 473.586 215.885C474.333 217.428 474.715 219.122 474.701 220.836" fill="#DADBE0"/>
    <path d="M454.52 486.399C450.729 478.593 436.087 466.138 431.359 467.899C426.631 469.661 426.899 477.322 426.899 477.322L425.906 485.34L435.061 487.09L437.392 480.779L454.52 486.399Z" fill="#232B41"/>
    <path d="M498.399 486.399C494.607 478.593 479.955 466.138 475.238 467.899C470.521 469.661 470.778 477.322 470.778 477.322L469.785 485.34L478.94 487.09L481.271 480.779L498.399 486.399Z" fill="#232B41"/>
    <path d="M512.337 400.079L419.995 402.554C419.665 395.604 417.376 388.89 413.393 383.185C408.453 376.405 403.045 374.677 398.964 371.22C392.641 365.867 387.211 354.404 391.281 327.563L461.533 328.834L487.682 329.314H488.128L488.184 329.448L497.506 351.025C502.45 367.373 507.393 383.724 512.337 400.079Z" fill="#DADBE0"/>
    <path d="M409.469 222.108L410.104 221.952C412.825 233.917 428.292 243.016 447.115 243.016C467.856 243.016 484.604 231.999 484.604 218.283V217.647C485.251 217.803 485.887 217.803 486.522 217.959V218.283C486.522 233.125 468.815 245.246 447.115 245.246C427.5 245.246 411.23 235.355 408.197 222.587L409.469 222.108Z" fill="#DADBE0"/>
    <path d="M440.412 253.699C440.464 254.105 440.598 254.498 440.804 254.852C441.011 255.206 441.287 255.516 441.615 255.761C441.943 256.007 442.318 256.185 442.716 256.284C443.114 256.382 443.528 256.4 443.933 256.336C444.338 256.272 444.726 256.127 445.074 255.91C445.423 255.693 445.724 255.409 445.96 255.073C446.196 254.738 446.363 254.359 446.45 253.958C446.537 253.557 446.543 253.143 446.467 252.74C446.319 251.955 445.872 251.26 445.22 250.8C444.567 250.341 443.762 250.153 442.974 250.278C442.186 250.403 441.477 250.83 440.999 251.469C440.521 252.107 440.31 252.907 440.412 253.699Z" fill="#DADBE0"/>
    <path d="M391.281 327.563L488.296 329.47C488.296 327.24 488.296 325.01 488.139 322.78V322.612C436.131 325.166 405.499 306.02 396.567 298.682C394.816 308.261 393.065 317.829 391.304 327.563" fill="black" opacity="0.1"/>
    <path d="M475.751 220.758C475.751 225.141 473.577 229.189 469.93 232.422C464.7 237.072 456.426 240.072 447.115 240.072C431.303 240.072 418.49 231.419 418.49 220.758C418.49 220.457 418.49 220.089 418.49 219.721C427.076 217.653 435.832 216.369 444.651 215.885C452.323 215.493 460.011 215.541 467.678 216.03C469.205 216.119 470.722 216.242 472.25 216.365C473.119 216.443 473.989 216.521 474.881 216.621C475.397 217.943 475.691 219.341 475.751 220.758Z" fill="#FFCB9D"/>
    <path d="M426.484 150.473C427.802 154.219 430.055 157.566 433.03 160.197C445.987 171.828 468.914 164.022 475.136 161.479C475.939 165.628 479.285 168.973 479.452 171.515V173.589C479.421 174.766 479.313 175.939 479.128 177.102C478.84 179.076 478.305 181.005 477.534 182.845C474.058 190.654 470.061 198.221 465.569 205.493L486.131 209.819L502.713 213.321C506.216 205.726 507.961 197.44 507.82 189.078C507.835 188.013 507.783 186.948 507.664 185.889C507.408 183.1 506.979 180.329 506.382 177.593C506.204 177.132 506.098 176.647 506.069 176.154C505.12 172.562 503.782 169.085 502.077 165.784C497.855 157.207 491.693 149.731 484.08 143.95C481.359 142.032 464.454 130.067 444.995 134.059C440.2 135.018 428.558 137.404 426.64 144.909C426.193 146.758 426.305 148.699 426.964 150.484" fill="#232B41"/>
    <path d="M426.484 150.473C427.802 154.219 430.055 157.566 433.03 160.197C445.787 171.85 468.914 164.033 475.137 161.479C477.396 159.893 479.482 158.073 481.359 156.049C472.452 159.668 462.794 161.052 453.229 160.08C443.664 159.108 434.482 155.81 426.484 150.473Z" fill="black" opacity="0.5"/>
    <path d="M485.988 209.975L502.581 213.488C506.081 205.889 507.827 197.6 507.688 189.234C507.703 188.169 507.651 187.104 507.532 186.045L506.205 177.749C506.049 177.269 506.049 176.79 505.893 176.31C504.935 172.721 503.597 169.245 501.901 165.94C501.265 176.79 499.191 191.788 493.281 200.564C490.894 203.753 488.497 206.942 485.943 209.975" fill="black" opacity="0.5"/>
    <path d="M371.053 503.661L343.689 500.617C343.689 500.617 342.73 493.569 347.034 491.016C351.338 488.462 366.56 496.937 371.031 503.661" fill="#232B41"/>
    <path d="M429.184 506.549L401.82 503.505C401.82 503.505 400.861 496.457 405.165 493.904C409.469 491.35 424.858 499.825 429.173 506.549" fill="#232B41"/>
    <path d="M460.083 384.055C458.366 388.872 451.352 389.574 441.26 392.92C433.858 395.389 426.732 398.617 419.995 402.554C419.665 395.604 417.376 388.89 413.393 383.185C408.453 376.405 403.045 374.677 398.964 371.22C392.641 365.867 387.211 354.404 391.281 327.563L488.117 329.314C490.28 343.242 485.887 355.419 477.501 359.366C472.215 361.875 466.283 360.637 464.688 360.247C454.764 357.85 453.805 350.044 445.341 347.211C435.484 343.922 423.195 349.921 423.195 353.657C423.195 358.831 446.835 357.693 457.485 374.186C458.867 376.316 461.41 380.352 460.083 384.055Z" fill="black" opacity="0.1"/>
    <path d="M488.172 329.448L487.67 329.314H488.116L488.172 329.448Z" fill="black" opacity="0.1"/>
    <path d="M496.815 318.899C496.202 319.289 495.577 319.657 494.93 320.014C494.284 320.371 493.603 320.683 492.934 320.962C492.131 321.236 491.311 321.463 490.481 321.642C486.861 322.469 483.066 322.028 479.732 320.393C478.408 319.772 477.242 318.86 476.32 317.725C475.399 316.589 474.747 315.26 474.412 313.836C474.281 313.21 474.221 312.57 474.234 311.93C474.301 307.268 478.115 302.841 483.59 300.857C484.309 300.559 485.056 300.334 485.82 300.187L488.05 299.864C494.741 299.385 500.729 302.674 501.844 307.993C502.959 311.974 500.718 316.134 496.815 318.899Z" fill="#FFCB9D"/>
    <path d="M496.815 318.899C496.219 319.323 495.589 319.696 494.93 320.014C491.987 321.363 486.01 321.252 479.732 320.393C478.408 319.772 477.242 318.86 476.32 317.725C475.399 316.589 474.747 315.26 474.412 313.836C474.281 313.21 474.221 312.57 474.234 311.93C478.103 311.383 481.516 310.09 483.066 307.19C483.988 305.209 484.174 302.963 483.59 300.857C484.309 300.559 485.056 300.334 485.82 300.187L488.05 299.864C494.741 299.385 500.729 302.674 501.844 307.993C502.959 311.974 500.718 316.134 496.815 318.899Z" fill="black" opacity="0.1"/>
    <path d="M390.389 308.116C390.233 309.9 390.088 311.673 389.932 313.457C389.307 320.891 388.664 328.351 388.003 335.838H315.665C314.227 321.598 312.777 307.514 311.495 293.263L309.097 269.098C308.354 261.047 307.548 252.989 306.678 244.923C322.966 246.15 338.686 251.445 352.397 260.322C369.791 271.841 383.091 288.572 390.389 308.116Z" fill="black" opacity="0.1"/>
    <path d="M315.521 335.837C314.412 343.8 314.898 351.904 316.948 359.678C318.922 367.049 321.821 372.045 326.426 379.884C331.421 388.339 337.097 396.372 343.398 403.904L347.045 481.303L356.612 482.719L379.628 405.03L368.042 372.045L393.199 404.205C396.492 430.737 399.778 457.269 403.057 483.801L410.94 484.057L429.474 394.726C416.761 374.61 404.045 354.501 391.326 334.399L315.521 335.837Z" fill="#066FD1"/>
    <path d="M410.941 484.057L402.912 482.663C399.663 456.503 396.422 430.354 393.188 404.216C390.044 399.967 385.829 394.447 380.621 388.136C373.931 380.007 371.143 377.33 368.043 372.056C364.558 366.053 362.179 359.474 361.018 352.631L410.517 399.811L410.941 484.057Z" fill="black" opacity="0.1"/>
    <path d="M485.553 295.716L501.744 334.098C505.333 330.803 508.131 326.739 509.929 322.211C515.962 306.878 507.331 293.006 506.818 292.203C504.596 288.783 501.751 285.81 498.432 283.438L485.553 295.716Z" fill="#DADBE0"/>
    <path d="M508.657 306.098C502.435 332.537 487.939 352.932 480.133 353.947C477.363 354.32 474.544 353.858 472.037 352.62C465.993 349.174 465.113 340.699 464.99 339.372C463.819 325.612 480.601 319.3 489.188 303.912C493.459 296.195 496.48 284.71 493.024 267.191C492.856 266.31 492.667 265.43 492.455 264.515C492.243 263.601 491.964 262.419 491.674 261.337C491.147 259.278 490.526 257.141 489.812 254.925L492.165 254.067L493.224 253.676L494.284 253.286L495.254 252.929L502.056 250.431L503.171 250.03L504.9 249.394C506.126 252 507.195 254.678 508.1 257.412C508.211 257.735 508.323 258.081 508.434 258.427C509.795 262.753 514.824 279.915 508.657 306.098Z" fill="#FFCB9D"/>
    <path d="M508.078 257.412C504.708 256.992 501.29 257.619 498.287 259.207C495.939 260.474 493.937 262.296 492.455 264.515C492.221 263.478 491.965 262.419 491.675 261.337C491.147 259.278 490.526 257.141 489.812 254.925L492.165 254.067L493.225 253.676L494.284 253.286L495.254 252.929L502.056 250.431L503.171 250.03L504.9 249.394C506.119 252.001 507.18 254.678 508.078 257.412Z" fill="black" opacity="0.1"/>
    <path d="M423.597 341.758C423.392 343.747 422.955 345.704 422.292 347.59C421.445 349.821 420.575 352.051 418.389 353.679C415.044 356.21 410.818 355.575 409.257 355.34C407.079 354.953 404.992 354.167 403.101 353.021C398.897 350.367 386.375 337.465 379.929 308.484C379.929 308.484 373.595 280.494 380.175 260.813L380.509 259.798C380.888 258.683 381.279 257.635 381.624 256.631C382.701 253.912 383.956 251.267 385.382 248.714L398.496 258.438C397.749 260.567 397.225 262.374 396.868 263.723C396.863 263.756 396.863 263.79 396.868 263.824C396.5 265.184 396.232 266.366 396.109 266.901C395.898 267.816 395.708 268.697 395.541 269.578C392.084 287.096 395.106 298.57 399.377 306.298C407.93 321.698 424.801 327.998 423.597 341.758Z" fill="#FFCB9D"/>
    <path d="M398.541 258.438C397.794 260.567 397.269 262.374 396.913 263.723C396.907 263.756 396.907 263.79 396.913 263.824C392.866 259.677 387.464 257.125 381.691 256.631C382.768 253.912 384.023 251.267 385.449 248.714L398.541 258.438Z" fill="black" opacity="0.1"/>
    <path d="M391.348 334.399C388.46 339.004 381.781 340.075 375.737 337.376C374.996 337.082 374.289 336.708 373.629 336.261L371.756 334.923C366.593 330.619 364.574 324.095 367.463 319.49C369.436 315.899 373.941 314.461 378.669 315.175C379.394 315.32 380.13 315.487 380.844 315.699C381.555 315.896 382.254 316.13 382.94 316.401L383.264 316.557L383.498 316.658C384.055 316.948 384.613 317.271 385.171 317.606C386.93 318.69 388.482 320.08 389.754 321.709C392.842 325.712 393.657 330.708 391.348 334.399Z" fill="#FFCB9D"/>
    <path d="M389.732 321.731C387.675 321.75 385.646 322.206 383.779 323.069C381.913 323.933 380.251 325.183 378.904 326.738C376.505 329.738 375.362 333.551 375.715 337.376C374.975 337.082 374.268 336.708 373.608 336.261L371.734 334.923C366.571 330.619 364.553 324.095 367.441 319.49C369.415 315.899 373.92 314.461 378.648 315.175C379.387 315.283 380.115 315.458 380.822 315.699C381.525 315.933 382.339 316.212 383.242 316.557L383.476 316.658C384.034 316.948 384.591 317.271 385.149 317.606C386.911 318.697 388.463 320.094 389.732 321.731Z" fill="black" opacity="0.1"/>
    <path d="M386.262 305.73C377.921 319.661 369.58 333.585 361.239 347.501C347.53 339.272 334.508 329.949 322.299 319.624C322.11 319.468 321.742 319.144 321.184 318.643C316.322 314.249 298.336 297.087 291.389 278.443C291.232 278.053 291.099 277.651 290.954 277.261C289.031 271.647 287.573 265.885 286.594 260.032C285.87 255.372 285.497 250.665 285.479 245.949C285.771 240.665 286.494 235.414 287.642 230.248C289.504 222.108 292.927 213.343 299.205 210.767C300.977 210.073 302.891 209.824 304.781 210.042L315.664 243.373C321.352 262.419 330.964 273.102 336.45 278.22C345.438 286.594 355.864 291.702 368.944 298.113C376.048 301.581 382.08 304.09 386.262 305.73Z" fill="#DADBE0"/>
    <path d="M321.174 318.642C316.312 314.249 298.325 297.087 291.378 278.443C291.222 278.052 291.088 277.651 290.943 277.261C297.812 279 305.73 284.754 312.041 293.274C318.498 301.994 321.687 311.506 321.174 318.642Z" fill="#232B41"/>
    <path d="M367.341 337.287L361.241 347.49C347.529 339.26 334.504 329.937 322.29 319.613C322.112 319.457 321.733 319.122 321.175 318.62C316.313 314.227 298.315 297.076 291.38 278.476C291.223 278.075 291.09 277.685 290.945 277.283C289.729 273.801 288.713 270.253 287.9 266.656C317.83 317.583 362.613 335.838 367.341 337.287Z" fill="black" opacity="0.1"/>
</svg>
