<svg xmlns="http://www.w3.org/2000/svg" width="800" height="600" fill="none" viewBox="0 0 800 600">
    <path d="M123.037 300.004C123.037 346.965 172.707 381.156 194.713 419.13C217.388 458.345 222.866 518.099 261.962 540.858C299.984 562.816 354.045 538.268 401.006 538.268C447.966 538.268 502.064 562.852 540.05 540.846C579.146 518.171 584.683 458.345 607.298 419.118C629.305 381.132 678.974 347.072 678.974 299.992C678.974 252.912 629.186 218.84 607.298 180.866C584.624 141.639 579.146 81.8131 540.05 59.1383C502.064 37.1558 447.966 61.74 401.006 61.74C354.045 61.74 299.984 37.1558 261.962 59.198C222.746 81.8728 217.34 141.686 194.713 180.926C172.707 219.031 123.037 253.091 123.037 300.052" fill="#066FD1" opacity="0.02"/>
    <path d="M60 546.359C60 548.149 195.798 549.641 363.209 549.641C530.621 549.641 666.418 548.149 666.418 546.359C666.418 544.569 530.621 543.161 363.233 543.161C195.846 543.161 60.0239 544.653 60.0239 546.359" fill="#D6D8E2" opacity="0.5"/>
    <path d="M664.533 175.448V328.598C664.533 337.12 661.148 345.292 655.124 351.319C649.099 357.346 640.928 360.733 632.406 360.737H290.005C281.484 360.733 273.312 357.346 267.288 351.319C261.263 345.292 257.879 337.12 257.879 328.598V175.448C257.879 166.926 261.263 158.754 267.288 152.727C273.312 146.7 281.484 143.313 290.005 143.309H632.406C640.222 143.311 647.768 146.163 653.632 151.33C659.496 156.497 663.274 163.625 664.258 171.378C664.444 172.727 664.535 174.087 664.533 175.448Z" fill="white"/>
    <path d="M632.406 365.128H290.006C280.315 365.125 271.021 361.277 264.166 354.428C257.31 347.579 253.452 338.289 253.439 328.598V175.436C253.452 165.75 257.306 156.463 264.157 149.615C271.008 142.767 280.295 138.915 289.982 138.906H632.406C642.092 138.915 651.378 142.767 658.227 149.616C665.075 156.465 668.927 165.751 668.936 175.436V328.598C668.927 338.284 665.075 347.57 658.227 354.418C651.378 361.267 642.092 365.119 632.406 365.128ZM290.006 147.713C282.656 147.723 275.61 150.647 270.413 155.844C265.216 161.041 262.292 168.086 262.283 175.436V328.598C262.283 335.954 265.202 343.009 270.4 348.214C275.598 353.419 282.65 356.347 290.006 356.357H632.406C639.756 356.347 646.802 353.424 651.999 348.227C657.196 343.03 660.12 335.984 660.129 328.634V175.436C660.12 168.086 657.196 161.041 651.999 155.844C646.802 150.647 639.756 147.723 632.406 147.713H290.006Z" fill="#232B41"/>
    <path d="M618.168 292.104C616.455 294.076 614.861 296.148 613.395 298.309C614.433 297.765 615.323 296.974 615.984 296.006C616.82 294.741 617.428 293.44 618.168 292.104Z" fill="black" opacity="0.1"/>
    <path d="M411.162 205.486C410.255 204.103 409.537 202.607 409.025 201.035C407.199 195.438 408.584 189.936 412.832 187.537C418.298 184.518 426.33 187.537 430.733 194.447C431.237 195.209 431.684 196.007 432.07 196.834C435.018 203.063 433.884 209.699 429.075 212.348C423.764 215.391 415.744 212.312 411.162 205.486Z" fill="#FFCB9D"/>
    <path d="M411.16 205.486C410.253 204.104 409.535 202.607 409.023 201.035C409.632 200.748 410.217 200.545 410.742 200.307C418.248 197.455 422.497 199.03 431.03 197.085C431.406 197.018 431.776 196.927 432.14 196.81C435.087 203.04 433.954 209.675 429.144 212.324C423.762 215.391 415.742 212.312 411.16 205.486Z" fill="black" opacity="0.1"/>
    <path d="M614.409 286.602C614.409 287.497 614.337 288.44 614.29 289.43C614.17 291.925 614.003 294.729 613.8 297.784C613.8 297.892 613.8 297.987 613.8 298.095C613.574 301.567 613.299 305.362 612.989 309.372C612.464 316.175 611.795 323.586 611.211 331.08C610.232 342.442 609.206 353.982 608.466 363.899H525.595L521.49 362.157C522.075 356.476 522.481 350.521 522.684 344.351C523.317 328.776 522.694 313.176 520.822 297.701C503.116 301.231 484.826 300.512 467.453 295.6C409.632 278.833 387.781 219.914 385.107 212.229L411.506 205.987L433.429 200.796L443.787 198.338C450.673 221.418 454.922 230.023 457.643 232.887L459.934 235.274C464.326 239.868 467.524 243.269 467.811 243.627C473.455 249.594 484.721 257.948 486.452 259.285C486.452 259.285 512.193 278.379 517.612 274.417L518.22 273.988C519.274 273.271 520.397 272.663 521.574 272.174C522.302 271.875 523.03 271.458 523.829 271.064C525.798 270.121 527.851 269.286 529.796 268.522L530.536 268.259C538.194 265.424 546.073 263.228 554.094 261.696C560.296 260.5 566.559 259.647 572.854 259.142H573.415L576.327 258.927C577.604 258.843 578.893 258.772 580.194 258.736L581.387 258.652C583.285 258.521 585.194 258.461 587.092 258.485C588.524 258.485 589.956 258.533 591.388 258.629H591.71C595.344 259.29 598.856 260.497 602.129 262.209L602.344 262.268C602.63 262.48 602.887 262.728 603.107 263.008C603.788 263.784 604.79 265.073 605.912 266.589C606.509 267.388 607.105 268.259 607.785 269.142C610.733 273.236 613.753 277.663 614.027 277.902C614.516 278.451 614.588 281.661 614.409 286.602Z" fill="#DADBE0"/>
    <path d="M614.04 286.745C614.04 287.521 613.969 288.356 613.933 289.216C613.67 294.598 613.193 301.508 612.596 309.193C611.271 326.378 609.362 347.382 608.073 363.923H557.043C568.84 353.631 577.255 340.017 581.186 324.863C584.25 312.41 584.007 299.373 580.481 287.044C580.195 285.993 579.885 284.967 579.563 283.965C578.679 281.232 577.701 278.714 576.698 276.422C576.46 275.849 576.209 275.3 575.958 274.763C574.765 272.15 573.572 269.882 572.378 267.997C571.194 265.929 569.882 263.936 568.452 262.03L572.868 259.142L572.999 259.058L576.328 258.831C577.522 258.76 578.632 258.712 579.801 258.676L581.329 258.557C583.226 258.426 585.136 258.366 587.045 258.402C588.441 258.402 589.838 258.461 591.246 258.557H591.353C594.945 259.247 598.418 260.453 601.664 262.137L601.855 262.28C602.261 262.495 602.679 262.734 603.049 262.972C604.453 263.786 605.797 264.7 607.071 265.705C607.834 266.29 608.562 266.899 609.278 267.567L609.087 267.818L607.727 269.095L607.178 269.596L603.108 273.188L613.634 277.771C614.136 278.415 614.207 281.685 614.04 286.745Z" fill="black" opacity="0.1"/>
    <path d="M582.748 262.782C584.025 272.627 573.404 282.115 559.011 283.965C544.619 285.814 531.992 279.31 530.668 269.453C530.608 268.925 530.608 268.393 530.668 267.865C538.574 264.848 546.733 262.539 555.049 260.968C563.665 259.344 572.388 258.355 581.149 258.008C582.002 259.473 582.546 261.098 582.748 262.782Z" fill="#FFCB9D"/>
    <path d="M582.356 281.279C581.865 279.785 581.221 278.345 580.434 276.983C580.303 276.768 580.196 276.565 580.076 276.363C579.671 275.611 579.253 274.919 578.883 274.262C576.771 270.921 574.611 268.844 572.486 267.997C571.626 267.639 570.694 267.488 569.765 267.555C566.352 267.842 563.309 272.329 562.139 275.05C559.92 272.174 554.979 266.78 549.704 267.627C545.635 268.367 542.329 272.854 539.954 281.077C539.847 281.423 539.739 281.793 539.644 282.163C538.546 286.268 537.4 292.032 539.942 294.443C540.328 294.828 540.799 295.117 541.318 295.285C541.836 295.453 542.387 295.496 542.926 295.409C547.305 294.825 553.977 288.81 558.679 284.012L559.383 283.284C559.324 283.511 559.252 283.734 559.168 283.953C558.6 285.63 557.624 287.139 556.328 288.344C555.749 288.656 555.258 289.108 554.9 289.658C554.541 290.208 554.326 290.84 554.275 291.495C554.527 294.761 555.931 297.832 558.237 300.159L559.86 297.987C556.889 294.204 556.674 292.653 556.793 292.283C556.823 292.09 556.9 291.908 557.016 291.752C557.132 291.596 557.285 291.471 557.461 291.388C559.633 290.135 561.221 286.495 562.235 283.428C562.498 282.592 562.724 281.793 562.903 281.1C563.285 281.721 563.643 282.354 563.977 283.01C564.749 284.45 565.411 285.946 565.958 287.485C565.921 288.03 565.853 288.571 565.756 289.108C565.398 291.185 564.837 294.705 567.223 296.651C568.62 297.689 570.04 302.14 571.174 308.429L573.56 307.928C572.176 300.076 570.565 295.493 568.405 293.703C567.665 293.178 567.748 292.02 568.095 289.788C568.249 288.954 568.333 288.107 568.345 287.258C567.967 285.515 567.34 283.835 566.483 282.27L566.197 281.757L566.842 282.139C571.365 284.8 576.974 287.545 580.184 287.127C580.333 287.112 580.481 287.084 580.625 287.044C581.32 286.865 581.926 286.441 582.332 285.85C582.66 285.134 582.832 284.355 582.836 283.567C582.84 282.779 582.677 281.999 582.356 281.279ZM553.881 284.275C548.081 289.597 542.77 293.166 541.291 291.769C541.136 291.769 540.097 290.349 541.971 283.249C542.066 282.879 542.174 282.509 542.281 282.151C544.31 275.133 546.947 271.291 550.158 270.718H550.408C554.549 270.133 558.917 275.133 560.684 277.496C558.476 279.871 556.137 282.198 553.881 284.275ZM570.243 280.695C568.25 279.656 566.102 278.415 563.93 277.019C564.992 274.942 567.044 271.052 569.897 270.682C571.794 270.515 573.811 271.875 575.947 274.775C576.281 275.217 576.616 275.682 576.95 276.195C577.284 276.709 577.69 277.389 578.06 278.009C580.625 282.544 580.172 283.642 580.196 283.666C580.115 283.758 580.016 283.833 579.905 283.887C579.794 283.94 579.674 283.971 579.551 283.977C578.048 284.191 574.467 282.914 570.243 280.671V280.695Z" fill="#066FD1"/>
    <path d="M718.057 203.422C719.45 202.537 720.698 201.442 721.757 200.175C725.695 195.796 726.59 190.222 723.666 186.308C719.835 181.26 711.255 180.95 704.44 185.604C703.688 186.084 702.981 186.631 702.328 187.239C697.089 191.822 695.55 198.35 698.855 202.753C702.543 207.563 711.195 207.968 718.057 203.422Z" fill="#FFCB9D"/>
    <path d="M718.057 203.421C719.451 202.537 720.698 201.442 721.757 200.175L720.492 198.827C714.74 193.158 710.229 192.967 703.152 187.8C702.865 187.549 702.567 187.358 702.269 187.072C697.041 191.654 695.49 198.17 698.796 202.586C702.543 207.563 711.195 207.968 718.057 203.421Z" fill="black" opacity="0.1"/>
    <path d="M719.763 215.153C706.779 224.533 693.508 234.784 680.249 246.038L678.053 247.948C674.417 251.066 670.861 254.173 667.384 257.268C651.845 268.945 634.821 278.5 616.76 285.683C610.101 288.332 603.306 290.652 596.376 292.641C593.194 287.716 590.063 282.739 586.984 277.711C590.35 276.016 593.64 274.214 596.854 272.305C606.32 266.703 615.189 260.149 623.324 252.745C625.146 251.074 626.932 249.368 628.682 247.625C632.514 243.852 636.131 239.868 639.518 235.691C643.07 231.325 646.358 226.75 649.364 221.991C655.599 211.195 660.821 199.845 664.962 188.086C667.298 181.442 669.247 174.668 670.797 167.798C671.848 162.834 672.552 158.454 673.029 155.255C681.112 158.355 688.017 163.915 692.768 171.152C697.291 178.026 697.542 182.919 701.122 190.831L701.874 192.478C706.18 201.207 712.275 208.933 719.763 215.153Z" fill="#DADBE0"/>
    <path d="M719.763 215.153C706.779 224.533 693.508 234.784 680.249 246.038L678.053 247.947C674.417 251.066 670.861 254.173 667.384 257.268C651.845 268.945 634.821 278.5 616.76 285.683L623.324 252.745C625.145 251.074 626.932 249.368 628.682 247.625C632.513 243.852 636.131 239.868 639.518 235.691C655.474 237.29 685.297 236.216 719.763 215.153Z" fill="black" opacity="0.1"/>
    <path d="M545.167 247.184C558.545 249.153 573.534 245.907 579.776 241.992C580.859 241.438 581.783 240.616 582.461 239.606C583.213 238.293 583.821 236.932 584.478 235.5C585.38 233.511 586.177 231.475 586.865 229.402C588.766 224.078 590.168 218.588 591.053 213.005C591.053 212.563 591.292 211.179 591.543 209.603C592.402 202.443 592.903 196.774 593.166 192.645C592.82 193.23 591.03 195.867 589.586 195.569C588.142 195.271 586.817 191.559 587.378 186.451L557.089 185.258L544.069 195.772C544.069 195.772 543.627 197.49 542.72 200.199C541.213 204.788 539.378 209.263 537.231 213.589C535.823 216.929 533.799 219.974 531.264 222.564C524.055 228.948 529.223 244.869 545.167 247.184Z" fill="#FFCB9D"/>
    <path d="M537.244 213.494C548.621 218.04 561.186 218.674 572.963 215.296C575.913 215.833 578.658 217.171 580.899 219.162C584.205 222.194 584.014 224.867 586.615 228.889L586.878 229.223C588.781 223.946 590.191 218.505 591.091 212.969C591.091 212.527 591.329 211.143 591.592 209.567C592.439 202.407 592.941 196.738 593.203 192.609C592.857 193.206 591.079 195.831 589.623 195.533C588.167 195.235 586.854 191.523 587.415 186.415L557.126 185.222L544.106 195.748C544.106 195.748 543.665 197.454 542.77 200.163C541.238 204.729 539.392 209.183 537.244 213.494Z" fill="black" opacity="0.1"/>
    <path d="M740.864 308.883C730.958 314.504 699.357 330.794 658.841 325.125C635.007 321.633 612.584 311.682 594.003 296.352C593.012 295.505 592.463 294.992 592.177 294.753C578.131 281.387 572.963 258.27 578.453 241.348C578.668 240.68 578.871 240.047 579.05 239.462C581.436 232.099 582.284 228.388 583.931 221.502C584.613 218.465 584.87 215.348 584.694 212.241C584.694 211.56 584.551 210.832 584.456 210.14C584.098 207.754 580.541 204.663 579.276 200.748C573.309 203.851 551.565 213.792 537.877 203.6C534.739 201.316 532.221 198.284 530.549 194.781C529.77 193.093 529.5 191.214 529.774 189.375C530.967 181.773 542.09 178.312 546.78 176.844C564.752 171.235 581.651 180.317 586.079 182.704C593.926 187.093 600.767 193.077 606.16 200.272C611.554 207.466 615.381 215.71 617.394 224.473C619.482 234.283 617.501 238.711 621.893 243.902C628.122 251.301 639.794 251.373 656.12 250.012C677.299 248.233 698.31 244.822 718.965 239.808C711.112 253.998 711.804 262.221 714.12 267.149C716.435 272.078 720.218 273.797 721.137 279.811C722.223 287.175 717.413 290.445 718.344 295.517C718.547 296.56 718.952 297.554 719.538 298.441C721.853 301.937 727.653 305.744 740.864 308.883Z" fill="#232B41"/>
    <path d="M530.562 194.745C532.245 198.242 534.761 201.27 537.89 203.565C551.638 213.745 573.286 203.803 579.289 200.713C581.361 198.923 583.24 196.923 584.898 194.745C576.53 199.182 567.201 201.497 557.729 201.486C548.257 201.476 538.933 199.141 530.574 194.686L530.562 194.745Z" fill="black" opacity="0.5"/>
    <path d="M740.864 308.883C730.959 314.504 699.357 330.794 658.841 325.125C635.007 321.633 612.584 311.682 594.003 296.352C593.013 295.505 592.464 294.992 592.177 294.753C578.131 281.387 572.963 258.271 578.453 241.348C578.668 240.68 578.871 240.047 579.05 239.462C589.623 271.529 607.859 285.218 614.852 289.824C649.652 312.762 698.009 303.202 719.526 298.453C721.853 301.937 727.653 305.744 740.864 308.883Z" fill="black" opacity="0.5"/>
    <path d="M632.406 365.128H290.006C280.315 365.125 271.021 361.277 264.166 354.427C257.31 347.578 253.452 338.289 253.439 328.598H262.259C262.259 335.958 265.182 343.017 270.385 348.222C275.588 353.428 282.646 356.354 290.006 356.357H632.406C637.222 356.344 641.953 355.083 646.136 352.697C650.32 350.31 653.813 346.879 656.274 342.74L663.864 347.227C660.614 352.674 656.007 357.186 650.494 360.323C644.981 363.46 638.749 365.116 632.406 365.128Z" fill="#232B41"/>
    <path d="M280.219 116.577C284.833 116.577 288.573 112.837 288.573 108.223C288.573 103.61 284.833 99.8694 280.219 99.8694C275.605 99.8694 271.865 103.61 271.865 108.223C271.865 112.837 275.605 116.577 280.219 116.577Z" fill="#232B41"/>
    <path d="M317.049 116.577C321.663 116.577 325.403 112.837 325.403 108.223C325.403 103.61 321.663 99.8694 317.049 99.8694C312.435 99.8694 308.695 103.61 308.695 108.223C308.695 112.837 312.435 116.577 317.049 116.577Z" fill="#066FD1"/>
    <path d="M353.889 116.577C358.503 116.577 362.243 112.837 362.243 108.223C362.243 103.61 358.503 99.8694 353.889 99.8694C349.275 99.8694 345.535 103.61 345.535 108.223C345.535 112.837 349.275 116.577 353.889 116.577Z" fill="#DADBE0"/>
    <path d="M318.599 427.985C331.498 427.985 341.954 417.529 341.954 404.63C341.954 391.732 331.498 381.275 318.599 381.275C305.701 381.275 295.244 391.732 295.244 404.63C295.244 417.529 305.701 427.985 318.599 427.985Z" fill="#066FD1"/>
    <path d="M327.945 402.04L313.72 393.83C313.352 393.6 312.929 393.474 312.495 393.466C312.061 393.459 311.634 393.569 311.258 393.787C310.883 394.004 310.573 394.319 310.364 394.699C310.154 395.079 310.052 395.509 310.068 395.942V412.363C310.052 412.797 310.154 413.227 310.364 413.606C310.573 413.986 310.883 414.302 311.258 414.519C311.634 414.736 312.061 414.847 312.495 414.839C312.929 414.832 313.352 414.706 313.72 414.476L327.945 406.265C328.33 406.063 328.652 405.759 328.877 405.387C329.102 405.014 329.221 404.588 329.221 404.153C329.221 403.718 329.102 403.291 328.877 402.919C328.652 402.547 328.33 402.243 327.945 402.04Z" fill="white"/>
    <path d="M623.659 398.842H361.145C359.214 398.842 357.648 400.408 357.648 402.339V406.921C357.648 408.853 359.214 410.418 361.145 410.418H623.659C625.59 410.418 627.156 408.853 627.156 406.921V402.339C627.156 400.408 625.59 398.842 623.659 398.842Z" fill="#066FD1"/>
    <path d="M430.302 459.897H292.165C285.567 459.897 280.219 465.245 280.219 471.843V491.797C280.219 498.394 285.567 503.743 292.165 503.743H430.302C436.899 503.743 442.248 498.394 442.248 491.797V471.843C442.248 465.245 436.899 459.897 430.302 459.897Z" fill="#A6A9B3"/>
    <path d="M651.8 459.897H492.921C485.882 459.897 480.176 465.603 480.176 472.642V490.997C480.176 498.036 485.882 503.743 492.921 503.743H651.8C658.839 503.743 664.545 498.036 664.545 490.997V472.642C664.545 465.603 658.839 459.897 651.8 459.897Z" fill="#DADBE0"/>
    <path d="M250.718 526.823C247.961 527.122 245.181 527.408 242.364 527.659C241.052 527.79 239.751 527.897 238.45 528.005C231.337 504.391 224.221 480.766 217.1 457.128L191.788 416.481L179.448 464.313L124.551 524.962L116.197 518.601C126.978 496.371 137.75 474.134 148.515 451.889C148.244 428.451 147.966 405.004 147.679 381.55L186.37 381.192L200.559 381.06L219.463 380.881L250.492 449.132L250.718 526.823Z" fill="#066FD1"/>
    <path d="M250.718 526.823C247.961 527.122 245.18 527.408 242.364 527.659C241.051 527.79 239.75 527.897 238.449 528.005C231.337 504.391 224.22 480.766 217.099 457.128L191.787 416.481L200.642 381.06L219.546 380.881L250.574 449.132L250.718 526.823Z" fill="black" opacity="0.1"/>
    <path d="M176.596 201.798C176.822 205.307 177.204 210.463 177.873 216.788C178.04 218.184 178.183 219.425 178.219 219.819C179.19 226.735 181.022 233.502 183.673 239.964C184.222 241.241 184.782 242.446 185.391 243.615C187.694 247.924 204.235 252.888 218.449 250.991C232.662 249.093 237.483 235.118 231.17 229.33C228.97 226.976 227.215 224.243 225.991 221.263C224.2 217.335 222.685 213.288 221.456 209.15C220.704 206.763 220.263 205.223 220.263 205.223L208.818 195.796L181.906 196.404C182.336 200.927 181.214 204.09 179.782 204.4C178.35 204.71 176.87 202.3 176.596 201.798Z" fill="#FFCB9D"/>
    <path d="M176.596 201.798C176.822 205.307 177.204 210.462 177.873 216.788C178.04 218.184 178.183 219.425 178.219 219.819C179.181 226.737 181.014 233.505 183.673 239.964C185.423 239.375 187.043 238.455 188.446 237.254C189.945 235.917 191.162 234.294 192.026 232.481C192.92 230.548 193.504 228.486 193.757 226.371C193.995 225.009 194.15 223.634 194.222 222.253C204.594 225.451 215.737 225.094 225.883 221.239C224.1 217.311 222.593 213.263 221.372 209.126C220.609 206.739 220.179 205.211 220.179 205.211L208.746 195.772L181.835 196.44C182.252 200.951 181.143 204.114 179.71 204.436C178.278 204.758 176.87 202.3 176.596 201.798Z" fill="black" opacity="0.1"/>
    <path d="M236.302 201.906C235.511 203.761 234.522 205.525 233.354 207.169C231.92 209.316 230.179 211.242 228.187 212.885C219.224 220.344 205.046 221.072 192.253 214.484C190.086 213.366 188.011 212.077 186.047 210.63H185.988C185.978 210.648 185.973 210.669 185.973 210.689C185.973 210.71 185.978 210.731 185.988 210.749C185.942 212.212 186.01 213.676 186.191 215.129C186.286 215.809 186.286 216 186.346 216.453L186.441 216.895C186.549 217.695 188.064 223.184 188.016 226.228C187.919 228.224 187.206 230.142 185.976 231.717C185.315 228.806 183.936 226.107 181.966 223.865C181.202 223.085 180.384 222.359 179.519 221.693C175.437 217.723 172.939 212.404 172.49 206.727C172.334 204.394 172.539 202.052 173.099 199.782C173.385 198.29 174.746 192.896 178.052 189.888C184.866 183.635 201.633 186.451 209.939 189.053C211.395 189.53 213.913 190.401 216.026 189.769C216.432 189.658 216.81 189.463 217.136 189.196C219.32 187.549 219.391 183.802 218.711 181.451C217.41 176.88 212.278 173.61 205.691 172.99C219.785 169.338 233.139 176.009 237.078 186.451C238.86 191.504 238.582 197.057 236.302 201.906Z" fill="#232B41"/>
    <path d="M236.3 201.906C235.509 203.761 234.521 205.525 233.353 207.169C231.918 209.316 230.177 211.242 228.185 212.885C219.223 220.344 205.045 221.072 192.252 214.484C189.149 212.539 186.499 210.904 186.046 210.63H185.986L181.666 206.954C188.599 210.152 196.056 212.064 203.672 212.599C210.403 213.052 219.76 213.721 228.818 208.207C231.614 206.495 234.137 204.371 236.3 201.906Z" fill="black" opacity="0.5"/>
    <path d="M264.179 541.777L240.621 548.376C240.621 548.376 237.339 542.839 240.132 539.282C242.924 535.726 258.355 537.898 264.179 541.777Z" fill="#232B41"/>
    <path d="M123.024 548.579L105.266 531.788C105.266 531.788 108.333 526.143 112.82 526.704C117.307 527.265 123.358 541.621 123.024 548.627" fill="#232B41"/>
    <path d="M239.537 265.288C238.343 264.87 237.15 264.464 235.956 264.094C231.76 262.795 227.448 261.907 223.079 261.445C217.816 260.884 212.148 260.801 204.737 260.765C196.729 260.638 188.73 261.346 180.869 262.877C175.805 263.797 170.904 265.453 166.321 267.794C163.185 269.454 160.209 271.4 157.43 273.606C150.912 279.067 145.817 286.029 142.584 293.894C140.616 298.6 139.163 303.506 138.252 308.525C141.812 306.778 145.809 306.121 149.741 306.637C153.673 307.153 157.365 308.819 160.354 311.425C158.206 320.566 156.392 328.61 154.912 335.293C154.458 337.37 152.465 346.356 149.959 358.421C148.368 366.067 146.829 373.653 145.341 381.18C160.963 382.564 173.422 383.018 182.157 383.173C186.382 383.256 193.149 383.304 206.67 383.399L223.998 383.543C223.819 380.237 223.736 376.382 223.855 372.038C223.915 369.938 224.01 367.73 224.165 365.415C224.893 354.96 226.552 347.848 228.45 338.754C229.572 333.336 229.321 334.541 229.918 331.486C232.842 316.33 232.782 312.308 234.787 304.157C236.019 299.162 237.615 294.264 239.56 289.502L239.537 265.288Z" fill="#DADBE0"/>
    <path d="M154.911 335.305C151.498 350.851 148.316 366.147 145.364 381.192C160.986 382.576 173.445 383.029 182.181 383.196C186.405 383.268 193.184 383.316 206.693 383.411L224.022 383.554C223.843 380.249 223.759 376.394 223.878 372.05C206.181 357.643 192.467 338.946 184.042 317.738C180.425 308.453 177.906 298.776 176.536 288.905C176.321 288.38 172.204 278.702 163.194 277.305C154.565 275.981 144.899 282.771 142.56 293.87C139.564 297.283 138.609 300.577 139.755 301.913C140.058 302.203 140.423 302.419 140.822 302.546C141.221 302.672 141.644 302.705 142.058 302.641L163.122 299.92L159.888 313.394C158.201 320.602 156.542 327.906 154.911 335.305Z" fill="black" opacity="0.1"/>
    <path d="M168.075 394.964C167.251 400.931 161.308 406.384 155.866 406.683C141.259 407.459 122.773 371.597 123.203 341.761C123.453 324.003 130.363 307.618 130.769 306.818C130.936 306.436 131.103 306.067 131.282 305.685C132.913 302.064 134.783 298.555 136.879 295.183C136.112 294.231 135.632 293.08 135.495 291.865C135.149 288.392 137.977 284.705 142.655 282.628C145.328 284.824 147.99 287.044 150.651 289.239C154.629 292.533 158.607 295.807 162.585 299.061C163.647 299.956 164.721 300.827 165.772 301.699C164.029 303.465 162.442 305.16 160.998 306.818C160.676 307.164 160.365 307.487 160.067 307.821L159.017 309.014C157.143 311.222 153.742 315.435 150.973 319.457C150.83 319.647 150.711 319.838 150.591 320.029C149.492 321.592 148.5 323.227 147.62 324.922C142.238 335.663 146.426 348.791 148.813 356.5C151.543 364.587 155.268 372.304 159.9 379.473C164.96 387.218 168.707 390.154 168.075 394.964Z" fill="#FFCB9D"/>
    <path d="M163.326 295.35L162.539 299.061L160.904 306.818C160.581 307.164 160.271 307.487 159.973 307.821L158.923 309.014C156.024 312.322 153.337 315.809 150.879 319.456C150.736 319.647 150.616 319.838 150.497 320.029C149.304 321.736 148.397 323.359 147.525 324.922C143.719 319.576 137.143 310.84 131.283 305.673C132.914 302.052 134.784 298.543 136.88 295.171C136.113 294.219 135.633 293.068 135.496 291.853C140.998 289.227 146.237 287.079 146.237 287.079L150.664 289.216L163.326 295.35Z" fill="black" opacity="0.1"/>
    <path d="M195.068 264.118C191.076 262.706 186.915 261.823 182.693 261.493C173.879 260.899 165.063 262.619 157.118 266.481C138.727 275.11 131.113 292.342 129.264 296.913C132.244 299.405 135.439 301.63 138.811 303.56C145.965 307.648 153.801 310.406 161.939 311.699C162.261 310.697 162.619 309.694 162.977 308.692C167.739 295.72 176.821 279.68 195.068 264.118Z" fill="#DADBE0"/>
    <path d="M275.84 276.255C277.033 275.67 296.724 265.741 308.396 241.455C319.471 218.411 321.726 185.711 309.78 178.611C307.522 177.266 304.825 176.868 302.274 177.501C295.913 179.541 292.452 190.533 293.252 205.653C292.805 213.186 291.426 220.634 289.146 227.827C286.855 234.569 282.929 246.11 273.477 250.955C268.429 253.545 257.963 256.146 255.659 256.636L254.466 256.874C252.533 257.28 250.504 257.65 248.344 257.996C248.642 259.189 248.952 260.383 249.251 261.576L252.58 274.787L254.836 283.69C258.177 282.902 261.495 281.948 264.753 280.838C265.72 280.492 266.698 280.146 267.665 279.776C267.677 279.752 272.033 278.093 275.84 276.255Z" fill="#FFCB9D"/>
    <path d="M275.838 276.255C273.547 269.715 273.379 257.71 273.451 250.955C267.741 253.504 261.765 255.409 255.634 256.635L254.44 256.874L249.225 261.552L246.719 263.784L252.555 274.763L254.595 278.606C254.595 278.606 259.44 279.8 264.727 280.814L267.639 279.752C270.229 278.785 272.986 277.592 275.838 276.255Z" fill="black" opacity="0.1"/>
    <path d="M203.316 263.605C204.379 266.421 211.264 283.893 230.681 291.65C251.447 299.92 269.61 290.314 272.033 288.977C270.813 275.425 265.526 262.558 256.865 252.065C251.458 255.299 243.63 259.237 203.316 263.605Z" fill="#DADBE0"/>
    <path d="M204.786 260.765C211.004 260.932 217.114 261.171 223.14 261.445C216.907 266.467 209.114 269.152 201.11 269.035C196.238 268.947 191.444 267.794 187.064 265.658C185.312 264.816 183.635 263.826 182.051 262.698C181.502 262.304 181.013 261.934 180.607 261.612L204.786 260.765Z" fill="#FFCB9D"/>
    <path d="M204.786 260.765C211.004 260.932 217.114 261.171 223.14 261.445C216.907 266.467 209.114 269.152 201.11 269.035C196.238 268.947 191.444 267.794 187.064 265.658C185.312 264.816 183.635 263.826 182.051 262.698C181.502 262.304 181.013 261.934 180.607 261.612L204.786 260.765Z" fill="black" opacity="0.1"/>
</svg>
