<svg xmlns="http://www.w3.org/2000/svg" width="800" height="600" fill="none" viewBox="0 0 800 600">
    <path d="M216 328.505C216 364.536 254.094 390.669 270.919 419.757C288.272 449.772 292.446 495.644 322.509 513.004C351.586 529.835 392.999 511.01 429.006 511.01C465.013 511.01 506.39 529.776 535.503 513.004C565.507 495.644 569.681 449.772 587.092 419.757C603.918 390.669 642 364.536 642 328.505C642 292.473 603.918 266.34 587.092 237.252C569.728 207.237 565.554 161.365 535.503 144.006C506.425 127.162 465.025 145.999 429.006 145.999C392.987 145.999 351.622 127.163 322.509 143.994C292.505 161.365 288.331 207.237 270.919 237.252C254.094 266.34 216 292.473 216 328.505Z" fill="#066FD1" opacity="0.02"/>
    <path d="M491.391 439.953L465.672 417.042L489.976 389.768L515.695 412.678L491.391 439.953ZM472.198 416.669L491.017 433.427L509.2 413.042L490.391 396.283L472.198 416.669Z" fill="#DADBE0"/>
    <path d="M491.391 439.953L465.672 417.042L489.976 389.768L515.695 412.678L491.391 439.953ZM472.198 416.669L491.017 433.427L509.2 413.042L490.391 396.283L472.198 416.669Z" fill="black" opacity="0.1"/>
    <path d="M571.253 419.497L534.645 386.849L528.756 381.596L518.432 393.182H518.523L524.352 398.374L540.736 413.042C541.105 413.368 541.405 413.764 541.62 414.206C541.835 414.649 541.96 415.129 541.988 415.62C542.016 416.112 541.947 416.603 541.784 417.068C541.621 417.532 541.368 417.959 541.039 418.325L536.948 422.942C536.282 423.68 535.353 424.129 534.36 424.191C533.367 424.253 532.389 423.924 531.635 423.275L515.25 408.607L509.421 403.415V403.344L505.482 407.708L484.268 431.568L480.682 435.609H480.783L486.612 440.791L502.967 455.428C503.715 456.089 504.17 457.02 504.232 458.016C504.295 459.012 503.959 459.993 503.3 460.742L499.178 465.328C498.518 466.076 497.587 466.531 496.591 466.594C495.594 466.656 494.614 466.321 493.865 465.661L477.389 451.004L471.561 445.822L471.51 445.751L459.095 459.651L501.583 497.552L507.421 490.996L571.253 419.497Z" fill="#DADBE0"/>
    <path d="M571.253 419.497L534.645 386.849L528.756 381.596L518.432 393.182H518.523L524.352 398.374L540.736 413.042C541.105 413.368 541.405 413.764 541.62 414.206C541.835 414.649 541.96 415.129 541.988 415.62C542.016 416.112 541.947 416.603 541.784 417.068C541.621 417.532 541.368 417.959 541.039 418.325L536.948 422.942C536.282 423.68 535.353 424.129 534.36 424.191C533.367 424.253 532.389 423.924 531.635 423.275L515.25 408.607L509.421 403.415V403.344L505.482 407.708L484.268 431.568L480.682 435.609H480.783L486.612 440.791L502.967 455.428C503.715 456.089 504.17 457.02 504.232 458.016C504.295 459.012 503.959 459.993 503.3 460.742L499.178 465.328C498.518 466.076 497.587 466.531 496.591 466.594C495.594 466.656 494.614 466.321 493.865 465.661L477.389 451.004L471.561 445.822L471.51 445.751L459.095 459.651L501.583 497.552L507.421 490.996L571.253 419.497Z" fill="black" opacity="0.1"/>
    <path d="M571.253 419.497L534.645 386.849L524.352 398.385L540.736 413.052C541.105 413.378 541.405 413.774 541.62 414.216C541.835 414.659 541.96 415.14 541.988 415.631C542.016 416.122 541.947 416.614 541.784 417.078C541.621 417.542 541.368 417.969 541.039 418.335L536.948 422.952C536.282 423.69 535.353 424.139 534.36 424.201C533.367 424.263 532.389 423.935 531.635 423.285L515.25 408.618L511.533 412.739L490.319 436.599L486.562 440.811L502.916 455.449C503.664 456.11 504.119 457.04 504.182 458.036C504.244 459.033 503.909 460.013 503.249 460.762L499.128 465.348C498.467 466.096 497.536 466.551 496.54 466.614C495.544 466.676 494.564 466.341 493.814 465.682L477.389 451.004L470.854 458.318L507.421 490.996L571.253 419.497Z" fill="#DADBE0"/>
    <path d="M502.876 455.449L486.521 440.811L480.723 435.609H480.622C479.885 434.968 478.927 434.642 477.952 434.7C476.977 434.759 476.064 435.198 475.41 435.922L471.288 440.569C470.64 441.296 470.304 442.249 470.351 443.222C470.398 444.195 470.825 445.11 471.541 445.771L471.591 445.842L477.42 451.024L493.805 465.702C494.554 466.361 495.534 466.697 496.53 466.634C497.527 466.572 498.457 466.116 499.118 465.368L503.24 460.782C503.567 460.409 503.818 459.974 503.977 459.504C504.137 459.033 504.201 458.536 504.168 458.04C504.134 457.544 504.002 457.06 503.781 456.615C503.559 456.171 503.251 455.774 502.876 455.449ZM540.737 413.052L524.352 398.385L518.523 393.182H518.432C517.694 392.548 516.735 392.229 515.764 392.295C514.792 392.361 513.886 392.807 513.24 393.536L509.088 398.142C508.444 398.881 508.114 399.842 508.166 400.821C508.219 401.8 508.651 402.72 509.371 403.385V403.456L515.2 408.648L531.635 423.285C532.389 423.935 533.367 424.263 534.36 424.201C535.353 424.139 536.282 423.69 536.949 422.952L541.04 418.335C541.369 417.969 541.622 417.542 541.784 417.078C541.947 416.614 542.017 416.122 541.988 415.631C541.96 415.14 541.835 414.659 541.62 414.216C541.405 413.774 541.105 413.378 540.737 413.052Z" fill="#066FD1"/>
    <path d="M465.358 403.284C466.224 405.486 467.318 407.592 468.621 409.567C473.136 416.638 479.147 420.305 483.642 418.083C489.339 415.224 490.39 404.072 485.996 393.101C485.511 391.879 484.986 390.687 484.359 389.556C479.773 380.737 472.753 375.777 467.722 378.313C462.035 381.121 460.964 392.334 465.358 403.284Z" fill="#DADBE0"/>
    <path d="M465.358 403.284C466.224 405.486 467.318 407.592 468.621 409.567C469.177 409.193 469.631 408.86 470.167 408.466C476.763 403.344 477.329 397.475 483.511 390.414C483.773 390.108 484.056 389.822 484.359 389.556C479.773 380.737 472.753 375.777 467.722 378.313C462.035 381.121 460.964 392.334 465.358 403.284Z" fill="black" opacity="0.32"/>
    <path d="M294.793 133.238C294.841 130.623 294.679 128.008 294.308 125.419C293.982 123.854 293.739 122.272 293.581 120.681C293.476 119.232 293.476 117.777 293.581 116.327L293.732 114.418V53.7682C293.732 48.9295 290.954 45 287.52 45C284.085 45 281.317 48.9295 281.317 53.7682V80.7698C281.317 78.0323 278.529 75.8099 275.105 75.8099C271.68 75.8099 268.892 78.0323 268.892 80.7698V85.8206C268.892 83.0932 266.114 80.8708 262.69 80.8708C259.265 80.8708 256.467 83.0629 256.467 85.7903V90.3865C255.372 89.7654 254.13 89.448 252.871 89.4673C249.437 89.4673 246.659 91.6694 246.659 94.4272V128.662C246.659 130.904 248.477 132.702 251.002 133.389V133.985C251.174 147.541 254.649 159.532 259.952 167.159C263.72 172.674 268.438 175.937 273.489 175.846C284.206 175.755 292.934 160.694 294.55 140.975C294.712 138.48 294.853 135.864 294.793 133.238Z" fill="#FFCB9D"/>
    <path d="M292.308 128.096C290.409 151.33 280.186 169.078 267.478 169.219C264.815 169.253 262.195 168.554 259.902 167.199C254.599 159.572 251.124 147.582 250.952 134.025V133.429C248.427 132.783 246.608 130.944 246.608 128.702V104.024C249.746 104.644 252.813 105.581 255.76 106.822L256.417 107.095C257.326 107.509 258.195 107.923 259.033 108.388C262.433 110.241 265.71 112.313 268.842 114.59C274.721 118.772 280.802 123.409 289.783 127.227C290.608 127.563 291.451 127.853 292.308 128.096Z" fill="black" opacity="0.1"/>
    <path d="M498.977 383.606C498.694 383 498.401 382.404 498.118 381.798L496.007 377.383C480.666 345.287 465.308 313.178 449.934 281.055C447.882 277.166 444.969 273.797 441.418 271.205L441.266 271.155C439.73 270.094 438.067 269.228 436.317 268.579C433.862 267.704 431.264 267.296 428.66 267.377C425.72 267.508 422.79 267.71 419.851 267.852L417.942 267.953C410.658 265.144 408.537 257.356 408.537 257.356L373.747 261.306C373.747 264.185 366.979 268.69 362.928 270.953C360.453 271.064 357.989 271.226 355.514 271.337C354.231 269.191 352.807 267.132 351.251 265.175C331.132 241.815 319.489 212.346 318.209 181.544C317.282 157.359 322.693 133.351 333.906 111.903C314.764 126.672 300.187 128.52 290.146 127.055C277.095 125.257 267.66 117.439 253.548 121.267C245.467 123.429 239.638 128.338 235.85 132.137C245.786 163.432 258.941 193.612 275.105 222.192C284.428 238.667 294.8 254.526 306.157 269.67C307.167 271.034 308.178 272.367 309.248 273.711C312.946 278.539 316.673 283.125 320.36 287.55C329.675 298.707 339.579 309.359 350.029 319.461C350.645 323.875 351.362 328.411 352.13 333.048C355.251 350.887 359.616 368.486 365.191 385.717L427.76 387.738C427.397 383.465 427.114 378.868 426.902 374.04C426.326 360.302 426.758 346.54 428.195 332.866C428.346 331.361 428.518 329.906 428.69 328.461C428.781 327.805 428.851 327.158 428.922 326.502C429.245 328.633 429.579 330.815 429.932 332.946C430.788 338.502 431.646 344.055 432.508 349.604C435.074 366.373 437.653 383.148 440.246 399.93C440.579 402.062 440.903 404.173 441.256 406.304C441.315 406.32 441.372 406.34 441.428 406.365C450.146 409.133 456.146 407.941 460.096 406.304C469.773 402.163 471.601 392.95 481.784 387.818C486.582 385.478 491.941 384.533 497.249 385.091C498.179 385.172 499.058 385.293 499.886 385.404L498.977 383.606Z" fill="#066FD1"/>
    <path d="M367.211 392.9L400.061 452.206L435.609 470.51L441.67 464.975L415.406 434.003L425.841 387.707L367.211 392.9Z" fill="#A7AAB3"/>
    <path d="M386.828 555C463.84 555 526.271 550.912 526.271 545.868C526.271 540.825 463.84 536.736 386.828 536.736C309.816 536.736 247.386 540.825 247.386 545.868C247.386 550.912 309.816 555 386.828 555Z" fill="#D6D8E2" opacity="0.5"/>
    <path d="M428.275 191.746C428.114 195.928 427.78 202.05 427.154 209.586C427.037 210.784 426.93 211.982 426.831 213.182C425.874 221.416 423.885 229.496 420.911 237.234C420.285 238.769 419.669 240.214 418.962 241.628C416.355 246.84 396.859 253.134 379.929 251.265C362.999 249.396 356.907 232.93 364.241 225.89C366.474 223.698 368.545 220.101 370.242 216.162C372.263 211.458 373.951 206.617 375.292 201.676C376.121 198.858 376.535 196.999 376.535 196.999L389.859 185.493H421.82C421.447 190.877 422.831 194.585 424.548 194.928C426.265 195.272 427.902 192.362 428.275 191.746Z" fill="#FFCB9D"/>
    <path d="M428.275 191.746C428.114 195.928 427.78 202.05 427.154 209.586C427.038 210.784 426.93 211.982 426.831 213.182C425.874 221.416 423.885 229.496 420.911 237.234C418.842 236.597 416.915 235.568 415.234 234.203C413.411 232.666 411.907 230.785 410.81 228.668C409.696 226.402 408.946 223.975 408.587 221.475C408.269 219.863 408.047 218.234 407.921 216.596C395.67 220.678 382.405 220.539 370.242 216.202C372.263 211.498 373.951 206.658 375.293 201.716C376.121 198.898 376.535 197.039 376.535 197.039L389.859 185.534H421.821C421.447 190.918 422.831 194.625 424.548 194.969C426.265 195.312 427.902 192.362 428.275 191.746Z" fill="black" opacity="0.1"/>
    <path d="M367.211 392.9L400.061 452.206L435.609 470.51L441.67 464.975L415.406 434.003L425.841 387.707L367.211 392.9Z" fill="black" opacity="0.22"/>
    <path d="M427.821 387.707L377.899 460.661L342.927 526.322L333.381 524.473L338.634 454.772L365.676 385.95L427.821 387.707Z" fill="#A7AAB3"/>
    <path d="M499.916 385.444C499.088 385.333 498.209 385.212 497.28 385.131C491.971 384.573 486.612 385.518 481.814 387.859C471.632 392.99 469.803 402.203 460.126 406.345C456.166 407.981 450.176 409.173 441.458 406.405L440.297 399.971C437.711 383.188 435.131 366.413 432.559 349.644C437.882 364.878 447.913 389.697 456.803 391.384C469.702 393.819 476.784 386.333 487.855 382.172C491.172 381.007 494.765 380.876 498.159 381.798C498.441 382.404 498.734 383 499.017 383.606L499.916 385.444ZM427.811 387.818L365.242 385.798C359.662 368.583 355.301 350.996 352.19 333.169C351.402 328.535 350.699 324.01 350.079 319.592C370.232 382.757 427.811 387.818 427.811 387.818Z" fill="black" opacity="0.1"/>
    <path d="M391.455 155.683C396.262 155.683 400.508 158.089 403.053 161.762C405.627 159.01 409.29 157.29 413.355 157.29C421.143 157.29 427.457 163.603 427.457 171.391C427.457 172.399 427.351 173.382 427.15 174.33C427.369 174.317 427.589 174.311 427.811 174.311C433.987 174.311 438.993 179.317 438.993 185.493C438.993 190.136 436.164 194.119 432.134 195.809C432.212 196.728 432.246 197.651 432.236 198.575C432.054 205.525 429.043 212.273 424.811 216.333C423.836 217.135 422.921 218.006 422.073 218.94C419.898 221.657 418.43 224.871 417.8 228.294C416.313 226.506 415.395 224.314 415.164 222C414.998 219.378 415.805 215.097 416.255 212.71C416.408 211.897 416.52 211.304 416.538 211.071C416.538 211.071 416.538 210.828 416.618 210.535C416.618 210.241 416.643 210.047 416.679 209.774L416.679 209.773C416.703 209.587 416.731 209.365 416.76 209.05C416.877 207.369 416.877 205.681 416.76 203.999C416.784 203.917 416.784 203.829 416.76 203.747C408.679 208.676 385.627 220.677 370.111 208.879C367.7 207.039 365.564 204.866 363.767 202.424C363.587 202.224 363.437 202 363.322 201.757C362.887 201.148 362.489 200.514 362.13 199.858C362.097 199.798 362.06 199.741 362.019 199.686C361.098 197.981 360.47 196.134 360.161 194.221L360.049 193.474C359.979 192.633 359.979 191.788 360.049 190.948C360.11 190.506 360.191 190.069 360.291 189.637C356.362 187.134 353.756 182.739 353.756 177.735C353.756 169.947 360.069 163.633 367.858 163.633C371.607 163.633 375.014 165.096 377.54 167.483C378.639 160.79 384.451 155.683 391.455 155.683Z" fill="#232B41"/>
    <path d="M343.513 547.212L305.42 542.343C313.107 536.443 336.058 531.787 341.301 535.787C346.544 539.787 343.513 547.212 343.513 547.212Z" fill="#232B41"/>
    <path d="M450.762 471.975L437.195 487.127C436.518 481.632 440.912 469.884 444.438 468.944C447.963 468.005 450.762 471.975 450.762 471.975Z" fill="#232B41"/>
    <path d="M416.689 203.706C408.607 208.636 385.556 220.637 370.039 208.838C367.629 206.999 365.493 204.825 363.696 202.383C363.516 202.184 363.366 201.959 363.251 201.716C362.816 201.108 362.418 200.474 362.059 199.817C362.026 199.758 361.989 199.701 361.948 199.646C361.027 197.941 360.399 196.093 360.089 194.181C363.712 197.709 367.889 200.62 372.454 202.797C395.081 213.424 418.8 200.191 422.598 198.07L422.881 197.908C420.966 199.995 418.896 201.933 416.689 203.706Z" fill="black" opacity="0.3"/>
    <path d="M309.268 273.822C308.258 272.438 307.248 271.104 306.157 269.781C294.805 254.636 284.436 238.777 275.115 222.303C275.459 221.315 276.148 220.483 277.054 219.96C282.56 217.162 293.863 231.354 302.308 251.669C305.333 258.813 307.664 266.231 309.268 273.822Z" fill="black" opacity="0.22"/>
</svg>
